<svg width="139" height="115" viewBox="0 0 139 115" fill="none" xmlns="http://www.w3.org/2000/svg">
<g id="Clip path group">
<mask id="mask0_1100_5071" style="mask-type:luminance" maskUnits="userSpaceOnUse" x="0" y="0" width="139" height="115">
<g id="A">
<path id="Vector" d="M0 0H138.249V115H0V0Z" fill="white"/>
</g>
</mask>
<g mask="url(#mask0_1100_5071)">
<g id="Group">
<g id="Clip path group_2">
<mask id="mask1_1100_5071" style="mask-type:luminance" maskUnits="userSpaceOnUse" x="0" y="0" width="139" height="115">
<g id="A_2">
<path id="Vector_2" d="M0 0H138.249V115H0V0Z" fill="white"/>
</g>
</mask>
<g mask="url(#mask1_1100_5071)">
<g id="Group_2">
<path id="Vector_3" d="M109.548 104.851C105.914 106.647 101.767 107.133 97.8138 106.227C95.0845 105.605 92.4295 104.695 89.8939 103.513L84.3183 101.24C79.4804 99.6877 74.293 99.5736 69.391 100.912H68.8841C63.9821 99.5736 58.7947 99.6877 53.9567 101.24C52.0559 101.872 50.2312 102.73 48.3811 103.513C45.8466 104.704 43.1916 105.622 40.4612 106.252C36.5035 107.157 32.3535 106.671 28.7145 104.876L28.1696 104.624C28.1334 104.624 28.0977 104.632 28.0649 104.647C28.0321 104.662 28.003 104.684 27.9795 104.712C30.4383 107.179 33.493 108.974 36.8498 109.925C39.1249 110.553 41.5024 110.724 43.8446 110.43C47.3905 109.968 50.7745 108.669 53.7159 106.643L59.1015 103.046C60.0799 102.405 61.1759 101.963 62.3265 101.747C63.477 101.53 64.6592 101.542 65.8048 101.783C67.072 101.909 66.1216 102.541 65.9316 102.642C62.7409 104.202 59.7143 106.075 56.8966 108.234C54.9958 109.622 51.5744 112.905 51.5744 112.905L54.1088 115.088L56.8966 112.059C60.2967 108.476 64.2336 105.44 68.5673 103.058C68.7268 102.919 68.9317 102.842 69.1439 102.842C69.356 102.842 69.5609 102.919 69.7204 103.058C74.0541 105.44 77.9911 108.476 81.3912 112.059L84.179 115.088L86.7133 112.905L81.3912 108.234C78.5715 106.078 75.5452 104.205 72.3562 102.642C72.1534 102.541 71.1777 101.922 72.4829 101.783C73.6286 101.542 74.8108 101.53 75.9613 101.747C77.1118 101.963 78.2079 102.405 79.1863 103.046L84.5591 106.643C87.5061 108.668 90.8938 109.966 94.4431 110.43C96.7853 110.724 99.1628 110.553 101.438 109.925C104.793 108.976 107.847 107.185 110.308 104.724C110.308 104.724 110.182 104.598 110.118 104.624L109.561 104.876M121.928 93.8935C120.34 95.153 118.525 96.0997 116.581 96.6833C113.869 97.4879 111.059 97.9127 108.23 97.9457C104.587 98.0604 100.954 98.3723 97.345 98.8798C97.1295 98.8798 97.0155 98.8798 97.0915 98.7536C100.247 97.4612 102.789 95.0189 104.2 91.9243L107.749 84.792C107.76 84.7182 107.746 84.6429 107.711 84.5774C107.457 84.6658 103.909 87.6828 102.262 89.185L96.3439 94.8908C93.6647 97.1819 90.4764 98.8046 87.0428 99.6246H86.9161C86.8779 99.6676 86.8516 99.7198 86.84 99.7761L93.6828 101.367C96.6071 102.218 99.6075 102.785 102.642 103.058C106.427 103.432 110.244 102.781 113.69 101.175C117.135 99.5684 120.082 97.0661 122.22 93.9314C122.18 93.9124 122.137 93.9025 122.093 93.9025C122.049 93.9025 122.006 93.9124 121.966 93.9314M133.054 77.0033C131.227 79.1396 129.091 80.9943 126.718 82.5071C124.666 83.8835 122.49 85.0668 120.218 86.0417C117.352 87.2365 114.663 88.8119 112.222 90.725L111.753 91.0785C111.664 91.0785 111.588 91.0785 111.677 90.9144C111.765 90.7503 115.478 87.0011 116.593 79.0483C116.752 76.1968 117.172 73.3658 117.848 70.5906C117.864 70.557 117.872 70.5204 117.872 70.4833C117.872 70.4462 117.864 70.4095 117.848 70.376C115.239 73.6428 113.203 77.3262 111.829 81.27L109.599 87.6575C108.654 90.5514 107.074 93.1992 104.973 95.4084L104.771 95.6103C104.764 95.6564 104.764 95.7031 104.771 95.7492C105.087 95.7492 105.303 95.6735 105.506 95.623L112.906 94.1081C116.955 93.496 120.783 91.8717 124.032 89.3869C127.417 86.9383 130.171 83.7237 132.066 80.0077C132.584 79.0313 133.008 78.0085 133.333 76.9528C133.298 76.9351 133.258 76.9258 133.219 76.9258C133.179 76.9258 133.14 76.9351 133.105 76.9528M137.831 58.0681C136.638 61.5011 134.649 64.606 132.028 67.1317C128.987 70.0857 126.178 73.2677 123.626 76.6498C123.626 76.7382 123.424 76.6498 123.474 76.5489C124.52 73.0811 124.789 69.4266 124.26 65.8441C123.778 62.8145 122.448 59.5324 122.106 55.8211C122.106 55.8211 122.004 55.657 121.954 55.657C121.904 55.7721 121.862 55.8901 121.827 56.0104C121.03 58.3929 120.507 60.8575 120.268 63.3573C120.104 66.3869 120.674 70.2497 120.42 73.3551C120.129 76.9402 119.888 80.4874 118.241 83.7442C118.218 83.8269 118.218 83.9141 118.241 83.9967L125.844 79.2882C128.968 77.292 131.681 74.7215 133.84 71.7141C136.582 67.8412 138.039 63.2111 138.009 58.472C138.027 58.3126 138.027 58.1517 138.009 57.9923C138.009 57.9923 137.831 58.0807 137.831 58.1186" fill="#3F362B"/>
<path id="Vector_4" d="M129.823 60.0878C129.833 60.1121 129.833 60.1393 129.823 60.1636C129.797 60.1622 129.772 60.153 129.752 60.1372C129.731 60.1214 129.716 60.0998 129.709 60.0752C129.803 59.0633 129.803 58.0449 129.709 57.033C129.455 53.4984 127.301 50.5445 125.4 47.6032C124.114 45.6776 122.979 43.656 122.004 41.5566C122.004 41.5566 121.852 41.4556 121.802 41.4682C121.802 41.7838 121.801 42.8315 121.928 43.5132C122.614 48.5957 123.89 53.5817 125.73 58.371C126.879 61.3609 127.313 64.5767 126.997 67.7629C126.997 68.0406 126.997 68.0785 127.073 68.1669C128.213 66.5258 130.456 64.2031 131.838 62.5368C133.219 60.8705 140.835 52.1855 137.134 40.3195C136.992 39.8125 136.796 39.3217 136.551 38.8551C136.551 38.8551 136.399 38.9814 136.387 39.0319C136.387 47.5906 132.256 51.2766 130.52 57.1087C130.19 58.2196 129.937 59.2547 129.709 60.1131M129.861 42.4149L129.05 40.3321L128.581 39.2591C127.304 36.9646 125.513 34.9947 123.347 33.5028C121.623 32.0101 120.087 30.3146 118.773 28.4534C118.711 28.4331 118.645 28.4331 118.583 28.4534H118.481C118.558 28.8068 119.749 32.5813 120.509 34.3359C121.74 36.7897 123.263 39.0869 125.045 41.1778L125.4 41.6575C127.496 44.5482 129.172 47.7183 130.38 51.0747C130.38 51.1504 130.545 51.2009 130.545 51.1757L132.661 44.6493C133.411 42.3371 134.033 39.9856 134.524 37.6054C135.322 31.9753 133.46 24.6789 130.165 20.6899C130.136 20.7153 130.114 20.7464 130.098 20.7813C130.083 20.8161 130.076 20.8539 130.076 20.8919L130.241 21.3968L130.431 22.1542C131.118 25.234 131.169 28.4206 130.583 31.5209C130.129 33.9777 129.9 36.4706 129.899 38.9687C129.899 39.3853 130.178 42.4654 130.152 42.5917C130.127 42.7179 129.975 42.5917 129.962 42.5917M119.711 10.73C120.765 11.7225 121.602 12.9216 122.169 14.2519C123.081 16.3727 123.347 19.5538 123.943 21.9901L125.045 26.1559C125.045 26.3074 124.919 26.3705 124.855 26.2316C122.973 23.9338 120.657 22.0255 118.038 20.6142C116.32 19.5803 114.815 18.231 113.603 16.6378L112.931 15.7541C112.931 15.7541 112.767 15.6784 112.728 15.7541C112.716 15.8759 112.716 15.9985 112.728 16.1202C113.316 18.9507 114.665 21.5687 116.631 23.6943C118.228 25.2091 120.027 26.5598 121.7 27.9863C123.91 29.8139 125.926 31.8611 127.719 34.0961C127.719 34.0961 127.846 34.1844 127.846 34.0961V32.1142L128.011 26.0549V23.9847C128.069 21.9094 127.689 19.8451 126.896 17.9254C125.627 14.7904 123.264 12.2172 120.243 10.6795C120.054 10.5807 119.854 10.5044 119.647 10.4523C119.629 10.5269 119.629 10.6049 119.647 10.6795M106.697 4.73383C108.472 6.37711 110.034 8.23447 111.347 10.2629C112.572 12.2422 114.05 14.0542 115.744 15.6531C116.923 16.8398 120.344 19.4402 121.193 20.1597C121.016 19.1751 119.457 11.9797 114.946 8.41989C112.39 6.39426 109.425 4.94307 106.253 4.16577C106.239 4.19975 106.232 4.23623 106.232 4.27307C106.232 4.30991 106.239 4.34639 106.253 4.38037L106.671 4.73383M35.6712 103.071C38.6478 102.807 41.5924 102.262 44.4655 101.442L51.2829 99.8518H51.3589C51.3357 99.7979 51.3059 99.7471 51.2702 99.7004H51.1435C47.6915 98.8545 44.4933 97.1966 41.817 94.8656L35.912 89.1597L30.4631 84.5522V84.7415C30.97 85.4358 32.8708 89.6899 34.0112 91.8738C35.4222 94.9684 37.9645 97.4107 41.1201 98.7031C41.1961 98.7788 41.1201 98.8798 40.8667 98.8293C37.258 98.3218 33.6242 98.01 29.9816 97.8952C27.1528 97.8614 24.3424 97.4366 21.6309 96.6328C19.7047 96.0434 17.9076 95.0969 16.334 93.843C16.2945 93.824 16.2512 93.8142 16.2073 93.8142C16.1634 93.8142 16.1201 93.824 16.0806 93.843C18.6241 97.3929 22.145 100.133 26.2181 101.733C29.2587 102.827 32.4998 103.257 35.7219 102.995M32.8454 95.6356C33.0608 95.6356 33.2636 95.7113 33.5804 95.7618C33.5899 95.716 33.5899 95.6688 33.5804 95.623L33.3776 95.421C31.273 93.2126 29.6887 90.5648 28.7397 87.6702L26.5222 81.2827C25.1503 77.3377 23.1149 73.6538 20.5031 70.3886C20.4756 70.4575 20.4756 70.5343 20.5031 70.6032C21.2038 73.3811 21.6533 76.2158 21.8463 79.0736C22.8093 87.0264 26.6109 90.7882 26.6109 90.8892C26.6109 90.9901 26.6109 91.1164 26.5349 91.0533L26.066 90.6998C23.6294 88.7868 20.9439 87.2113 18.0828 86.0165C15.8052 85.0443 13.6245 83.8609 11.5694 82.4819C9.1936 80.9726 7.05796 79.1174 5.23354 76.9781C5.17734 76.9677 5.11929 76.9766 5.06881 77.0033C5.3897 78.0524 5.81417 79.0673 6.33599 80.033C8.23148 83.7522 10.99 86.9676 14.3826 89.4122C17.6265 91.897 21.4502 93.5213 25.4958 94.1334C28.0301 94.5373 30.4378 95.1433 32.8961 95.6482M12.3804 79.2755L19.9835 83.9841C19.9835 83.9841 20.0849 83.82 20.0469 83.7316C18.3995 80.4748 18.1461 76.9149 17.8673 73.3425C17.6139 70.2371 18.1841 66.3617 18.0321 63.3447C17.7904 60.8288 17.2676 58.3477 16.4734 55.9473C16.4385 55.827 16.3962 55.709 16.3467 55.5939C16.287 55.6395 16.2356 55.695 16.1947 55.758C15.8779 59.4567 14.5473 62.764 14.0658 65.781C13.5329 69.3626 13.7968 73.0171 14.8388 76.4858C14.9021 76.6372 14.7501 76.6751 14.7121 76.5867C12.1527 73.2106 9.34446 70.0291 6.31064 67.0686C3.66577 64.5747 1.65468 61.4895 0.443596 58.0681C0.443596 58.0681 0.291535 57.9418 0.253519 57.9418C0.215504 57.9418 0.253519 58.2574 0.253519 58.4215C0.217116 63.1479 1.66115 67.768 4.38453 71.6383C6.54307 74.6457 9.25669 77.2162 12.3804 79.2124M11.0752 68.1669C11.202 68.0785 11.202 68.0406 11.1513 67.7629C10.8595 64.5708 11.3194 61.3549 12.4945 58.371C14.3229 53.578 15.5983 48.5933 16.296 43.5132C16.296 42.8315 16.4227 41.7838 16.4227 41.4682C16.3514 41.4762 16.2847 41.5073 16.2327 41.5566C15.2491 43.6538 14.1097 45.675 12.824 47.6032C10.9612 50.494 8.87035 53.4731 8.55355 57.0203C8.46577 58.0325 8.46577 59.0504 8.55355 60.0626C8.55355 60.0626 8.55355 60.1888 8.42684 60.151C8.41697 60.1267 8.41697 60.0995 8.42684 60.0752L7.60317 57.0582C5.8798 51.2135 1.73612 47.5401 1.77414 39.0066C1.77414 39.0066 1.67276 38.8299 1.6094 38.8299C1.36993 39.2989 1.17479 39.7891 1.0265 40.2942C-2.661 52.1855 4.81537 60.719 6.33599 62.5116C7.8566 64.3041 9.93478 66.5006 11.0752 68.1669ZM5.7024 44.5231L7.80592 51.0494C7.80592 51.0494 7.95798 51.0494 7.98332 50.9484C9.18608 47.5922 10.8584 44.4219 12.9507 41.5313L13.3055 41.0516C15.0878 38.9606 16.611 36.6634 17.842 34.2097C18.6023 32.4424 19.7808 28.6806 19.8695 28.3271H19.7808C19.7158 28.3005 19.643 28.3005 19.578 28.3271C18.2638 30.1883 16.7277 31.8839 15.0035 33.3765C12.7955 34.8922 10.9801 36.9083 9.70669 39.2591C9.52784 39.6083 9.36712 39.9664 9.22516 40.3321L8.41416 42.4149C8.40149 42.4276 8.28745 42.6043 8.23676 42.4149C8.18607 42.2256 8.45218 39.2086 8.49019 38.792C8.49137 36.2932 8.25804 33.7997 7.79324 31.3441C7.20694 28.2439 7.25868 25.0573 7.94531 21.9775C7.99944 21.7258 8.06712 21.4772 8.14806 21.2327C8.14806 21.0434 8.23676 20.9045 8.30012 20.7278C8.30075 20.6898 8.29315 20.652 8.27784 20.6172C8.26254 20.5823 8.23988 20.5512 8.21141 20.5258C4.8914 24.5527 3.04132 31.8491 3.80163 37.4918C4.29893 39.8742 4.93357 42.226 5.7024 44.5357M10.2896 26.1054L10.4543 32.1647L10.391 34.1466H10.5177C12.3027 31.898 14.3061 29.8303 16.4988 27.9737L21.5675 23.6817C23.5336 21.5561 24.8827 18.938 25.4704 16.1076C25.4826 15.9859 25.4826 15.8632 25.4704 15.7415H25.2803L24.5961 16.6252C23.4169 18.1968 21.9509 19.5329 20.275 20.5637C17.2718 22.4572 15.2063 23.8837 13.4575 26.1811C13.3815 26.3074 13.2295 26.2569 13.2801 26.1054L14.3699 21.9396C14.9655 19.5159 15.2316 16.3222 16.144 14.2014C16.7102 12.8951 17.5331 11.7147 18.5643 10.73C18.5904 10.6565 18.5904 10.5763 18.5643 10.5028C18.3616 10.5551 18.1659 10.6313 17.9814 10.73C14.9915 12.2741 12.6576 14.8365 11.4047 17.9506C10.5932 19.8579 10.1918 21.9134 10.2262 23.9847V26.0675M16.9803 20.1976H17.0563L22.5306 15.691C24.2174 14.0884 25.6909 12.2769 26.915 10.3008C28.2324 8.27526 29.7943 6.41837 31.5656 4.7717L31.9837 4.41824C32.0069 4.34857 32.0069 4.27331 31.9837 4.20364C28.7766 4.96079 25.7748 6.40855 23.1895 8.44514C18.6657 12.005 17.107 19.2003 16.9296 20.185M67.921 59.3935C68.2758 58.8634 67.3888 58.5351 67.1607 59.4567C66.9326 60.3782 67.5662 59.9237 67.921 59.3935ZM77.5515 37.1762C77.2094 36.9995 75.8028 38.7163 76.0309 38.994C76.6512 38.4884 77.1712 37.8719 77.5642 37.1762M77.8557 36.8732C78.0711 36.9995 78.9961 36.4945 78.8314 36.3431C78.6667 36.1916 77.5642 35.7119 77.5642 36.0022C77.5642 36.5072 77.6909 36.7596 77.8937 36.8859M94.8739 52.539C95.3428 52.438 95.2921 51.6553 94.8739 51.6932C94.4557 51.7311 93.9489 52.3496 94.0883 52.3623C94.2276 52.3749 94.6458 52.6147 94.8993 52.539M88.7027 35.7497C88.3226 35.7497 88.2212 36.1663 88.576 36.3557C88.8952 36.4233 89.2281 36.374 89.5137 36.2168C89.7672 36.0653 90.0586 35.8634 89.9953 35.4594C89.9319 35.0555 89.425 34.5758 89.7038 34.3233C89.9826 34.0708 90.3374 34.4874 90.6288 34.3233C90.9203 34.1592 90.971 33.9698 90.971 33.6669C90.971 33.3639 90.8189 32.657 90.312 32.657C89.8052 32.657 89.2983 33.6669 89.2603 33.7174C89.1536 33.9893 89.1536 34.2912 89.2603 34.5631C89.4884 35.0681 89.387 35.6993 88.6901 35.6993" fill="#3F362B"/>
<path id="Vector_5" d="M97.0154 35.8129C97.0154 36.0653 97.6743 37.6559 97.7504 38.0851C97.8264 38.5143 97.9531 39.8271 98.3079 39.7009C98.6627 39.5747 98.5107 38.8173 98.46 38.4385C98.319 37.5155 98.0942 36.6071 97.7884 35.7245C97.611 35.1691 96.838 33.3892 96.5212 33.4523C96.2044 33.5154 96.9014 34.7146 96.9901 35.1564C97.0788 35.5983 96.9901 35.5351 96.9901 35.7497M92.631 14.3908C93.0365 14.5549 93.0365 13.7849 92.3395 13.2168C91.6426 12.6488 90.7175 12.9265 90.9456 13.2168C91.4505 13.6812 92.0126 14.08 92.6183 14.4034M73.6106 8.97532C72.7869 8.44513 73.4839 7.71297 72.8122 7.20803C72.4646 7.07864 72.0885 7.04435 71.723 7.10872C71.3576 7.1731 71.0161 7.3338 70.7341 7.57411C70.1638 8.29365 71.4564 8.05381 71.9125 8.2684C72.3687 8.483 73.5599 9.44239 73.7373 9.25304C73.9147 9.06368 73.7373 9.00057 73.6106 8.92483M78.654 6.45062C77.5388 5.94568 73.3318 5.94568 73.4585 7.04393C73.5852 8.14217 75.8915 7.04393 76.4997 7.04393C77.108 7.04393 79.6677 6.94294 78.6793 6.438M67.1606 55.1647C66.9579 55.0637 66.489 55.253 66.4257 55.0384C66.3623 54.8238 66.0075 54.8743 66.0962 55.0384C66.1849 55.2025 65.9948 55.4171 66.1722 55.6696C66.32 55.7863 66.5031 55.8499 66.6918 55.8499C66.8804 55.8499 67.0635 55.7863 67.2113 55.6696C67.2781 55.5974 67.3152 55.5027 67.3152 55.4045C67.3152 55.3063 67.2781 55.2117 67.2113 55.1394M64.7783 46.7069C65.1205 46.7069 65.1078 46.4545 65.3105 46.4545C65.5133 46.4545 65.3105 46.7069 65.6907 46.7069C66.0708 46.7069 66.4003 45.8233 65.2852 45.8233C64.3728 45.8233 64.4869 46.7069 64.7783 46.7069ZM66.2229 47.6663C65.5386 47.4896 65.678 47.8809 65.2472 47.9188C64.5376 47.9945 65.1712 47.4138 64.8163 47.1235C64.6643 46.9973 64.2588 47.6032 64.2208 47.9819C64.2208 48.1713 64.2208 48.7772 64.4995 48.8024L66.9072 49.118C67.4141 49.2443 66.9072 47.8557 66.2356 47.6537M58.4804 55.9852C58.6959 55.9852 58.8606 55.2278 58.7339 54.8491C58.6072 54.4704 57.9102 54.7607 57.8468 54.9248C57.7835 55.0889 58.2777 55.9726 58.4804 55.9726M48.3176 55.9221C48.3176 55.6065 48.3176 54.6597 48.1022 54.4704C47.8868 54.281 47.8995 54.6345 47.7221 54.5966C47.5447 54.5587 47.5954 54.1422 47.4433 54.1422C47.2912 54.1422 47.4433 54.8996 47.6714 55.4045C47.8995 55.9095 48.267 56.5659 48.305 55.9726M48.0769 53.5994C48.2835 52.8497 48.4026 52.0788 48.4317 51.3019C48.4317 50.696 48.0515 50.1279 47.9628 50.1658C47.8741 50.2036 47.9628 50.5823 48.0389 51.1756C47.978 51.8028 47.8462 52.421 47.646 53.0187C47.646 53.2711 47.8995 53.9023 48.0769 53.5489" fill="#3F362B"/>
<path id="Vector_6" d="M35.0629 81.9265C53.8805 100.677 84.3942 100.68 103.218 81.9328C122.042 63.1856 122.043 32.7895 103.225 14.0373C84.4056 -4.71486 53.8932 -4.71613 35.0692 14.031C16.2452 32.7782 16.2452 63.1882 35.0629 81.9265ZM23.0247 49.017H30.4123C30.5052 52.7413 31.1412 56.4323 32.3004 59.9742C31.8916 59.8803 31.4989 59.7272 31.1346 59.5198C30.6658 59.2673 30.2983 59.6081 30.0955 59.5955C29.614 59.5955 28.9297 59.2168 28.9297 59.5955C28.9297 59.9742 29.4746 59.7722 29.4366 59.9742C29.3986 60.1762 28.1694 60.1888 28.0427 59.6965C27.916 59.2042 27.7006 58.7497 27.5992 59.3178C27.4978 59.8859 26.9656 59.7849 26.7375 59.9742C26.6534 60.0607 26.5885 60.1638 26.547 60.2769C26.5055 60.39 26.4884 60.5105 26.4967 60.6306C26.4967 60.8831 25.8251 60.7064 25.8631 61.1735C25.9012 61.6405 26.2686 61.6784 26.37 62.095C26.4714 62.5115 26.8262 62.764 26.6234 62.9029C26.4207 63.0417 26.446 62.7514 26.2686 62.9029C26.0912 63.0544 27.4344 66.8666 27.7259 66.6899C28.0173 66.5132 27.3457 65.4276 27.3711 64.9226C27.3964 64.4177 27.4725 64.2536 27.8399 64.0895C28.2074 63.9254 29.2592 65.6043 29.614 65.3518C29.9688 65.0994 29.5126 64.8216 29.8421 64.6954C30.1716 64.5692 31.3627 66.387 31.7429 65.8315C31.9583 65.4907 32.1864 66.0587 32.2877 66.2481C32.6299 66.8793 33.3268 66.9045 33.745 67.5862C34.1632 68.2679 35.0122 69.7827 35.6711 69.6817C36.3301 69.5807 35.9499 69.101 36.1526 69.101C36.3554 69.101 36.6088 69.9215 37.0397 70.4896C37.3411 70.8203 37.7198 71.0718 38.1421 71.2217C39.0399 72.4148 40.0089 73.553 41.044 74.6301L35.7978 79.8436C27.7969 71.5472 23.239 60.5452 23.0373 49.0423M65.019 38.4385L64.4615 38.691C63.7635 39.034 63.1085 39.4577 62.51 39.9534L57.2892 34.7525C60.2862 32.0898 64.1014 30.5188 68.1109 30.2964V37.6559C67.2054 37.7422 66.3151 37.9459 65.4625 38.2618C65.7413 37.7947 66.2735 37.3151 66.2228 37.2519C66.1722 37.1888 65.3738 37.8326 65.019 38.5143M61.0908 50.5066C61.0836 50.5399 61.0836 50.5743 61.0908 50.6076C61.0838 50.6536 61.0838 50.7004 61.0908 50.7464C61.0616 50.5358 60.9882 50.3337 60.8753 50.1531C60.7827 50.0241 60.6486 49.9306 60.4952 49.8881C60.3638 49.8428 60.221 49.8428 60.0897 49.8881H59.8616L59.6082 49.989H57.7961C57.5427 49.989 57.3779 49.989 57.3653 49.8628C57.2385 49.3074 57.9482 49.7871 58.5437 48.2217C58.6126 48.0503 58.6887 47.8819 58.7718 47.7168L58.8985 47.5275L59.0253 47.376L59.152 47.2497C59.2461 47.1454 59.3651 47.0663 59.498 47.02C59.6309 46.9737 59.7734 46.9615 59.9123 46.9846H60.2291L60.4192 47.174L60.8373 48.0071C60.9325 48.087 61.0343 48.1587 61.1414 48.2217C61.3408 48.3193 61.5176 48.4568 61.661 48.6257L61.7497 48.7772C61.763 48.8227 61.7844 48.8655 61.8131 48.9034C61.8845 48.9967 61.9885 49.0598 62.1045 49.0801H62.2312C62.3152 49.0934 62.4007 49.0934 62.4847 49.0801H62.6114C62.8141 49.0044 62.9282 49.0801 62.9662 49.0801C62.9734 49.1134 62.9734 49.1479 62.9662 49.1811C62.961 49.2661 62.9349 49.3485 62.8902 49.421C62.8505 49.5179 62.7949 49.6075 62.7254 49.6861C62.6778 49.7583 62.6114 49.8164 62.5333 49.8542C62.4553 49.892 62.3684 49.908 62.2819 49.9007C62.0538 49.9007 61.8257 49.7744 61.6483 49.7492C61.6001 49.7378 61.5496 49.74 61.5026 49.7556C61.4556 49.7712 61.4139 49.7996 61.3822 49.8376V50.494M47.4432 62.6504C47.0814 61.9615 46.8985 61.1934 46.911 60.416C46.8712 59.6577 46.6449 58.9208 46.2521 58.27C46.0843 57.8008 46.0111 57.3032 46.0367 56.8057C46.0367 55.8842 45.2763 56.225 45.2763 55.96C45.2763 55.6949 45.8466 55.9599 45.948 55.7453C46.0493 55.5308 45.137 54.483 44.6047 54.1674C44.0725 53.8518 44.2246 53.5615 44.2753 53.1954C44.2934 52.8336 44.2193 52.4732 44.0599 52.1477C43.8825 51.6048 44.0599 50.7969 44.6934 50.7086C44.9469 50.7086 45.3904 50.8979 45.7072 50.7086C46.024 50.5192 45.8339 49.6356 45.8086 49.0928H49.2933C49.3108 49.6335 49.3573 50.1728 49.4327 50.7086C49.2046 50.8853 49.0525 51.0873 49.1539 51.2514C49.1891 51.317 49.2473 51.3674 49.3174 51.393C49.3875 51.4186 49.4646 51.4176 49.5341 51.3902C50.1826 55.0666 51.8555 58.4873 54.362 61.2618L49.1412 66.4627C48.7231 66.0209 48.3303 65.579 47.9501 65.0994C47.9623 64.9566 47.9623 64.813 47.9501 64.6702C47.9501 63.8496 47.3799 63.2816 47.0631 62.5873M42.4632 53.7508C42.1247 52.1893 41.9254 50.6009 41.8676 49.0044H44.9596C44.7695 49.4336 44.1232 49.7997 44.0092 50.09C43.8951 50.3804 43.1855 51.7563 43.629 52.236C44.6428 53.41 43.2235 54.0033 42.4886 53.7508M43.1221 72.5093L42.5266 73.09C42.237 72.7847 41.9539 72.4732 41.6776 72.1559C41.9944 71.9792 42.5012 72.1559 43.0715 72.5346M50.928 40.067C50.8411 40.1114 50.7603 40.1665 50.6872 40.2311C50.3071 40.5845 49.344 40.5467 49.42 40.9001C49.4961 41.2536 52.1698 40.067 52.2712 40.3321C52.3726 40.5972 51.08 40.9254 50.3324 41.2788C49.5848 41.6323 49.2806 42.2382 48.0895 42.2508C47.5193 42.2508 47.2025 42.7305 46.949 43.1724C46.6227 43.652 46.3467 44.1639 46.1254 44.6998C46.1096 45.4741 45.9551 46.2393 45.6692 46.9594H41.9563C42.1909 40.4804 44.749 34.2998 49.1666 29.539L54.362 34.7399C52.9412 36.3136 51.7819 38.1035 50.928 40.0417M55.8193 36.2547L60.3811 40.7991C60.2251 40.8107 60.0684 40.8107 59.9123 40.7991C59.4561 40.736 59.3801 40.4204 59.0633 40.4583C58.303 40.5845 58.2269 40.7991 58.0749 40.6855C57.5056 40.1996 56.8853 39.7763 56.2248 39.4232C55.8108 39.286 55.3736 39.2321 54.9385 39.2646C54.5035 39.2971 54.0792 39.4154 53.6904 39.6125C53.6242 39.6601 53.5517 39.6983 53.475 39.7261C54.1411 38.5033 54.9446 37.3598 55.87 36.3178M49.42 45.4446C49.3567 45.9495 49.3187 46.4292 49.2933 46.9215H46.6322C46.5543 46.5431 46.627 46.1493 46.835 45.8233C46.9894 45.582 47.2097 45.3897 47.4701 45.2689C47.7306 45.1481 48.0202 45.104 48.3049 45.1416C48.6923 45.1728 49.0704 45.2755 49.42 45.4446ZM51.6503 51.3397L51.9544 51.7563C52.1445 51.9457 52.4359 52.236 52.7147 52.0972C52.9935 51.9583 53.5637 52.0972 53.6651 52.1603C54.026 52.3065 54.3442 52.5409 54.5901 52.8419C54.8436 53.1828 55.3504 52.9429 55.6926 53.2206C56.0347 53.4984 56.4529 53.7635 56.0094 53.9402C55.5659 54.1169 56.5162 54.6724 56.6683 54.6471C56.8204 54.6219 56.9217 54.4451 56.8584 54.0538C56.8584 53.9023 57.0611 53.3721 57.5427 53.5236C58.0242 53.6751 59.0253 55.0132 59.4434 54.584C59.8616 54.1548 59.6208 53.4731 59.7349 53.2459C59.783 53.14 59.8471 53.0421 59.925 52.9556C60.2432 53.5447 60.6166 54.1026 61.0401 54.6219L55.8193 59.8354C53.6875 57.4549 52.2386 54.5464 51.6249 51.4155M55.8066 33.3134L50.6872 28.0873C55.4538 23.6621 61.6629 21.0983 68.1743 20.8666V28.2135C63.6205 28.4414 59.2845 30.2245 55.8953 33.2629M49.1793 26.6482L43.9458 21.4599C50.4881 15.2735 59.0941 11.7129 68.1109 11.4621V18.809C61.0291 19.0336 54.272 21.8204 49.1032 26.6482M47.646 28.0873C42.8056 33.2401 40.0091 39.9692 39.7768 47.0225H32.4652C32.7194 38.043 36.2881 29.4721 42.4886 22.9495L47.646 28.0873ZM39.8401 49.0423C39.8885 50.3799 40.0282 51.7126 40.2583 53.0313C40.0682 53.0313 40.0809 52.7031 39.7008 52.7157C39.3206 52.7283 37.876 55.2404 37.3185 56.1998C36.8623 57.0329 37.5339 59.0401 36.8116 59.6081C36.1143 59.9115 35.3522 60.0373 34.594 59.9742H34.4673C33.238 56.4636 32.5626 52.7843 32.4652 49.0675L39.8401 49.0423ZM68.0983 93.944C56.5743 93.7174 45.5602 89.1689 37.2551 81.2069L42.4886 75.9934C49.4174 82.5639 58.548 86.338 68.1109 86.5845L68.0983 93.944ZM68.0983 84.5522C59.0817 84.3002 50.4761 80.7398 43.9331 74.5544L44.7695 73.7338C44.9531 73.8749 45.1531 73.9936 45.3651 74.0873C45.9098 74.3451 46.5261 74.4118 47.1138 74.2766C47.6586 74.1883 48.5837 73.2415 49.2173 73.2415C49.8509 73.2415 50.8393 73.5192 51.4602 73.1153C52.0811 72.7113 51.0293 71.449 50.6999 70.8683C50.6167 70.7312 50.5236 70.6004 50.4211 70.477C55.4169 74.6245 61.6616 76.9885 68.1616 77.1927L68.0983 84.5522ZM68.0983 75.1477C61.5819 74.9212 55.3671 72.3569 50.5985 67.927L55.8193 62.7261C58.2564 64.9139 61.1993 66.4665 64.3854 67.2454C63.283 67.7882 62.6747 68.5077 62.9028 69.1767C63.1309 69.8458 62.0792 70.1866 62.0792 70.9693C62.0792 71.7519 63.0929 72.2316 63.2703 72.9385C63.3717 73.3551 64.2841 73.8853 65.0697 74.4155C66.04 74.6733 67.0512 74.7419 68.0476 74.6175L68.0983 75.1477ZM67.7815 65.0489C67.4013 64.7459 67.1859 65.3013 66.679 65.6043C63.1809 65.1214 59.907 63.6093 57.2766 61.2618L62.4973 56.0609C64.088 57.3675 66.0337 58.1718 68.0856 58.371C68.0856 58.674 68.2757 58.9265 68.339 59.3557C68.4024 59.7849 67.9589 60.1131 68.0856 60.3655C68.2123 60.618 69.3528 60.3655 69.4415 60.0247C69.5302 59.6839 69.112 59.4314 68.9093 59.0527C68.8167 58.8456 68.7445 58.63 68.6938 58.4089H69.1374C69.523 58.4092 69.9082 58.3839 70.2905 58.3332C70.3518 58.3241 70.4093 58.2979 70.4564 58.2577C70.5035 58.2175 70.5382 58.1649 70.5566 58.1059C70.5918 57.9821 70.6429 57.8633 70.7087 57.7525C70.7412 57.6822 70.7793 57.6147 70.8227 57.5505V57.4874L70.9241 57.5884C71.0888 57.8787 71.2536 58.5983 71.621 58.4468C71.9885 58.2953 72.0646 57.1844 71.8745 56.8688C71.7742 56.6985 71.7214 56.5046 71.7214 56.3071C71.7214 56.1096 71.7742 55.9157 71.8745 55.7453C71.8745 55.5939 71.9632 54.8238 72.2546 54.9879C72.5461 55.152 72.2546 55.7453 72.2546 55.9347C72.2546 56.3134 72.4574 56.8183 72.9136 56.6037C73.1036 56.5154 73.4458 56.0483 73.6992 56.225C73.9526 56.4018 73.0403 56.629 72.9896 56.8562C72.9389 57.0834 73.3317 57.2602 73.1923 57.399C73.0529 57.5379 72.9642 57.399 72.8629 57.4874C72.7615 57.5758 73.1797 58.3963 72.8629 58.4973C72.5461 58.5983 71.7224 58.9012 71.4943 59.0022C71.2662 59.1032 71.0255 58.876 71.1522 58.7245C71.2789 58.573 71.1015 58.0933 70.9368 58.0933C70.772 58.0933 70.6833 58.2448 70.6453 58.472C70.6073 58.6992 70.9368 59.0401 70.8987 59.2294C70.8607 59.4188 70.4679 59.4188 70.2652 59.5703C69.9677 59.952 69.6415 60.3107 69.2894 60.6433C68.9093 60.8957 68.187 60.9589 68.1743 61.0977C68.1616 61.2366 68.5545 61.4133 68.6432 61.5269C68.9473 61.8804 69.0867 62.4358 68.5671 62.663C68.0476 62.8902 67.4774 62.2591 67.1225 62.4737C66.7677 62.6883 66.679 63.2311 66.6157 63.938C66.5523 64.6449 68.0096 64.8848 68.7065 64.5439C69.1754 64.3167 69.15 63.4709 69.6189 63.2816C70.0877 63.0922 70.0624 62.562 70.4806 62.6504C70.8987 62.7388 70.8607 62.2717 71.3676 62.2717C71.8745 62.2717 71.9125 62.6125 72.5588 62.7766C73.5725 63.0544 73.5345 63.8244 73.7372 63.3826C73.94 62.9407 74.0287 62.7514 73.1797 62.562C72.3307 62.3727 72.0899 61.4259 72.6728 61.7415C73.4584 62.1202 74.1047 62.095 74.2568 62.5368C74.4088 62.9786 75.1945 62.8398 75.2705 63.2185C75.3972 63.7865 75.8788 63.2185 75.562 62.865C75.2452 62.5115 75.2578 62.3601 75.562 62.0823C75.8661 61.8046 75.9675 62.2086 76.3223 61.7289C76.6771 61.2492 76.1449 61.3502 76.1069 61.0977C76.0688 60.8452 76.1702 59.4567 76.563 59.7091C76.9559 59.9616 77.5134 59.5829 77.3234 59.4188C77.1333 59.2547 77.4247 58.5351 77.5514 58.5856C77.6782 58.6361 77.5514 59.0653 77.7035 59.2168C77.8556 59.3683 79.1227 58.8381 79.2241 59.4062C79.3255 59.9742 78.3118 60.3529 78.1217 60.3529C77.6401 60.3529 77.2346 60.8326 76.8545 61.2997C76.4743 61.7668 76.0435 61.9687 76.373 62.4358C76.7024 62.9029 77.1333 62.8145 77.6401 62.562C78.147 62.3096 78.5525 61.8804 78.8186 61.7541C79.3762 61.5017 79.6676 63.0165 79.5029 63.3194C79.3382 63.6224 78.7426 63.7234 78.4892 63.9506C77.7544 64.3915 76.9246 64.6512 76.0688 64.708C75.5873 64.809 75.562 64.9984 75.4352 65.4149C75.3085 65.8315 73.0276 65.5412 72.4574 65.4907C71.8871 65.4402 72.8122 64.3546 72.0392 64.4177C71.2662 64.4808 70.4932 64.7206 69.7076 64.8469C69.2007 64.9352 68.4404 65.5664 67.8068 65.0994M74.5482 76.7635C75.2164 77.034 75.7895 77.4951 76.1956 78.0889C76.6137 78.7201 76.7531 78.9473 76.3983 79.5406C75.7394 80.6263 76.0688 81.371 77.2853 81.8129C77.995 82.0653 78.2484 82.848 78.8313 83.3277C76.0071 84.0902 73.1016 84.514 70.1765 84.59V77.2432C71.6394 77.1825 73.0961 77.018 74.5356 76.7508M70.1765 75.1855V74.2514C71.8238 73.9989 71.4436 74.9583 72.6348 74.6301C72.816 74.5704 73.0093 74.5564 73.1973 74.5895C73.3853 74.6225 73.5621 74.7015 73.7119 74.8194C72.5419 75.0126 71.3613 75.1349 70.1765 75.1855ZM70.1765 93.9945V86.5972C74.0032 86.4859 77.7917 85.8051 81.4163 84.5774C81.5378 84.666 81.684 84.7145 81.8345 84.7163C82.3227 84.6671 82.7942 84.512 83.2157 84.2618C84.4328 83.7593 85.5925 83.1288 86.6751 82.3809C90.0067 80.6806 93.0786 78.5172 95.7988 75.9556L101.032 81.1691C92.728 89.1432 81.7083 93.7011 70.1765 93.9314M90.7048 27.9863L92.5169 26.219C92.9606 26.7346 93.5778 27.0712 94.2529 27.1658C94.8865 27.2541 95.1146 27.5192 95.2159 28.1378C95.3173 28.7563 96.0269 29.0593 96.6098 29.1729C97.1927 29.2865 97.5982 30.006 98.1305 30.0944C98.6627 30.1828 100.247 32.3414 100.868 33.0988C101.197 33.5028 101.793 34.1087 102.135 33.629C102.477 33.1493 102.578 33.3008 102.718 33.1872C104.65 37.536 105.713 42.2182 105.848 46.972H98.4599C98.3974 45.3258 98.1982 43.6876 97.8644 42.0741C98.1183 41.5783 98.2446 41.0274 98.2318 40.4709C98.2318 39.9281 97.7503 39.7514 97.3701 40.0922C97.1025 39.1283 96.781 38.1801 96.4071 37.2519C96.2976 36.6895 96.158 36.1332 95.9889 35.5856C95.9889 35.4089 95.7355 35.27 95.482 35.1438C95.2666 34.702 95.0385 34.2602 94.7978 33.8815C95.1779 33.5659 95.2666 32.9726 94.7978 33.0609C94.0375 33.1872 94.5443 32.657 94.2909 32.3666C94.0375 32.0763 94.0375 32.3666 93.9107 32.455C92.956 30.9428 91.8615 29.5228 90.6414 28.2135C90.6414 28.2135 90.6414 28.2135 90.6414 28.1378C90.6541 28.1053 90.6541 28.0693 90.6414 28.0368M95.1272 70.8809C94.8923 70.3463 94.6892 69.7983 94.519 69.2399C94.443 68.7854 93.4292 68.7349 93.4039 68.9874C93.4396 69.4889 93.3882 69.9929 93.2518 70.477V70.6032L90.5907 67.9523C95.4229 62.8194 98.2193 56.113 98.4599 49.0801H105.835C105.572 58.0478 101.994 66.6027 95.7862 73.1027L95.406 72.7239C95.535 72.0942 95.4595 71.4399 95.1906 70.8557M89.1081 75.9051C89.4883 75.2108 90.2486 74.1757 90.5654 73.4687C90.8822 72.7618 89.5263 71.8908 88.728 71.6509C87.9296 71.4111 87.917 70.9567 88.0057 70.3886C88.3891 70.0738 88.7611 69.7454 89.1208 69.404L94.3416 74.5796C92.6302 76.1926 90.7673 77.6383 88.7787 78.8968C88.6013 78.6191 89.5897 77.786 89.7924 77.3189C89.9952 76.8518 88.7787 76.4984 89.1081 75.9303M92.2507 45.7602C91.6171 44.8765 92.5042 44.8134 93.3659 44.3968C93.8727 44.1696 94.4556 44.4852 94.557 44.2201C94.6584 43.955 94.8738 43.4627 95.1146 43.3365C95.42 43.2158 95.6871 43.0151 95.8875 42.7558C95.8875 43.0082 95.9762 43.2607 96.0143 43.5132C95.821 43.9563 95.6889 44.4234 95.6214 44.9018C95.6214 45.2805 95.6214 45.7854 96.0523 44.9018C96.0523 44.826 96.141 44.7503 96.179 44.6493C96.2804 45.4067 96.3437 46.1894 96.3691 46.972H90.9455C90.9431 46.9426 90.9431 46.9131 90.9455 46.8837C91.2243 46.1641 92.5929 46.3156 92.2127 45.7475M93.2645 35.3458C93.238 35.3899 93.2083 35.4321 93.1758 35.472C93.011 35.5983 92.3775 34.6389 92.4155 35.3458C92.4535 36.0527 92.6689 36.3557 93.1758 36.5324C93.6827 36.7091 93.4292 36.9616 93.7587 37.0752C93.9488 37.1345 94.1194 37.2435 94.2529 37.3908C94.8372 38.7715 95.3035 40.1988 95.6468 41.6575C95.4424 41.7587 95.2579 41.8955 95.1019 42.0615C94.8738 42.3644 94.9245 42.8441 94.7217 43.1471C94.2782 43.8035 94.1642 44.157 93.2265 43.854C92.5929 43.6394 93.1378 42.8441 93.2265 42.213C93.3152 41.5818 93.6446 41.6575 93.6446 41.3924C93.6446 41.1273 92.3775 39.6251 91.7439 40.1301C91.1103 40.635 91.1863 41.2031 90.7935 41.6954C90.5907 41.9479 90.312 41.9731 89.9318 41.6954C89.5516 41.4177 89.4503 41.1905 89.5516 40.938C89.653 40.6855 88.6139 39.5115 88.2845 39.0192C87.7767 38.4378 87.0649 38.0719 86.295 37.9967C85.6197 36.8406 84.8256 35.7575 83.9254 34.7651L89.1208 29.5642C90.7475 31.3045 92.1404 33.248 93.2645 35.3458ZM84.4703 38.9309L84.1788 39.3348C84.0267 39.5873 83.4565 39.0445 83.2664 39.2464C83.0764 39.4484 84.1535 40.635 83.1017 40.3068C82.0499 39.9786 82.7469 39.8776 82.7469 39.5873C82.7469 39.2969 81.8092 38.9182 82.3414 38.7415C82.8736 38.5648 82.3414 38.1608 82.7976 38.0093C83.2537 37.8579 83.2031 37.3277 82.4808 37.1888C81.7585 37.05 82.0119 38.5269 81.5557 38.3249C81.1901 38.2369 80.8165 38.1862 80.4406 38.1734L82.164 36.4567C82.3641 36.542 82.5799 36.585 82.7976 36.5829C83.4202 37.3175 83.9797 38.1029 84.4703 38.9309ZM82.5188 64.4808C83.3252 64.6091 84.1213 64.7947 84.9011 65.0362C85.408 65.2887 85.8135 65.7936 86.1683 65.1625C86.9566 64.0273 87.4884 62.7352 87.7269 61.3754C88.0184 59.4819 87.6382 58.8507 87.3467 58.7876C87.0553 58.7245 86.5864 59.2926 86.0796 59.3304C85.7754 59.3304 85.8515 59.8859 85.8642 60.2141C85.8768 60.5423 85.3193 60.9336 85.1799 60.7443C85.0405 60.5549 84.7237 60.5297 84.8884 60.8326C85.0531 61.1356 83.8747 61.0093 83.3678 60.7316C82.6455 60.3529 84.2168 60.3277 85.0405 59.747C85.7152 59.2072 86.3349 58.6026 86.8906 57.9418C87.2707 57.3612 87.3087 56.528 87.8536 56.0736C88.3985 55.6191 89.5643 55.6696 89.5897 54.9879C89.615 54.3063 89.8684 54.4199 90.2486 54.5335C90.6287 54.6471 94.1768 54.4073 94.1262 53.2711C94.1262 52.741 93.3152 52.1098 92.5422 52.0088C92.0733 52.0088 91.9086 51.0494 91.6171 50.4687C91.359 49.9657 91.0668 49.4807 90.7428 49.017H96.3437C96.0987 55.5033 93.5218 61.6859 89.0828 66.4374L89.0068 66.3617V65.8946C89.0955 64.8848 88.3732 63.2437 88.1197 63.4583C87.8663 63.6729 88.1197 63.7613 87.3214 64.8216C87.03 65.2256 86.7258 65.882 86.2316 65.8946C85.7374 65.9073 85.6867 65.579 84.9645 65.7179C84.2986 65.8815 83.6028 65.8815 82.937 65.7179C81.749 65.32 80.6131 64.7817 79.5536 64.1147C79.6803 63.9885 80.0351 64.2788 80.0224 63.9128C80.0098 63.5467 82.0499 64.4177 82.4301 64.5439M102.388 79.7805L97.1547 74.567C103.751 67.6697 107.539 58.5777 107.786 49.0549H115.313C115.068 60.5297 110.483 71.4893 102.477 79.7426M115.313 46.9594H107.875C107.716 41.5551 106.421 36.244 104.074 31.3694L104.2 31.2432C104.77 30.7003 101.793 27.0143 101.336 26.5472C100.88 26.0801 100.272 25.5121 99.7271 24.9567C98.6751 23.9664 97.7437 22.8563 96.952 21.6493L102.426 16.2212C110.457 24.4881 115.06 35.4704 115.313 46.972M70.1765 2.05764C81.7018 2.28392 92.7186 6.82708 101.032 14.7821L95.9636 19.8315C95.6468 19.6422 95.406 19.579 95.5834 19.3518C95.9002 18.9352 95.2413 18.9984 95.0259 17.9632C94.7103 16.9514 94.0343 16.0894 93.1251 15.5395C92.4915 15.1861 92.0607 14.7064 91.4778 14.3782C90.8949 14.05 89.577 13.3304 88.9434 13.6208C88.534 13.767 88.1086 13.8645 87.6762 13.9111C82.3341 11.0372 76.3854 9.46264 70.3158 9.31615L70.1765 2.05764ZM70.1765 11.4621C75.5751 11.6033 80.8757 12.931 85.6994 15.3502C85.8781 16.1701 86.2421 16.9385 86.7638 17.5972C87.0628 18.1953 87.4148 18.7656 87.8156 19.3013C88.1958 19.7179 87.9423 20.4374 88.1197 21.0686C88.1197 21.3463 88.4112 21.5736 88.4492 21.8513C88.4303 22.175 88.4303 22.4996 88.4492 22.8233C88.4492 23.0126 88.9561 22.9243 89.2855 22.6339C89.615 22.3436 89.9445 21.927 90.4513 22.0406C90.9582 22.1542 91.6425 23.1136 91.9973 23.8332L89.5516 26.2695C89.2602 25.7141 89.0955 25.1965 89.1968 25.0955C89.2982 24.9945 89.577 25.247 89.7037 25.2596C90.2106 25.2596 89.3489 24.8304 89.2855 24.7547C88.9054 24.4138 88.8547 23.871 88.3732 23.5554C87.8916 23.2399 87.106 23.3787 86.8906 22.9874C86.388 22.1148 85.7108 21.3543 84.9011 20.753C84.8251 20.753 85.9148 22.1795 85.5854 22.4446C85.2559 22.7097 83.7606 21.4599 83.6339 21.7124C83.5072 21.9649 85.1545 22.5961 85.598 23.0631C85.8515 23.3156 86.3837 24.0478 86.8652 24.7421C82.0568 21.0823 76.2241 19.0043 70.1765 18.7964V11.4621ZM70.1765 20.8666C76.6879 21.0983 82.8969 23.6621 87.6635 28.0873L82.4681 33.2882C79.079 30.2497 74.7429 28.4666 70.1891 28.2388L70.1765 20.8666ZM70.1765 30.2711C74.1876 30.4971 78.0029 32.0726 80.9982 34.7399L80.694 35.0302L80.4406 34.9292C79.8324 34.702 78.4765 35.8886 78.8186 36.0906C79.1608 36.2925 79.5536 35.6235 79.8704 35.6614H80.0351L77.7542 37.9336C77.0826 38.2239 76.487 38.691 76.487 39.1076C76.4811 39.1325 76.4811 39.1584 76.487 39.1833L75.7774 39.8902L75.3592 39.562C74.7253 39.096 74.041 38.7022 73.3191 38.388C73.4855 38.2517 73.622 38.0828 73.7201 37.8917C73.8182 37.7006 73.8758 37.4914 73.8893 37.2772C73.8893 36.4945 73.6359 36.8227 73.2177 37.1131C72.7995 37.4034 72.4067 37.5675 72.242 37.9967C71.5708 37.7831 70.8782 37.6434 70.1765 37.5801V30.2711ZM69.2894 39.6378C69.3188 39.6883 69.3379 39.7441 69.3455 39.8019C69.3531 39.8598 69.3492 39.9186 69.3339 39.9749C69.3186 40.0313 69.2922 40.084 69.2563 40.1302C69.2204 40.1763 69.1756 40.2149 69.1247 40.2437C68.8459 40.4583 68.1743 39.6125 67.9589 40.3194C67.7435 41.0264 68.4151 40.6982 68.5164 40.8749C68.9158 41.3408 69.4599 41.6607 70.0624 41.7838C70.5693 41.7838 71.3296 41.7838 71.3296 42.3392C71.3296 42.5917 72.0265 42.5538 72.0392 42.8063C72.0392 43.2481 72.4194 43.7783 72.7362 43.7152C72.8589 43.6753 72.9914 43.6771 73.113 43.7204C73.2345 43.7637 73.3382 43.8459 73.4078 43.9542C73.4774 44.0625 73.5089 44.1908 73.4974 44.3189C73.486 44.4469 73.4321 44.5676 73.3444 44.6619C73.0023 45.0659 73.7246 44.9144 73.8513 45.7349C73.978 46.5554 73.2557 45.9243 73.091 46.4923C72.8915 46.8582 72.62 47.1803 72.2926 47.4391C72.1406 47.5653 72.4194 47.8178 72.5968 47.6916C72.7742 47.5653 73.0149 47.1614 73.3064 47.2371C73.5978 47.3129 74.016 48.6257 74.4215 48.8151C74.827 49.0044 74.7256 49.4462 74.7763 49.6103C74.827 49.7744 74.1681 49.6103 74.2314 49.8249C74.2948 50.0395 75.0678 50.2541 75.0678 50.5823C75.0271 50.7783 74.9234 50.9557 74.7726 51.0878C74.6217 51.2199 74.4317 51.2995 74.2314 51.3145C73.902 51.3145 73.2177 50.4561 73.243 50.6455C73.2684 50.8348 73.5345 51.6553 73.8766 51.5922C74.2188 51.5291 75.1438 51.2135 74.8143 51.6806C74.4849 52.1477 74.5989 52.9429 74.3581 52.9429C74.1174 52.9429 73.9527 52.9429 74.2314 53.2964C74.3015 53.4834 74.3185 53.686 74.2805 53.882C74.2425 54.078 74.151 54.2597 74.016 54.4073C73.8006 54.6345 73.1923 54.4073 73.167 54.2305C73.1417 54.0538 73.978 54.1043 73.978 53.7256C73.978 53.3469 73.5471 53.2585 72.8755 53.4731C72.5334 53.5994 72.3687 53.3721 72.1152 53.3469C71.8618 53.3216 71.1649 54.18 71.0508 54.3568C70.9617 54.5989 70.9229 54.8566 70.9368 55.1142C70.9055 55.567 70.7523 56.0031 70.4932 56.3765C70.0496 56.453 69.6002 56.491 69.15 56.4901C67.0946 56.4557 65.1236 55.6694 63.6125 54.281C63.9258 54.0972 64.2897 54.0176 64.6515 54.0538C65.0697 54.1548 65.1204 53.9276 65.3865 53.8518C65.6526 53.7761 66.2735 54.1674 66.6537 53.8518C67.0338 53.5362 67.9209 51.9583 67.8195 51.6301C67.7181 51.3019 68.7445 50.6833 68.5545 50.494C68.3644 50.3046 68.3264 50.5697 68.2757 50.494C68.225 50.4182 68.5545 50.3677 68.2757 49.8881C67.9969 49.4084 67.6421 49.6987 67.452 49.5725C67.0212 49.2947 66.4383 49.1685 66.3116 49.32C66.1848 49.4715 65.8047 49.1054 65.6526 49.1559C65.5604 49.1784 65.4741 49.2205 65.3998 49.2794C65.3254 49.3382 65.2647 49.4123 65.2218 49.4967C65.0951 49.7113 65.3992 49.9512 65.3485 50.2036C65.2598 50.6707 64.4615 51.1252 64.4235 51.466C64.3854 51.8068 64.0813 51.5417 63.9546 51.7689C63.8279 51.9962 63.9546 52.1855 63.6631 52.1855C63.3717 52.1855 63.0296 52.8672 62.7254 53.3469C62.297 52.832 61.9312 52.2684 61.6357 51.668C61.8637 51.567 62.1045 51.3524 62.3326 51.5039C62.7634 51.7816 64.2334 49.1306 63.9799 48.3985C63.7265 47.6663 63.3464 48.1839 63.0296 48.3227C62.7128 48.4616 62.586 48.1208 62.8268 47.9693C63.0676 47.8178 64.6009 47.843 63.7138 47.2876C63.3717 47.0604 62.2819 47.0099 62.4466 46.6943C62.6114 46.3787 63.0169 46.6943 63.1816 46.6943C63.8405 46.9215 64.1954 45.7349 64.6135 45.7097C65.2851 45.7097 65.0444 44.4473 64.4108 44.7755C63.7772 45.1037 63.5238 45.028 63.2323 45.3562C62.9409 45.6844 62.3453 46.2146 62.3706 45.6971C62.3706 45.4825 63.7899 44.6367 64.0813 44.3085C64.3372 44.0253 64.5352 43.6952 64.6642 43.3365C64.8416 42.9325 66.603 42.7053 66.9451 42.4907C67.2582 42.2143 67.457 41.8319 67.5027 41.4177C67.5027 41.0769 66.9958 41.1652 66.9198 40.938C66.8438 40.7108 67.6041 40.938 67.5534 40.5214C67.5027 40.1048 66.8564 40.5214 66.6664 40.2689C66.603 40.1806 66.6664 40.0796 66.7931 39.966C67.6142 39.7148 68.4684 39.5872 69.3274 39.5873H69.4922M68.1109 2.05764V9.40451C58.549 9.65581 49.4201 13.4293 42.4886 19.9956L37.2551 14.7695C45.5707 6.81907 56.5873 2.28051 68.1109 2.05764ZM35.7978 16.2338L41.0313 21.4599C34.4401 28.3591 30.6558 37.4509 30.4123 46.972H23.0373C23.2598 35.4921 27.8159 24.5171 35.7978 16.2338Z" fill="#3F362B"/>
</g>
</g>
</g>
</g>
</g>
</g>
</svg>
