<svg width="220" height="107" viewBox="0 0 220 107" fill="none" xmlns="http://www.w3.org/2000/svg">
<path id="Vector" d="M26.5562 3.01862H36.2755V33.8704C36.2755 39.3238 34.5859 43.4475 31.2067 46.2415C27.4512 48.9811 22.9173 50.4579 18.2625 50.4579C13.6077 50.4579 9.07381 48.9811 5.31823 46.2415C1.93909 43.439 0.249512 39.3154 0.249512 33.8704V3.01862H9.95612V33.8704C9.95612 36.9632 10.7164 39.1976 12.1737 40.5988C13.9217 41.9479 16.0702 42.68 18.2815 42.68C20.4927 42.68 22.6413 41.9479 24.3893 40.5988C25.8592 39.2102 26.5815 36.9632 26.5815 33.8704L26.5562 3.01862ZM57.7922 21.9286C56.5907 21.8703 55.3973 22.1538 54.3516 22.7462C53.3059 23.3386 52.4511 24.2153 51.8871 25.2738V49.8392H42.548V15.0614H51.2915L51.6083 19.0378C52.8013 17.5356 54.3328 16.3345 56.0786 15.5318C57.8245 14.7291 59.7356 14.3474 61.6571 14.4176C63.1205 14.3514 64.5824 14.5787 65.956 15.0861C67.3295 15.5936 68.5868 16.3707 69.653 17.3715C71.6805 19.3408 72.6942 22.7828 72.6942 27.6975V49.8518H63.3171V27.6344C63.3171 25.4127 62.8356 23.8474 61.8852 23.09C60.6925 22.2297 59.2363 21.8102 57.7668 21.9034L57.7922 21.9286ZM78.8147 6.09876C78.7988 5.45586 78.9167 4.81664 79.1609 4.22135C79.4052 3.62607 79.7705 3.08762 80.2339 2.63992C81.3057 1.76401 82.6492 1.28529 84.0355 1.28529C85.4218 1.28529 86.7652 1.76401 87.837 2.63992C88.305 3.08543 88.6751 3.6229 88.9238 4.21829C89.1724 4.81368 89.2943 5.45401 89.2816 6.09876C89.2956 6.73764 89.1767 7.37249 88.9324 7.9634C88.6882 8.5543 88.3239 9.08848 87.8624 9.53235C86.7906 10.4083 85.4472 10.887 84.0608 10.887C82.6745 10.887 81.3311 10.4083 80.2593 9.53235C79.7932 9.09067 79.4242 8.55748 79.1756 7.96647C78.9269 7.37546 78.804 6.73949 78.8147 6.09876ZM88.7621 15.1119V49.8265H79.3849V15.0614L88.7621 15.1119ZM113.054 49.6119C111.241 50.2136 109.339 50.508 107.428 50.483C104.785 50.6222 102.186 49.7711 100.141 48.0971C98.3251 46.5234 97.4169 43.8851 97.4169 40.1822V21.8276H92.2722V15.0614H97.4169V6.47746H106.743V15.0614H112.699V21.8402H106.743V39.2354C106.674 39.7554 106.719 40.2841 106.874 40.7852C107.029 41.2864 107.292 41.7482 107.643 42.1388C108.436 42.6618 109.38 42.9102 110.329 42.8457C110.842 42.8441 111.354 42.8146 111.863 42.7574C112.319 42.7574 112.712 42.6311 113.041 42.5807L113.054 49.6119ZM146.71 44.1838C145.356 45.9766 143.627 47.4541 141.642 48.5137C139.023 49.907 136.081 50.5863 133.113 50.483C127.665 50.483 123.415 48.8419 120.366 45.5598C117.334 42.3359 115.688 38.0595 115.778 33.6432V32.3809C115.584 27.6757 117.156 23.0671 120.188 19.4544C121.666 17.7792 123.502 16.4558 125.561 15.5818C127.621 14.7079 129.851 14.3057 132.087 14.405C137.097 14.405 140.898 15.9703 143.492 19.101C146.085 22.2316 147.395 26.3679 147.42 31.5098V35.461H125.244C125.479 37.5337 126.429 39.461 127.931 40.9143C128.71 41.6212 129.621 42.1679 130.613 42.5231C131.604 42.8784 132.656 43.0352 133.709 42.9846C135.323 43.0522 136.93 42.7347 138.396 42.0584C139.861 41.3821 141.144 40.3666 142.136 39.0966L146.71 44.1838ZM132.036 21.8781C131.17 21.8315 130.306 21.9876 129.511 22.3339C128.717 22.6803 128.015 23.2073 127.462 23.8726C126.307 25.3929 125.581 27.1927 125.358 29.0861H138.334V28.3792C138.356 26.7077 137.806 25.0785 136.776 23.759C136.185 23.102 135.45 22.5903 134.628 22.2639C133.805 21.9376 132.918 21.8055 132.036 21.8781ZM173.498 49.8392L173.055 46.1405C172.025 47.4538 170.73 48.5374 169.253 49.3216C167.683 50.112 165.944 50.5105 164.185 50.483C162.214 50.5578 160.256 50.1339 158.495 49.2509C156.733 48.3679 155.225 47.0546 154.111 45.4336C151.61 41.7079 150.359 37.2884 150.537 32.8101V32.1284C150.537 26.8434 151.728 22.5514 154.111 19.2524C155.256 17.6571 156.783 16.3722 158.553 15.5146C160.324 14.6569 162.281 14.2538 164.248 14.3419C165.844 14.3052 167.428 14.6265 168.882 15.2821C170.336 15.9376 171.624 16.9106 172.649 18.1289V0.456055H182.001V49.8139L173.498 49.8392ZM159.813 32.8606C159.741 35.3166 160.249 37.7552 161.296 39.9802C161.762 40.9301 162.505 41.7185 163.426 42.243C164.348 42.7674 165.407 43.0038 166.466 42.9215C167.728 42.9974 168.984 42.6954 170.072 42.0543C171.161 41.4131 172.032 40.4622 172.573 39.3238V25.5389C172.049 24.4012 171.19 23.4486 170.111 22.8064C169.032 22.1642 167.783 21.8625 166.529 21.9412C165.467 21.8671 164.407 22.1097 163.484 22.638C162.561 23.1663 161.817 23.9565 161.346 24.9078C160.265 27.181 159.74 29.6771 159.813 32.1915V32.8606ZM38.9239 58.9912V105.824H29.2426L10.387 74.9599V105.824H0.667684V58.9912H10.387L29.2426 89.8556V58.9912H38.9239ZM66.1683 105.824C65.7195 104.831 65.4042 103.782 65.2305 102.706C64.2239 103.797 63.0258 104.695 61.6951 105.357C60.0495 106.147 58.2365 106.528 56.411 106.468C53.3341 106.556 50.333 105.509 47.9842 103.527C46.8865 102.618 46.0087 101.474 45.4164 100.18C44.824 98.8859 44.5322 97.4755 44.5628 96.0538C44.4862 94.4153 44.8175 92.7834 45.5272 91.3034C46.2369 89.8233 47.303 88.5411 48.6305 87.5708C51.3422 85.5763 55.3465 84.5664 60.6687 84.5664H64.8251V82.5466C64.8897 81.152 64.4389 79.7822 63.5579 78.6965C63.049 78.1888 62.4348 77.7982 61.7585 77.5518C61.0821 77.3054 60.3598 77.2092 59.6423 77.27C56.2969 77.27 54.6369 78.6586 54.6369 81.4358H45.3358C45.3549 79.912 45.7302 78.4136 46.4319 77.0594C47.1335 75.7052 48.1423 74.5326 49.3781 73.6344C52.4908 71.3286 56.3134 70.1768 60.1872 70.3776C63.7791 70.2362 67.3129 71.3132 70.2106 73.4325C72.8716 75.4522 74.2022 78.5071 74.2022 82.5971V97.2909C74.1706 98.8973 74.2894 100.503 74.557 102.088C74.7552 103.181 75.1004 104.242 75.5834 105.244V105.824H66.1683ZM58.4384 99.3611C59.8503 99.4002 61.244 99.0367 62.4554 98.3134C63.4232 97.7537 64.2372 96.9645 64.8251 96.0159V89.9566H61.0235C59.083 89.7871 57.149 90.3453 55.6 91.5219C55.0616 91.9963 54.6306 92.5792 54.3357 93.2321C54.0408 93.8851 53.8886 94.593 53.8893 95.309C53.8623 95.8589 53.956 96.4081 54.164 96.9183C54.3719 97.4284 54.6889 97.8873 55.0931 98.2629C56.0277 99.0378 57.225 99.4263 58.4384 99.3485V99.3611ZM97.9998 105.572C97.1727 105.847 96.3254 106.058 95.4655 106.203C94.4482 106.373 93.4177 106.454 92.3862 106.443C89.7399 106.58 87.1373 105.73 85.0873 104.057C83.2879 102.479 82.3755 99.8408 82.3755 96.1547V77.8002H77.2434V71.0214H82.3755V62.4374H91.7146V71.0214H97.645V77.8002H91.7146V95.1954C91.642 95.7154 91.685 96.245 91.8404 96.7467C91.9959 97.2484 92.2601 97.71 92.6143 98.0988C93.4025 98.6225 94.3429 98.8711 95.2881 98.8057C95.8006 98.8111 96.3129 98.7816 96.8214 98.7173C97.2902 98.7173 97.683 98.5911 97.9998 98.5406V105.572ZM101.928 61.9956C101.91 61.3524 102.027 60.7125 102.271 60.1168C102.515 59.5212 102.882 58.983 103.347 58.5367C104.418 57.6586 105.762 57.1784 107.149 57.1784C108.536 57.1784 109.88 57.6586 110.95 58.5367C111.859 59.4554 112.368 60.6933 112.368 61.983C112.368 63.2726 111.859 64.5105 110.95 65.4292C109.88 66.3073 108.536 66.7875 107.149 66.7875C105.762 66.7875 104.418 66.3073 103.347 65.4292C102.883 64.9872 102.517 64.4534 102.273 63.862C102.029 63.2706 101.911 62.6349 101.928 61.9956ZM111.863 71.0087V105.824H102.486V71.0087H111.863ZM117.185 88.7574V88.0757C117.029 83.4833 118.566 78.993 121.506 75.4522C124.378 72.086 128.446 70.4028 133.709 70.4028C138.972 70.4028 143.061 72.086 145.975 75.4522C148.896 79.0023 150.422 83.4883 150.271 88.0757V88.7574C150.422 93.3448 148.896 97.8308 145.975 101.381C143.103 104.747 139.035 106.43 133.772 106.43C128.501 106.43 124.412 104.747 121.506 101.381C118.562 97.8424 117.024 93.3505 117.185 88.7574ZM126.537 88.0757V88.7574C126.461 91.2631 127.023 93.7472 128.171 95.978C128.782 96.8919 129.61 97.6414 130.582 98.1598C131.553 98.6781 132.639 98.9494 133.741 98.9494C134.843 98.9494 135.928 98.6781 136.9 98.1598C137.871 97.6414 138.699 96.8919 139.31 95.978C140.458 93.7472 141.02 91.2631 140.945 88.7574V88.0757C141.009 85.5832 140.447 83.1143 139.31 80.8929C138.775 79.8974 137.961 79.0791 136.965 78.5386C135.97 77.9981 134.839 77.759 133.709 77.8507C132.587 77.761 131.462 78.0014 130.476 78.5422C129.489 79.083 128.683 79.9004 128.159 80.8929C127.033 83.1179 126.476 85.585 126.537 88.0757ZM170.254 77.8886C169.053 77.8302 167.86 78.1138 166.814 78.7062C165.768 79.2986 164.913 80.1753 164.349 81.2338V105.824H155.023V71.0087H163.767L164.096 74.9978C165.285 73.4935 166.814 72.2899 168.557 71.4849C170.301 70.6799 172.211 70.2962 174.132 70.365C175.608 70.2913 177.083 70.5149 178.47 71.0225C179.857 71.53 181.127 72.3111 182.204 73.3188C184.231 75.2881 185.245 78.7301 185.245 83.6449V105.824H175.855V83.607C175.855 81.3853 175.374 79.8199 174.423 79.0625C173.214 78.188 171.733 77.7677 170.242 77.8759L170.254 77.8886ZM210.259 96.1547C210.257 95.6542 210.131 95.162 209.893 94.7216C209.654 94.2812 209.31 93.9062 208.891 93.63C207.102 92.6414 205.149 91.9828 203.125 91.686C199.955 91.1022 196.937 89.8825 194.255 88.101C193.118 87.3389 192.197 86.2995 191.578 85.0819C190.959 83.8643 190.663 82.5091 190.719 81.1454C190.729 79.6891 191.066 78.2534 191.704 76.9431C192.342 75.6327 193.265 74.4808 194.407 73.5713C196.878 71.4253 200.274 70.3397 204.633 70.3397C208.992 70.3397 212.743 71.4001 215.341 73.5208C216.579 74.4633 217.578 75.6816 218.258 77.078C218.937 78.4744 219.28 80.0101 219.256 81.562H209.917C209.94 80.9523 209.839 80.3442 209.622 79.7739C209.404 79.2037 209.074 78.6827 208.65 78.242C208.097 77.7738 207.456 77.4208 206.764 77.204C206.072 76.9871 205.343 76.9109 204.62 76.9797C203.319 76.9008 202.032 77.2806 200.984 78.0527C200.581 78.3753 200.258 78.7852 200.038 79.2511C199.818 79.7171 199.708 80.2268 199.716 80.7415C199.711 81.2521 199.842 81.7551 200.095 82.1988C200.349 82.6424 200.717 83.0108 201.161 83.2662C202.735 84.1253 204.452 84.6941 206.23 84.9451C209.553 85.5194 212.746 86.6823 215.658 88.3787C218.192 89.9187 219.438 92.4182 219.396 95.877C219.396 97.3645 219.036 98.83 218.345 100.149C217.655 101.468 216.654 102.601 215.429 103.451C212.777 105.471 209.203 106.481 204.709 106.481C199.835 106.481 196.101 105.218 193.507 102.694C192.343 101.7 191.398 100.477 190.731 99.1019C190.063 97.7268 189.688 96.2292 189.63 94.703H198.5C198.477 95.4734 198.65 96.2371 199.002 96.9233C199.354 97.6095 199.875 98.1962 200.515 98.629C201.827 99.4348 203.345 99.8468 204.887 99.8156C208.46 99.8282 210.259 98.6037 210.259 96.1547Z" fill="#3F362B"/>
</svg>
