<svg width="200" height="267" viewBox="0 0 200 267" fill="none" xmlns="http://www.w3.org/2000/svg">
<g clip-path="url(#clip0_2016_14174)">
<rect width="200" height="267" fill="white"/>
<path fill-rule="evenodd" clip-rule="evenodd" d="M174.637 251.934C173.786 247.123 173.005 242.299 172.296 237.465C171.959 235.169 171.63 232.872 171.335 230.571C171.128 228.959 170.813 227.115 171.91 225.921C173.453 224.241 174.854 222.802 175.043 220.395C175.221 218.13 174.455 215.66 173.976 213.462C172.972 208.851 171.723 204.297 170.342 199.787C168.939 195.204 167.4 190.664 165.839 186.133C164.38 181.897 162.978 177.622 161.077 173.558C157.471 165.845 151.369 160.133 143.829 156.318C141.954 155.37 138.128 151.984 136.169 151.226C134.368 150.528 134.374 152.564 132.602 151.797C131.184 151.184 129.865 150.367 129.071 148.998C128.21 147.512 126.049 145.433 125.72 143.703C125.023 140.036 125.778 136.914 123.162 134.154C120.839 131.703 117.717 130.024 114.487 129.123C107.381 127.14 97.9038 128.526 93.6163 135.132C91.5685 138.287 90.8529 142.1 88.0898 144.674C85.6769 146.922 86.2169 148.459 83.0918 149.618C82.9147 149.683 78.1174 148.654 77.9403 148.72C74.5216 147.988 71.2541 150.037 68.1176 151.226C63.4416 152.998 58.9898 155.304 54.8073 158.046C46.3737 163.574 39.1505 170.752 33.1955 178.874C27.1912 187.064 22.5326 196.244 19.2155 205.838C18.4099 208.168 17.6863 210.527 17.0481 212.908C16.6908 214.241 16.3091 215.624 16.7441 216.989C17.0998 218.105 17.8912 218.936 18.8206 219.606C20.0804 220.514 22.6074 221.105 22.5582 222.931C22.5205 224.32 22.0496 225.781 21.8198 227.153C21.5462 228.788 21.3214 230.431 21.0966 232.073C20.0741 239.544 19.2782 247.057 18.9262 254.592C18.5798 262.011 18.2922 269.581 18.8067 276.998C18.8407 277.487 18.9865 277.936 19.2216 278.315C19.0021 278.399 18.9852 278.809 19.2584 278.867C19.4498 278.907 19.6408 278.948 19.8322 278.988C20.2298 279.289 20.7256 279.474 21.2962 279.492C21.6831 279.504 22.0697 279.521 22.4561 279.541C26.5338 280.394 30.6108 281.199 34.7417 281.809C39.7632 282.551 44.7993 283.155 49.8512 283.647C60.2318 284.656 70.5307 284.321 80.9251 283.777C91.3034 283.234 101.676 283.107 112.065 283.377C122.463 283.648 132.857 284.1 143.258 284.285C154.877 284.492 166.479 284.174 178.065 283.25C179.653 283.124 180.636 281.86 180.323 280.281C178.446 270.825 176.319 261.431 174.637 251.934Z" fill="#FDC6A0"/>
<path fill-rule="evenodd" clip-rule="evenodd" d="M68.1176 151.226L68.3445 151.138C71.4116 149.939 74.604 148.006 77.9403 148.72C78.0584 148.676 80.2293 149.119 81.7163 149.399L80.3049 150.873L77.8141 151.352C86.407 165.54 96.57 172.634 108.303 172.634C120.036 172.634 128.939 165.54 135.012 151.352L135.841 151.123C135.944 151.147 136.053 151.18 136.169 151.226C138.128 151.984 141.954 155.37 143.829 156.318C151.369 160.132 157.471 165.845 161.077 173.558C162.914 177.487 164.286 181.612 165.694 185.709L165.839 186.133C167.4 190.664 168.939 195.204 170.342 199.786C171.663 204.101 172.864 208.455 173.844 212.861L173.976 213.462C174.455 215.66 175.221 218.129 175.043 220.395C174.976 221.252 174.755 221.987 174.428 222.653L157.432 228.771L165.529 284.017C158.112 284.335 150.689 284.417 143.258 284.285C132.857 284.1 122.463 283.648 112.065 283.377C101.99 283.115 91.932 283.226 81.8685 283.729L79.3129 283.86C69.4651 284.352 59.6949 284.604 49.8512 283.647L49.1804 283.581V283.581L49.1803 275.499L52.6381 230.501L35.1146 227.201L17.9128 218.843C17.3931 218.323 16.976 217.716 16.7441 216.989C16.3412 215.725 16.6389 214.445 16.9689 213.204L17.0481 212.908C17.6863 210.527 18.4099 208.168 19.2155 205.838C22.5326 196.244 27.1912 187.064 33.1955 178.874C39.1505 170.752 46.3737 163.574 54.8073 158.046C58.9898 155.304 63.4416 152.998 68.1176 151.226Z" fill="#EC7495"/>
<path fill-rule="evenodd" clip-rule="evenodd" d="M74.6975 148.487C75.772 148.44 76.8676 148.614 77.9396 148.72C78.033 148.729 78.0685 148.873 77.9633 148.895C76.0448 149.296 74.1473 149.844 72.2632 150.401L71.4564 150.64C69.3317 151.269 67.2693 151.918 65.2124 152.756C61.113 154.428 57.2195 156.684 53.6362 159.275C39.8379 169.256 29.8513 184.366 23.5492 200.01C21.8377 204.259 20.3876 208.613 19.2129 213.041C18.9273 214.118 18.6585 215.199 18.4038 216.284C18.329 216.602 18.003 217.417 18.1817 217.742C18.3397 218.03 18.9541 218.208 19.2395 218.357L20.2031 218.857C22.0828 219.826 25.2137 221.419 25.5277 221.575L26.0174 221.816C34.0267 225.744 42.5845 229.075 51.5975 229.305L51.668 228.535V228.535C52.0699 224.278 52.5972 219.999 53.7482 215.873C53.8101 215.651 54.0921 215.726 54.1179 215.923C54.7591 220.808 54.5542 225.73 54.3304 230.637C53.9343 239.328 53.4083 248.015 52.9407 256.702C52.7066 261.048 52.4041 265.391 52.1309 269.735C51.8573 274.088 51.7688 278.544 51.1441 282.861C51.0049 283.823 49.8784 284.346 49.0253 284.245C48.0814 284.132 47.3552 283.301 47.3508 282.347C47.3394 279.833 47.6552 277.288 47.8308 274.78C47.9975 272.397 48.1764 270.015 48.3598 267.633C49.0299 258.94 49.8009 250.257 50.5139 241.568C50.7666 238.486 51.0395 235.407 51.3205 232.328C41.7727 232.02 32.8528 228.482 24.3433 224.349C24.2202 227.146 23.9227 229.939 23.6347 232.725C22.8309 240.5 22.1221 248.271 21.5916 256.07C21.3237 260.009 21.1287 263.953 20.9588 267.897C20.8754 269.836 20.8073 271.774 20.7552 273.714C20.7377 274.36 20.7219 275.007 20.708 275.654L20.6789 277.135C20.6552 278.073 20.5598 278.943 19.7704 279.626C18.9687 280.32 17.8857 280.357 17.0922 279.626C16.0299 278.647 16.2178 277.314 16.2492 276C16.2754 274.891 16.3069 273.783 16.3435 272.675C16.4168 270.459 16.5104 268.243 16.6242 266.028C17.0227 258.285 17.8189 250.573 18.8594 242.892L19.2656 239.927C20.0241 234.415 20.8568 228.777 22.5524 223.468C21.8922 223.139 21.2339 222.808 20.5781 222.476C19.4149 221.887 18.2121 221.334 17.0814 220.684C16.1844 220.168 15.4107 219.46 15.161 218.416C14.8825 217.252 15.3084 215.98 15.5913 214.845L15.6159 214.745C15.8933 213.602 16.192 212.464 16.5072 211.331C17.7854 206.737 19.3659 202.232 21.2155 197.837C24.919 189.038 29.6994 180.679 35.5386 173.121C40.7947 166.317 47.0039 160.148 54.2812 155.52C57.839 153.258 61.6304 151.4 65.64 150.087C67.5142 149.473 69.5533 148.939 71.5156 148.72C72.574 148.601 73.634 148.533 74.6975 148.487ZM93.7356 134.544C95.0125 133.173 97.5494 134.592 96.9363 136.408C95.4942 140.682 93.1977 144.58 89.6137 147.388C86.2449 150.027 82.2276 151.742 77.9013 151.376C77.8679 151.373 77.839 151.364 77.8134 151.352L78.1862 151.858C81.1133 155.819 84.2012 159.725 87.923 162.963C95.506 169.559 105.831 173.117 115.8 170.586C123.644 168.595 130.555 162.39 132.587 154.482C132.296 154.613 131.95 154.658 131.57 154.575C129.943 154.222 128.334 152.511 127.285 151.284C126.15 149.957 125.264 148.524 124.615 146.904C123.426 143.94 123.045 140.123 124.668 137.252C124.868 136.898 125.33 137.096 125.37 137.442L125.431 137.981C125.744 140.672 126.134 143.275 127.402 145.729C128.023 146.929 128.767 148.101 129.673 149.106C130.157 149.644 130.683 150.158 131.25 150.609C131.803 151.049 132.472 151.366 132.967 151.871L133.058 151.967L133.061 151.95C133.186 150.885 133.933 150.415 134.664 150.445C135.371 150.473 136.201 150.785 136.523 150.934L136.554 150.948C141.487 153.317 146.031 156.405 150.307 159.831C159.15 166.917 165.775 176.179 168.986 187.086C170.561 192.44 171.465 197.956 172.42 203.446L173.007 206.81C173.898 211.879 174.893 217.047 176.904 221.762C177.424 222.981 177.023 224.125 175.748 224.605C174.155 225.204 172.557 225.784 170.956 226.356C171.742 229.73 172.221 233.221 172.81 236.611C174.062 243.818 175.596 250.979 176.911 258.176C177.584 261.856 178.191 265.549 178.862 269.229C179.186 271.001 179.524 272.771 179.852 274.543C180.029 275.498 180.189 276.456 180.358 277.413L180.387 277.572C180.484 278.076 180.605 278.598 180.467 279.103C180.308 279.679 179.859 280.086 179.458 280.499C179.128 280.839 178.65 280.841 178.246 280.656L178.113 280.594C177.39 280.256 176.824 279.919 176.568 279.103C176.405 278.587 176.347 278.005 176.241 277.473C176.037 276.454 175.845 275.433 175.662 274.409C175.298 272.36 174.942 270.31 174.595 268.258L174.271 266.337C173.157 259.715 172.1 253.054 171.565 246.362C171.328 243.394 171.077 240.428 170.823 237.461L170.633 235.236C170.392 232.42 170.098 229.533 170.056 226.678L169.099 227.018V227.018L164.427 228.67V228.67C163.269 229.08 161.795 229.919 160.548 229.766C159.938 229.691 159.473 229.499 159.114 229.15C159.544 235.223 160.126 241.285 160.902 247.316C161.608 252.804 162.391 258.285 163.315 263.74C163.773 266.442 164.244 269.141 164.755 271.832C165.01 273.179 165.274 274.523 165.545 275.866C165.681 276.536 165.842 277.206 165.948 277.882C166.069 278.655 165.856 279.131 165.424 279.768C165.069 280.29 164.359 280.559 163.784 280.198C163.022 279.72 162.625 279.305 162.401 278.434C162.197 277.643 162.073 276.817 161.915 276.016C161.625 274.537 161.343 273.056 161.072 271.574C160.504 268.473 159.981 265.364 159.514 262.246C157.867 251.263 156.822 240.187 156.294 229.093C156.034 223.62 155.953 218.142 155.999 212.663C156.023 209.854 156.115 207.038 156.313 204.237C156.514 201.401 156.933 198.622 157.306 195.813C157.319 195.714 157.459 195.709 157.465 195.813C157.641 198.962 157.919 202.107 158.055 205.264C158.184 208.276 158.241 211.294 158.344 214.307C158.48 218.268 158.667 222.232 158.916 226.192C159.366 225.7 160.045 225.416 160.724 225.526C161.708 225.32 162.766 224.804 163.704 224.49L167.24 223.309V223.309C169.098 222.688 170.957 222.071 172.822 221.473C171.154 215.861 170.012 210.165 169.037 204.387L168.602 201.788C167.74 196.672 166.812 191.554 165.252 186.6C163.613 181.392 161.159 176.55 157.904 172.165C154.696 167.844 150.792 164.039 146.773 160.48C143.332 157.433 139.651 154.682 136.141 151.719C136.178 151.915 136.186 152.131 136.154 152.369C135.407 157.832 132.559 162.92 128.588 166.704C120.612 174.307 108.805 175.884 98.5958 172.319C88.7205 168.871 79.9894 160.704 76.9047 150.597C76.8519 150.425 77.0835 150.356 77.1764 150.483C77.3475 150.718 77.5195 150.952 77.6917 151.187C77.6801 151.094 77.7285 150.992 77.8434 150.948C81.4425 149.557 84.9768 147.586 87.6747 144.797C88.9897 143.437 90.1373 141.897 91.0432 140.235C91.4771 139.44 91.8669 138.616 92.1779 137.764L92.2569 137.544C92.6338 136.477 92.9488 135.389 93.7356 134.544Z" fill="black"/>
<path fill-rule="evenodd" clip-rule="evenodd" d="M112.683 46.281C124.654 46.281 139.647 59.9703 144.035 65.7957C147.724 70.6934 147.202 95.9245 147.202 110.892C147.202 114.022 145.79 119.946 145.278 122.941C143.4 133.913 135.22 143.115 119.029 143.115C105.846 143.115 95.7006 138.929 85.89 128.222C83.6517 125.779 72.721 134.524 70.4855 131.375C64.6464 131.375 59.764 76.6821 71.2282 60.2774C82.6924 43.8728 100.713 46.281 112.683 46.281Z" fill="#FDC6A0"/>
<path fill-rule="evenodd" clip-rule="evenodd" d="M76.7046 50.1333C83.6217 43.8245 92.8367 40.7895 102.134 41.0136C106.949 41.1298 111.747 42.0492 116.295 43.6237C118.57 44.4142 120.773 45.4456 122.879 46.6122C123.638 47.0317 124.337 47.5232 125.011 48.0451L125.179 48.1762H125.181C126.988 48.8272 128.601 49.996 130.064 51.3634C132.996 51.1288 135.952 51.393 138.787 52.2997C142.734 53.5635 146.388 55.8778 148.953 59.1643C151.942 62.9904 152.935 67.6315 152.581 72.4224L152.515 73.2363C152.165 77.4686 151.537 82.9122 148.072 85.693C147.809 85.9044 147.518 86.065 147.216 86.1622C149.449 89.9961 151.281 94.2527 152.377 98.5516C156.562 114.971 153.345 132.095 148.312 147.921C147.899 149.225 145.932 150.091 144.931 148.817C143.143 146.539 140.546 144.801 137.624 144.476C135.821 144.275 134.027 144.639 132.324 143.819C131.655 143.495 131.01 142.967 130.546 142.324C127.671 143.417 124.574 143.933 121.502 143.806C116.461 143.599 111.073 141.849 107.605 138.011C107.048 137.395 106.907 136.703 107.035 136.079C107.47 135.924 107.917 135.808 108.377 135.735C112.775 138.334 117.622 140.07 122.832 140.179C125.842 140.242 128.779 139.82 131.22 137.936C131.748 137.528 132.233 137.076 132.682 136.591C137.786 133.3 141.384 127.71 143.095 121.722C144.688 116.138 144.492 110.324 143.944 104.596L143.655 101.574C143.233 97.1377 142.842 92.6884 142.733 88.2334L142.766 88.2318V88.2318C143.844 88.162 143.851 86.4706 142.766 86.541C139.958 86.7231 137.171 86.2613 134.372 86.4625C134.349 85.1359 134.253 83.8152 133.864 82.5357C133.642 81.8046 132.373 81.6605 132.238 82.5357C132.058 83.7065 131.992 84.8709 131.973 86.047C127.783 85.9912 123.598 85.6379 119.408 85.7831C118.635 84.9567 118.389 83.4914 118.028 82.472C117.975 82.322 117.922 82.174 117.868 82.024C117.55 83.4806 117.1 84.9053 116.507 86.3L115.48 86.3035C109.649 86.3309 103.7 86.5056 98.0074 87.7194C97.6116 87.4149 97.3761 86.8836 97.3125 86.401C96.8995 83.2613 96.3101 80.205 95.2656 77.2129L95.1161 76.7907C95.1039 76.7557 95.0911 76.7185 95.0776 76.6793C94.3078 77.9248 93.3895 79.0858 92.3879 80.1668C91.7976 80.8041 91.1786 81.4134 90.5434 82.0054C89.9263 82.6923 89.2886 83.3688 88.6705 84.0578C88.6947 84.1831 88.7158 84.3104 88.7329 84.4399C88.922 85.8697 88.9416 87.3198 88.8031 88.7551C88.5526 91.3498 87.8219 93.8501 86.6481 96.1631L86.6109 96.3947C86.4327 97.4787 86.179 98.5989 85.5868 99.4151C86.3259 100.245 86.8953 101.237 87.2255 102.339C87.5194 103.32 86.1657 104.17 85.4637 103.367C84.906 102.729 84.2864 102.202 83.6059 101.781C83.5629 101.839 83.4853 101.868 83.3982 101.819C81.5029 100.764 78.2837 101.084 76.3905 102.077C74.0356 103.311 73.1165 105.845 73.3779 108.413C73.6287 110.867 74.6997 113.735 76.7763 114.993C77.7292 115.569 78.4713 115.618 79.4833 115.341C79.8068 115.253 80.208 114.983 80.3801 114.849L80.5496 114.713C81.213 114.187 81.8308 113.827 82.614 113.813C83.4149 113.563 84.2199 113.91 84.5262 114.752L84.5451 114.807C84.6885 115.236 84.9499 115.775 84.893 116.43C84.8339 117.131 84.5135 117.77 84.0349 118.283C83.9527 118.372 83.8642 118.461 83.7735 118.543C92.0166 127.49 93.075 141.43 88.848 152.607C88.6646 153.097 88.4685 153.581 88.264 154.061C87.5578 155.705 84.8381 155.196 84.4924 153.566C84.3891 153.078 84.2753 152.592 84.1509 152.11C83.9222 151.219 83.6603 150.337 83.3651 149.468L83.2528 149.142C83.0019 148.424 82.7679 147.699 82.5149 146.98L82.4896 146.898C82.4801 146.866 82.4696 146.828 82.458 146.786L82.03 147.722V147.722L80.7292 150.548C80.1205 151.867 78.1866 151.15 78.1147 149.879L78.1129 149.836C78.1066 149.601 78.0982 149.369 78.0834 149.138C77.9907 147.412 77.6934 145.733 77.2212 144.091L77.0508 144.303C74.5138 147.448 71.5363 150.395 67.4517 151.121C66.4271 151.302 65.2676 150.229 65.9717 149.191C66.2626 148.762 66.543 148.322 66.8087 147.876C66.5789 147.769 66.3617 147.657 66.1614 147.543C64.6119 146.67 63.3217 145.427 62.2549 144.017C59.9928 141.029 59.1832 137.267 58.9851 133.585C58.7742 129.694 59.1158 125.592 60.1762 121.838C60.6358 120.215 61.2577 118.657 61.9766 117.146C61.926 117.011 61.8775 116.876 61.829 116.74C61.0532 114.572 60.4165 112.355 59.8874 110.112C58.8206 105.585 58.2472 100.914 58.1776 96.2626C58.0511 87.9291 59.4847 79.4624 62.5058 71.6911C65.626 63.6767 70.3188 55.956 76.7046 50.1333ZM72.8192 122.994C72.2463 122.09 70.8127 122.905 71.3447 123.816L71.3645 123.848C72.2732 125.283 72.699 126.915 73.2219 128.515C73.5571 129.544 75.1867 129.104 74.8473 128.065L74.7349 127.717C74.2147 126.095 73.7401 124.446 72.8192 122.994ZM77.8093 105.731L78.19 105.546C79.3907 104.972 80.4427 104.581 81.8613 105.082C83.7608 105.752 85.7953 107.885 84.5114 109.954C84.0391 110.717 83.2001 111.021 82.3357 110.842C80.8785 110.539 80.5024 109.223 79.763 108.143L79.6357 107.96C79.1849 107.307 78.6147 106.404 77.8642 106.147C77.6934 106.088 77.6217 105.822 77.8093 105.731ZM78.88 61.8001L79.0026 61.69C79.8185 60.9671 78.621 59.7751 77.8093 60.4937C74.0947 63.7844 72.8044 68.935 70.8775 73.3248C70.4453 74.3118 71.8979 75.1741 72.3343 74.1786C74.1724 69.9898 75.3924 64.979 78.88 61.8001V61.8001ZM123.52 60.3606C122.549 59.9221 121.7 61.3381 122.633 61.8044L122.668 61.821C125.948 63.3068 127.344 66.6715 128.681 69.7952C129.107 70.7928 130.559 69.9326 130.137 68.9435L129.896 68.383C128.502 65.1638 126.875 61.8826 123.52 60.3606ZM128.662 58.3274C127.633 57.9702 127.192 59.6018 128.213 59.959C130.993 60.9291 132.901 63.0215 134.51 65.414C135.113 66.3101 136.574 65.4647 135.965 64.5601C134.097 61.783 131.879 59.4518 128.662 58.3274Z" fill="black"/>
<path fill-rule="evenodd" clip-rule="evenodd" d="M123.152 128.274C121.731 127.695 120.464 126.728 119.538 125.493C119.216 125.063 119.132 124.61 119.2 124.195C119.276 123.729 119.552 123.306 119.928 123.023C120.305 122.739 120.777 122.598 121.233 122.67C121.629 122.732 122.024 122.949 122.336 123.399L122.401 123.489C122.952 124.235 123.67 124.846 124.488 125.241C125.276 125.621 126.157 125.798 127.07 125.695C128.807 125.499 130.005 124.559 131.278 123.282C131.435 123.121 131.593 122.955 131.752 122.786C131.852 122.633 131.991 122.534 132.145 122.483C132.317 122.425 132.511 122.429 132.688 122.491C132.859 122.55 133.013 122.664 133.115 122.815C133.213 122.958 133.268 123.135 133.25 123.339C133.134 124.661 132.442 125.842 131.46 126.769C130.37 127.799 128.924 128.511 127.563 128.761C126.063 129.036 124.535 128.839 123.152 128.274V128.274ZM128.27 107.866C129.866 108.836 132.296 111.098 130.58 113.503C128.56 115.624 125.651 113.193 124.218 112.093C122.889 111.241 121.396 113.433 122.629 114.428C132.986 122.099 137.189 108.12 129.077 106.726C128.184 106.572 127.852 107.566 128.27 107.866ZM109.71 98.9429C109.886 96.7541 113.219 96.257 113.55 98.423C113.847 100.363 113.498 102.145 112.624 103.892C111.789 105.561 109.691 104.783 109.533 103.263C109.32 101.226 109.601 100.304 109.71 98.9429ZM135.076 97.9739C135.54 97.3652 136.211 96.9497 137.015 97.1845C139.526 97.9185 138.786 101.485 137.904 103.22C137.425 104.163 135.876 104.402 135.176 103.572C134.035 102.219 133.489 99.5157 134.939 98.1825C134.978 98.1136 135.022 98.044 135.076 97.9739ZM112.589 89.3654L112.985 89.2959C114.212 89.0836 115.738 88.8796 116.606 89.8665C117.066 90.3898 117.225 91.3624 116.606 91.8633C115.517 92.7446 114.314 92.4031 113.01 92.4777C111.935 92.5394 110.902 92.7174 109.866 93.0135C107.595 93.6629 105.744 94.8486 103.804 96.1505C103.549 96.3213 103.289 95.9956 103.411 95.7574C104.531 93.563 106.701 91.7604 108.875 90.6616C110.035 90.0751 111.305 89.5885 112.589 89.3654ZM132.787 88.3823L133.09 88.4445C136.394 89.1353 140.686 90.5153 142.251 93.7615C142.31 94.2205 142.247 94.3189 142.196 94.3832L142.179 94.4046C142.137 94.4595 142.103 94.5351 141.904 94.5976C141.849 94.5844 141.793 94.5705 141.737 94.5557C141.02 94.3677 140.453 94.1087 139.903 93.84L139.308 93.5465C138.617 93.2076 137.92 92.881 137.181 92.6399C135.604 92.1255 133.983 91.7631 132.336 91.5696C131.979 91.5277 131.636 91.4072 131.364 91.2006C131.107 91.0046 130.91 90.7332 130.821 90.3724C130.705 89.9056 130.738 89.5521 130.988 89.1309C131.177 88.8146 131.446 88.5953 131.755 88.4694C132.071 88.3411 132.43 88.3108 132.787 88.3823Z" fill="black"/>
</g>
<defs>
<clipPath id="clip0_2016_14174">
<rect width="200" height="267" fill="white"/>
</clipPath>
</defs>
</svg>
