<svg width="200" height="267" viewBox="0 0 200 267" fill="none" xmlns="http://www.w3.org/2000/svg">
<g clip-path="url(#clip0_2016_14162)">
<rect width="200" height="267" fill="white"/>
<path fill-rule="evenodd" clip-rule="evenodd" d="M150.479 181.122C148.644 180.468 146.876 179.712 145.265 178.601C140.62 175.142 137.592 169.938 134.731 165.007C130.7 157.835 127.829 150.193 125.844 142.221C124.991 138.796 124.701 134.824 122.764 131.788C118.371 125.429 105.49 126.253 98.6503 127.369C94.07 128.18 93.1233 133.308 92.083 137.102C91.2168 140.255 90.6498 143.443 90.1738 146.674C89.0414 147.419 87.763 148.024 86.5444 148.551C73.2644 152.625 70.9303 160.177 65.858 171.843C57.2908 188.8 34.044 195.439 30.5325 215.506C28.2701 228.755 34.7038 241.219 41.337 252.233C47.5144 264.263 56.1386 270.037 69.8729 267.195C82.7549 264.304 95.1352 259.468 107.791 255.731C113.92 254.224 120.04 250.302 126.488 251.669C139.773 254.654 153.423 256.058 167.039 255.67C186.155 256.444 186.152 238.089 184.19 223.875C182.816 201.755 171.663 187.551 150.479 181.122V181.122Z" fill="#FDC6A0"/>
<path fill-rule="evenodd" clip-rule="evenodd" d="M151.757 213.13C153.354 214.187 154.697 215.789 155.776 217.475C151.273 217.007 146.779 216.467 142.294 215.852C142.881 215.476 143.474 215.109 144.08 214.762C146.291 213.516 149.287 211.497 151.757 213.13ZM76.9498 226.445C76.1248 226.122 75.8056 224.863 75.4841 224.142C74.4759 221.88 73.5558 219.579 72.5986 217.295C76.2332 216.259 79.7677 215.109 83.5329 214.556C87.5815 213.963 91.6898 213.819 95.7757 213.953C104.052 214.223 112.251 215.576 120.388 217.027C128.515 218.476 136.642 219.868 144.826 220.961C152.844 222.031 160.888 222.815 168.947 223.503C170.512 223.636 173.123 224.2 174.382 222.967C175.379 221.991 175.411 220.19 174.164 219.397C173.387 218.902 172.261 218.895 171.373 218.781C170.255 218.637 169.133 218.541 168.008 218.466C167.55 218.436 167.091 218.408 166.633 218.38C170.313 216.992 174.156 216.236 178.145 216.447C178.371 217.818 179.387 219.228 179.943 220.359C180.915 222.333 181.672 224.331 182.169 226.477C183.208 230.964 183.253 235.62 182.96 240.196C182.69 244.011 182.111 248.232 179.119 250.934C176.854 252.98 173.659 253.737 170.694 253.975C167.248 254.252 163.749 253.957 160.333 253.495C155.54 252.846 150.725 251.989 146.027 250.84C136.928 248.615 128.206 245.075 120.159 240.274C116.234 237.934 112.49 235.3 108.512 233.049C104.458 230.754 100.145 228.973 95.6158 227.868C90.5472 226.631 85.2486 226.103 80.0392 226.408C79.1352 226.461 77.8291 226.789 76.9498 226.445ZM71.0762 224.148C71.6088 225.877 72.0163 227.851 73.1531 229.304C74.2792 230.744 75.978 231.252 77.7379 231.38C79.8598 231.534 82.0067 231.435 84.1334 231.514C88.495 231.676 92.7968 232.385 96.9664 233.685C100.852 234.897 104.459 236.787 107.934 238.883C111.146 240.822 114.265 242.904 117.479 244.837C116.624 245.229 115.778 245.653 114.928 246.023C113.144 246.798 111.35 247.545 109.547 248.274C105.993 249.711 102.423 251.114 98.8169 252.416C91.5455 255.043 84.1545 257.338 76.6746 259.293C73.1071 260.226 69.4889 261.315 65.7827 261.47C62.4962 261.607 59.452 260.678 56.8015 258.723C51.3039 254.669 46.93 248.817 43.3942 243.044C41.2936 239.614 39.4604 236.011 37.9441 232.285C37.1772 230.401 36.4817 228.488 35.8558 226.552C35.5621 225.643 35.2836 224.729 35.02 223.811C34.904 223.408 34.7929 223.003 34.6828 222.597C40.3044 220.881 45.9928 219.332 51.8147 218.472C54.9231 218.013 58.0729 217.78 61.2153 217.814C62.775 217.831 64.334 217.915 65.8855 218.076C66.7207 218.163 67.5524 218.274 68.3806 218.413C68.7229 218.469 69.0746 218.553 69.4274 218.615C69.9664 220.463 70.5098 222.309 71.0762 224.148ZM187.282 216.803C187.585 216.19 187.713 215.586 187.822 214.919C187.904 214.41 188.124 213.693 187.932 213.032C187.716 212.292 187.129 211.629 186.708 210.998C186.242 210.3 185.777 209.602 185.313 208.903C184.384 207.506 183.457 206.107 182.532 204.708C178.753 198.993 175 193.261 171.24 187.533C167.905 182.45 164.625 177.321 161.187 172.306C158.248 168.018 155.044 163.8 151.021 160.465C145.934 156.248 139.876 154.262 133.549 152.712C132.858 151.994 131.935 151.602 130.948 151.682C129.554 150.1 128.446 148.996 127.944 146.984C127.703 146.021 127.779 143.314 126.841 142.744C125.727 142.067 125.145 142.963 124.838 143.973C123.81 147.353 124.99 151.897 127.705 155.282C126.561 159.236 125.044 164.857 122.339 168.025C119.442 171.417 115.436 172.473 111.113 172.543C102.87 172.675 94.6357 169.61 88.3481 164.299C86.437 162.685 84.6622 160.881 83.0563 158.964C81.8519 157.525 80.4271 155.305 79.4848 153.627C79.4848 152.973 78.713 152.289 86.5708 151.761C94.4285 151.232 95.0244 140.469 95.1991 139.004C95.3411 137.815 95.9449 135.968 95.107 134.998C94.7515 134.586 94.0217 134.52 93.5709 134.8C92.7208 135.328 92.4415 136.679 92.1742 137.596C91.7998 138.88 90.576 146.854 88.2569 147.777C87.1712 148.209 85.926 148.217 84.7775 148.297C83.3593 148.396 81.9381 148.469 80.5255 148.634C80.0046 148.695 79.4362 148.863 78.9222 148.868C78.5878 148.872 78.2428 148.709 77.9196 148.595C76.8286 148.209 75.7384 148.498 74.6145 148.65C64.6773 149.986 54.4454 153.035 45.9693 158.521C38.4985 163.357 33.2352 170.311 29.7622 178.442C26.2186 186.74 24.1874 195.714 22.4853 204.547C21.915 207.507 21.4171 210.481 20.9893 213.464C20.5758 216.347 20.0586 219.295 19.9348 222.207C19.8858 223.359 20.1611 224.43 20.5847 225.482C21.0617 226.667 22.1893 227.134 23.2707 227.687C25.6448 228.902 28.1491 229.844 30.7293 230.511C32.3056 233.38 33.6322 236.361 34.6982 239.454C34.3027 240.238 34.2945 241.409 34.2184 242.171C34.0298 244.068 33.9491 245.975 33.9322 247.881C33.8981 251.701 34.1278 255.518 34.3078 259.332C34.4903 263.2 35.0971 278.464 35.196 280.328C35.2729 281.776 35.1693 283.801 35.9318 285.087C37.1035 287.062 39.9953 286.996 41.3348 285.394C74.6145 292.551 137.171 290.395 162.366 286.794C165.644 286.326 164.614 286.845 165.448 286.017C166.074 285.395 166.606 284.329 166.779 283.473C167.01 282.33 166.637 281.296 165.983 280.371C165.295 279.399 165.17 277.824 164.914 276.668C164.31 273.935 164.01 261.932 163.728 260.602C163.64 260.188 163.555 259.75 163.452 259.312C168.074 259.749 172.889 259.749 177.286 258.203C179.779 257.326 182.104 255.949 183.894 253.982C186.061 251.601 187.267 248.603 187.887 245.474C188.687 241.439 188.857 237.26 188.7 233.158C188.481 228.311 187.678 223.395 185.683 218.944C186.339 218.334 186.889 217.599 187.282 216.803Z" fill="black"/>
<path fill-rule="evenodd" clip-rule="evenodd" d="M113.465 60.2715C145.197 61.2786 147.11 76.3885 147.11 101.728C147.11 127.068 130.65 143.036 124.588 145.824C118.527 148.612 102.567 160.588 88.1646 155.069C73.7617 149.551 77.9326 126.234 77.9326 116.215C77.9326 106.197 81.7338 59.2644 113.465 60.2715Z" fill="#FDC6A0"/>
<path fill-rule="evenodd" clip-rule="evenodd" d="M82.7954 100.485C89.3563 73.6655 101.334 60.5802 118.727 61.2295C144.817 62.2035 144.542 88.8624 142.905 86.4317C141.836 84.8437 134.349 79.2959 120.444 69.7886L119.584 69.2015L82.7954 100.485Z" fill="#9FD8E5"/>
<path fill-rule="evenodd" clip-rule="evenodd" d="M126.338 137.502C120.51 140.763 113.838 140.89 107.57 138.837C103.811 137.61 100.364 135.712 97.1387 133.442C94.3327 131.466 91.8281 129.274 89.3467 126.947C87.3039 122.43 85.4847 117.922 84.6327 113.008C83.8696 108.597 83.7684 104.017 84.6538 99.6151C91.2022 94.2151 97.7102 88.7707 104.21 83.3096C107.52 80.528 110.838 77.7617 114.196 75.0393C115.902 73.657 117.591 72.2537 119.29 70.8651C119.57 70.6368 119.849 70.4086 120.129 70.1803C123.637 72.7546 127.398 74.9613 130.881 77.5776C132.704 78.9492 134.477 80.4097 136.166 81.946C137.051 82.7514 137.916 83.582 138.759 84.4338C139.531 85.2118 140.275 86.3275 141.369 86.6215C141.519 86.6614 141.66 86.6699 141.793 86.6508C143.256 99.4925 144.295 113.359 138.028 125.021C135.293 130.109 131.416 134.657 126.338 137.502ZM88.4299 142.221C87.6275 141.484 88.8232 140.292 89.6223 141.026C94.6411 145.634 101.202 148.077 107.83 149.208C108.899 149.391 108.443 151.02 107.381 150.838C100.462 149.658 93.6612 147.025 88.4299 142.221ZM82.4075 149.293C81.4495 148.777 82.3023 147.318 83.2586 147.833C87.1687 149.935 91.4575 151.027 95.8076 151.765C96.8775 151.946 96.4211 153.575 95.3594 153.395C90.8615 152.632 86.4479 151.465 82.4075 149.293ZM98.3214 78.0618C101.566 75.1428 105.053 72.3655 108.736 70.0218C112.463 67.6504 116.534 66.2323 120.934 66.1985C120.626 66.4458 120.333 66.7205 120.036 66.976C119.206 67.6885 118.377 68.405 117.548 69.1193C115.891 70.5502 114.23 71.9787 112.594 73.433C109.373 76.2989 106.141 79.15 102.926 82.0223C96.7466 87.5427 90.7004 93.1835 84.7845 98.9874C84.8164 98.8457 84.8501 98.7041 84.8836 98.5627C86.8422 90.3621 92.1696 83.5968 98.3214 78.0618ZM123.755 66.5557C123.776 66.4922 123.791 66.4307 123.799 66.3718C132.243 67.475 139.295 73.7033 141.626 81.9039C141.424 82.1871 141.312 82.5232 141.354 82.8801C141.375 83.06 141.397 83.2418 141.418 83.4214C141.129 83.1342 140.832 82.8656 140.579 82.6098C139.737 81.756 138.875 80.9251 137.99 80.1157C136.179 78.461 134.298 76.9139 132.316 75.4704C128.87 72.9596 125.138 70.6516 121.029 69.4469C121.299 69.225 121.569 69.0031 121.841 68.7833C122.652 68.1215 123.405 67.5765 123.755 66.5557ZM138.892 57.7867C133.708 52.1077 126.529 47.9484 118.97 46.5027C111.751 45.1205 104.277 46.0314 97.4572 48.7177C83.1865 54.3396 71.9265 66.7017 66.6539 81.0268C63.5801 89.373 62.5723 98.5224 63.496 107.357C64.4149 116.151 67.0565 125.233 71.8633 132.715C72.3039 133.4 72.7867 134.057 73.2926 134.693C73.0671 137.276 72.2069 139.808 70.8534 142.01C70.7807 142.128 70.704 142.244 70.6281 142.36C69.2421 143.4 67.8045 144.377 66.4011 145.384C65.1848 146.258 63.9811 147.154 62.8373 148.121C61.7577 149.034 60.504 150.051 59.773 151.284C59.1741 152.293 58.9295 153.666 59.7471 154.629C60.7323 155.789 62.4016 155.38 63.7361 155.38C63.8503 155.38 63.9644 155.383 64.0785 155.384C64.4792 155.636 64.892 155.865 65.2919 156.077C69.3334 158.225 73.3896 160.349 77.45 162.462C85.5374 166.674 93.5908 171.056 101.844 174.934C105.669 176.733 109.763 178.305 114.047 178.299C118.065 178.292 121.697 176.692 124.834 174.26C128.41 171.489 131.4 167.97 134.3 164.521C135.46 163.14 136.596 161.744 137.711 160.328C139.853 159.611 141.978 159.402 143.888 160.784C145.421 161.894 147.441 160.385 147.477 158.719C147.489 158.128 147.464 157.544 147.401 156.969C147.017 153.418 145.284 150.206 143.332 147.226C142.265 145.596 141.142 143.996 140.011 142.411C139.746 142.037 139.484 141.663 139.231 141.283C143.77 134.583 147.371 127.154 149.585 119.391C151.91 111.222 152.701 102.751 152.182 94.2869C151.385 81.3142 147.835 67.5849 138.892 57.7867Z" fill="black"/>
<path fill-rule="evenodd" clip-rule="evenodd" d="M123.152 128.274C121.732 127.695 120.465 126.728 119.538 125.493C119.216 125.063 119.133 124.61 119.2 124.195C119.276 123.729 119.552 123.306 119.928 123.023C120.305 122.739 120.777 122.598 121.233 122.67C121.63 122.732 122.024 122.949 122.337 123.399L122.402 123.489C122.953 124.235 123.67 124.846 124.488 125.241C125.276 125.621 126.158 125.798 127.07 125.695C128.808 125.499 130.005 124.559 131.278 123.282C131.436 123.121 131.594 122.955 131.752 122.786C131.852 122.633 131.991 122.534 132.146 122.483C132.317 122.425 132.511 122.429 132.689 122.491C132.86 122.55 133.013 122.664 133.116 122.815C133.213 122.958 133.269 123.135 133.251 123.339C133.134 124.661 132.443 125.842 131.461 126.769C130.37 127.799 128.924 128.511 127.563 128.761C126.064 129.036 124.536 128.839 123.152 128.274V128.274ZM128.271 107.866C129.866 108.836 132.297 111.098 130.581 113.503C128.56 115.624 125.652 113.193 124.219 112.093C122.89 111.241 121.396 113.433 122.629 114.428C132.987 122.099 137.19 108.12 129.078 106.726C128.184 106.572 127.853 107.566 128.271 107.866ZM109.711 98.9429C109.887 96.7541 113.219 96.257 113.551 98.423C113.847 100.363 113.498 102.145 112.624 103.892C111.79 105.561 109.692 104.783 109.533 103.263C109.32 101.226 109.601 100.304 109.711 98.9429ZM135.076 97.9739C135.541 97.3652 136.212 96.9497 137.015 97.1845C139.526 97.9185 138.786 101.485 137.904 103.22C137.425 104.163 135.876 104.402 135.176 103.572C134.036 102.219 133.489 99.5157 134.94 98.1825C134.979 98.1136 135.023 98.044 135.076 97.9739ZM112.589 89.3654L112.986 89.2959C114.213 89.0836 115.738 88.8796 116.606 89.8665C117.067 90.3898 117.225 91.3624 116.606 91.8633C115.518 92.7446 114.314 92.4031 113.01 92.4777C111.935 92.5394 110.902 92.7174 109.867 93.0135C107.595 93.6629 105.744 94.8486 103.804 96.1505C103.55 96.3213 103.29 95.9956 103.411 95.7574C104.531 93.563 106.701 91.7604 108.875 90.6616C110.036 90.0751 111.305 89.5885 112.589 89.3654ZM132.787 88.3823L133.091 88.4445C136.395 89.1353 140.687 90.5153 142.251 93.7615C142.311 94.2205 142.248 94.3189 142.197 94.3832L142.18 94.4046C142.137 94.4595 142.104 94.5351 141.905 94.5976C141.85 94.5844 141.794 94.5705 141.737 94.5557C141.02 94.3677 140.453 94.1087 139.904 93.84L139.308 93.5465C138.617 93.2076 137.92 92.881 137.181 92.6399C135.605 92.1255 133.983 91.7631 132.337 91.5696C131.98 91.5277 131.636 91.4072 131.365 91.2006C131.108 91.0046 130.911 90.7332 130.821 90.3724C130.705 89.9056 130.739 89.5521 130.989 89.1309C131.177 88.8146 131.447 88.5953 131.756 88.4694C132.071 88.3411 132.43 88.3108 132.787 88.3823Z" fill="black"/>
<path fill-rule="evenodd" clip-rule="evenodd" d="M147.178 109.153C144.613 111.805 140.331 112.566 136.919 111.144C128.156 107.481 132.445 96.0578 139.203 92.99C140.047 92.7795 141.175 92.2801 142.203 92.1668C142.296 92.1212 142.498 92.2533 142.743 92.1284C150.195 92.9607 151.892 104.533 147.178 109.153M118.915 109.832C116.038 113.649 110.69 114.827 106.32 113.052C97.6872 109.651 100.749 99.5216 106.656 95.5503C119.132 90.8603 124.285 102.794 118.915 109.832M100.201 101.374C100.193 101.371 100.185 101.369 100.177 101.365C100.222 101.345 100.268 101.325 100.313 101.304C100.299 101.343 100.283 101.381 100.268 101.42C100.246 101.404 100.226 101.386 100.201 101.374M153.117 97.2481C152.413 97.2496 151.395 97.3654 150.812 97.8543C149.374 93.0031 144.067 88.5134 139.451 91.7872C135.816 92.9566 133.119 95.5501 131.586 98.9981C128.822 97.3534 124.476 98.0557 122.079 100.231C120.509 95.0418 116.646 93.2248 112.048 92.9566C107.029 92.1343 102.027 97.0103 100.466 100.922C99.168 100.774 97.2287 100.361 96.0078 101.162C88.0838 99.0835 74.2299 97.9373 72.619 99.0924C71.471 99.533 70.841 102.244 72.4445 102.39C73.8418 102.192 72.2814 100.404 73.6899 100.209C81.1948 99.7433 88.4804 101.255 95.9058 101.89C96.5687 102.782 98.7108 103.08 99.8535 102.722C98.0537 109.357 101.939 113.872 107.76 115.224C116.775 117.296 124.617 109.229 122.26 100.838C124.991 99.4791 128.131 99.5375 131.106 100.253C126.135 118.554 155.598 117.733 150.997 98.4813C154.059 100.005 154.724 97.5556 153.117 97.2481" fill="black"/>
</g>
<defs>
<clipPath id="clip0_2016_14162">
<rect width="200" height="267" fill="white"/>
</clipPath>
</defs>
</svg>
