<svg width="200" height="267" viewBox="0 0 200 267" fill="none" xmlns="http://www.w3.org/2000/svg">
<g clip-path="url(#clip0_2016_14163)">
<rect width="200" height="267" fill="white"/>
<path fill-rule="evenodd" clip-rule="evenodd" d="M27.464 285.957C55.0651 290.151 83.1668 290.362 110.997 288.839C122.011 288.014 133.059 287.865 144.065 288.92C150.568 289.404 179.081 291.584 181.41 285.757C179.944 254.73 176.974 223.438 167.865 193.598C164.118 183.002 160.9 174.208 153.588 165.44C151.284 163.046 146.314 158.025 143.466 156.388C140.999 154.969 139.968 155.475 138.551 153.079C137.144 150.433 136.105 146.012 134.107 144.145C132.071 142.243 129.055 142.924 125.317 143.536C126.004 134.251 121.72 131.887 115.818 130.121C105.443 126.16 95.1977 128.15 92.5866 140.784C87.7452 140.784 85.0257 142.868 82.0857 144.871C80.8838 145.69 81.7199 147.775 80.2844 148.419C77.6284 149.365 72.9349 149.133 70.3776 150.297C58.7487 155.592 48.3912 163.269 41.5892 174.481C26.3399 198.42 15.8647 248.848 17.6774 277.221C16.8832 278.466 17.9815 280.253 18.2606 281.593C18.613 282.758 19.754 283.533 20.9449 283.401C22.6067 285.189 25.1771 285.587 27.464 285.957Z" fill="#FDC6A0"/>
<path fill-rule="evenodd" clip-rule="evenodd" d="M84.8866 142.681C86.5873 140.906 89.2539 139.847 91.7791 139.906L91.8974 139.91L92.7547 139.948L92.1819 142.76L92.153 142.893L92.0362 143.381L91.8806 144.02L91.8252 144.255L91.7669 144.515C91.7577 144.557 91.7487 144.599 91.7399 144.641L91.7143 144.764L91.4701 145.958L91.5157 146.064L91.5025 146.336C91.4647 147.317 91.676 147.856 92.1415 148.029L92.1788 148.042L92.4444 148.127L92.6611 148.598C93.1598 149.674 93.625 150.613 94.1026 151.498C95.4956 154.08 97.1575 156.66 99.0737 159.253C100.894 161.717 102.791 164.069 104.763 166.302C105.649 167.306 106.586 168.315 107.583 169.341L108.441 170.22L108.714 170.496L108.897 170.68L109.126 170.904L109.456 171.218L109.695 171.454L109.773 171.528C109.87 171.618 109.946 171.68 110.014 171.723L110.039 171.739L110.114 171.784L114.092 175.969L115.497 176.742L116.165 177.112L116.3 176.843L116.327 176.756L117.806 173.508L118.709 171.519C120.562 167.426 122.004 164.17 123.322 161.069L123.486 160.683L123.972 159.529L124.229 158.914C125.408 156.089 126.279 153.908 127.058 151.79L127.168 151.488L127.332 151.035L127.576 150.353L127.62 150.236C127.832 149.694 127.312 147.725 126.8 146.646L126.771 146.585L126.638 146.318L126.494 146.036C126.155 145.375 125.91 144.641 125.704 143.753C125.671 143.61 125.639 143.465 125.61 143.319L125.567 143.099L125.54 142.955L125.502 142.753L125.447 142.463L126.593 142.272L127.222 142.169L127.496 142.126C127.851 142.071 128.167 142.026 128.465 141.988L128.575 141.974L128.775 141.951L128.782 141.99L129.19 142.031L129.494 142.062C130.989 142.22 132.142 142.394 132.961 142.588L133.042 142.607L133.188 142.644L133.255 142.662C134 142.862 134.574 143.296 135.028 143.935C135.34 144.373 135.542 144.793 135.862 145.589L135.976 145.876L136.357 146.818C136.402 146.933 136.471 147.116 136.564 147.368L136.887 148.248L138.507 152.723L140.165 153.595C140.935 153.999 141.499 154.289 141.777 154.427L141.876 154.475L141.946 154.507L142.518 154.734L142.456 154.912L142.525 154.952C149.35 158.879 154.613 164.92 158.71 172.941L158.834 173.184L158.961 173.437C162.226 179.97 164.566 187.261 166.85 196.994L166.991 197.599L167.103 198.081L167.698 200.678C169.936 210.485 171.474 217.799 172.746 224.974L172.829 225.442L173.041 226.661C174.639 235.949 175.977 245.153 177.048 254.267L177.225 255.801C177.672 259.717 178.076 263.765 178.514 268.626L178.572 269.279L178.765 271.462C178.97 273.815 179.158 276.163 179.328 278.506L179.411 279.677L179.583 282.223L179.683 283.674L179.695 283.871L179.736 284.627L179.748 284.804C179.763 285.032 179.78 285.223 179.802 285.401L179.82 285.531L179.839 285.658C179.896 286.005 180.007 286.315 180.192 286.662L180.24 286.749L180.557 287.316L179.982 287.619C176.984 289.199 171.082 289.894 162.986 289.93L162.74 289.931H162.234C158.3 289.929 154.13 289.777 149.779 289.518L148.795 289.458L147.974 289.405C147.62 289.382 147.276 289.359 146.919 289.334L146.371 289.296L144.084 289.128C133.793 288.142 123.002 288.159 111.111 289.049C80.1108 290.745 53.3531 290.03 28.2035 286.275L27.4419 286.16L26.8807 286.068L26.5459 286.012C23.8783 285.557 22.2032 284.973 20.8962 283.747L20.8277 283.682L20.7707 283.627L20.7459 283.627C19.4299 283.621 18.2251 282.76 17.7781 281.49L17.7549 281.422L17.7254 281.327L17.705 281.232C17.6842 281.141 17.6582 281.043 17.6266 280.935L17.6018 280.852L17.394 280.171L18.094 280.043C18.1543 280.032 18.217 279.99 18.2778 279.902L18.3361 279.819L18.4371 279.679L18.6809 279.344C18.9406 278.98 19.0683 278.751 19.1316 278.522C19.1877 278.318 19.2086 278.058 19.2026 277.695L19.1979 277.518L19.1703 276.875C19.1685 276.824 19.1672 276.779 19.1665 276.735L19.1656 276.671L19.1651 275.766L19.1674 274.772C19.169 274.339 19.1714 273.916 19.1748 273.5L19.1804 272.883L19.186 272.385C19.2198 269.632 19.3005 266.881 19.4284 264.134C19.6783 258.772 20.107 253.417 20.7135 248.083C21.9658 237.07 23.8839 226.39 26.4932 216.068L26.7553 215.037C29.5767 204.007 32.2969 195.503 35.7543 187.639C40.1517 177.637 45.5134 169.405 52.2644 162.825C55.9761 159.206 60.0866 156.152 64.4549 153.81C66.4639 152.733 68.599 151.777 70.8887 150.917L71.2169 150.794L71.7465 150.601L72.1529 150.451L73.4622 149.961C73.7374 149.858 74.037 149.743 74.3911 149.603L74.6104 149.517L76.9551 148.581L77.3444 148.428L77.7774 148.259L78.0956 148.137C78.6159 147.939 79.087 147.766 79.5244 147.613L79.7829 147.524L80.0175 147.445L81.0182 147.098L80.9987 148.009C80.9857 148.614 81.1416 149.072 81.4879 149.401L81.4995 149.411L81.5115 149.421L81.5222 149.428L81.5827 149.426L81.8192 149.425C81.8436 149.411 81.8666 149.396 81.888 149.378C82.2245 149.092 82.381 148.708 82.5329 147.829L82.5731 147.584L82.6432 147.126L82.6712 146.953C82.7724 146.342 82.8605 146.005 83.032 145.62C83.2797 145.063 83.6073 144.52 83.9928 144.022L84.0828 143.907L84.4428 143.474L84.498 143.406C84.6241 143.244 84.6889 143.13 84.7159 143.025L84.7224 142.997L84.7583 142.815L84.8866 142.681Z" fill="#FFCF77"/>
<path fill-rule="evenodd" clip-rule="evenodd" d="M141.709 155.686C141.54 155.591 141.689 155.349 141.859 155.429C150.045 159.271 156.324 166.01 160.743 173.798C165.318 181.861 167.925 191.016 170.174 199.964L170.255 200.287C172.652 209.859 174.69 219.53 176.525 229.225C178.384 239.042 179.876 248.92 181.076 258.839C181.669 263.744 182.198 268.657 182.611 273.58C182.817 276.04 183.005 278.502 183.173 280.965C183.241 281.95 183.304 282.935 183.358 283.921L183.397 284.661C183.431 285.332 183.51 286.004 183.345 286.666C183.202 287.236 182.9 287.753 182.634 288.277C182.109 289.312 180.669 289.141 180.103 288.277L179.939 288.025C179.564 287.444 179.252 286.905 179.134 286.183C179.02 285.484 179.016 284.751 178.965 284.044C178.871 282.745 178.791 281.444 178.699 280.144C178.508 277.407 178.293 274.673 178.054 271.94C177.583 266.545 177.077 261.155 176.456 255.775C175.353 246.213 173.969 236.677 172.337 227.192C170.742 217.926 168.726 208.754 166.623 199.593L166.405 198.645C162.723 182.652 157.048 164.233 141.709 155.686ZM54.5216 218.314C54.5818 218.154 54.8408 218.117 54.8845 218.314C55.4359 220.797 55.4904 223.355 55.5747 225.898C55.6578 228.406 55.6544 230.926 55.6178 233.436C55.483 242.66 55.2299 251.876 55.0111 261.098C54.9016 265.711 54.799 270.325 54.7202 274.939C54.6904 276.669 54.6653 278.4 54.6445 280.13L54.619 282.413C54.6064 283.422 54.5799 284.418 54.4569 285.427C54.3758 286.09 54.203 286.722 53.8371 287.29C53.5774 287.694 53.2073 287.898 52.8465 288.173L52.779 288.225C52.3189 288.589 51.8342 288.591 51.3785 288.225L51.2462 288.12C50.8109 287.78 50.4347 287.513 50.1568 286.975C49.7702 286.226 49.7083 285.413 49.6425 284.587C49.5428 283.336 49.609 282.067 49.6218 280.812C49.6476 278.295 49.6825 275.778 49.7266 273.261C49.8887 264.031 50.209 254.8 50.7927 245.586C51.0677 241.246 51.4406 236.893 51.9407 232.57L52.036 231.76C52.1877 230.489 52.3261 229.194 52.482 227.896C50.1544 226.258 48.1085 224.271 46.3639 222.017C46.2354 221.851 46.4469 221.618 46.602 221.779C48.3847 223.625 50.4287 225.097 52.6916 226.255C53.0623 223.537 53.5721 220.833 54.5216 218.314ZM93.4059 136.038C93.4378 136.013 93.4877 136.002 93.5181 136.038C94.0184 136.621 93.9169 137.513 93.933 138.253L93.9349 138.322C93.9708 139.403 93.9776 140.48 93.974 141.562L93.9628 145.005V145.005C93.9613 145.479 93.9229 145.971 93.9472 146.448L93.9598 146.632V146.632C94.2227 146.901 94.3448 147.29 94.2556 147.681C94.2396 148.182 93.9776 148.601 93.5954 148.864L94.4145 150.026V150.026L95.2344 151.188C96.9243 153.586 98.6329 155.962 100.413 158.294C102.229 160.672 104.166 162.959 106.193 165.159C107.183 166.234 108.19 167.294 109.221 168.33C109.64 168.751 110.069 169.162 110.493 169.577L110.916 169.995C111.165 170.244 111.479 170.491 111.645 170.808C111.742 170.994 111.764 171.454 111.799 171.53C112.112 172.218 111.578 173.314 110.692 172.971L110.732 172.944C110.893 172.832 110.79 172.83 110.422 172.94C110.189 172.939 109.971 172.885 109.768 172.779L109.707 172.746C109.42 172.6 109.165 172.318 108.932 172.093L108.874 172.038C108.341 171.538 107.834 171.009 107.323 170.487C106.258 169.398 105.216 168.287 104.208 167.145C102.197 164.867 100.29 162.497 98.4846 160.053C96.6453 157.564 94.9357 154.947 93.4655 152.222C92.9075 151.188 92.396 150.135 91.9057 149.069C90.9512 148.762 90.7296 147.747 90.7961 146.603C90.4439 145.782 90.1266 144.945 89.939 144.089C89.9134 143.972 90.0641 143.861 90.1543 143.964C90.4596 144.311 90.7422 144.68 91.0139 145.059C91.1779 144.257 91.3853 143.519 91.4829 143.048L91.9061 140.971V140.971C89.5215 140.847 86.9086 141.827 85.2647 143.543C85.1764 143.989 84.8327 144.309 84.4976 144.727C84.1148 145.204 83.7808 145.74 83.5317 146.3C82.9792 147.542 83.291 149.372 82.2189 150.283C82.1071 150.378 81.9822 150.444 81.8534 150.485C82.3621 152.981 82.1312 155.731 82.1202 158.262L82.1198 158.485C82.1223 161.319 82.0277 164.155 81.9182 166.986L81.8069 169.788C81.6626 173.525 81.5689 177.264 81.932 180.98C83.5893 179.512 85.3032 178.11 87.0759 176.775C88.2415 175.897 89.4305 175.05 90.6411 174.235L91.6248 173.578C92.8035 172.787 94.0108 171.974 95.3014 171.407C96.9894 170.667 98.5946 170.921 100.224 171.681C101.847 172.437 103.422 173.316 105.014 174.136C106.633 174.969 108.255 175.796 109.877 176.624C110.951 177.174 112.525 177.669 113.313 178.68C113.363 178.456 113.422 178.233 113.49 178.011C113.412 177.672 113.442 177.306 113.632 176.957C116.279 172.091 118.728 167.109 121.161 162.133C122.392 159.615 123.562 157.067 124.795 154.55L125.994 152.099C126.195 151.691 126.396 151.283 126.598 150.875C126.9 150.265 127.215 149.661 127.521 149.053C127.65 148.796 127.813 148.54 127.938 148.281L127.998 148.151C128.001 148.144 128.291 147.23 128.067 147.317L128.048 147.326C127.933 147.391 127.841 147.247 127.916 147.155C128.233 146.763 128.675 147.11 128.856 147.474C129.355 148.474 128.441 150.043 128.089 151.001L128.07 151.054C126.979 154.144 125.743 157.176 124.477 160.197C122.05 165.989 119.443 171.693 116.841 177.406L116.81 177.505V177.505C117.365 177.079 117.957 176.693 118.464 176.317C119.744 175.369 121.061 174.467 122.376 173.569C124.787 171.92 127.264 170.381 129.782 168.902L130.286 168.607C131.544 167.874 132.79 167.28 134.282 167.5C135.669 167.705 136.959 168.45 138.212 169.055L138.341 169.117L142.213 170.959C141.799 169.308 141.351 167.665 140.883 166.028C139.971 162.835 138.968 159.669 137.88 156.531C136.864 153.599 135.765 150.7 134.603 147.823L134.253 146.96C133.78 145.775 133.308 144.484 131.954 144.119C130.601 143.755 129.049 144.295 127.812 143.524C127.7 143.453 127.714 143.268 127.85 143.234L128.613 143.041C130.046 142.685 131.726 142.326 133.081 142.673C134.555 143.051 135.775 144.289 136.491 145.576C137.286 147.007 137.847 148.609 138.45 150.136L138.546 150.376C139.239 152.104 139.905 153.842 140.543 155.591C141.817 159.086 142.978 162.624 144.028 166.194C144.535 167.914 145.015 169.643 145.476 171.376C145.609 171.874 145.828 172.478 146.008 173.109C146.213 173.309 146.408 173.533 146.591 173.789C146.894 174.213 146.676 174.71 146.299 174.964C146.285 175.398 146.189 175.806 145.958 176.155C145.059 177.52 142.683 177.169 142.779 175.333C142.794 175.052 142.903 174.784 143.069 174.558L143.064 174.521V174.521L143.046 174.454V174.454C142.633 174.256 142.219 174.035 141.782 173.82L137.719 171.811V171.811C136.542 171.229 135.238 170.33 133.929 170.109C132.709 169.902 131.422 170.811 130.374 171.36L130.306 171.395C127.772 172.695 125.256 174.037 122.751 175.391C121.528 176.052 120.321 176.74 119.102 177.409C118.083 177.968 116.984 178.771 115.839 179.086C115.35 179.467 114.769 179.416 114.302 179.128C114.515 180.45 114.502 181.807 114.568 183.158C114.656 184.965 114.669 186.777 114.698 188.586L114.71 189.265C114.787 193.265 114.828 197.266 114.843 201.267C114.898 215.513 114.74 229.764 114.703 244.011C114.685 251.169 114.543 258.333 114.357 265.488C114.278 268.52 114.114 271.549 113.936 274.576L113.838 276.227C113.63 279.711 113.508 283.234 112.863 286.671C112.779 287.119 112.021 287.131 111.946 286.671C111.353 282.988 111.32 279.224 111.206 275.498L111.182 274.753C111.045 270.753 110.98 266.754 110.994 262.751C111.044 248.499 111.415 234.255 111.718 220.007C111.87 212.848 111.972 205.686 112.209 198.529C112.327 194.949 112.461 191.37 112.62 187.791C112.691 186.192 112.759 184.596 112.865 183L112.913 182.316C112.946 181.87 112.973 181.429 113.005 180.993C111.564 181.519 110.245 180.544 108.949 179.877C107.454 179.108 105.96 178.337 104.465 177.57L102.969 176.804V176.804L99.9742 175.275C98.6259 174.587 97.5871 173.902 96.149 174.709C90.9681 177.617 86.2072 181.486 81.8927 185.546C81.0653 186.324 79.3171 186.115 79.1075 184.81C78.2123 179.236 78.7568 173.58 79.2138 167.989L79.3823 165.913C79.5865 163.434 79.8088 160.954 80.1051 158.485C80.2376 157.381 80.3696 156.277 80.5156 155.174L80.628 154.348C80.8105 153.041 80.9297 151.742 81.3189 150.488C81.1961 150.449 81.078 150.384 80.9724 150.283C79.8024 149.173 80.3665 147.246 80.9003 145.925C81.4274 144.621 82.2313 143.484 83.238 142.504C83.4575 142.29 83.767 142.153 84.078 142.145C86.5188 140.528 89.1964 139.72 91.9832 140.603C92.0615 140.229 92.1413 139.855 92.2254 139.482L92.3109 139.11C92.5277 138.185 92.6082 136.657 93.4059 136.038ZM118.421 282.127C119.179 281.919 120.008 282.138 120.563 282.694C121.118 283.249 121.337 284.078 121.129 284.836C121.024 285.209 120.836 285.533 120.563 285.808C120.308 286.061 120.01 286.242 119.671 286.35L119.591 286.374L119.468 286.425C119.088 286.527 118.708 286.527 118.329 286.425C117.966 286.323 117.651 286.14 117.383 285.874C117.118 285.607 116.934 285.292 116.832 284.928C116.73 284.549 116.73 284.169 116.832 283.789L116.884 283.665V283.665C116.988 283.292 117.177 282.968 117.45 282.694C117.724 282.421 118.048 282.232 118.421 282.127ZM163.394 206.625C163.518 206.482 163.72 206.665 163.642 206.817C162.463 209.13 161.148 211.428 159.855 213.682C159.959 214.307 160.062 214.927 160.18 215.532C160.683 218.107 161.3 220.636 161.702 223.236C163.147 232.582 163.897 242.029 164.541 251.459C165.187 260.922 165.269 270.39 165.366 279.872C165.375 280.693 164.743 281.648 163.896 281.803C163.508 281.874 163.218 281.86 162.831 281.803C161.95 281.674 161.399 280.664 161.361 279.872C161.109 274.572 160.769 269.28 160.375 263.988C159.677 254.608 159.25 245.203 158.686 235.813L158.488 232.531C158.275 228.974 158.08 225.416 158.016 221.854C157.974 219.495 158.1 217.136 158.023 214.779C157.951 212.603 157.73 210.237 158.21 208.1C158.228 208.02 158.354 207.999 158.391 208.076C158.889 209.126 159.205 210.267 159.449 211.432C160.734 209.807 162.042 208.177 163.394 206.625ZM79.2253 149.149C79.4057 149.135 79.3985 149.407 79.2253 149.427C76.7036 149.719 74.2676 150.746 71.8866 151.618L71.6826 151.693C69.2771 152.566 66.9318 153.581 64.6749 154.791C60.2621 157.158 56.21 160.209 52.6273 163.701C38.3234 177.645 31.8048 197.751 27.0282 216.646C24.3743 227.144 22.487 237.82 21.2638 248.577C20.6589 253.897 20.2313 259.238 19.982 264.586C19.8544 267.328 19.7739 270.071 19.7403 272.815C19.723 274.221 19.7179 275.627 19.7196 277.032C19.7205 277.676 19.8354 278.487 19.6632 279.113C19.5035 279.692 19.0531 280.202 18.7199 280.685C18.3251 281.258 17.6154 281.227 17.2151 280.685L17.0674 280.487C16.6404 279.921 16.2227 279.379 16.1617 278.639C16.0964 277.845 16.1425 277.026 16.1395 276.229C16.1327 274.623 16.1526 273.016 16.1847 271.41C16.2466 268.331 16.3679 265.254 16.5481 262.18C16.914 255.942 17.5163 249.717 18.3787 243.528C19.9117 232.527 22.2094 221.631 25.2191 210.94C28.0586 200.855 31.4224 190.799 36.2144 181.457C40.6637 172.783 46.5006 164.714 54.2025 158.652C57.7841 155.833 61.6831 153.484 65.8867 151.715C68.0068 150.822 70.2331 150.094 72.4972 149.679C74.7363 149.268 76.9656 149.325 79.2253 149.149ZM118.855 264.3C119.255 264.298 119.701 264.385 120.044 264.607L120.503 264.961V264.961C120.627 265.121 120.751 265.281 120.874 265.442C121.16 265.815 121.198 266.42 121.139 266.865C121.125 267.163 121.037 267.439 120.874 267.695L120.525 268.147V268.147C120.189 268.421 119.909 268.616 119.503 268.748C119.291 268.817 119.086 268.831 118.882 268.821L118.814 268.816L118.855 268.822L118.784 268.814V268.814C118.718 268.808 118.651 268.801 118.584 268.792C118.539 268.786 118.493 268.783 118.448 268.776C118.404 268.773 118.362 268.771 118.318 268.775C117.801 268.824 117.282 268.531 116.916 268.194C116.585 267.891 116.289 267.248 116.335 266.792L116.355 266.602C116.39 266.28 116.418 266.154 116.554 265.831C116.686 265.517 116.871 265.24 117.123 265.006C117.605 264.557 118.194 264.305 118.855 264.3ZM117.257 240.781C117.942 240.034 119.119 239.979 119.969 240.431C120.176 240.541 120.366 240.718 120.549 240.865C121.009 241.237 121.189 241.908 121.215 242.474C121.24 243.033 120.945 243.697 120.549 244.082L120.453 244.176V244.176C120.216 244.406 119.877 244.606 119.545 244.667C119.011 244.766 118.562 244.763 118.065 244.553C117.637 244.372 117.269 244.082 117.018 243.688L116.978 243.622C116.96 243.594 116.944 243.566 116.929 243.538L116.907 243.494C116.431 242.578 116.559 241.541 117.257 240.781ZM117.612 217.137C117.921 217.04 118.23 217.026 118.539 217.096C118.749 217.096 118.944 217.149 119.126 217.254C119.323 217.309 119.494 217.409 119.639 217.553C119.813 217.657 119.952 217.796 120.056 217.97C120.261 218.195 120.4 218.459 120.472 218.761L120.555 219.38L120.472 219.998L120.237 220.554V220.554C120.173 220.638 120.108 220.722 120.043 220.806C119.939 220.981 119.8 221.12 119.624 221.224C119.511 221.337 119.38 221.422 119.234 221.481C118.716 221.852 118.027 221.973 117.414 221.804C117.049 221.702 116.733 221.518 116.465 221.251C116.199 220.983 116.014 220.666 115.912 220.302L115.87 220.011C115.816 219.621 115.808 219.405 115.918 218.909C115.966 218.691 116.107 218.383 116.18 218.254C116.495 217.701 117.008 217.322 117.612 217.137ZM144.45 200.127C145.337 200.121 146.225 200.123 147.112 200.132L147.778 200.141C148.892 200.159 149.847 200.044 150.723 200.817C151.359 201.379 151.079 202.321 150.475 202.743C149.56 203.384 148.413 203.062 147.362 202.991C146.253 202.917 145.144 202.855 144.034 202.805C141.884 202.709 139.734 202.648 137.583 202.638C135.436 202.629 133.286 202.649 131.14 202.684C128.956 202.72 126.682 202.923 124.51 202.697C124.212 202.666 124.144 202.273 124.439 202.171C126.486 201.463 128.788 201.234 130.932 200.963C133.145 200.683 135.357 200.485 137.583 200.357C139.87 200.226 142.159 200.143 144.45 200.127ZM117.608 193.171L117.681 193.172C118.072 193.173 118.437 193.265 118.778 193.448L118.851 193.489L119.32 193.851C119.607 194.14 119.806 194.481 119.916 194.874L119.998 195.49V195.49C120.011 195.809 119.944 196.107 119.799 196.384C119.705 196.671 119.546 196.919 119.32 197.13C119.11 197.356 118.861 197.515 118.574 197.609C118.319 197.743 118.046 197.81 117.754 197.81L117.681 197.809C117.263 197.807 116.873 197.702 116.512 197.492L116.043 197.13V197.13C115.755 196.84 115.557 196.499 115.447 196.107L115.364 195.49V195.49C115.352 195.171 115.418 194.873 115.564 194.597C115.657 194.31 115.817 194.061 116.043 193.851C116.253 193.625 116.501 193.465 116.788 193.372C117.043 193.238 117.316 193.171 117.608 193.171V193.171ZM124.478 138.712C124.977 137.989 125.882 138.632 125.753 139.214C125.787 140.847 125.87 142.432 126.242 144.033C126.412 144.765 126.635 145.499 126.979 146.17L127.123 146.452C127.568 147.332 127.913 148.161 127.314 149.126C127.032 149.58 126.521 149.922 125.968 149.898C123.514 149.792 123.177 146.375 123.028 144.468C122.874 142.503 123.352 140.344 124.478 138.712Z" fill="black"/>
<path fill-rule="evenodd" clip-rule="evenodd" d="M141.197 73.4597C134.861 64.717 123.194 62.2028 113.077 64.3292C93.2979 67.9437 74.4009 83.0715 70.9061 103.645C65.4537 116.092 68.9355 135.696 84.7926 137.161C87.0502 137.289 89.2863 136.768 91.5479 137.049C105.351 139.259 121.661 148.721 133.88 137.563C134.492 138.003 135.299 138.215 135.985 137.949C141.186 135.934 141.43 130.106 141.874 125.315C142.446 119.124 142.983 112.93 143.484 106.734C143.663 96.0474 147.889 82.6936 141.197 73.4597V73.4597Z" fill="#FDC6A0"/>
<path fill-rule="evenodd" clip-rule="evenodd" d="M102.85 51.182C111.177 50.7381 126.521 54.5619 133.786 59.0448C145.623 66.3489 146.54 80.919 146.058 83.4382C145.874 84.3997 145.288 85.2895 144.371 84.9938C145.149 91.6131 145.088 95.3964 145.219 102.054L145.308 106.499C145.367 109.462 145.417 112.426 145.429 115.39C145.729 115.278 146.024 115.415 146.134 115.703C146.161 115.773 146.066 115.811 146.02 115.771C145.493 115.31 145.868 116.36 146.049 116.574C146.3 116.868 146.718 117.144 147.011 117.396L147.806 118.087V118.087L148.602 118.776C149.63 119.665 150.625 120.556 151.584 121.514L151.845 121.777C153.592 123.557 155.783 125.279 156.871 127.581C157.91 129.779 157.59 132.271 155.863 134.023C155.235 134.659 154.501 135.145 153.704 135.513C155.123 137.855 155.33 140.951 153.85 143.36C152.368 145.778 149.517 147.044 146.772 146.85C146.688 147.194 146.557 147.53 146.384 147.849C145.296 149.854 143.131 150.115 141.078 150.007L140.998 150.003C136.377 149.737 131.93 148.576 127.883 146.321C126.479 146.416 125.226 145.26 124.952 143.992C124.214 143.965 123.472 143.903 122.715 143.817C120.47 143.557 118.168 143.073 116.188 141.929C115.885 141.754 116.026 141.291 116.363 141.282C118.775 141.228 121.189 141.395 123.597 141.133C125.806 140.894 128.161 140.283 130.221 139.452C133.923 137.956 137.098 135.418 138.85 131.901C141.118 127.348 140.911 121.881 141.158 116.935C141.431 111.461 141.768 105.992 142.127 100.523L142.302 97.9013C142.651 92.7918 142.94 90.0584 143.825 84.755C141.158 84.9938 130.08 80.9964 126.635 74.4578C120.096 88.3677 86.9682 82.675 85.499 104.089C85.4866 104.271 85.1997 104.22 85.1891 104.047L85.1618 103.559C85.1486 103.318 85.1366 103.08 85.1284 102.845L85.1217 102.61L84.6009 102.616C84.6009 102.681 84.5082 102.705 84.485 102.635C83.9938 101.238 81.6537 101.688 80.6354 102.02C79.7183 102.32 78.8539 102.781 78.0781 103.35C76.5201 104.491 75.3121 106.027 74.9116 107.948C74.1505 111.596 76.4674 115.312 79.5433 117.073C81.4829 118.182 83.608 118.899 85.4674 120.156C87.1097 121.266 88.6403 122.566 89.9664 124.043C95.22 129.895 98.3107 138.772 95.8251 146.497C95.6354 147.086 95.1336 147.76 94.4695 147.856C93.3711 148.014 92.2728 147.854 91.6572 146.805C91.4168 146.395 91.303 145.928 91.3283 145.467C90.9024 146.934 89.5215 148.384 88.2482 148.929C86.5131 149.673 84.5588 149.451 83.0282 148.492L82.8348 148.635C80.3457 150.472 77.5652 152.146 74.3761 151.808C72.0655 151.563 69.797 150.383 68.5194 148.524C66.8202 149.481 65.005 150.244 63.1329 150.764L62.9337 150.819C60.358 151.522 57.0726 152.166 54.6684 150.738C52.3599 149.367 51.5926 146.372 52.1344 143.872C52.1997 143.574 52.2819 143.284 52.3831 143.003C50.646 143.096 48.9109 142.929 47.2623 142.418C45.5778 141.895 43.9713 140.892 43.1639 139.264C42.2531 137.423 42.4956 135.331 43.1744 133.456C44.2602 130.449 46.0058 127.773 48.1793 125.442C50.2696 123.198 52.7909 121.295 55.4112 119.709L55.853 119.444C58.2117 118.033 61.0563 116.38 63.8434 116.489C63.835 116.453 63.8287 116.419 63.8244 116.384C63.4028 113.27 63.4513 110.096 63.3522 106.957C63.2615 104.07 63.1582 101.183 63.0908 98.2941C62.9812 93.3821 63.017 88.4494 63.6558 83.5714C64.2229 79.2429 65.2433 75.0221 67.1048 71.0592C69.0592 66.8959 72.0022 63.3431 75.6368 60.549C83.2643 54.684 93.3395 51.6892 102.85 51.182ZM76.9418 108.874C77.7724 107.304 79.6635 106.809 81.3226 107.092C83.648 107.49 85.2292 109.527 86.5869 111.28C88.012 113.116 85.0394 114.847 84.2741 113.068L84.0928 112.647C83.4787 111.236 82.7532 109.748 81.4997 108.828C80.1673 107.851 78.2868 107.708 77.1104 109.005C77.0261 109.1 76.8848 108.978 76.9418 108.874Z" fill="black"/>
<path fill-rule="evenodd" clip-rule="evenodd" d="M123.152 128.274C121.732 127.695 120.465 126.728 119.538 125.493C119.216 125.063 119.133 124.61 119.2 124.195C119.276 123.729 119.552 123.306 119.928 123.023C120.305 122.739 120.777 122.598 121.233 122.67C121.63 122.732 122.024 122.949 122.337 123.399L122.402 123.489C122.953 124.235 123.67 124.846 124.488 125.241C125.276 125.621 126.158 125.798 127.07 125.695C128.808 125.499 130.005 124.559 131.278 123.282C131.436 123.121 131.594 122.955 131.752 122.786C131.852 122.633 131.991 122.534 132.146 122.483C132.317 122.425 132.511 122.429 132.689 122.491C132.86 122.55 133.013 122.664 133.116 122.815C133.213 122.958 133.269 123.135 133.251 123.339C133.134 124.661 132.443 125.842 131.461 126.769C130.37 127.799 128.924 128.511 127.563 128.761C126.064 129.036 124.536 128.839 123.152 128.274V128.274ZM128.271 107.866C129.866 108.836 132.297 111.098 130.581 113.503C128.56 115.624 125.652 113.193 124.219 112.093C122.89 111.241 121.396 113.433 122.629 114.428C132.987 122.099 137.19 108.12 129.078 106.726C128.184 106.572 127.853 107.566 128.271 107.866ZM109.711 98.9429C109.887 96.7541 113.219 96.257 113.551 98.423C113.847 100.363 113.498 102.145 112.624 103.892C111.79 105.561 109.692 104.783 109.533 103.263C109.32 101.226 109.601 100.304 109.711 98.9429ZM135.076 97.9739C135.541 97.3652 136.212 96.9497 137.015 97.1845C139.526 97.9185 138.786 101.485 137.904 103.22C137.425 104.163 135.876 104.402 135.176 103.572C134.036 102.219 133.489 99.5157 134.94 98.1825C134.979 98.1136 135.023 98.044 135.076 97.9739ZM112.589 89.3654L112.986 89.2959C114.213 89.0836 115.738 88.8796 116.606 89.8665C117.067 90.3898 117.225 91.3624 116.606 91.8633C115.518 92.7446 114.314 92.4031 113.01 92.4777C111.935 92.5394 110.902 92.7174 109.867 93.0135C107.595 93.6629 105.744 94.8486 103.804 96.1505C103.55 96.3213 103.29 95.9956 103.411 95.7574C104.531 93.563 106.701 91.7604 108.875 90.6616C110.036 90.0751 111.305 89.5885 112.589 89.3654ZM132.787 88.3823L133.091 88.4445C136.395 89.1353 140.687 90.5153 142.251 93.7615C142.311 94.2205 142.248 94.3189 142.197 94.3832L142.18 94.4046C142.137 94.4595 142.104 94.5351 141.905 94.5976C141.85 94.5844 141.794 94.5705 141.737 94.5557C141.02 94.3677 140.453 94.1087 139.904 93.84L139.308 93.5465C138.617 93.2076 137.92 92.881 137.181 92.6399C135.605 92.1255 133.983 91.7631 132.337 91.5696C131.98 91.5277 131.636 91.4072 131.365 91.2006C131.108 91.0046 130.911 90.7332 130.821 90.3724C130.705 89.9056 130.739 89.5521 130.989 89.1309C131.177 88.8146 131.447 88.5953 131.756 88.4694C132.071 88.3411 132.43 88.3108 132.787 88.3823Z" fill="black"/>
</g>
<defs>
<clipPath id="clip0_2016_14163">
<rect width="200" height="267" fill="white"/>
</clipPath>
</defs>
</svg>
