<svg width="200" height="267" viewBox="0 0 200 267" fill="none" xmlns="http://www.w3.org/2000/svg">
<g clip-path="url(#clip0_2016_14175)">
<rect width="200" height="267" fill="white"/>
<path fill-rule="evenodd" clip-rule="evenodd" d="M134.008 150.111C130.095 147.262 128.154 142.597 126.694 141.803C125.62 141.219 125.64 137.188 123.487 135.761C120.597 133.846 111.39 132.423 108.04 132.156C104.824 131.901 99.2319 132.438 96.2152 133.615C91.1844 135.58 89.1779 139.326 86.9624 144.153C86.9624 144.153 136.696 152.069 134.008 150.111Z" fill="#FDC6A0"/>
<path fill-rule="evenodd" clip-rule="evenodd" d="M61.0302 153.44H140.544L168.066 177.934L180.281 280.885L162.906 286.297L55.5497 288.092L22.0212 278.609L19.9292 206.947L61.0302 153.44Z" fill="#78E185"/>
<path fill-rule="evenodd" clip-rule="evenodd" d="M169.101 262.182C168.547 261.905 167.97 261.589 167.337 261.567C166.251 261.529 166.249 259.838 167.337 259.876C168.286 259.909 169.119 260.305 169.954 260.722C170.928 261.209 170.071 262.667 169.101 262.182M167.337 214.59C168.079 214.59 168.826 214.684 169.395 215.203C169.734 215.511 169.707 216.086 169.395 216.398C169.062 216.732 168.537 216.706 168.2 216.398C168.31 216.498 168.201 216.399 168.161 216.377C168.151 216.372 168.146 216.368 168.144 216.366C168.135 216.364 168.127 216.362 168.113 216.359C168.025 216.336 167.937 216.315 167.848 216.299C167.847 216.303 167.659 216.286 167.615 216.284C167.523 216.281 167.43 216.281 167.337 216.281C166.879 216.28 166.492 215.894 166.492 215.435C166.492 214.979 166.88 214.59 167.337 214.59M159.39 233.556C159.148 234.618 157.519 234.165 157.761 233.106C158.112 231.566 158.048 229.988 157.761 228.442C157.563 227.377 159.192 226.925 159.39 227.993C159.735 229.847 159.812 231.708 159.39 233.556M157.256 172.79C155.997 172.491 154.752 172.456 153.465 172.455C152.375 172.455 152.377 170.764 153.465 170.764C154.901 170.765 156.302 170.827 157.705 171.16C158.764 171.412 158.313 173.041 157.256 172.79M153.038 213.974C152.308 213.609 151.578 213.244 150.848 212.878C149.873 212.391 150.731 210.933 151.701 211.418L153.891 212.514C154.865 213.001 154.008 214.459 153.038 213.974M152.734 247.27C151.808 248.606 150.506 249.436 148.943 249.85C147.889 250.13 147.443 248.498 148.494 248.22C149.611 247.923 150.604 247.384 151.275 246.417C151.891 245.528 153.355 246.374 152.734 247.27M146.894 187.741C146.643 187.272 146.266 187.074 145.798 187.064C144.71 187.039 144.71 185.348 145.798 185.373C146.865 185.397 147.843 185.933 148.353 186.887C148.866 187.847 147.407 188.701 146.894 187.741M136.174 199.233C135.871 199.563 135.283 199.555 134.979 199.233C134.792 199.036 134.635 198.816 134.512 198.575C134.465 198.484 134.421 198.39 134.369 198.302C134.346 198.262 134.321 198.223 134.295 198.185C134.286 198.177 134.267 198.158 134.248 198.138C133.924 197.794 133.932 197.287 134.248 196.942C134.551 196.612 135.139 196.62 135.444 196.942C135.63 197.139 135.787 197.359 135.91 197.6C135.957 197.692 136.001 197.785 136.053 197.874C136.076 197.914 136.102 197.953 136.128 197.991C136.137 197.999 136.155 198.018 136.174 198.038C136.499 198.381 136.49 198.888 136.174 199.233M135.273 224.2C134.172 224.704 132.965 224.704 131.864 224.2C131.447 224.009 131.348 223.407 131.561 223.043C131.807 222.622 132.302 222.55 132.717 222.74C133.216 222.968 133.921 222.968 134.42 222.74C134.836 222.549 135.326 222.617 135.576 223.043C135.79 223.409 135.688 224.01 135.273 224.2M132.27 241.872C132.081 242.32 131.673 242.558 131.195 242.576C130.722 242.594 130.37 242.174 130.35 241.731C130.338 241.444 130.492 241.199 130.715 241.047C130.715 241.032 130.715 241.016 130.715 241C130.716 240.526 131.103 240.175 131.561 240.155C132.017 240.134 132.406 240.558 132.406 241C132.405 241.299 132.387 241.595 132.27 241.872M127.91 269.967C126.561 269.989 125.243 270.31 123.894 270.332C122.804 270.35 122.808 268.659 123.894 268.641C125.243 268.619 126.561 268.298 127.91 268.276C129 268.258 128.996 269.949 127.91 269.967M122.301 161.616C121.511 162.369 120.536 162.739 119.574 163.21C118.6 163.686 117.744 162.227 118.721 161.75C119.536 161.351 120.438 161.057 121.106 160.421C121.894 159.67 123.09 160.864 122.301 161.616M120.182 181.105C119.628 180.828 119.05 180.512 118.418 180.49C117.331 180.452 117.33 178.761 118.418 178.799C119.367 178.832 120.2 179.228 121.035 179.645C122.009 180.132 121.152 181.589 120.182 181.105M110.022 259.322C109.771 258.854 109.394 258.656 108.926 258.645C107.838 258.621 107.838 256.93 108.926 256.955C109.993 256.979 110.971 257.515 111.481 258.469C111.994 259.429 110.535 260.282 110.022 259.322M106.503 222.607C106.167 222.298 106.19 221.724 106.503 221.411C106.868 221.046 107.233 220.681 107.599 220.316C107.932 219.982 108.456 220.006 108.793 220.316C109.13 220.625 109.106 221.198 108.793 221.511C108.428 221.877 108.063 222.242 107.698 222.607C107.364 222.941 106.841 222.917 106.503 222.607M102.355 279.828C101.135 279.799 99.9925 279.449 98.8445 279.067C97.8158 278.725 98.2595 277.092 99.2938 277.437C100.292 277.769 101.294 278.112 102.355 278.137C103.443 278.162 103.443 279.853 102.355 279.828M96.8786 243.672C95.7771 243.641 94.8634 243.08 94.0907 242.328C93.3093 241.568 94.5057 240.374 95.2859 241.133C95.7281 241.563 96.2383 241.963 96.8786 241.981C97.966 242.011 97.9669 243.702 96.8786 243.672M100.279 197.175C100.293 197.625 100.483 198.107 100.762 198.403C101.509 199.194 100.315 200.391 99.5668 199.599C98.9495 198.945 98.615 198.069 98.5891 197.175C98.5578 196.084 100.248 196.089 100.279 197.175M87.3874 160.35C87.0338 159.657 86.5703 158.845 85.8653 158.462C84.9078 157.942 85.7619 156.483 86.7184 157.002C87.6767 157.522 88.3624 158.548 88.8469 159.496C89.3412 160.465 87.8822 161.319 87.3874 160.35M85.1966 177.933C84.8045 177.922 84.4153 177.855 84.0372 177.753C83.8755 177.709 83.7158 177.658 83.554 177.614C83.4847 177.595 83.1904 177.559 83.3712 177.568C82.9136 177.544 82.5262 177.201 82.5262 176.723C82.5262 176.283 82.9149 175.853 83.3712 175.877C83.9985 175.911 84.5689 176.225 85.1966 176.243C86.2836 176.273 86.2844 177.964 85.1966 177.933M79.7205 204.959H77.8952C76.8059 204.959 76.8078 203.268 77.8952 203.268H79.7205C80.8098 203.268 80.8079 204.959 79.7205 204.959M77.5914 279.712C77.0379 279.989 76.3855 280.252 75.9372 280.676C75.1466 281.423 73.95 280.229 74.742 279.48C75.3131 278.94 76.0432 278.6 76.7385 278.252C77.1481 278.047 77.6518 278.14 77.8948 278.556C78.1143 278.931 77.9995 279.508 77.5914 279.712M73.5129 258.349C73.4421 258.329 73.3673 258.315 73.2957 258.306C73.0084 258.267 72.7077 258.28 72.4191 258.28C71.3298 258.28 71.3315 256.589 72.4191 256.589C73.2762 256.59 74.1682 256.602 74.8422 257.202C75.1842 257.507 75.151 258.089 74.8422 258.398C74.5062 258.734 73.9876 258.701 73.647 258.398C73.6829 258.43 73.5598 258.362 73.5129 258.349M72.4196 229.617C72.665 229.111 72.6688 228.781 72.6693 228.218C72.6701 227.128 74.3603 227.13 74.3594 228.218C74.359 229.035 74.2375 229.731 73.879 230.471C73.6789 230.883 73.0933 230.991 72.7229 230.774C72.3076 230.531 72.2207 230.028 72.4196 229.617M67.5327 189.955C66.5524 190.289 65.6774 190.761 64.8141 191.331C63.9029 191.932 63.0572 190.468 63.961 189.871C64.9462 189.221 65.9651 188.705 67.0834 188.325C68.1173 187.973 68.5569 189.607 67.5327 189.955M61.8321 161.499C61.1038 161.519 60.3522 161.799 59.7031 162.114C58.7277 162.588 57.8719 161.129 58.8503 160.654C59.7773 160.203 60.7916 159.837 61.8321 159.808C62.922 159.777 62.9174 161.468 61.8321 161.499M59.2766 237.463C58.9901 237.476 58.7453 237.321 58.5936 237.098C58.5777 237.098 58.5621 237.098 58.5465 237.098C58.0728 237.098 57.7221 236.711 57.7014 236.252C57.6809 235.796 58.1045 235.407 58.5465 235.407C58.8448 235.407 59.1407 235.425 59.4179 235.542C59.8656 235.731 60.1035 236.14 60.1217 236.618C60.1396 237.091 59.72 237.443 59.2766 237.463M55.1203 178.999C54.0824 179.338 53.6417 177.705 54.671 177.369C55.8792 176.974 57.1138 176.668 58.3219 176.273C59.3598 175.933 59.8005 177.567 58.771 177.903C57.5632 178.298 56.3284 178.604 55.1203 178.999M51.33 210.912C51.008 211.95 49.3772 211.505 49.7 210.463C50.0119 209.457 50.0343 208.445 50.0349 207.401C50.0355 206.311 51.7257 206.313 51.725 207.401C51.7244 208.59 51.6845 209.768 51.33 210.912M40.0299 249.136C39.9684 249.557 39.6346 249.861 39.1977 249.88C38.753 249.9 38.3366 249.477 38.3526 249.035C38.3837 248.184 39.0773 247.49 39.9279 247.459C40.4011 247.442 40.7531 247.86 40.7729 248.304C40.7924 248.736 40.4319 249.073 40.0299 249.136M34.3113 200.546C33.4183 200.845 32.464 201.129 31.7638 201.79C30.9726 202.537 29.776 201.343 30.5687 200.594C31.4919 199.722 32.6795 199.311 33.8622 198.916C34.8978 198.57 35.3379 200.204 34.3113 200.546M30.4356 233.392C30.1901 233.812 29.693 233.888 29.2795 233.695C28.7252 233.438 28.1131 233.446 27.5155 233.446C26.4264 233.445 26.4281 231.754 27.5155 231.755C28.4374 231.756 29.288 231.843 30.1326 232.235C30.5482 232.429 30.6494 233.027 30.4356 233.392M28.2456 273.254C27.7724 273.271 27.4204 272.853 27.4005 272.409C27.3811 271.977 27.7413 271.64 28.1438 271.577C28.205 271.156 28.5391 270.852 28.9757 270.833C29.4207 270.813 29.8371 271.236 29.8208 271.678C29.7898 272.529 29.0966 273.223 28.2456 273.254M182.223 279.647C181.936 278.613 181.279 277.779 180.782 276.849C180.616 276.535 180.558 276.34 180.468 276.111C180.345 276.356 180.107 276.541 179.75 276.541C179.063 276.541 178.261 276.497 177.62 276.791C177.204 276.982 176.714 276.914 176.464 276.487C176.25 276.121 176.353 275.521 176.768 275.331C177.711 274.898 178.726 274.85 179.75 274.85C180.003 274.85 180.194 274.943 180.329 275.083C180.72 269.723 180.711 264.359 180.341 258.996C179.946 253.264 179.037 247.646 178.086 241.988C177.626 239.245 177.028 236.474 177.144 233.68C177.26 230.905 178.45 228.318 177.607 225.535C177.269 224.419 176.69 223.396 176.314 222.293C175.91 221.105 175.946 219.932 176.13 218.702C176.508 216.197 177.136 213.722 176.132 211.277C175.689 210.193 174.97 209.225 174.624 208.105C174.193 206.712 174.252 205.171 174.18 203.728C174.034 200.815 173.996 197.884 173.755 194.978C173.648 193.676 173.413 192.442 172.879 191.247C172.365 190.098 171.603 189.052 171.263 187.832C170.925 186.632 170.895 185.366 170.713 184.138C170.523 182.84 170.225 181.561 169.824 180.314C168.273 175.487 165.432 171.15 162.075 167.39C158.506 163.394 154.241 160.384 149.713 157.579C147.333 156.105 144.952 154.63 142.573 153.155C142.522 153.432 142.346 153.686 142.007 153.799C141.114 154.098 140.16 154.381 139.459 155.043C138.668 155.789 137.472 154.596 138.264 153.847C139.091 153.066 140.13 152.655 141.188 152.294C140.104 151.61 139.008 150.902 137.785 150.508C136.714 150.161 135.134 150.463 134.265 149.677C133.583 149.058 133.367 147.91 133.106 147.069C132.778 146.025 132.495 144.924 132.079 143.909C131.796 143.216 131.384 142.55 130.864 142.013C130.636 141.134 130.217 140.331 129.478 139.843C127.543 138.562 125.166 139.834 124.315 141.66C123.611 141.658 122.87 141.813 122.185 141.855C120.778 141.944 119.369 141.984 117.96 141.98C115.203 141.971 112.444 141.792 109.71 141.426C104.821 140.771 100.078 139.45 95.2717 138.42C95.2443 138.357 95.2126 138.294 95.1746 138.23C94.1393 136.493 91.5598 136.787 89.9349 137.444C89.2379 137.725 88.5281 138.08 88.1288 138.74C87.7062 139.025 87.3407 139.372 87.0978 139.737C86.595 140.492 86.2062 142.013 85.1858 142.14C84.514 142.223 83.8316 142.094 83.1492 142.191C82.2957 142.309 81.5309 142.609 80.7429 142.952C74.7429 145.558 68.54 148.455 62.0286 149.466C60.5013 149.702 58.9464 149.948 57.6196 150.803C56.5422 151.499 55.7095 152.454 54.8203 153.361C53.9541 154.244 53.24 154.635 52.0041 154.794C50.5041 154.986 49.2048 155.4 48.1083 156.491C47.1978 157.398 46.6041 158.556 45.89 159.608C45.1631 160.682 44.0964 161.286 42.9893 161.91C40.3717 163.385 37.9337 165.167 35.8105 167.304C31.3379 171.81 28.6295 177.601 25.8999 183.244C22.9485 189.347 20.1893 195.525 18.2752 202.043C16.3992 208.443 15.2837 215.027 14.7682 221.671C14.2252 228.644 14.1492 235.644 13.6971 242.62C13.471 246.106 13.2999 249.595 13.1267 253.082C12.9576 256.527 12.7105 259.979 12.7504 263.428C12.8267 270.096 14.1595 276.785 16.49 283.028C17.071 284.582 17.7152 286.114 18.4018 287.623C19.0041 288.948 21.064 288.8 21.7105 287.623C21.8583 287.353 21.9745 287.074 22.0717 286.79C23.7619 286.805 25.4689 286.674 27.1485 286.831C30.1147 287.108 33.087 287.262 36.0617 287.446C41.9478 287.811 47.8443 288.054 53.7323 288.39C54.3036 288.423 54.8748 288.456 55.4459 288.49C51.2499 275.497 51.7941 261.451 51.1301 247.939C51.0767 246.85 52.7672 246.856 52.8203 247.939C53.487 261.509 52.9193 275.591 57.2636 288.605C58.9491 288.719 60.6323 288.858 62.3098 289.063C63.6659 289.225 65.0288 289.418 66.3978 289.35C67.9506 289.276 69.4675 288.921 70.9823 288.612C73.7351 288.052 76.3865 288.306 79.1499 288.65C82.1055 289.02 85.0717 289.225 88.0464 289.354C99.9576 289.876 111.949 290.352 123.856 289.555C126.738 289.363 129.613 289.092 132.476 288.724C135.425 288.346 138.343 287.71 141.29 287.348C144.195 286.993 146.865 287.968 149.737 288.147C152.664 288.331 155.671 287.72 158.572 287.37C159.518 287.255 160.465 287.143 161.413 287.032C160.193 278.668 159.499 270.241 158.826 261.817C158.739 260.731 160.43 260.74 160.516 261.817C161.184 270.175 161.862 278.54 163.08 286.838C168.103 286.253 173.131 285.662 178.101 284.751C179.517 284.493 180.924 284.073 181.771 282.809C182.398 281.872 182.525 280.725 182.223 279.647" fill="black"/>
<path fill-rule="evenodd" clip-rule="evenodd" d="M113.465 60.2715C145.197 61.2786 147.11 76.3884 147.11 101.728C147.11 127.068 130.65 143.036 124.588 145.824C118.527 148.612 102.567 160.588 88.1646 155.069C73.7617 149.55 77.9326 126.234 77.9326 116.215C77.9326 106.197 81.7338 59.2644 113.465 60.2715Z" fill="#FDC6A0"/>
<path fill-rule="evenodd" clip-rule="evenodd" d="M82.7954 100.485C89.3563 73.6655 101.334 60.5802 118.727 61.2295C144.817 62.2035 144.542 88.8624 142.905 86.4317C141.836 84.8436 134.349 79.2959 120.444 69.7885L119.584 69.2015L82.7954 100.485Z" fill="#9FD8E5"/>
<path fill-rule="evenodd" clip-rule="evenodd" d="M126.338 137.502C120.51 140.763 113.838 140.89 107.57 138.837C103.811 137.61 100.364 135.712 97.1387 133.442C94.3327 131.465 91.8281 129.274 89.3467 126.947C87.3039 122.43 85.4847 117.922 84.6327 113.008C83.8696 108.597 83.7684 104.017 84.6538 99.615C91.2022 94.215 97.7102 88.7706 104.21 83.3095C107.52 80.528 110.838 77.7616 114.196 75.0392C115.902 73.657 117.591 72.2536 119.29 70.865C119.57 70.6368 119.849 70.4085 120.129 70.1802C123.637 72.7545 127.398 74.9612 130.881 77.5775C132.704 78.9492 134.477 80.4096 136.166 81.9459C137.051 82.7514 137.916 83.582 138.759 84.4337C139.531 85.2117 140.275 86.3274 141.369 86.6214C141.519 86.6613 141.66 86.6698 141.793 86.6508C143.256 99.4924 144.295 113.359 138.028 125.021C135.293 130.109 131.416 134.657 126.338 137.502ZM88.4299 142.221C87.6275 141.484 88.8232 140.292 89.6223 141.025C94.6411 145.634 101.202 148.077 107.83 149.208C108.899 149.391 108.443 151.02 107.381 150.838C100.462 149.658 93.6612 147.025 88.4299 142.221ZM82.4075 149.292C81.4495 148.777 82.3023 147.318 83.2586 147.832C87.1687 149.935 91.4575 151.027 95.8076 151.765C96.8775 151.946 96.4211 153.575 95.3594 153.395C90.8615 152.632 86.4479 151.465 82.4075 149.292ZM98.3214 78.0617C101.566 75.1428 105.053 72.3654 108.736 70.0217C112.463 67.6504 116.534 66.2322 120.934 66.1984C120.626 66.4457 120.333 66.7204 120.036 66.976C119.206 67.6884 118.377 68.4049 117.548 69.1193C115.891 70.5501 114.23 71.9786 112.594 73.4329C109.373 76.2988 106.141 79.15 102.926 82.0222C96.7466 87.5427 90.7004 93.1834 84.7845 98.9873C84.8164 98.8457 84.8501 98.7041 84.8836 98.5627C86.8422 90.3621 92.1696 83.5968 98.3214 78.0617ZM123.755 66.5556C123.776 66.4922 123.791 66.4307 123.799 66.3717C132.243 67.475 139.295 73.7032 141.626 81.9038C141.424 82.1871 141.312 82.5231 141.354 82.8801C141.375 83.0599 141.397 83.2417 141.418 83.4213C141.129 83.1341 140.832 82.8655 140.579 82.6098C139.737 81.7559 138.875 80.9251 137.99 80.1156C136.179 78.461 134.298 76.9139 132.316 75.4703C128.87 72.9595 125.138 70.6516 121.029 69.4469C121.299 69.2249 121.569 69.003 121.841 68.7832C122.652 68.1215 123.405 67.5764 123.755 66.5556ZM138.892 57.7867C133.708 52.1077 126.529 47.9483 118.97 46.5027C111.751 45.1204 104.277 46.0314 97.4572 48.7176C83.1865 54.3395 71.9265 66.7016 66.6539 81.0267C63.5801 89.373 62.5723 98.5223 63.496 107.357C64.4149 116.151 67.0565 125.233 71.8633 132.715C72.3039 133.4 72.7867 134.057 73.2926 134.693C73.0671 137.275 72.2069 139.807 70.8534 142.01C70.7807 142.128 70.704 142.243 70.6281 142.36C69.2421 143.4 67.8045 144.376 66.4011 145.384C65.1848 146.258 63.9811 147.154 62.8373 148.121C61.7577 149.034 60.504 150.051 59.773 151.284C59.1741 152.293 58.9295 153.666 59.7471 154.629C60.7323 155.789 62.4016 155.38 63.7361 155.38C63.8503 155.38 63.9644 155.383 64.0785 155.384C64.4792 155.636 64.892 155.865 65.2919 156.077C69.3334 158.225 73.3896 160.349 77.45 162.462C85.5374 166.674 93.5908 171.056 101.844 174.934C105.669 176.732 109.763 178.305 114.047 178.299C118.065 178.292 121.697 176.692 124.834 174.26C128.41 171.489 131.4 167.97 134.3 164.521C135.46 163.14 136.596 161.744 137.711 160.327C139.853 159.611 141.978 159.402 143.888 160.784C145.421 161.894 147.441 160.385 147.477 158.719C147.489 158.128 147.464 157.544 147.401 156.969C147.017 153.418 145.284 150.206 143.332 147.226C142.265 145.596 141.142 143.996 140.011 142.411C139.746 142.037 139.484 141.663 139.231 141.282C143.77 134.583 147.371 127.154 149.585 119.391C151.91 111.222 152.701 102.751 152.182 94.2869C151.385 81.3142 147.835 67.5849 138.892 57.7867Z" fill="black"/>
<path fill-rule="evenodd" clip-rule="evenodd" d="M123.152 128.274C121.732 127.695 120.465 126.728 119.538 125.493C119.216 125.063 119.133 124.61 119.2 124.195C119.276 123.729 119.552 123.306 119.928 123.023C120.305 122.739 120.777 122.598 121.233 122.67C121.63 122.732 122.024 122.949 122.337 123.399L122.402 123.489C122.953 124.235 123.67 124.846 124.488 125.241C125.276 125.621 126.158 125.798 127.07 125.695C128.808 125.499 130.005 124.559 131.278 123.282C131.436 123.121 131.594 122.955 131.752 122.786C131.852 122.633 131.991 122.534 132.146 122.483C132.317 122.425 132.511 122.429 132.689 122.491C132.86 122.55 133.013 122.664 133.116 122.815C133.213 122.958 133.269 123.135 133.251 123.339C133.134 124.661 132.443 125.842 131.461 126.769C130.37 127.799 128.924 128.511 127.563 128.761C126.064 129.036 124.536 128.839 123.152 128.274V128.274ZM128.271 107.866C129.866 108.836 132.297 111.098 130.581 113.503C128.56 115.624 125.652 113.193 124.219 112.093C122.89 111.241 121.396 113.433 122.629 114.428C132.987 122.099 137.19 108.12 129.078 106.726C128.184 106.572 127.853 107.566 128.271 107.866ZM109.711 98.9429C109.887 96.7541 113.219 96.257 113.551 98.423C113.847 100.363 113.498 102.145 112.624 103.892C111.79 105.561 109.692 104.783 109.533 103.263C109.32 101.226 109.601 100.304 109.711 98.9429ZM135.076 97.9739C135.541 97.3652 136.212 96.9497 137.015 97.1845C139.526 97.9185 138.786 101.485 137.904 103.22C137.425 104.163 135.876 104.402 135.176 103.572C134.036 102.219 133.489 99.5157 134.94 98.1825C134.979 98.1136 135.023 98.044 135.076 97.9739ZM112.589 89.3654L112.986 89.2959C114.213 89.0836 115.738 88.8796 116.606 89.8665C117.067 90.3898 117.225 91.3624 116.606 91.8633C115.518 92.7446 114.314 92.4031 113.01 92.4777C111.935 92.5394 110.902 92.7174 109.867 93.0135C107.595 93.6629 105.744 94.8486 103.804 96.1505C103.55 96.3213 103.29 95.9956 103.411 95.7574C104.531 93.563 106.701 91.7604 108.875 90.6616C110.036 90.0751 111.305 89.5885 112.589 89.3654ZM132.787 88.3823L133.091 88.4445C136.395 89.1353 140.687 90.5153 142.251 93.7615C142.311 94.2205 142.248 94.3189 142.197 94.3832L142.18 94.4046C142.137 94.4595 142.104 94.5351 141.905 94.5976C141.85 94.5844 141.794 94.5705 141.737 94.5557C141.02 94.3677 140.453 94.1087 139.904 93.84L139.308 93.5465C138.617 93.2076 137.92 92.881 137.181 92.6399C135.605 92.1255 133.983 91.7631 132.337 91.5696C131.98 91.5277 131.636 91.4072 131.365 91.2006C131.108 91.0046 130.911 90.7332 130.821 90.3724C130.705 89.9056 130.739 89.5521 130.989 89.1309C131.177 88.8146 131.447 88.5953 131.756 88.4694C132.071 88.3411 132.43 88.3108 132.787 88.3823Z" fill="black"/>
<path fill-rule="evenodd" clip-rule="evenodd" d="M147.178 109.153C144.613 111.805 140.331 112.566 136.919 111.144C128.156 107.481 132.445 96.0578 139.203 92.99C140.047 92.7795 141.175 92.2801 142.203 92.1668C142.296 92.1211 142.498 92.2532 142.743 92.1283C150.195 92.9606 151.892 104.532 147.178 109.153M118.915 109.832C116.038 113.649 110.69 114.827 106.32 113.052C97.6872 109.651 100.749 99.5216 106.656 95.5503C119.132 90.8602 124.285 102.794 118.915 109.832M100.201 101.374C100.193 101.37 100.185 101.369 100.177 101.365C100.222 101.345 100.268 101.325 100.313 101.304C100.299 101.343 100.283 101.381 100.268 101.42C100.246 101.404 100.226 101.386 100.201 101.374M153.117 97.2481C152.413 97.2496 151.395 97.3654 150.812 97.8542C149.374 93.0031 144.067 88.5134 139.451 91.7872C135.816 92.9566 133.119 95.5501 131.586 98.9981C128.822 97.3533 124.476 98.0557 122.079 100.231C120.509 95.0418 116.646 93.2248 112.048 92.9566C107.029 92.1342 102.027 97.0103 100.466 100.922C99.168 100.774 97.2287 100.361 96.0078 101.162C88.0838 99.0834 74.2299 97.9373 72.619 99.0923C71.471 99.533 70.841 102.244 72.4445 102.39C73.8418 102.192 72.2814 100.404 73.6899 100.209C81.1948 99.7433 88.4804 101.255 95.9058 101.89C96.5687 102.782 98.7108 103.08 99.8535 102.722C98.0537 109.357 101.939 113.872 107.76 115.224C116.775 117.296 124.617 109.229 122.26 100.838C124.991 99.4791 128.131 99.5374 131.106 100.253C126.135 118.554 155.598 117.733 150.997 98.4813C154.059 100.005 154.724 97.5556 153.117 97.2481" fill="black"/>
</g>
<defs>
<clipPath id="clip0_2016_14175">
<rect width="200" height="267" fill="white"/>
</clipPath>
</defs>
</svg>
