<svg width="200" height="267" viewBox="0 0 200 267" fill="none" xmlns="http://www.w3.org/2000/svg">
<g clip-path="url(#clip0_2016_14179)">
<rect width="200" height="267" fill="white"/>
<path fill-rule="evenodd" clip-rule="evenodd" d="M150.479 181.122C148.644 180.468 146.876 179.712 145.265 178.6C140.62 175.142 137.592 169.938 134.731 165.007C130.7 157.835 127.829 150.193 125.844 142.221C124.991 138.796 124.701 134.824 122.764 131.788C118.371 125.429 105.49 126.253 98.6503 127.369C94.07 128.18 93.1233 133.308 92.083 137.102C91.2168 140.255 90.6498 143.443 90.1738 146.674C89.0414 147.419 87.763 148.024 86.5444 148.551C73.2644 152.625 70.9303 160.177 65.858 171.843C57.2908 188.8 34.044 195.439 30.5325 215.506C28.2701 228.755 34.7038 241.219 41.337 252.233C47.5144 264.263 56.1386 270.037 69.8729 267.195C82.7549 264.304 95.1352 259.468 107.791 255.731C113.92 254.224 120.04 250.302 126.488 251.669C139.773 254.654 153.423 256.058 167.039 255.67C186.155 256.444 186.152 238.089 184.19 223.875C182.816 201.755 171.663 187.551 150.479 181.122V181.122Z" fill="#FDC6A0"/>
<path fill-rule="evenodd" clip-rule="evenodd" d="M151.757 213.13C153.354 214.187 154.697 215.789 155.776 217.475C151.273 217.007 146.779 216.467 142.294 215.852C142.881 215.476 143.474 215.109 144.08 214.762C146.291 213.516 149.287 211.497 151.757 213.13ZM76.9498 226.445C76.1248 226.122 75.8056 224.863 75.4841 224.142C74.4759 221.88 73.5558 219.579 72.5986 217.295C76.2332 216.259 79.7677 215.109 83.5329 214.556C87.5815 213.963 91.6898 213.819 95.7757 213.953C104.052 214.223 112.251 215.576 120.388 217.027C128.515 218.476 136.642 219.868 144.826 220.961C152.844 222.031 160.888 222.815 168.947 223.503C170.512 223.636 173.123 224.2 174.382 222.967C175.379 221.991 175.411 220.19 174.164 219.397C173.387 218.902 172.261 218.895 171.373 218.781C170.255 218.637 169.133 218.541 168.008 218.466C167.55 218.436 167.091 218.408 166.633 218.38C170.313 216.992 174.156 216.236 178.145 216.447C178.371 217.818 179.387 219.228 179.943 220.359C180.915 222.333 181.672 224.331 182.169 226.477C183.208 230.964 183.253 235.62 182.96 240.196C182.69 244.011 182.111 248.232 179.119 250.934C176.854 252.98 173.659 253.737 170.694 253.975C167.248 254.252 163.749 253.957 160.333 253.495C155.54 252.846 150.725 251.989 146.027 250.84C136.928 248.615 128.206 245.075 120.159 240.274C116.234 237.934 112.49 235.3 108.512 233.049C104.458 230.754 100.145 228.973 95.6158 227.868C90.5472 226.631 85.2486 226.103 80.0392 226.408C79.1352 226.461 77.8291 226.789 76.9498 226.445ZM71.0762 224.148C71.6088 225.877 72.0163 227.851 73.1531 229.304C74.2792 230.744 75.978 231.252 77.7379 231.38C79.8598 231.534 82.0067 231.435 84.1334 231.514C88.495 231.676 92.7968 232.385 96.9664 233.685C100.852 234.897 104.459 236.787 107.934 238.883C111.146 240.822 114.265 242.904 117.479 244.837C116.624 245.229 115.778 245.653 114.928 246.023C113.144 246.798 111.35 247.545 109.547 248.274C105.993 249.711 102.423 251.114 98.8169 252.416C91.5455 255.043 84.1545 257.338 76.6746 259.293C73.1071 260.226 69.4889 261.315 65.7827 261.47C62.4962 261.607 59.452 260.678 56.8015 258.723C51.3039 254.669 46.93 248.817 43.3942 243.044C41.2936 239.614 39.4604 236.011 37.9441 232.285C37.1772 230.401 36.4817 228.488 35.8558 226.552C35.5621 225.643 35.2836 224.729 35.02 223.811C34.904 223.408 34.7929 223.003 34.6828 222.597C40.3044 220.881 45.9928 219.332 51.8147 218.472C54.9231 218.013 58.0729 217.78 61.2153 217.814C62.775 217.831 64.334 217.915 65.8855 218.076C66.7207 218.163 67.5524 218.274 68.3806 218.413C68.7229 218.469 69.0746 218.553 69.4274 218.615C69.9664 220.463 70.5098 222.309 71.0762 224.148ZM187.282 216.803C187.585 216.19 187.713 215.586 187.822 214.919C187.904 214.41 188.124 213.693 187.932 213.032C187.716 212.292 187.129 211.629 186.708 210.998C186.242 210.3 185.777 209.602 185.313 208.903C184.384 207.506 183.457 206.107 182.532 204.708C178.753 198.993 175 193.261 171.24 187.533C167.905 182.45 164.625 177.321 161.187 172.306C158.248 168.018 155.044 163.8 151.021 160.465C145.934 156.248 139.876 154.262 133.549 152.712C132.858 151.994 131.935 151.602 130.948 151.682C129.554 150.1 128.446 148.996 127.944 146.984C127.703 146.021 127.779 143.314 126.841 142.744C125.727 142.067 125.145 142.963 124.838 143.973C123.81 147.353 124.99 151.897 127.705 155.282C126.561 159.236 125.044 164.857 122.339 168.025C119.442 171.417 115.436 172.473 111.113 172.543C102.87 172.675 94.6357 169.61 88.3481 164.299C86.437 162.685 84.6622 160.881 83.0563 158.964C81.8519 157.525 80.4271 155.305 79.4848 153.627C79.4848 152.973 78.713 152.289 86.5708 151.761C94.4285 151.232 95.0244 140.469 95.1991 139.004C95.3411 137.815 95.9449 135.968 95.107 134.998C94.7515 134.586 94.0217 134.52 93.5709 134.8C92.7208 135.328 92.4415 136.679 92.1742 137.596C91.7998 138.88 90.576 146.854 88.2569 147.777C87.1712 148.209 85.926 148.217 84.7775 148.297C83.3593 148.396 81.9381 148.469 80.5255 148.634C80.0046 148.695 79.4362 148.863 78.9222 148.868C78.5878 148.872 78.2428 148.709 77.9196 148.595C76.8286 148.209 75.7384 148.498 74.6145 148.65C64.6773 149.986 54.4454 153.035 45.9693 158.521C38.4985 163.357 33.2352 170.311 29.7622 178.442C26.2186 186.74 24.1874 195.714 22.4853 204.547C21.915 207.507 21.4171 210.481 20.9893 213.464C20.5758 216.347 20.0586 219.295 19.9348 222.207C19.8858 223.359 20.1611 224.43 20.5847 225.482C21.0617 226.667 22.1893 227.134 23.2707 227.687C25.6448 228.902 28.1491 229.844 30.7293 230.511C32.3056 233.38 33.6322 236.361 34.6982 239.454C34.3027 240.238 34.2945 241.409 34.2184 242.171C34.0298 244.068 33.9491 245.975 33.9322 247.881C33.8981 251.701 34.1278 255.518 34.3078 259.332C34.4903 263.2 35.0971 278.464 35.196 280.328C35.2729 281.776 35.1693 283.801 35.9318 285.087C37.1035 287.062 39.9953 286.996 41.3348 285.394C74.6145 292.551 137.171 290.395 162.366 286.794C165.644 286.326 164.614 286.845 165.448 286.017C166.074 285.395 166.606 284.329 166.779 283.473C167.01 282.33 166.637 281.296 165.983 280.371C165.295 279.399 165.17 277.824 164.914 276.668C164.31 273.935 164.01 261.932 163.728 260.602C163.64 260.188 163.555 259.75 163.452 259.312C168.074 259.749 172.889 259.749 177.286 258.203C179.779 257.326 182.104 255.949 183.894 253.982C186.061 251.601 187.267 248.603 187.887 245.474C188.687 241.439 188.857 237.26 188.7 233.158C188.481 228.311 187.678 223.395 185.683 218.944C186.339 218.334 186.889 217.599 187.282 216.803Z" fill="black"/>
<path fill-rule="evenodd" clip-rule="evenodd" d="M83.9814 43.648C97.2662 42.921 109.036 39.179 118.387 47.5537C118.387 47.5537 133.515 36.2281 136.04 40.5416C137.731 43.432 135.385 47.3121 136.014 50.8787C140.115 57.8872 139.883 69.7499 140.115 72.5299C140.7 79.5369 144.381 105.904 144.381 112.166C144.381 115.362 141.752 123.732 140.115 128.39C136.472 138.758 129.517 144.042 118.111 144.042C106.706 144.042 88.0892 134.486 82.1187 126.001C81.5954 125.257 78.2117 127.426 74.6725 123.663C70.8383 119.586 68.7113 111.81 68.7113 107.175C68.7113 101.293 64.9193 97.2138 65.3604 89.6847C66.3454 72.8699 69.766 44.426 83.9814 43.648Z" fill="#FDC6A0"/>
<path fill-rule="evenodd" clip-rule="evenodd" d="M136.053 40.5009C137.744 43.3913 135.399 47.2714 136.027 50.838C137.61 53.5426 138.547 56.9699 139.115 60.3193L136.014 61.9692L134.867 62.1379C116.262 64.8877 104.388 67.3625 99.2441 69.5622C94.0479 71.7843 87.7418 79.5889 80.3258 92.9759L80.1007 93.3832L78.6312 103.374L71.8943 105.446L68.7233 106.952C68.6465 101.168 64.9371 97.0953 65.3736 89.644C66.3586 72.8292 69.7792 44.3853 83.9946 43.6073C97.2794 42.8803 109.049 39.1383 118.401 47.513C128.486 39.9626 134.37 37.6252 136.053 40.5009Z" fill="#9FD8E5"/>
<path fill-rule="evenodd" clip-rule="evenodd" d="M82.4973 24.0986C82.6702 24.088 82.8452 24.0965 83.0201 24.1136C83.212 24.122 83.4038 24.1409 83.5957 24.1791C84.5718 24.367 85.4425 24.8848 86.1171 25.614C86.1361 25.633 86.1508 25.6543 86.1677 25.6731C86.4839 25.912 86.777 26.1827 87.0405 26.4699C87.0869 26.4256 87.1312 26.3814 87.1797 26.337C87.3188 26.2142 87.4643 26.098 87.6161 25.9883C88.2513 25.4422 88.9964 25.0453 89.798 24.8194L89.9077 24.7897C89.9288 24.7834 89.9498 24.7791 89.9709 24.7749C90.5401 24.5849 91.1389 24.4877 91.7418 24.4896C92.4628 24.4663 93.186 24.5849 93.8606 24.8637C94.6596 25.1957 95.3553 25.7196 95.9393 26.3497C96.323 26.6625 96.6582 27.0068 97.0124 27.3853C97.7439 28.1692 98.3216 29.0865 98.6863 30.0969C98.7369 30.2385 98.7812 30.3841 98.8212 30.53C99.713 30.4266 100.609 30.3527 101.505 30.3165C102.511 30.2554 103.516 30.2341 104.524 30.2681C107.3 30.3588 110.016 30.8493 112.645 31.7476C113.172 31.9038 113.684 32.1024 114.177 32.3476C114.951 32.6562 115.683 33.0493 116.372 33.5248L116.959 33.874C117.254 34.0497 117.549 34.2278 117.835 34.4104C118.516 34.8481 119.161 35.3382 119.773 35.8666C120.418 36.3888 121.027 36.9574 121.607 37.5531C121.764 37.7144 121.916 37.8778 122.066 38.0422C123.403 38.7652 124.59 39.691 125.697 40.795C126.575 40.2887 127.484 39.8296 128.423 39.4215C129.39 39.0009 130.62 38.5676 131.634 38.2825C132.544 38.0268 133.445 37.8514 134.357 37.7222C134.773 37.6504 135.19 37.5933 135.61 37.5447L135.593 37.5512V37.5512C135.888 37.5193 136.181 37.4919 136.478 37.4665L136.47 37.4644V37.4644C136.596 37.454 136.725 37.4432 136.851 37.4348L137.159 37.4096V37.4096C137.252 37.4012 137.387 37.6187 137.395 37.6948L137.406 37.773V37.773C137.475 37.8514 137.539 37.938 137.583 37.9909C137.638 37.9864 137.693 37.9824 137.747 37.9801C137.912 37.9655 138.102 38.2591 138.199 38.3711L138.286 38.4744C138.386 38.5948 138.486 38.7335 138.502 38.8847C138.61 39.762 138.711 40.641 138.804 41.5202C138.839 42.1859 138.804 42.8454 138.694 43.4984C138.612 44.1325 138.527 44.7665 138.443 45.3985C138.308 45.8425 138.175 46.2864 138.043 46.73C137.99 46.8993 137.931 47.066 137.874 47.233C137.537 48.3481 137.141 49.4336 136.671 50.4855C137.014 50.8663 137.334 51.2611 137.632 51.6688C137.704 51.7421 137.775 51.8151 137.842 51.8911C137.861 51.8618 137.889 51.8343 137.918 51.8193C138.019 51.7749 138.093 51.8277 138.156 51.9146C138.82 52.5506 139.303 53.2926 139.603 54.1399L139.789 54.5818C139.82 54.6557 139.851 54.7297 139.881 54.8036C140.119 55.4463 140.303 56.1057 140.454 56.7733C140.59 57.2988 140.688 57.8314 140.75 58.3697C141.206 59.9026 141.566 61.4708 141.905 63.0179C141.959 63.2614 141.934 63.4786 141.856 63.6638L142.054 63.8578V63.8578L142.394 64.1966C142.964 64.7663 143.545 65.3653 143.969 66.0432C144.407 66.747 144.73 67.4994 145.088 68.2456L145.165 68.4042V68.4042L145.323 68.722C145.494 69.0691 145.576 69.2609 145.727 69.6805C145.978 70.3803 146.113 71.0839 146.176 71.8259C146.269 72.9057 146.256 74.0829 145.784 75.0868C145.782 75.0953 145.778 75.1018 145.773 75.108C145.558 76.0783 145.027 76.9784 144.22 77.5533C144.047 77.7163 143.861 77.8621 143.663 77.9781C143.187 78.2581 142.751 78.2831 142.232 78.1536L142.166 78.1366C142.101 78.1197 142.042 78.1049 141.985 78.0922C142.069 78.162 142.111 78.2446 141.985 78.3036C141.863 78.3628 141.753 78.3966 141.65 78.4093C141.694 78.4663 141.698 78.5276 141.605 78.5783C141.403 78.6861 141.239 78.7202 141.07 78.6904L141.105 78.9842C141.382 81.2076 141.629 81.6473 141.846 84.0356C141.989 86.4807 142.217 88.9197 142.531 91.3483L142.639 92.2308C142.986 95.0277 143.376 97.8451 143.973 100.597C144.274 101.799 144.534 103.01 144.753 104.23C145.063 105.158 145.28 106.107 145.4 107.075C145.575 108.06 145.695 109.053 145.765 110.055C146.007 110.695 146.125 111.346 146.119 112.01C146.151 112.902 146.121 113.792 146.026 114.677C145.974 115.598 145.847 116.511 145.647 117.416C145.468 118.657 145.141 119.855 144.673 121.018C144.298 122.315 143.838 123.588 143.315 124.832C142.504 126.76 141.523 128.55 140.408 130.315C139.362 131.97 138.241 133.563 136.959 135.045C135.302 136.96 133.413 138.714 131.343 140.193C130.162 141.068 128.916 141.855 127.613 142.527C126.019 143.351 124.4 144.093 122.674 144.594C121.596 144.906 120.5 145.122 119.391 145.287C117.213 145.61 114.958 145.562 112.767 145.183C111.355 144.993 109.965 144.663 108.652 144.192C107.572 143.803 106.544 143.357 105.515 142.854C104.986 142.598 104.475 142.303 103.986 141.971C103.164 141.436 102.395 140.832 101.678 140.164C101.444 139.963 101.216 139.758 100.993 139.542C100.885 139.447 100.944 139.306 101.069 139.272L101.107 139.268V139.268C101.058 139.223 101.007 139.179 100.959 139.132C100.948 139.124 100.94 139.114 100.932 139.103C100.908 139.082 100.883 139.061 100.862 139.04C100.78 138.967 100.862 138.807 100.934 138.769C100.961 138.754 100.997 138.752 101.037 138.756C101.029 138.748 101.022 138.741 101.014 138.735C101.005 138.729 101.003 138.712 101.005 138.695L100.974 138.67V138.67C100.866 138.574 100.921 138.435 101.048 138.399C101.109 138.38 101.211 138.39 101.317 138.413L101.357 138.422L101.286 138.355C101.159 138.245 101.199 138.122 101.355 138.084C101.472 138.091 101.587 138.107 101.7 138.135L101.785 138.158C101.828 138.169 101.868 138.181 101.91 138.194C101.838 138.128 101.766 138.065 101.697 137.999C101.627 137.938 101.701 137.763 101.764 137.727C101.851 137.678 102.019 137.746 102.097 137.803C102.289 137.824 102.542 137.909 102.635 137.989C102.89 138.234 103.154 138.469 103.421 138.697C103.584 138.748 103.738 138.815 103.856 138.917C104.159 139.208 104.475 139.483 104.798 139.749L105.043 139.919C105.084 139.947 105.126 139.974 105.167 140.001C105.631 140.274 106.095 140.544 106.556 140.817C108.249 141.392 109.942 141.967 111.633 142.539L111.856 142.607V142.607L113.499 142.81V142.81C114.578 142.924 115.66 142.918 116.739 142.793C117.549 142.804 118.352 142.723 119.142 142.558C120.485 142.33 121.803 141.994 123.085 141.525C124.56 140.986 125.967 140.276 127.339 139.511C127.832 139.234 128.317 138.94 128.794 138.63C128.948 138.52 129.102 138.407 129.255 138.293C130.27 137.53 131.239 136.717 132.173 135.856C132.612 135.453 133.033 135.032 133.44 134.597C133.499 134.533 133.556 134.472 133.613 134.409C134.003 133.982 134.381 133.54 134.741 133.083L135.085 132.695V132.695C136.472 130.964 137.705 129.102 138.814 127.185C139.915 125.285 140.821 123.285 141.542 121.216C141.774 120.479 141.976 119.731 142.145 118.974C142.457 118.065 142.662 117.133 142.757 116.182C142.788 115.996 142.813 115.81 142.839 115.624L142.853 115.331C142.855 115.282 142.857 115.233 142.858 115.184C142.9 114.889 142.936 114.592 142.963 114.297C142.98 113.999 142.991 113.701 142.993 113.403L142.969 111.574V111.574C142.963 111.517 142.957 111.458 142.953 111.399L142.906 110.995C142.805 110.163 142.727 109.328 142.626 108.495C142.626 108.491 142.626 108.484 142.624 108.478C142.586 108.167 142.546 107.855 142.499 107.542C142.476 107.356 142.447 107.17 142.419 106.984L142.366 106.659V106.659C142.269 106.093 142.15 105.531 142.006 104.975L141.943 104.737L141.576 102.888L141.163 101.068C140.895 99.8486 140.671 98.6207 140.494 97.3822C140.174 95.4084 139.9 93.432 139.662 91.4475C139.649 91.3524 139.636 91.2551 139.626 91.16C139.383 89.3194 139.208 87.472 139.095 85.6184C138.941 83.7926 138.852 81.9621 138.829 80.1299C138.827 80.0472 138.882 79.9798 138.947 79.9416L138.941 79.5893C138.933 79.2776 138.928 79.6515 138.925 79.2962L138.921 78.3189C138.921 78.2375 138.922 78.1808 138.924 78.1768C137.797 78.2549 137.04 78.1909 135.952 78.1334L135.768 78.1239C134.771 78.0777 133.78 77.9678 132.795 77.8027C132.791 77.8536 132.757 77.8893 132.7 77.8999C132.599 77.9041 132.504 77.9041 132.407 77.9065L132.443 78.0436V78.0436C132.445 78.1136 132.414 78.1578 132.346 78.1768L132.065 78.1894C131.689 78.2053 131.313 78.2127 130.94 78.162C130.605 78.1178 130.278 78.0394 129.953 77.9464C129.753 77.9126 129.549 77.8663 129.34 77.8069C128.804 77.6526 128.273 77.4455 127.735 77.2809C127.187 77.1644 126.631 77.1266 126.049 77.2659C125.433 77.4117 124.913 77.6759 124.267 77.5153C124.139 77.4838 124.014 77.4352 123.89 77.3842L123.775 77.3762C123.755 77.3745 123.735 77.3723 123.715 77.3694C123.043 77.2724 122.444 76.8455 121.803 76.617C121.579 76.5624 121.357 76.5762 121.14 76.6669L121.086 76.6912L120.873 76.8497C120.787 76.951 120.703 77.0534 120.619 77.156L120.494 77.3102C120.264 77.5956 120.019 77.8513 119.722 78.0373C119.364 78.3691 118.938 78.5636 118.43 78.5762C118.141 78.5847 117.854 78.5234 117.576 78.4348C116.526 78.7603 115.402 78.8258 114.355 78.5088C113.939 78.4452 113.532 78.3334 113.142 78.1578C112.959 78.0753 112.776 77.9781 112.598 77.8703C111.858 78.1833 111.159 78.5995 110.444 78.959L110.283 79.04C109.553 79.4047 108.745 79.7603 107.918 79.7072C106.877 79.6393 105.854 79.5 104.834 79.3244C104.825 79.3244 104.815 79.3223 104.806 79.3202L104.666 79.2968V79.2968L104.156 79.207V79.207L103.744 79.1302V79.1302L103.534 79.211C101.844 79.8519 99.9922 80.3519 98.2942 79.9035C97.5542 79.8128 96.8606 79.5632 96.2345 79.1384C96.2134 79.1236 96.1923 79.1088 96.1712 79.0919C96.0721 79.0412 95.9794 78.9844 95.8971 78.9231L95.8795 78.9092V78.9092L95.8634 78.8954L95.855 78.8911C94.9295 78.4644 94.3982 77.5554 94.491 76.5369C94.434 76.2133 94.4361 75.8963 94.4994 75.5584C94.1979 75.9153 93.8901 76.2685 93.5781 76.6191C92.4368 77.9968 91.3191 79.4021 90.2842 80.8649L90.0468 81.2035C89.4776 82.0086 88.9484 82.8415 88.4593 83.6994C87.9639 84.5469 87.4558 85.3862 86.9309 86.2146C86.2483 86.9708 85.5884 87.7451 84.9525 88.5384L84.6814 88.8796L83.7664 90.0864C83.1192 90.8559 82.5816 91.6971 82.1579 92.6099C81.81 93.259 81.4896 93.9205 81.2007 94.5989C81.108 94.8037 81.0194 95.0108 80.933 95.218C80.6357 96.0274 80.3849 96.8519 80.1888 97.7034C80.0313 98.3197 79.9182 98.9446 79.8511 99.5782L79.8304 99.7897C79.8051 100.039 79.7861 100.288 79.7756 100.538C79.8367 100.574 79.8873 100.61 79.9253 100.645L80.0792 100.701V100.701L80.2036 100.738C80.3976 100.798 80.7326 100.923 80.6526 101.077L80.2457 101.855V101.855C80.2879 101.899 80.3069 101.945 80.2794 101.996C80.0075 102.518 79.7334 103.04 79.4594 103.562C79.4509 103.581 79.4362 103.596 79.4214 103.607C79.6554 103.714 79.8831 103.833 80.1003 103.962C80.524 104.215 80.836 104.509 81.1248 104.851C81.4284 105.033 81.7151 105.232 81.985 105.46C82.3181 105.811 82.609 106.196 82.8557 106.612C83.0834 107.005 83.2689 107.415 83.4123 107.844C83.4755 108.07 83.505 108.305 83.5029 108.544C83.2478 110.349 81.1881 109.112 81.148 108.954C80.8655 107.863 80.5409 107.174 79.8114 106.363L79.7924 106.35V106.35C79.3708 106.164 78.9534 105.98 78.517 105.836C78.4516 105.849 78.3842 105.858 78.3167 105.868C78.3926 105.976 78.3546 106.082 78.2007 106.1C77.5367 106.232 76.8662 106.267 76.1916 106.21L75.167 106.065V106.065C74.742 106.228 74.3358 106.438 73.9529 106.688L73.8262 106.772L73.803 106.789C72.8142 107.586 72.0511 108.645 71.5282 109.799C71.4819 109.902 71.4373 110.006 71.3947 110.11L71.3322 110.268L71.328 110.277C70.6449 112.967 71.2542 115.922 72.5022 118.363C73.1832 119.456 73.8937 120.527 74.6357 121.578L75.3568 122.523V122.523C75.7826 122.924 76.2 123.336 76.6069 123.759C76.6702 123.822 76.7376 123.886 76.8051 123.947C77.0201 124.088 77.2394 124.213 77.4629 124.319C77.5493 124.348 77.6379 124.376 77.7264 124.399C78.1565 124.606 78.6076 124.716 79.082 124.729C79.7085 124.771 80.3165 124.697 80.9043 124.51L81.0215 124.471L81.108 124.439C81.4284 124.234 81.7257 123.979 82.0082 123.678C82.0714 123.613 82.1895 123.613 82.3244 123.649C82.3982 123.573 82.472 123.492 82.5416 123.406C82.5901 123.353 82.666 123.351 82.725 123.391C82.9253 123.368 83.4671 123.676 83.3258 123.839C83.3026 123.877 83.2731 123.911 83.2478 123.947C83.3427 123.995 83.4376 124.05 83.5219 124.108C83.9646 124.231 84.6186 124.674 84.5654 124.807L84.5591 124.818C84.4567 125.012 84.3235 125.175 84.1595 125.304L84.1038 125.346L83.9794 125.433C84.1544 125.543 84.3019 125.669 84.2281 125.758C84.1944 125.824 84.1586 125.887 84.1164 125.944C84.4748 126.388 84.8311 126.836 85.1853 127.284C85.5395 128.054 85.978 128.772 86.5008 129.438C86.9372 130.161 87.4622 130.81 88.0756 131.388C88.1262 131.439 88.1789 131.488 88.2295 131.537C88.6815 131.871 89.1544 132.185 89.6469 132.486L89.8592 132.614C89.9709 132.682 90.1586 132.766 90.07 132.929C90.0595 132.95 90.0468 132.967 90.0321 132.98C90.342 133.183 90.6624 133.375 90.9934 133.553L91.0248 133.572C91.1499 133.652 91.3194 133.798 91.141 133.916C90.9892 134.018 90.5865 133.743 90.3968 133.616C90.361 133.616 90.3188 133.606 90.2766 133.593C90.3399 133.627 90.4022 133.663 90.4654 133.699L90.5612 133.752C90.635 133.796 90.9976 134.037 90.7446 134.138C90.6203 134.149 90.5064 134.117 90.401 134.045C90.2766 133.984 90.1543 133.919 90.0342 133.851C90.0763 133.916 90.0763 133.982 89.9709 134.024C89.9351 134.026 89.8993 134.024 89.8634 134.02C90.1122 134.178 90.3673 134.326 90.6308 134.466L90.6734 134.492C90.7848 134.565 90.9623 134.702 90.8332 134.821C90.6877 134.952 90.2872 134.673 90.1839 134.61L89.8761 134.426V134.426C89.8529 134.436 89.8276 134.44 89.8002 134.443C89.8929 134.5 89.9794 134.561 90.0742 134.616L90.2033 134.686C90.365 134.776 90.5934 134.923 90.5106 135.07C90.4279 135.216 90.182 135.096 90.0232 135.002L89.8524 134.895C89.8449 134.891 89.8374 134.886 89.8297 134.882L89.8231 134.907C89.8217 134.912 89.8198 134.916 89.817 134.92C89.738 135.058 89.5391 134.968 89.402 134.888L89.2921 134.821C89.1052 134.708 88.9201 134.596 88.7363 134.484L88.4614 134.314H88.4572C87.5064 133.741 86.6273 133.17 85.7988 132.435C85.3033 131.995 84.8416 131.53 84.4031 131.033C83.5219 130.038 82.8662 128.899 82.2338 127.737C82.2232 127.717 82.238 127.669 82.2633 127.616C82.1937 127.472 82.1262 127.326 82.0588 127.176C81.4095 127.358 80.6842 127.411 80.0159 127.367C79.6575 127.343 79.3033 127.28 78.9513 127.185C77.8276 127.028 76.744 126.515 75.8079 125.9C75.7489 125.862 75.6962 125.819 75.6414 125.782C75.2556 125.564 74.8887 125.31 74.5409 125.02C73.862 124.458 73.2148 123.833 72.6266 123.18C72.2008 122.673 71.7981 122.146 71.4207 121.601C71.037 121.062 70.6491 120.523 70.2612 119.984C69.1839 118.293 68.4945 116.347 68.2268 114.358C68.0961 113.625 68.0286 112.883 68.0433 112.143C68.0539 111.608 68.1129 111.067 68.2162 110.528C68.1551 110.469 68.0939 110.41 68.0328 110.349C67.9991 110.408 67.9653 110.45 67.9443 110.429L67.4611 109.944C67.1183 109.597 66.8883 109.342 66.4938 108.782C65.8656 107.888 65.3975 106.906 65.0497 105.87C64.7988 105.13 64.6322 104.289 64.5669 103.476C64.5458 103.34 64.5247 103.203 64.5079 103.063C64.3729 101.962 64.4973 100.908 64.6639 99.8212C64.6744 99.7495 64.7103 99.7051 64.7587 99.6817C64.771 99.5957 64.7855 99.5073 64.7999 99.4192C63.4034 97.9372 62.3984 96.1511 62.4804 93.994C62.5061 93.3143 62.6453 92.6443 62.9109 92.0187L62.9431 91.9482V91.9482C61.7775 91.7685 60.8528 90.9476 60.1582 89.9302C60.0966 89.8814 60.037 89.8321 59.9796 89.7831C58.7375 88.7196 57.8762 87.2137 57.2866 85.6231C56.8643 84.6995 56.5845 83.7125 56.4659 82.6887C56.4574 82.6156 56.4524 82.5431 56.4458 82.4704C56.1574 80.8516 56.0841 79.2166 56.2173 77.6059C55.9278 76.609 55.6923 75.5945 55.5311 74.5564C55.4552 74.062 55.4025 73.5672 55.3624 73.0727L55.3582 73.0454L55.3519 72.9564L55.3341 72.7346C55.3313 72.6979 55.3287 72.6612 55.3266 72.6246C54.9703 68.0975 55.9801 63.6422 57.6498 59.449C57.7953 59.0719 57.9455 58.6958 58.1005 58.3226L58.2648 57.9328V57.9328C59.9408 55.2233 62.4576 53.0318 64.5892 50.7173C65.3248 49.9188 64.1351 48.7201 63.3968 49.5217C61.9805 51.0595 60.4611 52.5324 59.0893 54.1131C58.8471 54.1308 58.6044 54.1374 58.3624 54.1253C57.9408 54.104 57.5318 54.0366 57.1354 53.9286C56.1467 53.7827 55.2465 53.3833 54.4285 52.7957C53.3343 52.2845 52.4004 51.3205 52.3076 50.063C52.2971 49.9362 52.2992 49.8115 52.3076 49.687C52.2064 49.0717 52.2971 48.4273 52.5543 47.8332C52.5985 47.6705 52.6555 47.5099 52.7271 47.3513C52.9358 46.88 53.2795 46.428 53.699 46.1213C53.7096 46.1149 53.718 46.1109 53.7264 46.1044C53.7707 46.0581 53.8129 46.0114 53.8614 45.9693C53.933 45.9036 54.0089 45.8425 54.089 45.7855C53.8044 45.316 53.5472 44.8344 53.328 44.3206C53.0897 43.7626 52.9675 43.1964 52.9 42.5981C52.8726 42.3614 52.8621 42.1268 52.8578 41.8924C52.8452 41.7844 52.8368 41.6745 52.8283 41.5646C52.7756 40.7276 52.8726 39.8592 53.1846 39.077C53.2078 39.018 53.2373 38.9586 53.2647 38.8973C53.3238 38.7198 53.3891 38.5425 53.4692 38.369C53.7812 37.7032 54.224 37.1389 54.77 36.676C55.0651 36.378 55.3961 36.1139 55.7566 35.8898C55.9696 35.7567 56.212 35.6383 56.4671 35.5411C56.9225 35.3002 57.5065 35.0803 57.9808 35.0637C58.0377 35.0613 58.0883 35.0679 58.1431 35.0679C58.1874 33.8545 58.3434 32.5336 58.822 31.4346C59.1003 30.638 59.5177 29.93 60.146 29.4204C60.5103 29.0391 60.9593 28.7295 61.5196 28.5272L61.6196 28.4926L61.6576 28.482C62.1614 28.2368 62.7053 28.1396 63.264 28.1419C63.9155 28.1079 64.5795 28.2307 65.1467 28.5306C65.2647 28.594 65.3912 28.6722 65.5114 28.7567C65.602 28.575 65.7032 28.3911 65.8192 28.2074C66.2261 27.5542 66.7173 26.9856 67.2865 26.4678C67.354 26.4065 67.4277 26.3516 67.4994 26.2926C67.7756 26.0411 68.0686 25.8086 68.3722 25.5973C69.0279 25.1405 69.7468 24.8005 70.5015 24.5805C71.3729 24.2577 72.2923 24.1078 73.212 24.1393L73.4024 24.1474V24.1474C73.4446 24.1514 73.4868 24.1535 73.5268 24.1557C74.4397 24.215 75.3399 24.4391 76.2 24.777C77.0918 25.1302 77.8466 25.6647 78.5486 26.2776C78.713 26.0496 78.9007 25.8338 79.1305 25.6309C79.1958 25.574 79.2654 25.5231 79.3307 25.4703C79.3813 25.4195 79.4341 25.3709 79.4889 25.3223C79.7397 25.1004 80.0054 24.9081 80.2963 24.7369C80.6231 24.5447 80.9752 24.4116 81.3399 24.3292C81.7109 24.2021 82.1009 24.124 82.4973 24.0986ZM78.1649 111.228C78.2023 111.226 80.1548 111.96 81.1277 112.434L81.1755 112.458C82.297 113.016 82.8367 113.417 83.8445 114.134C83.9119 114.182 83.9815 114.256 83.9815 114.328C83.9815 115.372 83.7286 116.648 82.8536 116.082C82.7271 116.001 82.5997 115.921 82.4713 115.842L82.2781 115.725L82.2717 115.727C82.2738 115.727 82.276 115.725 82.2781 115.723C80.3722 114.559 78.3589 113.646 76.2338 112.993C76.0883 112.94 77.1656 111.308 77.4629 111.399C77.2921 111.331 78.1365 111.229 78.1649 111.228ZM98.1894 65.1354C96.9222 65.2713 95.6549 65.4051 94.3877 65.5359C93.5802 65.6289 92.7706 65.7113 91.9611 65.7811C90.7446 65.8722 89.5282 65.8868 88.316 65.7198C87.8859 65.6608 87.4643 65.5761 87.0468 65.4725C86.7622 65.6818 86.4671 65.8783 86.1656 66.0666L82.8177 68.6343V68.6343C80.5725 70.4035 78.3757 72.278 76.3982 74.3471C72.9445 77.962 70.1315 82.1912 68.363 86.8757C68.2025 86.9706 68.0786 87.1361 68.0372 87.39C67.7248 89.3101 66.8111 91.0613 66.4809 92.9736C66.1559 94.8572 66.5883 96.4584 67.7684 97.9513C68.0204 98.2703 68.5365 98.2534 68.8531 98.038C68.9267 98.183 69.2455 98.1769 69.3574 97.5365C69.8821 96.9669 70.331 96.3698 70.635 95.6305C70.8589 95.0861 70.4826 94.7086 70.0259 94.6344C70.2157 93.9496 70.4296 93.271 70.6702 92.5995C71.3828 90.6042 72.2893 88.698 73.4298 86.91C74.4334 85.3373 75.595 83.9678 76.8431 82.594C76.8578 82.575 76.8831 82.5689 76.9105 82.5646L77.1698 82.277V82.277C77.2057 82.2368 77.2795 82.241 77.3617 82.2622C77.4397 82.1798 77.5156 82.0952 77.5957 82.0128C77.6737 81.9282 77.7601 81.9536 77.8086 82.0212C77.9414 81.9917 78.1839 82.1354 78.2577 82.1821C78.3842 82.2664 78.4242 82.3615 78.3167 82.482C78.2977 82.5033 78.2787 82.5245 78.2598 82.5433C78.4052 82.6048 78.5486 82.687 78.6603 82.7675C79.0504 82.854 79.5985 83.2175 79.5036 83.3255C79.3033 83.5345 79.1094 83.7482 78.9175 83.9657C79.0862 84.0842 79.1958 84.2003 79.1516 84.2512C78.3293 85.1196 77.5704 86.0392 76.8747 87.0133C76.3455 87.7404 75.8669 88.497 75.439 89.2853C74.8023 90.4013 74.2626 91.5489 73.784 92.7282C73.7166 92.9081 73.6512 93.0875 73.588 93.2672C72.888 95.2306 72.3652 97.268 72.1438 99.3435L72.1346 99.4835C72.0933 100.231 72.0772 102.233 72.0005 102.71C72.4664 102.941 72.9513 103.137 73.4551 103.298C73.55 103.326 73.647 103.351 73.744 103.374C73.7988 103.351 73.8557 103.332 73.9126 103.315C74.3764 103.127 74.8613 102.991 75.3568 102.926C75.6906 102.882 76.0229 102.866 76.355 102.876L76.4973 102.882C76.6449 102.886 76.7903 102.896 76.9379 102.911C76.9295 102.827 76.9253 102.744 76.9189 102.66C76.8768 102.632 76.8452 102.594 76.8431 102.543C76.744 101.592 76.7419 100.641 76.8367 99.6901C76.9 99.1934 76.9738 98.6989 77.0539 98.2045C77.1361 97.7985 77.231 97.3993 77.3343 96.9996C77.6083 95.8797 77.9731 94.7868 78.4158 93.7176C79.6765 90.6676 81.4832 87.9179 83.3005 85.183C84.6266 83.186 85.881 81.1441 87.2534 79.1807C88.4214 77.5089 89.6484 75.8625 90.9576 74.2985C92.2647 72.7368 93.6456 71.2339 95.1361 69.8435C95.3764 69.6213 95.6189 69.4057 95.8655 69.1925C97.278 67.9244 98.8128 66.8822 100.411 65.8595C100.472 65.8193 100.582 65.8637 100.672 65.9396L100.93 65.7807C100.973 65.7543 101.017 65.7283 101.06 65.7029C101.1 65.6777 101.144 65.7198 101.168 65.7557C101.277 65.6987 101.387 65.6439 101.497 65.5888C101.576 65.5241 101.659 65.4628 101.739 65.399C100.554 65.3392 99.3711 65.2504 98.1894 65.1354ZM113.052 51.0457C112.095 50.8536 111.133 50.8259 110.168 50.9697C109.763 51.0291 109.36 51.1005 108.961 51.1869C109.868 51.9795 110.597 52.9938 111.07 54.1611C111.582 55.4228 109.542 55.9666 109.037 54.723C108.551 53.5234 107.63 52.6032 106.518 52.0516C106.278 52.1862 106.045 52.332 105.823 52.4935C105.532 52.7302 105.258 52.9859 105 53.267C104.44 53.8781 103.925 54.6937 103.588 55.501C103.457 55.9406 103.36 56.3929 103.299 56.8579C103.286 56.9636 103.274 57.0713 103.263 57.1791C103.055 59.3664 103.679 61.4945 104.752 63.3776L104.795 63.3782V63.3782C105.753 62.8575 106.756 62.4187 107.787 62.0613C108.614 61.5036 109.472 60.9877 110.355 60.5206C112.233 59.5274 114.217 58.7617 116.26 58.2382L116.497 58.1788C116.978 58.0555 117.464 57.9469 117.951 57.8519L118.244 57.7965H118.248L118.217 57.4814V57.4814C118.052 56.245 117.57 55.0973 116.946 54.0366C116.478 53.2355 115.771 52.4155 114.987 51.7603L114.983 51.758C114.627 51.5551 114.252 51.3873 113.867 51.2486L113.722 51.1979L113.052 51.0457ZM87.3525 49.1671C85.3624 48.9787 83.3722 48.9978 81.382 49.1605C80.0813 49.2896 78.7889 49.4691 77.5029 49.6973C76.6322 49.8474 75.7784 50.0587 74.9393 50.321L75.4193 51.294C76.2214 52.9144 77.043 54.5242 78.011 56.0547C78.5107 56.8431 79.0525 57.5936 79.6428 58.3141C80.0412 58.8298 80.4797 59.3076 80.9604 59.747C81.0869 59.9015 81.2218 60.0474 81.3589 60.1888C81.7974 60.565 82.2696 60.8947 82.7861 61.1673C83.2003 61.4698 83.6327 61.734 84.0835 61.9656L84.2534 62.051L85.8346 62.6594C85.9189 62.6834 86.0042 62.7074 86.0898 62.7301L86.2183 62.7632L86.4586 62.8137L86.639 62.7156C86.6692 62.6994 86.6997 62.6834 86.7306 62.6679C86.7812 62.6406 86.817 62.6935 86.8276 62.7313C86.8318 62.7463 86.8255 62.7672 86.8149 62.7884L87.0454 62.6635V62.6635C87.4415 62.8247 87.8619 62.9536 88.3128 63.0386C88.5169 63.0769 88.7214 63.1062 88.9261 63.1314L88.9535 63.1498C88.9581 63.153 88.9627 63.1565 88.9674 63.1606H89.1913V63.1606C90.7674 63.3129 92.3659 63.1115 93.9394 62.8281C96.1661 62.6036 98.3924 62.3562 100.617 62.1247C100.66 62.1207 100.676 62.1395 100.676 62.1693L100.814 62.1566V62.1566C101.012 62.1353 101.244 62.4671 101.094 62.5878C101.214 62.6594 101.33 62.7632 101.416 62.8435L101.467 62.8391C101.161 62.2389 100.925 61.6111 100.757 60.9583L100.542 59.8633V59.8633C100.483 59.4554 100.449 59.0202 100.442 58.591C100.428 58.3944 100.417 58.2107 100.417 58.0499C100.417 57.8977 100.419 57.7456 100.426 57.5936C100.006 57.4201 99.5802 57.2681 99.1459 57.139C97.9126 56.987 96.6814 56.8346 95.4481 56.6846C94.7081 56.712 93.9681 56.7649 93.2302 56.8473C92.3933 56.9213 91.5584 57.0164 90.7257 57.1305C90.6477 57.139 90.5085 57.0333 90.4242 56.9107L90.0679 56.9595V56.9595C89.8824 56.9828 89.6884 56.6106 89.933 56.5345C90.0215 56.4993 90.1101 56.4659 90.1986 56.4338L90.3314 56.3866L90.2555 56.395C90.2302 56.3973 90.1986 56.3908 90.1628 56.3783C89.9667 56.4035 89.7707 56.4288 89.5767 56.4521C89.3307 56.4829 89.3866 56.1577 89.5592 56.0812L89.642 56.0505C89.4963 55.9594 89.3681 55.7102 89.5483 55.6287L89.5725 55.6194C89.6568 55.5858 89.739 55.5581 89.8234 55.5264C89.817 55.4991 89.817 55.4735 89.8255 55.4505L89.4776 55.4947V55.4947C89.4459 55.4988 89.5971 55.2763 89.6695 55.2323L89.6821 55.2263L89.8487 55.1755C89.874 55.1037 90.0089 54.9452 90.0553 54.9306C90.6666 54.738 91.2359 54.5649 91.8304 54.4316C91.8599 54.3956 91.8936 54.3682 91.9316 54.3597C92.3026 54.271 92.6779 54.2012 93.0531 54.1422C93.0784 54.104 93.1037 54.0767 93.1333 54.0744C94.063 53.956 94.9948 53.9286 95.9309 53.9922C96.1101 54.0089 96.2893 54.0281 96.4685 54.0511C96.8121 54.0894 97.1557 54.138 97.4973 54.2035C98.3528 54.3507 99.1882 54.5745 100.002 54.8762L100.189 54.9473C100.394 55.0236 100.596 55.1037 100.797 55.1905C100.898 54.8291 101.024 54.4738 101.174 54.1253C101.197 54.0575 101.222 53.9922 101.25 53.9267L101.045 53.8039V53.8039C101.001 53.8884 100.91 53.9539 100.851 53.9182C99.3862 52.927 97.8367 52.1004 96.2028 51.441C95.2879 51.0352 94.3518 50.6909 93.3926 50.4032C92.914 50.2492 92.4312 50.1097 91.9463 49.9765C91.7039 49.9256 91.4614 49.8749 91.2148 49.8326C89.9477 49.4902 88.6596 49.2685 87.3525 49.1671ZM135.633 52.5218C135.456 52.83 135.27 53.1352 135.074 53.4361C134.121 54.8985 132.978 56.2708 131.683 57.4672C132.021 57.4664 132.358 57.4793 132.691 57.5105C133.265 57.5648 133.827 57.6604 134.375 57.7942C134.42 57.7584 134.469 57.7405 134.509 57.7688L134.652 57.8679V57.8679C135.828 58.186 136.932 58.6861 137.932 59.356L137.914 59.2237C137.911 59.2017 137.907 59.1796 137.903 59.1576C137.92 58.8976 137.924 58.6375 137.916 58.3796C137.709 56.8558 137.193 55.4524 136.603 54.0323C136.591 54.0049 136.599 53.9691 136.617 53.9328C136.319 53.445 135.993 52.9733 135.633 52.5218ZM135.905 40.5416C135.464 40.622 135.028 40.7255 134.593 40.8544C133.778 40.9772 132.987 41.1928 132.224 41.4991C131.172 41.8731 130.151 42.3085 129.135 42.7695C127.162 43.6654 125.311 44.7984 123.627 46.1638C123.519 46.246 123.416 46.3307 123.312 46.4153C122.935 46.7427 122.568 47.085 122.22 47.4465C121.856 47.8438 121.489 48.2413 121.124 48.6406C120.677 49.11 120.163 49.5346 119.758 50.0418C119.676 50.1454 119.604 50.2595 119.539 50.3739L119.777 50.4561V50.4561C119.977 50.5237 119.943 50.8999 119.745 50.845C119.678 50.8259 119.615 50.8027 119.551 50.7775C119.579 50.8135 119.598 50.8494 119.602 50.8809C119.615 50.9823 119.537 51.122 119.412 51.0861C119.355 51.0711 119.298 51.05 119.241 51.0267C119.225 51.0922 119.212 51.1578 119.212 51.2212C119.222 51.2254 119.233 51.2296 119.246 51.2319C119.385 51.2806 119.646 51.498 119.684 51.6462C119.714 51.7603 119.617 51.8827 119.492 51.8489C119.4 51.8235 119.309 51.7855 119.22 51.7432C119.279 51.8005 119.326 51.8618 119.33 51.9146C119.338 52.0118 119.254 52.149 119.138 52.1175C118.923 52.0581 118.75 51.9674 118.607 51.8533C118.569 51.9038 118.514 51.944 118.47 51.9315L118.388 51.9062V51.9062C118.41 51.9271 118.431 51.9493 118.451 51.971L118.48 52.0032C119.062 52.633 119.57 53.3304 119.977 54.0809C119.996 54.0596 120.019 54.0406 120.049 54.0173C120.239 53.8567 120.435 53.7003 120.631 53.5483L120.69 53.4964V53.4964L120.751 53.4446L120.31 53.5904L120.32 53.579C120.351 53.539 120.448 53.4057 120.493 53.3613L120.504 53.3516C121.109 52.8086 121.769 52.3477 122.482 51.9717C122.943 51.6713 123.428 51.4177 123.936 51.2085C125.149 50.6442 126.384 50.2154 127.653 49.818C127.843 49.7567 128.033 49.6912 128.222 49.6318C128.277 49.6128 128.288 49.636 128.279 49.6741L128.378 49.6445V49.6445C128.556 49.5874 128.857 49.9002 128.737 50.0461C128.809 50.1052 128.881 50.1712 128.943 50.2331L128.988 50.2785L129.038 50.2638C129.189 50.2172 129.443 50.4526 129.604 50.6193L129.724 50.7456C129.814 50.8429 129.991 51.0436 129.774 51.122L129.502 51.2148V51.2148C129.511 51.2698 129.487 51.3163 129.403 51.348C129.308 51.3797 129.215 51.4135 129.123 51.4475C129.179 51.4967 129.234 51.5478 129.289 51.5997L129.369 51.6777C129.465 51.7754 129.691 51.9907 129.491 52.0857L129.466 52.0962L129.207 52.1892C129.241 52.2652 129.232 52.3373 129.118 52.3794C127.605 52.8951 126.127 53.4997 124.683 54.1866C123.601 54.7866 122.459 55.2349 121.255 55.5285C121.156 55.5604 120.941 55.4103 120.852 55.2603L120.672 55.3133C120.642 55.3221 120.612 55.3305 120.582 55.3383L120.553 55.3448V55.3448C120.778 55.9472 120.945 56.6 121.038 57.232C121.048 57.289 121.057 57.3484 121.063 57.4055C121.299 57.3863 121.533 57.3693 121.769 57.3569C123.403 57.27 125.056 57.3229 126.694 57.5173C127.356 57.1221 127.993 56.6888 128.602 56.2198C128.787 56.0759 128.971 55.9279 129.152 55.7779C130.24 54.831 131.225 53.7682 132.097 52.6203C132.905 51.5572 133.607 50.4159 134.197 49.2199C134.72 48.0974 135.152 46.9308 135.479 45.7261C135.778 44.6249 135.882 43.5534 135.958 42.4142C135.983 42.2282 136 42.0424 136.014 41.8562L136.013 41.7766V41.7766L136.01 41.7379C135.989 41.3386 135.949 40.939 135.905 40.5416ZM120.458 54.6958C120.409 54.7127 120.359 54.7296 120.308 54.7444C120.338 54.8099 120.365 54.8735 120.393 54.9388L120.396 54.9375V54.9375L120.595 54.7803V54.7803C120.553 54.7613 120.504 54.7319 120.458 54.6958ZM135.61 37.5448C135.989 37.4032 136.276 37.3757 136.47 37.4644C136.183 37.4856 135.896 37.5131 135.61 37.5448Z" fill="black"/>
<path fill-rule="evenodd" clip-rule="evenodd" d="M123.152 128.274C121.732 127.695 120.465 126.728 119.538 125.493C119.216 125.063 119.133 124.61 119.2 124.195C119.276 123.729 119.552 123.306 119.928 123.023C120.305 122.739 120.777 122.598 121.233 122.67C121.63 122.732 122.024 122.949 122.337 123.399L122.402 123.489C122.953 124.235 123.67 124.846 124.488 125.241C125.276 125.621 126.158 125.798 127.07 125.695C128.808 125.499 130.005 124.559 131.278 123.282C131.436 123.121 131.594 122.955 131.752 122.786C131.852 122.633 131.991 122.534 132.146 122.483C132.317 122.425 132.511 122.429 132.689 122.491C132.86 122.55 133.013 122.664 133.116 122.815C133.213 122.958 133.269 123.135 133.251 123.339C133.134 124.661 132.443 125.842 131.461 126.769C130.37 127.799 128.924 128.511 127.563 128.761C126.064 129.036 124.536 128.839 123.152 128.274V128.274ZM128.271 107.866C129.866 108.836 132.297 111.098 130.581 113.503C128.56 115.624 125.652 113.193 124.219 112.093C122.89 111.241 121.396 113.433 122.629 114.428C132.987 122.099 137.19 108.12 129.078 106.726C128.184 106.572 127.853 107.566 128.271 107.866ZM109.711 98.9429C109.887 96.7541 113.219 96.257 113.551 98.423C113.847 100.363 113.498 102.145 112.624 103.892C111.79 105.561 109.692 104.783 109.533 103.263C109.32 101.226 109.601 100.304 109.711 98.9429ZM135.076 97.9739C135.541 97.3652 136.212 96.9497 137.015 97.1845C139.526 97.9185 138.786 101.485 137.904 103.22C137.425 104.163 135.876 104.402 135.176 103.572C134.036 102.219 133.489 99.5157 134.94 98.1825C134.979 98.1136 135.023 98.044 135.076 97.9739ZM112.589 89.3654L112.986 89.2959C114.213 89.0836 115.738 88.8796 116.606 89.8665C117.067 90.3898 117.225 91.3624 116.606 91.8633C115.518 92.7446 114.314 92.4031 113.01 92.4777C111.935 92.5394 110.902 92.7174 109.867 93.0135C107.595 93.6629 105.744 94.8486 103.804 96.1505C103.55 96.3213 103.29 95.9956 103.411 95.7574C104.531 93.563 106.701 91.7604 108.875 90.6616C110.036 90.0751 111.305 89.5885 112.589 89.3654ZM132.787 88.3823L133.091 88.4445C136.395 89.1353 140.687 90.5153 142.251 93.7615C142.311 94.2205 142.248 94.3189 142.197 94.3832L142.18 94.4046C142.137 94.4595 142.104 94.5351 141.905 94.5976C141.85 94.5844 141.794 94.5705 141.737 94.5557C141.02 94.3677 140.453 94.1087 139.904 93.84L139.308 93.5465C138.617 93.2076 137.92 92.881 137.181 92.6399C135.605 92.1255 133.983 91.7631 132.337 91.5696C131.98 91.5277 131.636 91.4072 131.365 91.2006C131.108 91.0046 130.911 90.7332 130.821 90.3724C130.705 89.9056 130.739 89.5521 130.989 89.1309C131.177 88.8146 131.447 88.5953 131.756 88.4694C132.071 88.3411 132.43 88.3108 132.787 88.3823Z" fill="black"/>
</g>
<defs>
<clipPath id="clip0_2016_14179">
<rect width="200" height="267" fill="white"/>
</clipPath>
</defs>
</svg>
