<svg width="200" height="267" viewBox="0 0 200 267" fill="none" xmlns="http://www.w3.org/2000/svg">
<g clip-path="url(#clip0_2016_14177)">
<rect width="200" height="267" fill="white"/>
<path fill-rule="evenodd" clip-rule="evenodd" d="M169.444 219.877C168.032 215.534 169.714 210.519 168.614 205.838C168.238 203.987 167.521 197.108 166.802 193.086C166.4 190.836 168.807 190.137 169.177 189.239C171.78 181.172 152.79 162.193 151.63 161.494C149.893 160.49 148.356 159.625 146.659 158.599C141.708 156.859 135.77 152.019 131.282 155.128C123.505 143.546 126.581 129.277 122.361 127.581C118.141 125.885 105.679 122.457 98.554 126.834C94.2834 129.995 94.5982 135.437 92.6497 139.924C91.506 142.037 90.944 145.097 89.6126 146.475C85.0887 151.156 79.4473 151.963 73.1405 152.758C72.6601 152.818 72.1548 151.511 71.688 151.673C61.0494 155.351 48.6704 156.424 36.6222 177.021C34.9206 179.967 30.3304 184.693 31.8653 188.097C21.7523 211.623 11.8015 264.573 39.5505 277.778C40.4375 278.346 46.4548 275.303 47.4353 275.331C49.0697 275.378 45.9381 279.348 47.4353 278.64C58.4273 279.475 118.911 277.322 142.095 279.475C158.038 279.355 168.135 282.152 171.817 279.355C170.345 275.797 170.413 271.987 170.879 268.225C174.267 265.703 170.078 247.928 170.433 242.723C173.604 238.919 171.079 224.655 169.444 219.877Z" fill="#FDC6A0"/>
<path fill-rule="evenodd" clip-rule="evenodd" d="M72.5188 152.723L72.4168 152.789C72.3999 152.8 72.3833 152.811 72.3674 152.823C72.2588 152.905 72.2759 153.052 72.4039 153.102C72.5742 153.168 72.7531 153.219 72.9374 153.258C73.4968 154.07 73.9339 155.074 74.2392 155.582C75.1162 157.044 82.6443 166.231 83.7695 167.412C85.5976 169.33 94.6003 176.543 94.7224 176.399C96.1705 177.264 97.6709 178.041 99.2294 178.703C108.453 182.624 120.282 182.98 128.209 176.467C128.799 176.629 134.403 168.557 135.269 165.666C135.692 165.783 136.215 162.684 135.923 162.731C136.178 160.98 133.108 154.687 132.817 154.386C132.861 154.372 132.905 154.359 132.949 154.347C132.974 154.402 133.033 154.444 133.101 154.426C133.687 154.273 134.28 154.192 134.873 154.205C135.324 154.214 138.542 155.681 138.667 155.741C138.744 155.778 138.821 155.815 138.898 155.852C164.648 168.235 168.617 188.359 169.507 188.313C169.132 188.788 158.958 203.179 158.411 204.451C158.297 201.701 160.177 275.014 160.309 276.545C160.363 277.176 160.367 278.666 160.456 279.266C159.809 279.302 137.166 277.755 95.0598 278.009C81.6142 278.09 48.3817 279.553 48.3817 279.553L48.3708 279.462C48.2755 278.564 48.3584 276.823 48.3452 275.928C49.6214 275.191 50.8741 274.407 52.1121 273.637C54.9309 271.883 72.3239 255.945 85.1067 241.685C92.6847 233.232 102.138 227.543 102.65 226.989C102.66 226.978 102.665 226.966 102.672 226.954C102.699 226.974 102.732 226.993 102.774 226.987C108.662 226.145 117.447 227.956 123.915 224.607C126.802 223.112 136.6 212.932 139.487 210.119C139.574 210.035 139.636 209.945 139.68 209.854C141.605 208.681 149.109 202.731 149.64 201.996L149.798 201.775C150.384 200.944 151.266 200.068 150.244 199.27C149.167 198.429 147.102 199.44 145.966 199.924L145.808 199.99C145.255 200.217 144.713 200.464 144.179 200.727C143.505 198.837 141.861 198.798 140.089 199.059C138.826 199.245 137.6 199.677 136.369 200.006C134.807 200.424 133.237 200.817 131.662 201.186C128.826 201.85 125.548 203.065 122.679 203.568C122.603 203.48 122.498 203.41 122.357 203.375C121.375 203.13 120.291 203.318 119.283 203.336C118.42 203.352 117.556 203.354 116.693 203.342L116.175 203.333C114.324 203.295 111.841 202.434 109.99 202.402L109.88 202.334L109.77 202.265C109.293 201.956 108.775 201.544 108.634 201.025C108.616 200.96 110.508 196.604 110.536 193.079C110.551 191.119 109.879 189.285 109.718 188.313C109.327 185.94 108.451 187.468 107.183 189.793C105.915 192.117 104.225 194.231 102.958 195.922C101.324 198.101 99.7214 198.76 98.8884 200.023C98.7473 200.237 98.6085 200.458 98.4731 200.684C98.1473 200.359 95.4006 206.832 95.8808 208.079C95.5464 207.968 82.0422 225.299 52.676 237.769C52.8632 236.603 57.9577 205.855 56.6901 200.783C55.4225 195.71 38.6586 176.963 36.9154 176.547C37.0899 176.263 30.2817 180.916 42.5352 168.869C54.7887 156.822 62.954 154.782 69.0542 152.543C69.3957 152.437 69.7355 152.33 70.0736 152.221C69.9882 152.373 70.1819 152.539 70.3307 152.417C71.1741 151.719 71.9062 152.046 72.5188 152.723Z" fill="#9DDADB"/>
<path fill-rule="evenodd" clip-rule="evenodd" d="M164.39 193.84C162.869 196.053 161.471 198.331 160.208 200.701C159.557 201.923 158.949 203.17 158.402 204.442C158.289 201.692 158.264 198.909 157.942 196.186C157.919 195.989 157.592 195.894 157.557 196.134C157.202 198.603 157.144 201.136 157.01 203.631C156.855 203.584 156.684 203.557 156.496 203.557C154.671 203.557 152.873 203.706 151.054 203.854C150.239 203.92 149.387 203.97 148.555 204.1C149.224 203.361 149.848 202.58 150.423 201.766C151.01 200.935 151.68 199.636 150.658 198.838C149.529 197.957 147.314 199.11 146.222 199.558C145.669 199.785 145.126 200.032 144.593 200.295C143.918 198.405 141.852 198.155 140.081 198.416C138.818 198.602 137.592 199.034 136.361 199.363C134.798 199.781 133.229 200.174 131.654 200.543C128.817 201.207 125.962 201.788 123.093 202.291C123.017 202.202 122.911 202.133 122.771 202.098C121.789 201.852 120.705 202.04 119.697 202.059C118.661 202.078 117.624 202.077 116.588 202.055C114.738 202.018 112.888 202.002 111.038 201.97C110.512 201.651 109.845 201.193 109.682 200.593C109.478 199.844 110.115 199.014 110.41 198.376C111.545 195.927 111.942 193.186 111.497 190.519C111.417 190.043 111.254 189.523 111.018 189.036C113.045 189.253 115.046 189.4 117.085 189.467C121.155 189.599 125.226 189.738 129.298 189.769C137.441 189.829 145.583 189.83 153.726 189.77C158.33 189.736 162.923 189.694 167.521 189.459C167.146 189.934 166.782 190.42 166.426 190.912C166.353 190.89 166.257 190.93 166.268 191.021C166.271 191.053 166.275 191.085 166.279 191.117C165.63 192.024 165.005 192.945 164.39 193.84M155.336 278.057C153.443 277.996 151.552 277.936 149.659 277.876C145.945 277.757 142.231 277.639 138.517 277.521C131.16 277.287 123.802 277.061 116.443 276.858C109.102 276.655 101.757 276.441 94.414 276.67C87.054 276.9 79.7129 277.494 72.3667 277.971C68.2827 278.236 64.1957 278.465 60.1041 278.575C56.2073 278.679 52.276 278.521 48.3853 278.799C48.2545 277.837 48.3507 276.878 48.3365 275.919C49.6128 275.182 50.8654 274.398 52.1034 273.628C56.6169 270.819 60.8833 267.642 64.9075 264.169C65.5261 263.635 66.1326 263.09 66.7331 262.539C66.3152 263.452 66.6496 264.63 67.8473 265.017C69.3078 265.488 70.8031 265.321 72.32 265.285C73.8604 265.249 75.4007 265.214 76.9413 265.182C79.9521 265.118 82.9631 265.061 85.9741 265.01C91.8562 264.912 97.7385 264.839 103.621 264.791C115.456 264.695 127.283 264.857 139.117 265.07C142.444 265.13 145.768 265.205 149.096 265.129C150.76 265.092 152.432 265.08 154.095 264.99C155.427 264.918 156.767 264.73 158.099 264.56C158.267 266.881 158.443 269.201 158.638 271.52C158.768 273.051 158.901 274.582 159.032 276.113C159.086 276.744 159.09 277.389 159.179 277.989C157.901 278.059 156.63 278.098 155.336 278.057M156.637 212.522C156.59 214.298 156.566 216.076 156.553 217.854C156.399 217.765 156.226 217.701 156.031 217.672C153.962 217.356 151.748 217.595 149.654 217.631C147.63 217.664 145.6 217.653 143.578 217.749C141.552 217.844 139.527 217.959 137.502 218.063C136.551 218.113 135.611 218.156 134.668 218.284C134.022 218.372 133.196 218.366 132.506 218.55C135.401 215.745 138.281 212.923 141.169 210.11C141.255 210.025 141.318 209.936 141.361 209.845C143.287 208.672 145.135 207.351 146.809 205.838C148.136 206.35 149.647 206.415 151.054 206.529C152.874 206.677 154.67 206.826 156.496 206.826C156.62 206.826 156.735 206.814 156.844 206.793C156.755 208.701 156.687 210.61 156.637 212.522M81.458 247.032C85.8784 248.444 90.6676 248.429 95.2662 248.711C100.169 249.013 105.064 249.264 109.972 249.455C119.775 249.836 129.571 250.354 139.372 250.766C144.97 251.001 150.567 251.26 156.163 251.542C156.56 251.562 156.939 251.46 157.273 251.274C157.461 254.96 157.681 258.645 157.937 262.328C157.969 262.789 158.005 263.249 158.037 263.709C155.404 263.379 152.79 263.063 150.136 262.838C147.157 262.587 144.178 262.374 141.194 262.176C135.38 261.791 129.556 261.274 123.73 261.086C111.855 260.702 99.9543 260.833 88.0749 260.917C84.7136 260.941 81.3526 260.974 77.9915 261.014C76.3111 261.035 74.6307 261.057 72.9503 261.082C71.2614 261.106 69.4464 260.931 67.8473 261.52C67.8321 261.526 67.8192 261.534 67.8042 261.54C72.6285 256.967 76.9504 251.913 81.458 247.032M96.9972 232.413C104.385 233.758 111.888 233.666 119.376 233.799C127.038 233.936 134.71 233.845 142.374 233.861C146.727 233.87 151.117 234.062 155.455 233.674C155.967 233.628 156.365 233.434 156.648 233.158C156.727 237.773 156.872 242.387 157.071 246.998C156.79 246.878 156.483 246.805 156.163 246.787C146.371 246.21 136.578 245.687 126.774 245.368C116.978 245.049 107.169 244.67 97.3673 244.789C92.584 244.846 87.5258 244.54 82.8082 245.583C84.601 243.677 86.4323 241.807 88.3479 240.016C91.1406 237.405 94.1207 234.96 96.9972 232.413M102.641 226.98C102.651 226.969 102.656 226.957 102.663 226.945C102.69 226.965 102.723 226.978 102.765 226.977C109.68 226.821 117.438 229.004 123.906 225.654C126.793 224.159 129.185 221.796 131.506 219.525C131.507 219.541 131.509 219.558 131.51 219.575C131.525 219.76 131.603 219.981 131.79 220.063C132.553 220.398 133.446 220.42 134.265 220.539C135.207 220.676 136.132 220.757 137.083 220.814C139.178 220.94 141.273 221.073 143.369 221.191C145.46 221.31 147.56 221.319 149.654 221.372C151.754 221.424 153.953 221.678 156.031 221.378C156.222 221.351 156.392 221.291 156.543 221.208C156.546 223.897 156.57 226.586 156.595 229.274C156.6 229.712 156.608 230.15 156.613 230.588C156.333 230.331 155.947 230.151 155.455 230.108C151.601 229.768 147.718 229.919 143.85 229.932C140.053 229.945 136.255 229.957 132.457 229.97C124.789 229.996 117.127 230.071 109.459 230.217C105.731 230.288 102.019 230.601 98.3448 231.205C99.8324 229.849 101.278 228.454 102.641 226.98M42.5558 275.879C41.1401 276.312 39.7348 276.125 38.3163 276.421C38.2291 276.439 38.1486 276.473 38.0748 276.518C33.8271 274.702 30.9957 271.059 29.0579 266.977C27.0154 262.673 25.6075 258.073 24.6644 253.41C22.7199 243.796 22.7165 233.828 23.723 224.102C24.7119 214.547 26.67 205.044 29.4642 195.854C31.3827 189.545 33.8277 183.17 37.2226 177.417C41.1426 180.045 44.1828 183.828 47.0467 187.525C50.4691 191.945 53.5531 196.621 56.3138 201.48C56.0283 202.312 55.984 203.356 55.8471 204.1C55.5832 205.535 55.3449 206.987 55.1575 208.434C54.7572 211.527 54.3731 214.621 53.9638 217.713C53.1545 223.826 52.1881 229.922 51.1206 235.995C51.0342 236.488 51.1724 236.904 51.4265 237.216C49.3092 238.332 47.2195 239.498 45.1836 240.762C40.7074 243.541 36.5241 246.778 33.2398 250.929C33.1544 251.037 33.2881 251.181 33.3938 251.083C40.437 244.573 49.1873 240.485 57.7785 236.446C62.1688 234.381 66.5376 232.284 70.7499 229.87C75.1548 227.346 79.3557 224.494 83.382 221.404C87.9796 217.875 92.3074 214.016 96.3644 209.877C96.8423 209.389 96.7265 208.778 96.3669 208.392C96.4884 208.354 96.5864 208.249 96.5928 208.072C96.6902 205.369 97.5017 203.066 99.0904 200.878C100.564 198.848 102.443 197.175 104.137 195.338C104.89 194.522 105.609 193.672 106.252 192.765C106.913 191.831 107.316 190.801 107.892 189.825C108.564 188.686 109.137 189.268 109.448 190.3C109.802 191.469 109.78 192.839 109.638 194.041C109.488 195.313 109.1 196.554 108.543 197.704C108.019 198.784 107.415 199.883 107.767 201.121C108.347 203.155 110.831 204.334 112.713 204.792C114.809 205.302 117.001 205.203 119.124 204.938C121.781 204.607 124.426 204.122 127.054 203.605C130.096 203.008 133.121 202.318 136.121 201.539C137.532 201.173 138.933 200.691 140.357 200.388C140.865 200.28 141.805 200.118 142.402 200.382C134.73 204.958 126.365 208.006 117.87 210.662C116.814 210.991 117.247 212.586 118.328 212.322C127.454 210.09 136.04 205.947 144.212 201.409C144.337 201.339 144.443 201.232 144.521 201.104C145.343 200.815 146.179 200.564 147.031 200.356C147.412 200.264 149.371 199.617 149.616 199.866C149.963 200.217 148.762 201.36 148.462 201.692C146.327 204.059 143.787 205.991 141.037 207.587C138.248 209.207 135.281 210.498 132.3 211.716C128.96 213.081 125.43 214.154 122.183 215.723C120.894 216.346 121.799 218.463 123.157 218.034C124.908 217.48 126.61 216.667 128.311 215.976C129.757 215.389 131.202 214.803 132.64 214.196C133.642 213.773 134.637 213.335 135.623 212.878C134.146 214.268 132.67 215.658 131.194 217.049C128.637 219.456 126.208 222.199 123.083 223.888C119.996 225.556 116.473 225.75 113.037 225.714C111.311 225.696 109.594 225.641 107.868 225.711C106.052 225.784 104.44 226.063 102.719 226.635C102.687 226.645 102.664 226.664 102.645 226.686C102.585 226.613 102.483 226.576 102.377 226.638C97.7011 229.404 93.4388 232.992 89.3395 236.538C85.1146 240.193 81.1392 244.079 77.3514 248.185C73.7258 252.114 70.1292 256.058 66.184 259.674C62.3319 263.204 58.2154 266.409 53.9169 269.376C51.5748 270.992 49.1748 272.549 46.6916 273.94C45.3646 274.684 44.0169 275.433 42.5558 275.879M42.949 169.486C44.6235 167.604 46.4258 165.86 48.3329 164.247C49.1744 164.496 50.0577 164.566 50.9478 164.575C52.306 164.588 53.6672 164.645 55.0255 164.631C57.6407 164.604 60.255 164.522 62.8709 164.508C68.2195 164.478 73.5699 164.477 78.9186 164.523C79.6193 164.53 80.1249 164.23 80.4369 163.794C81.5197 165.022 82.6356 166.222 83.7608 167.403C85.5889 169.321 87.5379 171.151 89.6125 172.819C89.2086 172.821 88.8048 172.825 88.4032 172.822C86.5531 172.81 84.7029 172.798 82.853 172.788C79.1404 172.768 75.4278 172.753 71.7152 172.743C64.3343 172.723 56.9305 172.785 49.5591 173.163C47.5132 173.268 45.4512 173.31 43.4125 173.51C42.3067 173.618 41.2022 173.744 40.0975 173.862C39.8714 173.886 39.6547 173.916 39.4419 173.95C40.5238 172.395 41.6892 170.902 42.949 169.486M72.5102 152.714C72.4603 152.748 72.4064 152.778 72.3587 152.814C72.2501 152.896 72.2672 153.043 72.3953 153.093C72.5655 153.159 72.7445 153.21 72.9287 153.249C73.4881 154.061 73.9253 155.065 74.2305 155.573C75.1075 157.034 76.1159 158.426 77.1418 159.785C77.348 160.058 77.5582 160.328 77.7693 160.597C72.8013 160.586 67.8359 160.611 62.8709 160.799C60.2569 160.898 57.634 160.981 55.0255 161.177C53.9529 161.258 52.8809 161.393 51.8117 161.527C57.3764 157.503 63.6346 154.43 70.1178 152.149C70.1089 152.159 70.0998 152.166 70.091 152.176C69.9481 152.335 70.1613 152.54 70.3221 152.408C71.1655 151.71 71.8975 152.037 72.5102 152.714M97.6122 200.014C97.471 200.228 97.3322 200.448 97.1968 200.675C96.871 200.35 96.416 200.133 95.8297 200.115C89.3216 199.911 82.8167 199.734 76.305 199.729C73.0937 199.727 69.8533 199.619 66.646 199.778C65.0355 199.858 63.4257 199.953 61.816 200.044C60.6906 200.108 59.495 200.188 58.396 200.514C55.8631 196.082 53.0514 191.821 49.9808 187.746C56.9476 188.601 64.0337 188.51 71.04 188.748C78.9779 189.017 86.9203 189.074 94.861 189.263C97.0392 189.314 99.2174 189.371 101.395 189.432C102.519 189.463 103.643 189.496 104.767 189.53C105.119 189.54 105.482 189.55 105.846 189.54C105.819 189.597 105.791 189.654 105.764 189.71C105.151 190.977 104.38 192.142 103.482 193.224C101.573 195.524 99.2662 197.505 97.6122 200.014M89.0742 213.666C88.8331 212.995 88.2458 212.48 87.3101 212.522C81.9777 212.765 76.6354 212.933 71.3091 213.284C68.7145 213.455 66.1094 213.57 63.5191 213.797C62.183 213.914 60.8493 214.132 59.5189 214.305C58.6069 214.424 57.6519 214.562 56.7771 214.887C56.9467 213.013 57.0963 211.138 57.2262 209.26C57.3304 207.751 57.3621 206.229 57.3541 204.717C57.35 203.951 57.3241 203.181 57.2871 202.416C57.3657 202.432 57.4445 202.44 57.5218 202.43C57.6583 202.413 57.7857 202.397 57.904 202.365C59.13 202.845 60.5176 202.951 61.816 203.044C63.3562 203.154 64.8959 203.271 66.436 203.381C69.713 203.615 73.0208 203.599 76.305 203.706C82.77 203.917 89.2362 204.04 95.7025 204.213C95.4025 205.501 95.3919 206.823 95.8722 208.07C95.5377 207.959 95.1526 208.01 94.8238 208.335C92.9613 210.176 91.0432 211.951 89.0742 213.666M70.2642 227.358C70.1326 226.994 69.8841 226.659 69.59 226.433C68.4593 225.561 66.3952 226.063 65.0381 226.129C63.4314 226.208 61.8245 226.286 60.2178 226.365C59.7302 226.389 57.2414 226.516 55.4136 226.906C55.7913 224.052 56.134 221.194 56.4403 218.331C56.5045 217.73 56.5641 217.128 56.6231 216.527C57.4842 216.804 58.4201 216.906 59.3083 216.948C60.6393 217.011 61.9764 217.119 63.3086 217.14C65.9704 217.182 68.6469 217.05 71.3091 217.006C76.1032 216.926 80.8979 216.697 85.6899 216.508C80.8787 220.415 75.795 223.979 70.4922 227.222C70.4165 227.268 70.3398 227.312 70.2642 227.358M55.1222 229.051C55.5272 229.105 55.9288 229.123 56.236 229.154C57.7783 229.31 59.2964 229.451 60.8465 229.473C62.3835 229.496 63.9202 229.518 65.4572 229.541C65.7841 229.545 66.1109 229.55 66.4377 229.555C62.3907 231.767 58.2194 233.747 54.1071 235.833C54.4694 233.576 54.8076 231.315 55.1222 229.051M99.2207 178.694C108.444 182.615 120.274 182.971 128.2 176.458C128.988 176.673 129.859 176.745 130.554 176.815C132.117 176.972 133.665 177.116 135.235 177.165C138.295 177.261 141.358 177.404 144.42 177.442C150.613 177.518 156.807 177.554 163 177.609C163.527 177.614 163.949 177.453 164.269 177.195C164.896 178.259 165.48 179.35 166.012 180.468C166.789 182.099 167.447 183.784 167.988 185.508C167.872 185.488 167.752 185.474 167.623 185.471C159.483 185.331 151.338 185.565 143.197 185.599C135.054 185.633 126.912 185.598 118.769 185.656C116.516 185.672 114.279 185.673 112.032 185.84C110.862 185.927 109.678 185.965 108.519 186.154C108.39 186.175 108.258 186.193 108.125 186.212C106.573 185.304 104.645 185.494 102.871 185.46C100.833 185.422 98.7955 185.388 96.758 185.357C92.7532 185.298 88.748 185.255 84.7428 185.227C76.7938 185.173 68.8643 185.376 60.9205 185.653C56.9681 185.791 53.0307 186.024 49.1292 186.633C48.8672 186.294 48.6078 185.953 48.3424 185.616C45.578 182.111 42.3008 177.624 37.7518 176.538C37.9263 176.254 38.1033 175.971 38.2831 175.69C41.4348 176.521 44.9117 176.479 48.1318 176.653C51.8436 176.854 55.5475 176.993 59.2637 177.084C66.6507 177.265 74.0362 177.379 81.4246 177.492C83.4752 177.523 85.5257 177.556 87.5763 177.59C88.6823 177.608 89.7885 177.63 90.8947 177.647C91.5126 177.656 92.0651 177.654 92.6539 177.449C93.1992 177.259 93.7307 176.974 94.2581 176.738C94.4421 176.656 94.5917 176.534 94.7138 176.39C96.1618 177.255 97.6622 178.032 99.2207 178.694M135.261 165.656C136.421 165.979 137.618 166.032 138.844 166.125C140.454 166.247 142.06 166.267 143.674 166.277C146.248 166.294 148.822 166.276 151.395 166.205C152.5 166.175 153.145 165.435 153.337 164.587C153.364 164.609 153.391 164.63 153.418 164.652C156.549 167.233 159.386 170.184 161.79 173.452C156 173.47 150.21 173.474 144.42 173.513C141.358 173.533 138.295 173.659 135.235 173.738C133.734 173.776 132.254 173.901 130.759 174.043C130.73 174.046 130.699 174.048 130.668 174.051C130.827 173.868 130.984 173.683 131.138 173.492C132.924 171.277 134.394 168.548 135.261 165.656M172.906 281.939C173.417 280.533 173.218 279.025 173.189 277.547C173.16 276.03 173.144 274.513 173.138 272.996C173.129 270.03 173.108 267.065 173.076 264.099C173.009 258.099 172.94 252.094 172.704 246.098C172.238 234.245 171.339 222.42 169.872 210.646C169.16 204.922 168.275 199.21 167.074 193.567C167.091 193.545 167.108 193.521 167.124 193.498C168.32 191.9 169.68 190.423 170.854 188.814C170.959 188.671 171.002 188.488 171.001 188.303C171.044 188.282 171.087 188.26 171.131 188.235C172.105 187.68 171.225 186.167 170.251 186.73C170.363 186.665 168.746 182.511 168.574 182.093C167.958 180.59 167.266 179.122 166.485 177.698C166.014 176.839 165.51 175.998 164.981 175.173C164.889 174.557 164.556 173.986 163.985 173.68C162.982 172.242 161.898 170.861 160.743 169.544C156.015 164.155 150.109 159.804 143.656 156.705C142.724 156.257 141.764 155.884 140.807 155.493C139.789 155.077 138.845 154.532 137.841 154.095C136.208 153.384 134.596 153.425 132.992 154.178C132.855 154.242 132.953 154.453 133.093 154.417C134.125 154.147 135.183 154.102 136.218 154.395C137.233 154.681 138.004 155.314 138.89 155.843C140.468 156.784 142.232 157.398 143.85 158.277C145.989 159.44 148.08 160.717 150.079 162.118C148.007 162.228 145.934 162.307 143.86 162.362C142.32 162.403 140.78 162.41 139.242 162.5C138.147 162.563 137.008 162.545 135.914 162.722C136.178 160.908 136.178 159.077 135.849 157.31C135.849 157.309 135.848 157.308 135.848 157.308C135.769 156.882 135.672 156.459 135.553 156.041C135.301 155.152 134.49 155.019 133.902 155.355C133.844 155.312 133.785 155.27 133.729 155.224C133.024 154.652 132.39 153.967 131.838 153.247C130.693 151.752 129.767 150.021 129.065 148.276C128.355 146.51 127.852 144.661 127.359 142.824C127.112 141.903 126.844 140.987 126.593 140.067C126.374 139.267 126.214 138.383 125.812 137.654C125.737 137.518 125.51 137.544 125.474 137.699C125.261 138.612 125.374 139.653 125.413 140.584C125.456 141.617 125.515 142.641 125.653 143.667C125.938 145.795 126.397 147.886 127.134 149.907C127.84 151.844 128.772 153.653 130.038 155.285C130.879 156.369 132.074 157.805 133.458 158.39C133.638 160.426 133.618 162.463 133.137 164.479C132.508 167.117 131.304 169.625 129.65 171.773C126.181 176.278 120.815 178.823 115.217 179.347C109.425 179.89 103.497 178.594 98.2929 176.046C92.5039 173.211 87.7016 168.838 83.3881 164.118C80.9015 161.397 78.3232 158.719 76.0187 155.841C75.6103 155.33 74.9567 154.295 74.1813 153.362C74.9704 153.354 75.7802 153.236 76.4786 153.147C77.9237 152.961 79.336 152.674 80.7481 152.315C83.3884 151.643 86.1724 150.708 88.4795 149.23C93.3612 146.101 95.2669 142.133 95.9178 136.665C96.1236 134.937 93.136 134.517 92.8578 136.251C92.4304 138.916 91.7837 140.213 90.9333 142.773C90.1155 145.234 88.931 146.15 86.6668 147.507C84.5412 148.78 82.1256 149.52 79.7839 150.285C78.4863 150.708 77.1733 151.094 75.8647 151.484C75.0317 151.732 74.0427 151.948 73.1976 152.331C72.7567 151.944 72.2968 151.652 71.8337 151.541C71.8677 151.484 71.8236 151.395 71.7382 151.412C71.6022 151.439 71.4665 151.469 71.3305 151.497C71.1938 151.507 71.0577 151.534 70.9219 151.583C62.7657 153.35 54.9331 157.113 48.2913 162.238C47.9564 162.378 47.6326 162.549 47.3243 162.766C47.1657 162.877 47.0605 163.054 47.0303 163.238C46.0318 164.053 45.0629 164.899 44.1268 165.775C36.5875 172.829 31.8105 182.213 28.4664 191.865C25.1721 201.374 22.9421 211.345 21.716 221.329C20.4659 231.505 20.3218 241.893 22.1349 252.012C23.1084 257.446 24.6845 262.785 27.0107 267.797C29.0998 272.298 32.5001 277.425 37.841 277.973C37.8581 277.99 37.8741 278.008 37.8933 278.024C39.9889 279.751 43.1089 278.558 45.2998 277.527C45.6471 277.363 45.9917 277.191 46.3348 277.015C46.1535 277.713 46.0717 278.444 46.0339 279.129C45.9551 280.552 47.9602 280.632 48.3399 279.452C51.5902 280.023 54.9467 280.031 58.2342 280.013C61.9075 279.993 65.5795 279.866 69.2486 279.693C76.5285 279.349 83.7997 278.824 91.0844 278.586C105.835 278.103 120.625 279.135 135.364 279.655C139.498 279.801 143.633 279.947 147.767 280.093C151.992 280.242 156.212 280.27 160.402 280.842C161.943 281.052 162.533 279.541 162.098 278.6C162.207 277.968 162.099 277.275 162.039 276.53C161.929 275.139 161.824 273.747 161.726 272.355C161.535 269.64 161.35 266.925 161.175 264.209C160.819 258.706 160.513 253.198 160.216 247.691C159.625 236.742 159.172 225.785 158.839 214.825C158.758 212.154 158.652 209.482 158.518 206.812C158.677 206.559 158.836 206.306 158.99 206.049C159.502 205.195 160.004 204.335 160.523 203.484C161.563 201.779 162.61 200.085 163.704 198.413C164.649 196.97 165.624 195.549 166.642 194.157C167.906 204.837 169.03 215.528 169.546 226.276C170.114 238.115 170.415 249.972 170.579 261.822C170.625 265.133 170.656 268.444 170.691 271.755C170.71 273.479 170.728 275.202 170.714 276.926C170.7 278.575 170.451 280.379 171.036 281.939C171.377 282.85 172.569 282.866 172.906 281.939Z" fill="black"/>
<path fill-rule="evenodd" clip-rule="evenodd" d="M141.197 73.4597C134.861 64.717 123.194 62.2028 113.077 64.3292C93.2979 67.9437 74.4009 83.0715 70.9061 103.645C65.4537 116.092 68.9355 135.696 84.7926 137.161C87.0502 137.289 89.2863 136.768 91.5479 137.049C105.351 139.259 121.661 148.721 133.88 137.563C134.492 138.003 135.299 138.215 135.985 137.949C141.186 135.934 141.43 130.106 141.874 125.315C142.446 119.124 142.983 112.93 143.484 106.734C143.663 96.0473 147.889 82.6936 141.197 73.4597V73.4597Z" fill="#FDC6A0"/>
<path fill-rule="evenodd" clip-rule="evenodd" d="M102.85 51.1819C111.177 50.7381 126.521 54.5618 133.786 59.0448C145.623 66.3489 146.54 80.9189 146.058 83.4382C145.874 84.3996 145.288 85.2894 144.371 84.9938C145.149 91.613 145.088 95.3964 145.219 102.054L145.308 106.499C145.367 109.462 145.417 112.426 145.429 115.39C145.729 115.278 146.024 115.415 146.134 115.703C146.161 115.773 146.066 115.811 146.02 115.771C145.493 115.31 145.868 116.36 146.049 116.574C146.3 116.867 146.718 117.144 147.011 117.396L147.806 118.087V118.087L148.602 118.776C149.63 119.665 150.625 120.556 151.584 121.514L151.845 121.777C153.592 123.557 155.783 125.279 156.871 127.581C157.91 129.779 157.59 132.27 155.863 134.023C155.235 134.659 154.501 135.145 153.704 135.513C155.123 137.855 155.33 140.951 153.85 143.36C152.368 145.778 149.517 147.044 146.772 146.85C146.688 147.194 146.557 147.53 146.384 147.849C145.296 149.854 143.131 150.115 141.078 150.007L140.998 150.003C136.377 149.736 131.93 148.576 127.883 146.321C126.479 146.416 125.226 145.26 124.952 143.992C124.214 143.965 123.472 143.903 122.715 143.817C120.47 143.557 118.168 143.073 116.188 141.929C115.885 141.754 116.026 141.291 116.363 141.282C118.775 141.228 121.189 141.395 123.597 141.133C125.806 140.894 128.161 140.283 130.221 139.452C133.923 137.956 137.098 135.418 138.85 131.901C141.118 127.348 140.911 121.881 141.158 116.935C141.431 111.461 141.768 105.991 142.127 100.523L142.302 97.9013C142.651 92.7918 142.94 90.0584 143.825 84.7549C141.158 84.9938 130.08 80.9964 126.635 74.4577C120.096 88.3677 86.9682 82.6749 85.499 104.089C85.4866 104.271 85.1997 104.22 85.1891 104.047L85.1618 103.559C85.1486 103.318 85.1366 103.08 85.1284 102.845L85.1217 102.61L84.6009 102.616C84.6009 102.681 84.5082 102.705 84.485 102.635C83.9938 101.238 81.6537 101.688 80.6354 102.02C79.7183 102.32 78.8539 102.781 78.0781 103.35C76.5201 104.491 75.3121 106.027 74.9116 107.948C74.1505 111.596 76.4674 115.312 79.5433 117.073C81.4829 118.182 83.608 118.899 85.4674 120.156C87.1097 121.266 88.6403 122.565 89.9664 124.043C95.22 129.895 98.3107 138.772 95.8251 146.497C95.6354 147.086 95.1336 147.76 94.4695 147.856C93.3711 148.014 92.2728 147.854 91.6572 146.805C91.4168 146.395 91.303 145.928 91.3283 145.467C90.9024 146.934 89.5215 148.384 88.2482 148.929C86.5131 149.673 84.5588 149.451 83.0282 148.492L82.8348 148.635C80.3457 150.472 77.5652 152.146 74.3761 151.808C72.0655 151.563 69.797 150.383 68.5194 148.524C66.8202 149.481 65.005 150.244 63.1329 150.764L62.9337 150.819C60.358 151.522 57.0726 152.166 54.6684 150.738C52.3599 149.367 51.5926 146.372 52.1344 143.872C52.1997 143.574 52.2819 143.284 52.3831 143.003C50.646 143.096 48.9109 142.929 47.2623 142.418C45.5778 141.895 43.9713 140.891 43.1639 139.264C42.2531 137.423 42.4956 135.331 43.1744 133.456C44.2602 130.449 46.0058 127.773 48.1793 125.442C50.2696 123.198 52.7909 121.295 55.4112 119.708L55.853 119.443C58.2117 118.033 61.0563 116.38 63.8434 116.489C63.835 116.453 63.8287 116.419 63.8244 116.384C63.4028 113.27 63.4513 110.096 63.3522 106.957C63.2615 104.07 63.1582 101.183 63.0908 98.294C62.9812 93.382 63.017 88.4493 63.6558 83.5714C64.2229 79.2429 65.2433 75.022 67.1048 71.0592C69.0592 66.8958 72.0022 63.343 75.6368 60.549C83.2643 54.684 93.3395 51.6892 102.85 51.1819ZM76.9418 108.874C77.7724 107.304 79.6635 106.809 81.3226 107.092C83.648 107.49 85.2292 109.527 86.5869 111.28C88.012 113.116 85.0394 114.847 84.2741 113.068L84.0928 112.647C83.4787 111.236 82.7532 109.748 81.4997 108.828C80.1673 107.851 78.2868 107.707 77.1104 109.005C77.0261 109.1 76.8848 108.978 76.9418 108.874Z" fill="black"/>
<path fill-rule="evenodd" clip-rule="evenodd" d="M108.915 119.159C111.223 117.769 119.848 118.788 126.623 119.159C132.003 119.454 135.845 118.87 137.075 119.698C139.854 121.569 138.504 130.616 133.716 131.853C128.928 133.09 111.179 134.818 108.119 131.853C105.058 128.888 104.776 121.653 108.915 119.159Z" fill="white"/>
<path fill-rule="evenodd" clip-rule="evenodd" d="M111.904 116.766C115.526 116.326 119.036 117.436 122.577 117.995C124.446 118.29 126.318 118.51 128.209 118.592C128.59 118.609 128.97 118.618 129.351 118.626C129.387 118.291 129.574 117.983 129.981 117.798C130.814 117.421 131.481 117.25 132.395 117.287C133.233 117.32 134.073 117.406 134.898 117.557C136.395 117.831 137.899 118.455 138.994 119.537C141.528 122.042 141.143 126.066 139.184 128.795C135.138 134.433 127.753 134.695 121.428 134.621L120.844 134.614C115.085 134.531 106.846 135.39 104.23 128.836C103.267 126.425 103.401 123.631 104.579 121.319C105.984 118.562 108.942 117.126 111.904 116.766ZM129.893 126.154L129.842 126.156C127.187 126.258 124.532 126.33 121.875 126.377C121.955 127.06 122.036 127.743 122.129 128.424C122.201 128.96 122.279 129.495 122.36 130.03C122.395 130.256 122.521 130.607 122.485 130.832L122.472 130.92V130.92C122.609 130.982 122.733 131.081 122.825 131.226C122.857 131.276 122.88 131.326 122.903 131.376C124.966 131.392 127.185 131.352 129.288 130.977L129.292 130.932V130.932C129.33 130.663 129.442 130.482 129.59 130.358C129.738 129.501 129.725 128.588 129.782 127.738C129.818 127.21 129.856 126.682 129.893 126.154ZM119.846 126.414C117.932 126.446 116.018 126.471 114.104 126.448L113.236 126.434V126.434C113.419 127.419 113.619 128.4 113.785 129.391C113.958 130.424 113.049 131.081 112.262 131.054C112.351 131.069 112.439 131.084 112.527 131.096C114.984 131.444 117.536 131.351 120.03 131.349C119.896 130.565 119.95 129.681 119.93 129.027L119.926 128.926C119.888 128.088 119.861 127.251 119.846 126.414ZM106.846 126.233C106.913 126.745 107.042 127.246 107.235 127.712C108.052 129.683 109.925 130.603 111.907 130.99C111.563 130.871 111.29 130.586 111.221 130.097C111.049 128.882 110.987 127.646 110.983 126.412C109.602 126.399 108.211 126.37 106.846 126.233ZM137.095 125.812C136.112 126.044 134.97 125.938 134.005 125.982C133.101 126.023 132.197 126.059 131.293 126.095C131.336 126.712 131.377 127.329 131.422 127.946C131.481 128.744 131.486 129.586 131.639 130.38C133.458 129.759 135.087 128.763 136.31 127.171C136.615 126.774 136.888 126.308 137.095 125.812ZM111.489 119.999C109.852 120.387 108.303 121.206 107.47 122.704C106.976 123.594 106.759 124.647 106.801 125.686C108.184 125.525 109.591 125.464 110.992 125.413C110.996 125.161 111.002 124.909 111.01 124.657L111.031 124.013C111.07 122.783 111.089 121.24 111.489 119.999ZM119.961 120.149L119.24 120.068C117.239 119.84 115.238 119.601 113.237 119.738C112.947 119.758 112.653 119.79 112.359 119.833C112.712 121.11 112.683 122.61 112.83 123.874C112.888 124.363 112.96 124.847 113.04 125.33L113.387 125.314V125.314C115.534 125.198 117.684 125.126 119.833 125.041C119.833 124.637 119.835 124.233 119.842 123.829L119.85 123.425C119.874 122.393 119.807 121.23 119.961 120.149ZM130.01 119.986C127.914 120.324 125.748 120.396 123.689 120.399C122.867 120.4 122.045 120.349 121.223 120.276C121.277 120.714 121.304 121.156 121.345 121.588C121.426 122.46 121.519 123.331 121.619 124.2L121.709 124.962V124.962C124.351 124.842 126.992 124.712 129.634 124.578L130.006 124.558V124.558L130.111 123.095C130.182 122.12 130.26 121.145 130.371 120.174L130.288 120.144V120.144C130.19 120.104 130.098 120.049 130.01 119.986ZM130.921 120.349C131.036 121.728 131.1 123.113 131.185 124.494L132.926 124.401C133.216 124.385 133.506 124.369 133.797 124.352C134.925 124.287 136.375 123.945 137.49 124.264C137.575 123.25 137.285 122.262 136.37 121.58C134.764 120.383 132.718 120.809 130.921 120.349ZM124.972 108.02C127.565 106.534 134.07 105.016 134.482 109.684C134.671 111.832 133.075 113.612 131.211 114.406L131.141 114.435C129.393 115.154 126.294 115.966 124.781 114.407C123.522 113.109 125.192 110.783 126.757 111.846C127.561 112.392 129.253 111.989 130.151 111.73L130.207 111.713C131.175 111.428 132.466 110.517 132.066 109.325C131.711 108.27 130.204 108.077 129.26 108.043C127.85 107.992 126.479 108.319 125.082 108.426C124.861 108.443 124.793 108.123 124.972 108.02ZM135.712 100.514C139.231 100.349 141.42 104.193 140.611 107.342C140.471 107.886 139.863 108.419 139.277 108.358L139.129 108.344C139.054 108.337 138.978 108.328 138.909 108.309C138.352 108.154 137.853 107.575 137.893 106.974L137.904 106.799C137.986 105.311 137.825 103.597 136.058 103.237C134.559 102.931 133.722 104.375 133.704 105.703C133.701 105.939 133.436 106.104 133.227 105.977C132.144 105.317 131.956 104.005 132.37 102.875C132.895 101.443 134.207 100.585 135.712 100.514ZM109.599 101.339C112.159 100.484 114.922 101.849 116.162 104.114C116.597 104.24 117.031 104.576 116.971 105.089C116.884 105.828 116.752 106.294 116.24 106.854C115.439 107.731 113.939 107.282 113.606 106.204L113.592 106.155C113.214 104.76 111.679 103.84 110.281 104.328C108.648 104.898 108.695 106.624 107.55 107.629C107.415 107.747 107.254 107.766 107.093 107.688C105.876 107.1 106.094 105.329 106.528 104.316C107.097 102.987 108.203 101.804 109.599 101.339ZM106.111 93.5593C108.186 91.4411 113.597 89.3915 115.017 93.3029C115.287 94.0479 114.711 95.0525 113.936 95.207C112.666 95.4598 111.54 94.9083 110.279 95.0073C109.257 95.0878 108.192 95.4291 107.376 96.0619C105.115 97.8144 104.618 100.779 103.042 103.009C102.966 103.118 102.817 103.072 102.803 102.944C102.444 99.6967 103.838 95.8791 106.111 93.5593ZM133.173 91.4741C134.55 90.9876 136.11 91.0292 137.494 91.4608C138.888 91.8958 140.169 92.7217 141.155 93.8009C141.602 94.2908 142.016 94.8314 142.348 95.4069C142.525 95.7119 142.71 96.3419 142.911 96.7171C143.996 97.3436 144.459 98.7713 143.488 99.787L143.444 99.8316L143.314 99.9605C142.792 100.477 142.005 100.701 141.292 100.495C139.698 100.033 139.504 98.7769 138.952 97.4433C138.587 96.5624 137.963 95.7829 137.205 95.2104C135.415 93.8577 132.48 93.4268 130.325 94.0642C130.21 94.0983 130.075 93.952 130.157 93.8459C130.566 93.3167 130.801 92.8824 131.348 92.4554C131.903 92.0222 132.508 91.7091 133.173 91.4741Z" fill="black"/>
<path fill-rule="evenodd" clip-rule="evenodd" d="M139.889 92.1487C144.848 92.1487 147.678 93.2155 148.715 93.2986L148.746 93.3008C149.177 93.3284 149.564 93.3645 149.97 93.5215C151.463 94.0967 151.706 95.6629 150.835 96.6499C150.774 98.6923 151.042 101.079 150.582 103.128C150.013 111.766 145.953 113.224 143.644 113.756C142.485 114.023 141.112 114.129 139.881 113.847C137.781 113.769 135.705 113.111 133.929 111.966C131.455 110.37 129.618 107.917 129.021 105.005C128.739 103.617 128.607 102.173 128.761 100.762L128.783 100.568C127.979 100.183 127.047 100.11 126.087 100.076C125.628 100.06 125.176 100.045 124.736 100.065C124.307 100.113 123.883 100.177 123.457 100.264C122.992 100.404 122.553 100.635 122.148 101.002L122.12 101.537C122.044 102.874 121.869 104.215 121.598 105.527C121.198 107.463 120.556 109.311 119.188 110.684C118.725 111.376 118.152 111.993 117.456 112.528C114.929 114.474 111.496 115.189 108.345 114.92C101.949 114.374 98.2515 109.294 97.3994 107.123L97.3485 106.991C96.733 105.377 96.2425 103.283 94.2975 102.936L93.8838 102.862C92.9963 102.695 92.1773 102.463 91.6569 101.597C91.4288 101.218 91.3114 100.795 91.2827 100.364C90.979 100.388 90.6758 100.41 90.3737 100.432C87.9635 100.941 73.507 101.374 72.353 101.374C72.353 101.374 70.1349 102.308 69.1985 101.584C68.5494 101.081 68.3358 100.41 68.6931 99.6505C69.2323 98.5074 71.7196 97.8198 72.8241 97.6021C72.8241 97.6021 90.6477 97.7502 91.9305 97.5069C92.7242 96.6881 94.144 96.8002 95.3303 96.6707C96.3124 95.9702 97.6863 95.5009 98.7716 95.1869C98.9928 95.103 99.2118 95.022 99.4247 94.9456C101.414 94.2367 103.482 93.8613 105.582 93.6597C107.747 93.4538 109.918 93.547 112.071 93.842C112.978 93.9651 113.876 94.1243 114.769 94.3324C116.366 94.5431 117.955 94.8902 119.553 95.3019L119.873 95.3851C121.556 95.8265 123.285 96.2083 125.027 95.909C126.446 95.667 127.81 95.121 129.118 94.5305L129.288 94.4532C132.163 93.1398 136.654 92.1487 139.889 92.1487ZM114.596 96.9511C113.535 96.7176 113.082 98.3541 114.146 98.5881C114.9 98.7539 115.538 99.1341 115.97 99.7783L116.015 99.8483C116.595 100.77 118.059 99.9192 117.476 98.9914C116.82 97.9472 115.8 97.2159 114.596 96.9511ZM145.67 95.9364C145.296 95.6728 144.73 95.8685 144.513 96.241C144.274 96.6511 144.431 97.1077 144.781 97.3761L144.817 97.4022C145.138 97.6288 145.451 98.0349 145.49 98.451L145.494 98.503C145.536 99.592 147.227 99.5975 147.185 98.503C147.144 97.4324 146.524 96.5379 145.67 95.9364Z" fill="black"/>
</g>
<defs>
<clipPath id="clip0_2016_14177">
<rect width="200" height="267" fill="white"/>
</clipPath>
</defs>
</svg>
