<svg width="200" height="267" viewBox="0 0 200 267" fill="none" xmlns="http://www.w3.org/2000/svg">
<g clip-path="url(#clip0_2016_14172)">
<rect width="200" height="267" fill="white"/>
<path fill-rule="evenodd" clip-rule="evenodd" d="M172.796 271.458C172.283 266.696 171.968 261.9 171.786 257.114C171.605 252.334 171.842 247.495 171.946 242.713C172.158 232.985 172.502 223.233 171.728 213.52C170.996 204.34 169.317 195.224 166.666 186.403C165.375 182.108 164.015 177.639 161.892 173.67C159.757 169.679 156.375 167.022 152.661 164.585C148.706 161.99 144.783 159.346 140.844 156.727C137.537 154.529 131.586 151.971 128.873 149.032C126.018 145.939 125.482 138.274 123.58 134.611C121.729 131.043 116.488 128.716 112.452 128.716C105.772 128.716 100.711 128.374 95.2188 134.556C92.4784 137.64 94.6588 140.758 91.7864 143.718C89.1455 146.439 82.3918 149.236 78.9881 150.816C74.9115 152.707 70.732 154.377 66.4918 155.864C62.1666 157.382 57.7323 158.513 53.3827 159.945C49.2135 161.318 43.7695 166.976 40.5329 169.969C37.5238 172.753 36.7771 172.441 34.4894 175.823C29.4689 183.243 24.4428 190.749 20.4448 198.784C18.4534 202.786 16.5251 206.996 15.8026 211.44C15.0319 216.181 15.7961 220.762 17.0459 225.352C18.3182 230.023 22.3582 234.47 23.6744 239.13C24.281 241.277 22.199 243.62 23.1566 245.643C23.6349 246.654 24.2373 247.554 24.923 248.434C25.4514 249.113 27.512 248.962 27.7786 249.793C28.048 250.631 26.5572 252.372 26.535 253.24C26.5035 254.482 26.4541 255.724 26.4133 256.966L26.1725 264.309C26.0142 269.135 25.856 273.961 25.6978 278.786C25.646 280.361 25.5706 281.9 25.9481 283.395C25.8118 283.269 25.6823 283.131 25.564 282.977C25.2178 282.524 24.4834 282.908 24.7773 283.437C25.2678 284.319 25.9732 284.941 26.8021 285.387C27.7652 286.808 173.629 289.98 174.347 285.827C174.75 283.497 174.017 281.003 173.724 278.688C173.419 276.276 173.056 273.875 172.796 271.458Z" fill="#FDC6A0"/>
<path fill-rule="evenodd" clip-rule="evenodd" d="M20.7871 202.146L171.441 210.386C171.549 211.43 171.645 212.474 171.728 213.52C172.502 223.233 172.158 232.985 171.946 242.713C171.918 244.002 171.88 245.296 171.844 246.591L156.982 249.046L51.3288 251.586L24.923 248.434L23.827 246.533L23.0677 243.225C23.3936 241.866 24.0503 240.46 23.6744 239.13C23.5648 238.742 23.4363 238.355 23.2922 237.97L23.4285 235.315L20.7871 202.146Z" fill="#FDEA6B"/>
<path fill-rule="evenodd" clip-rule="evenodd" d="M24.6256 211.449C24.9825 210.426 26.6147 210.869 26.2553 211.898C24.408 217.192 25.7185 222.952 27.7156 228.005C28.1164 229.019 26.4812 229.454 26.0859 228.454C23.9851 223.139 22.6853 217.008 24.6256 211.449M37.012 241.685C42.2219 242.418 47.436 242.87 52.6818 243.236C52.9163 243.253 53.1191 243.217 53.2944 243.141C53.1381 245.544 53.0113 247.949 52.912 250.354C51.4818 250.314 50.0219 250.409 48.6043 250.371C46.7515 250.32 44.9008 250.227 43.0522 250.086C39.4733 249.815 35.9008 249.384 32.362 248.788C31.0395 248.566 29.3599 248.431 27.8536 247.991C26.4296 247.575 25.162 246.886 24.4965 245.588C23.9303 244.489 23.8268 243.143 23.8268 241.928C23.8268 241.091 23.9705 240.241 24.0571 239.398C24.1649 239.322 24.262 239.231 24.3402 239.13C25.912 239.626 27.543 239.975 29.1402 240.313C31.7409 240.867 34.3796 241.315 37.012 241.685M34.0737 222.143C34.1025 223.758 34.5493 225.226 35.4187 226.586C36.0068 227.506 34.5434 228.353 33.9592 227.439C32.9358 225.838 32.4174 224.04 32.3836 222.143C32.3642 221.052 34.0543 221.056 34.0737 222.143M167.622 239.766C168.327 239.805 169.037 239.829 169.745 239.867C170.369 240.401 171.233 240.674 172.022 240.505C172.049 240.573 172.074 240.649 172.097 240.738C172.236 241.281 172.306 241.864 172.386 242.418C172.466 242.963 172.528 243.513 172.57 244.063C172.591 244.339 172.724 244.965 172.555 245.206C172.403 245.423 172.067 245.404 171.835 245.432C171.209 245.5 170.575 245.531 169.946 245.584C168.756 245.688 167.567 245.791 166.38 245.895C165.216 245.996 163.937 245.965 162.799 246.271C162.604 243.986 162.427 241.702 162.262 239.415C164.026 239.675 165.87 239.668 167.622 239.766M19.7092 235.976C20.4191 237.348 21.074 238.696 22.4325 239.52C22.6099 239.626 22.8085 239.683 23.0113 239.698C22.8592 240.351 22.7641 241.019 22.6796 241.636C22.4937 242.995 22.4536 244.401 22.7937 245.74C23.1254 247.045 23.6747 248.209 24.7522 249.044C25.2529 249.433 25.8001 249.729 26.3747 249.963C26.2775 250.236 26.2205 250.507 26.2501 250.805C26.1127 251.496 26.0219 252.2 25.9226 252.874C25.705 254.37 25.4874 255.868 25.3163 257.373C24.974 260.366 24.7057 263.359 24.4796 266.362C24.2536 269.357 24.0909 272.356 23.9557 275.357C23.886 276.892 23.8247 278.426 23.7677 279.962C23.7106 281.541 23.455 283.156 24.1522 284.621C24.7141 285.804 26.6134 285.736 27.1965 284.621C27.936 283.202 27.7184 281.518 27.7374 279.962C27.7564 278.498 27.7818 277.031 27.8134 275.566C27.8768 272.567 27.9698 269.57 28.0437 266.571C28.1156 263.644 28.2043 260.719 28.2634 257.792C28.293 256.259 28.2951 254.727 28.3036 253.195C28.3078 252.345 28.3437 251.439 28.2803 250.553C28.8085 250.678 29.3409 250.783 29.867 250.891C33.8832 251.715 37.9416 252.316 42.0254 252.688C44.0768 252.874 46.1346 253.005 48.1923 253.079C49.705 253.134 51.2726 253.239 52.8085 253.182C52.6881 256.851 52.6332 260.522 52.6395 264.194C52.6437 266.842 52.6796 269.49 52.7451 272.138C52.781 273.531 52.8106 274.924 52.8529 276.317C52.8719 276.942 52.8719 277.574 52.9141 278.198C52.9268 278.392 52.9543 278.58 52.9902 278.766C52.8508 279.162 52.7346 279.552 52.6395 279.918C52.1747 281.693 52.1747 283.399 52.3818 285.208C52.5592 286.742 53.8501 288.165 55.555 287.626C55.8318 287.539 56.1085 287.448 56.3832 287.355C58.893 287.641 61.4177 287.706 63.9634 287.755C67.6839 287.827 71.4064 287.85 75.1289 287.869C82.4303 287.907 89.7339 287.926 97.0374 287.947C111.714 287.989 126.391 288.03 141.068 288.072C145.141 288.085 149.214 288.095 153.287 288.108C155.396 288.114 157.5 288.116 159.606 288.197C160.589 288.235 161.573 288.288 162.556 288.302C163.694 288.321 164.702 287.994 165.79 287.696C166.405 287.524 166.648 286.907 166.517 286.385C167.501 286.62 168.695 286.121 169.031 285.012C169.276 284.206 169.185 283.333 168.82 282.587V282.585C168.114 278.128 167.218 273.692 166.515 269.232C165.744 264.348 165.002 259.453 164.349 254.55C163.859 250.847 163.456 253.472 163.107 249.752C164.626 249.87 166.344 249.408 167.848 249.211C168.928 249.072 170.016 248.959 171.097 248.811C171.017 249.902 171.04 251.014 171.011 252.06C170.954 254.137 170.979 256.207 171.032 258.284C171.133 262.293 171.359 259.96 171.72 263.953C172.086 267.975 172.534 271.982 173.077 275.985C173.356 278.046 173.654 280.104 173.968 282.16C174.114 283.12 174.264 284.078 174.418 285.037C174.602 286.168 174.661 287.239 175.509 288.089C176.153 288.733 177.469 288.678 177.896 287.78C178.437 286.645 178.192 285.673 177.991 284.481C177.828 283.524 177.672 282.566 177.518 281.609C177.188 279.557 176.875 277.502 176.582 275.446C176.016 271.483 175.481 267.514 175.004 263.541C174.522 259.535 174.023 261.875 173.55 257.87C173.311 255.849 173.073 253.833 172.794 251.819C172.652 250.783 172.563 249.68 172.378 248.613C172.437 248.604 172.496 248.594 172.555 248.583C173.84 248.349 174.936 247.624 175.259 246.301C175.568 245.035 175.2 243.578 174.94 242.336C174.718 241.277 174.518 239.926 173.837 239.019C176.237 235.961 177.798 232.113 178.794 228.413C179.878 224.382 180.332 220.175 180.428 216.01C180.54 211.184 180.176 206.387 179.35 201.668C179.33 200.669 179.284 199.669 179.21 198.671C178.483 188.873 175.432 177.276 165.761 172.698C165.723 172.679 165.682 172.662 165.642 172.645C164.884 171.738 163.937 170.922 163.173 170.16C161.818 168.807 160.403 167.513 158.903 166.321C155.932 163.961 152.675 162.076 149.288 160.378C145.863 158.66 142.388 157.048 139.042 155.173C136.126 153.537 133.502 151.567 131.011 149.344C128.212 146.843 126.22 143.472 125.438 139.793C125.398 139.601 125.113 139.653 125.109 139.837C124.904 146.581 129.454 152.541 134.692 156.312C140.954 160.816 148.515 162.948 154.866 167.315C156.444 168.399 157.92 169.623 159.325 170.922C157.173 170.703 154.982 170.842 152.964 171.438C152.17 171.39 151.371 171.375 150.575 171.337C148.754 171.246 146.93 171.162 145.107 171.081C141.391 170.916 137.673 170.766 133.954 170.635C126.659 170.377 119.362 170.183 112.065 170.054C97.4008 169.794 82.7177 169.743 68.0557 170.168C64.0796 170.282 43.1726 169.49 41.2374 169.714C44.0832 167.249 47.2057 165.237 50.6388 163.582C54.9339 161.517 59.3726 160.139 63.9592 158.88C73.405 156.286 83.2141 153.786 90.7733 147.198C92.6515 145.56 94.3205 143.678 95.6874 141.592C96.993 139.601 98.4444 137.052 98.4803 134.623C98.5057 132.899 96.1057 132.271 95.2522 133.748C94.7219 134.663 94.4599 135.667 94.0268 136.627C93.5958 137.578 93.0846 138.495 92.5163 139.372C91.3987 141.097 90.0127 142.635 88.5043 144.024C85.2888 146.987 81.393 149.158 77.362 150.8C68.2099 154.526 58.2001 156.098 49.5275 161.01C45.7332 163.16 42.1015 166.125 39.8219 169.908C39.4543 169.965 39.0888 170.033 38.7233 170.109C38.9958 169.764 39.2705 169.42 39.5472 169.077C39.7289 168.853 39.448 168.558 39.2261 168.756C34.9141 172.594 30.9423 176.739 27.3423 181.258C23.8987 185.582 20.6874 190.113 18.4141 195.177C14.3282 204.274 13.4282 214.678 15.5388 224.405C16.1134 227.055 16.9247 229.65 17.9578 232.159C18.4902 233.455 19.067 234.731 19.7092 235.976" fill="black"/>
<path fill-rule="evenodd" clip-rule="evenodd" d="M112.683 46.281C124.654 46.281 139.647 59.9703 144.035 65.7957C147.724 70.6934 147.202 95.9245 147.202 110.892C147.202 114.022 145.79 119.946 145.278 122.941C143.4 133.913 135.22 143.115 119.029 143.115C105.846 143.115 95.7006 138.929 85.89 128.222C83.6517 125.779 72.721 134.524 70.4855 131.375C64.6464 131.375 59.764 76.6821 71.2282 60.2774C82.6924 43.8728 100.713 46.281 112.683 46.281Z" fill="#FDC6A0"/>
<path fill-rule="evenodd" clip-rule="evenodd" d="M76.7046 50.1333C83.6217 43.8245 92.8367 40.7895 102.134 41.0136C106.949 41.1298 111.747 42.0492 116.295 43.6237C118.57 44.4142 120.773 45.4456 122.879 46.6122C123.638 47.0317 124.337 47.5232 125.011 48.0451L125.179 48.1762H125.181C126.988 48.8272 128.601 49.996 130.064 51.3634C132.996 51.1288 135.952 51.393 138.787 52.2997C142.734 53.5635 146.388 55.8778 148.953 59.1643C151.942 62.9904 152.935 67.6315 152.581 72.4224L152.515 73.2363C152.165 77.4686 151.537 82.9122 148.072 85.693C147.809 85.9044 147.518 86.065 147.216 86.1622C149.449 89.9961 151.281 94.2527 152.377 98.5516C156.562 114.971 153.345 132.095 148.312 147.921C147.899 149.225 145.932 150.091 144.931 148.817C143.143 146.539 140.546 144.801 137.624 144.476C135.821 144.275 134.027 144.639 132.324 143.819C131.655 143.495 131.01 142.967 130.546 142.324C127.671 143.417 124.574 143.933 121.502 143.806C116.461 143.599 111.073 141.849 107.605 138.011C107.048 137.395 106.907 136.703 107.035 136.079C107.47 135.924 107.917 135.808 108.377 135.735C112.775 138.334 117.622 140.07 122.832 140.179C125.842 140.242 128.779 139.82 131.22 137.936C131.748 137.528 132.233 137.076 132.682 136.591C137.786 133.3 141.384 127.71 143.095 121.722C144.688 116.138 144.492 110.324 143.944 104.596L143.655 101.574C143.233 97.1377 142.842 92.6884 142.733 88.2334L142.766 88.2318V88.2318C143.844 88.162 143.851 86.4706 142.766 86.541C139.958 86.7231 137.171 86.2613 134.372 86.4625C134.349 85.1359 134.253 83.8152 133.864 82.5357C133.642 81.8046 132.373 81.6605 132.238 82.5357C132.058 83.7065 131.992 84.8709 131.973 86.047C127.783 85.9912 123.598 85.6379 119.408 85.7831C118.635 84.9567 118.389 83.4914 118.028 82.472C117.975 82.322 117.922 82.174 117.868 82.024C117.55 83.4806 117.1 84.9053 116.507 86.3L115.48 86.3035C109.649 86.3309 103.7 86.5056 98.0074 87.7194C97.6116 87.4149 97.3761 86.8836 97.3125 86.401C96.8995 83.2613 96.3101 80.205 95.2656 77.2129L95.1161 76.7907C95.1039 76.7557 95.0911 76.7185 95.0776 76.6793C94.3078 77.9248 93.3895 79.0858 92.3879 80.1668C91.7976 80.8041 91.1786 81.4134 90.5434 82.0054C89.9263 82.6923 89.2886 83.3688 88.6705 84.0578C88.6947 84.1831 88.7158 84.3104 88.7329 84.4399C88.922 85.8697 88.9416 87.3198 88.8031 88.7551C88.5526 91.3498 87.8219 93.8501 86.6481 96.1631L86.6109 96.3947C86.4327 97.4787 86.179 98.5989 85.5868 99.4151C86.3259 100.245 86.8953 101.237 87.2255 102.339C87.5194 103.32 86.1657 104.17 85.4637 103.367C84.906 102.729 84.2864 102.202 83.6059 101.781C83.5629 101.839 83.4853 101.868 83.3982 101.819C81.5029 100.764 78.2837 101.084 76.3905 102.077C74.0356 103.311 73.1165 105.845 73.3779 108.413C73.6287 110.867 74.6997 113.735 76.7763 114.993C77.7292 115.569 78.4713 115.618 79.4833 115.341C79.8068 115.253 80.208 114.983 80.3801 114.849L80.5496 114.713C81.213 114.187 81.8308 113.827 82.614 113.813C83.4149 113.563 84.2199 113.91 84.5262 114.752L84.5451 114.807C84.6885 115.236 84.9499 115.775 84.893 116.43C84.8339 117.131 84.5135 117.77 84.0349 118.283C83.9527 118.372 83.8642 118.461 83.7735 118.543C92.0166 127.49 93.075 141.43 88.848 152.607C88.6646 153.097 88.4685 153.581 88.264 154.061C87.5578 155.705 84.8381 155.196 84.4924 153.566C84.3891 153.078 84.2753 152.592 84.1509 152.11C83.9222 151.219 83.6603 150.337 83.3651 149.468L83.2528 149.142C83.0019 148.424 82.7679 147.699 82.5149 146.98L82.4896 146.898C82.4801 146.866 82.4696 146.828 82.458 146.786L82.03 147.722V147.722L80.7292 150.548C80.1205 151.867 78.1866 151.15 78.1147 149.879L78.1129 149.836C78.1066 149.601 78.0982 149.369 78.0834 149.138C77.9907 147.412 77.6934 145.733 77.2212 144.091L77.0508 144.303C74.5138 147.448 71.5363 150.395 67.4517 151.121C66.4271 151.302 65.2676 150.229 65.9717 149.191C66.2626 148.762 66.543 148.322 66.8087 147.876C66.5789 147.769 66.3617 147.657 66.1614 147.543C64.6119 146.67 63.3217 145.427 62.2549 144.017C59.9928 141.029 59.1832 137.267 58.9851 133.585C58.7742 129.694 59.1158 125.592 60.1762 121.838C60.6358 120.215 61.2577 118.657 61.9766 117.146C61.926 117.011 61.8775 116.876 61.829 116.74C61.0532 114.572 60.4165 112.355 59.8874 110.112C58.8206 105.585 58.2472 100.914 58.1776 96.2626C58.0511 87.9291 59.4847 79.4624 62.5058 71.6911C65.626 63.6767 70.3188 55.956 76.7046 50.1333ZM72.8192 122.994C72.2463 122.09 70.8127 122.905 71.3447 123.816L71.3645 123.848C72.2732 125.283 72.699 126.915 73.2219 128.515C73.5571 129.544 75.1867 129.104 74.8473 128.065L74.7349 127.717C74.2147 126.095 73.7401 124.446 72.8192 122.994ZM77.8093 105.731L78.19 105.546C79.3907 104.972 80.4427 104.581 81.8613 105.082C83.7608 105.752 85.7953 107.885 84.5114 109.954C84.0391 110.717 83.2001 111.021 82.3357 110.842C80.8785 110.539 80.5024 109.223 79.763 108.143L79.6357 107.96C79.1849 107.307 78.6147 106.404 77.8642 106.147C77.6934 106.088 77.6217 105.822 77.8093 105.731ZM78.88 61.8001L79.0026 61.69C79.8185 60.9671 78.621 59.7751 77.8093 60.4937C74.0947 63.7844 72.8044 68.935 70.8775 73.3248C70.4453 74.3118 71.8979 75.1741 72.3343 74.1786C74.1724 69.9898 75.3924 64.979 78.88 61.8001V61.8001ZM123.52 60.3606C122.549 59.9221 121.7 61.3381 122.633 61.8044L122.668 61.821C125.948 63.3068 127.344 66.6715 128.681 69.7952C129.107 70.7928 130.559 69.9326 130.137 68.9435L129.896 68.383C128.502 65.1638 126.875 61.8826 123.52 60.3606ZM128.662 58.3274C127.633 57.9702 127.192 59.6018 128.213 59.959C130.993 60.9291 132.901 63.0215 134.51 65.414C135.113 66.3101 136.574 65.4647 135.965 64.5601C134.097 61.783 131.879 59.4518 128.662 58.3274Z" fill="black"/>
<path fill-rule="evenodd" clip-rule="evenodd" d="M123.152 128.274C121.731 127.695 120.464 126.728 119.538 125.493C119.216 125.063 119.132 124.61 119.2 124.195C119.276 123.729 119.552 123.306 119.928 123.023C120.305 122.739 120.777 122.598 121.233 122.67C121.629 122.732 122.024 122.949 122.336 123.399L122.401 123.489C122.952 124.235 123.67 124.846 124.488 125.241C125.276 125.621 126.157 125.798 127.07 125.695C128.807 125.499 130.005 124.559 131.278 123.282C131.435 123.121 131.593 122.955 131.752 122.786C131.852 122.633 131.991 122.534 132.145 122.483C132.317 122.425 132.511 122.429 132.688 122.491C132.859 122.55 133.013 122.664 133.115 122.815C133.213 122.958 133.268 123.135 133.25 123.339C133.134 124.661 132.442 125.842 131.46 126.769C130.37 127.799 128.924 128.511 127.563 128.761C126.063 129.036 124.535 128.839 123.152 128.274V128.274ZM128.27 107.866C129.866 108.836 132.296 111.098 130.58 113.503C128.56 115.624 125.651 113.193 124.218 112.093C122.889 111.241 121.396 113.433 122.629 114.428C132.986 122.099 137.189 108.12 129.077 106.726C128.184 106.572 127.852 107.566 128.27 107.866ZM109.71 98.9429C109.886 96.7541 113.219 96.257 113.55 98.423C113.847 100.363 113.498 102.145 112.624 103.892C111.789 105.561 109.691 104.783 109.533 103.263C109.32 101.226 109.601 100.304 109.71 98.9429ZM135.076 97.9739C135.54 97.3652 136.211 96.9497 137.015 97.1845C139.526 97.9185 138.786 101.485 137.904 103.22C137.425 104.163 135.876 104.402 135.176 103.572C134.035 102.219 133.489 99.5157 134.939 98.1825C134.978 98.1136 135.022 98.044 135.076 97.9739ZM112.589 89.3654L112.985 89.2959C114.212 89.0836 115.738 88.8796 116.606 89.8665C117.066 90.3898 117.225 91.3624 116.606 91.8633C115.517 92.7446 114.314 92.4031 113.01 92.4777C111.935 92.5394 110.902 92.7174 109.866 93.0135C107.595 93.6629 105.744 94.8486 103.804 96.1505C103.549 96.3213 103.289 95.9956 103.411 95.7574C104.531 93.563 106.701 91.7604 108.875 90.6616C110.035 90.0751 111.305 89.5885 112.589 89.3654ZM132.787 88.3823L133.09 88.4445C136.394 89.1353 140.686 90.5153 142.251 93.7615C142.31 94.2205 142.247 94.3189 142.196 94.3832L142.179 94.4046C142.137 94.4595 142.103 94.5351 141.904 94.5976C141.849 94.5844 141.793 94.5705 141.737 94.5557C141.02 94.3677 140.453 94.1087 139.903 93.84L139.308 93.5465C138.617 93.2076 137.92 92.881 137.181 92.6399C135.604 92.1255 133.983 91.7631 132.336 91.5696C131.979 91.5277 131.636 91.4072 131.364 91.2006C131.107 91.0046 130.91 90.7332 130.821 90.3724C130.705 89.9056 130.738 89.5521 130.988 89.1309C131.177 88.8146 131.446 88.5953 131.755 88.4694C132.071 88.3411 132.43 88.3108 132.787 88.3823Z" fill="black"/>
<path fill-rule="evenodd" clip-rule="evenodd" d="M146.085 109.758C144.663 111.67 142.026 112.279 139.593 112.068C134.347 111.563 132.696 105.603 132.524 100.97C136.042 101.96 132.227 94.9489 144.252 94.1779C148.491 93.8246 147.322 96.3857 149.195 98.257C149.157 102.184 148.503 106.452 146.085 109.758M121.098 105.245C118.001 119.755 101.041 116.304 99.2595 103.224C100.905 102.063 100.471 99.1943 102.515 98.1551C105.754 96.0847 109.803 96.1733 113.482 96.2219C118.184 96.5451 119.523 98.4935 121.939 100.619C121.822 102.039 121.487 103.722 121.098 105.245M152.804 91.7749C152.63 91.7459 152.456 91.7187 152.282 91.6931C152.146 91.616 151.986 91.5566 151.801 91.5208C151.377 91.4133 150.957 91.3408 150.537 91.3017C144.509 89.9446 130.564 91.8715 129.988 97.0174C128.069 97.6585 126.408 97.0844 124.183 97.1415C122.489 90.0602 93.2111 91.0597 91.803 95.329C91.7977 95.3275 91.7924 95.3262 91.7869 95.3245C90.434 94.9056 88.4394 95.0066 86.8908 94.9403C83.5843 94.871 80.2739 95.1658 77.0388 95.8635C70.9807 96.8266 62.7127 97.9541 66.926 105.522C66.9269 105.523 66.9275 105.525 66.9286 105.526L66.9292 105.526C67.6553 106.27 68.8876 105.671 68.9335 104.663C67.5169 101.077 70.7164 100.647 73.1781 99.6164C79.3033 97.415 85.5395 97.1098 91.8746 97.7908C92.3512 98.3521 93.0744 98.8416 93.8388 99.0978C98.0745 99.8011 95.8422 102.944 98.5196 103.401C98.0278 114.358 111.325 120.339 119.03 113.136C122.106 110.128 122.839 105.671 123.553 101.653C123.93 101.568 124.17 101.362 124.31 101.089C125.217 100.183 125.786 99.3465 127.58 99.0978C129.373 98.8492 130.754 99.3482 130.941 99.501C130.988 99.5959 131.038 99.691 131.097 99.7861C131.179 99.9279 131.291 100.041 131.417 100.13C129.646 111.041 138.113 117.941 146.661 112.282C150.375 108.787 151.16 103.436 151.315 98.6598C151.818 98.3559 152.137 97.7669 151.963 97.0263C151.723 96.0055 152.286 95.1216 153.183 94.6778C154.349 94.1014 154.142 91.9966 152.804 91.7749" fill="black"/>
</g>
<defs>
<clipPath id="clip0_2016_14172">
<rect width="200" height="267" fill="white"/>
</clipPath>
</defs>
</svg>
