<svg width="200" height="267" viewBox="0 0 200 267" fill="none" xmlns="http://www.w3.org/2000/svg">
<g clip-path="url(#clip0_2016_14168)">
<rect width="200" height="267" fill="white"/>
<rect x="108.451" y="194.02" width="48.3803" height="59.6008" fill="#FDEA6B"/>
<path fill-rule="evenodd" clip-rule="evenodd" d="M94.3394 135.724C99.5546 131.751 112.647 129.964 118.214 133.789C123.711 137.631 124.31 143.843 126.872 149.557C129.289 148.417 133.281 150.05 133.982 152.294C134.851 153.352 134.89 156.325 135.489 157.748C161.569 161.9 165.528 182.24 168.667 205.332C172.82 228.764 182.247 252.145 178.154 276.258C178.687 277.029 179.108 277.78 179.497 278.671C180.428 280.256 179.228 282.501 177.349 282.414C174.918 282.2 172.51 281.908 170.066 281.817C163.293 281.582 156.514 281.61 149.738 281.696L148.814 281.708C114.666 282.134 80.5204 282.972 46.3711 283.194C45.1322 283.196 44.5257 282.084 44.6911 280.988C45.0243 278.78 45.3334 276.571 45.656 274.363C37.5788 276.497 28.992 277.034 20.9377 274.587C20.3742 274.013 22.2505 274.324 22.5482 274.237C15.1356 269.17 17.3493 258.495 18.0059 250.807C22.0889 224.462 23.5282 195.313 39.3034 172.832C46.1279 163.658 56.1334 156.394 67.6303 154.76L67.9493 154.716C71.311 154.268 75.0576 154.123 77.9968 152.294C81.3026 149.654 82.7113 144.775 86.1891 144.73C87.3375 144.715 88.8997 146.168 90.5808 147.155C90.7063 144.984 91.8756 143.152 92.1338 141.469L92.1547 141.325C92.4241 139.363 92.0551 137.598 94.3394 135.724ZM150.386 206.028C143.057 200.935 124.125 203.494 123.691 203.779C122.737 204.407 122.326 204.463 121.81 205.278C121.301 205.346 120.791 205.416 120.283 205.488C119.262 205.822 120.018 207.078 121.197 206.629C120.488 209.689 122.575 211.864 123.406 214.888C123.675 215.87 123.415 217.637 123.406 218.64C123.486 219.919 124.9 221.43 124.664 222.714C123.827 227.277 119.281 231.728 121.197 236.153C122.467 238.652 126.286 239.926 128.825 240.776C134.085 242.796 143.251 240.7 146.307 236.153C147.938 233.727 149.826 227.609 150.798 225.711L151.014 222.701C151.545 215.218 152.018 207.162 150.386 206.028Z" fill="#FDC6A0"/>
<path fill-rule="evenodd" clip-rule="evenodd" d="M85.9179 144.743L88.0154 146.031L100.197 152.055C102.558 152.716 103.739 153.509 103.739 154.433V163.842C103.739 165.101 105.955 167.955 110.387 172.403L114.482 168.32L114.39 167.785C114.001 165.481 113.806 163.94 113.806 163.162C113.806 162.325 117.812 159.147 125.824 153.629L129.329 150.327L128.955 149.19C131.117 149.293 133.46 150.624 133.982 152.294C134.851 153.352 134.89 156.325 135.489 157.748C161.569 161.9 165.528 182.24 168.667 205.332C172.82 228.764 182.247 252.145 178.154 276.258C178.687 277.029 179.108 277.78 179.497 278.671C180.428 280.256 179.228 282.501 177.349 282.414C174.918 282.2 172.51 281.908 170.066 281.817C163.293 281.582 156.514 281.61 149.738 281.696L148.814 281.708C114.666 282.133 80.5204 282.972 46.3711 283.194C45.1322 283.196 44.5257 282.084 44.6911 280.988C45.0243 278.78 45.3334 276.571 45.656 274.363C37.5788 276.497 28.992 277.034 20.9377 274.587C20.3742 274.013 22.2505 274.324 22.5482 274.237C15.1356 269.17 17.3493 258.495 18.0059 250.807C22.0889 224.462 23.5282 195.313 39.3034 172.832C46.1279 163.658 56.1334 156.394 67.6303 154.76L67.9493 154.716L68.2706 154.674C71.5481 154.257 75.1509 154.065 77.9968 152.294C81.2153 149.723 82.6356 145.031 85.9179 144.743ZM115.106 199.97C113.911 199.97 111.464 201.827 107.765 205.539L107.44 205.689C102.968 207.767 100.006 209.57 98.5529 211.097L98.5011 211.152C97.0333 212.727 94.1265 216.916 89.781 223.718L83.488 227.441H81.1069L79.4117 239.743L83.488 248.526L92.7212 245.415L107.765 241.448L116.398 232.686L121.268 231.051C120.677 232.759 120.463 234.457 121.197 236.153C122.467 238.652 126.286 239.926 128.825 240.776C134.085 242.796 143.251 240.7 146.307 236.153C147.938 233.727 149.826 227.609 150.798 225.711L151.077 221.801C151.58 214.584 151.952 207.117 150.386 206.028C143.057 200.935 124.125 203.494 123.691 203.779C122.737 204.407 122.326 204.463 121.81 205.278L121.543 205.314L123.045 203.275L122.513 202.991C118.717 200.977 116.248 199.97 115.106 199.97ZM121.197 206.629C120.518 209.558 122.402 211.677 123.293 214.506L121.017 210.147L121.017 206.686C121.076 206.672 121.136 206.653 121.197 206.629Z" fill="#9DDADB"/>
<path fill-rule="evenodd" clip-rule="evenodd" d="M84.9119 144.289C85.4179 143.84 86.1667 144.403 85.8451 145.009C85.1226 146.37 84.3814 147.659 83.4117 148.862C82.8238 149.592 82.194 150.282 81.5557 150.964C83.1937 152.381 84.5984 154.141 85.925 155.791C87.6212 157.9 89.225 160.099 91.1291 162.029C93.007 163.933 95.0835 165.264 97.5941 166.151L98.1012 166.327C100.623 167.213 103.319 168.409 104.741 170.798C105.021 171.269 104.457 171.851 103.982 171.557C101.512 170.027 98.609 169.719 95.92 168.708C93.3225 167.732 91.0581 166.229 89.0574 164.31C87.0601 162.395 85.3831 160.216 83.6338 158.083C81.9039 155.974 80.0414 154.173 77.9952 152.388C74.8377 154.513 71.2335 155.438 67.5687 156.346L67.1686 156.445C63.4993 157.354 59.8497 158.409 56.4073 159.992C53.3722 161.387 50.387 163.053 47.9147 165.323C45.2904 167.733 43.2478 170.81 41.3783 173.819C37.1965 180.552 34.2565 187.928 31.6683 195.394C28.9763 203.159 26.7246 211.08 24.9069 219.096C23.9823 223.172 23.2315 227.278 22.6144 231.413C22.3173 233.404 22.0535 235.4 21.8217 237.4C21.5743 239.536 21.5175 241.733 20.8626 243.786C20.5818 244.666 19.9188 245.032 19.2552 245.001L19.1205 246.687C18.9417 248.935 18.7751 251.184 18.7188 253.446C18.6255 257.208 18.6678 260.959 18.9383 264.713L18.9766 265.224C19.1891 267.964 19.664 271.042 21.7233 273.048C23.8558 275.126 27.1353 275.779 30.0096 275.816C36.704 275.904 43.1481 272.739 49.0721 269.963C55.1731 267.104 61.1074 263.931 66.8995 260.489C69.8492 258.736 72.767 256.925 75.6476 255.061C77.0612 254.146 78.4649 253.216 79.858 252.271C80.6559 251.729 81.4121 251.136 82.2244 250.655C81.8264 250.284 81.6487 249.702 81.9821 249.193C79.6338 247.154 78.6565 243.515 78.5422 240.57C78.4499 238.194 78.7995 235.824 79.0755 233.47C79.2147 232.283 79.3867 231.097 79.5652 229.916C79.6357 229.449 79.6896 228.949 79.772 228.456C73.4312 231.942 66.9128 235.047 60.2217 237.804C56.792 239.218 53.3183 240.489 49.7967 241.654L49.0829 241.889C45.7462 242.982 42.3296 244.014 38.8801 244.638C38.6957 244.672 38.5459 244.399 38.7428 244.313C42.1045 242.829 45.5826 241.577 48.9947 240.21L49.5555 239.982V239.982C49.491 239.978 49.4243 239.97 49.3545 239.953C47.3534 239.47 45.3679 238.725 43.4052 238.098C41.5837 237.516 39.5371 237.151 37.8345 236.273C37.7035 236.205 37.7769 236.023 37.9045 236.014C39.8181 235.881 41.8955 236.439 43.7718 236.768L44.4766 236.891C45.6574 237.099 46.8644 237.323 48.0394 237.615C48.0819 237.222 48.3018 236.826 48.6147 236.594C52.0577 234.043 51.7081 228.892 52.0763 225.093L52.3494 222.272C52.8297 217.336 53.3378 212.401 54.1097 207.501C54.1509 207.24 54.5555 207.315 54.5572 207.562C54.597 213.635 54.1388 219.68 53.9091 225.744L53.8735 226.738C53.7465 230.48 53.647 234.365 51.2914 237.244C51.6208 237.051 52.0662 237.051 52.333 237.369C52.6609 237.759 52.8502 238.197 52.8443 238.627C54.9728 237.735 57.092 236.819 59.2009 235.884C65.9811 232.879 72.6191 229.516 79.0816 225.878C79.7771 225.486 80.4381 225.794 80.7821 226.31L80.8317 226.303C80.84 226.302 80.8484 226.301 80.8571 226.301L80.9063 226.299C80.9082 226.299 80.9101 226.299 80.9118 226.299C81.8215 225.799 83.0608 226.155 83.8414 226.884C83.8645 226.906 83.8841 226.93 83.9046 226.953C84.8929 226.509 85.8157 225.91 86.6532 225.151C88.367 223.597 89.8186 221.676 91.0841 219.749C93.4146 216.2 95.3942 212.254 98.5423 209.333C101.1 206.96 104.271 205.482 107.598 204.555C107.584 204.458 107.621 204.354 107.688 204.285C107.859 204.11 107.981 204.049 108.202 204.156C108.22 204.164 108.23 204.176 108.237 204.189L108.562 203.634C108.739 203.333 108.921 203.03 108.984 202.95C109.362 202.474 109.751 202.002 110.145 201.54C110.814 200.757 111.577 199.985 112.46 199.442C114.393 198.254 116.425 198.926 118.412 199.576C119.613 199.968 120.81 200.373 122.009 200.772L122.132 200.812C123.026 201.099 124.072 201.351 124.472 202.298C124.63 202.673 124.655 203.062 124.581 203.44C133.071 201.28 142.5 202.272 150.784 204.807C151.102 204.905 151.42 205.166 151.487 205.51C152.436 210.38 152.859 215.374 152.429 220.326C152.059 224.602 151.112 228.791 149.327 232.705L149.226 232.926C147.549 236.554 144.891 241.025 140.832 242.162C138.381 242.848 135.67 242.444 133.171 242.318C130.741 242.195 128.258 242.178 125.852 241.796C123.709 241.455 121.831 240.494 120.507 238.751C119.364 237.247 118.762 235.43 118.269 233.621C118.044 233.693 117.82 233.77 117.599 233.856C116.668 234.22 115.879 234.807 115.166 235.498C113.66 236.957 112.491 238.729 110.916 240.121C109.489 241.382 107.864 242.362 106.12 243.116C102.507 244.678 98.6312 245.302 94.8095 246.129L94.543 246.187C91.6659 246.819 88.7293 247.594 86.1899 249.093C86.1402 249.534 85.9393 249.949 85.6174 250.221C86.0652 250.642 86.255 251.308 85.8614 251.933C84.762 253.679 82.8682 254.672 81.1682 255.788L81.0576 255.861C79.3852 256.97 77.6982 258.057 75.9975 259.122C72.5401 261.288 69.0105 263.334 65.4309 265.29C59.6737 268.437 53.7928 271.405 47.8055 274.097C48.1649 275.866 48.0336 277.689 48.3037 279.47L48.3451 279.724C48.4605 280.385 48.3046 280.937 47.8496 281.369L47.8015 281.413L47.8024 281.408L47.7597 281.447L47.7454 281.459L47.7502 281.455C47.6977 281.503 47.6436 281.548 47.5885 281.586L47.5182 281.631V281.631C47.08 281.898 46.5158 281.894 46.0671 281.659L46.0159 281.631L45.9297 281.582C45.3369 281.241 44.9281 280.395 45.174 279.724C45.7784 278.074 46.0068 276.312 46.565 274.651L46.1221 274.849V274.849L45.5385 275.104C39.2263 277.834 32.2146 280.134 25.337 278.272C22.2981 277.45 19.4578 275.709 17.9373 272.873C16.4412 270.082 16.2297 266.841 16.1502 263.736C16.0522 259.904 16.2576 256.014 16.7627 252.215C17.1018 249.664 17.5119 247.066 18.1444 244.542C17.819 244.255 17.5799 243.843 17.5167 243.333C17.2182 240.923 17.7407 238.417 18.0605 236.019C18.373 233.677 18.7182 231.341 19.1086 229.011C19.8969 224.307 20.8127 219.612 21.879 214.963C23.7766 206.688 26.2824 198.561 29.2993 190.627L29.5635 189.936C32.3513 182.685 35.5791 175.589 40.0738 169.219C42.2238 166.171 44.4966 163.408 47.5347 161.212C50.3809 159.154 53.5913 157.672 56.9044 156.54C60.2211 155.407 63.6301 154.647 67.0993 154.175C70.6226 153.695 74.3416 153.401 77.6283 151.955C77.2125 151.21 77.5693 150.203 78.269 149.741C80.6238 148.184 82.8014 146.159 84.9119 144.289ZM160.293 211.967C160.392 211.818 160.626 211.912 160.583 212.09C159.438 216.783 158.363 221.487 157.661 226.27C156.393 234.904 156.626 243.65 156.73 252.348L156.735 252.797C156.788 257.482 156.862 262.168 157.017 266.85C157.095 269.217 157.25 271.607 157.166 273.975C157.12 275.26 156.778 276.475 156.657 277.744C156.55 278.854 156.645 279.981 156.698 281.092C156.734 281.831 155.643 281.799 155.569 281.092L155.474 280.177C155.351 279.019 155.199 277.868 154.82 276.76C154.364 275.427 154.145 274.118 153.986 272.718C153.744 270.573 153.636 268.407 153.543 266.248L153.479 264.754C153.088 255.728 153.102 246.66 153.734 237.644L153.78 237C154.407 228.478 155.493 219.27 160.293 211.967ZM135.88 158.253C135.581 158.13 135.686 157.678 136.017 157.757L136.62 157.9C141.034 158.958 145.368 160.104 149.489 162.072C153.611 164.042 157.102 166.982 159.876 170.597C165.267 177.625 167.508 186.166 169.276 194.698C171.242 204.18 173.032 213.696 175.014 223.174L175.383 224.94C177.217 233.768 178.949 242.601 180.226 251.533L180.317 252.181C181.604 261.367 182.379 270.87 180.974 280.08C180.696 281.902 177.666 281.448 177.784 279.648C178.126 274.444 178.371 269.267 178.135 264.052C177.898 258.835 177.408 253.641 176.679 248.47C176.066 244.118 175.151 239.82 174.342 235.503L174.215 234.821C173.537 231.149 172.838 227.481 172.141 223.813L171.099 218.32C169.538 210.096 167.946 201.864 166.147 193.692L166.04 193.211C164.28 185.348 161.684 177.112 156.404 170.868C151.045 164.532 143.374 161.341 135.88 158.253ZM116.409 241.652C116.537 241.365 116.988 241.396 117.127 241.652C117.67 242.654 117.73 243.933 117.833 245.065L117.844 245.181C117.974 246.562 118.09 247.948 118.161 249.333C118.295 251.962 118.359 254.587 118.351 257.22C118.342 259.917 118.288 262.612 118.143 265.306L118.103 266.027C117.97 268.368 117.748 270.979 116.636 273.026C116.232 273.77 115.133 273.551 114.899 272.799C114.132 270.335 114.525 267.414 114.722 264.891L114.875 262.922C115.026 260.953 115.17 258.984 115.285 257.012C115.442 254.315 115.571 251.616 115.695 248.918C115.736 248.041 115.779 247.165 115.826 246.288L115.897 244.974C115.957 243.875 115.952 242.668 116.409 241.652ZM30.1801 245.143L30.5196 244.815C31.5618 243.795 32.8788 242.223 34.4195 242.321C35.0338 242.36 35.4253 242.87 35.2979 243.475C35.0258 244.767 33.7077 245.438 32.7589 246.227C31.7195 247.091 30.7398 248.015 29.7621 248.948C28.8946 249.775 28.0604 250.625 27.2463 251.503L26.9418 251.833C26.65 252.151 24.5717 254.032 24.7964 254.52L24.8087 254.542C24.8712 254.635 24.7671 254.763 24.6633 254.731C23.7659 254.447 23.8218 253.678 24.1611 252.898C24.8131 251.4 25.9548 250.014 26.9518 248.735C27.9461 247.458 29.0222 246.27 30.1801 245.143V245.143ZM119.661 207.575C118.967 205.934 116.41 205.969 114.959 206.067C111.304 206.314 107.349 207.239 104.097 208.948C100.726 210.72 98.4545 213.558 96.4224 216.697L96.3274 216.845C94.3467 219.925 92.4392 223.571 89.3378 225.689C87.7581 226.768 85.9136 227.753 83.9969 228.179C83.8653 228.411 83.6521 228.594 83.3726 228.661L83.2427 228.69C82.6968 228.811 81.8488 228.944 81.1163 228.865C81.1212 229.223 81.1174 229.579 81.1264 229.918C81.1522 230.892 81.1632 231.869 81.1632 232.843C81.1636 234.884 81.054 236.928 81.1391 238.969C81.2145 240.773 81.4693 242.659 82.3355 244.272C82.9708 245.456 83.8093 246.239 84.8215 246.987C87.3115 245.469 90.1271 244.543 92.9847 243.848C96.4406 243.006 99.9791 242.445 103.356 241.304C104.982 240.754 106.545 240.036 107.961 239.059C109.463 238.023 110.611 236.62 111.792 235.248L111.977 235.035C113.182 233.652 114.497 232.329 116.2 231.58C117.667 230.934 119.601 230.819 120.883 229.819C121.554 229.297 121.61 228.538 121.681 227.761C120.859 227.878 119.99 227.69 119.171 227.594L118.747 227.544C117.973 227.452 117.216 227.351 116.454 227.154C116.313 227.118 116.313 226.904 116.454 226.868C117.355 226.635 118.247 226.536 119.171 226.427L119.388 226.4C120.223 226.291 121.101 226.125 121.921 226.309C122.068 225.75 122.28 225.215 122.578 224.68C122.996 223.928 123.787 223.076 123.894 222.198C123.926 221.936 123.865 221.626 123.741 221.395L123.699 221.316C123.647 221.222 123.585 221.128 123.495 221.07C123.485 221.082 123.464 221.095 123.418 221.109C122.788 221.308 122.238 220.999 121.946 220.523C120.706 220.677 119.353 220.625 118.191 220.677L117.016 220.734C115.76 220.791 114.447 220.817 113.267 220.563C113.102 220.527 113.052 220.253 113.217 220.182C114.668 219.562 116.428 219.364 117.981 219.125C118.849 218.992 119.723 218.891 120.593 218.773C121.172 218.695 121.787 218.566 122.387 218.535C123.892 216.661 123.081 213.704 120.987 212.897C120.224 213.233 119.538 213.038 118.704 212.966C117.872 212.895 117.038 212.846 116.203 212.85C114.529 212.857 112.755 213.298 111.098 213.108C110.828 213.077 110.577 212.718 110.845 212.499C112.114 211.463 113.933 211.126 115.543 210.905L115.877 210.86C116.417 210.789 117.074 210.686 117.755 210.625C117.909 210.324 118.185 210.097 118.6 210.04C118.724 210.024 118.848 210.014 118.972 210.003L118.97 209.991V209.991C119.982 209.942 119.938 208.231 119.661 207.575ZM50.3502 239.579C50.3323 239.606 50.3128 239.633 50.2919 239.658L50.2598 239.695L50.4263 239.628L50.3502 239.579V239.579ZM137.327 203.908C133.066 203.45 128.799 203.547 124.525 203.67C124.183 204.788 122.993 205.742 121.84 205.777C122.743 207.152 122.836 209.013 122.203 210.471C123.547 211.007 124.705 211.968 125.409 213.338C126.384 215.236 126.256 217.349 125.292 219.104C126.115 219.848 126.6 221.058 126.552 222.198C126.497 223.469 125.74 224.555 125.11 225.608C124.43 226.746 124.408 227.748 124.199 229.023C123.893 230.889 122.635 232.02 121.017 232.727L121.103 233.066C121.52 234.691 122.039 236.405 123.232 237.593C124.766 239.122 127.146 239.108 129.173 239.205L129.271 239.209C131.127 239.302 132.982 239.411 134.838 239.516L136.229 239.594C138.366 239.711 140.417 239.726 142.161 238.313C145.008 236.007 146.96 232.19 148.196 228.811C150.789 221.719 150.82 213.936 149.63 206.55C145.638 205.262 141.496 204.356 137.327 203.908ZM101.889 215.675L101.921 215.677C102.798 215.777 103.401 216.488 103.616 217.331C103.927 218.556 103.774 219.664 104.525 220.77C105.296 221.908 105.771 222.818 105.883 224.224C105.929 224.802 105.908 225.379 106.037 225.945L106.13 226.341C106.229 226.764 106.31 227.171 106.261 227.625C106.216 228.039 106.014 228.362 105.599 228.495C104.246 228.928 103.202 227.93 102.852 226.669C102.551 225.58 102.954 224.282 102.528 223.259C102.292 222.692 101.857 222.218 101.611 221.647C101.367 221.081 101.245 220.49 101.206 219.875C101.131 218.712 102.16 217.314 101.586 216.26C101.464 216.035 101.602 215.668 101.889 215.675ZM83.9206 203.67C84.8366 203.484 85.8758 203.057 86.7792 203.412C87.2436 203.595 87.473 204.161 87.0807 204.555C86.3995 205.238 85.4096 205.276 84.4921 205.437L84.4113 205.451C83.3265 205.652 82.2397 205.843 81.1515 206.023C79.1041 206.362 77.0518 206.662 74.9924 206.917C72.8772 207.179 70.756 207.412 68.632 207.588L67.8097 207.655C66.0154 207.799 64.1484 207.907 62.3879 207.632C62.1321 207.592 62.1733 207.219 62.3879 207.154C64.3166 206.57 66.4322 206.414 68.4262 206.166C70.546 205.903 72.6623 205.625 74.7731 205.296C76.8805 204.966 78.9851 204.613 81.082 204.222C82.0297 204.046 82.976 203.862 83.9206 203.67ZM116.974 201.795C116.17 201.511 115.286 201.089 114.415 201.23C112.913 201.473 111.576 202.937 110.387 203.902L110.984 203.785C114.039 203.198 118.084 202.565 120.648 204.508C120.655 204.497 120.66 204.486 120.667 204.475C120.875 204.16 121.114 203.915 121.376 203.646C121.401 203.622 121.425 203.598 121.449 203.573L121.59 203.423L121.267 203.311C120.575 203.066 119.756 202.75 119.626 202.704L119.617 202.701C118.735 202.402 117.852 202.107 116.974 201.795ZM91.8754 137.74C91.7497 136.123 94.2661 136.136 94.3907 137.74C94.6626 141.242 93.8748 144.711 92.1792 147.782C92.1667 147.804 92.153 147.824 92.1399 147.845C93.2004 148.397 94.273 148.927 95.3695 149.4C96.7721 150.006 98.2011 150.558 99.6557 151.025C100.971 151.449 102.593 151.616 103.699 152.498C106.031 154.356 105.155 158.212 104.706 160.712L104.636 161.106C104.413 162.393 104.251 163.712 104.793 164.947C105.372 166.265 106.543 167.243 107.587 168.187L107.798 168.378C108.723 169.221 109.78 170.246 110.459 171.389C111.078 170.108 111.923 169.061 112.816 167.882C113.453 167.041 112.999 166.763 112.542 165.942C112.101 165.151 111.886 164.308 112.024 163.406C112.278 161.739 113.609 160.536 114.934 159.631C116.499 158.564 118.246 157.773 119.863 156.78C123.187 154.739 126.425 152.406 129.341 149.815C129.422 149.744 129.561 149.838 129.497 149.936C127.193 153.441 124.491 156.47 121.171 159.042C119.825 160.084 118.411 160.949 116.987 161.858L116.578 162.121C116.006 162.492 115.293 162.987 115.035 163.617C114.775 164.252 115.329 164.73 115.628 165.256C116.576 166.924 116.118 168.481 114.995 169.896L114.942 169.961C113.825 171.338 112.979 172.618 112.574 174.377C111.705 178.156 112.916 182.091 114.184 185.638L114.234 185.778C114.92 187.69 115.649 189.588 116.245 191.53L116.409 192.067C116.949 193.855 117.391 195.617 116.786 197.455C116.58 198.08 115.728 198.228 115.374 197.639C114.125 195.565 113.814 193.069 113.032 190.789C112.269 188.566 111.393 186.384 110.657 184.152C109.708 181.279 109.073 178.186 109.418 175.172C109.408 175.154 109.396 175.138 109.388 175.119L109.147 174.591C108.488 173.16 107.852 171.911 106.655 170.77C105.406 169.581 104.05 168.527 103.067 167.087C100.932 163.959 102.253 160.479 102.51 157.059L102.54 156.639C102.587 155.929 102.612 154.964 102.149 154.472C101.627 153.919 100.404 153.778 99.7117 153.533C97.9231 152.9 96.1605 152.162 94.4818 151.276C92.8838 150.433 91.3358 149.501 89.8945 148.41L89.164 147.86C88.0114 146.99 86.8162 146.04 86.0438 144.856C85.9546 144.719 86.1061 144.499 86.2675 144.564C87.5571 145.088 88.7353 145.921 89.9419 146.645C89.9607 146.601 89.9824 146.556 90.0071 146.512C91.5 143.809 92.1139 140.814 91.8754 137.74ZM133.069 156.258C133.583 154.848 135.925 154.957 135.831 156.632C135.76 157.919 135.214 159.08 134.714 160.248L134.661 160.373C134.145 161.59 133.55 162.733 132.838 163.849C131.477 165.981 129.882 167.96 128.179 169.828C126.635 171.521 124.609 172.557 122.273 172.385C121.29 172.312 120.296 172.062 119.434 171.57C118.41 170.986 117.298 169.232 115.992 169.657C115.865 169.698 115.747 169.513 115.857 169.425C117.365 168.21 119.077 170.094 120.521 170.548C122.697 171.232 124.93 170.476 126.33 168.716C127.792 166.879 129.138 164.822 130.367 162.821C130.991 161.805 131.56 160.751 132.052 159.665C132.548 158.568 132.661 157.376 133.069 156.258ZM129.562 147.584C129.498 147.389 129.74 147.204 129.911 147.315C130.902 147.96 131.761 148.813 132.675 149.561C133.689 150.39 134.711 151.203 135.748 152.002C137.261 153.169 135.507 155.316 134.175 154.042C132.353 152.299 130.358 150.02 129.562 147.584ZM124.121 140.761C124.523 139.208 126.904 139.849 126.557 141.384L126.546 141.43C125.889 143.966 126.825 146.547 128.823 148.191L128.897 148.251C130.161 149.263 128.37 151.032 127.118 150.03C124.385 147.842 123.249 144.125 124.121 140.761Z" fill="black"/>
<path fill-rule="evenodd" clip-rule="evenodd" d="M113.465 60.2715C145.197 61.2786 147.11 76.3885 147.11 101.728C147.11 127.068 130.65 143.036 124.588 145.824C118.527 148.612 102.567 160.588 88.1646 155.069C73.7617 149.551 77.9326 126.234 77.9326 116.215C77.9326 106.197 81.7338 59.2644 113.465 60.2715Z" fill="#FDC6A0"/>
<path fill-rule="evenodd" clip-rule="evenodd" d="M82.7954 100.485C89.3563 73.6655 101.334 60.5802 118.727 61.2295C144.817 62.2035 144.542 88.8624 142.905 86.4317C141.836 84.8437 134.349 79.2959 120.444 69.7886L119.584 69.2015L82.7954 100.485Z" fill="#9FD8E5"/>
<path fill-rule="evenodd" clip-rule="evenodd" d="M126.338 137.502C120.51 140.763 113.838 140.89 107.57 138.837C103.811 137.61 100.364 135.712 97.1387 133.442C94.3327 131.466 91.8281 129.274 89.3467 126.947C87.3039 122.43 85.4847 117.922 84.6327 113.008C83.8696 108.597 83.7684 104.017 84.6538 99.6151C91.2022 94.2151 97.7102 88.7707 104.21 83.3096C107.52 80.528 110.838 77.7617 114.196 75.0393C115.902 73.657 117.591 72.2537 119.29 70.8651C119.57 70.6368 119.849 70.4086 120.129 70.1803C123.637 72.7546 127.398 74.9613 130.881 77.5776C132.704 78.9492 134.477 80.4097 136.166 81.946C137.051 82.7514 137.916 83.582 138.759 84.4338C139.531 85.2118 140.275 86.3275 141.369 86.6215C141.519 86.6614 141.66 86.6699 141.793 86.6508C143.256 99.4925 144.295 113.359 138.028 125.021C135.293 130.109 131.416 134.657 126.338 137.502ZM88.4299 142.221C87.6275 141.484 88.8232 140.292 89.6223 141.026C94.6411 145.634 101.202 148.077 107.83 149.208C108.899 149.391 108.443 151.02 107.381 150.838C100.462 149.658 93.6612 147.025 88.4299 142.221ZM82.4075 149.293C81.4495 148.777 82.3023 147.318 83.2586 147.833C87.1687 149.935 91.4575 151.027 95.8076 151.765C96.8775 151.946 96.4211 153.575 95.3594 153.395C90.8615 152.632 86.4479 151.465 82.4075 149.293ZM98.3214 78.0618C101.566 75.1428 105.053 72.3655 108.736 70.0218C112.463 67.6504 116.534 66.2323 120.934 66.1985C120.626 66.4458 120.333 66.7205 120.036 66.976C119.206 67.6885 118.377 68.405 117.548 69.1193C115.891 70.5502 114.23 71.9787 112.594 73.433C109.373 76.2989 106.141 79.15 102.926 82.0223C96.7466 87.5427 90.7004 93.1835 84.7845 98.9874C84.8164 98.8457 84.8501 98.7041 84.8836 98.5627C86.8422 90.3621 92.1696 83.5968 98.3214 78.0618ZM123.755 66.5557C123.776 66.4922 123.791 66.4307 123.799 66.3718C132.243 67.475 139.295 73.7033 141.626 81.9039C141.424 82.1871 141.312 82.5232 141.354 82.8801C141.375 83.06 141.397 83.2418 141.418 83.4214C141.129 83.1342 140.832 82.8656 140.579 82.6098C139.737 81.756 138.875 80.9251 137.99 80.1157C136.179 78.461 134.298 76.9139 132.316 75.4704C128.87 72.9596 125.138 70.6516 121.029 69.4469C121.299 69.225 121.569 69.0031 121.841 68.7833C122.652 68.1215 123.405 67.5765 123.755 66.5557ZM138.892 57.7867C133.708 52.1077 126.529 47.9484 118.97 46.5027C111.751 45.1205 104.277 46.0314 97.4572 48.7177C83.1865 54.3396 71.9265 66.7017 66.6539 81.0268C63.5801 89.373 62.5723 98.5224 63.496 107.357C64.4149 116.151 67.0565 125.233 71.8633 132.715C72.3039 133.4 72.7867 134.057 73.2926 134.693C73.0671 137.276 72.2069 139.808 70.8534 142.01C70.7807 142.128 70.704 142.244 70.6281 142.36C69.2421 143.4 67.8045 144.377 66.4011 145.384C65.1848 146.258 63.9811 147.154 62.8373 148.121C61.7577 149.034 60.504 150.051 59.773 151.284C59.1741 152.293 58.9295 153.666 59.7471 154.629C60.7323 155.789 62.4016 155.38 63.7361 155.38C63.8503 155.38 63.9644 155.383 64.0785 155.384C64.4792 155.636 64.892 155.865 65.2919 156.077C69.3334 158.225 73.3896 160.349 77.45 162.462C85.5374 166.674 93.5908 171.056 101.844 174.934C105.669 176.733 109.763 178.305 114.047 178.299C118.065 178.292 121.697 176.692 124.834 174.26C128.41 171.489 131.4 167.97 134.3 164.521C135.46 163.14 136.596 161.744 137.711 160.328C139.853 159.611 141.978 159.402 143.888 160.784C145.421 161.894 147.441 160.385 147.477 158.719C147.489 158.128 147.464 157.544 147.401 156.969C147.017 153.418 145.284 150.206 143.332 147.226C142.265 145.596 141.142 143.996 140.011 142.411C139.746 142.037 139.484 141.663 139.231 141.283C143.77 134.583 147.371 127.154 149.585 119.391C151.91 111.222 152.701 102.751 152.182 94.2869C151.385 81.3142 147.835 67.5849 138.892 57.7867Z" fill="black"/>
<path fill-rule="evenodd" clip-rule="evenodd" d="M123.152 128.274C121.732 127.695 120.465 126.728 119.538 125.493C119.216 125.063 119.133 124.61 119.2 124.195C119.276 123.729 119.552 123.306 119.928 123.023C120.305 122.739 120.777 122.598 121.233 122.67C121.63 122.732 122.024 122.949 122.337 123.399L122.402 123.489C122.953 124.235 123.67 124.846 124.488 125.241C125.276 125.621 126.158 125.798 127.07 125.695C128.808 125.499 130.005 124.559 131.278 123.282C131.436 123.121 131.594 122.955 131.752 122.786C131.852 122.633 131.991 122.534 132.146 122.483C132.317 122.425 132.511 122.429 132.689 122.491C132.86 122.55 133.013 122.664 133.116 122.815C133.213 122.958 133.269 123.135 133.251 123.339C133.134 124.661 132.443 125.842 131.461 126.769C130.37 127.799 128.924 128.511 127.563 128.761C126.064 129.036 124.536 128.839 123.152 128.274V128.274ZM128.271 107.866C129.866 108.836 132.297 111.098 130.581 113.503C128.56 115.624 125.652 113.193 124.219 112.093C122.89 111.241 121.396 113.433 122.629 114.428C132.987 122.099 137.19 108.12 129.078 106.726C128.184 106.572 127.853 107.566 128.271 107.866ZM109.711 98.9429C109.887 96.7541 113.219 96.257 113.551 98.423C113.847 100.363 113.498 102.145 112.624 103.892C111.79 105.561 109.692 104.783 109.533 103.263C109.32 101.226 109.601 100.304 109.711 98.9429ZM135.076 97.9739C135.541 97.3652 136.212 96.9497 137.015 97.1845C139.526 97.9185 138.786 101.485 137.904 103.22C137.425 104.163 135.876 104.402 135.176 103.572C134.036 102.219 133.489 99.5157 134.94 98.1825C134.979 98.1136 135.023 98.044 135.076 97.9739ZM112.589 89.3654L112.986 89.2959C114.213 89.0836 115.738 88.8796 116.606 89.8665C117.067 90.3898 117.225 91.3624 116.606 91.8633C115.518 92.7446 114.314 92.4031 113.01 92.4777C111.935 92.5394 110.902 92.7174 109.867 93.0135C107.595 93.6629 105.744 94.8486 103.804 96.1505C103.55 96.3213 103.29 95.9956 103.411 95.7574C104.531 93.563 106.701 91.7604 108.875 90.6616C110.036 90.0751 111.305 89.5885 112.589 89.3654ZM132.787 88.3823L133.091 88.4445C136.395 89.1353 140.687 90.5153 142.251 93.7615C142.311 94.2205 142.248 94.3189 142.197 94.3832L142.18 94.4046C142.137 94.4595 142.104 94.5351 141.905 94.5976C141.85 94.5844 141.794 94.5705 141.737 94.5557C141.02 94.3677 140.453 94.1087 139.904 93.84L139.308 93.5465C138.617 93.2076 137.92 92.881 137.181 92.6399C135.605 92.1255 133.983 91.7631 132.337 91.5696C131.98 91.5277 131.636 91.4072 131.365 91.2006C131.108 91.0046 130.911 90.7332 130.821 90.3724C130.705 89.9056 130.739 89.5521 130.989 89.1309C131.177 88.8146 131.447 88.5953 131.756 88.4694C132.071 88.3411 132.43 88.3108 132.787 88.3823Z" fill="black"/>
<path fill-rule="evenodd" clip-rule="evenodd" d="M147.178 109.153C144.613 111.805 140.331 112.566 136.919 111.144C128.156 107.481 132.445 96.0578 139.203 92.99C140.047 92.7795 141.175 92.2801 142.203 92.1668C142.296 92.1212 142.498 92.2533 142.743 92.1284C150.195 92.9607 151.892 104.533 147.178 109.153M118.915 109.832C116.038 113.649 110.69 114.827 106.32 113.052C97.6872 109.651 100.749 99.5216 106.656 95.5503C119.132 90.8603 124.285 102.794 118.915 109.832M100.201 101.374C100.193 101.371 100.185 101.369 100.177 101.365C100.222 101.345 100.268 101.325 100.313 101.304C100.299 101.343 100.283 101.381 100.268 101.42C100.246 101.404 100.226 101.386 100.201 101.374M153.117 97.2481C152.413 97.2496 151.395 97.3654 150.812 97.8543C149.374 93.0031 144.067 88.5134 139.451 91.7872C135.816 92.9566 133.119 95.5501 131.586 98.9981C128.822 97.3534 124.476 98.0557 122.079 100.231C120.509 95.0418 116.646 93.2248 112.048 92.9566C107.029 92.1343 102.027 97.0103 100.466 100.922C99.168 100.774 97.2287 100.361 96.0078 101.162C88.0838 99.0835 74.2299 97.9373 72.619 99.0924C71.471 99.533 70.841 102.244 72.4445 102.39C73.8418 102.192 72.2814 100.404 73.6899 100.209C81.1948 99.7433 88.4804 101.255 95.9058 101.89C96.5687 102.782 98.7108 103.08 99.8535 102.722C98.0537 109.357 101.939 113.872 107.76 115.224C116.775 117.296 124.617 109.229 122.26 100.838C124.991 99.4791 128.131 99.5375 131.106 100.253C126.135 118.554 155.598 117.733 150.997 98.4813C154.059 100.005 154.724 97.5556 153.117 97.2481" fill="black"/>
</g>
<defs>
<clipPath id="clip0_2016_14168">
<rect width="200" height="267" fill="white"/>
</clipPath>
</defs>
</svg>
