<svg width="200" height="267" viewBox="0 0 200 267" fill="none" xmlns="http://www.w3.org/2000/svg">
<g clip-path="url(#clip0_2016_14169)">
<rect width="200" height="267" fill="white"/>
<path fill-rule="evenodd" clip-rule="evenodd" d="M174.636 251.934C173.785 247.123 173.004 242.299 172.295 237.465C171.958 235.169 171.629 232.872 171.334 230.571C171.127 228.959 170.812 227.115 171.909 225.921C173.452 224.241 174.853 222.802 175.042 220.395C175.22 218.13 174.454 215.66 173.975 213.462C172.971 208.851 171.722 204.297 170.341 199.787C168.938 195.204 167.399 190.664 165.838 186.133C164.379 181.897 162.977 177.622 161.076 173.558C157.47 165.845 151.369 160.133 143.828 156.318C141.953 155.37 138.127 151.984 136.168 151.226C134.367 150.528 134.373 152.564 132.601 151.797C131.183 151.184 129.864 150.367 129.07 148.998C128.209 147.512 126.048 145.433 125.719 143.703C125.022 140.036 125.777 136.914 123.161 134.154C120.838 131.703 117.716 130.024 114.486 129.123C107.38 127.14 97.9028 128.526 93.6153 135.132C91.5675 138.287 90.852 142.1 88.0888 144.674C85.6759 146.922 86.2159 148.459 83.0908 149.618C82.9138 149.683 78.1164 148.654 77.9394 148.72C74.5206 147.988 71.2531 150.037 68.1166 151.226C63.4406 152.998 58.9888 155.304 54.8063 158.046C46.3727 163.574 39.1495 170.752 33.1945 178.874C27.1903 187.064 22.5316 196.244 19.2145 205.838C18.4089 208.168 17.6853 210.527 17.0471 212.908C16.6898 214.241 16.3081 215.624 16.7431 216.989C17.0989 218.105 17.8903 218.936 18.8196 219.606C20.0794 220.514 22.6064 221.105 22.5572 222.931C22.5196 224.32 22.0487 225.781 21.8188 227.153C21.5452 228.788 21.3204 230.431 21.0956 232.073C20.0731 239.544 19.2772 247.057 18.9253 254.592C18.5788 262.011 18.2913 269.581 18.8057 276.998C18.8397 277.487 18.9855 277.936 19.2206 278.315C19.0011 278.399 18.9842 278.809 19.2574 278.867C19.4488 278.907 19.6398 278.948 19.8312 278.988C20.2288 279.289 20.7246 279.474 21.2953 279.492C21.6821 279.504 22.0687 279.521 22.4551 279.541C26.5328 280.394 30.6099 281.199 34.7408 281.809C39.7622 282.551 44.7984 283.155 49.8502 283.647C60.2308 284.656 70.5297 284.321 80.9241 283.777C91.3024 283.234 101.675 283.107 112.064 283.377C122.462 283.648 132.856 284.1 143.257 284.285C154.876 284.492 166.478 284.174 178.064 283.25C179.652 283.124 180.635 281.86 180.322 280.281C178.445 270.825 176.318 261.431 174.636 251.934Z" fill="#FDC6A0"/>
<path fill-rule="evenodd" clip-rule="evenodd" d="M68.1166 151.226L68.3436 151.138C71.4106 149.939 74.603 148.006 77.9394 148.72C78.0574 148.676 80.2283 149.119 81.7153 149.399L80.3039 150.873L77.8131 151.352C86.406 165.54 96.569 172.634 108.302 172.634C120.035 172.634 128.938 165.54 135.011 151.352L135.84 151.123C135.943 151.147 136.052 151.18 136.168 151.226C138.127 151.984 141.953 155.37 143.828 156.318C151.369 160.132 157.47 165.845 161.076 173.558C162.913 177.487 164.285 181.612 165.693 185.709L165.838 186.133C167.399 190.664 168.938 195.204 170.341 199.786C171.662 204.101 172.863 208.455 173.843 212.861L173.975 213.462C174.454 215.66 175.22 218.129 175.042 220.395C174.975 221.252 174.754 221.987 174.427 222.653L157.431 228.771L165.528 284.017C158.111 284.335 150.688 284.417 143.257 284.285C132.856 284.1 122.462 283.648 112.064 283.377C101.989 283.115 91.931 283.226 81.8675 283.729L79.3119 283.86C69.4641 284.352 59.6939 284.604 49.8502 283.647L49.1794 283.581V283.581L49.1793 275.499L52.6371 230.501L35.1136 227.201L17.9118 218.843C17.3921 218.323 16.975 217.716 16.7431 216.989C16.3402 215.725 16.6379 214.445 16.9679 213.204L17.0471 212.908C17.6853 210.527 18.4089 208.168 19.2145 205.838C22.5316 196.244 27.1903 187.064 33.1945 178.874C39.1495 170.752 46.3727 163.574 54.8063 158.046C58.9888 155.304 63.4406 152.998 68.1166 151.226Z" fill="#EC7495"/>
<path fill-rule="evenodd" clip-rule="evenodd" d="M74.6975 148.487C75.772 148.44 76.8676 148.614 77.9396 148.72C78.033 148.729 78.0685 148.873 77.9633 148.895C76.0448 149.296 74.1473 149.844 72.2632 150.401L71.4564 150.64C69.3317 151.269 67.2693 151.918 65.2124 152.756C61.113 154.428 57.2195 156.684 53.6362 159.275C39.8379 169.256 29.8513 184.366 23.5492 200.01C21.8377 204.259 20.3876 208.613 19.2129 213.041C18.9273 214.118 18.6585 215.199 18.4038 216.284C18.329 216.602 18.003 217.417 18.1817 217.742C18.3397 218.03 18.9541 218.208 19.2395 218.357L20.2031 218.857C22.0828 219.826 25.2137 221.419 25.5277 221.575L26.0174 221.816C34.0267 225.744 42.5845 229.075 51.5975 229.305L51.668 228.535V228.535C52.0699 224.278 52.5972 219.999 53.7482 215.873C53.8101 215.651 54.0921 215.726 54.1179 215.923C54.7591 220.808 54.5542 225.73 54.3304 230.637C53.9343 239.328 53.4083 248.015 52.9407 256.702C52.7066 261.048 52.4041 265.391 52.1309 269.735C51.8573 274.088 51.7688 278.544 51.1441 282.861C51.0049 283.823 49.8784 284.346 49.0253 284.245C48.0814 284.132 47.3552 283.301 47.3508 282.347C47.3394 279.833 47.6552 277.288 47.8308 274.78C47.9975 272.397 48.1764 270.015 48.3598 267.633C49.0299 258.94 49.8009 250.257 50.5139 241.568C50.7666 238.486 51.0395 235.407 51.3205 232.328C41.7727 232.02 32.8528 228.482 24.3433 224.349C24.2202 227.146 23.9227 229.939 23.6347 232.725C22.8309 240.5 22.1221 248.271 21.5916 256.07C21.3237 260.009 21.1287 263.953 20.9588 267.897C20.8754 269.836 20.8073 271.774 20.7552 273.714C20.7377 274.36 20.7219 275.007 20.708 275.654L20.6789 277.135C20.6552 278.073 20.5598 278.943 19.7704 279.626C18.9687 280.32 17.8857 280.357 17.0922 279.626C16.0299 278.647 16.2178 277.314 16.2492 276C16.2754 274.891 16.3069 273.783 16.3435 272.675C16.4168 270.459 16.5104 268.243 16.6242 266.028C17.0227 258.285 17.8189 250.573 18.8594 242.892L19.2656 239.927C20.0241 234.415 20.8568 228.777 22.5524 223.468C21.8922 223.139 21.2339 222.808 20.5781 222.476C19.4149 221.887 18.2121 221.334 17.0814 220.684C16.1844 220.168 15.4107 219.46 15.161 218.416C14.8825 217.252 15.3084 215.98 15.5913 214.845L15.6159 214.745C15.8933 213.602 16.192 212.464 16.5072 211.331C17.7854 206.737 19.3659 202.232 21.2155 197.837C24.919 189.038 29.6994 180.679 35.5386 173.121C40.7947 166.317 47.0039 160.148 54.2812 155.52C57.839 153.258 61.6304 151.4 65.64 150.087C67.5142 149.473 69.5533 148.939 71.5156 148.72C72.574 148.601 73.634 148.533 74.6975 148.487ZM93.7356 134.544C95.0125 133.173 97.5494 134.592 96.9363 136.408C95.4942 140.682 93.1977 144.58 89.6137 147.388C86.2449 150.027 82.2276 151.742 77.9013 151.376C77.8679 151.373 77.839 151.364 77.8134 151.352L78.1862 151.858C81.1133 155.819 84.2012 159.725 87.923 162.963C95.506 169.559 105.831 173.117 115.8 170.586C123.644 168.595 130.555 162.39 132.587 154.482C132.296 154.613 131.95 154.658 131.57 154.575C129.943 154.222 128.334 152.511 127.285 151.284C126.15 149.957 125.264 148.524 124.615 146.904C123.426 143.94 123.045 140.123 124.668 137.252C124.868 136.898 125.33 137.096 125.37 137.442L125.431 137.981C125.744 140.672 126.134 143.275 127.402 145.729C128.023 146.929 128.767 148.101 129.673 149.106C130.157 149.644 130.683 150.158 131.25 150.609C131.803 151.049 132.472 151.366 132.967 151.871L133.058 151.967L133.061 151.95C133.186 150.885 133.933 150.415 134.664 150.445C135.371 150.473 136.201 150.785 136.523 150.934L136.554 150.948C141.487 153.317 146.031 156.405 150.307 159.831C159.15 166.917 165.775 176.179 168.986 187.086C170.561 192.44 171.465 197.956 172.42 203.446L173.007 206.81C173.898 211.879 174.893 217.047 176.904 221.762C177.424 222.981 177.023 224.125 175.748 224.605C174.155 225.204 172.557 225.784 170.956 226.356C171.742 229.73 172.221 233.221 172.81 236.611C174.062 243.818 175.596 250.979 176.911 258.176C177.584 261.856 178.191 265.549 178.862 269.229C179.186 271.001 179.524 272.771 179.852 274.543C180.029 275.498 180.189 276.456 180.358 277.413L180.387 277.572C180.484 278.076 180.605 278.598 180.467 279.103C180.308 279.679 179.859 280.086 179.458 280.499C179.128 280.839 178.65 280.841 178.246 280.656L178.113 280.594C177.39 280.256 176.824 279.919 176.568 279.103C176.405 278.587 176.347 278.005 176.241 277.473C176.037 276.454 175.845 275.433 175.662 274.409C175.298 272.36 174.942 270.31 174.595 268.258L174.271 266.337C173.157 259.715 172.1 253.054 171.565 246.362C171.328 243.394 171.077 240.428 170.823 237.461L170.633 235.236C170.392 232.42 170.098 229.533 170.056 226.678L169.099 227.018V227.018L164.427 228.67V228.67C163.269 229.08 161.795 229.919 160.548 229.766C159.938 229.691 159.473 229.499 159.114 229.15C159.544 235.223 160.126 241.285 160.902 247.316C161.608 252.804 162.391 258.285 163.315 263.74C163.773 266.442 164.244 269.141 164.755 271.832C165.01 273.179 165.274 274.523 165.545 275.866C165.681 276.536 165.842 277.206 165.948 277.882C166.069 278.655 165.856 279.131 165.424 279.768C165.069 280.29 164.359 280.559 163.784 280.198C163.022 279.72 162.625 279.305 162.401 278.434C162.197 277.643 162.073 276.817 161.915 276.016C161.625 274.537 161.343 273.056 161.072 271.574C160.504 268.473 159.981 265.364 159.514 262.246C157.867 251.263 156.822 240.187 156.294 229.093C156.034 223.62 155.953 218.142 155.999 212.663C156.023 209.854 156.115 207.038 156.313 204.237C156.514 201.401 156.933 198.622 157.306 195.813C157.319 195.714 157.459 195.709 157.465 195.813C157.641 198.962 157.919 202.107 158.055 205.264C158.184 208.276 158.241 211.294 158.344 214.307C158.48 218.268 158.667 222.232 158.916 226.192C159.366 225.7 160.045 225.416 160.724 225.526C161.708 225.32 162.766 224.804 163.704 224.49L167.24 223.309V223.309C169.098 222.688 170.957 222.071 172.822 221.473C171.154 215.861 170.012 210.165 169.037 204.387L168.602 201.788C167.74 196.672 166.812 191.554 165.252 186.6C163.613 181.392 161.159 176.55 157.904 172.165C154.696 167.844 150.792 164.039 146.773 160.48C143.332 157.433 139.651 154.682 136.141 151.719C136.178 151.915 136.186 152.131 136.154 152.369C135.407 157.832 132.559 162.92 128.588 166.704C120.612 174.307 108.805 175.884 98.5958 172.319C88.7205 168.871 79.9894 160.704 76.9047 150.597C76.8519 150.425 77.0835 150.356 77.1764 150.483C77.3475 150.718 77.5195 150.952 77.6917 151.187C77.6801 151.094 77.7285 150.992 77.8434 150.948C81.4425 149.557 84.9768 147.586 87.6747 144.797C88.9897 143.437 90.1373 141.897 91.0432 140.235C91.4771 139.44 91.8669 138.616 92.1779 137.764L92.2569 137.544C92.6338 136.477 92.9488 135.389 93.7356 134.544Z" fill="black"/>
<path fill-rule="evenodd" clip-rule="evenodd" d="M91.0607 50.5839L92.8816 52.7548C91.8733 53.4671 90.9215 54.1828 90.0263 54.902L90.0254 54.8998C94.1725 52.1873 98.7653 50.5839 103.727 50.5839C113.283 50.5839 132.694 58.8133 137.082 64.7491C139.259 67.6948 143.306 76.738 145.405 86.5696C147.092 94.4691 149.6 116.786 147.092 125.172C143.881 135.905 133.319 145.824 122.428 145.824C111.537 145.824 94.6279 137.942 82.5937 120.667C82.0434 119.878 75.7243 118.962 71.2164 115.997L72.3999 129.069L73.2995 136.673L73.101 137.214C69.8724 145.967 67.3139 150.534 65.4256 150.914C63.4987 151.302 59.5747 148.135 53.6534 141.415L52.8968 138.231C50.975 130.11 50.0142 125.751 50.0142 125.153L50.0155 125.044C50.0438 123.67 50.5161 115.89 50.5259 113.797L50.526 82.419C56.8941 61.1956 62.9711 50.5839 68.7569 50.5839H91.0607Z" fill="#FDC6A0"/>
<path fill-rule="evenodd" clip-rule="evenodd" d="M75.9719 43.3561C77.8442 42.629 80.0134 42.7664 81.7906 43.8612C85.2799 43.7111 88.7501 45.757 90.5692 48.7434C90.6072 48.7857 90.6475 48.8279 90.6833 48.8702L91.0689 49.3207C91.434 49.7509 91.819 50.225 92.1241 50.7147C90.6297 50.7489 89.3848 51.3595 88.5158 52.5927C87.8958 53.4727 89.3162 54.3088 89.9499 53.4766L89.9722 53.4462C90.494 52.7058 91.2816 52.419 92.1584 52.404C92.4101 52.3998 92.6011 52.3032 92.7361 52.1607C92.7898 52.3571 92.8379 52.5555 92.882 52.7548C97.297 51.0334 102.057 50.5775 106.797 50.9858C106.589 51.3231 106.415 51.6845 106.282 52.0643C106.13 52.4949 106.453 52.9892 106.871 53.1042C107.322 53.2285 107.73 52.9634 107.893 52.5538L107.908 52.5137C108.09 51.9963 108.387 51.5522 108.787 51.208C111.018 51.5112 113.234 51.9935 115.396 52.6153C117.994 53.3633 120.567 54.2761 123.084 55.3213C122.658 55.4889 122.289 55.7721 122.031 56.2449C121.517 57.1886 122.932 58.0339 123.469 57.1317L123.488 57.0983C123.54 57.0015 123.587 56.9434 123.621 56.9102L123.633 56.899L123.708 56.8647L123.846 56.825V56.825L123.899 56.8119C123.946 56.8014 123.965 56.802 124.089 56.7952C124.253 56.7859 124.417 56.7868 124.581 56.7865C124.967 56.7863 125.214 56.5705 125.325 56.2945C126.567 56.8565 127.793 57.4483 128.998 58.0682L129.284 58.2168C133.002 60.1641 136.524 62.7214 138.567 66.4841C138.702 66.7356 138.744 67.0104 138.711 67.2725C139.147 67.7966 139.568 68.3377 139.973 68.8872C141.209 70.5695 142.113 72.4823 142.969 74.3781C144.691 78.1908 145.851 82.1072 146.755 86.1904C147.631 90.1258 148.337 94.1034 148.992 98.081C149.72 102.5 150.325 106.958 150.451 111.44C150.675 119.432 149.117 127.469 144.641 134.197C140.648 140.199 134.635 144.965 127.505 146.491C120.253 148.042 112.579 146.529 106.864 141.685C105.942 140.905 106.069 139.33 106.864 138.531C107.764 137.631 109.092 137.756 110.009 138.531C115.391 143.094 123.226 143.798 129.711 141.473C135.706 139.322 140.403 134.359 143.285 128.786C146.802 121.989 147.394 114.182 146.854 106.662C146.56 102.532 145.946 98.4361 145.313 94.3464L144.932 91.8847C144.515 89.2183 144.078 86.5556 143.507 83.9163L143.373 83.3014C142.676 80.1187 141.859 76.8544 140.595 73.8624C139.933 72.292 139.136 70.7788 138.321 69.2845C138.162 68.995 138 68.7012 137.833 68.4053C137.61 68.4835 137.355 68.4962 137.087 68.4117C134.783 67.6931 132.415 67.2112 130.006 67.0506C128.908 66.977 127.809 66.9656 126.71 67.0085C124.831 66.8988 122.898 67.0645 121.107 67.6423C120.932 67.4916 120.755 67.3441 120.577 67.1966C120.529 67.1928 120.481 67.1877 120.433 67.1782C119.976 67.0882 119.655 66.7627 119.462 66.3516C119.451 66.3299 119.442 66.3081 119.434 66.2863C119.205 66.1107 118.973 65.9378 118.74 65.7672C118.172 65.915 117.674 65.4409 117.54 64.9214C117.413 64.8358 117.285 64.753 117.157 64.6691C117.057 64.6936 116.957 64.7139 116.86 64.7211C116.442 64.7513 116.038 64.687 115.667 64.4869C115.197 64.2335 114.897 63.8247 114.697 63.3604C113.987 63.4041 113.268 63.1731 112.633 62.7555C112.118 62.4167 111.724 61.949 111.331 61.4821C106.55 59.3443 101.353 58.0821 96.1436 57.7588C95.6304 57.8577 95.1209 57.9754 94.6177 58.1123C94.4985 58.1449 94.3295 58.2087 94.1349 58.2852C95.2963 58.1445 96.4727 58.1305 97.6657 58.3028C103.327 59.1234 107.736 63.3729 111.531 67.3841C112.434 67.2013 113.347 68.3732 112.511 69.1493L105.997 75.2004V75.2004C106.157 75.8772 105.383 76.5442 104.705 76.3817C103.568 76.1078 102.429 75.8415 101.289 75.5796C100.1 76.1564 98.6047 76.0577 97.5262 75.2216C97.476 75.1827 97.367 75.1205 97.2723 75.0588C97.1838 75.1322 97.0647 75.2057 97.0172 75.237C96.6337 75.4915 96.1666 75.5663 95.7186 75.4948C95.2577 75.4215 94.8418 75.1871 94.4832 74.8952C94.2549 74.7093 93.7229 73.9336 93.4269 73.8764L93.3981 73.8732C93.5956 73.8789 92.9606 74.4704 92.79 74.5928C92.392 74.8775 91.952 75.0271 91.4568 74.9726C90.5937 74.8774 89.8516 74.0888 89.4295 73.3607L89.3977 73.3048L89.3844 73.2702L89.3732 73.3077C89.3711 73.3143 89.3688 73.3214 89.3659 73.3294C89.3026 73.5008 89.104 73.6956 88.9691 73.8155C88.5846 74.1564 88.1085 74.3062 87.6 74.2172C87.1696 74.1421 86.8077 73.8815 86.5168 73.566L86.4715 73.5158C86.3854 73.4184 85.8184 72.6547 85.908 72.4717L85.9183 72.4563L85.8901 72.4503C85.5451 72.5353 85.2557 72.4501 85.0436 72.272C83.86 72.012 82.6919 71.7091 81.561 71.3241C81.4725 71.5735 81.3858 71.8228 81.3017 72.0744C81.9192 72.4569 82.4906 73.0022 83.0155 73.3911C84.0108 74.1266 85.0057 74.8621 85.9986 75.5997L89.933 78.5091V78.5091L90.3829 78.388V78.388C90.9578 78.2333 91.451 78.5688 91.662 79.0817L91.6794 79.1261C91.7631 79.3507 91.8639 79.5585 91.9824 79.7574C92.9659 79.718 93.7986 80.3234 94.0678 81.1916C94.3107 81.1861 94.5561 81.1954 94.807 81.2231C95.494 81.2987 95.9572 81.8102 95.8327 82.5125L95.8233 82.5607L95.8067 82.6389C96.2049 82.8084 96.4938 83.1358 96.5579 83.6308C96.6645 83.7916 96.7505 83.9666 96.8056 84.1615C97.0929 85.1726 96.5339 86.4225 96.2361 87.3911L96.2132 87.467C96.022 88.1036 95.8242 88.7371 95.6241 89.3704L95.1256 90.9426C93.7435 95.3243 92.3959 99.9442 93.5144 104.538C93.7529 105.51 92.513 105.95 91.9754 105.189C90.6721 103.347 89.264 101.611 87.7856 99.9445L87.7139 99.9331V99.9331C86.6785 99.7245 86.2765 98.9913 85.8013 98.244C85.5213 98.3266 85.2203 98.346 84.9293 98.2898C84.5081 98.2084 84.1307 97.9673 83.8329 97.6627C83.5805 97.4045 83.3492 96.7421 83.0509 96.5779C82.6778 96.3727 81.9277 96.666 81.482 96.6001C81.1196 96.5466 80.7812 96.4219 80.453 96.2653C79.8496 97.0898 79.4497 98.059 79.3516 99.1039C79.3135 99.5013 79.1954 99.8373 79.0246 100.116C79.6529 100.093 80.2832 100.137 80.9054 100.254C83.2076 100.683 84.8583 102.107 85.7859 104.229C85.8258 104.322 85.7056 104.398 85.6508 104.309C84.2743 102.185 81.2783 102.078 79.1026 102.826C76.792 103.62 75.4955 105.66 75.034 107.987C74.528 110.538 75.1771 113.288 76.5624 115.46C77.2052 116.471 78.0825 117.392 79.2481 117.764C80.6334 118.206 81.9129 117.415 83.3317 117.823C84.2973 118.1 84.7234 119.036 84.5482 119.973C84.4786 120.34 84.35 120.662 84.1771 120.941C84.6875 121.955 85.1596 122.999 85.7604 123.959C86.688 125.44 87.8098 126.666 89.0324 127.903C90.2952 129.179 91.5812 130.43 92.9326 131.614C94.2272 132.749 95.7114 133.556 97.0691 134.596C98.022 135.325 98.494 136.348 98.0239 137.519C97.6362 138.487 96.3289 139.311 95.2706 138.874C93.2446 138.037 91.4716 136.612 89.8569 135.146C88.36 133.784 87.057 132.157 86.0724 130.39C85.1437 128.724 84.4593 126.833 83.8819 125.01L83.8103 124.783C83.5383 123.916 83.2518 122.942 83.0663 121.959C81.9553 122.568 80.4477 122.657 79.2589 122.492C77.3381 122.228 75.5861 121.258 74.2622 119.844C73.6451 119.186 73.0997 118.435 72.6287 117.622C72.6715 118.117 72.697 118.596 72.7244 119.032C73.8251 120.241 74.2666 121.985 73.8759 123.576C74.7968 124.526 75.0549 125.953 74.5742 127.167C75.5821 128.169 75.5442 129.764 75.1084 131.212C76.3 132.548 76.4128 134.627 75.4824 136.134L75.4544 136.242V136.242C76.3938 137.818 76.1819 139.855 75.0049 141.246C75.8088 142.809 75.6844 144.912 73.6755 145.518C72.9433 145.739 72.2336 145.551 71.7026 145.139C72.1875 147.557 72.4044 150.011 71.7578 152.44C71.5004 153.404 70.5601 154.108 69.5714 154.108C68.745 154.108 68.1441 153.691 67.729 153.079C67.7775 154.298 67.7037 155.524 67.4444 156.76C67.288 157.507 66.5971 158.089 65.8637 158.27C66.1282 158.569 66.2337 159.001 65.98 159.452C64.9046 161.36 62.3063 160.569 62.1306 158.74C61.3968 158.191 61.0557 157.29 60.9144 156.315C60.7086 154.895 60.634 153.497 60.4008 152.095L60.3117 152.179V152.179L60.2657 152.218L60.2509 152.32C60.1173 153.013 59.7273 153.499 59.2211 153.788C59.3311 154.997 59.1275 156.229 58.3622 157.147C57.8524 157.759 56.9841 158 56.2396 157.868C56.1928 157.87 56.145 157.87 56.0952 157.863C54.4093 157.638 53.4338 156.035 53.8776 154.564C53.1987 153.73 52.9129 152.672 53.1138 151.626C51.8002 150.754 51.8269 148.839 52.2819 147.3C50.9048 146.211 50.3868 144.174 51.0787 142.555C49.8376 141.01 49.665 138.857 50.5082 137.097C49.1427 135.973 49.1505 133.802 50.5049 132.651C49.7836 131.216 49.3487 129.496 50.0695 128.183C49.561 127.62 49.2819 126.818 49.3407 126.043C49.4269 124.906 50.1779 124.119 51.1097 123.595L51.1742 123.24V123.24C51.3931 123.267 51.6262 123.205 51.8318 123.008C52.0352 122.812 52.2446 122.654 52.4611 122.524C52.7063 122.52 52.9173 122.411 53.0657 122.243C53.4718 122.104 53.9084 122.043 54.3926 122.038C55.4385 122.026 55.4754 120.458 54.502 120.357C54.3484 120.201 54.1367 120.103 53.9071 120.103L53.7273 120.104C53.307 120.108 52.8827 120.134 52.4927 120.302C52.2393 120.41 52.0439 120.574 51.9007 120.775C51.8739 121.078 51.7095 121.38 51.3534 121.629C50.9421 121.918 50.3796 121.951 49.9394 121.691C49.3232 121.325 49.3169 120.755 49.3879 120.136C49.5435 118.78 48.766 117.504 48.9511 116.117C49.0331 115.504 49.2368 114.975 49.5688 114.547C48.8687 113.497 48.7451 112.14 49.2842 110.987C48.1612 109.776 47.967 107.909 48.6832 106.451C48.6935 106.416 48.7015 106.38 48.7127 106.345C48.7936 106.097 48.9051 105.874 49.0281 105.66C48.3994 104.568 48.404 103.228 49.043 102.141C48.0751 101.01 48.0444 99.21 48.9051 97.9914C48.9102 97.8904 48.9207 97.7893 48.9294 97.6883C48.5343 96.6601 48.6292 95.4911 49.1303 94.535C48.9515 94.1218 48.8137 93.6769 48.7255 93.203C48.4997 91.9814 48.6159 90.7936 48.9532 89.6016C49.0078 89.4135 49.069 89.2254 49.1343 89.0373C49.1453 88.2209 49.1763 87.408 49.2172 86.5967C49.0569 85.9098 49.031 85.155 49.0275 84.4543L49.0265 83.9999C49.0186 82.8436 48.9382 81.1505 49.6675 80.1676C49.1992 79.1058 49.3917 77.7679 50.1732 76.9263C49.6247 75.9805 49.5096 74.8192 50.0609 73.7698C50.1494 73.6009 50.2521 73.4437 50.3647 73.2949C50.3191 72.3339 50.5209 71.3429 51.0317 70.3878C51.3635 69.766 51.8592 69.2277 52.4484 68.7969C52.4385 68.6695 52.4324 68.5423 52.4345 68.4169C52.4448 67.8577 52.5686 67.2961 52.7769 66.7722C52.4031 66.1327 52.2298 65.4117 52.4484 64.6348C52.693 63.7556 53.3362 62.999 54.1392 62.572C54.2039 61.7431 54.3332 60.9191 54.5179 60.106C54.0243 59.0042 54.4173 57.5502 55.5328 56.9011C55.3873 56.0206 55.5184 55.1076 56.1576 54.4198C56.3999 54.1592 56.6853 53.9616 56.9925 53.8306C56.8445 52.9453 57.0115 52.0242 57.6222 51.3033C58.121 50.7147 58.8602 50.3571 59.6124 50.3044C59.902 48.7645 61.3696 47.6131 62.9178 47.7048C63.1114 47.0268 63.5737 46.4357 64.2909 46.136C64.4746 46.0592 64.6601 46.0087 64.845 45.9806C66.104 44.7075 67.9784 43.8445 69.6011 43.4026C71.2288 42.9611 72.8788 42.9183 74.2763 43.4317L74.3781 43.4702L74.492 43.4554C74.9855 43.4005 75.4786 43.3688 75.9719 43.3561ZM63.603 147.707C63.1683 147.571 62.6834 147.868 62.5656 148.298C62.4412 148.752 62.7182 149.201 63.1546 149.338C63.6983 149.508 64.2694 149.55 64.8361 149.551C65.2917 149.551 65.6794 149.162 65.6794 148.705C65.6794 148.246 65.2934 147.86 64.8361 147.86C64.3753 147.859 64.035 147.842 63.603 147.707ZM59.7359 138.729C59.0859 138.73 58.5285 138.886 58.0466 139.342C57.7253 139.647 57.7173 140.235 58.0466 140.538C58.3792 140.844 58.8618 140.862 59.2032 140.57L59.2689 140.511C59.2768 140.504 59.283 140.498 59.2879 140.494C59.3153 140.476 59.3429 140.458 59.372 140.442L59.317 140.478C59.2752 140.509 59.3723 140.459 59.4268 140.436L59.4439 140.429L59.4494 140.428L59.493 140.424C59.5738 140.42 59.655 140.42 59.7359 140.42C60.177 140.42 60.5994 140.032 60.5792 139.575C60.5585 139.117 60.2086 138.729 59.7359 138.729ZM72.0011 133.366C72.9139 132.805 72.0986 131.369 71.1832 131.886L71.15 131.906C70.6807 132.194 70.1035 132.155 69.5718 132.156C68.4867 132.156 68.4848 133.847 69.5718 133.846L69.7515 133.846C70.5309 133.84 71.3193 133.785 72.0011 133.366ZM64.8174 127.195C64.1277 127.064 63.3552 126.948 62.6295 127.027L62.5091 127.043H62.2858C62.0918 127.043 61.904 127.121 61.7533 127.244C61.5146 127.343 61.2886 127.476 61.0824 127.655C60.2609 128.369 61.4581 129.561 62.2751 128.851C62.3204 128.812 62.3731 128.779 62.4316 128.752L62.4766 128.733H63.3787C63.4607 128.733 63.5406 128.716 63.6184 128.691C63.9112 128.732 64.184 128.79 64.3689 128.825C65.4298 129.025 65.8843 127.396 64.8174 127.195ZM64.0472 110.967C62.7254 110.352 61.2614 110.357 60.0389 111.21C59.1647 111.821 59.9767 113.26 60.8584 112.691L60.89 112.67C60.9996 112.594 61.1122 112.53 61.226 112.472C61.8467 112.651 62.4714 112.66 63.0714 112.439L63.1495 112.409L63.1961 112.427C64.1743 112.882 65.032 111.425 64.0472 110.967ZM78.4415 108.318C77.1062 108.168 77.0954 106.053 78.4415 106.204C81.2836 106.524 83.8624 107.791 85.7511 109.966C86.6296 110.977 85.1829 112.457 84.2879 111.491L84.2604 111.46C82.7585 109.73 80.7317 108.575 78.4415 108.318ZM63.4818 97.4603C63.185 97.4277 62.8888 97.4115 62.5972 97.4256C61.8968 97.4594 61.0439 97.9278 61.3512 98.774C61.5977 99.452 62.4056 99.4789 62.8044 99.1173C62.9703 99.1213 63.136 99.1323 63.3011 99.1492C63.7415 99.1946 64.1777 99.2787 64.6118 99.3645C65.672 99.5736 66.1259 97.9443 65.0602 97.734L64.5888 97.6405C64.43 97.6093 64.2697 97.5788 64.1088 97.5509C64.0125 97.5029 63.9092 97.4706 63.7988 97.4624L63.743 97.4603H63.4818ZM55.1027 84.3428L55.0036 84.3294C53.5795 84.1467 51.2935 84.3148 51.1207 86.1321C51.0252 87.1386 52.4756 87.2017 52.7619 86.3411C53.8135 86.1511 54.8737 86.1148 55.9181 86.2302C56.3166 85.8244 56.3198 85.0443 55.6565 84.8496C55.5629 84.5973 55.3675 84.3811 55.1027 84.3428ZM87.6546 81.2734C87.3255 80.9705 86.7858 80.9304 86.462 81.2734C86.2754 81.4708 86.1196 81.6902 85.9963 81.9315L85.9142 82.0945C85.9003 82.1216 85.8861 82.1484 85.8713 82.175C85.8437 82.2242 85.8127 82.2712 85.7825 82.3189L85.7622 82.3389C85.7542 82.3471 85.7447 82.357 85.7334 82.369C85.43 82.6905 85.3915 83.2499 85.7334 83.5646C86.0625 83.8675 86.602 83.9076 86.926 83.5646C87.1124 83.3672 87.2682 83.1481 87.3917 82.9065L87.4736 82.7437C87.4875 82.7166 87.5017 82.6898 87.5165 82.6632C87.5442 82.6138 87.5754 82.5668 87.6053 82.5191L87.6389 82.4855C87.6437 82.4805 87.6489 82.475 87.6546 82.469C87.958 82.1477 87.9964 81.5881 87.6546 81.2734ZM70.3618 79.0717C69.1736 78.2276 67.7606 78.1883 66.6684 79.2038C65.8801 79.9368 67.0382 81.1113 67.8331 80.4245L67.861 80.3994C67.8899 80.3724 67.9192 80.3487 67.9483 80.3261C68.0908 80.4478 68.2719 80.525 68.4789 80.5252C68.533 80.5253 68.587 80.5252 68.641 80.5263L68.722 80.5292L68.7654 80.5328L68.7709 80.5339L68.8088 80.55C68.8782 80.5814 68.9739 80.6298 68.8426 80.5474C68.8719 80.5628 68.8993 80.581 68.9271 80.5987L68.9756 80.6429C69.2935 80.9443 69.8436 80.984 70.1592 80.6507C70.718 80.4614 71.0147 79.5352 70.3618 79.0717ZM81.9786 76.302L82.0002 76.2952C83.0421 75.997 82.5991 74.3652 81.5518 74.6647C80.4405 74.9827 79.9099 76.0194 79.6877 77.0812C79.5943 77.5278 79.8184 77.9951 80.2767 78.1213C80.6954 78.2365 81.2201 77.9797 81.3142 77.5308C81.3801 77.2151 81.4561 76.9473 81.5765 76.6987L81.6493 76.5569C81.6834 76.4922 81.6953 76.4815 81.8102 76.3808C81.8295 76.3639 81.9173 76.323 81.9786 76.302ZM64.3316 67.7865L64.1687 67.7492C63.1537 67.5263 61.8065 67.4099 61.1935 68.4186C60.6349 69.3376 62.0442 70.1741 62.6246 69.3055C62.6334 69.3052 62.6436 69.3053 62.6555 69.3062L62.6746 69.3084L62.9347 69.2873C63.2587 69.285 63.5689 69.3424 63.8832 69.417C64.9386 69.6675 65.3891 68.0376 64.3316 67.7865ZM100.769 61.2866C101.538 60.5162 100.345 59.3202 99.5768 60.0912C98.969 60.7005 98.3827 61.3141 97.9877 62.0883C97.7804 62.4945 97.8818 63.0055 98.2902 63.245C98.6669 63.4658 99.2357 63.3496 99.444 62.9417C99.7864 62.2707 100.219 61.8391 100.769 61.2866ZM91.0727 59.2644C90.3135 59.715 89.8221 60.4573 89.5238 61.3164C89.3741 61.7476 89.6943 62.2411 90.1128 62.3563C90.5625 62.4801 90.9735 62.216 91.1352 61.8059L91.1501 61.7657C91.23 61.536 91.3577 61.2646 91.5156 61.0598C91.6506 60.885 91.8603 60.71 92.0184 60.6519C92.3985 60.512 92.668 60.1667 92.6328 59.7634C92.0077 59.98 91.4273 59.7195 91.0727 59.2644ZM68.3467 55.5869C67.5808 54.8742 66.5533 54.7798 65.6248 55.2111C65.2114 55.403 65.1079 56.0005 65.3223 56.3679C65.5702 56.7929 66.0612 56.8639 66.4759 56.6711C66.3694 56.7206 66.5617 56.6553 66.6448 56.6314C66.6554 56.6364 66.7946 56.63 66.8426 56.6307L66.9004 56.6343C66.9009 56.6347 66.8867 56.6345 66.8579 56.6335C66.8984 56.6427 66.9384 56.6536 66.9778 56.6662L67.028 56.6837C67.0027 56.6784 67.1167 56.7528 67.1484 56.7776L67.1541 56.7823C67.9489 57.5218 69.1445 56.329 68.3467 55.5869Z" fill="black"/>
<path fill-rule="evenodd" clip-rule="evenodd" d="M129.69 120.752C130.415 119.473 132.578 119.681 132.909 121.173C133.58 124.198 129.974 126.992 127.235 127.062C124.513 127.131 121.459 124.813 121.853 121.886C121.95 121.162 122.917 121.25 123.247 121.704L123.375 121.878C124.27 123.081 125.451 124.326 127.112 124.033C127.801 123.912 128.426 123.481 128.842 122.927C129.344 122.259 129.289 121.461 129.69 120.752ZM112.384 98.6195C112.753 98.5179 113.125 98.5572 113.452 98.6963C114.181 98.83 114.791 99.4387 115.005 100.134C115.022 100.194 115.041 100.253 115.062 100.312L115.094 100.4L115.007 100.177C115.047 100.396 115.226 100.627 115.29 100.847C115.369 101.118 115.388 101.425 115.361 101.723C115.593 101.726 115.825 101.734 116.057 101.754L116.281 101.774C117.532 101.89 118.906 102.103 119.648 103.185C120.064 103.793 119.673 104.887 118.908 105.004C117.73 105.185 116.715 104.532 115.54 104.402C114.43 104.278 113.269 104.349 112.173 104.55C109.911 104.963 107.833 105.881 105.628 106.456L105.328 106.532V106.532L105.329 106.531C104.951 106.622 104.522 106.097 104.896 105.789C106.662 104.338 108.923 103.162 111.15 102.446C110.826 101.929 110.725 101.249 110.947 100.695C110.981 100.58 111.024 100.468 111.069 100.357L111.163 100.128V100.128C111.172 100.02 111.193 99.913 111.223 99.8084L111.227 99.7765V99.7765L111.23 99.7784V99.7784C111.396 99.2392 111.829 98.7725 112.384 98.6195ZM134.914 98.703C135.397 98.2196 136.076 98.291 136.58 98.6715L136.647 98.7239V98.7239C137.122 98.935 137.515 99.3964 137.773 99.824C138.041 100.268 138.22 100.72 138.227 101.209C139.396 101.213 140.516 101.564 141.374 102.508C141.651 102.813 141.84 103.283 141.688 103.696L141.597 103.942V103.942C141.309 104.722 140.013 105.172 139.573 104.254L139.552 104.209C139.084 103.119 137.288 103.234 136.333 103.345C135.668 103.423 135.01 103.589 134.368 103.774C134.141 103.839 133.917 103.91 133.693 103.982L133.469 104.055C133.349 104.094 132.726 104.432 133.114 104.352C133.218 104.331 133.296 104.482 133.19 104.533C132.728 104.754 132.235 104.314 132.266 103.818C132.32 102.957 133.687 102.484 134.345 102.187L134.384 102.169C134.637 102.053 134.901 101.941 135.174 101.837C135.02 101.609 134.894 101.355 134.788 101.083C134.688 100.826 134.622 100.576 134.585 100.303C134.549 100.169 134.549 100.036 134.585 99.902L134.591 99.8637V99.8637C134.572 99.7754 134.563 99.6841 134.565 99.5921L134.561 99.5564H134.565C134.578 99.2345 134.705 98.912 134.914 98.703ZM127.197 107.877C129.053 108.45 132.114 110.013 131.147 112.424C129.797 114.639 126.216 113.012 124.481 112.296C122.922 111.779 122.11 113.965 123.618 114.624C136.074 119.553 136.028 106.543 127.649 106.734C126.726 106.755 126.697 107.686 127.197 107.877ZM110.717 90.9121L111.034 90.8197C112.678 90.3431 114.357 89.5201 115.818 90.8043C116.391 91.3085 116.509 92.3564 116.099 92.9854C115.164 94.4186 113.778 94.1996 112.269 94.3218C111.119 94.4148 109.987 94.7525 108.914 95.1746C108.037 95.5197 107.224 96.0056 106.457 96.5475C105.702 97.0803 105.187 97.9132 104.413 98.3928C104.13 98.5686 103.802 98.3877 103.701 98.1026C103.34 97.0913 103.949 95.8314 104.465 94.9698C105.095 93.9185 106.052 93.0587 107.08 92.4082C108.207 91.6957 109.452 91.2843 110.717 90.9121V90.9121ZM134.683 89.8239C137.463 89.8231 140.138 91.3699 141.693 93.6375C142.221 94.4079 141.834 95.5492 141.076 95.9928C140.225 96.4907 139.315 96.1322 138.754 95.4187L138.721 95.3755C137.829 94.1875 136.68 93.2518 135.317 92.6427C134.652 92.3453 133.917 92.1042 133.198 91.9818L132.965 91.942C132.64 91.8874 132.262 91.8352 131.967 91.8863C131.809 91.907 131.664 91.9592 131.531 92.0387C131.595 92.179 131.429 92.3481 131.276 92.264C130.585 91.8844 130.67 91.2072 131.241 90.6809C132.048 89.9364 133.64 89.8241 134.683 89.8239Z" fill="black"/>
</g>
<defs>
<clipPath id="clip0_2016_14169">
<rect width="200" height="267" fill="white"/>
</clipPath>
</defs>
</svg>
