<svg width="200" height="267" viewBox="0 0 200 267" fill="none" xmlns="http://www.w3.org/2000/svg">
<g clip-path="url(#clip0_2016_14159)">
<rect width="200" height="267" fill="white"/>
<path fill-rule="evenodd" clip-rule="evenodd" d="M23.008 273.246C22.7205 273.256 22.8111 273.172 22.9168 273.151C22.9472 273.183 22.9776 273.215 23.008 273.246ZM31.4978 279.56C39.5317 280.513 47.5755 279.641 55.5699 278.767C71.7657 277.566 87.8475 281.065 104.075 279.998C124.355 279.143 144.69 277.538 164.903 280.243C170.494 280.372 179.411 281.881 177.383 273.223C174.72 250.964 171.159 228.817 167.345 206.729C164.113 194.346 163.879 172.928 155.027 164.317C153.733 163.135 149.091 159.311 147.864 158.798C141.763 156.525 130.764 154.752 126.226 149.935C122.55 143.713 124.26 135.223 118.545 130.214C113.536 126.123 102.602 126.988 97.2471 130.06C93.0217 132.801 92.3598 138.124 89.727 142.061C89.0775 143.004 87.5349 145.278 86.6638 146.012C84.5434 148.054 77.096 150.2 74.9453 150.594C62.8086 153.082 56.757 154.619 47.2113 162.687C22.2695 188.16 25.805 233.214 18.9035 266.524C18.6211 270.186 16.3958 275.155 20.3659 277.513C23.7853 279.151 27.8057 278.973 31.4978 279.56Z" fill="#FDC6A0"/>
<path fill-rule="evenodd" clip-rule="evenodd" d="M123.444 141.467C123.474 141.38 123.613 141.365 123.634 141.467C123.974 143.024 124.612 144.732 125.259 146.193C125.916 147.672 126.814 149.031 127.948 150.185C130.325 152.603 133.382 153.706 136.735 153.708L136.815 153.71C136.83 153.598 136.848 153.485 136.864 153.372L136.887 153.203C137.193 150.887 139.942 150.954 140.478 152.702C140.751 152.789 141.023 152.876 141.294 152.966L141.348 152.986C141.803 153.159 143.345 153.927 143.628 153.723C144.252 153.275 144.964 153.789 145.2 154.361C145.587 155.299 145.652 156.458 145.777 157.476L145.794 157.608L145.813 157.766C154.633 160.059 159.583 168.888 162.11 177.02C163.479 181.429 164.375 185.977 165.275 190.5C166.238 195.338 167.126 200.188 168.066 205.028C169.919 214.566 171.672 224.126 173.195 233.721L173.637 236.508C175.032 245.331 176.392 254.149 177.535 263.012C178.152 267.791 178.73 272.574 179.288 277.361C179.388 278.215 179.487 279.069 179.585 279.923L179.732 281.205C179.863 282.355 180.085 283.492 179.516 284.568C178.285 286.901 174.554 286.884 174.342 283.896C174.3 283.302 174.501 282.848 174.833 282.531L174.828 282.48C174.825 282.45 174.821 282.428 174.82 282.419C174.71 281.825 174.68 281.197 174.613 280.596C174.465 279.316 174.321 278.035 174.176 276.752C173.895 274.309 173.611 271.866 173.318 269.425C172.724 264.473 172.097 259.527 171.431 254.586L170.772 249.7C168.566 233.414 166.267 217.131 163.242 200.975C162.419 196.577 161.572 192.185 160.703 187.795C159.879 183.638 158.954 179.499 157.572 175.486C155.316 168.93 151.371 162.79 145.895 158.487C145.98 159.309 146.041 160.135 146.119 160.958C146.32 163.069 146.533 165.178 146.749 167.288C147.533 174.93 148.595 182.56 150.408 190.033C151.306 193.736 152.4 197.39 153.733 200.96C154.39 202.718 155.107 204.454 155.892 206.157C156.67 207.841 158.033 209.642 158.115 211.519C158.153 212.388 157.245 213.159 156.404 213.066C156.797 216.524 157.019 220.017 157.253 223.467C157.595 228.463 157.868 233.468 158.267 238.46C158.981 247.402 159.877 256.332 160.815 265.253C161.001 267.021 161.203 268.788 161.403 270.555L161.57 272.039C161.683 273.001 161.854 274.154 161.343 275.006C161.8 276.108 162.112 277.238 162.294 278.418C162.524 279.884 161.686 281.529 159.974 281.465C159.78 281.459 159.585 281.442 159.391 281.421C157.804 281.789 156.222 282.112 154.574 282.123C152.47 282.137 150.361 282.095 148.257 282.08C144.186 282.053 140.115 282.025 136.044 281.992C121.306 281.873 106.561 281.88 91.8256 281.643L85.9296 281.549C80.5246 281.462 75.1188 281.362 69.7164 281.165C65.996 281.03 62.2758 280.893 58.5572 280.743L57.8002 280.714C54.5192 280.594 51.2344 280.533 47.9896 280.03C47.9083 280.017 47.8731 279.932 47.8857 279.858L47.8903 279.838L47.7488 279.806C47.6664 280.161 45.9551 278.669 45.9678 277.678C45.2579 276.754 45.5896 275.279 45.6657 274.21C45.7396 273.168 45.8326 272.124 45.915 271.082C46.0903 268.856 46.2403 266.629 46.4199 264.403C47.1446 255.429 47.7699 246.432 48.1756 237.439C48.3805 232.906 48.5453 228.37 48.7185 223.836C48.7965 221.772 48.9051 219.707 49.1075 217.652L49.1601 217.139C49.3819 215.055 49.3608 212.815 50.1277 210.851C50.1382 210.824 50.1741 210.824 50.1847 210.851C50.9601 212.762 51.034 214.983 51.1903 217.08C51.2178 217.071 51.2453 217.067 51.2748 217.061C52.346 216.551 53.4277 216.093 54.4417 215.463C54.5791 215.378 54.7122 215.289 54.8474 215.203C56.4425 210.321 58.291 205.519 59.9918 200.668C65.4868 184.984 68.5206 168.281 69.1925 151.673C65.0009 154.376 60.4359 156.479 55.9982 158.738L55.5826 158.95C51.2115 161.186 47.0263 163.724 43.9143 167.602C41.2016 170.98 39.4291 175.095 37.7706 179.062C35.9896 183.325 34.384 187.664 32.9157 192.043C29.9368 200.928 27.6298 210.031 25.8298 219.227C24.053 228.302 22.7833 237.445 21.934 246.652C21.5009 251.348 21.1058 256.048 20.7741 260.755C20.6051 263.137 20.4551 265.521 20.3157 267.907C20.2481 269.065 20.1974 270.226 20.1213 271.384C20.0748 272.052 20.0664 272.741 19.8467 273.375C19.6629 273.903 19.3375 274.345 19.0333 274.812C18.4777 275.664 17.0748 275.818 16.553 274.812L16.3271 274.376C16.028 273.796 15.7548 273.212 15.7143 272.542C15.6763 271.908 15.7544 271.247 15.7903 270.61C15.8601 269.323 15.9403 268.034 16.0206 266.747C16.1896 264.04 16.3777 261.332 16.5889 258.627C17.0094 253.208 17.5502 247.804 18.2305 242.41C20.6241 223.467 24.0805 204.623 30.6763 186.645C32.3072 182.2 34.1263 177.791 36.1798 173.525C38.1657 169.399 40.6777 165.504 44.3241 162.663C47.6808 160.048 51.5826 158.297 55.4594 156.598L55.9439 156.386C60.2896 154.486 64.627 152.44 69.165 151.028C69.0636 151.041 68.9643 151.054 68.8779 151.083C68.7784 151.115 68.7194 150.986 68.7807 150.916C69.0382 150.631 69.146 150.337 69.442 150.056C69.6463 149.862 69.8589 149.678 70.0776 149.501L70.3922 149.25C70.968 148.793 71.5733 148.326 72.2981 148.167C73.3229 147.943 73.8258 148.875 73.5382 149.604C73.6861 149.412 74.0833 149.469 74.1868 149.733C77.5587 158.432 79.7727 167.641 84.3108 175.86C87.6615 181.932 92.1572 187.539 98.1234 191.206C101.328 193.176 104.996 194.689 108.784 194.928C112.185 195.141 115.458 194.277 118.35 192.491C123.957 189.031 127.619 182.957 130.23 177.071C133.101 170.591 135.15 163.686 136.354 156.686C132.539 156.739 128.512 154.998 125.975 152.159C124.64 150.665 123.645 148.845 123.14 146.905C122.63 144.948 122.793 143.339 123.444 141.467ZM91.4346 136.384C91.8996 135.553 92.9306 135.279 93.7736 135.617C94.7093 135.993 94.9905 136.902 94.8574 137.825C94.703 138.907 94.0079 140.076 93.4672 141.021C92.9011 142.01 92.1722 142.921 91.4177 143.773C89.9982 145.379 88.479 146.827 86.6771 148.01C84.8834 149.187 82.8551 150.069 80.7701 150.561L80.2744 150.677C78.6524 151.048 76.3448 151.473 74.9938 150.591C74.9285 150.549 74.9304 150.462 74.9938 150.42C75.7248 149.91 76.7032 149.819 77.5438 149.579C78.4607 149.314 79.3799 149.014 80.2565 148.638C81.987 147.894 83.6433 146.913 85.1177 145.742C86.5989 144.568 88.0311 143.166 89.0222 141.549C89.5208 140.738 89.9454 139.886 90.353 139.028C90.7651 138.168 90.972 137.212 91.4346 136.384Z" fill="black"/>
<path fill-rule="evenodd" clip-rule="evenodd" d="M149.361 105.012C150.667 95.5636 147.878 86.4457 144.265 77.8108C144.067 77.2849 143.752 76.8295 143.347 76.5057C133.151 55.9039 118.17 54.0383 97.269 55.4571C96.6515 55.4434 96.6148 55.4544 96.1459 55.2441C96.0683 46.875 86.5339 42.4419 79.2785 45.2032C47.1003 60.1941 57.2185 102.398 63.6218 129.95C65.9063 140.616 68.1914 151.281 70.4762 161.947C70.553 162.303 70.7147 162.612 70.9297 162.872C70.5979 162.998 70.2658 163.116 69.9401 163.227C69.1968 163.481 69.4921 164.592 70.2658 164.412C71.0242 164.235 71.7549 163.999 72.4778 163.741C73.6048 163.987 74.5497 163.248 75.4346 162.659C85.7956 158.552 90.1453 145.053 92.8029 135.108C103.608 142.751 120.873 148.474 133.227 141.602C144.802 134.614 148.971 120.036 148.149 107.169C148.993 106.779 149.334 105.93 149.357 105.044H149.362C149.361 105.033 149.361 105.022 149.361 105.012V105.012Z" fill="#FDC6A0"/>
<path fill-rule="evenodd" clip-rule="evenodd" d="M91.4556 139.853C90.7616 141.477 89.8546 143.647 88.9482 145.95C88.3052 147.584 87.6642 149.281 87.1002 150.896C86.2052 152.607 85.2045 154.24 84.0783 155.734C84.2932 154.78 84.5995 153.706 84.9556 152.582C85.6665 150.338 86.6115 147.792 87.5524 145.401C88.4939 143.008 89.435 140.761 90.1405 139.113C90.4933 138.289 90.7873 137.614 90.9934 137.145C91.0692 136.972 91.1331 136.827 91.1836 136.713L89.351 132.477L80.4741 119.982L80.4214 119.97C80.1953 119.919 79.8774 119.838 79.498 119.717C78.7418 119.475 77.7279 119.068 76.7085 118.404C74.6478 117.062 72.5736 114.668 72.5736 110.585C72.5736 106.779 73.0665 104.821 73.6666 103.795C73.9209 103.361 74.2068 103.073 74.4992 102.897L73.155 89.0805L73.1429 88.9563L73.1717 88.8348L73.9014 89.0079C73.1717 88.8348 73.1717 88.8347 73.1718 88.8345L73.1719 88.8338L73.1725 88.8312L73.1749 88.8212L73.1842 88.7822L73.2205 88.6315C73.2524 88.4996 73.2995 88.3062 73.3605 88.0592C73.4824 87.5652 73.6601 86.8566 73.8832 85.9969C74.3294 84.278 74.958 81.9517 75.6875 79.5259C76.4161 77.1027 77.2492 74.5673 78.1049 72.4348C78.5327 71.3689 78.9706 70.3921 79.4091 69.5754C79.8415 68.7701 80.2995 68.0718 80.781 67.6019C82.4169 66.0055 85.6843 63.4397 88.5058 61.2977C89.9242 60.2209 91.2421 59.2421 92.2054 58.5325C92.687 58.1776 93.0802 57.89 93.3531 57.691L93.5288 57.563L93.5391 57.4974C93.5759 57.2627 93.6267 56.9256 93.6819 56.5184C93.7925 55.7024 93.9201 54.6119 93.9905 53.5032C94.0613 52.3859 94.0714 51.2872 93.9603 50.4405C93.9045 50.0149 93.823 49.6942 93.7273 49.4785C93.6488 49.3016 93.589 49.2565 93.5806 49.2507C92.6115 48.8635 90.4507 47.8051 88.5664 46.8622C87.6147 46.386 86.7216 45.9332 86.0665 45.5995C85.7389 45.4327 85.4707 45.2955 85.2843 45.2L85.1515 45.1319L79.6257 45.0771C82.6159 44.0428 85.9548 44.1989 88.8441 45.3236C88.9738 45.3887 89.1051 45.4545 89.2376 45.5208C89.812 45.8082 90.4034 46.1019 90.9739 46.3819C93.0457 47.6618 94.7028 49.5184 95.5435 51.8403C95.547 52.4181 95.5243 53.0164 95.4874 53.5981C95.4141 54.7548 95.2817 55.8832 95.1683 56.7199C95.1115 57.139 95.0592 57.4866 95.021 57.73C95.0018 57.8518 94.9862 57.9476 94.9754 58.0133L94.9627 58.089L94.9593 58.109L94.9584 58.1143L94.9581 58.1159L94.958 58.1163C94.958 58.1165 94.958 58.1166 94.219 57.9886L94.6586 58.5963L94.6583 58.5965L94.657 58.5974L94.6518 58.6011L94.6312 58.6161L94.5498 58.6752C94.4782 58.7272 94.3726 58.804 94.237 58.9029C93.9658 59.1007 93.5746 59.3869 93.095 59.7402C92.1358 60.4468 90.8239 61.4212 89.4128 62.4924C86.5756 64.6464 83.3859 67.1557 81.8287 68.6755C81.5118 68.9846 81.1398 69.5228 80.7307 70.2849C80.3278 71.0354 79.913 71.9569 79.497 72.9935C78.6652 75.0661 77.847 77.5533 77.1239 79.9578C76.4017 82.3598 75.7782 84.6665 75.3351 86.3737C75.1137 87.227 74.9375 87.9297 74.8167 88.4187C74.7564 88.6632 74.7099 88.8543 74.6785 88.984L74.6601 89.0604L76.0507 103.354L76.1484 104.358L75.2699 104.184C75.2203 104.215 75.1051 104.307 74.9612 104.553C74.571 105.22 74.0736 106.841 74.0736 110.585C74.0736 114.054 75.7936 116.018 77.5271 117.147C78.4048 117.719 79.288 118.075 79.9546 118.288C80.2867 118.394 80.5616 118.464 80.7505 118.506C80.8448 118.528 80.9174 118.542 80.9646 118.551L80.9975 118.557L81.0158 118.56L81.026 118.562L81.0262 118.562L81.0266 118.562L81.027 118.562L81.0274 118.562L81.3396 118.61L81.5234 118.869L90.6194 131.672L90.6651 131.737L90.6964 131.809L92.5418 136.075C92.2087 137.296 91.8491 138.563 91.4556 139.853ZM94.219 57.9886L94.958 58.1166L94.9059 58.4173L94.6586 58.5962L94.219 57.9886ZM70.6948 164.305C71.3012 164.145 71.8919 163.95 72.4775 163.741C73.3481 163.931 74.1101 163.533 74.8196 163.071C74.3295 163.181 73.8697 163.275 73.4565 163.355C72.8602 163.469 72.3639 163.553 72.0175 163.608C71.8444 163.635 71.709 163.656 71.6174 163.669C71.5716 163.676 71.5369 163.68 71.5139 163.684L71.4883 163.687L71.4823 163.688L71.4811 163.688L71.481 163.688L71.4809 163.688L71.2007 163.725L71.0148 163.939L70.6948 164.305Z" fill="#A55728"/>
<path fill-rule="evenodd" clip-rule="evenodd" d="M76.3097 45.9902C78.6985 44.4389 81.7645 43.8615 84.579 43.9746C86.08 44.0348 87.4813 44.4099 88.8652 44.9734C90.1478 45.4959 91.2787 46.2464 92.5276 46.8183C92.6035 46.8529 92.5461 46.9597 92.4744 46.9451C90.9955 46.6458 89.2591 46.8266 87.7595 47.0409L87.6104 47.0624C86.1365 47.2769 84.6367 47.3879 83.1839 47.7283C80.5078 48.3554 78.0186 49.7218 76.5498 52.0984C74.632 55.2023 74.1403 59.2201 74.3454 62.8012C74.4492 64.6131 74.8055 66.3956 75.3603 68.123C75.6934 69.1597 76.4674 70.2027 76.8289 71.2905C77.1041 70.7757 77.388 70.2659 77.6821 69.7622C76.3424 69.1292 75.9667 67.37 75.8973 65.7823C75.6909 65.5824 75.5581 65.293 75.5537 65.0274C75.5419 64.3132 75.7095 63.6667 75.9945 63.0751C76.1573 61.3995 76.5022 59.729 77.0958 58.1589C79.426 51.9944 85.5734 46.4385 92.5446 46.9873C94.4606 47.1383 96.3249 47.9539 97.3155 49.6878C98.1114 51.0801 98.1167 52.7597 97.5677 54.2407C97.4049 54.6803 97.1933 55.0772 96.9445 55.4392C97.6978 55.2478 98.4523 55.0641 99.2056 54.8821C101.819 54.2506 104.446 53.7558 107.121 53.4807C110.765 53.1062 114.484 53.6728 117.824 55.1309C118.739 55.367 119.651 55.6206 120.557 55.8915C124.543 57.0831 128.633 58.6395 131.853 61.3594C133.334 62.6108 134.395 64.0666 135.255 65.6652C138.479 68.5461 141.561 71.8119 143.736 75.5477C148.219 83.2449 149.29 92.766 149.474 101.517C149.643 109.555 148.939 117.676 147.436 125.574C146.754 129.159 145.651 132.49 143.42 135.43C140.936 138.703 137.622 141.283 133.904 143.013C126.335 146.536 116.966 147.049 109.608 142.684C107.395 141.371 109.388 137.949 111.623 139.228C118.887 143.383 128.158 142.434 135.147 138.029C138.099 136.168 140.644 133.623 142.26 130.507C143.44 128.23 143.947 125.62 144.386 123.079L144.619 121.719C145.973 113.904 146.585 105.888 146.259 97.9593C145.934 90.0506 144.683 81.4846 140.214 74.7609C137.857 71.2144 134.852 68.1076 131.695 65.2746C131.473 65.0756 131.251 64.8773 131.028 64.6797C129.794 63.9364 128.516 63.2873 127.257 62.7334L126.989 62.6173C126.266 62.308 125.253 61.9084 124.314 61.5889C122.972 61.1322 121.607 60.7264 120.237 60.3607C119.519 60.1691 118.798 59.9932 118.075 59.8252C118.327 60.057 118.577 60.291 118.824 60.5309C119.99 61.6673 120.916 63.0178 122.022 64.2094C122.147 64.3439 121.989 64.54 121.83 64.4582C120.148 63.5929 118.283 63.0328 116.526 62.3318C114.866 61.669 113.252 60.906 111.621 60.1748C111.212 59.9913 110.805 59.7954 110.399 59.6016C108.795 59.6181 107.19 59.6559 105.59 59.7474C107.525 61.1282 109.292 62.76 110.756 64.5495C110.876 64.6968 110.767 64.9329 110.563 64.8807C107.499 64.0941 104.585 62.9382 101.673 61.7268L100.279 61.1453V61.1453C99.2553 61.0933 98.2297 61.069 97.2038 61.0842L96.7066 61.0925C95.6297 61.1131 94.5548 61.1559 93.4874 61.3194C93.2336 61.3581 92.9848 61.3949 92.7378 61.4287C91.2357 62.0433 89.7903 62.7843 88.4897 63.761L88.8285 63.7409V63.7409C90.8848 63.6236 92.9815 63.8011 94.9729 64.3333C98.8423 65.3678 102.144 67.859 104.547 71.0354C104.618 71.1305 104.479 71.2628 104.384 71.1982C101.362 69.1238 97.8561 68.0788 94.2643 67.5114C92.5282 67.2368 90.7402 67.1423 88.9874 67.2791C87.5362 67.3922 86.0349 67.9047 84.591 67.6559C84.1974 68.1473 83.8194 68.6535 83.4555 69.1709C83.6467 69.1586 83.8388 69.1474 84.0321 69.1383C86.1057 69.0407 88.2175 69.1741 90.2423 69.6526C94.2865 70.6089 97.6659 73.0428 100.757 75.7149C100.819 75.7678 100.74 75.862 100.674 75.824C97.3208 73.8842 93.424 73.3045 89.626 72.9545C87.7135 72.7782 85.7794 72.6983 83.8626 72.8513C82.9845 72.9213 82.1161 73.0665 81.2406 73.1567C81.1698 73.1641 81.0962 73.166 81.0232 73.1694C80.3887 74.369 79.8133 75.5902 79.2943 76.8078C80.8784 76.3817 82.5875 76.1581 84.2231 76.2684C87.5452 76.4927 90.8404 78.0197 93.4923 79.9728C93.5754 80.0339 93.529 80.1966 93.4162 80.1539C90.5296 79.0606 87.6681 79.0517 84.6557 79.4736C83.2434 79.6714 81.8454 79.9398 80.481 80.3608C79.795 80.5726 79.1168 80.8036 78.4658 81.1077C78.1702 81.2455 77.8824 81.4062 77.5915 81.5577C77.3587 82.3498 77.1506 83.1494 76.963 83.9538C81.887 84.2321 86.5257 86.5621 90.5627 89.2361C90.6603 89.3007 90.5994 89.4808 90.4788 89.4351C88.0689 88.5236 85.4473 88.1022 82.8911 87.8568C80.656 87.6423 78.4626 87.7589 76.2403 87.8215C76.1212 88.6679 76.0249 89.5169 75.9551 90.3676C76.3124 90.468 76.663 90.5762 77.0001 90.6779C78.1088 91.0118 79.2154 91.4614 80.2499 91.9826C82.3514 93.0412 84.0542 94.4723 85.7676 96.0631C85.857 96.1462 85.7638 96.3275 85.6426 96.2782C83.6539 95.4724 81.4809 94.9562 79.3875 94.4995C78.3041 94.2632 77.2202 94.0451 76.1292 93.845C76.0236 93.8255 75.9163 93.8093 75.8092 93.7932C75.7989 95.7326 75.9083 97.6727 76.1495 99.5968L76.1963 99.9574C76.327 100.931 76.2201 101.873 75.5769 102.546C76.4665 101.953 77.4844 101.543 78.6125 101.385C81.5832 100.971 84.334 102.161 86.2033 104.462C86.2908 104.57 86.1559 104.711 86.0496 104.616C84.2355 102.998 81.4398 102.712 79.1868 103.473C77.1009 104.179 75.5328 105.863 74.9043 107.97C74.2365 110.209 74.5424 112.681 75.7603 114.676C76.367 115.671 77.2434 116.56 78.3401 116.997C78.4754 117.051 78.6133 117.096 78.7527 117.135C79.4147 116.893 80.127 117.003 80.8078 117.31L80.8961 117.352V117.352C81.3304 117.349 81.7628 117.336 82.183 117.34C83.0007 117.348 83.3939 118.218 83.0507 118.866C83.2453 119.223 83.3878 119.625 83.5588 119.975C83.8676 120.607 84.191 121.235 84.5161 121.859C84.9759 122.387 85.4151 122.935 85.7132 123.573C85.8355 123.835 85.951 124.119 86.0395 124.403C86.295 124.788 86.5548 125.172 86.8208 125.553C87.681 126.785 88.5869 127.951 89.5915 129.07C90.1952 129.742 90.8899 130.342 91.5291 130.986C91.7229 131.012 91.9128 131.144 91.9727 131.334L92.025 131.516V131.516C92.2309 131.749 92.4281 131.989 92.6056 132.244C92.9994 132.81 92.8914 133.385 92.5455 133.799C93.0934 137.226 92.7203 140.872 91.9872 144.195C91.5133 146.343 90.9599 148.488 90.2172 150.56C89.8396 151.612 89.3823 152.624 88.7505 153.549C88.4041 154.056 87.9529 154.646 87.447 155.128C87.37 155.69 87.2701 156.246 87.1269 156.792C85.4296 163.259 78.4818 165.227 72.6644 166.053C71.5415 166.213 70.4303 165.941 69.8187 164.892C69.6774 164.65 69.5826 164.389 69.5315 164.121C69.2781 164.053 69.0344 163.934 68.8158 163.763C68.7793 164.169 68.7372 164.575 68.6838 164.986C68.5508 166.014 67.1672 166.323 66.8204 165.239C65.3568 160.665 64.5618 155.842 63.559 151.142C62.5582 146.452 61.4406 141.786 60.4065 137.103L59.0972 131.193C55.9024 116.72 52.9099 102.063 53.6444 87.1781C54.0454 79.053 55.5325 70.949 58.7155 63.4405C61.367 57.1856 65.8419 50.1584 73.0708 48.8796C73.1206 48.8709 73.1648 48.876 73.2062 48.8865C74.0646 47.7674 75.0903 46.7819 76.3097 45.9902ZM80.6716 124.66C81.2545 126.599 81.6707 128.586 81.8971 130.615C82.2742 133.995 82.0872 137.458 81.9234 140.848C81.7727 143.962 81.4149 147.103 80.8059 150.161C80.2213 153.097 79.305 155.975 77.9429 158.646C77.7226 159.078 77.4858 159.499 77.2371 159.911C77.9903 159.66 78.6705 159.367 79.3788 158.961C80.2704 158.449 81.0863 157.79 81.5326 157.094C82.2489 155.978 82.4893 154.739 82.5941 153.409C82.8635 149.989 82.9881 146.559 83.1599 143.133L83.198 142.387C83.4759 137.034 83.8402 131.545 83.2961 126.187C82.5306 125.985 81.84 125.589 81.2026 125.092C81.0268 124.956 80.8493 124.811 80.6716 124.66ZM74.8497 118.178C75.0106 119.807 75.1645 121.435 75.3038 123.065C75.7982 128.85 76.1037 134.667 75.8227 140.472C75.6764 143.495 75.3825 146.526 74.8744 149.51C74.6454 150.856 74.3686 152.2 74.0593 153.531L73.955 153.974C73.6411 155.292 73.441 156.939 72.4358 157.898L72.4434 158.097V158.097C73.149 157.023 73.8017 155.816 74.2691 154.692C76.3518 149.686 76.7324 144.235 77.1087 138.897C77.3406 135.607 77.5124 132.312 77.7808 129.025L77.9111 127.443C78.0607 125.602 78.1894 123.775 78.1719 121.935C77.7707 121.336 77.4447 120.705 77.2423 120.058C77.2099 119.954 77.1875 119.848 77.1719 119.743C76.3236 119.34 75.5248 118.79 74.8497 118.178ZM86.2499 129.634C86.6684 131.03 87.0099 132.444 87.2532 133.864C87.6407 136.123 87.8733 138.397 87.9755 140.679L88.1893 139.873C88.7275 137.857 89.2995 135.838 90.0085 133.881C88.8871 133.094 87.9502 131.858 87.1352 130.825C86.8305 130.439 86.5352 130.041 86.2499 129.634ZM70.1916 67.5524C69.7607 68.9469 69.384 70.3572 68.9948 71.7631C68.0802 75.0657 67.4866 78.4587 67.0746 81.858C65.4308 95.4305 66.7999 109.058 68.5904 122.542C69.3323 128.129 70.1389 133.707 70.8313 139.301C70.8496 138.752 70.865 138.203 70.8749 137.655C71.0853 125.782 69.092 114.076 68.2938 102.265L68.2459 101.545C67.8841 96.0226 67.6628 90.397 68.3176 84.8947C68.6545 82.0626 69.2481 79.2911 70.0381 76.5544L70.5084 74.947C70.8262 73.8661 71.1641 72.7565 71.5649 71.6805C71.5114 71.5773 71.4603 71.4733 71.4129 71.3691C70.8582 70.1467 70.4722 68.8617 70.1916 67.5524ZM71.5803 51.5534C67.4427 56.9012 63.9707 62.582 61.8701 69.1161C57.0625 84.0704 58.1358 100.061 60.9218 115.304C62.2346 122.487 63.9275 129.585 65.4722 136.717C63.8187 123.91 61.6864 111.13 61.347 98.1992C61.1617 91.1418 61.5258 84.0514 62.8226 77.1031L62.8993 76.6945C63.4551 73.758 64.1435 70.6468 65.5529 68.0078C66.3182 66.5749 67.163 65.2377 68.1648 63.9577C68.5873 63.4179 69.0616 62.9851 69.5648 62.5892C69.4173 58.9026 69.9734 54.905 71.5803 51.5534ZM78.3308 108.533C80.3893 108.614 82.4459 109.189 84.0669 110.531C85.335 111.579 83.5265 113.352 82.2688 112.333C80.901 111.225 79.6742 109.966 78.2161 108.957C78.0424 108.837 78.0901 108.523 78.3308 108.533ZM74.9159 103.034C74.4582 103.271 74.0035 103.319 73.4851 103.191C73.4661 103.186 73.4479 103.181 73.43 103.176L73.324 103.141C73.3693 103.633 73.417 104.125 73.4642 104.617C73.8825 104.027 74.3676 103.492 74.9159 103.034ZM72.867 73.3417C72.6848 74.8676 72.5661 76.401 72.5029 77.9366C72.4414 79.4327 72.4158 80.9334 72.4088 82.4346L72.4069 83.0779L72.4097 83.0657C73.1174 80.0387 74.1184 77.0597 75.3968 74.2091C75.1767 74.2458 74.9532 74.2399 74.7331 74.2133C74.2297 74.1522 73.7469 73.9284 73.315 73.6665C73.1575 73.571 73.0097 73.4596 72.867 73.3417ZM93.8638 55.6548C92.984 56.0534 92.1344 56.5116 91.2515 56.9012C89.5006 57.6739 87.7875 58.5721 86.1671 59.5919C84.5273 60.6239 82.9476 61.7104 81.4948 62.9976C81.3247 63.1485 81.156 63.3011 80.9876 63.4534C80.9537 63.7863 80.929 64.1205 80.9178 64.4574C80.9117 64.6385 80.9115 64.8279 80.9138 65.0225C83.6551 61.6183 86.9695 58.9324 91.1741 57.2429C91.9029 56.95 92.6437 56.6892 93.3913 56.4478C93.5692 56.2001 93.7288 55.9372 93.8638 55.6548ZM93.7855 52.3893C93.2966 51.7387 91.8913 51.7918 91.0052 51.9368C89.5725 52.1713 88.3105 52.6735 87.0825 53.4006C85.631 54.2595 84.3789 55.4232 83.3992 56.7919C83.8813 56.5192 84.3726 56.262 84.8741 56.0232L85.2177 55.8605C87.1174 54.9678 89.1751 54.1191 91.2529 53.8423C92.2143 53.7142 93.2482 53.5289 94.2194 53.6333C94.1716 53.16 94.0312 52.7162 93.7855 52.3893Z" fill="black"/>
<path fill-rule="evenodd" clip-rule="evenodd" d="M123.152 128.274C121.732 127.695 120.465 126.728 119.538 125.493C119.216 125.063 119.133 124.61 119.2 124.195C119.276 123.729 119.552 123.306 119.928 123.023C120.305 122.739 120.777 122.598 121.233 122.67C121.63 122.732 122.024 122.949 122.337 123.399L122.402 123.489C122.953 124.235 123.67 124.846 124.488 125.241C125.276 125.621 126.158 125.798 127.07 125.695C128.808 125.499 130.005 124.559 131.278 123.282C131.436 123.121 131.594 122.955 131.752 122.786C131.852 122.633 131.991 122.534 132.146 122.483C132.317 122.425 132.511 122.429 132.689 122.491C132.86 122.55 133.013 122.664 133.116 122.815C133.213 122.958 133.269 123.135 133.251 123.339C133.134 124.661 132.443 125.842 131.461 126.769C130.37 127.799 128.924 128.511 127.563 128.761C126.064 129.036 124.536 128.839 123.152 128.274V128.274ZM128.271 107.866C129.866 108.836 132.297 111.098 130.581 113.503C128.56 115.624 125.652 113.193 124.219 112.093C122.89 111.241 121.396 113.433 122.629 114.428C132.987 122.099 137.19 108.12 129.078 106.726C128.184 106.572 127.853 107.566 128.271 107.866ZM109.711 98.9429C109.887 96.7541 113.219 96.257 113.551 98.423C113.847 100.363 113.498 102.145 112.624 103.892C111.79 105.561 109.692 104.783 109.533 103.263C109.32 101.226 109.601 100.304 109.711 98.9429ZM135.076 97.9739C135.541 97.3652 136.212 96.9497 137.015 97.1845C139.526 97.9185 138.786 101.485 137.904 103.22C137.425 104.163 135.876 104.402 135.176 103.572C134.036 102.219 133.489 99.5157 134.94 98.1825C134.979 98.1136 135.023 98.044 135.076 97.9739ZM112.589 89.3654L112.986 89.2959C114.213 89.0836 115.738 88.8796 116.606 89.8665C117.067 90.3898 117.225 91.3624 116.606 91.8633C115.518 92.7446 114.314 92.4031 113.01 92.4777C111.935 92.5394 110.902 92.7174 109.867 93.0135C107.595 93.6629 105.744 94.8486 103.804 96.1505C103.55 96.3213 103.29 95.9956 103.411 95.7574C104.531 93.563 106.701 91.7604 108.875 90.6616C110.036 90.0751 111.305 89.5885 112.589 89.3654ZM132.787 88.3823L133.091 88.4445C136.395 89.1353 140.687 90.5153 142.251 93.7615C142.311 94.2205 142.248 94.3189 142.197 94.3832L142.18 94.4046C142.137 94.4595 142.104 94.5351 141.905 94.5976C141.85 94.5844 141.794 94.5705 141.737 94.5557C141.02 94.3677 140.453 94.1087 139.904 93.84L139.308 93.5465C138.617 93.2076 137.92 92.881 137.181 92.6399C135.605 92.1255 133.983 91.7631 132.337 91.5696C131.98 91.5277 131.636 91.4072 131.365 91.2006C131.108 91.0046 130.911 90.7332 130.821 90.3724C130.705 89.9056 130.739 89.5521 130.989 89.1309C131.177 88.8146 131.447 88.5953 131.756 88.4694C132.071 88.3411 132.43 88.3108 132.787 88.3823Z" fill="black"/>
<path fill-rule="evenodd" clip-rule="evenodd" d="M149.071 112.228C148.371 111.288 147.112 110.054 145.839 110.12C145.676 110.128 145.615 110.305 145.713 110.424C146.13 110.933 146.699 111.295 147.116 111.814C147.61 112.429 147.966 113.17 148.198 113.92C148.534 115.009 148.627 116.241 148.327 117.349C147.798 119.301 146.126 120.732 144.301 121.462C142.494 122.185 140.321 122.433 138.613 121.373C136.091 119.808 133.952 117.553 130.783 117.509C130.042 117.498 129.519 117.838 129.208 118.323C128.895 117.855 128.38 117.525 127.657 117.516C124.104 117.476 121.452 119.923 118.47 121.449C116.455 122.479 113.847 122.159 111.768 121.478C109.807 120.836 107.678 119.546 106.938 117.509C106.53 116.385 106.621 115.071 107.04 113.962C107.316 113.233 107.742 112.529 108.269 111.956C108.815 111.362 109.533 110.988 110.092 110.424C110.206 110.309 110.116 110.13 109.966 110.12C107.59 109.959 105.445 112.797 104.996 114.856C104.554 116.883 105.213 118.906 106.546 120.453C109.258 123.599 114.278 124.636 118.185 123.712C121.347 122.964 124.351 121.241 127.657 121.488C128.381 121.543 128.902 121.24 129.216 120.782C129.53 121.254 130.053 121.562 130.783 121.491C133.864 121.193 136.614 123.376 139.605 123.909C141.986 124.333 144.558 123.761 146.599 122.477C148.732 121.136 150.233 118.984 150.332 116.419C150.389 114.943 149.956 113.416 149.071 112.228" fill="black"/>
<path fill-rule="evenodd" clip-rule="evenodd" d="M139.889 92.1487C144.848 92.1487 147.678 93.2155 148.715 93.2986L148.746 93.3009C149.177 93.3285 149.564 93.3645 149.97 93.5216C151.463 94.0967 151.706 95.6629 150.835 96.6499C150.774 98.6924 151.042 101.079 150.582 103.128C150.013 111.766 145.953 113.224 143.644 113.756C142.485 114.023 141.112 114.129 139.881 113.847C137.781 113.769 135.705 113.111 133.929 111.966C131.455 110.37 129.618 107.917 129.021 105.005C128.739 103.617 128.607 102.173 128.761 100.762L128.783 100.568C127.979 100.183 127.047 100.11 126.087 100.076C125.628 100.06 125.176 100.045 124.736 100.065C124.307 100.113 123.883 100.177 123.457 100.264C122.992 100.404 122.553 100.635 122.148 101.002L122.12 101.537C122.044 102.874 121.869 104.215 121.598 105.527C121.198 107.463 120.556 109.311 119.188 110.684C118.725 111.376 118.152 111.993 117.456 112.528C114.929 114.474 111.496 115.189 108.345 114.92C101.949 114.374 98.2515 109.294 97.3994 107.123L97.3485 106.991C96.733 105.377 96.2425 103.283 94.2975 102.936L93.8838 102.862C92.9963 102.695 92.1773 102.463 91.6569 101.597C91.4288 101.218 91.3114 100.795 91.2827 100.364C90.979 100.388 90.6758 100.41 90.3737 100.432C87.9635 100.941 73.507 101.374 72.353 101.374C72.353 101.374 70.1349 102.308 69.1985 101.584C68.5494 101.081 68.3358 100.41 68.6931 99.6506C69.2323 98.5074 71.7196 97.8198 72.8241 97.6021C72.8241 97.6021 90.6477 97.7502 91.9305 97.5069C92.7242 96.6881 94.144 96.8002 95.3303 96.6707C96.3124 95.9702 97.6863 95.501 98.7716 95.1869C98.9928 95.1031 99.2118 95.022 99.4247 94.9456C101.414 94.2368 103.482 93.8613 105.582 93.6597C107.747 93.4539 109.918 93.547 112.071 93.842C112.978 93.9651 113.876 94.1243 114.769 94.3325C116.366 94.5432 117.955 94.8902 119.553 95.3019L119.873 95.3851C121.556 95.8265 123.285 96.2083 125.027 95.9091C126.446 95.6671 127.81 95.121 129.118 94.5305L129.288 94.4532C132.163 93.1398 136.654 92.1487 139.889 92.1487ZM114.596 96.9511C113.535 96.7176 113.082 98.3541 114.146 98.5882C114.9 98.7539 115.538 99.1342 115.97 99.7783L116.015 99.8483C116.595 100.77 118.059 99.9192 117.476 98.9914C116.82 97.9473 115.8 97.2159 114.596 96.9511ZM145.67 95.9365C145.296 95.6729 144.73 95.8685 144.513 96.241C144.274 96.6511 144.431 97.1078 144.781 97.3761L144.817 97.4023C145.138 97.6288 145.451 98.0349 145.49 98.451L145.494 98.5031C145.536 99.592 147.227 99.5975 147.185 98.5031C147.144 97.4324 146.524 96.5379 145.67 95.9365Z" fill="black"/>
</g>
<defs>
<clipPath id="clip0_2016_14159">
<rect width="200" height="267" fill="white"/>
</clipPath>
</defs>
</svg>
