<svg width="200" height="267" viewBox="0 0 200 267" fill="none" xmlns="http://www.w3.org/2000/svg">
<g clip-path="url(#clip0_2016_14173)">
<rect width="200" height="267" fill="white"/>
<rect x="108.451" y="194.02" width="48.3803" height="59.6008" fill="#FDEA6B"/>
<path fill-rule="evenodd" clip-rule="evenodd" d="M94.3399 135.724C99.5551 131.751 112.648 129.964 118.214 133.789C123.712 137.631 124.311 143.843 126.873 149.557C129.29 148.417 133.281 150.05 133.982 152.294C134.851 153.352 134.89 156.325 135.49 157.748C161.569 161.9 165.528 182.24 168.667 205.332C172.82 228.764 182.247 252.145 178.155 276.258C178.688 277.029 179.108 277.78 179.497 278.671C180.429 280.256 179.229 282.501 177.35 282.414C174.918 282.2 172.51 281.908 170.067 281.817C163.294 281.582 156.514 281.61 149.739 281.696L148.815 281.708C114.667 282.134 80.5209 282.972 46.3716 283.194C45.1327 283.196 44.5262 282.084 44.6916 280.988C45.0248 278.78 45.3339 276.571 45.6565 274.363C37.5793 276.497 28.9925 277.034 20.9382 274.587C20.3747 274.013 22.251 274.324 22.5486 274.237C15.1361 269.17 17.3498 258.495 18.0064 250.807C22.0894 224.462 23.5287 195.313 39.3039 172.832C46.1284 163.658 56.1339 156.394 67.6308 154.76L67.9498 154.716C71.3115 154.268 75.0581 154.123 77.9973 152.294C81.3031 149.654 82.7118 144.775 86.1896 144.73C87.3379 144.715 88.9002 146.168 90.5813 147.155C90.7068 144.984 91.8761 143.152 92.1343 141.469L92.1552 141.325C92.4246 139.363 92.0556 137.598 94.3399 135.724ZM150.387 206.028C143.058 200.935 124.125 203.494 123.692 203.779C122.738 204.407 122.327 204.463 121.811 205.278C121.301 205.346 120.792 205.416 120.283 205.488C119.263 205.822 120.019 207.078 121.198 206.629C120.489 209.689 122.575 211.864 123.406 214.888C123.676 215.87 123.416 217.637 123.406 218.64C123.487 219.919 124.901 221.43 124.665 222.714C123.827 227.277 119.281 231.728 121.198 236.153C122.467 238.652 126.286 239.926 128.825 240.776C134.086 242.796 143.251 240.7 146.308 236.153C147.938 233.727 149.827 227.609 150.799 225.711L151.014 222.701C151.546 215.218 152.018 207.162 150.387 206.028Z" fill="#FDC6A0"/>
<path fill-rule="evenodd" clip-rule="evenodd" d="M85.9184 144.743L88.0158 146.031L100.197 152.055C102.559 152.716 103.739 153.509 103.739 154.433V163.842C103.739 165.101 105.956 167.955 110.388 172.403L114.482 168.32L114.391 167.785C114.001 165.481 113.806 163.94 113.806 163.162C113.806 162.325 117.812 159.147 125.824 153.629L129.33 150.327L128.956 149.19C131.117 149.293 133.461 150.624 133.982 152.294C134.851 153.352 134.89 156.325 135.49 157.748C161.569 161.9 165.528 182.24 168.667 205.332C172.82 228.764 182.247 252.145 178.155 276.258C178.688 277.029 179.108 277.78 179.497 278.671C180.429 280.256 179.229 282.501 177.35 282.414C174.918 282.2 172.51 281.908 170.067 281.817C163.294 281.582 156.514 281.61 149.739 281.696L148.815 281.708C114.667 282.133 80.5209 282.972 46.3716 283.194C45.1327 283.196 44.5262 282.084 44.6916 280.988C45.0248 278.78 45.3339 276.571 45.6565 274.363C37.5793 276.497 28.9925 277.034 20.9382 274.587C20.3747 274.013 22.251 274.324 22.5486 274.237C15.1361 269.17 17.3498 258.495 18.0064 250.807C22.0894 224.462 23.5287 195.313 39.3039 172.832C46.1284 163.658 56.1339 156.394 67.6308 154.76L67.9498 154.716L68.2711 154.674C71.5486 154.257 75.1514 154.065 77.9973 152.294C81.2158 149.723 82.6361 145.031 85.9184 144.743ZM115.107 199.97C113.912 199.97 111.465 201.827 107.766 205.539L107.44 205.689C102.969 207.767 100.006 209.57 98.5534 211.097L98.5016 211.152C97.0337 212.727 94.127 216.916 89.7814 223.718L83.4885 227.441H81.1074L79.4122 239.743L83.4885 248.526L92.7217 245.415L107.766 241.448L116.399 232.686L121.268 231.051C120.678 232.759 120.464 234.457 121.198 236.153C122.467 238.652 126.286 239.926 128.825 240.776C134.086 242.796 143.251 240.7 146.308 236.153C147.938 233.727 149.827 227.609 150.799 225.711L151.078 221.801C151.58 214.584 151.953 207.117 150.387 206.028C143.058 200.935 124.125 203.494 123.692 203.779C122.738 204.407 122.327 204.463 121.811 205.278L121.543 205.314L123.046 203.275L122.514 202.991C118.718 200.977 116.249 199.97 115.107 199.97ZM121.198 206.629C120.519 209.558 122.403 211.677 123.293 214.506L121.017 210.147L121.017 206.686C121.076 206.672 121.136 206.653 121.198 206.629Z" fill="#9DDADB"/>
<path fill-rule="evenodd" clip-rule="evenodd" d="M84.9124 144.289C85.4184 143.84 86.1671 144.403 85.8456 145.009C85.1231 146.37 84.3819 147.659 83.4122 148.862C82.8243 149.592 82.1945 150.282 81.5562 150.964C83.1942 152.381 84.5989 154.141 85.9255 155.791C87.6217 157.9 89.2255 160.099 91.1296 162.029C93.0075 163.933 95.084 165.264 97.5946 166.151L98.1017 166.327C100.624 167.213 103.32 168.409 104.741 170.798C105.022 171.269 104.457 171.851 103.982 171.557C101.512 170.027 98.6095 169.719 95.9205 168.708C93.323 167.732 91.0586 166.229 89.0579 164.31C87.0606 162.395 85.3836 160.216 83.6343 158.083C81.9044 155.974 80.0419 154.173 77.9957 152.388C74.8382 154.513 71.234 155.438 67.5691 156.346L67.1691 156.445C63.4998 157.354 59.8502 158.409 56.4078 159.992C53.3727 161.387 50.3875 163.053 47.9152 165.323C45.2909 167.733 43.2483 170.81 41.3788 173.819C37.197 180.552 34.257 187.928 31.6688 195.394C28.9768 203.159 26.7251 211.08 24.9073 219.096C23.9828 223.172 23.232 227.278 22.6149 231.413C22.3178 233.404 22.054 235.4 21.8222 237.4C21.5748 239.536 21.518 241.733 20.863 243.786C20.5823 244.666 19.9193 245.032 19.2557 245.001L19.1209 246.687C18.9422 248.935 18.7756 251.184 18.7193 253.446C18.626 257.208 18.6683 260.959 18.9388 264.713L18.9771 265.224C19.1896 267.964 19.6645 271.042 21.7238 273.048C23.8563 275.126 27.1358 275.779 30.0101 275.816C36.7045 275.904 43.1486 272.739 49.0726 269.963C55.1735 267.104 61.1078 263.931 66.9 260.489C69.8497 258.736 72.7675 256.925 75.6481 255.061C77.0617 254.146 78.4654 253.216 79.8585 252.271C80.6564 251.729 81.4126 251.136 82.2249 250.655C81.8269 250.284 81.6492 249.702 81.9826 249.193C79.6343 247.154 78.657 243.515 78.5427 240.57C78.4504 238.194 78.8 235.824 79.0759 233.47C79.2152 232.283 79.3871 231.097 79.5657 229.916C79.6362 229.449 79.6901 228.949 79.7725 228.456C73.4317 231.942 66.9133 235.047 60.2222 237.804C56.7925 239.218 53.3188 240.489 49.7972 241.654L49.0834 241.889C45.7467 242.982 42.3301 244.014 38.8806 244.638C38.6961 244.672 38.5464 244.399 38.7433 244.313C42.105 242.829 45.5831 241.577 48.9952 240.21L49.5559 239.982V239.982C49.4915 239.978 49.4247 239.97 49.355 239.953C47.3539 239.47 45.3684 238.725 43.4057 238.098C41.5842 237.516 39.5376 237.151 37.835 236.273C37.704 236.205 37.7773 236.023 37.905 236.014C39.8186 235.881 41.896 236.439 43.7723 236.768L44.4771 236.891C45.6579 237.099 46.8649 237.323 48.0399 237.615C48.0823 237.222 48.3023 236.826 48.6152 236.594C52.0582 234.043 51.7085 228.892 52.0768 225.093L52.3498 222.272C52.8301 217.336 53.3383 212.401 54.1102 207.501C54.1514 207.24 54.556 207.315 54.5577 207.562C54.5975 213.635 54.1392 219.68 53.9095 225.744L53.874 226.738C53.747 230.48 53.6475 234.365 51.2919 237.244C51.6213 237.051 52.0666 237.051 52.3335 237.369C52.6614 237.759 52.8507 238.197 52.8447 238.627C54.9733 237.735 57.0925 236.819 59.2014 235.884C65.9816 232.879 72.6196 229.516 79.0821 225.878C79.7776 225.486 80.4386 225.794 80.7826 226.31L80.8322 226.303C80.8405 226.302 80.8489 226.301 80.8576 226.301L80.9068 226.299C80.9087 226.299 80.9106 226.299 80.9123 226.299C81.822 225.799 83.0613 226.155 83.8419 226.884C83.865 226.906 83.8846 226.93 83.9051 226.953C84.8934 226.509 85.8162 225.91 86.6537 225.151C88.3675 223.597 89.8191 221.676 91.0846 219.749C93.4151 216.2 95.3947 212.254 98.5428 209.333C101.101 206.96 104.272 205.482 107.599 204.555C107.585 204.458 107.622 204.354 107.689 204.285C107.86 204.11 107.982 204.049 108.203 204.156C108.22 204.164 108.231 204.176 108.238 204.189L108.562 203.634C108.74 203.333 108.922 203.03 108.985 202.95C109.362 202.474 109.751 202.002 110.146 201.54C110.815 200.757 111.577 199.985 112.46 199.442C114.393 198.254 116.426 198.926 118.413 199.576C119.614 199.968 120.811 200.373 122.009 200.772L122.133 200.812C123.027 201.099 124.073 201.351 124.472 202.298C124.631 202.673 124.655 203.062 124.582 203.44C133.071 201.28 142.5 202.272 150.785 204.807C151.103 204.905 151.42 205.166 151.487 205.51C152.437 210.38 152.859 215.374 152.43 220.326C152.059 224.602 151.112 228.791 149.328 232.705L149.226 232.926C147.55 236.554 144.892 241.025 140.833 242.162C138.382 242.848 135.671 242.444 133.171 242.318C130.742 242.195 128.259 242.178 125.852 241.796C123.709 241.455 121.831 240.494 120.507 238.751C119.364 237.247 118.763 235.43 118.27 233.621C118.044 233.693 117.82 233.77 117.6 233.856C116.668 234.22 115.88 234.807 115.166 235.498C113.66 236.957 112.492 238.729 110.916 240.121C109.49 241.382 107.864 242.362 106.121 243.116C102.508 244.678 98.6317 245.302 94.81 246.129L94.5435 246.187C91.6664 246.819 88.7298 247.594 86.1904 249.093C86.1407 249.534 85.9398 249.949 85.6178 250.221C86.0657 250.642 86.2555 251.308 85.8619 251.933C84.7625 253.679 82.8687 254.672 81.1686 255.788L81.0581 255.861C79.3857 256.97 77.6987 258.057 75.998 259.122C72.5406 261.288 69.0109 263.334 65.4314 265.29C59.6742 268.437 53.7933 271.405 47.806 274.097C48.1654 275.866 48.0341 277.689 48.3042 279.47L48.3456 279.724C48.461 280.385 48.3051 280.937 47.8501 281.369L47.802 281.413L47.8028 281.408L47.7602 281.447L47.7459 281.459L47.7507 281.455C47.6982 281.503 47.6441 281.548 47.5889 281.586L47.5187 281.631V281.631C47.0805 281.898 46.5163 281.894 46.0676 281.659L46.0164 281.631L45.9302 281.582C45.3373 281.241 44.9285 280.395 45.1745 279.724C45.7789 278.074 46.0073 276.312 46.5654 274.651L46.1226 274.849V274.849L45.539 275.104C39.2267 277.834 32.2151 280.134 25.3375 278.272C22.2986 277.45 19.4583 275.709 17.9378 272.873C16.4416 270.082 16.2302 266.841 16.1507 263.736C16.0527 259.904 16.258 256.014 16.7632 252.215C17.1023 249.664 17.5123 247.066 18.1449 244.542C17.8195 244.255 17.5804 243.843 17.5172 243.333C17.2187 240.923 17.7411 238.417 18.061 236.019C18.3735 233.677 18.7187 231.341 19.1091 229.011C19.8973 224.307 20.8132 219.612 21.8795 214.963C23.7771 206.688 26.2829 198.561 29.2998 190.627L29.564 189.936C32.3518 182.685 35.5796 175.589 40.0742 169.219C42.2243 166.171 44.4971 163.408 47.5352 161.212C50.3814 159.154 53.5918 157.672 56.9049 156.54C60.2216 155.407 63.6306 154.647 67.0998 154.175C70.6231 153.695 74.3421 153.401 77.6288 151.955C77.213 151.21 77.5698 150.203 78.2695 149.741C80.6243 148.184 82.8019 146.159 84.9124 144.289ZM160.294 211.967C160.393 211.818 160.627 211.912 160.584 212.09C159.438 216.783 158.363 221.487 157.661 226.27C156.394 234.904 156.627 243.65 156.731 252.348L156.736 252.797C156.789 257.482 156.863 262.168 157.018 266.85C157.096 269.217 157.251 271.607 157.167 273.975C157.121 275.26 156.778 276.475 156.657 277.744C156.551 278.854 156.646 279.981 156.699 281.092C156.734 281.831 155.644 281.799 155.57 281.092L155.475 280.177C155.352 279.019 155.2 277.868 154.82 276.76C154.364 275.427 154.145 274.118 153.987 272.718C153.745 270.573 153.637 268.407 153.543 266.248L153.479 264.754C153.089 255.728 153.102 246.66 153.735 237.644L153.781 237C154.407 228.478 155.494 219.27 160.294 211.967ZM135.881 158.253C135.582 158.13 135.687 157.678 136.018 157.757L136.62 157.9C141.035 158.958 145.369 160.104 149.489 162.072C153.612 164.042 157.103 166.982 159.876 170.597C165.268 177.625 167.508 186.166 169.277 194.698C171.242 204.18 173.032 213.696 175.015 223.174L175.383 224.94C177.218 233.768 178.95 242.601 180.226 251.533L180.318 252.181C181.605 261.367 182.379 270.87 180.975 280.08C180.697 281.902 177.666 281.448 177.785 279.648C178.127 274.444 178.372 269.267 178.135 264.052C177.898 258.835 177.409 253.641 176.68 248.47C176.066 244.118 175.152 239.82 174.342 235.503L174.215 234.821C173.538 231.149 172.839 227.481 172.142 223.813L171.1 218.32C169.538 210.096 167.946 201.864 166.148 193.692L166.041 193.211C164.28 185.348 161.685 177.112 156.404 170.868C151.045 164.532 143.374 161.341 135.881 158.253ZM116.409 241.652C116.538 241.365 116.989 241.396 117.127 241.652C117.67 242.654 117.731 243.933 117.833 245.065L117.844 245.181C117.975 246.562 118.09 247.948 118.161 249.333C118.295 251.962 118.359 254.587 118.351 257.22C118.343 259.917 118.288 262.612 118.143 265.306L118.104 266.027C117.971 268.368 117.748 270.979 116.637 273.026C116.232 273.77 115.133 273.551 114.899 272.799C114.132 270.335 114.526 267.414 114.723 264.891L114.875 262.922C115.027 260.953 115.171 258.984 115.285 257.012C115.442 254.315 115.571 251.616 115.696 248.918C115.736 248.041 115.78 247.165 115.826 246.288L115.897 244.974C115.958 243.875 115.953 242.668 116.409 241.652ZM30.1806 245.143L30.5201 244.815C31.5623 243.795 32.8793 242.223 34.4199 242.321C35.0343 242.36 35.4258 242.87 35.2984 243.475C35.0263 244.767 33.7082 245.438 32.7594 246.227C31.7199 247.091 30.7403 248.015 29.7625 248.948C28.8951 249.775 28.0609 250.625 27.2467 251.503L26.9423 251.833C26.6505 252.151 24.5722 254.032 24.7969 254.52L24.8092 254.542C24.8717 254.635 24.7675 254.763 24.6638 254.731C23.7664 254.447 23.8223 253.678 24.1616 252.898C24.8136 251.4 25.9553 250.014 26.9523 248.735C27.9465 247.458 29.0227 246.27 30.1806 245.143V245.143ZM119.661 207.575C118.967 205.934 116.411 205.969 114.959 206.067C111.304 206.314 107.35 207.239 104.098 208.948C100.726 210.72 98.455 213.558 96.4229 216.697L96.3278 216.845C94.3472 219.925 92.4397 223.571 89.3383 225.689C87.7586 226.768 85.914 227.753 83.9974 228.179C83.8658 228.411 83.6526 228.594 83.3731 228.661L83.2432 228.69C82.6973 228.811 81.8493 228.944 81.1168 228.865C81.1216 229.223 81.1178 229.579 81.1269 229.918C81.1527 230.892 81.1637 231.869 81.1637 232.843C81.1641 234.884 81.0545 236.928 81.1396 238.969C81.215 240.773 81.4698 242.659 82.336 244.272C82.9713 245.456 83.8098 246.239 84.822 246.987C87.312 245.469 90.1276 244.543 92.9852 243.848C96.4411 243.006 99.9796 242.445 103.357 241.304C104.982 240.754 106.545 240.036 107.961 239.059C109.464 238.023 110.612 236.62 111.793 235.248L111.977 235.035C113.182 233.652 114.498 232.329 116.201 231.58C117.668 230.934 119.601 230.819 120.884 229.819C121.554 229.297 121.61 228.538 121.681 227.761C120.86 227.878 119.99 227.69 119.171 227.594L118.747 227.544C117.973 227.452 117.217 227.351 116.455 227.154C116.313 227.118 116.313 226.904 116.455 226.868C117.355 226.635 118.248 226.536 119.171 226.427L119.388 226.4C120.224 226.291 121.102 226.125 121.921 226.309C122.068 225.75 122.281 225.215 122.578 224.68C122.997 223.928 123.788 223.076 123.895 222.198C123.927 221.936 123.866 221.626 123.742 221.395L123.699 221.316C123.647 221.222 123.586 221.128 123.496 221.07C123.486 221.082 123.465 221.095 123.419 221.109C122.788 221.308 122.238 220.999 121.946 220.523C120.707 220.677 119.354 220.625 118.192 220.677L117.016 220.734C115.76 220.791 114.448 220.817 113.267 220.563C113.103 220.527 113.053 220.253 113.218 220.182C114.669 219.562 116.428 219.364 117.982 219.125C118.849 218.992 119.723 218.891 120.593 218.773C121.172 218.695 121.787 218.566 122.387 218.535C123.892 216.661 123.081 213.704 120.987 212.897C120.224 213.233 119.538 213.038 118.705 212.966C117.873 212.895 117.039 212.846 116.203 212.85C114.529 212.857 112.756 213.298 111.098 213.108C110.828 213.077 110.578 212.718 110.846 212.499C112.115 211.463 113.933 211.126 115.544 210.905L115.878 210.86C116.418 210.789 117.074 210.686 117.755 210.625C117.909 210.324 118.186 210.097 118.601 210.04C118.724 210.024 118.848 210.014 118.972 210.003L118.97 209.991V209.991C119.983 209.942 119.939 208.231 119.661 207.575ZM50.3507 239.579C50.3328 239.606 50.3133 239.633 50.2924 239.658L50.2603 239.695L50.4268 239.628L50.3507 239.579V239.579ZM137.328 203.908C133.066 203.45 128.799 203.547 124.525 203.67C124.183 204.788 122.993 205.742 121.841 205.777C122.743 207.152 122.837 209.013 122.203 210.471C123.548 211.007 124.706 211.968 125.409 213.338C126.384 215.236 126.256 217.349 125.293 219.104C126.115 219.848 126.601 221.058 126.552 222.198C126.498 223.469 125.74 224.555 125.111 225.608C124.431 226.746 124.408 227.748 124.199 229.023C123.893 230.889 122.636 232.02 121.017 232.727L121.103 233.066C121.52 234.691 122.04 236.405 123.232 237.593C124.766 239.122 127.146 239.108 129.173 239.205L129.271 239.209C131.127 239.302 132.983 239.411 134.838 239.516L136.23 239.594C138.366 239.711 140.418 239.726 142.162 238.313C145.009 236.007 146.961 232.19 148.196 228.811C150.789 221.719 150.821 213.936 149.63 206.55C145.638 205.262 141.496 204.356 137.328 203.908ZM101.89 215.675L101.921 215.677C102.799 215.777 103.401 216.488 103.616 217.331C103.928 218.556 103.775 219.664 104.525 220.77C105.297 221.908 105.771 222.818 105.884 224.224C105.93 224.802 105.909 225.379 106.037 225.945L106.13 226.341C106.23 226.764 106.311 227.171 106.261 227.625C106.216 228.039 106.015 228.362 105.6 228.495C104.247 228.928 103.202 227.93 102.853 226.669C102.551 225.58 102.954 224.282 102.528 223.259C102.292 222.692 101.857 222.218 101.611 221.647C101.368 221.081 101.245 220.49 101.206 219.875C101.132 218.712 102.16 217.314 101.587 216.26C101.464 216.035 101.603 215.668 101.89 215.675ZM83.921 203.67C84.8371 203.484 85.8763 203.057 86.7797 203.412C87.2441 203.595 87.4735 204.161 87.0812 204.555C86.4 205.238 85.41 205.276 84.4926 205.437L84.4118 205.451C83.327 205.652 82.2402 205.843 81.152 206.023C79.1046 206.362 77.0523 206.662 74.9929 206.917C72.8777 207.179 70.7565 207.412 68.6325 207.588L67.8102 207.655C66.0159 207.799 64.1489 207.907 62.3884 207.632C62.1326 207.592 62.1738 207.219 62.3884 207.154C64.3171 206.57 66.4327 206.414 68.4267 206.166C70.5465 205.903 72.6628 205.625 74.7736 205.296C76.881 204.966 78.9856 204.613 81.0825 204.222C82.0302 204.046 82.9765 203.862 83.921 203.67ZM116.975 201.795C116.171 201.511 115.287 201.089 114.416 201.23C112.913 201.473 111.577 202.937 110.387 203.902L110.985 203.785C114.039 203.198 118.085 202.565 120.649 204.508C120.656 204.497 120.661 204.486 120.668 204.475C120.875 204.16 121.115 203.915 121.377 203.646C121.402 203.622 121.426 203.598 121.45 203.573L121.591 203.423L121.268 203.311C120.576 203.066 119.756 202.75 119.627 202.704L119.618 202.701C118.736 202.402 117.853 202.107 116.975 201.795ZM91.8759 137.74C91.7502 136.123 94.2666 136.136 94.3912 137.74C94.6631 141.242 93.8753 144.711 92.1797 147.782C92.1672 147.804 92.1535 147.824 92.1404 147.845C93.2009 148.397 94.2735 148.927 95.37 149.4C96.7726 150.006 98.2016 150.558 99.6562 151.025C100.972 151.449 102.593 151.616 103.699 152.498C106.032 154.356 105.156 158.212 104.707 160.712L104.637 161.106C104.413 162.393 104.252 163.712 104.794 164.947C105.373 166.265 106.543 167.243 107.588 168.187L107.799 168.378C108.724 169.221 109.781 170.246 110.459 171.389C111.079 170.108 111.923 169.061 112.816 167.882C113.453 167.041 113 166.763 112.542 165.942C112.102 165.151 111.886 164.308 112.024 163.406C112.278 161.739 113.61 160.536 114.935 159.631C116.5 158.564 118.246 157.773 119.864 156.78C123.188 154.739 126.425 152.406 129.342 149.815C129.422 149.744 129.562 149.838 129.497 149.936C127.193 153.441 124.492 156.47 121.172 159.042C119.825 160.084 118.411 160.949 116.988 161.858L116.578 162.121C116.007 162.492 115.294 162.987 115.035 163.617C114.775 164.252 115.33 164.73 115.628 165.256C116.576 166.924 116.119 168.481 114.995 169.896L114.943 169.961C113.826 171.338 112.98 172.618 112.575 174.377C111.705 178.156 112.917 182.091 114.185 185.638L114.235 185.778C114.921 187.69 115.65 189.588 116.246 191.53L116.41 192.067C116.95 193.855 117.392 195.617 116.786 197.455C116.58 198.08 115.728 198.228 115.374 197.639C114.126 195.565 113.815 193.069 113.032 190.789C112.27 188.566 111.394 186.384 110.657 184.152C109.709 181.279 109.074 178.186 109.418 175.172C109.408 175.154 109.397 175.138 109.388 175.119L109.147 174.591C108.489 173.16 107.853 171.911 106.655 170.77C105.406 169.581 104.05 168.527 103.068 167.087C100.933 163.959 102.253 160.479 102.511 157.059L102.54 156.639C102.587 155.929 102.613 154.964 102.149 154.472C101.628 153.919 100.404 153.778 99.7122 153.533C97.9236 152.9 96.161 152.162 94.4823 151.276C92.8842 150.433 91.3363 149.501 89.895 148.41L89.1645 147.86C88.0119 146.99 86.8167 146.04 86.0442 144.856C85.9551 144.719 86.1066 144.499 86.268 144.564C87.5576 145.088 88.7358 145.921 89.9423 146.645C89.9611 146.601 89.9829 146.556 90.0076 146.512C91.5004 143.809 92.1144 140.814 91.8759 137.74ZM133.07 156.258C133.583 154.848 135.925 154.957 135.832 156.632C135.76 157.919 135.214 159.08 134.715 160.248L134.661 160.373C134.146 161.59 133.551 162.733 132.838 163.849C131.477 165.981 129.883 167.96 128.18 169.828C126.636 171.521 124.609 172.557 122.274 172.385C121.29 172.312 120.297 172.062 119.435 171.57C118.411 170.986 117.299 169.232 115.992 169.657C115.866 169.698 115.748 169.513 115.857 169.425C117.365 168.21 119.077 170.094 120.521 170.548C122.697 171.232 124.93 170.476 126.331 168.716C127.793 166.879 129.138 164.822 130.367 162.821C130.992 161.805 131.561 160.751 132.053 159.665C132.549 158.568 132.662 157.376 133.07 156.258ZM129.562 147.584C129.499 147.389 129.741 147.204 129.911 147.315C130.903 147.96 131.761 148.813 132.675 149.561C133.69 150.39 134.711 151.203 135.749 152.002C137.261 153.169 135.507 155.316 134.176 154.042C132.354 152.299 130.358 150.02 129.562 147.584ZM124.121 140.761C124.524 139.208 126.905 139.849 126.558 141.384L126.547 141.43C125.889 143.966 126.825 146.547 128.824 148.191L128.897 148.251C130.162 149.263 128.37 151.032 127.119 150.03C124.386 147.842 123.249 144.125 124.121 140.761Z" fill="black"/>
<path fill-rule="evenodd" clip-rule="evenodd" d="M149.007 79.1769C144.853 53.9888 113.133 49.4475 92.4631 54.749C92.0821 49.9041 89.0374 45.6229 85.238 42.8069C69.0983 31.1638 49.9907 50.9314 53.8161 67.9679C54.5023 73.1289 58.6175 79.0182 64.3753 78.135C57.138 91.8658 54.3098 119.553 70.2557 128.112C71.7941 129.21 72.0494 131.439 73.2334 132.868C75.1555 135.173 83.3672 138.11 87.8096 135.756C89.2055 137.042 90.8159 138.293 92.6988 138.738C102.426 146.544 116.641 148.305 128.485 145.084C135.783 143.843 143.347 140.543 147.102 133.801C150.283 128.669 148.817 122.657 147.358 117.226C146.728 114.238 146.318 111.227 146.065 108.19C146.583 107.584 146.611 106.744 146.74 105.978C147.301 103.264 148.525 100.745 149.137 98.0391C150.507 91.896 150.269 85.3327 149.007 79.1769" fill="#FDC6A0"/>
<path fill-rule="evenodd" clip-rule="evenodd" d="M58.8132 51.8809C62.4016 45.0301 69.4363 41.1649 76.4715 41.695C83.6695 42.2373 89.178 47.2122 90.4535 55.245L90.4908 55.4894L90.5675 56.0108L90.4977 56.0347L90.5313 56.0939L90.5917 56.1951C90.6631 56.3117 90.7508 56.4445 90.8706 56.6178L91.0307 56.8467L91.5693 57.6045L91.6075 57.6589L91.7223 57.8246L91.9536 57.7427C103.232 53.7946 115.794 53.8352 127.023 58.0332L127.363 58.1617L127.676 58.2828L127.853 58.3289C134.737 60.154 140.238 64.5434 144.004 70.8279L144.118 71.019L144.233 71.2151C147.67 77.1337 149.433 84.4493 149.309 91.7941L149.305 92.0189L149.303 92.0549L149.284 92.2763C149.12 94.0391 148.678 95.6145 147.762 98.0168L147.645 98.3215L147.464 98.7865L146.9 100.22L146.762 100.576L145.143 104.838L145.443 100.561C145.476 100.085 145.494 99.6673 145.51 99.0296L145.513 98.9147L145.55 97.1046L145.56 96.7003C145.566 96.5123 145.572 96.3425 145.579 96.1769L145.591 95.9299L145.613 95.5462L145.618 95.4663L145.607 95.3801C145.263 92.6616 144.018 90.3405 141.875 88.1415L141.764 88.0279L141.651 87.9144L141.515 87.7809C139.937 86.2334 138.341 85.0502 135.035 82.8789L134.892 82.7852L132.971 81.5323L132.252 81.0596C130.667 80.0128 129.701 79.3349 128.679 78.5442L128.459 78.3729L128.287 78.2371C126.519 76.8338 125.137 75.4548 124.076 73.9671L123.978 73.8273L123.769 73.5271L123.918 73.2067L123.916 73.211L123.916 73.2096L123.923 73.1755L123.933 73.1182L123.943 73.0487C123.962 72.9111 123.978 72.7315 123.989 72.5286C123.993 72.4553 123.997 72.3803 124 72.3043L124.003 72.1897L124.005 72.0907L123.966 72.2075C121.918 78.1333 117.065 83.0776 110.224 86.7263L110.016 86.8364L109.781 86.9593C103.038 90.4572 94.7908 92.4655 87.64 92.5224L87.4097 92.5235L87.182 92.524L87.0062 92.3788C86.3501 91.8368 85.1425 92.5116 85.3622 93.4771C87.3945 102.409 87.8207 111.653 86.5797 120.561L86.5357 120.872L86.5308 120.901L86.4835 121.153C86.4425 121.378 86.4032 121.608 86.3606 121.873L86.2936 122.301L86.035 124.036L85.9174 124.779L85.8666 125.08C85.4297 127.608 84.8759 129.328 83.8698 130.812L83.7734 130.951L83.6746 131.046L83.5778 131.143C83.3796 131.348 83.2551 131.514 83.1942 131.63L83.1812 131.655L83.1739 131.671L83.1913 131.678C83.5112 131.793 84.1658 131.77 84.711 131.62L84.7786 131.6L84.8423 131.581L85.2838 131.437L85.5918 131.871L85.6835 131.999C85.8526 132.233 86.0289 132.469 86.2493 132.757L86.5092 133.095L87.1097 133.868L86.5586 134.25C84.6988 135.538 82.0989 135.282 79.3364 134.074L79.2287 134.027L79.1896 134.008C77.8724 133.309 77.0098 132.464 75.589 130.664L75.4225 130.452L74.79 129.639L74.5491 129.334C74.3809 129.124 74.2371 128.949 74.093 128.781L74.0449 128.725L73.8765 128.532L73.8396 128.457C73.1442 127.054 72.1501 126.121 70.4099 125.118L70.1644 124.978L70.0073 124.87C65.5917 121.801 62.9855 116.96 61.8897 110.681C61.0331 105.772 61.1217 100.25 61.9065 94.0483L61.9444 93.7525L61.9848 93.4444C62.664 88.2249 64.2176 83.3514 66.5725 78.9147L66.695 78.6856L66.8055 78.4818L66.2529 78.0424L66.0262 77.8655C65.8385 77.721 65.7016 77.6217 65.5775 77.5398L65.5108 77.4968L65.4489 77.4584L65.432 77.4895L65.0105 77.4443C63.2306 77.2536 61.4756 76.4827 60.047 75.2946L59.9292 75.1951L59.8149 75.08C57.0534 72.265 55.6974 68.3625 55.6963 63.906C55.6953 59.9668 56.7732 55.7748 58.6171 52.2479L58.7084 52.075L58.8132 51.8809Z" fill="#E8E1E1"/>
<path fill-rule="evenodd" clip-rule="evenodd" d="M148.675 92.0049C148.435 95.042 147.151 97.7747 146.076 100.605C146.193 98.9304 146.138 97.1876 146.255 95.4486C145.005 84.5592 130.233 81.6984 124.499 73.4644C124.716 72.9994 124.794 68.8419 123.939 70.0111C120.622 84.5615 100.908 91.8614 87.4107 91.8895C86.3899 91.0462 84.3654 91.937 84.7478 93.6181C86.7663 102.489 87.2081 111.768 85.912 120.781C85.3013 123.964 85.1982 127.794 83.2934 130.536C81.2716 132.464 83.7022 132.619 85.0398 132.184C85.4128 132.709 85.8064 133.22 86.2015 133.728C84.28 135.059 81.4765 134.333 79.4878 133.447C77.2757 132.273 76.0112 129.999 74.4083 128.175C73.5332 126.41 72.2058 125.395 70.4995 124.438C61.0064 117.97 61.2515 103.781 62.6143 93.5264C66.5853 63.0104 100.371 48.2862 127.485 58.8876C142.128 62.6414 148.988 77.8188 148.675 92.0049M60.3604 74.7285C54.5697 68.9472 55.7354 58.8404 59.3754 52.1757C66.6694 38.2505 87.3867 38.703 89.8674 55.5818C79.3025 59.2101 70.3877 66.9901 65.0801 76.8139C63.352 76.6287 61.6814 75.8571 60.3604 74.7285M149.007 79.1816C144.853 53.9935 113.133 49.4522 92.4631 54.754C92.0823 49.9088 89.0377 45.6277 85.238 42.8114C69.0983 31.1685 49.9907 50.9361 53.8161 67.9727C54.5023 73.1336 58.6175 79.0229 64.3753 78.1397C57.138 91.8705 54.31 119.558 70.2557 128.117C71.7941 129.215 72.0494 131.444 73.2334 132.873C75.1555 135.178 83.3672 138.115 87.8096 135.761C88.8658 137.06 94.861 141.011 94.4239 137.138C93.9829 136.095 92.6202 135.823 91.7128 135.307C89.8057 134.251 88.1488 132.764 86.847 131.017C90.9359 119.458 90.6243 106.589 88.3337 94.6875C102.022 93.9973 118.13 87.9823 124.167 74.7739C128.249 84.3861 140.906 85.6232 144.103 96.3701C144.296 102.015 143.089 107.575 143.965 113.223C144.222 118.754 147.138 124.249 145.452 129.744C140.741 141.727 123.782 143.486 112.577 142.985C109.916 142.764 107.707 141.323 105.519 139.954C104.208 139.33 102.647 140.635 103.45 142.028C106.518 146.319 112.828 146.695 117.673 146.54C130.247 145.792 148.419 142.068 149.072 126.503C148.657 120.332 146.242 114.427 146.065 108.195C146.583 107.589 146.611 106.748 146.74 105.983C147.301 103.268 148.525 100.75 149.137 98.0438C150.507 91.9007 150.269 85.3376 149.007 79.1816" fill="black"/>
<path fill-rule="evenodd" clip-rule="evenodd" d="M123.152 128.274C121.731 127.695 120.464 126.728 119.538 125.493C119.216 125.063 119.132 124.61 119.2 124.195C119.276 123.729 119.552 123.306 119.928 123.023C120.305 122.739 120.777 122.598 121.233 122.67C121.629 122.732 122.024 122.949 122.336 123.399L122.401 123.489C122.952 124.235 123.67 124.846 124.488 125.241C125.276 125.621 126.157 125.798 127.07 125.695C128.807 125.499 130.005 124.559 131.278 123.282C131.435 123.121 131.593 122.955 131.752 122.786C131.852 122.633 131.991 122.534 132.145 122.483C132.317 122.425 132.511 122.429 132.688 122.491C132.859 122.55 133.013 122.664 133.115 122.815C133.213 122.958 133.268 123.135 133.25 123.339C133.134 124.661 132.442 125.842 131.46 126.769C130.37 127.799 128.924 128.511 127.563 128.761C126.063 129.036 124.535 128.839 123.152 128.274V128.274ZM128.27 107.866C129.866 108.836 132.296 111.098 130.58 113.503C128.56 115.624 125.651 113.193 124.218 112.093C122.889 111.241 121.396 113.433 122.629 114.428C132.986 122.099 137.189 108.12 129.077 106.726C128.184 106.572 127.852 107.566 128.27 107.866ZM109.71 98.9429C109.886 96.7541 113.219 96.257 113.55 98.423C113.847 100.363 113.498 102.145 112.624 103.892C111.789 105.561 109.691 104.783 109.533 103.263C109.32 101.226 109.601 100.304 109.71 98.9429ZM135.076 97.9739C135.54 97.3652 136.211 96.9497 137.015 97.1845C139.526 97.9185 138.786 101.485 137.904 103.22C137.425 104.163 135.876 104.402 135.176 103.572C134.035 102.219 133.489 99.5157 134.939 98.1825C134.978 98.1136 135.022 98.044 135.076 97.9739ZM112.589 89.3654L112.985 89.2959C114.212 89.0836 115.738 88.8796 116.606 89.8665C117.066 90.3898 117.225 91.3624 116.606 91.8633C115.517 92.7446 114.314 92.4031 113.01 92.4777C111.935 92.5394 110.902 92.7174 109.866 93.0135C107.595 93.6629 105.744 94.8486 103.804 96.1505C103.549 96.3213 103.289 95.9956 103.411 95.7574C104.531 93.563 106.701 91.7604 108.875 90.6616C110.035 90.0751 111.305 89.5885 112.589 89.3654ZM132.787 88.3823L133.09 88.4445C136.394 89.1353 140.686 90.5153 142.251 93.7615C142.31 94.2205 142.247 94.3189 142.196 94.3832L142.179 94.4046C142.137 94.4595 142.103 94.5351 141.904 94.5976C141.849 94.5844 141.793 94.5705 141.737 94.5557C141.02 94.3677 140.453 94.1087 139.903 93.84L139.308 93.5465C138.617 93.2076 137.92 92.881 137.181 92.6399C135.604 92.1255 133.983 91.7631 132.336 91.5696C131.979 91.5277 131.636 91.4072 131.364 91.2006C131.107 91.0046 130.91 90.7332 130.821 90.3724C130.705 89.9056 130.738 89.5521 130.988 89.1309C131.177 88.8146 131.446 88.5953 131.755 88.4694C132.071 88.3411 132.43 88.3108 132.787 88.3823Z" fill="black"/>
<path fill-rule="evenodd" clip-rule="evenodd" d="M147.179 109.153C144.614 111.805 140.332 112.566 136.92 111.144C128.157 107.481 132.446 96.0578 139.204 92.99C140.048 92.7795 141.175 92.2801 142.204 92.1668C142.297 92.1212 142.499 92.2533 142.744 92.1284C150.196 92.9607 151.893 104.533 147.179 109.153M118.916 109.832C116.039 113.649 110.691 114.827 106.321 113.052C97.6882 109.651 100.75 99.5216 106.656 95.5503C119.133 90.8603 124.285 102.794 118.916 109.832M100.202 101.374C100.194 101.371 100.186 101.369 100.178 101.365C100.223 101.345 100.269 101.325 100.314 101.304C100.3 101.343 100.284 101.381 100.269 101.42C100.247 101.404 100.227 101.386 100.202 101.374M153.118 97.2481C152.414 97.2496 151.396 97.3654 150.813 97.8543C149.375 93.0031 144.068 88.5134 139.452 91.7872C135.817 92.9566 133.12 95.5501 131.587 98.9981C128.823 97.3534 124.477 98.0557 122.08 100.231C120.51 95.0418 116.647 93.2248 112.049 92.9566C107.03 92.1343 102.028 97.0103 100.467 100.922C99.1689 100.774 97.2297 100.361 96.0088 101.162C88.0848 99.0835 74.2309 97.9373 72.62 99.0924C71.472 99.533 70.842 102.244 72.4455 102.39C73.8428 102.192 72.2824 100.404 73.6909 100.209C81.1958 99.7433 88.4813 101.255 95.9068 101.89C96.5697 102.782 98.7118 103.08 99.8545 102.722C98.0547 109.357 101.94 113.872 107.761 115.224C116.776 117.296 124.618 109.229 122.261 100.838C124.992 99.4791 128.132 99.5375 131.107 100.253C126.136 118.554 155.599 117.733 150.998 98.4813C154.06 100.005 154.725 97.5556 153.118 97.2481" fill="black"/>
</g>
<defs>
<clipPath id="clip0_2016_14173">
<rect width="200" height="267" fill="white"/>
</clipPath>
</defs>
</svg>
