<svg width="200" height="267" viewBox="0 0 200 267" fill="none" xmlns="http://www.w3.org/2000/svg">
<g clip-path="url(#clip0_2016_14167)">
<rect width="200" height="267" fill="white"/>
<path fill-rule="evenodd" clip-rule="evenodd" d="M35.2054 285.569C37.7345 285.726 40.2634 285.849 42.7922 285.944C75.8621 287.176 108.905 283.405 141.954 282.58C153.464 282.277 164.914 282.428 176.394 283.352C177.518 283.443 178.805 282.232 178.666 281.079C176.546 262.764 173.892 244.499 172.517 226.109C172.516 225.136 172.642 224.165 172.976 223.249C173.039 223.177 173.365 222.371 173.656 222.321C173.561 222.392 173.991 222.268 173.717 222.289C175.377 222.018 177.005 220.225 175.8 218.51C163.392 199.485 146.454 182.12 141.004 159.523C139.717 153.414 135.067 153.036 130.112 150.516C128.567 149.596 124.787 147.049 124.172 145.278C122.702 138.894 125.29 132.641 117.73 130.058C112.74 128.674 103.919 127.502 98.8692 128.962C92.7097 131.013 93.1707 137.957 89.5979 142.734C87.7502 145.497 84.6001 149.28 81.6914 149.704C80.2816 149.909 79.2432 147.056 77.8356 147.252C55.8946 152.583 26.0015 188.949 16.5714 209.081C14.4462 215.416 21.2999 213.505 20.8788 219.873C20.3598 231.954 19.2245 247.419 19.8978 259.515C20.5284 266.535 20.0617 273.891 22.2431 280.647C21.656 281.36 22.4995 282.081 23.1879 282.39C24.0551 283.866 32.5886 285.365 35.2054 285.569Z" fill="#FDC6A0"/>
<path d="M77.8356 147.252C79.1484 147.069 79.2338 150.93 80.505 151.098C86.405 159.384 95.5481 162.134 106.122 162.134C117.347 162.134 126.449 158.757 133.427 152.003L134.067 152.273C137.37 153.677 140.071 155.094 141.004 159.523C146.454 182.12 163.392 199.485 175.8 218.51C177.005 220.225 175.377 222.018 173.717 222.289C173.991 222.268 173.561 222.392 173.656 222.321C173.365 222.371 173.039 223.177 172.976 223.249C172.814 223.692 172.701 224.149 172.628 224.612C172.628 224.612 158.727 227.558 154.99 227.639C117.466 228.451 48.8431 227.291 48.8431 227.291L20.1007 216.415C18.4569 213.946 14.9723 213.848 16.5714 209.081C26.0015 188.949 55.8946 152.583 77.8356 147.252Z" fill="#E86BBB"/>
<path fill-rule="evenodd" clip-rule="evenodd" d="M92.327 135.125C92.8974 132.558 96.9812 133.659 96.2819 136.216C95.1981 140.17 92.9502 143.907 89.7772 146.53C87.3263 148.555 83.9864 150.361 80.6735 150.695C80.984 150.998 81.2819 151.321 81.5946 151.63C82.3002 152.331 83.0502 152.982 83.8235 153.608C85.4124 154.893 87.0643 156.049 88.8686 157.017C96.0749 160.885 104.215 161.777 112.264 160.876C116.084 160.449 119.961 159.725 123.552 158.327C125.217 157.681 126.835 156.831 128.264 155.757L128.638 155.477C129.389 154.909 130.391 154.109 130.86 153.234C129.432 153.555 127.626 152.033 126.635 151.148C125.551 150.176 124.638 148.922 123.964 147.637C122.644 145.116 121.945 141.863 123.052 139.16C123.126 138.98 123.362 139.01 123.383 139.205C123.711 142.356 124.56 145.31 126.821 147.644C127.824 148.677 129.026 149.544 130.338 150.146L130.523 150.231C131.082 150.489 131.67 150.793 131.906 151.346C131.997 151.336 132.088 151.344 132.174 151.368C132.252 151.389 132.324 151.412 132.394 151.437C132.238 151.131 132.155 150.77 132.17 150.342C132.225 148.688 134.496 148.637 134.811 150.11C134.754 149.916 134.678 150.104 134.821 150.163C134.819 150.146 134.815 150.127 134.811 150.11L134.815 150.126V150.126L134.824 150.163L134.821 150.163C134.827 150.19 134.832 150.217 134.835 150.245L134.838 150.282L134.836 150.251C134.834 150.229 134.831 150.208 134.828 150.19L134.823 150.163C134.845 150.173 134.874 150.18 134.908 150.18L134.922 150.185C134.975 150.208 135.162 150.295 135.217 150.317C135.595 150.457 136.017 150.501 136.404 150.621C137.243 150.88 137.982 151.306 138.493 152.033C138.861 152.556 139.066 153.154 139.15 153.775C142.862 155.561 146.376 157.881 149.319 160.754C155.887 167.162 160.467 175.182 164.226 183.485C166.139 187.711 167.843 192.027 169.511 196.355L169.773 197.038C171.561 201.69 173.141 206.393 173.53 211.393C173.566 211.841 173.418 212.262 173.162 212.611C173.253 212.987 173.3 213.363 173.287 213.731C173.285 213.788 173.281 213.845 173.276 213.902C173.876 213.891 174.464 214.143 175.021 214.849C175.247 214.777 175.492 214.768 175.733 214.847C177.202 215.316 177.438 216.929 177.715 218.279C178 219.674 178.125 221.103 178.127 222.525C178.127 223.034 177.835 223.677 177.341 223.895C176.412 224.305 175.41 224.573 174.449 224.945C173.726 225.224 173.002 225.488 172.271 225.736C172.676 226.443 172.807 227.428 173.027 228.175C173.371 229.339 173.648 230.508 173.881 231.7C175.457 239.805 176.549 247.997 178.023 256.119C178.761 260.188 179.619 264.229 180.493 268.27C180.924 270.256 181.383 272.239 181.875 274.213C182.137 275.265 182.409 276.318 182.69 277.364C182.772 277.67 182.855 277.975 182.938 278.279L183.085 278.812V278.812C183.407 278.989 183.681 279.258 183.871 279.625C184.567 280.97 184.167 282.485 182.834 283.242C181.385 284.066 179.655 283.288 178.856 281.95C178.294 281.006 178.11 279.755 177.833 278.704C177.521 277.525 177.223 276.339 176.935 275.153C174.984 267.098 173.676 258.902 172.691 250.675L172.621 250.087C172.121 245.852 171.637 241.606 171.324 237.351C171.17 235.261 171.047 233.171 170.971 231.076C170.933 229.998 170.995 228.914 171.056 227.838C171.083 227.367 171.123 226.894 171.138 226.422L171.143 226.355C171.147 226.308 171.152 226.245 171.157 226.179L171.162 226.099C169.704 226.556 168.225 226.936 166.731 227.257C163.554 227.944 160.302 228.327 157.059 228.132C157.512 233.505 158.101 238.864 158.925 244.188C159.719 249.316 160.636 254.432 161.671 259.518C162.189 262.073 162.749 264.622 163.338 267.162C163.655 268.519 164.016 269.867 164.302 271.231C164.471 272.042 164.523 272.721 164.183 273.48C164.558 274.5 164.89 275.525 165.218 276.491L165.316 276.779C165.895 278.47 166.993 280.198 165.846 281.86C165.253 282.717 164.285 283.208 163.311 283.238C163.294 283.248 163.275 283.261 163.256 283.271C162.732 283.552 162.128 283.607 161.553 283.487C160.681 283.658 159.806 283.823 158.929 283.973C156.764 284.347 154.588 284.656 152.407 284.916C148.256 285.41 144.077 285.681 139.9 285.831C124.609 286.382 109.3 285.414 94.0026 285.693C86.2087 285.835 78.415 286.186 70.634 286.651C66.7509 286.883 62.8657 287.133 58.9805 287.325L57.7779 287.384C54.3034 287.55 50.8264 287.678 47.3545 287.424C47.2869 287.42 47.234 287.393 47.1981 287.355C46.0002 287.219 44.7962 286.116 44.9164 284.842C45.434 279.414 45.9517 273.987 46.4714 268.557C47.3946 258.884 48.3263 249.21 49.2686 239.539L49.4047 238.142C49.7213 234.884 50.0236 231.617 50.177 228.346C49.4038 228.291 48.6328 228.221 47.8615 228.136C39.5047 227.221 31.4935 224.692 23.8013 221.371L23.4897 221.236C22.7967 220.933 22.0383 220.631 21.2608 220.308C21.2737 221.785 21.2249 223.265 21.2186 224.727C21.208 227.156 21.227 229.584 21.2333 232.01C21.2481 237.011 21.4383 242.014 21.6876 247.006C22.1249 255.823 22.6383 264.628 23.4157 273.424C23.6122 275.637 23.8786 277.846 24.0664 280.059C24.1786 281.363 23.9101 282.449 22.7167 283.134C22.1291 283.472 21.6749 283.331 21.0918 283.058C19.6678 282.39 19.6277 280.811 19.4925 279.438C19.3892 278.402 19.2939 277.366 19.2009 276.329C19.0026 274.116 18.8312 271.903 18.6918 269.686C18.1406 260.877 17.9798 252.076 18.3601 243.256C18.5367 239.131 18.7916 234.997 19.1298 230.879L19.2094 229.929C19.4883 226.638 19.6678 223.185 20.2446 219.873C17.9186 218.841 15.6136 217.529 14.5446 215.347C13.1589 212.515 14.6819 210.094 16.8517 208.426C16.8305 208.145 16.8517 207.866 16.9108 207.612C17.534 204.913 18.5777 202.246 19.5855 199.672C20.6017 197.085 21.7235 194.538 22.9573 192.046C27.9094 182.064 34.6742 172.942 42.7383 165.257C46.7439 161.441 51.1277 157.913 55.8073 154.954C58.127 153.49 60.5059 152.137 62.9693 150.932L63.3335 150.755C65.0483 149.922 66.9717 149.037 68.8786 148.574C69.077 148.426 69.2777 148.286 69.4805 148.153C70.2305 147.654 71.2488 148.016 71.6925 148.728C71.9082 148.561 72.1573 148.413 72.4425 148.28L72.7244 148.151C74.4355 147.38 76.49 146.66 78.3474 147.166C79.5009 147.481 80.4094 148.331 80.8174 149.413C81.7531 148.918 82.6721 148.409 83.57 147.785C85.0129 146.788 86.3207 145.549 87.4953 144.249C89.8509 141.635 91.5622 138.573 92.327 135.125ZM174.064 217.552C173.904 217.599 173.735 217.615 173.559 217.594C173.876 217.631 173.242 217.819 173.068 217.909L173.054 217.916C172.738 218.097 172.419 218.273 172.095 218.442C171.341 218.839 170.57 219.196 169.786 219.532C168.242 220.19 166.647 220.695 165.009 221.065C163.408 221.426 161.728 221.637 160.087 221.671C158.988 221.692 157.685 221.642 156.548 221.318C156.679 223.311 156.825 225.302 156.988 227.291L159.232 226.776C161.477 226.261 163.72 225.733 165.935 225.091C167.597 224.609 169.237 224.045 170.857 223.436C171.707 223.117 172.55 222.779 173.382 222.415C173.796 222.234 174.185 222.019 174.568 221.801L174.897 221.614C174.821 220.724 174.681 219.852 174.479 218.972C174.373 218.507 174.193 218.03 174.064 217.552ZM20.3502 208.166C20.065 209.092 19.6277 209.956 18.6305 210.165C18.2777 210.239 17.9821 210.199 17.7369 210.079L17.678 210.197C16.8582 211.881 16.6174 213.658 18.5038 214.955C19.3554 215.54 20.2826 216.047 21.2418 216.501C22.957 217.318 24.7837 217.974 26.5059 218.642L26.8488 218.776C29.9291 219.985 33.058 221.086 36.2355 222.007C39.4596 222.939 42.7404 223.687 46.0617 224.163C47.4622 224.362 48.8735 224.501 50.2871 224.592C50.3101 222.69 50.2995 220.786 50.2932 218.884C49.7904 218.82 49.2918 218.753 48.8103 218.695C47.3439 218.524 45.8819 218.315 44.4284 218.055C41.3925 217.512 38.3883 216.762 35.458 215.802C30.0284 214.02 24.977 211.473 20.3502 208.166ZM79.8791 149.901C78.6453 148.595 76.2855 149.066 74.7962 149.7C74.346 149.893 73.8918 150.087 73.4608 150.322L73.3773 150.368C72.8754 150.657 72.8779 150.829 73.123 151.406C73.4418 152.165 73.8855 152.898 74.308 153.601C76.1167 156.622 78.4974 159.251 81.2164 161.472C90.846 169.334 104.68 172.108 116.722 169.474C122.502 168.212 128.076 165.663 132.331 161.483L132.718 161.098C134.434 159.381 136.789 156.895 136.623 154.35C136.545 153.126 135.546 153.056 134.526 152.82C134.108 152.722 133.708 152.585 133.362 152.391C133.64 153.593 132.155 155.381 131.388 156.132C129.781 157.706 127.845 158.936 125.798 159.856C121.902 161.608 117.665 162.436 113.445 162.96C108.658 163.556 103.767 163.503 99.0157 162.622C94.8812 161.855 90.8059 160.403 87.2481 158.142C85.6172 157.106 84.0094 155.924 82.6488 154.549L82.3597 154.256C81.3774 153.261 80.2344 152.057 79.6467 150.751C79.4228 150.753 79.201 150.746 78.9791 150.731C78.8228 150.723 78.7385 150.501 78.8946 150.419C79.07 150.326 79.2453 150.233 79.4207 150.142C79.3913 150.044 79.3657 149.95 79.3446 149.852C79.3277 149.77 79.4143 149.694 79.4904 149.74C79.596 149.804 79.6974 149.871 79.7967 149.943C79.8242 149.931 79.8517 149.916 79.8791 149.901Z" fill="black"/>
<path fill-rule="evenodd" clip-rule="evenodd" d="M90.1071 51.5414C122.061 49.9661 143.742 75.2293 144.675 85.3035C145.323 92.2966 144.883 101.623 144.883 107.872C144.883 111.061 146.489 120.757 144.675 125.406C140.639 135.753 136.078 143.858 123.442 143.858C110.806 143.858 91.5429 137.293 84.9283 128.824C83.7206 127.278 68.7133 115.96 68.7133 107.064C68.7133 88.0838 67.3063 52.6655 90.1071 51.5414Z" fill="#FDC6A0"/>
<path fill-rule="evenodd" clip-rule="evenodd" d="M68.3078 31.0416C70.1289 30.4709 71.2911 31.2924 72.1203 32.5652C72.3031 32.5295 72.48 32.5318 72.6769 32.5794C72.7256 32.5912 72.8434 32.6358 72.9326 32.6709C73.0015 32.6998 73.0637 32.7349 73.1236 32.7721L73.1592 32.7533V32.7533C73.2959 32.6039 73.4394 32.4675 73.5944 32.3576C73.9427 32.1108 74.3015 32.0389 74.642 32.0897L74.7996 32.0315V32.0315C76.1476 31.5606 77.6091 31.7792 78.523 32.9433C78.6999 33.1682 78.8428 33.4186 78.9649 33.6828C79.2389 33.7728 79.4961 33.903 79.7177 34.0632C79.8733 33.9899 80.0377 33.9282 80.2138 33.8827C81.2082 33.627 82.253 33.8684 83.0634 34.4796C83.4581 34.777 83.7484 35.1494 83.9685 35.5746C84.2192 35.6336 84.4669 35.7397 84.699 35.8821C84.8984 35.7826 85.101 35.6892 85.3087 35.6251C86.0679 35.3914 86.8823 35.3053 87.6724 35.3643C89.3751 35.4909 91.0218 37.4406 89.8839 39.1148L89.8485 39.1654C89.7041 39.3673 89.5785 39.5759 89.4621 39.7879C89.8696 39.9656 90.2622 40.2034 90.6248 40.5014C92.3985 41.9587 92.5581 44.2053 92.2264 46.3246L92.2123 46.4129H92.2165C93.1589 46.5026 93.9725 47.4893 93.4158 48.4174L93.3887 48.4608C92.635 49.6281 91.989 50.9176 91.2691 52.1459C89.2766 52.866 87.3554 53.7528 85.5463 54.8273C84.4195 55.8169 83.3466 56.8631 82.4027 58.027C81.9315 58.6082 81.4987 59.2234 81.1009 59.8613C81.419 60.0145 81.8124 60.0067 82.1447 59.6981C85.1002 56.9525 88.6709 55.0256 92.4728 53.7342C92.7467 53.641 92.9263 53.4656 93.0271 53.2581C94.7149 52.776 96.4325 52.4021 98.1671 52.1375C98.6453 51.6808 99.1462 51.2441 99.6222 50.7893C100.23 50.2089 100.991 50.2174 101.56 50.582C101.843 50.4529 102.132 50.3389 102.425 50.2365L102.607 50.1743C102.683 50.1493 102.755 50.1204 102.83 50.0975C104.865 49.4738 106.727 49.7054 108.729 50.2179L108.985 50.2848C109.919 50.533 110.506 50.4934 111.41 50.2649L111.512 50.2387C112.472 49.9876 113.499 49.8017 114.481 50.0661C115.508 50.3428 116.189 50.9582 116.889 51.7017L116.959 51.7765C117.285 52.1266 117.474 52.1648 117.901 52.1563L118.359 52.1427C120.086 52.0952 121.778 52.1682 123.072 53.5077C123.55 54.003 124.063 54.7041 124.371 55.3439L124.416 55.4394C124.43 55.4705 124.443 55.4965 124.455 55.5197C124.64 55.4897 124.929 55.372 125.067 55.3452C126.949 54.9791 128.52 55.5432 129.729 57.0305C129.993 57.3559 130.393 57.9951 130.67 58.3463C130.767 58.4288 130.858 58.5171 130.945 58.6099C131.399 58.9005 132.042 58.8821 132.551 58.984C133.938 59.2608 135.42 59.7896 136.126 61.1129C136.42 61.6652 136.529 62.2694 136.654 62.873C137.12 63.1801 137.485 63.6227 137.769 64.1018C138.114 64.6835 138.261 65.3959 138.658 65.9452C138.946 66.3442 139.387 66.5573 139.807 66.8012L139.967 66.8955C141.209 67.6373 142.182 68.4605 142.591 69.914L142.627 70.0433C142.693 70.2659 142.926 70.9013 142.723 70.8059C142.898 70.9024 143.195 70.9365 143.354 70.9893C144.216 71.2753 144.966 71.7373 145.425 72.5486C145.774 73.1662 145.838 73.8099 145.938 74.4907L145.98 74.7655C145.991 74.832 146.004 74.9093 146.018 74.9842L146.031 75.0578L146.034 75.0595C146.19 75.1271 146.343 75.2005 146.494 75.2795C147.209 75.7011 147.697 76.4331 147.697 77.2804C147.697 77.6916 147.569 78.0121 147.382 78.298C147.533 78.5271 147.65 78.7712 147.738 79.0432C147.912 79.5744 147.924 80.1551 147.865 80.7047C147.795 81.3641 147.627 81.9645 147.428 82.5943C147.351 82.8374 147.32 83.177 147.205 83.4091C147.418 83.6811 147.545 84.0136 147.505 84.3416C147.449 84.8108 147.235 85.3592 146.811 85.6224C146.604 86.6474 146.158 87.6949 145.719 88.5329C145.668 88.6301 145.607 88.7167 145.54 88.7886C145.601 92.1343 145.356 95.5034 145.339 98.8446C145.32 102.482 145.396 106.122 145.523 109.755C145.736 115.776 146.497 122.002 144.724 127.874C143.273 132.68 140.368 136.805 136.472 139.933C132.483 143.133 127.675 144.985 122.569 145.274C119.971 145.42 117.33 145.124 114.817 144.45L114.548 144.377C112.117 143.707 109.301 142.684 107.512 140.893C106.567 139.946 107.522 137.94 108.907 138.492C110.28 139.039 111.511 139.849 112.873 140.419C114.089 140.929 115.359 141.32 116.644 141.607C119.223 142.188 121.957 142.315 124.578 141.954C134.039 140.656 141.412 132.779 142.866 123.439C143.269 120.853 143.262 118.224 143.234 115.61L143.204 112.747C143.181 110.351 143.173 107.954 143.261 105.559C143.372 102.478 143.59 99.3984 143.881 96.3298L144.032 94.733C144.212 92.8647 144.415 90.9822 144.764 89.1394C144.478 89.1544 142.22 85.2833 140.968 83.1202C140.511 82.7567 140.124 82.305 139.975 81.7206C139.944 81.5987 139.928 81.4757 139.919 81.3524C139.647 80.924 139.36 80.5066 139.057 80.1017L138.991 80.0721C138.94 80.0488 138.901 80.0294 138.877 80.0163C138.217 79.6407 137.665 79.0718 137.287 78.4124C137.16 78.19 137.056 77.9579 136.971 77.7206C136.432 77.1907 135.869 76.6852 135.277 76.2111C135.219 76.1646 135.159 76.1211 135.1 76.0752C134.346 75.7933 133.685 75.3685 133.202 74.7566C133.001 74.6315 132.798 74.5089 132.593 74.3889C131.979 74.3832 131.358 74.2397 130.754 73.9909C129.65 73.5361 128.767 72.6372 127.658 72.2206C126.484 71.7804 125.247 72.7809 124 72.6004C123.682 72.5544 123.366 72.4573 123.073 72.3166C122.371 73.0622 121.626 73.7652 120.804 74.3804C119.611 75.2736 118.392 75.6817 117.01 76.0852C116.325 76.7368 115.558 77.3685 114.633 77.4613C112.492 79.1766 110.203 80.6235 107.794 81.9668C107.407 82.1828 107.021 82.2803 106.656 82.2828C105.9 82.7583 105.076 83.1242 104.204 83.3774C103.931 83.4566 103.65 83.4733 103.373 83.4393L102.617 84.0567V84.0567C102.091 84.4861 101.53 84.6914 100.993 84.7047C100.666 84.9555 100.327 85.1929 99.9787 85.4211C99.6054 85.6661 99.1211 85.7675 98.6345 85.738C97.8914 86.4667 96.9277 86.5432 96.1207 86.2076C96.0098 86.2727 95.8958 86.3344 95.7676 86.395C95.5934 86.4777 95.4117 86.5474 95.2264 86.6039C94.3848 87.5131 93.153 87.9899 91.9186 87.8652C90.9969 88.4312 89.924 88.7256 88.8752 88.6595C88.7152 89.4651 88.5828 90.2738 88.4708 91.0851L88.4594 91.6795C88.4581 91.7758 88.4579 91.8509 88.4592 91.9003L88.4599 91.92C88.5625 94.5257 88.6186 97.1327 88.72 99.7389L88.7293 99.9446C88.8447 102.221 89.4035 106.373 86.0651 106.282C84.8211 106.249 83.5868 105.33 82.6181 104.575L82.4816 104.468C82.4074 104.411 82.3313 104.351 82.2547 104.291C81.5308 104.196 80.8169 104.02 80.0858 103.993C79.1835 103.961 78.2348 104.054 77.3557 104.259C75.804 104.621 74.3029 105.329 73.291 106.612C73.2025 106.724 73.1202 106.842 73.0422 106.96C72.9706 107.204 72.8483 107.428 72.6859 107.622C71.7288 109.78 72.2814 112.631 73.3395 114.605C74.6003 116.956 76.5953 118.582 79.104 119.4L79.2299 119.441C80.9438 119.978 81.5995 121.017 82.5313 122.463C83.4041 123.82 84.4055 125.084 85.4807 126.284C87.5615 128.607 90.4816 130.524 91.6915 133.464C91.9361 134.056 91.2362 134.614 90.6944 134.462C88.5714 133.863 87.083 132.348 85.5398 130.841C84.4717 129.798 83.4446 128.712 82.4809 127.572C82.2788 127.665 82.0563 127.728 81.8247 127.757C80.8022 127.882 79.7476 127.83 78.8525 127.277C78.4399 127.315 78.01 127.171 77.6909 126.878C77.398 126.609 77.1455 126.317 76.9321 126.007C76.6079 126.035 76.2895 126.044 75.9857 125.993C75.8392 125.979 75.6973 125.941 75.5673 125.877C75.3256 125.782 75.0965 125.634 74.8861 125.408C74.4598 124.949 74.2964 124.301 74.3751 123.685C74.2907 123.668 74.207 123.646 74.1244 123.618C73.5569 123.425 73.12 123.043 72.8409 122.522C72.3415 122.242 71.8918 121.861 71.5513 121.456C71.1366 120.964 70.8238 120.409 70.6399 119.796C70.45 119.708 70.2655 119.605 70.0888 119.485C68.8228 118.627 68.098 117.014 68.5952 115.524L68.612 115.477C68.6373 115.41 68.683 115.295 68.7389 115.166C68.7309 115.061 68.7225 114.956 68.7168 114.851L68.6993 114.534V114.534L68.4457 114.426V114.426C67.1808 113.921 66.3257 113.241 66.1737 111.814C66.142 111.519 66.2563 111.218 66.4366 110.966L66.4357 110.887V110.887C66.3535 110.844 66.2753 110.801 66.2063 110.757C65.5167 110.315 65.093 109.524 65.1404 108.706C65.184 107.96 65.5962 107.365 66.0596 106.815L66.192 106.661C66.203 106.648 66.2153 106.634 66.2285 106.619L65.9221 106.523C65.7233 106.459 65.5413 106.396 65.4103 106.323C64.9035 106.038 64.4738 105.653 64.2088 105.164C64.1702 105.103 64.131 105.044 64.0956 104.979C63.7534 104.353 63.7087 103.551 63.9295 102.88C63.9556 102.8 63.9893 102.726 64.0239 102.651C63.0921 102.322 62.3746 101.642 62.2882 100.387C62.2543 99.8942 62.362 99.4028 62.5962 98.982C62.5444 98.6986 62.5336 98.4048 62.5671 98.1142C62.2393 97.8037 61.9846 97.4296 61.8708 96.9733C61.6555 96.1112 62.0496 95.291 62.6352 94.5388C62.4185 93.9441 62.4073 93.273 62.6548 92.6743C62.5595 92.3754 62.5054 92.0594 62.5024 91.735C62.4959 91.0166 62.7166 90.4166 63.0731 89.9062C62.572 89.292 62.334 88.4758 62.63 87.7109C62.8406 87.1673 63.0813 86.67 63.3588 86.2093C63.2131 85.8589 63.1283 85.4664 63.1283 85.027C63.1283 84.2365 63.4239 83.6103 63.8761 83.0978C63.6798 82.1617 64.0789 81.0217 64.9488 80.6095C65.2766 80.454 65.7155 80.2917 66.1992 80.1653C66.3807 79.5968 66.5702 79.0306 66.7703 78.4684C67.0855 77.5834 67.4245 76.7108 67.7837 75.8482C67.5769 76.0298 67.36 76.1991 67.1356 76.3525C66.4262 77.2567 65.4857 78.0399 64.6954 78.5085C63.1285 79.4376 61.3366 78.8864 60.5631 77.3319C59.8361 77.8759 58.9638 78.198 58.033 78.0879C56.9776 77.963 56.0127 77.2778 55.7491 76.209C55.711 76.0543 55.688 75.8871 55.6857 75.7189C55.0804 76.1509 54.4471 76.5485 53.7525 76.7761C52.8676 77.066 51.9645 76.3705 51.8477 75.504C51.8015 75.1605 51.8656 74.857 52.002 74.6006L51.9156 74.5666C51.9012 74.5606 51.887 74.5543 51.8728 74.5476C51.4087 74.3297 51.0485 73.9302 50.8773 73.4695C49.8725 73.8592 48.7222 73.4025 48.4035 72.2948C48.024 70.9781 48.001 69.6445 48.2981 68.3618C47.2334 67.5861 46.5398 66.2821 46.4218 64.9189C46.3355 63.9404 46.5685 63.037 46.979 62.2018C45.9721 61.8243 45.6259 60.5013 46.1045 59.5481C45.4688 59.1833 45.0544 58.4099 45.0451 57.6571C44.7611 57.226 44.6702 56.6707 44.9057 56.0485C45.2163 55.2287 45.8487 54.5429 46.5729 54.005C46.2571 53.4538 46.0225 52.8527 45.8768 52.2315C45.2768 52.0555 44.7925 51.569 44.6939 50.8383C44.5703 49.9223 45.1718 49.1458 45.9813 48.9408C46.0712 48.6618 46.1808 48.389 46.3163 48.1269C45.9158 47.1758 45.9748 45.9733 46.4913 44.9334C46.9488 44.014 47.693 43.4518 48.589 43.063C48.3613 42.281 48.6628 41.5011 49.4217 40.9199C50.3483 40.2095 51.3645 39.6666 52.4323 39.283C52.3374 38.01 52.8683 36.7064 54.1229 36.2626C54.4583 36.144 54.8074 36.1002 55.1622 36.1017C55.4198 35.5402 55.8497 35.0836 56.4107 34.6795C57.2596 34.0683 58.8461 34.4417 59.3169 35.4002L59.3399 35.4495C59.3639 35.5038 59.3898 35.5535 59.4145 35.6061C59.5094 35.1407 59.7312 34.7011 60.0877 34.3407C60.9788 33.4398 61.9197 33.4229 62.8252 33.8081C62.9913 33.3952 63.1924 33.0025 63.437 32.6434C64.3248 31.3406 65.7914 31.1747 66.8654 31.8802C67.2959 31.5008 67.7763 31.2083 68.3078 31.0416ZM74.6552 109.383C76.4427 108.681 78.6121 108.888 80.3788 109.562L80.5083 109.613C82.0687 110.231 84.6038 111.607 84.9093 113.367C85.0675 114.278 84.2033 115.066 83.3261 114.586C82.5629 114.17 82.1349 113.331 81.5278 112.722C80.9271 112.12 80.2544 111.636 79.5209 111.211C77.9904 110.325 76.3816 109.981 74.6552 109.725C74.4612 109.698 74.5139 109.438 74.6552 109.383Z" fill="black"/>
<path fill-rule="evenodd" clip-rule="evenodd" d="M130.578 122.332C130.724 122.292 130.854 122.489 130.732 122.597C130.235 123.038 129.919 123.861 129.556 124.422C129.211 124.955 128.878 125.483 128.574 126.041C128.234 126.667 127.905 127.291 127.64 127.953L127.588 128.086V128.086C127.667 128.275 127.729 128.462 127.775 128.584L127.788 128.619C128.241 129.775 127.291 131.059 126.22 131.383C124.387 131.935 122.815 130.43 122.771 128.64C122.737 127.231 123.691 125.976 124.661 125.045C125.509 124.231 126.459 123.538 127.521 123.03C127.99 122.806 128.477 122.619 128.986 122.51C129.507 122.399 130.068 122.47 130.578 122.332ZM127.124 127.436C127.258 127.499 127.373 127.654 127.47 127.835C127.421 127.682 127.322 127.529 127.124 127.436ZM128.271 107.866C129.866 108.836 132.297 111.098 130.581 113.503C128.56 115.624 125.652 113.193 124.218 112.093C122.889 111.241 121.396 113.433 122.629 114.428C132.986 122.099 137.189 108.12 129.077 106.726C128.184 106.572 127.853 107.566 128.271 107.866ZM115.156 98.551L115.438 98.5274C116.661 98.4196 117.899 98.2553 119.105 98.532C120.724 98.904 120.606 101.261 119.105 101.695C117.782 102.077 116.316 101.912 114.95 101.925C114.735 101.927 114.521 101.932 114.306 101.936C114.264 102.447 114.096 102.887 113.84 103.327C113.656 103.643 113.422 103.943 113.191 104.223C112.642 104.89 111.349 104.875 110.795 104.223C110.386 103.741 110.06 103.186 110.055 102.533C110.053 102.366 110.074 102.189 110.114 102.014L109.368 102.027C107.544 102.055 105.706 102.043 103.914 101.753C103.277 101.884 102.756 100.734 103.635 100.39C106.026 99.4546 108.697 99.1792 111.234 98.8983C112.538 98.7537 113.849 98.6542 115.156 98.551ZM135.525 97.5844L135.59 97.5779C137.172 97.4158 138.916 97.1351 140.502 97.2966C142.869 97.5373 142.865 100.738 140.502 100.978C139.634 101.066 138.72 101.023 137.809 100.939C138.275 101.928 137.722 103.109 136.6 103.259C135.556 103.4 134.475 102.386 134.818 101.298L134.834 101.25C134.9 101.061 134.96 100.85 135.032 100.642L134.654 100.61C133.526 100.51 131.96 100.307 131.544 99.4154C131.419 99.1468 131.448 98.8974 131.641 98.6678C132.432 97.726 134.382 97.695 135.525 97.5844V97.5844ZM118.701 90.2552C119.846 89.839 121.036 90.8129 121.184 91.9105C121.355 93.1752 120.443 94.0079 119.288 94.159L119.23 94.166C116.678 94.4471 114.146 94.9611 111.592 95.2517C110.431 95.3835 109.263 95.4702 108.094 95.5014L107.26 95.5202C106.237 95.5461 105.14 95.5694 104.195 95.217L104.199 95.2107V95.2107C103.948 95.138 103.833 94.7762 104.112 94.5783C105.117 93.8671 106.473 93.5983 107.643 93.2603C108.82 92.9203 110.005 92.6069 111.194 92.3124C113.69 91.6949 116.283 91.134 118.701 90.2552ZM129.261 90.5508C129.565 88.9507 131.83 88.7791 132.663 89.9434C133.201 90.1281 133.989 90.3209 134.478 90.4659C135.329 90.7184 136.181 90.9695 137.035 91.2128C138.804 91.7166 140.529 92.3553 142.268 92.9507C142.447 93.0122 142.398 93.2396 142.225 93.2622C139.799 93.5781 137.413 93.7252 134.972 93.6239L134.471 93.6013C132.32 93.5175 128.669 93.6774 129.261 90.5508Z" fill="black"/>
</g>
<defs>
<clipPath id="clip0_2016_14167">
<rect width="200" height="267" fill="white"/>
</clipPath>
</defs>
</svg>
