<svg width="200" height="267" viewBox="0 0 200 267" fill="none" xmlns="http://www.w3.org/2000/svg">
<g clip-path="url(#clip0_2016_14166)">
<rect width="200" height="267" fill="white"/>
<path fill-rule="evenodd" clip-rule="evenodd" d="M35.2054 285.569C37.7345 285.726 40.2634 285.849 42.7922 285.944C75.8621 287.176 108.905 283.405 141.954 282.58C153.464 282.277 164.914 282.428 176.394 283.352C177.518 283.443 178.805 282.232 178.666 281.079C176.546 262.764 173.892 244.499 172.517 226.109C172.516 225.136 172.642 224.165 172.976 223.249C173.039 223.177 173.365 222.371 173.656 222.321C173.561 222.392 173.991 222.268 173.717 222.289C175.377 222.018 177.005 220.225 175.8 218.51C163.392 199.485 146.454 182.12 141.004 159.523C139.717 153.414 135.067 153.036 130.112 150.516C128.567 149.596 124.787 147.049 124.172 145.278C122.702 138.894 125.29 132.641 117.73 130.058C112.74 128.674 103.919 127.502 98.8692 128.962C92.7097 131.013 93.1707 137.957 89.5979 142.734C87.7502 145.497 84.6001 149.28 81.6914 149.704C80.2816 149.909 79.2432 147.056 77.8356 147.252C55.8946 152.583 26.0015 188.949 16.5714 209.081C14.4462 215.416 21.2999 213.505 20.8788 219.873C20.3598 231.954 19.2245 247.419 19.8978 259.515C20.5284 266.535 20.0617 273.891 22.2431 280.647C21.656 281.36 22.4995 282.081 23.1879 282.39C24.0551 283.866 32.5886 285.365 35.2054 285.569Z" fill="#FDC6A0"/>
<path d="M77.8356 147.252C79.1484 147.069 79.2338 150.93 80.505 151.098C86.405 159.384 95.5481 162.134 106.122 162.134C117.347 162.134 126.449 158.757 133.427 152.003L134.067 152.273C137.37 153.677 140.071 155.094 141.004 159.523C146.454 182.12 163.392 199.485 175.8 218.51C177.005 220.225 175.377 222.018 173.717 222.289C173.991 222.268 173.561 222.392 173.656 222.321C173.365 222.371 173.039 223.177 172.976 223.249C172.814 223.692 172.701 224.149 172.628 224.612C172.628 224.612 158.727 227.558 154.99 227.639C117.466 228.451 48.8431 227.291 48.8431 227.291L20.1007 216.415C18.4569 213.946 14.9723 213.848 16.5714 209.081C26.0015 188.949 55.8946 152.583 77.8356 147.252Z" fill="#E86BBB"/>
<path fill-rule="evenodd" clip-rule="evenodd" d="M92.327 135.125C92.8974 132.558 96.9812 133.659 96.2819 136.216C95.1981 140.17 92.9502 143.907 89.7772 146.53C87.3263 148.555 83.9864 150.361 80.6735 150.695C80.984 150.998 81.2819 151.321 81.5946 151.63C82.3002 152.331 83.0502 152.982 83.8235 153.608C85.4124 154.893 87.0643 156.049 88.8686 157.017C96.0749 160.885 104.215 161.777 112.264 160.876C116.084 160.449 119.961 159.725 123.552 158.327C125.217 157.681 126.835 156.831 128.264 155.757L128.638 155.477C129.389 154.909 130.391 154.109 130.86 153.234C129.432 153.555 127.626 152.033 126.635 151.148C125.551 150.176 124.638 148.922 123.964 147.637C122.644 145.116 121.945 141.863 123.052 139.16C123.126 138.98 123.362 139.01 123.383 139.205C123.711 142.356 124.56 145.31 126.821 147.644C127.824 148.677 129.026 149.544 130.338 150.146L130.523 150.231C131.082 150.489 131.67 150.793 131.906 151.346C131.997 151.336 132.088 151.344 132.174 151.368C132.252 151.389 132.324 151.412 132.394 151.437C132.238 151.131 132.155 150.77 132.17 150.342C132.225 148.688 134.496 148.637 134.811 150.11C134.754 149.916 134.678 150.104 134.821 150.163C134.819 150.146 134.815 150.127 134.811 150.11L134.815 150.126V150.126L134.824 150.163L134.821 150.163C134.827 150.19 134.832 150.217 134.835 150.245L134.838 150.282L134.836 150.251C134.834 150.229 134.831 150.208 134.828 150.19L134.823 150.163C134.845 150.173 134.874 150.18 134.908 150.18L134.922 150.185C134.975 150.208 135.162 150.295 135.217 150.317C135.595 150.457 136.017 150.501 136.404 150.621C137.243 150.88 137.982 151.306 138.493 152.033C138.861 152.556 139.066 153.154 139.15 153.775C142.862 155.561 146.376 157.881 149.319 160.754C155.887 167.162 160.467 175.182 164.226 183.485C166.139 187.711 167.843 192.027 169.511 196.355L169.773 197.038C171.561 201.69 173.141 206.393 173.53 211.393C173.566 211.841 173.418 212.262 173.162 212.611C173.253 212.987 173.3 213.363 173.287 213.731C173.285 213.788 173.281 213.845 173.276 213.902C173.876 213.891 174.464 214.143 175.021 214.849C175.247 214.777 175.492 214.768 175.733 214.847C177.202 215.316 177.438 216.929 177.715 218.279C178 219.674 178.125 221.103 178.127 222.525C178.127 223.034 177.835 223.677 177.341 223.895C176.412 224.305 175.41 224.573 174.449 224.945C173.726 225.224 173.002 225.488 172.271 225.736C172.676 226.443 172.807 227.428 173.027 228.175C173.371 229.339 173.648 230.508 173.881 231.7C175.457 239.805 176.549 247.997 178.023 256.119C178.761 260.188 179.619 264.229 180.493 268.27C180.924 270.256 181.383 272.239 181.875 274.213C182.137 275.265 182.409 276.318 182.69 277.364C182.772 277.67 182.855 277.975 182.938 278.279L183.085 278.812V278.812C183.407 278.989 183.681 279.258 183.871 279.625C184.567 280.97 184.167 282.485 182.834 283.242C181.385 284.066 179.655 283.288 178.856 281.95C178.294 281.006 178.11 279.755 177.833 278.704C177.521 277.525 177.223 276.339 176.935 275.153C174.984 267.098 173.676 258.902 172.691 250.675L172.621 250.087C172.121 245.852 171.637 241.606 171.324 237.351C171.17 235.261 171.047 233.171 170.971 231.076C170.933 229.998 170.995 228.914 171.056 227.838C171.083 227.367 171.123 226.894 171.138 226.422L171.143 226.355C171.147 226.308 171.152 226.245 171.157 226.179L171.162 226.099C169.704 226.556 168.225 226.936 166.731 227.257C163.554 227.944 160.302 228.327 157.059 228.132C157.512 233.505 158.101 238.864 158.925 244.188C159.719 249.316 160.636 254.432 161.671 259.518C162.189 262.073 162.749 264.622 163.338 267.162C163.655 268.519 164.016 269.867 164.302 271.231C164.471 272.042 164.523 272.721 164.183 273.48C164.558 274.5 164.89 275.525 165.218 276.491L165.316 276.779C165.895 278.47 166.993 280.198 165.846 281.86C165.253 282.717 164.285 283.208 163.311 283.238C163.294 283.248 163.275 283.261 163.256 283.271C162.732 283.552 162.128 283.607 161.553 283.487C160.681 283.658 159.806 283.823 158.929 283.973C156.764 284.347 154.588 284.656 152.407 284.916C148.256 285.41 144.077 285.681 139.9 285.831C124.609 286.382 109.3 285.414 94.0026 285.693C86.2087 285.835 78.415 286.186 70.634 286.651C66.7509 286.883 62.8657 287.133 58.9805 287.325L57.7779 287.384C54.3034 287.55 50.8264 287.678 47.3545 287.424C47.2869 287.42 47.234 287.393 47.1981 287.355C46.0002 287.219 44.7962 286.116 44.9164 284.842C45.434 279.414 45.9517 273.987 46.4714 268.557C47.3946 258.884 48.3263 249.21 49.2686 239.539L49.4047 238.142C49.7213 234.884 50.0236 231.617 50.177 228.346C49.4038 228.291 48.6328 228.221 47.8615 228.136C39.5047 227.221 31.4935 224.692 23.8013 221.371L23.4897 221.236C22.7967 220.933 22.0383 220.631 21.2608 220.308C21.2737 221.785 21.2249 223.265 21.2186 224.727C21.208 227.156 21.227 229.584 21.2333 232.01C21.2481 237.011 21.4383 242.014 21.6876 247.006C22.1249 255.823 22.6383 264.628 23.4157 273.424C23.6122 275.637 23.8786 277.846 24.0664 280.059C24.1786 281.363 23.9101 282.449 22.7167 283.134C22.1291 283.472 21.6749 283.331 21.0918 283.058C19.6678 282.39 19.6277 280.811 19.4925 279.438C19.3892 278.402 19.2939 277.366 19.2009 276.329C19.0026 274.116 18.8312 271.903 18.6918 269.686C18.1406 260.877 17.9798 252.076 18.3601 243.256C18.5367 239.131 18.7916 234.997 19.1298 230.879L19.2094 229.929C19.4883 226.638 19.6678 223.185 20.2446 219.873C17.9186 218.841 15.6136 217.529 14.5446 215.347C13.1589 212.515 14.6819 210.094 16.8517 208.426C16.8305 208.145 16.8517 207.866 16.9108 207.612C17.534 204.913 18.5777 202.246 19.5855 199.672C20.6017 197.085 21.7235 194.538 22.9573 192.046C27.9094 182.064 34.6742 172.942 42.7383 165.257C46.7439 161.441 51.1277 157.913 55.8073 154.954C58.127 153.49 60.5059 152.137 62.9693 150.932L63.3335 150.755C65.0483 149.922 66.9717 149.037 68.8786 148.574C69.077 148.426 69.2777 148.286 69.4805 148.153C70.2305 147.654 71.2488 148.016 71.6925 148.728C71.9082 148.561 72.1573 148.413 72.4425 148.28L72.7244 148.151C74.4355 147.38 76.49 146.66 78.3474 147.166C79.5009 147.481 80.4094 148.331 80.8174 149.413C81.7531 148.918 82.6721 148.409 83.57 147.785C85.0129 146.788 86.3207 145.549 87.4953 144.249C89.8509 141.635 91.5622 138.573 92.327 135.125ZM174.064 217.552C173.904 217.599 173.735 217.615 173.559 217.594C173.876 217.631 173.242 217.819 173.068 217.909L173.054 217.916C172.738 218.097 172.419 218.273 172.095 218.442C171.341 218.839 170.57 219.196 169.786 219.532C168.242 220.19 166.647 220.695 165.009 221.065C163.408 221.426 161.728 221.637 160.087 221.671C158.988 221.692 157.685 221.642 156.548 221.318C156.679 223.311 156.825 225.302 156.988 227.291L159.232 226.776C161.477 226.261 163.72 225.733 165.935 225.091C167.597 224.609 169.237 224.045 170.857 223.436C171.707 223.117 172.55 222.779 173.382 222.415C173.796 222.234 174.185 222.019 174.568 221.801L174.897 221.614C174.821 220.724 174.681 219.852 174.479 218.972C174.373 218.507 174.193 218.03 174.064 217.552ZM20.3502 208.166C20.065 209.092 19.6277 209.956 18.6305 210.165C18.2777 210.239 17.9821 210.199 17.7369 210.079L17.678 210.197C16.8582 211.881 16.6174 213.658 18.5038 214.955C19.3554 215.54 20.2826 216.047 21.2418 216.501C22.957 217.318 24.7837 217.974 26.5059 218.642L26.8488 218.776C29.9291 219.985 33.058 221.086 36.2355 222.007C39.4596 222.939 42.7404 223.687 46.0617 224.163C47.4622 224.362 48.8735 224.501 50.2871 224.592C50.3101 222.69 50.2995 220.786 50.2932 218.884C49.7904 218.82 49.2918 218.753 48.8103 218.695C47.3439 218.524 45.8819 218.315 44.4284 218.055C41.3925 217.512 38.3883 216.762 35.458 215.802C30.0284 214.02 24.977 211.473 20.3502 208.166ZM79.8791 149.901C78.6453 148.595 76.2855 149.066 74.7962 149.7C74.346 149.893 73.8918 150.087 73.4608 150.322L73.3773 150.368C72.8754 150.657 72.8779 150.829 73.123 151.406C73.4418 152.165 73.8855 152.898 74.308 153.601C76.1167 156.622 78.4974 159.251 81.2164 161.472C90.846 169.334 104.68 172.108 116.722 169.474C122.502 168.212 128.076 165.663 132.331 161.483L132.718 161.098C134.434 159.381 136.789 156.895 136.623 154.35C136.545 153.126 135.546 153.056 134.526 152.82C134.108 152.722 133.708 152.585 133.362 152.391C133.64 153.593 132.155 155.381 131.388 156.132C129.781 157.706 127.845 158.936 125.798 159.856C121.902 161.608 117.665 162.436 113.445 162.96C108.658 163.556 103.767 163.503 99.0157 162.622C94.8812 161.855 90.8059 160.403 87.2481 158.142C85.6172 157.106 84.0094 155.924 82.6488 154.549L82.3597 154.256C81.3774 153.261 80.2344 152.057 79.6467 150.751C79.4228 150.753 79.201 150.746 78.9791 150.731C78.8228 150.723 78.7385 150.501 78.8946 150.419C79.07 150.326 79.2453 150.233 79.4207 150.142C79.3913 150.044 79.3657 149.95 79.3446 149.852C79.3277 149.77 79.4143 149.694 79.4904 149.74C79.596 149.804 79.6974 149.871 79.7967 149.943C79.8242 149.931 79.8517 149.916 79.8791 149.901Z" fill="black"/>
<path fill-rule="evenodd" clip-rule="evenodd" d="M113.465 60.2715C145.197 61.2786 147.11 76.3885 147.11 101.728C147.11 127.068 130.65 143.036 124.588 145.824C118.527 148.612 102.567 160.588 88.1646 155.069C73.7617 149.551 77.9326 126.234 77.9326 116.215C77.9326 106.197 81.7338 59.2644 113.465 60.2715Z" fill="#FDC6A0"/>
<path fill-rule="evenodd" clip-rule="evenodd" d="M82.7954 100.485C89.3563 73.6655 101.334 60.5802 118.727 61.2295C144.817 62.2035 144.542 88.8624 142.905 86.4317C141.836 84.8437 134.349 79.2959 120.444 69.7886L119.584 69.2015L82.7954 100.485Z" fill="#9FD8E5"/>
<path fill-rule="evenodd" clip-rule="evenodd" d="M126.338 137.502C120.51 140.763 113.838 140.89 107.57 138.837C103.811 137.61 100.364 135.712 97.1387 133.442C94.3327 131.466 91.8281 129.274 89.3467 126.947C87.3039 122.43 85.4847 117.922 84.6327 113.008C83.8696 108.597 83.7684 104.017 84.6538 99.6151C91.2022 94.2151 97.7102 88.7707 104.21 83.3096C107.52 80.528 110.838 77.7617 114.196 75.0393C115.902 73.657 117.591 72.2537 119.29 70.8651C119.57 70.6368 119.849 70.4086 120.129 70.1803C123.637 72.7546 127.398 74.9613 130.881 77.5776C132.704 78.9492 134.477 80.4097 136.166 81.946C137.051 82.7514 137.916 83.582 138.759 84.4338C139.531 85.2118 140.275 86.3275 141.369 86.6215C141.519 86.6614 141.66 86.6699 141.793 86.6508C143.256 99.4925 144.295 113.359 138.028 125.021C135.293 130.109 131.416 134.657 126.338 137.502ZM88.4299 142.221C87.6275 141.484 88.8232 140.292 89.6223 141.026C94.6411 145.634 101.202 148.077 107.83 149.208C108.899 149.391 108.443 151.02 107.381 150.838C100.462 149.658 93.6612 147.025 88.4299 142.221ZM82.4075 149.293C81.4495 148.777 82.3023 147.318 83.2586 147.833C87.1687 149.935 91.4575 151.027 95.8076 151.765C96.8775 151.946 96.4211 153.575 95.3594 153.395C90.8615 152.632 86.4479 151.465 82.4075 149.293ZM98.3214 78.0618C101.566 75.1428 105.053 72.3655 108.736 70.0218C112.463 67.6504 116.534 66.2323 120.934 66.1985C120.626 66.4458 120.333 66.7205 120.036 66.976C119.206 67.6885 118.377 68.405 117.548 69.1193C115.891 70.5502 114.23 71.9787 112.594 73.433C109.373 76.2989 106.141 79.15 102.926 82.0223C96.7466 87.5427 90.7004 93.1835 84.7845 98.9874C84.8164 98.8457 84.8501 98.7041 84.8836 98.5627C86.8422 90.3621 92.1696 83.5968 98.3214 78.0618ZM123.755 66.5557C123.776 66.4922 123.791 66.4307 123.799 66.3718C132.243 67.475 139.295 73.7033 141.626 81.9039C141.424 82.1871 141.312 82.5232 141.354 82.8801C141.375 83.06 141.397 83.2418 141.418 83.4214C141.129 83.1342 140.832 82.8656 140.579 82.6098C139.737 81.756 138.875 80.9251 137.99 80.1157C136.179 78.461 134.298 76.9139 132.316 75.4704C128.87 72.9596 125.138 70.6516 121.029 69.4469C121.299 69.225 121.569 69.0031 121.841 68.7833C122.652 68.1215 123.405 67.5765 123.755 66.5557ZM138.892 57.7867C133.708 52.1077 126.529 47.9484 118.97 46.5027C111.751 45.1205 104.277 46.0314 97.4572 48.7177C83.1865 54.3396 71.9265 66.7017 66.6539 81.0268C63.5801 89.373 62.5723 98.5224 63.496 107.357C64.4149 116.151 67.0565 125.233 71.8633 132.715C72.3039 133.4 72.7867 134.057 73.2926 134.693C73.0671 137.276 72.2069 139.808 70.8534 142.01C70.7807 142.128 70.704 142.244 70.6281 142.36C69.2421 143.4 67.8045 144.377 66.4011 145.384C65.1848 146.258 63.9811 147.154 62.8373 148.121C61.7577 149.034 60.504 150.051 59.773 151.284C59.1741 152.293 58.9295 153.666 59.7471 154.629C60.7323 155.789 62.4016 155.38 63.7361 155.38C63.8503 155.38 63.9644 155.383 64.0785 155.384C64.4792 155.636 64.892 155.865 65.2919 156.077C69.3334 158.225 73.3896 160.349 77.45 162.462C85.5374 166.674 93.5908 171.056 101.844 174.934C105.669 176.733 109.763 178.305 114.047 178.299C118.065 178.292 121.697 176.692 124.834 174.26C128.41 171.489 131.4 167.97 134.3 164.521C135.46 163.14 136.596 161.744 137.711 160.328C139.853 159.611 141.978 159.402 143.888 160.784C145.421 161.894 147.441 160.385 147.477 158.719C147.489 158.128 147.464 157.544 147.401 156.969C147.017 153.418 145.284 150.206 143.332 147.226C142.265 145.596 141.142 143.996 140.011 142.411C139.746 142.037 139.484 141.663 139.231 141.283C143.77 134.583 147.371 127.154 149.585 119.391C151.91 111.222 152.701 102.751 152.182 94.2869C151.385 81.3142 147.835 67.5849 138.892 57.7867Z" fill="black"/>
<path fill-rule="evenodd" clip-rule="evenodd" d="M123.152 128.274C121.732 127.695 120.465 126.728 119.538 125.493C119.216 125.063 119.133 124.61 119.2 124.195C119.276 123.729 119.552 123.306 119.928 123.023C120.305 122.739 120.777 122.598 121.233 122.67C121.63 122.732 122.024 122.949 122.337 123.399L122.402 123.489C122.953 124.235 123.67 124.846 124.488 125.241C125.276 125.621 126.158 125.798 127.07 125.695C128.808 125.499 130.005 124.559 131.278 123.282C131.436 123.121 131.594 122.955 131.752 122.786C131.852 122.633 131.991 122.534 132.146 122.483C132.317 122.425 132.511 122.429 132.689 122.491C132.86 122.55 133.013 122.664 133.116 122.815C133.213 122.958 133.269 123.135 133.251 123.339C133.134 124.661 132.443 125.842 131.461 126.769C130.37 127.799 128.924 128.511 127.563 128.761C126.064 129.036 124.536 128.839 123.152 128.274V128.274ZM128.271 107.866C129.866 108.836 132.297 111.098 130.581 113.503C128.56 115.624 125.652 113.193 124.219 112.093C122.89 111.241 121.396 113.433 122.629 114.428C132.987 122.099 137.19 108.12 129.078 106.726C128.184 106.572 127.853 107.566 128.271 107.866ZM109.711 98.9429C109.887 96.7541 113.219 96.257 113.551 98.423C113.847 100.363 113.498 102.145 112.624 103.892C111.79 105.561 109.692 104.783 109.533 103.263C109.32 101.226 109.601 100.304 109.711 98.9429ZM135.076 97.9739C135.541 97.3652 136.212 96.9497 137.015 97.1845C139.526 97.9185 138.786 101.485 137.904 103.22C137.425 104.163 135.876 104.402 135.176 103.572C134.036 102.219 133.489 99.5157 134.94 98.1825C134.979 98.1136 135.023 98.044 135.076 97.9739ZM112.589 89.3654L112.986 89.2959C114.213 89.0836 115.738 88.8796 116.606 89.8665C117.067 90.3898 117.225 91.3624 116.606 91.8633C115.518 92.7446 114.314 92.4031 113.01 92.4777C111.935 92.5394 110.902 92.7174 109.867 93.0135C107.595 93.6629 105.744 94.8486 103.804 96.1505C103.55 96.3213 103.29 95.9956 103.411 95.7574C104.531 93.563 106.701 91.7604 108.875 90.6616C110.036 90.0751 111.305 89.5885 112.589 89.3654ZM132.787 88.3823L133.091 88.4445C136.395 89.1353 140.687 90.5153 142.251 93.7615C142.311 94.2205 142.248 94.3189 142.197 94.3832L142.18 94.4046C142.137 94.4595 142.104 94.5351 141.905 94.5976C141.85 94.5844 141.794 94.5705 141.737 94.5557C141.02 94.3677 140.453 94.1087 139.904 93.84L139.308 93.5465C138.617 93.2076 137.92 92.881 137.181 92.6399C135.605 92.1255 133.983 91.7631 132.337 91.5696C131.98 91.5277 131.636 91.4072 131.365 91.2006C131.108 91.0046 130.911 90.7332 130.821 90.3724C130.705 89.9056 130.739 89.5521 130.989 89.1309C131.177 88.8146 131.447 88.5953 131.756 88.4694C132.071 88.3411 132.43 88.3108 132.787 88.3823Z" fill="black"/>
<path fill-rule="evenodd" clip-rule="evenodd" d="M147.178 109.153C144.613 111.805 140.331 112.566 136.919 111.144C128.156 107.481 132.445 96.0578 139.203 92.99C140.047 92.7795 141.175 92.2801 142.203 92.1668C142.296 92.1212 142.498 92.2533 142.743 92.1284C150.195 92.9607 151.892 104.533 147.178 109.153M118.915 109.832C116.038 113.649 110.69 114.827 106.32 113.052C97.6872 109.651 100.749 99.5216 106.656 95.5503C119.132 90.8603 124.285 102.794 118.915 109.832M100.201 101.374C100.193 101.371 100.185 101.369 100.177 101.365C100.222 101.345 100.268 101.325 100.313 101.304C100.299 101.343 100.283 101.381 100.268 101.42C100.246 101.404 100.226 101.386 100.201 101.374M153.117 97.2481C152.413 97.2496 151.395 97.3654 150.812 97.8543C149.374 93.0031 144.067 88.5134 139.451 91.7872C135.816 92.9566 133.119 95.5501 131.586 98.9981C128.822 97.3534 124.476 98.0557 122.079 100.231C120.509 95.0418 116.646 93.2248 112.048 92.9566C107.029 92.1343 102.027 97.0103 100.466 100.922C99.168 100.774 97.2287 100.361 96.0078 101.162C88.0838 99.0835 74.2299 97.9373 72.619 99.0924C71.471 99.533 70.841 102.244 72.4445 102.39C73.8418 102.192 72.2814 100.404 73.6899 100.209C81.1948 99.7433 88.4804 101.255 95.9058 101.89C96.5687 102.782 98.7108 103.08 99.8535 102.722C98.0537 109.357 101.939 113.872 107.76 115.224C116.775 117.296 124.617 109.229 122.26 100.838C124.991 99.4791 128.131 99.5375 131.106 100.253C126.135 118.554 155.598 117.733 150.997 98.4813C154.059 100.005 154.724 97.5556 153.117 97.2481" fill="black"/>
</g>
<defs>
<clipPath id="clip0_2016_14166">
<rect width="200" height="267" fill="white"/>
</clipPath>
</defs>
</svg>
