<svg width="200" height="267" viewBox="0 0 200 267" fill="none" xmlns="http://www.w3.org/2000/svg">
<g clip-path="url(#clip0_2016_14178)">
<rect width="200" height="267" fill="white"/>
<path fill-rule="evenodd" clip-rule="evenodd" d="M107.585 126.849C113.74 127.153 123.323 129.792 123.802 131.479C124.55 134.114 122.943 143.989 125.632 149.309C126.778 151.576 131.13 151.373 132.817 152.112C138.46 154.583 155.165 159.269 158.609 165.17C159.989 167.534 168.47 196.867 172.976 211.832C173.484 213.519 174.057 215.079 174.681 216.525L174.91 215.402C176.748 206.357 177.666 200.881 177.666 198.975C177.666 195.997 175.291 183.43 177.666 180.234C180.018 177.07 185.684 174.483 188.233 174.432L188.31 174.431C189.983 174.431 191.436 173.908 192.667 172.861L194.472 171.953C203.653 167.344 209.017 164.816 210.564 164.368C213.033 163.654 217.234 165.175 215.133 167.459C213.733 168.981 210.214 171.674 204.576 175.538L202.451 177.227L202.707 177.362C205.455 178.808 207.07 180.026 207.553 181.015C208.052 182.034 207.813 183.24 206.836 184.632L206.984 184.776C208.219 185.988 208.837 186.802 208.837 187.216V189.239C210.065 191.038 210.372 192.54 209.758 193.742C209.144 194.944 208.17 195.986 206.836 196.867C205.853 199.453 204.683 201.294 203.325 202.389C201.967 203.484 199.621 204.395 196.285 205.123L193.266 212.344L190.82 222.487L189.588 233.806L189.946 234.065C191.604 235.273 192.667 236.169 192.667 237.095C192.667 238.537 185.975 272.454 175.563 273.973C173.311 274.301 161.633 272.691 157.798 269.57L157.855 269.907C158.757 275.358 158.566 278.189 157.282 278.4C141.503 280.988 96.6898 281.787 22.8419 280.799C22.4025 241.589 24.3892 215.475 28.802 202.459C40.0879 169.168 52.5312 157.798 56.8844 156.824C60.6977 155.971 73.9206 150.706 77.617 149.309C80.0298 148.397 80.5467 145.662 83.2963 145.662L83.5185 145.663C86.1776 145.69 88.5356 146.165 89.8605 144.797C93.3372 141.207 92.3653 136.238 93.8076 131.479C94.6023 128.857 100.033 126.476 107.585 126.849Z" fill="#FDC6A0"/>
<path d="M83.2963 145.662L83.5185 145.663C84.1757 145.67 84.8145 145.704 85.4239 145.731L84.14 150.107L84.1122 150.567C83.2786 165.656 90.6646 172.879 106.27 172.236C121.876 171.594 129.639 166.656 129.558 157.422L129.553 157.141L129.553 151.395L129.799 151.442C130.983 151.664 132.125 151.809 132.817 152.112C138.46 154.583 155.165 159.269 158.609 165.17C159.989 167.534 168.47 196.867 172.976 211.832C173.14 212.379 173.312 212.912 173.49 213.433L173.49 216.391L173.441 216.57C171.861 222.479 173.964 227.31 179.749 231.064C183.849 233.724 188.06 235.451 192.382 236.245C192.568 236.532 192.667 236.812 192.667 237.095C192.667 238.537 185.975 272.455 175.563 273.973C173.311 274.301 161.633 272.691 157.798 269.57L157.855 269.907L157.908 270.231C158.749 275.471 158.54 278.194 157.282 278.4C141.503 280.988 96.6898 281.787 22.8419 280.799C22.4025 241.589 24.3892 215.475 28.802 202.459C40.0879 169.168 52.5312 157.798 56.8844 156.824C60.6977 155.971 73.9206 150.706 77.617 149.309C80.0298 148.397 80.5467 145.662 83.2963 145.662Z" fill="#BA98DE"/>
<path fill-rule="evenodd" clip-rule="evenodd" d="M90.6767 136.25C91.038 135.534 91.9969 135.626 92.6297 135.951C94.5275 137.339 92.5418 140.03 92.0168 141.723C90.6664 145.009 88.3209 148.219 85.083 149.755C85.3513 153.02 85.6553 156.279 85.7675 159.555C89.9073 164.692 96.8869 166.567 103.083 168.008C112.814 170.701 123.797 165.185 127.081 155.562C123.343 153.438 122.133 147.874 123.248 143.993C123.345 143.721 123.768 143.6 123.918 143.904C124.942 146.011 124.805 148.58 125.969 150.661C137.138 151.73 151.553 155.946 158.87 164.982C162.113 169.503 163.398 175.383 164.995 180.622C168.403 191.424 171.118 202.444 174.46 213.257L174.854 211.211C175.934 205.575 176.915 199.863 176.185 194.132L176.172 193.857C175.934 189.297 174.507 180.822 178.043 177.743C181.241 175.299 185.873 173.334 189.887 174.461C197.028 171.282 203.192 165.928 210.798 163.843C213.139 163.361 216.506 163.932 215.953 167.109C214.42 172.665 207.998 174.822 203.608 177.687C206.422 178.449 209.853 181.873 207.654 184.858C207.635 184.911 207.618 184.951 207.601 184.982C209.384 185.773 209.634 187.76 209.196 189.463C209.152 189.913 209.034 189.526 209.298 189.934C211.31 191.832 210.42 197.123 207.39 197.302C207.588 199.809 205.979 202.243 203.94 203.611C201.743 205.084 198.565 205.147 196.746 207.164C192.475 214.698 191.002 223.592 190.536 232.22C193.352 233.274 195.878 236.427 193.32 239.102C193.269 239.108 193.219 239.113 193.168 239.118C191.685 243.077 191.112 247.297 190.328 251.431C189.121 258.486 185.977 264.963 181.962 270.84C177.319 278.619 164.833 277.386 158.543 272.365C158.568 273.682 158.785 274.992 158.363 276.264C157.741 277.638 156.223 277.045 156.073 275.692C152.748 277.563 151.965 271.388 155.661 272.367C155.377 267.903 155.212 263.433 155.078 258.961C150.893 260.316 150.713 253.371 154.994 254.76L154.988 252.84C154.957 238.117 155.12 223.343 157.062 208.736C157.241 207.643 157.546 206.587 157.723 205.5C157.742 205.388 157.918 205.42 157.918 205.528C158.219 225.978 156.883 246.472 158.277 266.929C159.437 267.283 159.9 268.615 160.759 269.391C162.667 271.153 165.264 272.011 167.805 272.31C174.918 273.308 177.989 271.134 181.157 264.949C179.728 265.904 177.798 264.217 178.668 262.706L178.696 262.66C179.6 261.058 182.154 262.018 181.831 263.812C185.016 258.71 186.682 252.957 187.913 247.119L188.08 246.422C188.678 243.944 189.455 241.104 190.892 238.862C182.128 236.628 173.556 229.82 172.184 220.48C169.959 227.473 166.945 234.309 164.072 241.111C163.184 243.476 162.815 246.018 161.543 248.212C161.247 248.719 160.497 248.588 160.33 248.053C159.186 242.937 162.652 238.071 164.452 233.466C165.921 230.863 170.139 218.978 172.755 218.949C169.816 206.063 165.896 193.274 162.163 180.549C158.554 163.366 151.198 160.053 135.615 154.643C138.426 168.972 151.259 182.842 144.43 197.871L144.264 198.26C143.566 199.918 142.986 201.587 143.473 203.406C143.946 205.171 145.024 206.703 145.886 208.29C150.705 217.256 147.388 227.727 145.525 237.063C143.171 248.013 140.846 258.972 138.413 269.905C137.934 272.086 137.623 274.333 136.898 276.446C136.525 277.537 134.659 277.433 134.78 276.161C135.01 273.693 135.703 271.285 136.21 268.861C139.239 253.166 143.338 237.656 145.944 221.893C147.621 210.224 141.021 208.431 141.267 200.891C142.164 197.035 144.539 193.594 144.403 189.484C144.93 176.905 135.771 166.528 134.641 154.294L132.644 153.582C131.646 153.224 130.65 152.864 129.656 152.495C134.886 189.085 133.298 226.475 130.683 263.245C130.149 264.942 130.657 282.29 128.418 281.238C128.305 281.9 127.953 282.551 127.189 282.548C120.244 282.612 113.298 282.721 106.353 282.804C103.013 282.496 98.4218 283.772 95.5807 281.844C92.3003 280.908 91.9232 266.525 91.0462 263.357L90.7043 261.054C85.1302 223.41 80.1421 184.99 84.1488 146.974C78.5743 147.188 77.4237 153.207 77.0103 157.589C75.9765 167.261 69.7298 175.59 69.4302 185.373C69.4048 187.747 69.8527 190.046 70.8011 192.225C73.3173 197.565 77.669 203.737 74.4165 209.7C70.57 214.342 70.9029 215.564 72.3144 221.301C76.2856 240.266 82.8805 258.498 89.1541 276.783C87.791 283.89 79.5921 257.506 78.8208 255.516C75.1914 257.342 73.2089 251.283 77.3717 250.852C74.6979 241.899 72.2373 232.878 70.1886 223.759L70.1344 223.502C69.2294 219.288 67.4494 214.354 70.4552 210.617C78.2058 202.776 65.3348 194.012 66.9583 184.513C65.5564 185.553 63.4342 184.459 63.4661 182.713C63.4025 180.746 66.0429 179.739 67.3135 181.239C68.6198 173.533 73.1648 166.805 74.5401 159.121L74.6022 158.76C75.0683 156.045 75.1997 153.187 76.533 150.712C74.718 151.891 72.7851 152.845 70.7971 153.686C74.3517 156.656 67.4683 159.367 68.0379 154.778C48.5447 160.42 44.1387 168.288 36.9816 186.356C38.3185 185.057 40.6086 186.738 39.8083 188.396C39.1699 190.141 36.3848 189.631 36.3858 187.77L36.0596 188.548C31.7196 198.93 27.7695 209.563 25.7844 220.673C29.6785 220.123 28.687 226.349 25.1588 224.594C23.7429 234.474 23.7205 244.495 23.8936 254.455C27.1781 252.732 27.277 258.587 23.9252 256.918C24.0478 265.08 24.2274 273.242 24.3626 281.405C24.39 283.142 21.7112 283.134 21.6689 281.405C21.356 268.863 20.7858 256.298 21.0569 243.753C20.8019 221.978 27.0592 200.991 36.3824 181.486C44.6318 159.027 56.0267 156.472 76.9914 149.942C78.9267 147.069 83.0612 144.351 86.4345 146.155C88.3217 143.108 89.2802 139.497 90.6767 136.25ZM54.7577 214.525C54.8358 214.248 55.2309 214.318 55.2436 214.591C55.4189 218.114 55.2626 221.66 55.0217 225.198C54.8758 227.358 54.6964 229.516 54.5443 231.661C54.1408 237.321 53.8154 242.988 53.5682 248.658C53.6548 248.622 53.7436 248.59 53.8365 248.565C54.2633 248.449 54.6903 248.449 55.1168 248.565C55.4974 248.671 55.8301 248.857 56.1167 249.126L56.1774 249.184C56.4119 249.402 56.5788 249.66 56.676 249.958C56.8144 250.223 56.8845 250.506 56.8843 250.81L56.8828 250.886C56.8809 251.321 56.7732 251.725 56.5534 252.101C56.3401 252.462 56.0527 252.75 55.6915 252.965C55.3154 253.183 54.9117 253.291 54.4767 253.293C54.4302 253.297 54.3835 253.301 54.3372 253.304C54.0138 253.316 53.7119 253.249 53.4328 253.103L53.3908 253.09C53.2851 255.967 53.1985 258.845 53.1351 261.724C53.0781 264.232 53.002 266.741 52.9513 269.25L52.9278 270.505L52.8818 273.278C52.8669 274.419 52.8742 275.511 52.4866 276.587L52.4401 276.711C52.1612 277.429 51.9438 278.429 51.1976 278.828C50.602 279.147 49.7992 279.029 49.457 278.408C49.1696 277.888 49.4187 277.139 49.8436 276.789C49.8351 276.766 49.8225 276.744 49.8119 276.721C49.7464 276.531 49.6469 276.351 49.5879 276.159C49.4018 275.55 49.4527 274.901 49.4506 274.269C49.4506 273.154 49.4884 272.038 49.5182 270.924C49.5837 268.552 49.6598 266.183 49.7525 263.814C50.0665 255.866 50.6578 247.918 51.3351 239.993L51.5649 237.318C51.8711 233.761 52.1879 230.2 52.6365 226.661C52.6575 226.492 52.6788 226.323 52.702 226.153C52.4612 226.033 52.2372 225.866 52.0596 225.68C51.3478 224.932 50.9161 223.815 50.5113 222.852L50.4182 222.632C49.9788 221.605 49.5732 220.565 49.364 219.462L49.344 219.361C49.2486 218.891 49.0603 218.058 49.5584 217.831C49.8182 217.712 49.9828 217.797 50.0675 218.057C50.0783 218.09 50.0694 218.129 50.0506 218.158C50.2556 218.473 50.5767 218.767 50.7795 219.058L51.4737 220.051L51.8168 220.55C52.252 221.191 52.7168 221.804 53.1964 222.408C53.5744 219.754 54.0372 217.11 54.7577 214.525ZM83.2239 273.68C84.0922 272.999 85.5056 273.369 85.5056 274.625C85.5056 275.886 84.0901 276.25 83.2239 275.569L83.1807 275.537L83.1394 275.504C82.6677 275.135 82.6519 274.175 83.1037 273.775L83.1394 273.745C83.1666 273.722 83.1943 273.701 83.2239 273.68ZM45.4724 271.228C45.8653 271.228 46.2308 271.327 46.571 271.526C46.7189 271.638 46.8646 271.752 47.0125 271.866C47.2829 272.137 47.4689 272.458 47.5724 272.828L47.6508 273.407C47.6611 273.707 47.5998 273.986 47.4625 274.246C47.3738 274.517 47.2238 274.751 47.0125 274.948C46.8139 275.161 46.5815 275.312 46.3113 275.398C46.0729 275.524 45.8187 275.588 45.5469 275.588L45.4724 275.586C45.0775 275.586 44.7118 275.487 44.3717 275.288C44.2238 275.176 44.078 275.062 43.9301 274.948C43.6618 274.677 43.4738 274.356 43.3705 273.986C43.3449 273.794 43.3198 273.599 43.2921 273.407C43.2818 273.107 43.3449 272.828 43.4801 272.568C43.5689 272.297 43.7189 272.063 43.9301 271.866C44.1289 271.653 44.3611 271.503 44.6315 271.416C44.8697 271.29 45.1257 271.227 45.3978 271.226L45.4724 271.228ZM144.295 267.208L144.849 267.282C145.379 267.403 145.805 267.794 146.091 268.24C146.243 268.478 146.325 268.736 146.338 269.013C146.399 269.288 146.386 269.565 146.3 269.842C146.236 270.112 146.112 270.349 145.928 270.55C145.865 270.649 145.791 270.74 145.706 270.82C145.533 271.11 145.271 271.3 145.001 271.494C144.773 271.64 144.525 271.718 144.259 271.731C144.084 271.778 143.906 271.778 143.729 271.731C143.465 271.718 143.217 271.64 142.989 271.494C142.854 271.391 142.719 271.285 142.586 271.182C142.468 271.044 142.358 270.903 142.254 270.755C142.185 270.592 142.117 270.431 142.049 270.271C141.924 269.884 141.986 269.542 142.054 269.155C142.064 269.089 142.081 269.03 142.104 268.967L142.15 268.844C142.271 268.523 142.336 268.414 142.552 268.134L142.634 268.024C142.675 267.969 142.717 267.916 142.766 267.868C142.901 267.728 143.093 267.612 143.245 267.491C143.57 267.303 143.921 267.21 144.295 267.208ZM72.6372 265.856C72.9435 265.858 73.2311 265.934 73.497 266.088L73.8435 266.357C74.0548 266.57 74.2006 266.819 74.283 267.109C74.302 267.261 74.3233 267.413 74.3442 267.563C74.3527 267.798 74.3043 268.018 74.1963 268.223C74.1289 268.434 74.0104 268.616 73.8435 268.772C73.6895 268.937 73.5055 269.055 73.2942 269.125C73.1098 269.221 72.9115 269.272 72.7008 269.272L72.6372 269.271C72.3287 269.271 72.0414 269.193 71.7752 269.038L71.4287 268.772C71.2175 268.559 71.0717 268.307 70.9893 268.018C70.9703 267.866 70.9491 267.715 70.928 267.563C70.9196 267.329 70.9682 267.109 71.0759 266.906C71.1456 266.695 71.2618 266.511 71.4287 266.357C71.583 266.19 71.7668 266.071 71.978 266.004C72.1625 265.907 72.3572 265.857 72.5668 265.855L72.6372 265.856ZM58.6239 265.156C59.0652 265.152 59.5133 265.277 59.8746 265.532C60.2253 265.781 60.4913 266.05 60.6626 266.454C60.7091 266.564 60.7554 266.671 60.7957 266.781C60.9774 267.265 61.0112 267.751 60.7598 268.225C60.5168 268.683 59.9929 268.884 59.5237 269.021C59.1267 269.14 58.6767 269.159 58.2816 269.017C58.0851 268.948 57.8929 268.874 57.7154 268.766C57.3837 268.561 57.2042 268.318 56.9823 268.018C56.8091 267.722 56.7225 267.4 56.7225 267.058C56.7225 266.713 56.8091 266.395 56.9823 266.097C57.3223 265.515 57.9521 265.16 58.6239 265.156ZM36.2294 265.564C36.7874 265.564 37.2773 265.822 37.6134 266.257C37.9534 266.699 38.078 267.248 37.928 267.796C37.7696 268.375 37.2902 268.882 36.6963 269.028C36.2571 269.136 35.8977 269.132 35.4604 269.057C35.0907 268.994 34.8078 268.774 34.5245 268.546C34.2013 268.282 34.102 267.8 34.1548 267.411C34.2055 267.022 34.3853 266.769 34.6578 266.538L34.6597 266.532L34.5583 266.61C34.5965 266.576 34.6344 266.54 34.6726 266.504C34.6851 266.483 34.6956 266.46 34.7062 266.437C34.8625 266.171 35.0738 265.961 35.3379 265.805C35.6146 265.644 35.9104 265.564 36.2294 265.564ZM166.284 259.162C166.59 259.08 166.898 259.08 167.205 259.162C167.431 259.215 167.627 259.319 167.794 259.473C167.964 259.583 168.102 259.724 168.206 259.899L168.24 259.959C168.481 260.369 168.519 260.838 168.415 261.295C168.287 261.859 167.767 262.373 167.205 262.506L167.186 262.509L167.167 262.514C166.939 262.586 166.708 262.597 166.48 262.544C166.25 262.533 166.036 262.466 165.84 262.339C165.591 262.178 165.382 261.971 165.221 261.722C165.094 261.523 165.027 261.31 165.016 261.079C164.976 260.927 164.976 260.775 165.016 260.623C165.027 260.392 165.094 260.179 165.221 259.98L165.491 259.631L165.519 259.608C165.735 259.392 165.99 259.244 166.284 259.162ZM145.013 247.978C147.783 247.978 147.779 252.276 145.013 252.276C142.244 252.276 142.248 247.978 145.013 247.978ZM43.6089 247.434C43.9006 247.369 44.1922 247.381 44.4816 247.472C44.657 247.546 44.8302 247.62 45.0035 247.692L45.4471 248.035C45.5295 248.104 45.5697 248.18 45.6457 248.28L45.7408 248.404C45.8782 248.588 45.8815 248.627 46.0323 249.019C46.1337 249.396 46.1337 249.772 46.0323 250.148C45.9835 250.33 45.9098 250.501 45.8147 250.66C45.7278 250.812 45.6238 250.945 45.5067 251.068L45.4471 251.129C45.2485 251.342 45.014 251.492 44.7436 251.581C44.5725 251.681 44.3887 251.729 44.1922 251.729C43.9006 251.794 43.6089 251.782 43.3197 251.691C43.1443 251.617 42.9711 251.543 42.7976 251.471L42.3542 251.129L42.0119 250.685L41.9028 250.425L41.7922 250.163L41.714 249.582C41.7035 249.279 41.7647 249 41.9018 248.738C41.9547 248.554 42.0478 248.392 42.1828 248.256C42.2802 248.092 42.411 247.961 42.576 247.863C42.711 247.728 42.8739 247.635 43.0577 247.582C43.2288 247.483 43.4126 247.434 43.6089 247.434ZM180.599 244.363C180.829 244.355 181.045 244.403 181.244 244.509C181.313 244.533 181.381 244.562 181.446 244.596C181.702 244.746 181.905 244.949 182.055 245.203C182.177 245.397 182.245 245.606 182.256 245.832C182.301 246.036 182.297 246.241 182.242 246.445L182.224 246.507C182.177 246.674 182.108 246.828 182.015 246.969C182.006 246.986 181.996 247.003 181.983 247.018C181.841 247.242 181.653 247.426 181.421 247.563C181.163 247.711 180.887 247.787 180.587 247.789C179.989 247.789 179.473 247.466 179.158 246.969C179.114 246.9 179.089 246.811 179.057 246.739C179.029 246.671 178.985 246.585 178.962 246.507C178.882 246.206 178.882 245.906 178.962 245.606C179.014 245.386 179.114 245.194 179.264 245.031C179.384 244.847 179.543 244.702 179.739 244.596C179.983 244.454 180.245 244.378 180.523 244.365L180.599 244.363ZM63.6582 242.261C63.9508 242.181 64.2417 242.174 64.5323 242.242L64.6049 242.261C64.8371 242.315 65.038 242.421 65.2111 242.578C65.4033 242.704 65.5577 242.871 65.6695 243.078C65.8303 243.355 65.9106 243.655 65.9125 243.976C65.9106 244.298 65.8303 244.598 65.6695 244.875C65.5111 245.143 65.2977 245.355 65.0296 245.513L64.7972 245.625C64.6028 245.748 64.3958 245.813 64.1716 245.824C64.0218 245.864 63.8716 245.864 63.7239 245.824C63.5716 245.824 63.4301 245.786 63.2993 245.71C63.1556 245.67 63.0329 245.598 62.9273 245.492C62.7435 245.373 62.6 245.217 62.4944 245.021L62.323 244.617L62.2641 244.169L62.323 243.723L62.4162 243.503C62.5005 243.201 62.6528 242.939 62.8744 242.717C63.0963 242.497 63.3582 242.345 63.6582 242.261ZM168.43 238.695C168.738 238.598 169.045 238.585 169.351 238.653C169.558 238.653 169.753 238.706 169.932 238.811C170.129 238.866 170.298 238.963 170.441 239.107C170.693 239.27 170.889 239.485 171.035 239.754L171.267 240.306C171.407 240.663 171.356 241.189 171.272 241.548C171.202 241.844 171.067 242.102 170.866 242.322C170.765 242.493 170.63 242.628 170.458 242.73C170.263 242.908 170.037 243.035 169.781 243.11L169.711 243.129L169.685 243.135C169.681 243.137 169.677 243.137 169.672 243.137C169.67 243.14 169.666 243.14 169.664 243.14C169.563 243.165 169.459 243.18 169.351 243.184C169.045 243.252 168.738 243.239 168.43 243.142C168.249 243.066 168.065 242.987 167.881 242.909C167.725 242.791 167.57 242.67 167.414 242.55C167.294 242.394 167.173 242.237 167.053 242.083C166.884 241.819 166.793 241.531 166.78 241.225C166.725 241.02 166.725 240.817 166.78 240.612C166.78 240.403 166.833 240.21 166.936 240.031C167.03 239.743 167.188 239.496 167.414 239.287C167.57 239.166 167.725 239.046 167.881 238.927C168.065 238.849 168.249 238.771 168.43 238.695ZM33.6838 231.129C34.0026 231.042 34.3218 231.042 34.6408 231.129L35.0695 231.308C35.2807 231.422 35.4478 231.577 35.5746 231.773C35.7352 231.946 35.8427 232.152 35.8976 232.386C36.0225 232.707 36.0077 233.217 35.9084 233.544C35.7964 233.916 35.6232 234.212 35.3549 234.491C34.9091 234.952 34.2244 235.085 33.6183 234.946C33.4512 234.908 33.2927 234.834 33.149 234.743C32.6908 234.46 32.3823 233.965 32.3845 233.418C32.3845 233.358 32.3887 233.299 32.3971 233.24C32.3676 233.12 32.3568 232.995 32.3612 232.864L32.4246 232.386L32.4286 232.374C32.5133 232.071 32.6654 231.809 32.8871 231.587C33.092 231.384 33.331 231.237 33.6042 231.149L33.6732 231.129H33.6838ZM193.104 183.67C192.527 178.937 190.357 173.844 183.739 176.624L183.247 176.808C181.609 177.428 179.701 178.243 178.704 179.675C178.018 180.662 178.25 182.575 178.155 183.727C177.723 187.472 177.955 191.212 178.405 194.941C178.985 203.683 177.148 212.739 173.49 220.684C177.151 226.609 182.05 232.136 188.733 234.605C189.015 227.868 190.334 221.255 191.737 214.681L191.792 214.395C192.354 211.431 192.635 208.388 194.581 205.923C198.539 201.623 203.984 204.057 206.589 197.15C206.042 196.873 206.344 195.926 207.004 196.108C209.288 196.514 209.66 192.276 208.096 191.255C206.466 190.261 208.107 188.428 207.413 187.104C207.027 186.534 206.192 186.515 205.814 185.857C204.811 183.437 209.829 181.887 203.928 179.159C202.72 178.729 201.37 178.996 200.152 178.991C198.36 179.158 196.936 180.421 195.297 180.819C197.081 185.441 192.579 189.891 188.515 186.2C186.304 188.291 183.831 193.057 189.206 190.835C191.837 189.078 194.102 186.808 197.156 185.726L197.221 185.706C198.355 185.334 203.316 182.923 203.07 185.01C201.212 186.804 198.147 186.783 195.994 188.24C193.011 189.62 191.103 192.965 187.531 192.918C186.707 197.92 192.381 194.877 194.494 193.498L195.08 193.18C198.06 191.569 201.086 190.077 204.561 190.057C205.52 190.051 205.516 191.53 204.561 191.543C200.032 191.571 196.345 194.403 192.551 196.509C192.177 199.429 196.451 198.151 198.073 197.72C199.774 197.481 202.505 195.641 203.993 196.613C204.575 198.109 202.013 197.998 201.122 198.452C205.193 200.408 201.626 201.64 200.534 198.634L200.215 198.743C197.488 199.659 190.877 201.546 191.663 196.926C190.666 197.368 189.449 197.632 188.346 197.387C185.597 201.455 181.211 199.881 187.586 197.108C186.149 196.439 185.669 193.858 187.049 192.898C182.031 192.591 185.757 187.324 187.834 185.569C187.638 185.37 187.448 185.168 187.271 184.963C186.073 185.534 184.814 185.881 183.468 186.003C182.179 186.119 181.892 183.926 183.164 183.746C184.527 183.554 185.782 183.19 186.982 182.505C188.8 181.72 189.421 185.095 191.241 185.215C192.234 185.411 192.905 184.541 193.104 183.67ZM150.855 227.227C151.294 227.227 151.685 227.411 152.004 227.703C152.323 227.994 152.46 228.432 152.479 228.85C152.488 229.074 152.441 229.283 152.34 229.478C152.274 229.679 152.163 229.852 152.004 230C151.708 230.294 151.271 230.476 150.855 230.476C150.416 230.476 150.025 230.292 149.705 230C149.387 229.706 149.249 229.271 149.23 228.85C149.222 228.628 149.268 228.419 149.37 228.225C149.428 228.044 149.525 227.884 149.659 227.747L149.705 227.703C150.001 227.407 150.439 227.227 150.855 227.227ZM164.17 217.204L164.241 217.205C164.613 217.207 164.957 217.3 165.278 217.486C165.417 217.594 165.557 217.699 165.694 217.807C165.95 218.065 166.125 218.367 166.223 218.716C166.322 219.08 166.322 219.445 166.223 219.809C166.189 220.018 166.111 220.221 165.988 220.396C165.806 220.698 165.566 220.942 165.261 221.121C164.946 221.305 164.606 221.396 164.241 221.398C163.875 221.396 163.535 221.305 163.22 221.121C162.916 220.942 162.675 220.698 162.496 220.396C162.371 220.221 162.293 220.018 162.259 219.809C162.16 219.445 162.16 219.08 162.259 218.716C162.349 218.392 162.507 218.108 162.734 217.863L162.787 217.807C162.973 217.607 163.193 217.465 163.448 217.382C163.673 217.264 163.914 217.205 164.17 217.204ZM62.5511 217.317C62.7077 217.274 62.8619 217.274 63.0182 217.317C63.2506 217.327 63.468 217.397 63.6689 217.524C63.7873 217.617 63.9056 217.708 64.0239 217.799L64.127 217.923C64.3475 218.191 64.3531 218.237 64.5223 218.646C64.5922 218.875 64.6028 219.103 64.552 219.331C64.552 219.485 64.5119 219.629 64.4356 219.762C64.3936 219.908 64.3218 220.035 64.214 220.141C64.1378 220.269 64.0366 220.373 63.9075 220.449C63.7429 220.599 63.5485 220.703 63.3246 220.756L62.8701 220.817C62.8112 220.808 62.7499 220.8 62.6908 220.794C62.6195 220.791 62.5502 220.783 62.4824 220.77L62.4138 220.755L62.3513 220.739C62.2686 220.715 62.188 220.682 62.1098 220.641C61.9619 220.599 61.833 220.525 61.723 220.415C61.533 220.293 61.3809 220.128 61.2711 219.923L61.2415 219.855C61.2013 219.783 61.1675 219.709 61.142 219.629C61.0704 219.502 61.0344 219.367 61.0323 219.221C60.9903 219.027 60.9931 218.835 61.0434 218.643L61.0619 218.579L61.2246 218.192C61.3091 218.061 61.3978 217.928 61.5117 217.82C61.5803 217.759 61.7481 217.628 61.8425 217.562L61.9004 217.524C62.1013 217.397 62.3189 217.327 62.5511 217.317ZM39.8126 213.574C40.668 214.43 40.2901 216.002 39.0924 216.307L38.9548 216.34C37.7971 216.634 36.7534 215.588 37.0471 214.43L37.0809 214.295C37.3851 213.096 38.957 212.718 39.8126 213.574ZM182.089 204.52C182.08 204.401 182.232 204.359 182.308 204.429C183.327 205.342 183.975 206.437 185.211 207.145C186.454 207.855 187.734 207.798 189.029 208.256C189.468 208.413 189.47 209 189.029 209.154C186.578 210.011 182.275 207.109 182.089 204.52ZM66.9372 204.334C67.2099 204.249 67.4845 204.236 67.7571 204.298C67.943 204.298 68.116 204.344 68.2745 204.437C68.4498 204.486 68.6 204.575 68.7287 204.701C68.8831 204.792 69.0057 204.917 69.0984 205.071C69.2803 205.27 69.4029 205.502 69.466 205.769L69.5379 206.316L69.466 206.864C69.3963 207.026 69.3266 207.191 69.259 207.354L69.0702 207.61C68.9172 207.814 68.8927 207.816 68.5217 208.091C68.2853 208.241 68.0296 208.324 67.7571 208.335C67.5752 208.385 67.3935 208.385 67.2099 208.335C67.0261 208.335 66.8526 208.288 66.6923 208.195C66.5188 208.146 66.3669 208.058 66.2379 207.931C66.0141 207.785 65.8388 207.593 65.7097 207.354C65.64 207.191 65.5705 207.026 65.5029 206.864L65.4287 206.316L65.5029 205.769L65.5069 205.752C65.6041 205.409 65.7775 205.111 66.0266 204.86L66.4367 204.543C66.597 204.439 66.7639 204.387 66.9372 204.334ZM165.559 204.744C166.144 204.583 166.787 204.752 167.215 205.181C167.644 205.61 167.813 206.25 167.653 206.836C167.494 207.407 167.036 207.869 166.463 208.024C166.292 208.07 166.119 208.096 165.944 208.087C165.65 208.085 165.375 208.011 165.12 207.863L164.79 207.607C164.629 207.46 164.518 207.284 164.452 207.081C164.348 206.887 164.302 206.678 164.31 206.451L164.308 206.411C164.302 206.331 164.312 206.25 164.338 206.172C164.338 206.09 164.351 206.01 164.372 205.931C164.526 205.361 164.991 204.9 165.559 204.744ZM39.3985 199.02C39.5865 199.014 39.7619 199.052 39.9246 199.139C40.0957 199.194 40.2415 199.287 40.364 199.422C40.4992 199.544 40.5922 199.692 40.6471 199.861C40.7337 200.024 40.7717 200.2 40.7654 200.388C40.7654 200.635 40.702 200.865 40.5795 201.077C40.5077 201.17 40.4358 201.263 40.364 201.354C40.195 201.525 39.9943 201.641 39.7619 201.707L39.6267 201.753C39.4281 201.825 39.2337 201.829 39.0267 201.802C38.8091 201.772 38.6082 201.713 38.4309 201.578C38.2574 201.476 38.1203 201.339 38.0189 201.165L37.9027 200.891C37.8774 200.798 37.8668 200.658 37.8605 200.561C37.8605 200.546 37.8605 200.534 37.8584 200.519C37.8584 200.436 37.8837 200.236 37.9046 200.153C37.9513 199.98 38.0462 199.815 38.1541 199.675C38.2471 199.53 38.3739 199.416 38.5302 199.331L38.5441 199.32L38.5598 199.31C38.6082 199.276 38.6591 199.242 38.7098 199.206C38.921 199.084 39.1513 199.02 39.3985 199.02ZM148.495 197.52C148.833 197.52 149.148 197.606 149.439 197.775C149.45 197.779 149.46 197.784 149.469 197.788C149.748 197.953 149.97 198.175 150.135 198.454C150.304 198.743 150.388 199.056 150.388 199.39C150.388 199.726 150.304 200.037 150.135 200.326C149.97 200.606 149.748 200.827 149.469 200.992C149.46 200.999 149.45 201.003 149.439 201.007C149.148 201.176 148.833 201.261 148.495 201.263C148.159 201.261 147.844 201.176 147.553 201.007C146.982 200.673 146.625 200.05 146.625 199.39C146.625 198.731 146.982 198.107 147.553 197.775C147.844 197.606 148.159 197.52 148.495 197.52ZM60.7594 195.076L60.8169 195.075C61.0408 195.066 61.2498 195.112 61.442 195.216C61.6427 195.281 61.8181 195.394 61.9662 195.552L62.2746 195.81L62.3642 195.882C62.3789 195.895 62.3934 195.907 62.4075 195.92C62.6148 196.129 62.7563 196.374 62.8366 196.657C62.862 196.82 62.8829 196.981 62.9 197.143C62.9463 197.566 62.6972 198 62.4225 198.3C62.2746 198.458 62.0991 198.57 61.8965 198.638C61.7021 198.739 61.4908 198.786 61.2667 198.777C60.8082 198.737 60.3732 198.64 60.0437 198.285C60.0054 198.242 59.9695 198.198 59.9317 198.154L59.6676 197.849C59.4669 197.647 59.3273 197.408 59.2514 197.133C59.2301 196.987 59.2113 196.843 59.1923 196.7C59.173 196.266 59.3843 195.861 59.6676 195.552C59.9292 195.266 60.3728 195.092 60.7594 195.076ZM50.0951 190.625C52.2921 190.625 52.2879 194.035 50.0951 194.035C47.8998 194.035 47.9041 190.625 50.0951 190.625ZM160.563 185.846L160.632 185.847C160.996 185.849 161.336 185.94 161.651 186.124L162.06 186.439C162.31 186.692 162.483 186.988 162.58 187.331C162.603 187.51 162.627 187.69 162.652 187.867C162.663 188.146 162.603 188.406 162.477 188.647C162.396 188.897 162.257 189.114 162.06 189.298C161.877 189.495 161.661 189.634 161.41 189.715C161.169 189.841 160.909 189.901 160.632 189.89C160.267 189.888 159.927 189.797 159.612 189.613C159.475 189.507 159.339 189.402 159.202 189.298C158.972 189.064 158.807 188.794 158.708 188.485L158.684 188.406L158.611 187.867C158.6 187.591 158.659 187.331 158.786 187.09C158.866 186.838 159.006 186.623 159.202 186.439C159.386 186.242 159.603 186.102 159.853 186.022C160.073 185.906 160.31 185.846 160.563 185.846ZM150.667 179.464C150.863 179.458 151.045 179.498 151.216 179.587C151.391 179.644 151.543 179.743 151.672 179.88C151.945 180.098 152.112 180.533 152.112 180.886C152.112 181.239 151.945 181.675 151.672 181.892C151.495 182.068 151.286 182.19 151.045 182.258L150.667 182.309C150.299 182.326 149.925 182.134 149.663 181.892C149.61 181.844 149.56 181.795 149.507 181.749C149.268 181.529 149.165 181.201 149.15 180.886C149.143 180.72 149.18 180.563 149.255 180.417C149.304 180.265 149.389 180.136 149.507 180.024C149.56 179.978 149.61 179.929 149.663 179.88C149.949 179.616 150.282 179.483 150.667 179.464ZM213.367 168.096C214.755 166.404 213.947 165.2 211.86 165.618C208.267 166.105 204.885 168.377 201.72 170.006C198.265 171.831 194.705 173.337 191.181 175.052C192.635 175.944 193.717 177.343 194.543 178.938C196.192 177.685 198.299 177.086 200.357 177.008C204.09 173.432 210.272 172.613 213.367 168.096ZM49.3558 173.711C49.7322 173.713 50.0849 173.802 50.4153 173.978L50.4858 174.018L50.9379 174.368C51.1577 174.571 51.3119 174.812 51.4027 175.089C51.5422 175.355 51.6055 175.645 51.595 175.954C51.6055 176.262 51.5422 176.55 51.4027 176.816C51.3119 177.095 51.1577 177.334 50.9379 177.537C50.8133 177.699 50.6527 177.826 50.4605 177.919C50.2807 177.993 50.1034 178.069 49.9239 178.145C49.7232 178.209 49.4908 178.217 49.2732 178.228C48.8781 178.226 48.5107 178.126 48.168 177.928L47.7246 177.585C47.5112 177.386 47.3589 177.152 47.2701 176.879C47.1444 176.639 47.0807 176.383 47.0807 176.109L47.0823 176.034C47.0823 176.017 47.0823 175.998 47.0846 175.979C47.1098 175.78 47.1374 175.582 47.1645 175.383C47.2344 175.091 47.3675 174.835 47.5661 174.62C47.6168 174.518 47.6844 174.436 47.7713 174.368C48.0499 174.089 48.3793 173.899 48.7598 173.791C48.9584 173.766 49.157 173.738 49.3558 173.711ZM147.447 168.112C147.732 168.112 147.996 168.184 148.242 168.326C148.349 168.409 148.455 168.491 148.56 168.573C148.757 168.77 148.892 169.002 148.966 169.269L149.023 169.687C149.029 169.905 148.985 170.105 148.886 170.294C148.823 170.488 148.715 170.657 148.56 170.801C148.419 170.955 148.25 171.063 148.054 171.126C147.867 171.226 147.665 171.27 147.447 171.262C147.164 171.262 146.898 171.19 146.653 171.046C146.547 170.966 146.439 170.883 146.334 170.801C146.155 170.621 146.027 170.41 145.95 170.171L145.93 170.105L145.873 169.687C145.865 169.469 145.909 169.269 146.008 169.08C146.072 168.884 146.182 168.715 146.334 168.573C146.477 168.419 146.646 168.311 146.841 168.248C147.01 168.158 147.191 168.113 147.383 168.111L147.447 168.112ZM61.7043 165.822L61.778 165.823C62.1985 165.826 62.5893 165.931 62.9527 166.143C63.109 166.263 63.2656 166.384 63.4217 166.506C63.7111 166.796 63.9097 167.138 64.0219 167.533L64.1041 168.15C64.1168 168.472 64.0492 168.77 63.9034 169.047C63.8106 169.336 63.6499 169.585 63.4217 169.797C63.2128 170.023 62.9633 170.184 62.6738 170.277C62.3971 170.422 62.0992 170.49 61.778 170.477C61.3576 170.477 60.9668 170.372 60.6034 170.16C60.4473 170.04 60.2909 169.918 60.1325 169.797C59.8449 169.505 59.6463 169.163 59.5344 168.77L59.452 168.15C59.4393 167.831 59.5069 167.531 59.6527 167.254C59.7456 166.967 59.9062 166.715 60.1325 166.506C60.3437 166.278 60.5928 166.117 60.8823 166.024C61.1377 165.89 61.4112 165.823 61.7043 165.822ZM139.932 160.011C140.125 159.961 140.317 159.961 140.509 160.011C140.796 160.024 141.065 160.111 141.314 160.269L141.751 160.607C141.758 160.614 141.764 160.62 141.77 160.629C142.035 160.895 142.218 161.21 142.32 161.571L142.396 162.14C142.406 162.434 142.345 162.708 142.212 162.962C142.133 163.206 142.002 163.418 141.821 163.601L141.751 163.67C141.555 163.881 141.324 164.031 141.056 164.118C140.887 164.217 140.703 164.266 140.509 164.266C140.222 164.331 139.932 164.319 139.645 164.228C139.474 164.154 139.3 164.082 139.127 164.01L139.072 163.978C138.42 163.621 138.016 162.873 138.016 162.14C138.016 161.406 138.42 160.656 139.072 160.299C139.092 160.29 139.108 160.28 139.127 160.269C139.377 160.111 139.645 160.024 139.932 160.011Z" fill="black"/>
<path fill-rule="evenodd" clip-rule="evenodd" d="M113.465 60.2715C145.197 61.2786 147.11 76.3884 147.11 101.728C147.11 127.068 130.65 143.036 124.588 145.824C118.527 148.612 102.567 160.588 88.1646 155.069C73.7617 149.55 77.9326 126.234 77.9326 116.215C77.9326 106.197 81.7338 59.2644 113.465 60.2715Z" fill="#FDC6A0"/>
<path fill-rule="evenodd" clip-rule="evenodd" d="M82.7954 100.485C89.3563 73.6655 101.334 60.5802 118.727 61.2295C144.817 62.2035 144.542 88.8624 142.905 86.4317C141.836 84.8436 134.349 79.2959 120.444 69.7885L119.584 69.2015L82.7954 100.485Z" fill="#9FD8E5"/>
<path fill-rule="evenodd" clip-rule="evenodd" d="M126.338 137.502C120.51 140.763 113.838 140.89 107.57 138.837C103.811 137.61 100.364 135.712 97.1387 133.442C94.3327 131.465 91.8281 129.274 89.3467 126.947C87.3039 122.43 85.4847 117.922 84.6327 113.008C83.8696 108.597 83.7684 104.017 84.6538 99.615C91.2022 94.215 97.7102 88.7706 104.21 83.3095C107.52 80.528 110.838 77.7616 114.196 75.0392C115.902 73.657 117.591 72.2536 119.29 70.865C119.57 70.6368 119.849 70.4085 120.129 70.1802C123.637 72.7545 127.398 74.9612 130.881 77.5775C132.704 78.9492 134.477 80.4096 136.166 81.9459C137.051 82.7514 137.916 83.582 138.759 84.4337C139.531 85.2117 140.275 86.3274 141.369 86.6214C141.519 86.6613 141.66 86.6698 141.793 86.6508C143.256 99.4924 144.295 113.359 138.028 125.021C135.293 130.109 131.416 134.657 126.338 137.502ZM88.4299 142.221C87.6275 141.484 88.8232 140.292 89.6223 141.025C94.6411 145.634 101.202 148.077 107.83 149.208C108.899 149.391 108.443 151.02 107.381 150.838C100.462 149.658 93.6612 147.025 88.4299 142.221ZM82.4075 149.292C81.4495 148.777 82.3023 147.318 83.2586 147.832C87.1687 149.935 91.4575 151.027 95.8076 151.765C96.8775 151.946 96.4211 153.575 95.3594 153.395C90.8615 152.632 86.4479 151.465 82.4075 149.292ZM98.3214 78.0617C101.566 75.1428 105.053 72.3654 108.736 70.0217C112.463 67.6504 116.534 66.2322 120.934 66.1984C120.626 66.4457 120.333 66.7204 120.036 66.976C119.206 67.6884 118.377 68.4049 117.548 69.1193C115.891 70.5501 114.23 71.9786 112.594 73.4329C109.373 76.2988 106.141 79.15 102.926 82.0222C96.7466 87.5427 90.7004 93.1834 84.7845 98.9873C84.8164 98.8457 84.8501 98.7041 84.8836 98.5627C86.8422 90.3621 92.1696 83.5968 98.3214 78.0617ZM123.755 66.5556C123.776 66.4922 123.791 66.4307 123.799 66.3717C132.243 67.475 139.295 73.7032 141.626 81.9038C141.424 82.1871 141.312 82.5231 141.354 82.8801C141.375 83.0599 141.397 83.2417 141.418 83.4213C141.129 83.1341 140.832 82.8655 140.579 82.6098C139.737 81.7559 138.875 80.9251 137.99 80.1156C136.179 78.461 134.298 76.9139 132.316 75.4703C128.87 72.9595 125.138 70.6516 121.029 69.4469C121.299 69.2249 121.569 69.003 121.841 68.7832C122.652 68.1215 123.405 67.5764 123.755 66.5556ZM138.892 57.7867C133.708 52.1077 126.529 47.9483 118.97 46.5027C111.751 45.1204 104.277 46.0314 97.4572 48.7176C83.1865 54.3395 71.9265 66.7016 66.6539 81.0267C63.5801 89.373 62.5723 98.5223 63.496 107.357C64.4149 116.151 67.0565 125.233 71.8633 132.715C72.3039 133.4 72.7867 134.057 73.2926 134.693C73.0671 137.275 72.2069 139.807 70.8534 142.01C70.7807 142.128 70.704 142.243 70.6281 142.36C69.2421 143.4 67.8045 144.376 66.4011 145.384C65.1848 146.258 63.9811 147.154 62.8373 148.121C61.7577 149.034 60.504 150.051 59.773 151.284C59.1741 152.293 58.9295 153.666 59.7471 154.629C60.7323 155.789 62.4016 155.38 63.7361 155.38C63.8503 155.38 63.9644 155.383 64.0785 155.384C64.4792 155.636 64.892 155.865 65.2919 156.077C69.3334 158.225 73.3896 160.349 77.45 162.462C85.5374 166.674 93.5908 171.056 101.844 174.934C105.669 176.732 109.763 178.305 114.047 178.299C118.065 178.292 121.697 176.692 124.834 174.26C128.41 171.489 131.4 167.97 134.3 164.521C135.46 163.14 136.596 161.744 137.711 160.327C139.853 159.611 141.978 159.402 143.888 160.784C145.421 161.894 147.441 160.385 147.477 158.719C147.489 158.128 147.464 157.544 147.401 156.969C147.017 153.418 145.284 150.206 143.332 147.226C142.265 145.596 141.142 143.996 140.011 142.411C139.746 142.037 139.484 141.663 139.231 141.282C143.77 134.583 147.371 127.154 149.585 119.391C151.91 111.222 152.701 102.751 152.182 94.2869C151.385 81.3142 147.835 67.5849 138.892 57.7867Z" fill="black"/>
<path fill-rule="evenodd" clip-rule="evenodd" d="M128.319 128.112C126.763 128.563 125.092 128.603 123.506 128.137C122.067 127.715 120.589 126.785 119.53 125.555C118.59 124.462 117.98 123.134 118.004 121.717C118.007 121.555 118.065 121.42 118.154 121.315C118.25 121.202 118.383 121.124 118.527 121.091C118.674 121.056 118.83 121.068 118.963 121.129C119.083 121.183 119.186 121.276 119.25 121.412C119.413 121.626 119.575 121.836 119.738 122.041C121.047 123.658 122.314 124.866 124.282 125.299C125.349 125.534 126.416 125.43 127.394 125.071C128.441 124.687 129.388 124.012 130.13 123.148C130.465 122.757 130.861 122.598 131.248 122.595C131.686 122.592 132.12 122.796 132.447 123.122C132.768 123.442 132.983 123.878 133.002 124.333C133.019 124.732 132.889 125.15 132.542 125.522C131.4 126.749 129.92 127.648 128.319 128.112ZM128.271 107.866C129.866 108.836 132.297 111.098 130.581 113.503C128.561 115.624 125.652 113.193 124.219 112.093C122.89 111.241 121.396 113.433 122.63 114.428C132.987 122.099 137.19 108.12 129.078 106.726C128.185 106.572 127.853 107.566 128.271 107.866ZM113.347 103.598C112.834 103.27 112.231 103.157 111.563 103.461C111.04 103.699 110.124 104.491 109.486 105.533C109.05 106.245 108.741 107.081 108.805 107.952C108.82 108.154 108.745 108.303 108.628 108.413C108.535 108.5 108.4 108.564 108.242 108.584C108.108 108.601 107.958 108.586 107.836 108.548C107.604 108.475 107.482 108.325 107.435 108.202C106.989 107.016 107.181 105.692 107.682 104.498C108.357 102.886 109.583 101.536 110.387 101.101C111.761 100.356 113.383 100.322 114.76 101.081C115.932 101.727 116.665 102.77 117.394 103.833C117.549 104.059 117.703 104.283 117.862 104.504C118.18 104.945 118.212 105.383 118.088 105.759C117.952 106.175 117.603 106.526 117.168 106.71C116.765 106.88 116.298 106.903 115.884 106.729C115.535 106.581 115.214 106.294 115.011 105.807C114.669 104.985 114.1 104.079 113.347 103.598V103.598ZM139.389 105.425C139.038 105.608 138.763 105.663 138.374 105.546C138.158 105.481 137.945 105.357 137.779 105.19C137.613 105.025 137.494 104.82 137.448 104.592C137.334 104.029 137.026 103.502 136.588 103.159C136.213 102.865 135.74 102.71 135.215 102.798C134.649 102.892 134.109 103.256 133.738 103.684C133.613 103.827 133.516 103.99 133.418 104.152C133.235 104.454 133.057 104.735 132.805 104.957C132.709 105.042 132.565 105.1 132.425 105.1C132.368 105.1 132.311 105.091 132.256 105.074C131.692 104.508 131.584 104.079 131.602 103.653C131.621 103.206 131.797 102.754 132.081 102.332C132.748 101.343 134.015 100.531 134.87 100.348C136.04 100.096 137.203 100.398 138.135 101.052C139.094 101.725 139.804 102.77 140.026 103.947C140.079 104.231 140.056 104.537 139.948 104.802C139.843 105.062 139.659 105.284 139.389 105.425ZM115.929 93.0475C115.226 93.7322 114.395 93.8382 113.554 93.9325C113.086 93.9855 112.713 94.0281 112.346 94.111C111.337 94.3388 110.34 94.682 109.43 95.1763C108.478 95.693 107.442 96.3162 106.696 97.1145C106.518 97.3044 106.351 97.5037 106.184 97.7035C106.031 97.8857 105.884 98.061 105.729 98.2301C105.551 98.4243 105.382 98.6279 105.214 98.8309C105.11 99.0022 105.09 99.0444 105.069 99.0882C105.037 99.1541 105 99.2279 104.959 99.307C104.901 99.4154 104.834 99.534 104.764 99.6416C104.647 99.8382 104.584 99.8923 104.53 99.9165C104.44 99.9566 104.355 99.9764 104.272 99.9657C104.194 99.9557 104.121 99.9184 104.049 99.8573C103.688 99.5525 103.582 99.0522 103.593 98.5212C103.609 97.7153 103.906 96.8232 104.18 96.2747C104.817 95.0003 105.7 93.6755 106.762 92.7244C107.974 91.6387 109.3 90.8168 110.823 90.2504C111.769 89.8983 112.865 89.5751 113.896 89.6159C114.638 89.6453 115.346 89.866 115.931 90.4171C116.29 90.7554 116.463 91.2366 116.463 91.7175C116.463 92.208 116.284 92.7013 115.929 93.0475ZM140.818 99.3172C140.773 99.3904 140.711 99.4409 140.642 99.4712C140.57 99.503 140.49 99.5122 140.413 99.4991C140.336 99.4862 140.263 99.4513 140.205 99.398C140.149 99.3469 140.107 99.2791 140.088 99.1961C139.621 97.1469 138.716 95.6223 136.783 94.6392C135.832 94.1555 134.739 93.8482 133.704 93.6032C133.403 93.532 133.085 93.4859 132.765 93.4392C131.762 93.2926 130.752 93.1248 130.098 92.3137C129.704 91.8251 129.538 91.2003 129.632 90.6288C129.72 90.0908 130.034 89.5974 130.606 89.3018C132.028 88.5661 133.795 89.288 135.232 89.903C135.338 89.9486 135.443 89.9934 135.545 90.0366C136.95 90.6297 138.231 91.4127 139.284 92.5323C140.12 93.4206 140.894 94.7338 141.206 96.0847C141.465 97.2085 141.404 98.3559 140.818 99.3172Z" fill="black"/>
<path fill-rule="evenodd" clip-rule="evenodd" d="M143.095 111.465C139.925 112.993 135.501 110.74 133.369 108.379C132.593 107.52 131.995 105.061 132.293 103.502C133.102 99.2791 136.14 96.7446 139.347 95.8791C143.793 94.6791 148.267 97.7192 147.745 101.307C147.251 104.707 146.502 109.638 143.095 111.465M121.514 103.353C121.26 107.955 117.566 111.983 113.15 113.177C106.036 115.163 102.52 110.16 100.928 104.77C100.769 104.235 100.397 102.6 101.395 101.198C105.321 95.6828 114.873 96.6229 119.644 98.137C121.041 99.4729 121.612 101.401 121.514 103.353M146.54 95.4154C146.538 95.4182 146.536 95.4205 146.534 95.4233C146.517 95.4133 146.501 95.4032 146.485 95.3935C146.503 95.4011 146.522 95.4076 146.54 95.4154M152.493 95.9474C152.079 91.2618 137.383 93.0559 135.665 93.44C130.975 94.8196 126.925 98.5732 121.682 96.9232C116.25 90.8653 97.9567 92.6026 94.1217 95.6885C93.3958 95.4036 92.5131 95.5564 91.5779 95.8253C86.7749 95.6517 64.8487 97.3081 69.3335 103.44C70.0142 103.913 70.6943 103.432 70.7131 102.459C94.0926 94.0163 91.8263 101.924 94.599 101.001C95.0224 101.123 95.4641 101.2 95.8505 101.281C97.9966 101.972 98.7253 101.758 99.0079 104.168C100.95 122.778 125.722 116.355 123.691 101.09C125.702 100.98 127.462 100.11 129.589 100.959C131.066 115.339 142.633 115.919 146.114 110.934C148.739 107.475 147.698 102.253 151.307 99.5317C152.731 100.724 152.823 96.6996 152.493 95.9474" fill="black"/>
</g>
<defs>
<clipPath id="clip0_2016_14178">
<rect width="200" height="267" fill="white"/>
</clipPath>
</defs>
</svg>
