<svg width="200" height="267" viewBox="0 0 200 267" fill="none" xmlns="http://www.w3.org/2000/svg">
<g clip-path="url(#clip0_2016_14164)">
<rect width="200" height="267" fill="white"/>
<path fill-rule="evenodd" clip-rule="evenodd" d="M161.079 176.597C159.237 169.454 157.544 166.425 154.272 163.942C151.213 161.62 146.746 159.669 140.229 158.244C133.441 157.057 133.249 153.528 131.547 147.857C131.05 146.152 128.59 145.698 127.528 146.927C127.378 146.766 127.222 146.618 127.06 146.484C127.205 145.671 126.021 143.34 126.061 142.562C126.474 134.444 123.819 130.367 117.192 128.852C115.751 128.522 105.963 128.328 104.557 128.716C98.4147 130.415 92.3676 135.808 93.293 142.305C91.3648 144.826 89.4776 146.364 86.5027 147.176C81.8701 147.765 84.1973 213.41 92.2432 252.739C95.6953 269.613 178.24 240.892 174.51 232.441C175.039 230.892 174.075 229.189 174.51 227.59C174.825 226.432 175.631 225.953 176.037 224.807C176.608 223.194 175.987 221.029 175.344 219.383C175.08 218.563 175.829 217.68 176.037 216.843C177.023 212.894 174.764 213.242 173.136 210.602C173.16 210.594 173.584 208.71 173.582 208.719C173.831 207.374 173.206 205.65 172.662 204.527C172.293 203.768 171.504 203.293 170.721 203.38C171.51 200.7 172.508 198.47 173.582 195.887C175.48 191.336 177.286 186.574 180.012 182.455C181.128 180.768 180.226 179.216 178.42 179.101C172.572 178.729 166.789 177.887 161.079 176.597Z" fill="#FDC6A0"/>
<path fill-rule="evenodd" clip-rule="evenodd" d="M151.95 177.149L138.603 199.744C138.603 199.744 141.769 200.061 143.051 200.676C144.332 201.292 150.216 208.774 150.216 208.774L151.151 212.894L148.935 216.216L149.799 218.301C149.799 218.301 150.416 216.888 151.95 215.791C153.485 214.695 156.869 212.894 156.869 212.894C156.869 212.894 155.745 212.292 155.745 211.586C155.745 210.879 154.754 207.865 156.869 206.726C158.984 205.588 169.915 202.923 169.915 202.923L180.993 179.549L151.95 177.149Z" fill="#EC7495"/>
<path fill-rule="evenodd" clip-rule="evenodd" d="M92.4066 147.33L134.79 154.77L154.273 163.942L157.453 166.393L138.603 199.744L109.496 205.056L102.081 224.323L103.594 246.04L150.945 240.393L171.37 237.966L176.171 257.354L175.304 265.33L174.042 269.375L123.408 283.049C123.408 283.049 97.6239 280.549 93.0533 280.549C88.4827 280.549 54.9717 283.878 54.9717 283.878L47.2182 283.049C47.2182 283.049 30.0636 264.964 27.4029 258.527C24.7423 252.091 18.9888 212.965 18.9888 212.965L19.6223 206.953L34.4435 168.801C34.4435 168.801 36.4227 167.003 38.9179 163.942C41.4131 160.881 92.4066 147.33 92.4066 147.33Z" fill="#9DDADB"/>
<path fill-rule="evenodd" clip-rule="evenodd" d="M169.116 202.441C165.286 202.636 161.451 203.547 157.986 205.197C156.569 205.873 155.284 206.85 154.908 208.456C154.718 209.276 154.765 210.124 154.866 210.952C154.942 211.58 154.961 212.381 155.506 212.806C155.599 212.877 155.698 212.932 155.802 212.973C154.524 213.55 153.307 214.243 152.225 214.957C151.236 215.61 150.22 216.616 149.764 217.751C149.726 217.622 149.688 217.502 149.65 217.388C148.872 215.088 147.675 213.205 145.788 211.939C145.574 211.158 143.274 207.797 141.139 207.924C138.8 208.061 136.919 208.232 134.804 209.308C134.033 209.291 133.264 209.301 132.503 209.335C132.372 209.339 132.379 209.517 132.503 209.532C133.12 209.61 133.737 209.697 134.354 209.798C135.82 210.033 137.282 210.331 138.712 210.701C140.428 211.145 142.203 211.59 143.806 212.366C146.916 213.873 148.841 217.813 148.446 221.241C148.38 221.803 148.163 223.502 147.383 223.327C146.724 223.179 146.462 221.803 146.232 221.293C145.615 219.941 144.503 219.057 143.17 218.459C141.605 217.755 139.929 217.28 138.307 216.726C137.388 216.411 136.469 216.096 135.548 215.784C134.605 215.46 133.71 215.014 132.706 215.24C132.1 215.378 132.03 216.101 132.37 216.515C132.888 217.147 133.657 217.333 134.403 217.593C135.387 217.935 136.37 218.278 137.352 218.62C138.871 219.148 140.462 219.594 141.943 220.241L141.896 220.347C141.776 220.313 141.634 220.433 141.658 220.581C141.879 221.949 142.188 223.53 141.845 224.899C141.575 225.985 140.622 227.188 139.384 226.869C139.579 226.691 139.651 226.385 139.52 226.102C139.029 225.053 132.607 220.915 132.034 222.452C132.015 222.507 132.074 222.547 132.121 222.539C132.609 222.437 133.427 223.27 133.817 223.534C134.381 223.914 134.954 224.286 135.512 224.677C136.122 225.104 136.718 225.552 137.299 226.015C137.755 226.379 138.1 226.757 138.624 226.941C138.349 227.072 138.131 227.315 138.039 227.625C137.802 228.435 137.346 229.122 136.553 229.479C135.723 229.851 134.787 229.616 133.913 229.708C132.721 229.828 131.682 230.394 130.813 231.204C128.99 232.907 128.075 235.909 125.525 236.714C124.002 237.194 122.312 236.891 120.77 236.673C119.048 236.43 117.37 236.238 115.636 236.492C113.975 236.735 112.405 237.31 110.889 238.011C109.467 238.669 107.895 239.413 106.634 240.393C106.374 239.592 106.112 238.8 105.913 237.982C105.444 236.048 105.191 234.078 105.129 232.091C105.072 230.2 105.178 228.3 105.34 226.417C105.421 225.476 105.548 224.54 105.628 223.599C105.649 223.363 105.691 223.109 105.723 222.856C107.975 221.526 110.341 220.507 112.726 219.459C112.733 219.457 112.739 219.453 112.746 219.451C112.82 219.417 112.891 219.385 112.965 219.353C112.963 219.349 112.961 219.345 112.957 219.341C113.229 219.174 113.42 218.952 113.534 218.702C116.971 216.422 119.844 213.309 121.986 209.678C122.884 208.156 123.748 206.577 124.923 205.244C126.174 203.821 127.659 202.976 129.497 202.536C131.646 202.021 133.86 201.712 136.061 201.536C137.263 201.442 138.607 201.293 139.917 201.3C140.829 201.306 141.723 201.384 142.543 201.61C143.758 201.944 144.467 202.868 145.23 203.802C145.959 204.698 146.684 205.597 147.364 206.531C148.008 207.416 148.617 208.331 149.145 209.291C149.462 209.866 149.755 210.458 150.003 211.068C150.089 211.284 150.203 211.529 150.256 211.753C150.309 211.979 150.212 212.218 150.465 212.218C149.42 212.233 148.725 214.842 149.764 214.78C151.225 214.695 151.96 212.942 151.674 211.387C151.163 208.613 148.404 205.262 147.858 204.552C146.652 202.984 145.408 200.938 143.477 200.209C143.449 200.199 143.42 200.188 143.392 200.18C143.954 199.647 144.398 199.009 144.822 198.36C145.26 197.692 145.781 196.927 145.925 196.134C146.016 195.629 145.389 195.342 145.091 195.783C144.658 196.428 144.448 197.244 144.125 197.952C143.796 198.671 143.394 199.349 143.077 200.074C142.315 199.839 141.491 199.732 140.652 199.696C141.71 198.263 143.519 195.498 143.736 195.143C144.738 193.499 145.691 191.804 146.601 190.107C147.586 188.268 148.429 186.353 149.371 184.493C149.905 183.439 150.444 182.375 151.038 181.352C151.243 181.002 151.463 180.651 151.712 180.332C151.76 180.268 151.822 180.216 151.879 180.156C151.944 180.12 152.012 180.08 152.05 180.059C152.392 179.863 152.513 179.406 152.753 179.116C153.138 178.65 153.59 178.595 154.169 178.588C155.402 178.575 156.641 178.624 157.872 178.658C159.683 178.708 161.491 178.78 163.3 178.875C163.847 178.905 164.392 178.935 164.939 178.968C167.57 179.125 170.198 179.33 172.82 179.582C175.139 179.803 177.459 180.165 179.781 180.338C176.637 187.809 173.151 195.145 169.205 202.226C169.165 202.297 169.135 202.369 169.116 202.441ZM151.674 221.689C151.167 221.921 150.675 222.211 150.216 222.541C150.292 222.027 150.311 221.486 150.29 220.943C150.668 221.348 151.152 221.581 151.674 221.689ZM173.318 208.837C173.282 208.841 173.248 208.86 173.232 208.896C172.53 210.343 172.824 211.96 173.969 213.095C174.569 213.687 175.877 214.355 175.834 215.327C175.798 216.113 174.943 216.773 174.577 217.422C174.237 218.026 174.11 218.69 174.383 219.345C174.732 220.184 175.705 220.518 176.039 221.342C176.462 222.388 175.775 223.65 175.294 224.561C174.846 225.404 174.267 226.247 173.882 227.139C171.307 228.473 165.463 230.895 164.76 231.031C163.902 231.197 163.042 231.356 162.18 231.504C160.526 231.791 158.867 232.058 157.205 232.292C156.258 232.425 155.31 232.556 154.361 232.66C153.533 232.749 152.599 232.869 151.932 232.246C150.586 230.986 151.34 228.875 152.191 227.602C152.208 227.577 152.208 227.554 152.202 227.533C153.005 227.344 153.805 227.125 154.604 226.97C156.14 226.674 157.686 226.425 159.235 226.203C162.417 225.749 165.62 225.449 168.818 225.147C169.61 225.07 169.619 223.824 168.818 223.897C164.223 224.318 159.605 224.717 155.071 225.603C153.934 225.823 152.806 226.072 151.684 226.353C151.154 226.484 150.586 226.689 150.03 226.696C149.996 226.696 149.962 226.696 149.929 226.693C148.841 226.66 148.682 225.728 149.28 224.952C149.354 224.857 149.43 224.762 149.508 224.671C150.565 223.411 151.881 222.57 153.237 221.699C154.756 221.492 156.271 221.031 157.758 220.693C161.43 219.856 165.102 219.019 168.776 218.184C169.496 218.02 169.19 216.912 168.47 217.075C165.681 217.707 162.892 218.339 160.103 218.971L156.022 219.897C155.206 220.08 154.188 220.45 153.229 220.584C152.755 220.649 152.297 220.657 151.883 220.56C150.546 220.243 150.478 218.571 151.055 217.578C151.701 216.462 152.922 215.765 154.006 215.133C155.884 214.036 157.883 213.247 159.835 212.339C160.182 212.262 160.528 212.186 160.875 212.11C162.89 211.666 165.193 211.449 167.09 210.635C167.658 210.394 167.348 209.498 166.786 209.511C165.313 209.543 163.773 210.067 162.334 210.377C160.777 210.715 159.218 211.051 157.661 211.387C157.505 211.421 156.579 211.717 156.44 211.652C156.351 211.609 156.32 211.301 156.29 211.098C156.195 210.43 156.125 209.729 156.229 209.058C156.457 207.556 157.71 206.85 158.977 206.273C161.8 204.99 164.895 204.187 167.975 203.865C168.685 203.792 169.395 203.745 170.109 203.722C170.948 203.696 171.639 203.548 172.063 204.375C172.731 205.677 173.098 207.351 173.318 208.837ZM169.398 256.04C168.783 253.913 168.951 251.641 168.529 249.47C168.312 248.351 168.015 247.24 167.691 246.147C167.43 245.264 166.993 244.324 166.944 243.403C166.941 243.341 167.013 243.306 167.063 243.334C167.931 243.831 168.597 244.906 169.092 245.749C169.684 246.758 170.137 247.815 170.502 248.926C171.229 251.14 171.826 253.81 170.888 256.04C170.609 256.705 169.629 256.837 169.398 256.04ZM145.397 272.149C144.48 271.509 143.812 270.615 143.035 269.825C142.271 269.049 143.466 267.853 144.23 268.63C144.893 269.303 145.469 270.144 146.249 270.689C146.625 270.951 146.799 271.424 146.553 271.845C146.335 272.217 145.771 272.41 145.397 272.149ZM140.286 247.559C141.959 246.835 143.604 246.047 145.355 245.526C146.401 245.214 146.844 246.846 145.804 247.156C144.192 247.636 142.679 248.352 141.139 249.019C140.15 249.446 139.29 247.989 140.286 247.559ZM122.617 247.052C122.208 246.043 123.844 245.607 124.247 246.603C124.711 247.749 125.243 248.866 125.707 250.011C126.116 251.021 124.481 251.457 124.078 250.461C123.613 249.315 123.081 248.199 122.617 247.052ZM105.178 267.219C104.906 267.583 104.451 267.78 104.022 267.523C103.662 267.307 103.443 266.734 103.719 266.366C104.524 265.292 105.34 264.231 106.285 263.273C107.05 262.497 108.245 263.693 107.48 264.469C106.637 265.324 105.898 266.26 105.178 267.219ZM102.685 154.064C103.46 154.594 104.14 155.238 104.803 155.901C105.573 156.671 104.378 157.867 103.607 157.096C103.049 156.538 102.486 155.971 101.832 155.524C101.454 155.266 101.284 154.786 101.528 154.367C101.747 153.993 102.308 153.807 102.685 154.064ZM128.056 181.273C127.617 182.151 127.223 183.013 127.198 184.011C127.171 185.099 125.481 185.1 125.508 184.011C125.54 182.704 126.022 181.571 126.597 180.419C127.083 179.444 128.54 180.302 128.056 181.273ZM137.365 159.421C138.274 158.815 139.119 160.28 138.218 160.881C137.488 161.367 136.758 161.855 136.028 162.342C135.119 162.947 134.274 161.482 135.174 160.881C135.905 160.395 136.635 159.908 137.365 159.421ZM96.9884 197.627C96.8334 198.702 95.2049 198.242 95.3585 197.178C95.5962 195.533 95.8863 193.91 96.3322 192.308C96.6242 191.26 98.2541 191.708 97.962 192.758C97.516 194.36 97.2259 195.983 96.9884 197.627ZM91.0626 216.995C89.9748 216.972 89.9746 215.281 91.0626 215.304C92.0471 215.325 93.0149 215.584 93.9646 215.822C95.0209 216.086 94.5705 217.716 93.5152 217.452C92.7124 217.251 91.895 217.013 91.0626 216.995ZM88.8751 256.01C88.5014 256.192 88.1179 256.356 87.7402 256.529C86.9837 256.875 86.2275 257.222 85.4716 257.569C83.8968 258.292 82.3229 259.018 80.7504 259.746C77.6025 261.203 74.4303 262.61 71.2748 264.052C68.057 265.522 64.8477 267.012 61.6423 268.51C60.1322 269.215 58.6106 269.895 57.092 270.581C55.7936 271.169 54.1886 272.195 52.7632 272.292C52.6898 272.297 52.6653 272.204 52.7072 272.156C53.2457 271.544 54.1047 271.187 54.8125 270.789C55.5354 270.382 56.2719 269.999 57.005 269.611C58.5333 268.801 60.0635 267.997 61.6066 267.216C64.6932 265.653 67.7858 264.102 70.8789 262.553C74.0336 260.972 77.1842 259.382 80.3665 257.857C81.8649 257.14 83.3646 256.424 84.8653 255.711C85.6782 255.325 86.4916 254.939 87.305 254.554C87.6563 254.388 88.0041 254.208 88.3632 254.059C88.8405 253.862 89.2032 253.902 89.6955 253.78C90.4983 253.582 90.8458 254.603 90.2296 255.048C89.7221 255.414 89.4551 255.727 88.8751 256.01ZM77.592 273.348C77.4185 272.926 77.7817 272.413 78.1822 272.308C78.662 272.181 79.0468 272.473 79.2219 272.898C79.6852 274.026 80.3452 275.06 81.1947 275.934C81.954 276.715 80.7595 277.911 79.9996 277.13C78.935 276.034 78.1702 274.754 77.592 273.348ZM69.291 246.208C68.5206 245.437 69.7159 244.242 70.4862 245.013L72.6766 247.204C73.4471 247.975 72.2515 249.17 71.4815 248.399L69.291 246.208ZM46.8185 242.636C45.2437 243.098 43.407 243.522 42.3333 244.866C42.2809 244.932 42.1928 244.848 42.2243 244.782C43.5988 241.932 47.5406 240.932 50.2698 239.933C52.2001 239.227 54.1808 238.641 56.1781 238.117C55.9784 235.838 56.529 233.395 56.7204 231.127C56.9247 228.705 57.091 226.277 57.1763 223.848C57.2636 221.37 57.2847 218.875 57.2032 216.396C57.122 213.927 56.8015 211.487 56.6613 209.026C56.6477 208.788 56.979 208.776 57.0504 208.973C57.8798 211.257 58.2341 213.787 58.5041 216.196C58.7822 218.677 58.8745 221.151 58.839 223.646C58.8022 226.212 58.6531 228.771 58.4484 231.329C58.3514 232.541 58.2388 233.752 58.1325 234.963C58.0514 235.888 58.0138 236.805 57.8253 237.7C59.03 237.404 60.2374 237.124 61.441 236.852C65.2789 235.986 69.1328 235.182 72.9546 234.245C74.8307 233.786 76.6799 233.235 78.5475 232.746C80.3061 232.285 82.1623 231.727 83.9678 231.521C84.6122 231.448 84.6942 232.33 84.2676 232.629C82.8001 233.66 80.8512 234.377 79.1562 234.954C77.4551 235.533 75.6868 235.95 73.9432 236.379C70.307 237.273 66.6365 238.005 62.9714 238.767C59.3114 239.528 55.6444 240.283 52.0256 241.222C50.2829 241.674 48.546 242.128 46.8185 242.636ZM38.1889 197.402C37.2479 197.954 36.3984 196.493 37.336 195.942C38.5628 195.221 39.8703 194.68 41.1884 194.152C42.2 193.747 42.6352 195.383 41.6378 195.783C40.4532 196.257 39.2913 196.755 38.1889 197.402ZM34.7815 260.218C33.838 260.766 32.9879 259.304 33.9286 258.758C35.2499 257.992 36.6969 257.481 38.0661 256.811C39.0403 256.333 39.8959 257.792 38.919 258.271C37.55 258.941 36.1028 259.452 34.7815 260.218ZM33.249 224.561C34.1613 225.428 35.3788 225.836 36.5268 226.291C37.5278 226.688 37.0888 228.323 36.0775 227.922C34.6472 227.354 33.1903 226.836 32.0539 225.756C31.2633 225.005 32.4605 223.811 33.249 224.561ZM43.3415 176.135C44.3444 176.529 43.9051 178.163 42.8921 177.766C41.7686 177.325 40.6083 176.989 39.4848 176.548C38.4821 176.155 38.9211 174.52 39.9341 174.918C41.0577 175.359 42.2179 175.694 43.3415 176.135ZM61.1456 156.901C62.2113 156.721 62.6651 158.35 61.595 158.531C60.2674 158.755 58.9601 159.018 57.7009 159.505C56.6841 159.899 56.2478 158.263 57.2515 157.875C58.5109 157.387 59.8182 157.125 61.1456 156.901ZM67.0284 203.732C66.0513 203.252 66.9086 201.794 67.8813 202.272C68.9063 202.776 69.9684 203.166 71.0868 203.404C72.1518 203.631 71.6982 205.261 70.6375 205.035C69.3787 204.766 68.181 204.299 67.0284 203.732ZM72.5845 177.352C73.6366 177.064 74.0815 178.696 73.0339 178.983C71.1906 179.488 69.2927 179.751 67.4359 180.2C66.3777 180.457 65.93 178.826 66.9865 178.57C68.8434 178.12 70.7414 177.858 72.5845 177.352ZM96.1548 169.074C97.2246 169.272 96.7687 170.902 95.7056 170.705C94.5739 170.495 93.4269 170.492 92.2795 170.491C91.1902 170.491 91.1921 168.8 92.2795 168.801C93.583 168.801 94.8699 168.837 96.1548 169.074ZM173.027 177.908C170.265 177.643 167.5 177.432 164.73 177.274C164.601 177.267 164.475 177.259 164.345 177.252C164.331 177.223 164.312 177.195 164.293 177.166C163.389 175.838 162.723 174.511 162.146 173.01C161.595 171.582 161.06 170.109 160.211 168.82C159.242 167.351 157.935 166.201 156.501 165.205C155.632 165.79 154.825 166.475 154.087 167.201C153.31 167.964 152.115 166.769 152.892 166.005C153.548 165.36 154.248 164.764 154.988 164.226C154.134 163.706 153.262 163.218 152.411 162.733C149.223 160.913 145.959 159.23 142.627 157.692C141.079 156.975 139.511 156.339 137.933 155.695C137.083 155.348 136.245 154.902 135.396 154.501C135.457 153.9 135.277 153.228 134.817 152.833C134.477 152.543 134.213 152.436 133.807 152.231C133.716 152.199 133.661 152.18 133.636 152.169C133.655 152.173 133.71 152.19 133.8 152.22C134.016 152.319 134.033 152.29 133.851 152.133C133.841 151.791 133.167 151.068 133.013 150.715C132.476 149.504 132.309 148.223 131.517 147.12C130.425 145.6 128.591 145.026 126.881 145.541C126.704 143.713 126.658 141.805 125.969 140.173C125.95 140.129 125.889 140.11 125.861 140.158C125.143 141.382 125.082 142.745 125.027 144.157C124.974 145.482 125.024 146.837 125.198 148.154C125.088 148.238 124.976 148.319 124.86 148.397C124.315 148.756 123.727 149.033 123.11 149.238C121.936 149.627 120.704 149.796 119.472 149.855C116.293 150.007 113.016 149.686 109.889 149.141C106.727 148.589 101.878 147.76 99.0639 146.177C97.2067 145.134 95.4935 143.859 93.7567 142.625C94.3865 140.596 94.547 138.415 93.9132 136.7C93.8372 136.495 93.5161 136.457 93.4548 136.7C93.0576 138.336 92.9414 139.981 92.4132 141.597C92.4048 141.621 92.3963 141.646 92.3879 141.669C92.2231 141.558 92.0583 141.447 91.8935 141.338C91.5132 141.086 90.9956 141.274 90.7675 141.633C87.1187 147.384 81.3407 147.714 75.2731 148.741C68.6327 149.865 61.959 151.079 55.5745 153.279C49.4689 155.384 43.6336 158.449 39.0111 163.026C37.9647 164.063 36.9861 165.167 36.0625 166.32C36.9561 166.433 37.8424 166.608 38.7172 166.883C39.7531 167.209 39.3079 168.841 38.2679 168.514C37.1435 168.16 36.0067 167.985 34.8582 167.898C31.7173 172.197 29.2683 177.071 27.1506 181.868C23.0885 191.066 20.4445 200.862 19.2278 210.835C19.8958 210.434 20.5759 210.053 21.2729 209.698C22.2413 209.205 23.0955 210.665 22.126 211.158C21.0494 211.706 20.0036 212.31 18.9903 212.965C18.5477 217.33 18.3762 221.724 18.4801 226.11C18.7273 236.568 20.1386 247.332 23.3308 257.31C24.8963 262.207 26.971 267.064 30.0618 271.202C31.4604 273.076 33.0491 274.767 34.921 276.177C35.8273 276.862 36.7865 277.473 37.7984 277.988C39.102 278.656 40.8006 278.876 41.9245 279.821C42.2942 280.131 42.5794 280.541 42.7949 281.004C42.6703 281.883 42.6555 282.765 42.8963 283.644C42.9724 283.919 43.1794 284.143 43.4351 284.25C43.4393 284.327 43.4393 284.401 43.4393 284.472C43.4393 284.506 43.49 284.515 43.4963 284.481C43.5069 284.415 43.5175 284.35 43.528 284.282C43.6104 284.31 43.697 284.323 43.7858 284.323C46.9949 284.335 50.2081 284.256 53.4215 284.147C53.173 283.386 52.9039 282.631 52.6455 281.869C52.2946 280.835 53.9275 280.395 54.2752 281.42C54.5775 282.31 54.8936 283.193 55.1748 284.086C58.6178 283.958 62.0598 283.804 65.4956 283.691C72.8034 283.447 80.109 283.367 87.4187 283.213C98.7703 282.972 110.204 282.479 121.574 282.961C121.967 282.127 122.407 281.311 122.824 280.488C123.316 279.516 124.774 280.372 124.284 281.341C123.994 281.913 123.693 282.478 123.408 283.049C125.71 283.169 128.011 283.327 130.306 283.543C134.223 283.91 138.102 284.563 142.015 284.969C145.993 285.383 149.884 285.31 153.831 284.652C154.541 284.534 154.959 284.105 155.132 283.572C155.138 283.57 155.143 283.566 155.147 283.559C155.35 283.323 155.54 283.126 155.736 282.955C155.971 282.803 156.225 282.674 156.522 282.56C157.078 282.348 157.657 282.219 158.244 282.133C158.891 282.036 159.546 282.027 160.192 281.947C160.737 281.877 161.27 281.773 161.802 281.647C162.759 281.419 163.667 281.121 164.572 280.725C165.36 280.381 166.071 279.886 166.744 279.347C168.134 278.331 169.338 277.033 170.39 275.684C171.003 274.896 171.579 274.078 172.103 273.227C173.016 271.751 173.794 270.219 174.579 268.674C174.865 268.216 175.125 267.747 175.363 267.269C173.827 266.816 172.276 266.447 170.648 266.421C169.56 266.403 169.56 264.712 170.648 264.73C172.515 264.76 174.282 265.196 176.037 265.716C176.122 265.489 176.204 265.26 176.28 265.028C176.489 264.544 176.663 264.047 176.806 263.544C176.89 263.316 176.975 263.088 177.06 262.86C177.25 262.069 177.44 261.277 177.632 260.484C178.015 259.216 178.317 257.929 178.539 256.625C178.725 255.767 178.868 254.902 178.965 254.027C179.261 251.908 179.502 249.792 179.519 247.649C179.494 246.328 179.409 245.009 179.265 243.697C179.204 242.805 179.101 241.917 178.961 241.036C178.779 239.725 178.6 238.428 178.298 237.134C178.072 236.259 177.846 235.384 177.62 234.509C177.055 232.685 176.39 230.897 175.623 229.149C175.581 229.04 175.367 228.798 175.239 228.796C175.141 228.794 175.006 228.883 175.05 229.002C175.055 229.012 175.059 229.025 175.063 229.035C175.019 228.936 174.977 228.834 174.932 228.735C174.894 228.642 174.746 228.456 174.632 228.458C174.626 228.458 174.619 228.458 174.611 228.46C174.641 228.439 174.668 228.412 174.696 228.38C175.454 227.482 175.946 226.3 176.489 225.26C176.939 224.402 177.364 223.498 177.486 222.528C177.594 221.676 177.448 220.837 176.914 220.148C176.305 219.364 175.16 218.996 175.796 217.863C176.519 216.574 177.582 215.456 176.523 213.991C175.984 213.245 175.131 212.835 174.497 212.186C173.768 211.436 173.421 210.432 173.441 209.407C173.485 209.432 173.544 209.42 173.565 209.356C174.178 207.505 173.734 205.472 173.107 203.669C172.765 202.691 172.04 202.422 171.197 202.374C174.848 195.241 178.264 187.993 181.308 180.579C181.41 180.336 181.509 180.093 181.608 179.85C181.756 179.486 181.444 179.002 181.082 178.922C178.45 178.345 175.708 178.161 173.027 177.908Z" fill="black"/>
<path fill-rule="evenodd" clip-rule="evenodd" d="M144.579 68.5754C144.111 67.3908 143.283 65.9018 141.899 65.8424C140.828 62.5612 138.166 59.2195 134.464 59.3083C123.596 48.1672 109.915 48.6924 95.6107 51.0509C88.0641 52.454 80.4014 55.2016 74.7729 60.6235C68.0316 67.0067 65.4067 78.1447 70.6857 86.2164C66.1233 88.6674 66.0347 94.4838 67.9859 98.681C65.6405 100.307 65.498 104.253 68.139 105.493C67.9985 106.07 68.0978 106.666 68.3656 107.178C67.0562 108.271 65.3519 109.078 63.943 109.772C63.3202 110.079 62.961 110.58 62.8117 111.144C58.1854 114.187 46.6497 121.622 46.7871 127.54C46.7192 130.628 49.0037 132.66 51.7798 133.469C50.128 136.779 48.8743 140.646 50.4554 144.217C50.8925 145.296 54.167 148.467 54.3318 148.525C54.62 148.773 59.3177 146.611 61.6009 145.508C62.0437 148.395 65.1231 149.908 67.7776 148.918C70.2946 148.158 71.8418 146.022 73.4293 144.078C75.5365 148.686 81.7361 148.739 85.743 146.753C89.3415 145.086 92.0769 142.032 93.6008 138.351C101.693 142.322 111.16 143.48 119.951 141.894C120.515 142.895 121.764 143.567 122.877 143.18C127.551 141.771 132.72 141.692 136.683 138.464C144.942 132.52 145.638 121.563 145.062 112.223C144.551 102.91 144.998 93.52 143.31 84.3079C144.042 81.5956 145.261 79.1978 146.389 76.6498C147.615 73.9779 147.589 70.006 144.579 68.5754Z" fill="#FDC6A0"/>
<path fill-rule="evenodd" clip-rule="evenodd" d="M107.081 50.09L107.402 50.0913C107.933 50.0948 108.463 50.1053 108.991 50.1228C111.785 50.2149 114.698 50.5782 117.978 51.2001L118.477 51.2961C119.293 51.4562 120.023 51.6169 121.189 51.8899L123.502 52.4364C124.68 52.7116 125.547 52.9019 126.347 53.0551L126.452 53.0749C126.452 53.0749 132.617 56.0372 134.608 57.986L134.806 58.182L134.891 58.2667L135.756 58.2941L135.765 58.4037L135.772 58.4048C136.632 58.5389 137.409 58.9851 138.132 59.6799L138.209 59.7553L138.284 59.8299C138.847 60.4043 139.296 61.0164 139.915 61.9865L140.056 62.2082L140.307 62.6083L140.511 62.9297C140.643 63.1399 140.771 63.3478 140.893 63.5538L141.013 63.7592L141.1 63.9102L143.335 65.2172C143.657 65.4055 143.95 65.6492 144.218 65.9411L144.291 66.0219L144.362 66.105L144.971 66.8315L144.848 66.9596L144.907 67.0378L145.014 67.1838L145.118 67.3318L145.218 67.4817L145.262 67.5476L145.328 67.6898L145.36 67.7609L145.385 67.8194L145.461 67.8587L145.617 68.1395C146.422 69.5969 146.856 71.252 146.886 72.9528C146.906 74.126 146.762 75.1914 146.419 76.2192C146.182 76.9299 145.864 77.4883 145.314 78.2571L144.88 78.8542L144.792 78.9773L144.686 79.1272C144.669 79.1512 144.652 79.1749 144.636 79.1984C143.93 80.2235 137.896 82.1639 134.187 82.2577L134.076 82.26L133.933 82.2614C133.579 82.2629 133.237 82.2502 132.907 82.2226C131.481 82.103 130.147 81.802 128.597 81.3099L128.276 81.2057L126.568 80.6308C126.514 80.6127 126.47 80.5983 126.44 80.5886L126.284 80.5397C125.908 80.4241 125.635 80.3577 125.448 80.3336L125.411 80.329L125.407 80.3998L125.405 80.4665L125.406 80.5208C125.416 81.3085 124.939 81.8827 124.199 82.2487C123.728 82.4817 123.12 82.6481 122.358 82.7731L122.236 82.7925C120.99 82.9854 119.504 83.0679 117.018 83.1244C116.923 83.1265 116.828 83.1253 116.731 83.1209C116.198 83.0964 115.778 83.0052 114.998 82.7807L114.63 82.6747L114.43 82.6193C114.059 82.5189 113.852 82.4788 113.657 82.4678L113.6 82.4654L113.544 82.4645C113.31 82.4641 113.141 82.5165 112.974 82.6439L112.889 82.7123L111.742 83.6749C111.593 83.7994 111.459 83.9099 111.361 83.9882L111.321 84.0198C109.748 85.2563 108.248 85.9626 106.481 86.0298L106.363 86.0333L106.24 86.0347C106.15 86.0349 106.06 86.0332 105.97 86.0298C105.226 86.0014 104.453 85.7249 103.399 85.1917L103.18 85.0796L103.027 84.9996C102.949 84.9584 102.868 84.9151 102.779 84.8677L101.992 84.4456L101.59 84.235C101.11 83.9874 100.842 83.8678 100.662 83.8185L100.632 83.8108L100.615 83.8271C100.198 84.2356 99.84 84.7496 99.4546 85.4593L99.3966 85.5672L99.3122 85.728L98.7649 86.8203L98.6614 87.0235C98.2551 87.8119 97.9337 88.3159 97.5131 88.758C96.9026 89.3996 96.1633 89.7719 95.2575 89.8317L95.1664 89.8366L95.0584 89.8393C94.6318 89.8434 94.1798 89.7778 93.6896 89.6413L93.5758 89.6086L93.4649 89.5745C92.7347 89.3433 91.5803 89.4872 90.6636 89.975C89.6679 90.5048 89.1196 91.3131 89.144 92.3461C89.1561 92.8592 89.215 93.4092 89.3184 94.0055L89.3478 94.1692C89.4837 94.9063 89.6679 95.6457 89.9517 96.6322L90.5618 98.6955L90.6306 98.9363L90.6997 99.1841C90.7988 99.5449 90.8778 99.8592 90.9429 100.155C91.1919 101.287 91.2335 102.137 90.9838 102.861C89.8832 106.054 87.9734 107.75 85.7993 107.821L85.7242 107.823L85.6312 107.823C83.961 107.805 82.4475 106.714 82.4658 105.301C82.4677 105.153 82.4956 105.015 82.5447 104.89L82.5669 104.837L82.5776 104.815L82.5604 104.772C82.047 103.541 80.8598 102.641 79.4658 102.465L79.3867 102.456L79.3086 102.448C79.232 102.442 79.1556 102.437 79.0833 102.434L79.0124 102.433L78.9277 102.432C77.0698 102.435 75.2313 103.675 73.7851 105.703C73.4836 106.126 73.2037 106.588 72.9521 107.076L72.8694 107.239L72.4672 108.064L72.1956 108.861C70.6991 113.253 71.4569 117.848 74.3778 120.224L74.4669 120.296C75.5193 121.123 76.7569 121.626 78.0782 121.761C78.2302 121.777 78.3832 121.787 78.5304 121.79L78.6397 121.792L78.7651 121.792C79.1957 121.786 79.6075 121.733 79.9774 121.633C80.2791 121.551 80.489 121.452 80.6352 121.325C80.6736 121.292 80.7045 121.262 80.7312 121.232L80.7536 121.205L80.762 121.194L82.7583 121.491C83.0979 123.652 84.0788 125.891 85.6746 128.458L85.7751 128.619L85.9505 128.896L86.1289 129.173C88.0065 132.068 90.1006 134.506 92.4024 136.377L92.5633 136.507L92.7789 136.678L92.9769 136.833C93.3615 137.133 93.682 137.366 94.0027 137.574L94.0829 137.625L94.8399 138.106L94.4885 138.932C93.6686 140.86 92.5371 142.613 91.1426 144.105L91.0111 144.244L90.0417 145.246L89.2962 144.295C89.2906 144.288 89.2739 144.279 89.2541 144.275L89.2404 144.273H89.2329L89.2228 144.274L89.2108 144.278L89.1986 144.283C88.6405 144.586 88.3341 144.818 87.8937 145.272L87.8298 145.338L87.7554 145.417L87.653 145.524C87.1954 145.994 86.7065 146.394 86.1735 146.727C84.9427 147.496 83.5764 147.924 82.1616 147.962L82.0289 147.965L81.8952 147.965C81.8472 147.964 81.7992 147.963 81.7511 147.962C78.7993 147.88 76.1542 145.984 74.8542 143.206C74.8025 143.095 74.755 143.06 74.6675 143.052L74.6426 143.051L74.6115 143.051C74.3946 143.052 74.1289 143.181 73.9807 143.355L73.9544 143.388L73.4567 144.058L73.2659 144.311C71.4908 146.648 70.0334 147.926 68.0759 148.314C67.9218 148.344 67.7588 148.363 67.5856 148.371L67.4806 148.375H67.4192C66.5773 148.377 65.6071 148.133 64.8509 147.702C63.8507 147.133 63.2323 146.257 63.3106 145.171L63.3166 145.102L63.3304 144.986C63.3957 144.406 62.9331 144.091 62.579 144.376L62.555 144.396L62.5258 144.423C61.0674 145.794 59.3899 146.846 57.5832 147.495L57.4234 147.551L57.186 147.633C56.0466 148.018 55.2431 148.209 54.3971 148.224C53.6649 148.237 53.0561 147.972 52.6158 147.463C52.3221 147.124 52.1427 146.746 51.9635 146.196L51.9336 146.102L51.8682 145.888L51.8277 145.749C51.3035 143.9 51.2921 141.923 51.7037 139.742C52.0111 138.112 52.5005 136.538 53.3234 134.331L53.4831 133.906L53.8128 133.038C53.8459 132.951 53.6479 132.647 53.5254 132.613L53.511 132.61L53.3992 132.622C53.3207 132.63 53.2417 132.635 53.1607 132.638L53.0376 132.641H52.9568C50.2836 132.614 48.2419 129.986 48.2609 127.202C48.2814 124.594 49.5896 122.352 52.0873 119.691L52.3043 119.461L52.539 119.218L52.771 118.98C54.9905 116.714 57.2593 114.737 59.6221 113.041L59.8178 112.901L60.0356 112.747C60.8312 112.187 61.6048 111.68 62.6753 111.013L63.3056 110.623L65.8597 107.601C65.921 107.566 65.9814 107.532 66.0409 107.497L66.0733 106.449L68.5342 106.5C67.9097 106.178 67.3924 105.789 66.9721 105.289C65.5754 103.629 65.7507 101.322 67.449 100.189L67.5088 100.15L68.2248 99.7068L68.8106 100.222C69.3209 100.671 69.8622 100.968 70.4265 101.106L70.5158 101.126L70.9574 101.22L71.0433 101.359L71.0931 101.287C71.0928 101.28 71.0914 101.273 71.089 101.266L71.0847 101.256L71.0753 101.241L71.0198 101.173L70.9583 101.099C70.7619 100.867 70.5413 100.643 70.1409 100.256L69.8599 99.9854L69.6412 99.7721C69.0673 99.207 68.7617 98.857 68.4367 98.3709C67.628 97.1614 67.1713 95.7977 67.1523 94.4126C67.1126 91.5324 68.8995 88.8093 71.5476 87.5664C71.6403 87.523 71.7087 87.2136 71.5975 87.0091C69.0336 82.293 68.3221 76.6397 69.61 71.3808C70.8118 66.4743 73.8016 62.1434 78.082 58.8259C85.4301 53.1304 95.6233 50.1934 106.438 50.0922L106.766 50.09H107.081Z" fill="#ECDCBF"/>
<path fill-rule="evenodd" clip-rule="evenodd" d="M67.7858 108.105C68.2726 107.982 68.534 108.638 68.1208 108.902C65.4973 110.574 62.7872 112.068 60.2529 113.889C57.8425 115.619 55.6161 117.59 53.54 119.709L53.3099 119.945C51.433 121.881 49.3543 124.343 49.3332 127.199C49.317 129.419 51.024 131.841 53.4056 131.55C54.3029 131.44 55.1276 132.581 54.8146 133.404L54.4852 134.271C53.16 137.78 51.8118 141.757 52.8585 145.449L52.8969 145.581C53.1501 146.426 53.417 147.173 54.3959 147.156C55.3043 147.14 56.2496 146.833 57.1001 146.54C58.8649 145.932 60.4642 144.917 61.8216 143.641C63.0224 142.512 64.5564 143.659 64.3948 145.093L64.389 145.139C64.1679 146.749 66.7258 147.496 67.8887 147.266C70.1847 146.811 71.8218 144.504 73.1257 142.746C73.7525 141.901 75.2748 141.569 75.8255 142.746C76.9167 145.078 79.166 146.822 81.7972 146.895C83.164 146.933 84.4753 146.543 85.6329 145.819C86.1054 145.524 86.528 145.173 86.9155 144.775L87.0117 144.674C87.5851 144.065 87.9808 143.741 88.7132 143.343C89.4349 142.951 90.3684 143.437 90.364 144.292C90.3581 145.4 90.0343 146.137 89.2721 146.94C88.6416 147.606 87.8923 148.19 87.1047 148.657C85.5218 149.595 83.64 150.122 81.7972 150.061C78.8925 149.965 76.12 148.513 74.3227 146.256C72.4878 148.456 70.2115 150.477 67.2535 150.422C65.039 150.382 62.9753 149.226 61.9865 147.435C60.5907 148.4 59.0586 149.155 57.4197 149.647L57.2736 149.69C54.9538 150.367 52.284 150.636 50.7908 148.327C49.3888 146.16 49.2843 143.158 49.6056 140.68C49.8925 138.467 50.5718 136.365 51.3518 134.292C49.1314 133.627 47.408 131.537 46.816 129.283C45.9204 125.874 47.6578 122.569 49.8056 120.037C52.1388 117.286 55.0753 114.959 58.0338 112.923C60.9845 110.892 64.2899 108.983 67.7858 108.105ZM143.654 81.4467C143.66 81.352 143.814 81.3188 143.829 81.4228C144.848 88.8365 145.438 96.2353 145.926 103.7C146.174 107.482 146.455 111.26 146.763 115.037C147.059 118.658 147.55 122.377 147.439 126.013C147.265 131.708 144.507 136.338 139.984 139.671C135.65 142.864 130.274 144.443 124.999 145.11C121.935 145.497 118.829 145.516 115.762 145.152C114.169 144.963 112.579 144.711 111.019 144.333L110.344 144.164C109.115 143.85 107.744 143.423 107.568 141.964C107.484 141.257 107.858 140.736 108.463 140.381C109.251 139.919 110.155 140.191 110.967 140.402C112.336 140.757 113.719 141.062 115.118 141.272C118.123 141.725 121.212 141.752 124.232 141.439C129.313 140.911 134.672 139.259 138.589 135.847C140.291 134.365 141.771 132.558 142.55 130.412C143.551 127.653 143.403 124.644 143.369 121.754C143.291 115.037 143.36 108.319 143.267 101.6C143.173 94.8615 143.255 88.1757 143.654 81.4467ZM92.5649 50.0517C98.5013 48.5169 104.526 48.1181 110.624 48.5801C116.374 49.0155 122.925 50.3054 127.622 53.8512C127.85 54.0232 127.713 54.3489 127.431 54.3039C124.291 53.8022 121.231 52.8895 118.104 52.2857C115.097 51.7049 112.036 51.2689 108.974 51.1679C98.6176 50.8257 87.0943 53.1782 78.7437 59.6508C74.8281 62.6856 71.8399 66.7664 70.6506 71.6217C69.431 76.6018 70.0909 81.9874 72.54 86.4923C72.8927 87.141 72.7473 88.1671 72.0115 88.5124C69.7789 89.5603 68.1887 91.8818 68.2232 94.3869C68.2399 95.602 68.6577 96.7671 69.3292 97.7715C70.0393 98.8335 71.1201 99.5766 71.9143 100.568C72.2269 100.959 72.239 101.497 71.9913 101.857C72.4557 102.061 72.9566 102.17 73.4137 102.411C73.8012 102.615 73.8121 103.253 73.4137 103.455C72.4059 103.963 71.3164 103.423 70.6363 102.603C70.5149 102.457 70.4099 102.304 70.3142 102.149C69.4995 101.976 68.7697 101.566 68.1324 101.005C66.918 101.734 66.7517 103.357 67.7948 104.597C68.3276 105.23 69.0845 105.621 69.8494 105.902L69.9412 105.935C70.6856 106.2 71.3674 106.348 71.8511 106.945C72.17 106.278 72.5362 105.65 72.9444 105.077C74.4284 102.996 76.7094 101.15 79.4162 101.384C81.5364 101.568 83.3733 103.089 83.8078 105.189C83.8399 105.344 83.6063 105.465 83.5367 105.303C82.5195 102.925 79.3009 102.838 77.3837 104.077C75.1289 105.535 73.8967 108.281 73.4023 110.839C72.9157 113.359 73.1969 116.424 75.0781 118.34C75.8478 119.124 76.895 119.667 77.9879 119.81C78.5221 119.88 78.9933 119.811 79.5042 119.708L79.8428 119.637C80.0777 119.588 80.3112 119.549 80.5576 119.571L80.9246 119.62V119.62L81.1332 119.718C81.3141 119.799 81.2977 119.777 81.0842 119.651C81.7078 119.6 82.0302 120.062 82.0643 120.568C82.0841 120.581 82.1033 120.595 82.1193 120.614C84.486 123.518 86.2432 126.855 88.7548 129.664L89.49 130.486C91.38 132.594 93.5378 134.879 96.1054 135.973L96.4109 136.099C97.1579 136.416 97.9081 136.849 98.0033 137.751C98.0887 138.56 97.4528 139.168 96.7198 139.357C95.0505 139.786 93.1477 138.299 91.9251 137.323C89.2961 135.226 87.0867 132.552 85.2621 129.738L85.0817 129.458C83.5818 127.11 82.172 124.431 81.734 121.644L81.655 121.773C81.649 121.782 81.6444 121.789 81.6414 121.793C81.552 121.914 81.4536 122.017 81.3393 122.116C81.0323 122.381 80.6579 122.536 80.269 122.642C79.5389 122.839 78.7384 122.878 77.9879 122.801C76.4634 122.645 75.0385 122.063 73.8334 121.116C70.1643 118.231 69.731 112.864 71.215 108.509C69.9973 108.8 68.6103 107.979 67.6595 107.275C66.5691 106.467 65.67 105.301 65.4551 103.929C65.2418 102.568 66.1074 100.766 67.3913 100.24C66.0591 98.6369 65.2835 96.3613 65.2034 94.5393C65.0643 91.3699 66.7439 88.3742 69.3227 86.6449C66.8976 81.4349 66.4304 75.3905 68.0632 69.8586C71.3033 58.8813 82.1573 52.7427 92.5649 50.0517ZM83.3266 133.456L83.3568 133.359C83.6152 132.51 83.9487 130.821 85.2138 131.464C86.4225 132.078 85.6509 133.896 85.2282 134.78C84.7224 135.839 83.849 136.688 82.676 136.915C81.7218 137.1 80.674 136.863 80.0065 136.124C79.8119 135.908 79.7021 135.672 79.5868 135.411C79.5419 135.31 79.5216 135.24 79.5132 135.195C79.5022 135.245 79.471 135.319 79.3913 135.406C78.8588 135.989 78.3558 136.668 77.9694 137.358C77.8779 137.521 77.5895 137.407 77.6624 137.228C78.1125 136.125 78.0368 134.418 79.0401 133.62C79.9245 132.916 80.7554 133.47 81.2231 134.289L81.247 134.332C81.9307 135.576 83.0202 134.395 83.3266 133.456ZM73.7069 129.468L73.7993 129.339C74.7449 128.044 76.3395 126.485 77.9352 127.69C78.4426 128.073 78.4614 128.713 77.9352 129.093L77.7361 129.236C77.039 129.731 76.3449 130.199 75.8329 130.909C75.2765 131.682 74.7769 132.5 74.0289 133.106C72.706 134.177 70.568 134.389 69.4201 132.944L69.3072 132.801C69.2111 132.677 69.1009 132.527 69.0115 132.378L68.9418 132.475C68.935 132.485 68.9286 132.494 68.9228 132.503L68.9067 132.527C68.4349 133.283 67.8389 133.906 67.0966 134.397C65.6858 135.33 64.096 135.46 62.4999 134.966C62.3436 134.917 62.3856 134.707 62.5368 134.693C64.428 134.516 66.2708 133.169 67.0401 131.435L67.127 131.24C67.4383 130.55 67.7871 129.894 68.5561 129.624C69.3048 129.36 70.0907 129.638 70.6041 130.206C71.0333 130.68 71.1438 131.624 71.9181 131.416C72.766 131.188 73.2433 130.123 73.7069 129.468ZM68.2899 117.944C68.7088 117.625 69.3649 117.967 69.4802 118.43C70.0028 120.524 67.8322 122.991 65.7463 123.056C65.2093 123.072 64.6928 122.942 64.2172 122.693C63.8483 122.499 63.4117 122.006 63.0067 121.924C62.4836 121.818 62.0202 122.517 61.6519 122.875C61.1951 123.32 60.7431 123.733 60.2312 124.112C60.0267 124.264 59.7094 124.009 59.7959 123.777L59.969 123.314C60.5958 121.667 61.6753 119.263 63.6954 119.947C64.6852 120.281 65.4303 121.41 66.4726 120.516C67.3072 119.801 67.385 118.633 68.2899 117.944ZM77.2031 109.516C79.0864 107.349 83.5135 108.493 84.353 111.13C84.5385 111.712 84.3449 112.469 83.8913 112.881C83.2936 113.424 82.441 113.588 81.7154 113.163C81.0909 112.796 80.8346 112.197 80.3756 111.683C79.7024 110.929 78.7868 110.511 77.8434 110.211C77.6075 110.336 77.388 110.499 77.1911 110.696C77.0904 110.797 76.9 110.659 76.9894 110.54C77.1108 110.378 77.2592 110.226 77.4281 110.086L77.3469 110.062V110.062C77.0986 109.993 77.0448 109.698 77.2031 109.516ZM89.4429 85.5879C89.865 85.5885 90.3566 85.9859 90.3026 86.4498L90.2863 86.5786C90.1649 87.4618 89.8818 87.9619 89 88.3722C88.2518 88.7199 87.4658 88.912 86.6457 88.9881C86.3354 89.0168 86.0069 89.0185 85.674 88.9938L85.6039 89.3992C85.4646 90.2101 85.3358 91.0214 85.3116 91.8479C85.2665 93.3799 85.8368 94.6426 86.4484 96.0104C87.6224 98.6379 87.7544 101.261 86.4762 103.884C86.2892 104.268 85.7598 104.581 85.3327 104.542C84.7789 104.492 84.5114 104.331 84.1892 103.884C83.9186 103.509 83.9805 102.979 84.1679 102.587L84.1892 102.544C84.8333 101.293 85.0363 99.88 84.7074 98.505C84.3983 97.2126 83.6982 96.051 83.3856 94.7626C82.8762 92.6639 83.4187 90.5821 84.4787 88.7816C83.6786 88.5506 82.9386 88.1389 82.4449 87.511L82.447 87.5101V87.5101C82.2585 87.3083 82.3614 86.8866 82.6922 86.912L83.0663 86.9423C84.1363 87.0319 85.1213 87.1252 86.2034 86.8262C86.7581 86.6727 87.2369 86.4169 87.7131 86.1071L87.8151 86.04C88.4109 85.643 88.7413 85.587 89.4429 85.5879ZM92.0038 70.0763C94.6863 69.9235 96.9765 71.6982 98.0898 74.0607C99.2992 76.6255 98.7918 79.5684 97.7244 82.0919L97.4211 82.7982C96.8903 84.0219 96.1934 85.4771 95.1063 86.1336C93.8852 86.8712 92.8296 86.0159 93.1897 84.6563C93.4043 83.8466 93.9851 83.2221 94.4551 82.5538C94.8936 81.9297 95.3028 81.2838 95.6616 80.61C96.3645 79.2886 96.8892 77.8164 96.8835 76.3025C96.8736 73.5393 95.0525 70.3726 92.0038 70.4132C91.7861 70.4157 91.7896 70.0883 92.0038 70.0763ZM105.571 65.6177C105.404 65.4905 105.553 65.2075 105.74 65.3269C108.851 67.3102 111.173 71.0357 111.641 74.6956C111.901 76.7263 111.702 78.8964 110.84 80.7705C110.345 81.8458 109.496 82.8724 108.308 83.1672C107.217 83.4379 106.092 82.813 105.753 81.7448C105.621 81.3304 105.847 80.8969 106.189 80.6705C107.296 79.9369 108.187 79.0112 108.708 77.7659C109.251 76.4712 109.467 75.0972 109.473 73.7006C109.489 70.43 108.187 67.6112 105.571 65.6177ZM143.569 67.0353C143.425 66.8753 143.607 66.6394 143.797 66.7396C146.046 67.9253 147.475 70.1964 147.884 72.6838C148.286 75.119 147.746 78.4342 145.866 80.1954C144.804 81.1896 142.904 79.8674 143.786 78.5868C144.408 77.6837 145.08 76.94 145.436 75.8729C145.754 74.9208 145.866 73.9606 145.849 72.9601C145.811 70.7772 145.033 68.6627 143.569 67.0353ZM116.075 63.9859C119.917 63.8024 122.245 68.1996 122.779 71.477C123.108 73.5019 122.861 75.5875 121.745 77.3438L121.679 77.4461C120.759 78.8491 119.086 80.4645 117.283 79.8002C116.52 79.5193 116.317 78.6999 116.83 78.0783C117.614 77.1268 118.826 76.739 119.564 75.723C120.391 74.5836 120.662 73.1562 120.614 71.7705L120.608 71.6175C120.48 69.0687 119.267 64.1768 116.075 64.2634C115.896 64.268 115.898 63.9941 116.075 63.9859ZM128.093 63.2553C131.809 62.7791 134.072 67.1621 134.77 70.1814C135.206 72.069 135.302 74.1747 134.744 76.0481L134.703 76.1816C134.249 77.5797 132.909 79.9754 131.161 79.2608C130.682 79.0651 130.193 78.5319 130.423 77.957C130.715 77.2222 131.138 77.0315 131.702 76.5613C132.135 76.1992 132.438 75.6795 132.661 75.1676C133.255 73.8034 133.388 72.2096 133.307 70.7394L133.296 70.5654C133.086 67.6938 131.532 63.4143 128.093 63.4931C127.936 63.4966 127.947 63.2739 128.093 63.2553ZM134.897 59.1348C136.965 58.3451 138.66 60.3278 139.849 61.7428C141.338 63.5158 142.689 65.4258 143.453 67.6329C144.133 69.5996 144.253 71.7862 143.64 73.7881C143.337 74.7793 142.864 75.6985 142.219 76.5075L142.137 76.6096C141.465 77.4303 140.817 77.9346 139.717 77.6408C139.27 77.521 139.081 77.0773 139.158 76.6534C139.324 75.7475 139.789 75.5123 140.393 74.8799C140.925 74.3222 141.319 73.6353 141.585 72.9131C142.132 71.4233 142.16 69.8092 141.793 68.2744C141.382 66.5562 140.573 64.9695 139.637 63.4827L139.435 63.1642C138.443 61.5923 137.028 59.1715 134.936 59.4266C134.757 59.4486 134.755 59.1889 134.897 59.1348Z" fill="black"/>
<path fill-rule="evenodd" clip-rule="evenodd" d="M127.4 121.301C129.908 121.301 130.97 121.709 132.601 122.668C134.233 123.627 135.977 124.863 136.39 126.715C136.775 128.441 136.017 130.122 134.341 130.78C133.403 131.148 122.599 132.011 120.904 132.123C119.209 132.236 117.592 132.097 116.503 130.968C113.691 128.05 117.597 124.267 120.092 122.87C122.32 121.623 124.892 121.301 127.4 121.301ZM126.82 123.269C124.933 123.269 121.843 124.649 121.843 125.321C121.843 125.993 130.85 125.326 131.043 124.751C131.236 124.176 128.706 123.269 126.82 123.269ZM128.271 107.866C129.866 108.836 132.297 111.098 130.581 113.503C128.561 115.624 125.652 113.193 124.219 112.093C122.89 111.241 121.396 113.433 122.629 114.428C132.987 122.099 137.19 108.12 129.078 106.726C128.185 106.572 127.853 107.566 128.271 107.866ZM110.255 99.0739C112.973 97.067 117.038 98.6117 117.707 101.752C118.173 101.997 118.426 102.386 118.481 102.956L118.495 103.099V103.099C118.561 103.776 117.958 104.418 117.356 104.596C116.678 104.797 116.141 104.693 115.512 104.405C114.908 104.129 114.699 103.345 114.808 102.749L114.818 102.7C114.979 101.96 114.345 101.243 113.707 100.95C112.987 100.619 112.178 100.826 111.552 101.265C110.857 101.751 110.279 102.583 110.083 103.412L110.064 103.498C109.909 104.213 109.793 105.556 110.487 105.967C110.61 106.039 110.523 106.206 110.396 106.184C108.888 105.926 107.99 105.018 107.98 103.395C107.971 101.676 108.894 100.08 110.255 99.0739ZM135.278 98.5028C137.991 97.5399 141.385 100.127 140.34 103.114C139.653 105.076 136.999 104.289 137.246 102.323L137.254 102.263C137.412 101.24 136.637 100.758 135.688 101.094C134.281 101.591 133.522 103.803 134.181 105.094C134.262 105.252 134.036 105.386 133.941 105.234L133.851 105.088C133.115 103.915 132.443 103.049 132.685 101.551C132.908 100.17 133.964 98.9686 135.278 98.5028ZM129.774 91.3916C129.767 91.2595 129.906 91.1705 130.025 91.2003C130.989 91.4432 131.862 92.1449 132.741 92.6001C133.7 93.0968 134.682 93.4981 135.723 93.7923C136.737 94.0789 137.762 94.2218 138.817 94.2129C139.958 94.2034 141.075 93.775 142.194 93.8103C143.876 93.8633 144.755 96.3108 143.098 97.152C140.686 98.3763 137.108 97.4867 134.761 96.4689C132.872 95.6495 129.897 93.7133 129.774 91.3916ZM117.519 91.9512C118.399 90.8175 120.18 90.7494 120.961 92.0852C121.768 93.4653 120.798 94.849 119.426 95.1345C116.923 96.2541 114.359 97.1109 111.625 97.4662L111.255 97.5128C108.875 97.8024 105.872 97.9604 103.721 96.8623C103.511 96.7545 103.575 96.4335 103.785 96.3733C104.998 96.0264 106.355 96.0273 107.602 95.7997C108.788 95.5834 109.964 95.3442 111.119 94.9936C113.4 94.3005 115.562 93.3102 117.519 91.9512Z" fill="black"/>
<path fill-rule="evenodd" clip-rule="evenodd" d="M120.332 125.906C120.332 125.906 122.478 122.418 126.007 122.418C129.537 122.418 133.624 124.254 133.338 125.128C133.185 125.594 129.903 126.912 124.428 126.964C123.07 126.977 120.332 125.906 120.332 125.906Z" stroke="#22252B" stroke-width="1.5"/>
</g>
<defs>
<clipPath id="clip0_2016_14164">
<rect width="200" height="267" fill="white"/>
</clipPath>
</defs>
</svg>
