<svg width="200" height="267" viewBox="0 0 200 267" fill="none" xmlns="http://www.w3.org/2000/svg">
<g clip-path="url(#clip0_2016_14165)">
<rect width="200" height="267" fill="white"/>
<path fill-rule="evenodd" clip-rule="evenodd" d="M168.18 197.386C167.516 195.563 168.485 193.744 169.023 191.981C170.933 185.864 165.708 170.436 162.055 170.211C160.718 166.752 157.152 165.317 154.345 163.326C151.16 161.337 148.061 159.053 144.749 157.309C144.564 155.661 142.568 155.253 141.346 156.432C137.993 154.344 133.971 154.732 130.375 153.365C127.644 148.947 127.439 144.302 126.715 140.041C126.4 138.183 126.735 136.391 125.466 134.735C121.204 128.738 104.363 126.137 98.1531 129.691C94.8107 127.606 94.7302 131.383 94.1993 133.714C93.6092 134.88 93.29 136.201 93.3886 137.592C91.8062 140.899 90.4646 145.034 87.1391 147.504C82.9194 150.637 76.4275 151.828 72.3135 153.365C71.3907 152.476 71.1086 151.192 71.1086 151.192C64.7325 152.579 58.5443 155.016 53.2022 158.822C47.1329 160.598 42.8585 165.536 39.7676 170.831C39.4271 171.389 39.3468 171.958 39.4463 172.481C29.9416 186.419 25.4052 203.105 24.7681 219.958C18.6559 223.627 27.6732 256.593 29.7724 263.437C29.7745 263.436 29.7766 263.435 29.7787 263.434C31.1405 265.846 32.6868 272.729 36.095 272.196C38.4329 274.841 42.1586 274.321 45.3312 274.524C44.8144 276.507 45.0683 278.776 45.6833 280.735C46.4107 283.068 49.9803 283.147 50.4865 280.604C82.0803 286.744 114.497 281.845 146.446 282.766C155.683 282.832 164.92 283.118 174.135 283.776C175.433 283.869 176.749 282.542 176.66 281.25C174.679 260.163 172.818 232.423 170.603 211.543C170.077 206.781 169.662 201.967 168.18 197.386Z" fill="#FDC6A0"/>
<path fill-rule="evenodd" clip-rule="evenodd" d="M71.1415 151.332C71.1299 151.286 71.1189 151.239 71.1086 151.192C64.7325 152.579 58.5443 155.016 53.2021 158.822C47.1329 160.598 42.8585 165.536 39.7676 170.831L39.7264 170.901C39.4207 171.437 39.3509 171.98 39.4463 172.481C29.9416 186.419 25.4052 203.105 24.7681 219.958C18.6559 223.627 27.6732 256.593 29.7724 263.437L29.7787 263.434C30.118 264.035 30.4688 264.914 30.8571 265.886C32.0268 268.816 33.5361 272.596 36.095 272.196C37.9957 274.346 40.8136 274.405 43.5059 274.46C44.1252 274.473 44.7379 274.486 45.3312 274.524C44.8144 276.507 45.0683 280.044 45.6833 282.003C46.4107 284.336 147.325 286.236 174.135 283.776C175.43 283.657 176.748 282.542 176.66 281.25C175.828 272.394 175.017 262.365 174.193 252.163C173.053 238.073 171.888 223.654 170.603 211.543C170.552 211.087 170.503 210.631 170.454 210.175C169.988 205.862 169.52 201.529 168.18 197.386C167.65 195.93 168.161 194.477 168.662 193.053C168.789 192.693 168.915 192.336 169.023 191.981C170.933 185.864 166.066 170.473 162.577 170.244L162.055 170.211C161.028 167.554 158.686 166.092 156.383 164.653C155.757 164.262 155.133 163.873 154.54 163.462L154.345 163.326C153.259 162.648 152.184 161.935 151.106 161.222C149.022 159.842 146.932 158.458 144.749 157.309C144.564 155.661 142.567 155.253 141.346 156.432C140.813 156.1 140.262 155.83 139.699 155.606L139.476 158.674C135.669 172.87 125.075 180.769 107.695 182.371C81.624 184.773 69.8726 158.635 69.8726 155.993C69.8726 154.835 70.2554 153.372 71.0208 151.606L71.1415 151.332ZM128.622 199.007C132.506 198.058 137.114 197.057 140.914 196.427C142.817 196.111 144.498 195.891 145.779 195.814C146.421 195.775 146.94 195.774 147.325 195.809C147.678 195.841 147.822 195.896 147.854 195.908C147.861 195.911 147.862 195.912 147.859 195.909C148.439 196.359 148.93 197.013 149.285 197.588C149.459 197.87 149.594 198.122 149.684 198.302L149.697 198.328C149.683 198.366 149.668 198.407 149.651 198.452C149.557 198.692 149.416 199.006 149.228 199.314C148.824 199.974 148.343 200.383 147.801 200.383C147.249 200.383 145.925 200.571 144.344 200.826C142.727 201.087 140.755 201.434 138.846 201.781C136.936 202.128 135.086 202.475 133.714 202.735C133.028 202.865 132.461 202.973 132.066 203.049L131.608 203.137L131.488 203.16L131.457 203.166L131.449 203.168L131.447 203.168L131.446 203.168C131.446 203.168 131.446 203.168 131.589 203.904L131.446 203.168L131.352 203.186L131.265 203.228L127.038 205.253L127.425 206.677L127.362 205.93L127.425 206.677L127.426 206.677L127.427 206.677L127.433 206.676L127.457 206.674L127.549 206.666L127.906 206.637C128.217 206.611 128.665 206.575 129.22 206.531C130.328 206.444 131.858 206.327 133.543 206.211C136.92 205.977 140.892 205.745 143.348 205.745L143.885 205.745C146.351 205.744 149.743 205.743 152.596 205.903C154.134 205.989 155.48 206.12 156.428 206.314C156.831 206.396 157.126 206.483 157.322 206.566C157.208 206.682 157.032 206.822 156.785 206.98C156.227 207.338 155.429 207.71 154.524 208.058C152.713 208.755 150.632 209.3 149.544 209.449C148.352 209.613 145.032 210.279 142.047 210.895C140.546 211.205 139.118 211.505 138.065 211.727C137.539 211.838 137.106 211.93 136.805 211.994L136.457 212.068L136.366 212.087L136.342 212.092L136.337 212.094L136.335 212.094L136.335 212.094C136.335 212.094 136.335 212.094 136.491 212.828L136.335 212.094L136.465 213.577L154.265 214.2C154.292 214.23 154.321 214.262 154.352 214.297C154.515 214.483 154.685 214.708 154.789 214.92C154.872 215.091 154.875 215.174 154.875 215.197C154.846 215.228 154.739 215.311 154.424 215.382C153.259 215.642 150.866 216.163 148.761 216.62C147.71 216.848 146.731 217.06 146.015 217.215L145.162 217.399L144.928 217.45L144.867 217.463L144.852 217.466L144.848 217.467L144.847 217.468L144.846 217.468L145.005 218.201L144.846 217.468L144.414 217.561L144.287 217.984L144.287 217.984L144.286 217.984L144.286 217.984L144.286 217.985L144.285 217.99L144.276 218.019C144.271 218.034 144.264 218.055 144.255 218.081C144.249 218.099 144.242 218.119 144.234 218.141C144.196 218.249 144.138 218.409 144.057 218.606C143.894 219 143.646 219.535 143.302 220.099C142.602 221.245 141.571 222.405 140.166 222.851C138.968 223.23 137.643 223.485 136.344 223.735C135.898 223.821 135.455 223.906 135.021 223.996C134.193 224.167 133.395 224.355 132.723 224.596C132.07 224.831 131.428 225.151 131.012 225.651C130.702 226.024 130.351 226.556 129.991 227.101L129.97 227.132C129.592 227.705 129.184 228.323 128.74 228.911C128.295 229.499 127.831 230.032 127.353 230.44C126.872 230.85 126.417 231.098 125.988 231.179C124.746 231.414 121.026 232.386 117.659 233.285C115.966 233.738 114.348 234.176 113.155 234.501C112.558 234.663 112.066 234.797 111.724 234.891L111.702 234.897C111.606 234.754 111.489 234.578 111.357 234.372C110.965 233.763 110.436 232.898 109.892 231.875C108.794 229.812 107.669 227.179 107.416 224.739C107.151 222.174 107.018 219.727 106.951 217.92C106.918 217.016 106.901 216.274 106.893 215.758C106.891 215.606 106.889 215.474 106.888 215.363L108.855 214.091L108.937 214.038L109.003 213.966L118.137 203.936L118.156 203.918C118.174 203.899 118.205 203.869 118.249 203.828C118.336 203.747 118.474 203.624 118.665 203.468C119.047 203.156 119.645 202.712 120.483 202.206C122.158 201.197 124.801 199.94 128.622 199.007ZM151.226 198.48C151.226 198.479 151.226 198.479 150.503 198.278L151.226 198.479L151.297 198.224L151.192 197.981L150.503 198.278C151.192 197.981 151.192 197.981 151.192 197.981L151.192 197.98L151.192 197.98L151.191 197.978L151.188 197.971L151.179 197.951C151.171 197.933 151.16 197.909 151.146 197.879C151.118 197.818 151.077 197.732 151.024 197.627C150.918 197.416 150.762 197.126 150.561 196.8C150.165 196.159 149.563 195.333 148.779 194.724C148.422 194.447 147.907 194.355 147.46 194.315C146.968 194.271 146.365 194.276 145.688 194.317C144.331 194.398 142.59 194.628 140.668 194.947C136.819 195.586 132.172 196.595 128.266 197.549C124.296 198.519 121.512 199.835 119.709 200.922C118.807 201.465 118.152 201.95 117.716 202.306C117.499 202.483 117.336 202.628 117.225 202.732C117.17 202.783 117.128 202.825 117.098 202.854C117.083 202.869 117.071 202.881 117.062 202.89L117.051 202.901L117.048 202.905L117.046 202.907L117.046 202.907C117.045 202.908 117.045 202.908 117.588 203.421L117.045 202.908L117.036 202.918L107.959 212.884L105.728 214.327L105.385 214.549V214.957H106.135C105.385 214.957 105.385 214.957 105.385 214.957V214.958V214.958V214.961L105.385 214.972L105.385 215.014C105.385 215.032 105.385 215.055 105.385 215.082C105.385 215.109 105.386 215.14 105.386 215.174C105.387 215.315 105.389 215.52 105.393 215.782C105.402 216.307 105.419 217.06 105.452 217.975C105.52 219.804 105.654 222.286 105.924 224.893C106.207 227.624 107.441 230.463 108.568 232.58C109.136 233.647 109.686 234.548 110.096 235.184C110.3 235.502 110.47 235.754 110.589 235.927C110.649 236.014 110.696 236.081 110.728 236.127L110.766 236.181L110.776 236.195L110.779 236.199L110.78 236.2L110.78 236.201C110.781 236.201 110.781 236.201 110.861 236.143L110.781 236.201L111.086 236.622L111.587 236.484L111.388 235.761C111.587 236.484 111.587 236.484 111.587 236.484L111.587 236.484L111.589 236.483L111.596 236.482L111.622 236.474L111.725 236.446L112.12 236.338C112.462 236.244 112.952 236.11 113.548 235.948C114.741 235.623 116.356 235.186 118.046 234.734C121.445 233.826 125.094 232.875 126.267 232.653C127.045 232.506 127.734 232.087 128.326 231.582C128.921 231.074 129.459 230.446 129.936 229.815C130.411 229.187 130.843 228.533 131.216 227.967L131.216 227.967L131.222 227.958C131.608 227.373 131.915 226.912 132.165 226.61C132.317 226.428 132.644 226.218 133.23 226.008C133.797 225.805 134.508 225.634 135.324 225.465C135.714 225.385 136.128 225.305 136.557 225.222L136.557 225.222C137.877 224.968 139.33 224.689 140.618 224.281C142.529 223.676 143.805 222.153 144.582 220.88C144.977 220.234 145.259 219.625 145.444 219.177C145.494 219.054 145.538 218.942 145.574 218.845L146.332 218.681C147.048 218.526 148.027 218.314 149.079 218.086C151.183 217.63 153.581 217.107 154.751 216.845C155.444 216.69 156.026 216.363 156.268 215.758C156.497 215.187 156.314 214.625 156.137 214.262C155.949 213.877 155.681 213.537 155.479 213.307C155.375 213.189 155.282 213.092 155.213 213.023C155.179 212.989 155.151 212.961 155.13 212.942L155.105 212.918L155.097 212.911L155.095 212.909L155.094 212.908L155.093 212.907C155.093 212.907 155.093 212.907 154.587 213.461L155.093 212.907L154.889 212.721L154.614 212.711L142.69 212.294C145.603 211.694 148.661 211.085 149.748 210.935C150.98 210.766 153.176 210.184 155.063 209.458C156.006 209.095 156.912 208.681 157.594 208.244C157.934 208.026 158.25 207.783 158.489 207.514C158.72 207.253 158.95 206.887 158.95 206.437C158.95 205.787 158.421 205.436 158.105 205.276C157.735 205.088 157.252 204.951 156.729 204.844C155.669 204.627 154.234 204.492 152.68 204.405C149.783 204.243 146.35 204.244 143.89 204.245L143.348 204.245C140.833 204.245 136.812 204.481 133.439 204.714C132.694 204.766 131.979 204.817 131.317 204.866L131.826 204.623L131.892 204.61L132.349 204.522C132.743 204.446 133.309 204.338 133.993 204.208C135.363 203.949 137.209 203.603 139.114 203.257C141.019 202.911 142.98 202.565 144.583 202.307C146.219 202.043 147.399 201.883 147.801 201.883C149.166 201.883 150.037 200.865 150.507 200.097C150.756 199.691 150.933 199.292 151.048 198.996C151.106 198.848 151.149 198.723 151.179 198.633C151.193 198.588 151.204 198.552 151.212 198.526L151.221 198.494L151.224 198.485L151.225 198.481L151.226 198.48L151.226 198.48ZM157.541 206.685C157.541 206.685 157.535 206.681 157.528 206.673C157.538 206.68 157.542 206.684 157.541 206.685ZM154.883 215.187C154.884 215.186 154.884 215.185 154.884 215.185C154.884 215.185 154.883 215.186 154.883 215.186C154.882 215.187 154.881 215.189 154.88 215.191C154.882 215.189 154.883 215.188 154.883 215.187Z" fill="#FFCF77"/>
<path fill-rule="evenodd" clip-rule="evenodd" d="M136.612 195.668L145.898 174.626C145.898 174.626 147.301 171.051 149.684 171.051C152.066 171.051 173.671 171.727 173.671 171.727C173.671 171.727 178.092 172.292 176.664 174.626C175.237 176.96 154.008 220.395 154.008 220.395H145.005V218.201L155.028 215.397C155.028 215.397 156.853 213.461 154.008 213.461C151.164 213.461 134.615 212.828 134.615 212.828L150.395 210.511L158.2 207.508L157.052 205.93L150.395 204.978L128.714 205.93L134.615 203.933L147.801 201.133C147.801 201.133 150.395 199.306 150.395 197.515C150.395 195.723 143.447 195.034 143.447 195.034L136.612 195.668Z" fill="white"/>
<path fill-rule="evenodd" clip-rule="evenodd" d="M94.7202 130.993C94.8108 130.746 95.1801 130.778 95.1871 131.056C95.3327 136.985 93.8572 144.23 89.1146 148.235C86.6802 150.291 83.4615 151.232 80.5057 152.313L80.1723 152.436L74.9502 154.382C73.5651 154.898 72.071 155.692 70.8476 154.963C71.8376 157.419 72.6687 159.942 73.8744 162.309C75.3753 165.256 77.1898 167.952 79.4107 170.403C88.2091 180.117 102.134 183.08 114.63 180.234C121.064 178.768 127.326 175.991 131.715 170.924C135.052 167.074 136.969 161.905 137.42 156.807C137.288 156.828 137.15 156.828 137.008 156.796C135.427 156.451 133.831 155.604 132.439 154.772L132.305 154.692C130.967 153.886 129.572 152.962 128.611 151.709C127.657 150.466 126.656 146.408 126.656 146.408C126.383 144.883 126.127 141.846 126.171 140.304C126.175 140.159 126.82 140.073 126.889 140.224C127.485 141.533 127.677 144.408 128.137 145.77L128.23 146.042C128.721 147.464 129.143 149.195 130.161 150.345C132.073 152.504 134.958 153.418 137.534 154.501C137.718 152.061 141.614 152.117 141.565 154.662C141.562 154.8 141.556 154.938 141.551 155.075C141.858 155.244 142.154 155.438 142.43 155.624L142.699 155.807C143.719 156.501 144.747 157.161 145.833 157.75C147.936 158.89 150.162 159.794 152.317 160.829C154.496 161.876 156.535 163.124 158.438 164.617C159.332 165.318 160.189 166.065 161.002 166.858L161.223 167.076C161.997 167.847 163.004 168.709 163.445 169.722C163.542 169.945 164.029 170.465 164.293 170.482C168.386 170.751 172.471 171.13 176.539 171.698C177.592 171.846 178.009 172.389 177.619 173.267C176.282 176.284 171.044 188.336 169.652 191.57C169.814 193.946 169.595 196.743 169.741 199.12C169.956 202.588 170.237 206.055 170.573 209.514C171.777 221.885 173.603 234.197 175.252 246.515C176.078 252.679 176.831 258.853 177.574 265.028C177.949 268.149 178.267 271.273 178.513 274.406C178.615 275.712 178.707 277.019 178.789 278.326L178.859 279.486C178.957 280.945 179.18 282.339 178.277 283.591C177.868 284.159 176.933 284.479 176.395 283.834C175.719 283.022 175.467 282.416 175.402 281.35C175.353 280.535 175.341 279.715 175.304 278.898C175.224 277.128 175.123 275.359 175.004 273.59C174.768 270.055 174.499 266.521 174.187 262.992C173.093 250.616 171.015 238.334 169.631 225.99C168.934 219.766 168.439 213.531 168.177 207.273C168.046 204.148 167.998 201.023 168.029 197.896C168.041 196.727 168.096 195.565 168.176 194.404C166.104 199.113 163.926 203.777 161.648 208.379L161.108 209.469C159.665 212.377 158.183 215.297 156.448 218.039L156.15 218.506C155.447 219.62 154.487 221.376 153.206 221.727C152.313 221.972 151.222 221.8 150.307 221.782C149.399 221.765 148.49 221.761 147.582 221.724C146.564 221.683 145.593 221.55 144.609 221.284C144.445 221.24 144.291 221.192 144.15 221.132C143.158 222.754 141.474 223.99 139.752 224.71C138.373 225.287 136.927 225.683 135.479 226.049L134.968 226.177C133.416 226.564 131.64 226.748 130.764 228.247L130.561 228.595C129.91 229.701 129.285 230.673 128.208 231.466C127.048 232.32 125.674 232.857 124.306 233.275C122.905 233.703 121.471 234.031 120.048 234.381L119.66 234.478C118.721 234.713 117.773 234.929 116.839 235.185C116.441 235.294 116.035 235.406 115.645 235.541C115.187 235.698 114.854 235.943 114.493 236.211C114.169 237.345 112.782 237.961 111.641 237.882C111.043 237.84 110.505 237.637 110.016 237.339C109.163 238.065 108.224 238.716 107.354 239.389C106.136 240.332 104.913 241.268 103.683 242.196C101.148 244.107 98.5938 245.994 96.0127 247.843C91.4314 251.125 86.751 254.257 81.9905 257.273C80.0056 258.53 78.0074 259.786 75.9896 261.011L76.205 261.091L76.6321 261.253C77.6417 261.63 78.7667 262.239 78.9624 263.417C79.1174 264.352 78.5956 264.996 77.6732 265.11C76.577 265.246 75.7239 264.471 75.0412 263.731C74.74 263.405 74.4028 263.102 74.1142 262.766C73.9965 262.629 73.9061 262.471 73.8265 262.305C71.8351 263.479 69.8226 264.613 67.7782 265.674L67.2664 265.938C62.1966 268.531 57.262 271.373 52.1491 273.892C50.8154 274.55 49.1893 275.261 47.4943 275.746C47.9441 277.49 47.9371 279.405 47.9485 281.175C47.9593 282.9 45.2189 282.892 45.2768 281.175L45.3047 280.346C45.3546 278.952 45.4361 277.504 45.7667 276.148C40.7727 276.977 35.7837 275.176 34.8548 274.635C33.8295 274.039 32.8989 273.084 32.1243 272.199C30.467 270.304 29.3168 268.032 28.2964 265.747C26.1106 260.853 24.562 255.621 23.4298 250.39C19.2558 231.101 21.0512 210.455 27.8297 191.965C29.5232 187.345 31.5227 182.827 33.8139 178.473L34.0984 177.935C36.3847 173.628 38.9258 169.339 42.1536 165.674C45.5158 161.857 49.6632 158.889 54.1788 156.585C56.3825 155.46 58.65 154.486 60.9677 153.622C61.3399 153.483 61.7147 153.359 62.0903 153.24C64.5055 151.7 67.4367 150.227 70.3689 150.284C70.5681 150.288 70.7295 150.364 70.8499 150.478C70.9912 150.502 71.1326 150.532 71.2741 150.574C71.5866 150.664 71.9166 151.007 71.8718 151.359L71.8566 151.476C71.8483 151.533 71.8379 151.588 71.8201 151.642C71.9248 151.658 72.0277 151.683 72.1285 151.717C74.9339 150.925 77.6941 149.713 80.4317 148.735L81.0552 148.515C83.3481 147.711 85.7004 146.923 87.5813 145.332C89.4524 143.749 90.8595 141.7 91.8767 139.484C93.13 136.753 93.6911 133.796 94.7202 130.993ZM150.888 274.99C151.443 274.577 152.1 275.056 152.308 275.568C152.99 277.247 152.653 279.857 151.691 281.341C150.694 282.88 148.308 282.272 148.251 280.409C148.191 278.466 149.32 276.158 150.888 274.99ZM156.625 228.623C156.675 228.404 157.014 228.406 157.065 228.623C157.527 230.593 157.516 232.715 157.652 234.735L157.668 234.959C157.831 237.187 157.968 239.421 158.065 241.652C158.257 246.043 158.486 250.434 158.743 254.822C158.87 256.997 159.006 259.173 159.152 261.348C159.608 261.093 160.078 260.87 160.564 260.673C161.294 260.378 162.004 260.345 162.787 260.353C163.742 260.362 164.46 261.202 164.334 262.137C164.196 263.156 163.3 263.592 162.369 263.447C161.338 263.285 160.302 263.035 159.261 262.932C159.377 264.613 159.497 266.294 159.624 267.974C159.793 270.199 160.012 272.42 160.166 274.646C160.181 274.858 160.197 275.071 160.213 275.284C160.834 274.961 161.493 274.796 162.24 274.592L162.435 274.538C163.519 274.226 164.679 273.795 165.683 274.525C166.358 275.015 166.493 275.823 165.934 276.469C165.086 277.451 163.832 277.261 162.661 277.211L162.032 277.188C161.438 277.164 160.89 277.126 160.342 276.977C160.442 278.426 160.496 279.881 160.318 281.31C160.222 282.082 159.206 282.285 158.937 281.497C158.234 279.438 158.089 277.219 157.832 275.063C157.592 273.049 157.446 271.021 157.289 268.998L157.241 268.391C156.887 263.942 156.605 259.49 156.398 255.031C156.191 250.573 156.067 246.115 156.017 241.652C155.995 239.626 156.029 237.593 156.108 235.567L156.133 234.959C156.224 232.875 156.161 230.664 156.625 228.623ZM63.7893 275.319C63.8163 275.034 64.0443 274.68 64.3834 274.724C64.6959 274.765 65.0178 274.745 65.3269 274.797C65.7349 274.865 66.0632 275.106 66.4426 275.257C67.0593 275.504 67.7316 275.632 68.3643 275.833C69.5514 276.212 70.1983 277.463 69.7067 278.63C69.1897 279.857 67.8906 280.136 66.7682 279.621C65.8834 279.215 65.2239 278.566 64.629 277.815L64.4605 277.601C64.2041 277.279 63.9131 276.919 63.8056 276.528C63.701 276.147 63.7525 275.706 63.7893 275.319ZM121.465 269.549C122.943 269.341 124.206 269.846 125.575 270.323L125.686 270.361C127.078 270.842 129.11 271.175 129.824 272.601C130.254 273.461 129.92 274.602 128.906 274.857C127.302 275.259 125.863 274.086 124.536 273.296L124.466 273.255C123.186 272.505 121.864 271.874 121.046 270.579C120.828 270.234 121.017 269.612 121.465 269.549ZM69.8481 151.913C69.2557 152.045 68.6633 152.163 68.0715 152.276C65.8205 153.483 63.6355 154.735 61.3114 155.81C58.8455 156.951 56.3886 158.13 54.0463 159.51C49.3141 162.299 45.4131 165.925 42.1896 170.369C36.6214 178.047 32.4795 186.9 29.5152 195.884C28.7536 198.192 28.072 200.526 27.4691 202.879C28.5351 201.893 29.7972 201.287 31.2125 200.767C31.8123 200.547 32.5589 200.92 32.8629 201.439C32.9996 201.673 33.0767 201.903 33.0626 202.177C33.0311 202.781 32.6381 203.467 31.9896 203.587C30.4775 203.866 29.0073 204.408 27.5493 204.886C27.3284 204.959 27.1384 204.931 26.9867 204.846C25.5393 210.979 24.6339 217.238 24.3131 223.535C24.0419 228.867 24.2092 234.24 24.7995 239.563C25.2531 239.359 25.6967 239.168 26.1941 239.052C26.8391 238.902 27.4735 238.72 28.1027 238.513C29.9183 237.917 30.7465 240.916 28.8907 241.373C28.2 241.543 27.5052 241.684 26.8015 241.788C26.1881 241.878 25.6456 241.838 25.0674 241.744C25.5091 245.065 26.1125 248.362 26.8811 251.613L27.0507 252.324C28.0491 256.475 29.2127 260.666 30.8954 264.589C31.7208 266.513 32.8137 268.341 34.1631 269.946C34.826 270.735 35.5619 271.411 36.3643 272.052C37.0323 272.585 39.3031 273.743 41.9924 273.743C44.6818 273.743 45.4098 273.488 46.7667 273.021C49.45 272.097 51.9977 270.622 54.5141 269.308L54.7743 269.173C55.8871 268.597 56.9956 268.013 58.1012 267.423C57.9615 266.295 58.206 265.348 58.7933 264.307C59.4281 263.18 61.0012 263.741 61.1181 264.894L61.1219 264.938C61.1396 265.197 61.1831 265.462 61.2372 265.726C68.6297 261.675 75.8656 257.341 82.9864 252.824C87.5732 249.914 92.1112 246.917 96.5829 243.833C98.8184 242.291 101.034 240.722 103.228 239.121C104.378 238.283 105.522 237.438 106.66 236.585C107.135 236.23 107.6 235.858 108.075 235.501C107.96 235.356 107.847 235.212 107.738 235.069C105.963 232.744 104.811 229.973 104.238 227.114C103.891 225.389 103.724 223.598 103.673 221.839L103.65 221.074C103.615 219.786 103.606 218.437 103.844 217.189C103.521 217.367 103.191 217.541 102.862 217.727C101.681 218.396 100.5 219.064 99.3165 219.728C96.947 221.057 94.5704 222.372 92.1636 223.633C87.8648 225.886 83.5236 228.029 79.0653 229.95L76.8959 230.886C73.1309 232.506 69.3351 234.097 65.4205 235.301C63.2126 235.98 59.9019 236.821 57.6623 237.339C57.6623 237.339 60.3614 239.883 58.4081 240.758C56.4547 241.633 54.8364 238.276 54.7719 237.972C53.7403 238.188 50.794 238.71 50.794 238.71C47.9942 239.251 45.2797 240.321 42.7771 241.691C41.9071 242.167 41.6648 241.242 42.5865 240.597C45.2818 238.712 48.4257 237.646 51.6695 236.751L51.8289 236.707C53.0189 236.381 54.2069 236.041 55.3923 235.689C55.262 235.217 55.1867 234.728 55.2017 234.188C55.2351 232.985 55.3414 231.779 55.4052 230.577C55.5391 228.055 55.71 225.542 55.9103 223.024C55.9872 222.055 56.0734 221.082 56.1721 220.111C55.5364 219.77 54.9882 219.317 54.2794 219.095L54.1598 219.06C53.4017 218.855 53.6576 217.878 54.3309 217.795C54.9408 217.719 55.5478 217.754 56.1491 217.883C56.2422 217.903 56.3303 217.926 56.4144 217.951C56.5249 217.051 56.6474 216.154 56.7867 215.261C57.1549 212.903 57.4154 210.418 58.1819 208.153C58.2387 207.985 58.4878 207.925 58.5801 208.101C59.6952 210.223 59.734 212.826 59.8596 215.189L59.8752 215.471C60.0233 218.049 60.0317 220.652 59.984 223.234C59.935 225.895 59.8439 228.548 59.7246 231.206C59.6766 232.277 59.6785 233.387 59.4962 234.411C66.1317 232.253 72.6499 229.67 78.8977 226.611C83.305 224.454 87.6742 222.211 91.9936 219.882C94.1578 218.716 96.3322 217.569 98.4941 216.398C99.2515 215.988 100.008 215.576 100.765 215.164L101.9 214.545C102.962 213.965 103.848 213.389 105.085 213.348C105.453 213.336 105.784 213.509 106.019 213.77C106.683 213.299 107.451 213.009 108.258 213.016C109.471 211.339 110.703 209.676 111.984 208.049L112.931 206.844C114.569 204.766 116.304 202.656 118.393 201.074C119.325 200.369 120.351 199.839 121.42 199.402C121.169 199.34 120.922 199.217 120.703 199.013C119.681 198.065 119.541 196.306 119.333 194.983C119.118 193.612 119.201 192.385 119.414 191.019C119.496 190.487 120.376 190.377 120.59 190.865C121.043 191.893 121.522 192.879 121.933 193.919L122.055 194.233C122.496 195.404 123.437 196.635 123.375 197.906C123.358 198.254 123.242 198.557 123.062 198.801C123.959 198.503 124.87 198.237 125.767 197.96C128.589 197.087 131.421 196.24 134.297 195.563C135.063 195.383 135.832 195.216 136.605 195.062C137.01 193.14 137.6 191.253 138.295 189.4C137.637 189.062 137.21 188.497 136.643 187.993C136.113 187.522 135.748 186.948 135.295 186.407C134.883 185.915 135.115 185.026 135.855 185.054L136.065 185.063C136.832 185.099 137.576 185.178 138.272 185.536L138.519 185.664C138.859 185.841 139.232 186.043 139.563 186.282C139.996 185.285 140.447 184.297 140.902 183.319L141.493 182.055C143.025 178.764 144.553 175.347 146.477 172.283C147.332 170.92 148.47 170.07 150.104 169.938C151.786 169.802 153.535 169.977 155.219 170.038C157.172 170.108 159.124 170.19 161.075 170.293C160.575 169.769 160.119 169.186 159.616 168.683C158.783 167.849 157.902 167.059 156.976 166.328C155.144 164.882 153.129 163.691 151.037 162.665C148.943 161.639 146.789 160.744 144.824 159.476C143.581 158.674 142.47 157.665 141.456 156.573C140.818 163.461 137.493 169.86 132.498 174.668C127.31 179.661 120.141 182.404 113.128 183.571C105.974 184.761 98.5082 184.324 91.665 181.837C88.1367 180.554 84.7526 178.722 81.7346 176.424C81.7015 176.624 81.6615 176.821 81.5831 177.007C81.478 177.257 81.3493 177.469 81.2018 177.688L80.9387 178.073C80.7727 178.315 80.6036 178.555 80.4153 178.78C79.9591 179.323 79.3129 179.561 78.6167 179.558C77.2839 179.554 76.2744 178.246 76.6331 176.953C76.8586 176.141 77.3409 175.652 78.0939 175.334C78.3318 175.233 78.5744 175.149 78.8183 175.066L79.0015 175.004C79.248 174.919 79.4927 174.839 79.7464 174.792C78.3174 173.53 76.9915 172.158 75.8041 170.678C72.0801 166.034 68.407 159.531 69.652 153.364C69.6736 153.258 69.7689 153.191 69.8715 153.174C69.9438 152.741 70.1741 152.323 70.4895 152.041C70.2772 151.985 70.0631 151.942 69.8481 151.913ZM108.518 258.538C109.256 258.128 110.018 259.103 109.418 259.705L108.523 260.6C107.693 261.435 106.885 262.279 106.174 263.231L106.001 263.463C105.042 264.769 104.019 266.282 102.446 266.771C100.544 267.361 98.7167 265.043 99.818 263.35C100.78 261.871 102.633 261.313 104.23 260.701C105.741 260.122 107.106 259.323 108.518 258.538ZM47.1659 251.711C47.5993 251.143 48.7291 251.442 48.4331 252.245C47.4716 254.853 47.0797 258.408 44.6514 260.141C43.8681 260.7 42.6374 260.443 41.9924 259.798C41.2595 259.065 41.2302 258.032 41.6493 257.138C42.1605 256.047 43.4179 255.255 44.2992 254.424L44.3783 254.349C45.3264 253.427 46.3519 252.777 47.1659 251.711ZM148.656 254.712C149.43 254.378 151.445 253.73 152.043 254.497C152.071 254.525 152.095 254.556 152.114 254.59C152.26 254.845 152.282 255.204 152.114 255.457C151.418 256.503 150.693 257.284 149.703 258.029L149.592 258.112C148.514 258.904 147.502 259.835 146.189 260.192C144.37 260.688 143.099 258.409 144.377 257.078C145.406 256.006 146.978 255.449 148.342 254.851L148.656 254.712ZM75.5821 239.812C75.2777 239.262 75.8997 238.586 76.4629 238.931C78.0696 239.913 79.9412 240.65 81.7458 241.179C82.4762 241.394 83.1351 242.134 83.0808 242.933L83.0723 243.054C83.0508 243.337 83.0119 243.617 82.8326 243.852C82.2041 244.674 81.3049 244.991 80.3447 244.504C78.2048 243.419 76.7401 241.905 75.5821 239.812ZM122.542 238.145C122.503 237.914 122.672 237.735 122.907 237.78C124.265 238.037 125.519 238.693 126.685 239.447C127.311 239.852 127.914 240.296 128.538 240.705C129.308 241.209 129.597 241.625 129.711 242.551C129.786 243.162 129.216 243.72 128.693 243.889C127.268 244.348 125.635 242.84 124.669 241.86L124.626 241.815C123.615 240.785 122.782 239.566 122.542 238.145ZM163.323 236.544C163.014 235.708 164.081 235.015 164.778 235.425C165.435 235.812 166.148 236.133 166.767 236.576C167.337 236.983 167.856 237.465 168.402 237.907L168.672 238.121C169.673 238.926 171.326 240.918 169.894 242.073C168.531 243.173 166.725 241.768 165.81 240.741L165.746 240.669C165.22 240.061 164.571 239.4 164.189 238.69C163.83 238.021 163.586 237.254 163.323 236.544ZM149.884 171.819C148.178 172.15 147.482 174.258 146.763 175.631C145.067 178.874 143.507 182.175 141.94 185.481C141.458 186.498 140.988 187.522 140.514 188.545C140.485 188.625 140.448 188.704 140.404 188.782C139.434 190.873 138.434 192.95 137.265 194.935C138.335 194.734 139.41 194.564 140.489 194.429C140.434 193.413 141.13 192.053 141.474 191.197L141.503 191.125C141.932 190.029 142.382 188.301 143.486 187.733C143.854 187.543 144.248 187.78 144.276 188.186C144.36 189.393 143.18 190.774 142.603 191.798C142.254 192.418 141.914 193.04 141.583 193.669C141.459 193.905 141.355 194.136 141.228 194.344C141.784 194.284 142.341 194.23 142.9 194.191L143.264 194.166C145.335 194.029 147.534 193.99 149.405 195.012C151.141 195.959 152.028 197.982 151.075 199.824C149.887 202.119 147.27 202.423 144.97 202.609C142.096 202.841 139.216 203.259 136.362 203.668C133.411 204.09 130.632 205.178 127.724 205.738C127.454 205.79 127.285 205.436 127.533 205.285C129.827 203.888 132.615 203.12 135.179 202.337L135.386 202.274C136.777 201.846 138.137 201.358 139.575 201.116C140.972 200.88 142.377 200.69 143.786 200.545L143.923 200.532C145.474 200.402 149.431 200.446 149.264 198.149C149.153 196.629 146.682 196.366 145.555 196.348C140.384 196.265 135.176 197.638 130.262 199.109L129.165 199.438C127.153 200.044 125.138 200.667 123.164 201.377C120.927 202.181 119.164 203.436 117.535 205.152C115.728 207.056 113.978 209.003 112.103 210.842C110.922 212.002 109.725 213.141 108.518 214.27C108.246 214.623 108.028 215.007 107.877 215.505C107.622 216.347 107.68 217.129 107.777 217.994C108.02 220.177 108.073 222.382 108.378 224.559C108.66 226.575 109.055 228.665 109.892 230.535C110.223 231.276 110.654 232.003 111.145 232.654L111.542 233.169C111.714 233.393 111.908 233.638 112.111 233.869C112.409 233.505 112.84 233.269 113.34 233.328C114.405 233.453 115.242 233.423 116.286 233.178C117.094 232.989 117.896 232.767 118.701 232.562C120.281 232.159 121.876 231.792 123.44 231.329L123.709 231.248C124.875 230.89 126.04 230.442 127.011 229.69C128.138 228.815 128.484 227.553 129.319 226.462C131.102 224.131 134.954 224.18 137.563 223.542C139.779 223 141.912 222.144 143.446 220.535L143.536 220.439C143.468 220.152 143.578 219.828 143.845 219.679L143.903 219.647C144.007 219.589 144.119 219.565 144.229 219.567C144.371 219.358 144.508 219.142 144.633 218.912C144.736 218.722 144.993 218.862 144.959 219.049C144.939 219.161 144.911 219.27 144.885 219.379C146.371 218.997 148.002 219.07 149.511 219.071L151.469 219.064C151.808 219.06 152.313 219.043 152.358 219.022L152.404 219.002C152.526 218.949 152.353 219.037 152.438 218.923C152.532 218.798 152.624 218.672 152.715 218.545C153.039 218.09 153.346 217.623 153.647 217.15C150.368 217.986 146.972 218.506 143.624 218.939C140.033 219.405 136.394 219.728 132.77 219.731C131.771 219.732 131.781 218.224 132.77 218.186C136.607 218.039 140.424 217.836 144.236 217.344C146.207 217.089 148.169 216.77 150.121 216.396C150.874 216.253 151.626 216.1 152.376 215.938L152.938 215.815C153.291 215.737 154.287 215.625 154.773 215.299C154.868 215.135 154.964 214.971 155.058 214.807C155.012 214.231 153.548 214.308 153.205 214.307C152.232 214.305 151.259 214.313 150.286 214.316C148.34 214.321 146.394 214.305 144.448 214.289C140.56 214.257 136.657 214.121 132.772 214.288C131.829 214.328 131.333 212.815 132.266 212.417C136.381 210.659 140.949 210.277 145.343 209.737C147.653 209.453 149.965 209.125 152.224 208.55L152.783 208.408C154.202 208.044 155.769 207.6 156.963 206.733C155.167 206.006 152.935 206.09 151.073 205.987L150.931 205.978C148.324 205.818 145.713 205.736 143.101 205.732C137.757 205.725 132.412 205.914 127.074 206.168C126.94 206.174 126.912 205.963 127.042 205.934C132.529 204.737 138.105 204.16 143.719 204.071C146.334 204.03 148.95 204.066 151.563 204.182L152.522 204.226C154.749 204.323 157.221 204.348 159.085 205.694C159.369 205.899 159.518 206.161 159.542 206.438C162.041 201.454 164.35 196.365 166.668 191.311C168.47 187.38 170.204 183.417 172.072 179.518L172.677 178.256C173.486 176.573 174.316 174.889 175.237 173.267C171.793 172.806 168.33 172.486 164.864 172.242C161.707 172.018 151.405 171.524 149.884 171.819ZM148.359 225.839C148.752 225.62 149.354 225.798 149.451 226.283C149.523 226.644 149.646 227.044 149.646 227.413C149.646 227.855 149.488 228.336 149.403 228.768C149.21 229.763 148.971 230.571 148.466 231.457C148.149 232.011 147.511 232.388 146.869 232.373C146.36 232.361 145.91 232.225 145.561 231.831C145.143 231.36 144.856 230.666 145.086 230.031C145.686 228.368 146.79 226.711 148.359 225.839ZM65.0573 224.179C65.9763 222.569 68.1547 221.13 70.0557 221.272C72.9101 221.486 73.4926 225.331 70.729 226.249C69.0771 226.797 66.8045 226.234 65.3594 225.331C64.9698 225.088 64.827 224.583 65.0573 224.179ZM35.7209 218.678C35.5121 218.375 35.8571 218.028 36.1681 218.096C36.8579 218.248 37.6016 218.314 38.2772 218.52C38.9691 218.73 39.6388 219.079 40.3242 219.319C41.76 219.823 43.2936 220.075 44.6831 220.682C45.2385 220.925 45.6754 221.73 45.624 222.323L45.611 222.462C45.5802 222.756 45.5292 223.013 45.3646 223.282C44.9224 224.005 44.0463 224.378 43.2194 224.156C41.6854 223.743 40.1864 222.684 38.8785 221.805L38.6368 221.644C38.0653 221.267 37.4509 220.873 36.9904 220.389C36.5098 219.883 36.1147 219.251 35.7209 218.678ZM88.4527 212.822C88.2761 212.185 89.0673 211.765 89.5285 212.195C90.4501 213.054 91.4137 213.85 92.3162 214.731L92.3768 214.791C93.0231 215.441 93.9634 216.693 93.1228 217.533C92.0458 218.611 90.546 217.012 89.9682 216.179C89.2353 215.122 88.7956 214.057 88.4527 212.822ZM158.975 207.562C157.608 209.01 155.501 209.676 153.647 210.228C151.448 210.882 149.182 211.272 146.914 211.594C144.723 211.904 142.548 212.182 140.392 212.538C142.023 212.558 143.654 212.57 145.282 212.599C147.159 212.633 149.035 212.674 150.912 212.728C152.278 212.768 153.882 212.581 155.181 213.089C155.415 213.18 155.633 213.307 155.824 213.461C156.916 211.519 157.963 209.55 158.975 207.562ZM74.6494 194.016C76.0763 193.562 77.418 192.96 78.9307 193.117C79.3328 193.158 79.6207 193.55 79.4012 193.936C78.6843 195.198 77.5187 195.911 76.3712 196.755L76.27 196.83C75.014 197.764 73.6655 198.616 72.2997 199.383C69.948 200.703 67.8407 196.925 70.2155 195.816C71.6445 195.149 73.1456 194.494 74.6494 194.016ZM100.339 190.735C102.522 190.879 104.704 190.977 106.89 191.065C109.422 191.167 108.571 195.065 106.456 194.276C104.366 193.497 102.277 192.727 100.168 192C99.5266 191.779 99.5782 190.725 100.299 190.734L100.339 190.735ZM44.348 183.801C44.9137 183.762 45.4844 183.885 46.051 183.94L46.6539 183.999C47.8968 184.122 49.0621 184.275 50.2474 184.781C52.4344 185.715 51.2598 189.232 49.0643 189.151C47.4415 189.092 46.0539 188.394 44.6837 187.583C43.4858 186.873 42.7514 185.986 41.9425 184.871C41.6746 184.502 42.0479 184.089 42.4127 184.052C43.0554 183.986 43.7051 183.846 44.348 183.801ZM153.978 176.619C153.617 178.878 152.718 180.995 151.365 182.839C150.684 183.765 149.49 183.8 148.816 182.839C147.862 181.479 148.45 179.92 149.169 178.614L149.381 178.232C149.703 177.658 150.197 176.822 150.762 176.244L150.771 176.185C151.074 173.819 154.351 174.292 153.978 176.619ZM65.6824 162.121C66.2266 161.63 67.2289 161.778 67.4055 162.576C67.6527 163.693 67.8031 164.953 67.6413 166.087C67.5536 166.702 67.5206 167.392 67.2789 167.965C67.0191 168.582 66.5192 169.055 66.0483 169.519C65.1082 170.444 63.1263 170.138 62.8744 168.68L62.8424 168.502C62.7158 167.812 62.5538 167.075 62.7413 166.392C62.8829 165.876 63.1993 165.35 63.4611 164.872L63.5163 164.77C64.0406 163.793 64.858 162.863 65.6824 162.121ZM142.181 164.499L142.377 164.501C143.896 164.531 146.674 164.901 146.688 166.778C146.692 167.221 146.364 167.68 145.925 167.781C145.017 167.992 144.43 167.455 143.783 166.913C143.254 166.47 142.637 166.116 141.996 165.861C141.304 165.585 141.349 164.497 142.181 164.499Z" fill="black"/>
<path fill-rule="evenodd" clip-rule="evenodd" d="M146.805 109.396C145.483 99.8335 142.459 90.5493 142.025 80.8437C141.766 76.6905 141.508 72.537 141.25 68.3833C141.152 65.7892 137.791 64.914 136.507 67.2122C133.588 63.9676 128.363 64.4455 124.376 64.5439C100.905 65.3777 78.6017 81.2861 70.5449 103.467C70.3512 103.996 70.4098 104.559 70.6288 105.062C66.8735 117.617 80.1542 125.7 89.2119 131.298C92.8863 135.191 97.2055 138.425 102.082 140.64C107.693 143.285 113.938 144.761 120.136 144.902C121.497 144.933 122.314 143.83 122.412 142.689C124.39 142.227 127.774 142.76 128.819 140.729C140.745 135.536 148.515 122.375 146.805 109.396V109.396Z" fill="#FDC6A0"/>
<path fill-rule="evenodd" clip-rule="evenodd" d="M141.225 75.4847C141.191 75.1747 141.638 75.1652 141.729 75.4162C142.485 77.4805 143.269 79.5306 143.868 81.6471C144.445 83.6868 144.861 85.7728 145.282 87.85C145.98 91.2971 146.58 94.7696 147.077 98.2533C148.138 97.4222 149.527 97.3466 150.834 97.9933C151.448 98.2966 151.682 99.0987 151.535 99.7209C151.417 100.22 151.273 100.717 151.099 101.203C151.47 101.532 151.785 101.937 152.013 102.403C152.615 103.629 152.421 104.915 151.881 106.085C151.922 106.154 151.963 106.225 152.001 106.299C152.783 107.82 152.365 109.183 151.794 110.668C151.366 111.778 151.605 113.029 150.682 113.868C150.362 114.9 149.881 115.861 149.18 116.728C149.021 117.02 148.783 117.255 148.5 117.428C148.429 119.057 148.258 120.682 147.935 122.292C146.682 128.543 142.704 134.113 137.78 138.042C132.961 141.886 127.302 144.183 121.196 144.926C118.231 145.287 115.261 145.173 112.321 144.658L111.954 144.593C109.241 144.099 105.957 143.282 104.081 141.23C103.094 140.151 103.671 137.776 105.415 138C106.34 138.119 107.144 138.267 108.014 138.609C108.693 138.876 109.373 139.133 110.07 139.351C111.404 139.767 112.784 140.092 114.17 140.272C117.057 140.646 120.057 140.547 122.911 139.982C128.1 138.956 133.141 136.589 137.079 133.025C141.657 128.882 144.34 123.519 144.735 117.335C145.175 110.447 144.381 103.394 143.723 96.5415C143.38 92.9771 142.945 89.4199 142.422 85.8777C141.91 82.4166 141.603 78.9604 141.225 75.4847ZM100.714 53.2433L100.936 53.2092C109.748 51.8648 119.02 51.9601 127.303 55.6059C128.891 56.3052 130.444 57.1485 131.907 58.1271C132.955 58.0174 134.01 57.9284 135.045 57.9138C136.347 57.8967 137.619 58.5752 137.779 59.8961C138.999 60.0483 140.123 60.4984 140.842 61.399C141.122 61.7496 141.31 62.1554 141.405 62.5781C142.155 62.7559 142.891 63.0283 143.589 63.3876C144.437 63.8251 144.926 65.0425 144.626 65.943C144.557 66.1475 144.479 66.3466 144.391 66.5414L144.323 66.6868L144.363 66.7417C145.04 67.8323 144.569 69.2631 143.532 69.9141C142.754 70.4023 141.886 70.7912 140.992 70.9793C141.066 71.3386 141.133 71.7 141.188 72.0656C141.209 72.2138 141.019 72.3195 140.935 72.1734C140.935 72.1734 141.255 73.1731 141.738 74.2745C141.928 74.7075 141.321 75.0922 141.089 74.6547C140.473 73.488 140.092 72.2918 139.533 71.0892C139.017 71.0554 138.502 70.937 138.006 70.7109C137.682 70.5629 137.435 70.3135 137.258 70.0155C137.248 70.0282 137.241 70.043 137.231 70.0578C135.567 72.203 132.316 72.9554 129.803 73.6339C127.105 74.3632 124.343 74.8132 121.571 75.145C116.73 75.722 111.852 75.8298 106.988 76.054C106.666 76.0686 106.345 76.0849 106.023 76.1005C104.048 77.8378 101.503 78.9174 98.8933 79.2456C97.5709 79.4118 96.0066 79.3695 94.5236 79.0309C93.9869 79.5804 93.3087 79.9875 92.5683 80.1965C92.435 82.965 90.8952 85.5861 88.5673 87.114L88.6086 87.2786C89.187 89.6426 89.1796 92.2267 87.1059 93.8698C86.8248 94.0921 86.5181 94.2828 86.1955 94.4409L86.2664 94.6042C87.3375 97.1138 87.6796 99.8859 85.6662 101.968C84.8498 102.812 83.4164 102.612 82.8042 101.644L82.7743 101.595C82.7404 101.537 82.7037 101.482 82.6685 101.425C82.6139 101.537 82.5304 101.631 82.4064 101.684C81.6412 102.014 81.3355 101.771 80.6376 101.431C79.9925 101.114 79.3116 100.877 78.6161 100.693C78.0488 100.545 77.4837 100.439 76.9145 100.378C73.3179 101.756 70.9947 105.983 71.547 109.95C71.8464 112.11 73.0293 114.249 75.0909 115.145C75.9932 115.538 77.0537 115.703 78.0298 115.57C79.3516 115.39 80.3678 114.556 81.736 115.033C82.2757 115.221 82.6133 115.646 82.6426 116.227C82.6913 117.14 82.3685 117.825 81.8246 118.332C82.7838 119.135 83.5575 120.251 84.3903 121.141C85.4319 122.255 86.488 123.369 87.6137 124.396C88.6763 125.37 89.8065 126.275 91.0038 127.078L91.1296 127.161C92.6298 128.141 94.5202 129.01 94.5919 131.058C94.6151 131.675 94.242 132.241 93.736 132.556C91.8451 133.731 89.7873 132.188 88.3052 131.058C87.7086 130.603 87.1289 130.132 86.5702 129.644C86.197 129.673 85.7901 129.612 85.3664 129.424C85.0944 129.306 84.8288 129.166 84.5674 129.018C83.7178 129.232 82.9166 129.044 82.2568 128.598C81.3059 128.832 80.2982 128.86 79.4423 128.672C78.6603 128.498 77.9623 128.128 77.3868 127.632C76.1851 128.016 74.8506 127.945 73.6658 127.215C72.9553 126.778 72.4008 126.154 72.0994 125.425C71.9459 125.184 71.8477 124.903 71.8402 124.594L71.84 124.476C70.807 124.5 69.7719 124.144 68.9729 123.325C68.2392 122.572 67.881 121.634 67.8408 120.68C66.8014 120.385 65.8506 119.778 65.1275 118.842C63.93 117.29 63.77 115.373 64.3856 113.661C64.3453 113.571 64.3095 113.478 64.2779 113.385C63.3228 112.034 62.6925 110.405 62.7431 108.771C62.7494 108.517 62.7831 108.268 62.8337 108.021C61.8935 107.52 61.202 106.64 61.1282 105.522C61.0713 104.645 61.3854 103.787 61.9525 103.138C61.6763 102.477 61.554 101.758 61.6384 101.04C61.7248 100.302 61.9841 99.6616 62.3638 99.1271C62.3552 98.9327 62.3657 98.7359 62.3973 98.5351C62.3594 98.3386 62.3278 98.1357 62.3111 97.9288C62.1317 95.6629 63.6918 93.6804 65.5913 92.6342C66.0909 92.3595 66.6306 92.1355 67.1703 91.9452C67.5625 91.8058 68.1528 91.7593 68.4985 91.5035C68.4838 91.493 68.6271 91.3072 68.6524 91.2076C68.6798 91.0851 68.7093 90.9646 68.7243 90.8399C68.781 90.3157 68.7389 89.7768 68.7283 89.2505C68.6819 86.8623 68.7557 84.4634 69.0066 82.0879C69.4725 77.6833 70.6217 73.3739 72.8604 69.5252C74.7388 66.3 77.3109 63.5757 80.2603 61.3164C86.135 56.8182 93.4661 54.3725 100.714 53.2433ZM73.4884 108.019C72.7237 106.176 76.3239 106.158 77.2758 106.245L77.3039 106.248C79.4464 106.462 82.7962 107.495 83.6728 109.662C84.0356 110.559 82.9615 111.532 82.102 111.237C81.2606 110.948 80.7887 110.328 80.1135 109.785C79.9364 109.643 79.7517 109.51 79.5637 109.382C79.6627 109.698 79.8212 109.99 80.0412 110.208L80.093 110.257C81.1299 111.191 79.2757 112.658 78.5875 111.422C78.2211 110.764 78.0744 110.042 78.1887 109.295C78.2226 109.074 78.2816 108.873 78.3675 108.68C78.2991 108.646 78.2319 108.609 78.1627 108.576L78.0393 108.518C77.2141 108.143 73.6928 106.669 73.7214 107.987C73.7245 108.133 73.5358 108.133 73.4884 108.019Z" fill="black"/>
<path fill-rule="evenodd" clip-rule="evenodd" d="M123.152 128.274C121.732 127.695 120.465 126.728 119.538 125.493C119.216 125.063 119.133 124.61 119.2 124.195C119.276 123.729 119.552 123.306 119.928 123.023C120.305 122.739 120.777 122.598 121.233 122.67C121.63 122.732 122.024 122.949 122.337 123.399L122.402 123.489C122.953 124.235 123.67 124.846 124.488 125.241C125.276 125.621 126.158 125.798 127.07 125.695C128.808 125.499 130.005 124.559 131.278 123.282C131.436 123.121 131.594 122.955 131.752 122.786C131.852 122.633 131.991 122.534 132.146 122.483C132.317 122.425 132.511 122.429 132.689 122.491C132.86 122.55 133.013 122.664 133.116 122.815C133.213 122.958 133.269 123.135 133.251 123.339C133.134 124.661 132.443 125.842 131.461 126.769C130.37 127.799 128.924 128.511 127.563 128.761C126.064 129.036 124.536 128.839 123.152 128.274V128.274ZM128.271 107.866C129.866 108.836 132.297 111.098 130.581 113.503C128.56 115.624 125.652 113.193 124.219 112.093C122.89 111.241 121.396 113.433 122.629 114.428C132.987 122.099 137.19 108.12 129.078 106.726C128.184 106.572 127.853 107.566 128.271 107.866ZM109.711 98.9429C109.887 96.7541 113.219 96.257 113.551 98.423C113.847 100.363 113.498 102.145 112.624 103.892C111.79 105.561 109.692 104.783 109.533 103.263C109.32 101.226 109.601 100.304 109.711 98.9429ZM135.076 97.9739C135.541 97.3652 136.212 96.9497 137.015 97.1845C139.526 97.9185 138.786 101.485 137.904 103.22C137.425 104.163 135.876 104.402 135.176 103.572C134.036 102.219 133.489 99.5157 134.94 98.1825C134.979 98.1136 135.023 98.044 135.076 97.9739ZM112.589 89.3654L112.986 89.2959C114.213 89.0836 115.738 88.8796 116.606 89.8665C117.067 90.3898 117.225 91.3624 116.606 91.8633C115.518 92.7446 114.314 92.4031 113.01 92.4777C111.935 92.5394 110.902 92.7174 109.867 93.0135C107.595 93.6629 105.744 94.8486 103.804 96.1505C103.55 96.3213 103.29 95.9956 103.411 95.7574C104.531 93.563 106.701 91.7604 108.875 90.6616C110.036 90.0751 111.305 89.5885 112.589 89.3654ZM132.787 88.3823L133.091 88.4445C136.395 89.1353 140.687 90.5153 142.251 93.7615C142.311 94.2205 142.248 94.3189 142.197 94.3832L142.18 94.4046C142.137 94.4595 142.104 94.5351 141.905 94.5976C141.85 94.5844 141.794 94.5705 141.737 94.5557C141.02 94.3677 140.453 94.1087 139.904 93.84L139.308 93.5465C138.617 93.2076 137.92 92.881 137.181 92.6399C135.605 92.1255 133.983 91.7631 132.337 91.5696C131.98 91.5277 131.636 91.4072 131.365 91.2006C131.108 91.0046 130.911 90.7332 130.821 90.3724C130.705 89.9056 130.739 89.5521 130.989 89.1309C131.177 88.8146 131.447 88.5953 131.756 88.4694C132.071 88.3411 132.43 88.3108 132.787 88.3823Z" fill="black"/>
<path fill-rule="evenodd" clip-rule="evenodd" d="M147.178 109.153C144.613 111.805 140.331 112.566 136.919 111.144C128.156 107.481 132.445 96.0578 139.203 92.99C140.047 92.7795 141.175 92.2801 142.203 92.1668C142.296 92.1212 142.498 92.2533 142.743 92.1284C150.195 92.9607 151.892 104.533 147.178 109.153M118.915 109.832C116.038 113.649 110.69 114.827 106.32 113.052C97.6872 109.651 100.749 99.5216 106.656 95.5503C119.132 90.8603 124.285 102.794 118.915 109.832M100.201 101.374C100.193 101.371 100.185 101.369 100.177 101.365C100.222 101.345 100.268 101.325 100.313 101.304C100.299 101.343 100.283 101.381 100.268 101.42C100.246 101.404 100.226 101.386 100.201 101.374M153.117 97.2481C152.413 97.2496 151.395 97.3654 150.812 97.8543C149.374 93.0031 144.067 88.5134 139.451 91.7872C135.816 92.9566 133.119 95.5501 131.586 98.9981C128.822 97.3534 124.476 98.0557 122.079 100.231C120.509 95.0418 116.646 93.2248 112.048 92.9566C107.029 92.1343 102.027 97.0103 100.466 100.922C99.168 100.774 97.2287 100.361 96.0078 101.162C88.0838 99.0835 74.2299 97.9373 72.619 99.0924C71.471 99.533 70.841 102.244 72.4445 102.39C73.8418 102.192 72.2814 100.404 73.6899 100.209C81.1948 99.7433 88.4804 101.255 95.9058 101.89C96.5687 102.782 98.7108 103.08 99.8535 102.722C98.0537 109.357 101.939 113.872 107.76 115.224C116.775 117.296 124.617 109.229 122.26 100.838C124.991 99.4791 128.131 99.5375 131.106 100.253C126.135 118.554 155.598 117.733 150.997 98.4813C154.059 100.005 154.724 97.5556 153.117 97.2481" fill="black"/>
</g>
<defs>
<clipPath id="clip0_2016_14165">
<rect width="200" height="267" fill="white"/>
</clipPath>
</defs>
</svg>
