<svg width="200" height="267" viewBox="0 0 200 267" fill="none" xmlns="http://www.w3.org/2000/svg">
<g clip-path="url(#clip0_2016_14171)">
<rect width="200" height="267" fill="white"/>
<path fill-rule="evenodd" clip-rule="evenodd" d="M161.079 176.597C159.237 169.454 157.544 166.425 154.272 163.942C151.213 161.62 146.746 159.669 140.229 158.244C133.441 157.057 133.249 153.528 131.547 147.857C131.05 146.152 128.59 145.698 127.528 146.927C127.378 146.766 127.222 146.618 127.06 146.484C127.205 145.671 126.021 143.34 126.061 142.562C126.474 134.444 123.819 130.367 117.192 128.852C115.751 128.522 105.963 128.328 104.557 128.716C98.4147 130.415 92.3676 135.808 93.293 142.305C91.3648 144.826 89.4776 146.364 86.5027 147.176C81.8701 147.765 84.1973 213.41 92.2432 252.739C95.6953 269.613 178.24 240.892 174.51 232.441C175.039 230.892 174.075 229.189 174.51 227.59C174.825 226.432 175.631 225.953 176.037 224.807C176.608 223.194 175.987 221.029 175.344 219.383C175.08 218.563 175.829 217.68 176.037 216.843C177.023 212.894 174.764 213.242 173.136 210.602C173.16 210.594 173.584 208.71 173.582 208.719C173.831 207.374 173.206 205.65 172.662 204.527C172.293 203.768 171.504 203.293 170.721 203.38C171.51 200.7 172.508 198.47 173.582 195.887C175.48 191.336 177.286 186.574 180.012 182.455C181.128 180.768 180.226 179.216 178.42 179.101C172.572 178.729 166.789 177.887 161.079 176.597Z" fill="#FDC6A0"/>
<path fill-rule="evenodd" clip-rule="evenodd" d="M151.95 177.149L138.603 199.744C138.603 199.744 141.769 200.061 143.051 200.676C144.332 201.292 150.216 208.774 150.216 208.774L151.151 212.894L148.935 216.216L149.799 218.301C149.799 218.301 150.416 216.888 151.95 215.791C153.485 214.695 156.869 212.894 156.869 212.894C156.869 212.894 155.745 212.292 155.745 211.586C155.745 210.879 154.754 207.865 156.869 206.726C158.984 205.588 169.915 202.923 169.915 202.923L180.993 179.549L151.95 177.149Z" fill="#EC7495"/>
<path fill-rule="evenodd" clip-rule="evenodd" d="M92.4066 147.33L134.79 154.77L154.273 163.942L157.453 166.393L138.603 199.744L109.496 205.056L102.081 224.323L103.594 246.04L150.945 240.393L171.37 237.966L176.171 257.354L175.304 265.33L174.042 269.375L123.408 283.049C123.408 283.049 97.6239 280.549 93.0533 280.549C88.4827 280.549 54.9717 283.878 54.9717 283.878L47.2182 283.049C47.2182 283.049 30.0636 264.964 27.4029 258.527C24.7423 252.091 18.9888 212.965 18.9888 212.965L19.6223 206.953L34.4435 168.801C34.4435 168.801 36.4227 167.003 38.9179 163.942C41.4131 160.881 92.4066 147.33 92.4066 147.33Z" fill="#9DDADB"/>
<path fill-rule="evenodd" clip-rule="evenodd" d="M169.116 202.441C165.286 202.636 161.451 203.547 157.986 205.197C156.569 205.873 155.284 206.85 154.908 208.456C154.718 209.276 154.765 210.124 154.866 210.952C154.942 211.58 154.961 212.381 155.506 212.806C155.599 212.877 155.698 212.932 155.802 212.973C154.524 213.55 153.307 214.243 152.225 214.957C151.236 215.61 150.22 216.616 149.764 217.751C149.726 217.622 149.688 217.502 149.65 217.388C148.872 215.088 147.675 213.205 145.788 211.939C145.574 211.158 143.274 207.797 141.139 207.924C138.8 208.061 136.919 208.232 134.804 209.308C134.033 209.291 133.264 209.301 132.503 209.335C132.372 209.339 132.379 209.517 132.503 209.532C133.12 209.61 133.737 209.697 134.354 209.798C135.82 210.033 137.282 210.331 138.712 210.701C140.428 211.145 142.203 211.59 143.806 212.366C146.916 213.873 148.841 217.813 148.446 221.241C148.38 221.803 148.163 223.502 147.383 223.327C146.724 223.179 146.462 221.803 146.232 221.293C145.615 219.941 144.503 219.057 143.17 218.459C141.605 217.755 139.929 217.28 138.307 216.726C137.388 216.411 136.469 216.096 135.548 215.784C134.605 215.46 133.71 215.014 132.706 215.24C132.1 215.378 132.03 216.101 132.37 216.515C132.888 217.147 133.657 217.333 134.403 217.593C135.387 217.935 136.37 218.278 137.352 218.62C138.871 219.148 140.462 219.594 141.943 220.241L141.896 220.347C141.776 220.313 141.634 220.433 141.658 220.581C141.879 221.949 142.188 223.53 141.845 224.899C141.575 225.985 140.622 227.188 139.384 226.869C139.579 226.691 139.651 226.385 139.52 226.102C139.029 225.053 132.607 220.915 132.034 222.452C132.015 222.507 132.074 222.547 132.121 222.539C132.609 222.437 133.427 223.27 133.817 223.534C134.381 223.914 134.954 224.286 135.512 224.677C136.122 225.104 136.718 225.552 137.299 226.015C137.755 226.379 138.1 226.757 138.624 226.941C138.349 227.072 138.131 227.315 138.039 227.625C137.802 228.435 137.346 229.122 136.553 229.479C135.723 229.851 134.787 229.616 133.913 229.708C132.721 229.828 131.682 230.394 130.813 231.204C128.99 232.907 128.075 235.909 125.525 236.714C124.002 237.194 122.312 236.891 120.77 236.673C119.048 236.43 117.37 236.238 115.636 236.492C113.975 236.735 112.405 237.31 110.889 238.011C109.467 238.669 107.895 239.413 106.634 240.393C106.374 239.592 106.112 238.8 105.913 237.982C105.444 236.048 105.191 234.078 105.129 232.091C105.072 230.2 105.178 228.3 105.34 226.417C105.421 225.476 105.548 224.54 105.628 223.599C105.649 223.363 105.691 223.109 105.723 222.856C107.975 221.526 110.341 220.507 112.726 219.459C112.733 219.457 112.739 219.453 112.746 219.451C112.82 219.417 112.891 219.385 112.965 219.353C112.963 219.349 112.961 219.345 112.957 219.341C113.229 219.174 113.42 218.952 113.534 218.702C116.971 216.422 119.844 213.309 121.986 209.678C122.884 208.156 123.748 206.577 124.923 205.244C126.174 203.821 127.659 202.976 129.497 202.536C131.646 202.021 133.86 201.712 136.061 201.536C137.263 201.442 138.607 201.293 139.917 201.3C140.829 201.306 141.723 201.384 142.543 201.61C143.758 201.944 144.467 202.868 145.23 203.802C145.959 204.698 146.684 205.597 147.364 206.531C148.008 207.416 148.617 208.331 149.145 209.291C149.462 209.866 149.755 210.458 150.003 211.068C150.089 211.284 150.203 211.529 150.256 211.753C150.309 211.979 150.212 212.218 150.465 212.218C149.42 212.233 148.725 214.842 149.764 214.78C151.225 214.695 151.96 212.942 151.674 211.387C151.163 208.613 148.404 205.262 147.858 204.552C146.652 202.984 145.408 200.938 143.477 200.209C143.449 200.199 143.42 200.188 143.392 200.18C143.954 199.647 144.398 199.009 144.822 198.36C145.26 197.692 145.781 196.927 145.925 196.134C146.016 195.629 145.389 195.342 145.091 195.783C144.658 196.428 144.448 197.244 144.125 197.952C143.796 198.671 143.394 199.349 143.077 200.074C142.315 199.839 141.491 199.732 140.652 199.696C141.71 198.263 143.519 195.498 143.736 195.143C144.738 193.499 145.691 191.804 146.601 190.107C147.586 188.268 148.429 186.353 149.371 184.493C149.905 183.439 150.444 182.375 151.038 181.352C151.243 181.002 151.463 180.651 151.712 180.332C151.76 180.268 151.822 180.216 151.879 180.156C151.944 180.12 152.012 180.08 152.05 180.059C152.392 179.863 152.513 179.406 152.753 179.116C153.138 178.65 153.59 178.595 154.169 178.588C155.402 178.575 156.641 178.624 157.872 178.658C159.683 178.708 161.491 178.78 163.3 178.875C163.847 178.905 164.392 178.935 164.939 178.968C167.57 179.125 170.198 179.33 172.82 179.582C175.139 179.803 177.459 180.165 179.781 180.338C176.637 187.809 173.151 195.145 169.205 202.226C169.165 202.297 169.135 202.369 169.116 202.441ZM151.674 221.689C151.167 221.921 150.675 222.211 150.216 222.541C150.292 222.027 150.311 221.486 150.29 220.943C150.668 221.348 151.152 221.581 151.674 221.689ZM173.318 208.837C173.282 208.841 173.248 208.86 173.232 208.896C172.53 210.343 172.824 211.96 173.969 213.095C174.569 213.687 175.877 214.355 175.834 215.327C175.798 216.113 174.943 216.773 174.577 217.422C174.237 218.026 174.11 218.69 174.383 219.345C174.732 220.184 175.705 220.518 176.039 221.342C176.462 222.388 175.775 223.65 175.294 224.561C174.846 225.404 174.267 226.247 173.882 227.139C171.307 228.473 165.463 230.895 164.76 231.031C163.902 231.197 163.042 231.356 162.18 231.504C160.526 231.791 158.867 232.058 157.205 232.292C156.258 232.425 155.31 232.556 154.361 232.66C153.533 232.749 152.599 232.869 151.932 232.246C150.586 230.986 151.34 228.875 152.191 227.602C152.208 227.577 152.208 227.554 152.202 227.533C153.005 227.344 153.805 227.125 154.604 226.97C156.14 226.674 157.686 226.425 159.235 226.203C162.417 225.749 165.62 225.449 168.818 225.147C169.61 225.07 169.619 223.824 168.818 223.897C164.223 224.318 159.605 224.717 155.071 225.603C153.934 225.823 152.806 226.072 151.684 226.353C151.154 226.484 150.586 226.689 150.03 226.696C149.996 226.696 149.962 226.696 149.929 226.693C148.841 226.66 148.682 225.728 149.28 224.952C149.354 224.857 149.43 224.762 149.508 224.671C150.565 223.411 151.881 222.57 153.237 221.699C154.756 221.492 156.271 221.031 157.758 220.693C161.43 219.856 165.102 219.019 168.776 218.184C169.496 218.02 169.19 216.912 168.47 217.075C165.681 217.707 162.892 218.339 160.103 218.971L156.022 219.897C155.206 220.08 154.188 220.45 153.229 220.584C152.755 220.649 152.297 220.657 151.883 220.56C150.546 220.243 150.478 218.571 151.055 217.578C151.701 216.462 152.922 215.765 154.006 215.133C155.884 214.036 157.883 213.247 159.835 212.339C160.182 212.262 160.528 212.186 160.875 212.11C162.89 211.666 165.193 211.449 167.09 210.635C167.658 210.394 167.348 209.498 166.786 209.511C165.313 209.543 163.773 210.067 162.334 210.377C160.777 210.715 159.218 211.051 157.661 211.387C157.505 211.421 156.579 211.717 156.44 211.652C156.351 211.609 156.32 211.301 156.29 211.098C156.195 210.43 156.125 209.729 156.229 209.058C156.457 207.556 157.71 206.85 158.977 206.273C161.8 204.99 164.895 204.187 167.975 203.865C168.685 203.792 169.395 203.745 170.109 203.722C170.948 203.696 171.639 203.548 172.063 204.375C172.731 205.677 173.098 207.351 173.318 208.837ZM169.398 256.04C168.783 253.913 168.951 251.641 168.529 249.47C168.312 248.351 168.015 247.24 167.691 246.147C167.43 245.264 166.993 244.324 166.944 243.403C166.941 243.341 167.013 243.306 167.063 243.334C167.931 243.831 168.597 244.906 169.092 245.749C169.684 246.758 170.137 247.815 170.502 248.926C171.229 251.14 171.826 253.81 170.888 256.04C170.609 256.705 169.629 256.837 169.398 256.04ZM145.397 272.149C144.48 271.509 143.812 270.615 143.035 269.825C142.271 269.049 143.466 267.853 144.23 268.63C144.893 269.303 145.469 270.144 146.249 270.689C146.625 270.951 146.799 271.424 146.553 271.845C146.335 272.217 145.771 272.41 145.397 272.149ZM140.286 247.559C141.959 246.835 143.604 246.047 145.355 245.526C146.401 245.214 146.844 246.846 145.804 247.156C144.192 247.636 142.679 248.352 141.139 249.019C140.15 249.446 139.29 247.989 140.286 247.559ZM122.617 247.052C122.208 246.043 123.844 245.607 124.247 246.603C124.711 247.749 125.243 248.866 125.707 250.011C126.116 251.021 124.481 251.457 124.078 250.461C123.613 249.315 123.081 248.199 122.617 247.052ZM105.178 267.219C104.906 267.583 104.451 267.78 104.022 267.523C103.662 267.307 103.443 266.734 103.719 266.366C104.524 265.292 105.34 264.231 106.285 263.273C107.05 262.497 108.245 263.693 107.48 264.469C106.637 265.324 105.898 266.26 105.178 267.219ZM102.685 154.064C103.46 154.594 104.14 155.238 104.803 155.901C105.573 156.671 104.378 157.867 103.607 157.096C103.049 156.538 102.486 155.971 101.832 155.524C101.454 155.266 101.284 154.786 101.528 154.367C101.747 153.993 102.308 153.807 102.685 154.064ZM128.056 181.273C127.617 182.151 127.223 183.013 127.198 184.011C127.171 185.099 125.481 185.1 125.508 184.011C125.54 182.704 126.022 181.571 126.597 180.419C127.083 179.444 128.54 180.302 128.056 181.273ZM137.365 159.421C138.274 158.815 139.119 160.28 138.218 160.881C137.488 161.367 136.758 161.855 136.028 162.342C135.119 162.947 134.274 161.482 135.174 160.881C135.905 160.395 136.635 159.908 137.365 159.421ZM96.9884 197.627C96.8334 198.702 95.2049 198.242 95.3585 197.178C95.5962 195.533 95.8863 193.91 96.3322 192.308C96.6242 191.26 98.2541 191.708 97.962 192.758C97.516 194.36 97.2259 195.983 96.9884 197.627ZM91.0626 216.995C89.9748 216.972 89.9746 215.281 91.0626 215.304C92.0471 215.325 93.0149 215.584 93.9646 215.822C95.0209 216.086 94.5705 217.716 93.5152 217.452C92.7124 217.251 91.895 217.013 91.0626 216.995ZM88.8751 256.01C88.5014 256.192 88.1179 256.356 87.7402 256.529C86.9837 256.875 86.2275 257.222 85.4716 257.569C83.8968 258.292 82.3229 259.018 80.7504 259.746C77.6025 261.203 74.4303 262.61 71.2748 264.052C68.057 265.522 64.8477 267.012 61.6423 268.51C60.1322 269.215 58.6106 269.895 57.092 270.581C55.7936 271.169 54.1886 272.195 52.7632 272.292C52.6898 272.297 52.6653 272.204 52.7072 272.156C53.2457 271.544 54.1047 271.187 54.8125 270.789C55.5354 270.382 56.2719 269.999 57.005 269.611C58.5333 268.801 60.0635 267.997 61.6066 267.216C64.6932 265.653 67.7858 264.102 70.8789 262.553C74.0336 260.972 77.1842 259.382 80.3665 257.857C81.8649 257.14 83.3646 256.424 84.8653 255.711C85.6782 255.325 86.4916 254.939 87.305 254.554C87.6563 254.388 88.0041 254.208 88.3632 254.059C88.8405 253.862 89.2032 253.902 89.6955 253.78C90.4983 253.582 90.8458 254.603 90.2296 255.048C89.7221 255.414 89.4551 255.727 88.8751 256.01ZM77.592 273.348C77.4185 272.926 77.7817 272.413 78.1822 272.308C78.662 272.181 79.0468 272.473 79.2219 272.898C79.6852 274.026 80.3452 275.06 81.1947 275.934C81.954 276.715 80.7595 277.911 79.9996 277.13C78.935 276.034 78.1702 274.754 77.592 273.348ZM69.291 246.208C68.5206 245.437 69.7159 244.242 70.4862 245.013L72.6766 247.204C73.4471 247.975 72.2515 249.17 71.4815 248.399L69.291 246.208ZM46.8185 242.636C45.2437 243.098 43.407 243.522 42.3333 244.866C42.2809 244.932 42.1928 244.848 42.2243 244.782C43.5988 241.932 47.5406 240.932 50.2698 239.933C52.2001 239.227 54.1808 238.641 56.1781 238.117C55.9784 235.838 56.529 233.395 56.7204 231.127C56.9247 228.705 57.091 226.277 57.1763 223.848C57.2636 221.37 57.2847 218.875 57.2032 216.396C57.122 213.927 56.8015 211.487 56.6613 209.026C56.6477 208.788 56.979 208.776 57.0504 208.973C57.8798 211.257 58.2341 213.787 58.5041 216.196C58.7822 218.677 58.8745 221.151 58.839 223.646C58.8022 226.212 58.6531 228.771 58.4484 231.329C58.3514 232.541 58.2388 233.752 58.1325 234.963C58.0514 235.888 58.0138 236.805 57.8253 237.7C59.03 237.404 60.2374 237.124 61.441 236.852C65.2789 235.986 69.1328 235.182 72.9546 234.245C74.8307 233.786 76.6799 233.235 78.5475 232.746C80.3061 232.285 82.1623 231.727 83.9678 231.521C84.6122 231.448 84.6942 232.33 84.2676 232.629C82.8001 233.66 80.8512 234.377 79.1562 234.954C77.4551 235.533 75.6868 235.95 73.9432 236.379C70.307 237.273 66.6365 238.005 62.9714 238.767C59.3114 239.528 55.6444 240.283 52.0256 241.222C50.2829 241.674 48.546 242.128 46.8185 242.636ZM38.1889 197.402C37.2479 197.954 36.3984 196.493 37.336 195.942C38.5628 195.221 39.8703 194.68 41.1884 194.152C42.2 193.747 42.6352 195.383 41.6378 195.783C40.4532 196.257 39.2913 196.755 38.1889 197.402ZM34.7815 260.218C33.838 260.766 32.9879 259.304 33.9286 258.758C35.2499 257.992 36.6969 257.481 38.0661 256.811C39.0403 256.333 39.8959 257.792 38.919 258.271C37.55 258.941 36.1028 259.452 34.7815 260.218ZM33.249 224.561C34.1613 225.428 35.3788 225.836 36.5268 226.291C37.5278 226.688 37.0888 228.323 36.0775 227.922C34.6472 227.354 33.1903 226.836 32.0539 225.756C31.2633 225.005 32.4605 223.811 33.249 224.561ZM43.3415 176.135C44.3444 176.529 43.9051 178.163 42.8921 177.766C41.7686 177.325 40.6083 176.989 39.4848 176.548C38.4821 176.155 38.9211 174.52 39.9341 174.918C41.0577 175.359 42.2179 175.694 43.3415 176.135ZM61.1456 156.901C62.2113 156.721 62.6651 158.35 61.595 158.531C60.2674 158.755 58.9601 159.018 57.7009 159.505C56.6841 159.899 56.2478 158.263 57.2515 157.875C58.5109 157.387 59.8182 157.125 61.1456 156.901ZM67.0284 203.732C66.0513 203.252 66.9086 201.794 67.8813 202.272C68.9063 202.776 69.9684 203.166 71.0868 203.404C72.1518 203.631 71.6982 205.261 70.6375 205.035C69.3787 204.766 68.181 204.299 67.0284 203.732ZM72.5845 177.352C73.6366 177.064 74.0815 178.696 73.0339 178.983C71.1906 179.488 69.2927 179.751 67.4359 180.2C66.3777 180.457 65.93 178.826 66.9865 178.57C68.8434 178.12 70.7414 177.858 72.5845 177.352ZM96.1548 169.074C97.2246 169.272 96.7687 170.902 95.7056 170.705C94.5739 170.495 93.4269 170.492 92.2795 170.491C91.1902 170.491 91.1921 168.8 92.2795 168.801C93.583 168.801 94.8699 168.837 96.1548 169.074ZM173.027 177.908C170.265 177.643 167.5 177.432 164.73 177.274C164.601 177.267 164.475 177.259 164.345 177.252C164.331 177.223 164.312 177.195 164.293 177.166C163.389 175.838 162.723 174.511 162.146 173.01C161.595 171.582 161.06 170.109 160.211 168.82C159.242 167.351 157.935 166.201 156.501 165.205C155.632 165.79 154.825 166.475 154.087 167.201C153.31 167.964 152.115 166.769 152.892 166.005C153.548 165.36 154.248 164.764 154.988 164.226C154.134 163.706 153.262 163.218 152.411 162.733C149.223 160.913 145.959 159.23 142.627 157.692C141.079 156.975 139.511 156.339 137.933 155.695C137.083 155.348 136.245 154.902 135.396 154.501C135.457 153.9 135.277 153.228 134.817 152.833C134.477 152.543 134.213 152.436 133.807 152.231C133.716 152.199 133.661 152.18 133.636 152.169C133.655 152.173 133.71 152.19 133.8 152.22C134.016 152.319 134.033 152.29 133.851 152.133C133.841 151.791 133.167 151.068 133.013 150.715C132.476 149.504 132.309 148.223 131.517 147.12C130.425 145.6 128.591 145.026 126.881 145.541C126.704 143.713 126.658 141.805 125.969 140.173C125.95 140.129 125.889 140.11 125.861 140.158C125.143 141.382 125.082 142.745 125.027 144.157C124.974 145.482 125.024 146.837 125.198 148.154C125.088 148.238 124.976 148.319 124.86 148.397C124.315 148.756 123.727 149.033 123.11 149.238C121.936 149.627 120.704 149.796 119.472 149.855C116.293 150.007 113.016 149.686 109.889 149.141C106.727 148.589 101.878 147.76 99.0639 146.177C97.2067 145.134 95.4935 143.859 93.7567 142.625C94.3865 140.596 94.547 138.415 93.9132 136.7C93.8372 136.495 93.5161 136.457 93.4548 136.7C93.0576 138.336 92.9414 139.981 92.4132 141.597C92.4048 141.621 92.3963 141.646 92.3879 141.669C92.2231 141.558 92.0583 141.447 91.8935 141.338C91.5132 141.086 90.9956 141.274 90.7675 141.633C87.1187 147.384 81.3407 147.714 75.2731 148.741C68.6327 149.865 61.959 151.079 55.5745 153.279C49.4689 155.384 43.6336 158.449 39.0111 163.026C37.9647 164.063 36.9861 165.167 36.0625 166.32C36.9561 166.433 37.8424 166.608 38.7172 166.883C39.7531 167.209 39.3079 168.841 38.2679 168.514C37.1435 168.16 36.0067 167.985 34.8582 167.898C31.7173 172.197 29.2683 177.071 27.1506 181.868C23.0885 191.066 20.4445 200.862 19.2278 210.835C19.8958 210.434 20.5759 210.053 21.2729 209.698C22.2413 209.205 23.0955 210.665 22.126 211.158C21.0494 211.706 20.0036 212.31 18.9903 212.965C18.5477 217.33 18.3762 221.724 18.4801 226.11C18.7273 236.568 20.1386 247.332 23.3308 257.31C24.8963 262.207 26.971 267.064 30.0618 271.202C31.4604 273.076 33.0491 274.767 34.921 276.177C35.8273 276.862 36.7865 277.473 37.7984 277.988C39.102 278.656 40.8006 278.876 41.9245 279.821C42.2942 280.131 42.5794 280.541 42.7949 281.004C42.6703 281.883 42.6555 282.765 42.8963 283.644C42.9724 283.919 43.1794 284.143 43.4351 284.25C43.4393 284.327 43.4393 284.401 43.4393 284.472C43.4393 284.506 43.49 284.515 43.4963 284.481C43.5069 284.415 43.5175 284.35 43.528 284.282C43.6104 284.31 43.697 284.323 43.7858 284.323C46.9949 284.335 50.2081 284.256 53.4215 284.147C53.173 283.386 52.9039 282.631 52.6455 281.869C52.2946 280.835 53.9275 280.395 54.2752 281.42C54.5775 282.31 54.8936 283.193 55.1748 284.086C58.6178 283.958 62.0598 283.804 65.4956 283.691C72.8034 283.447 80.109 283.367 87.4187 283.213C98.7703 282.972 110.204 282.479 121.574 282.961C121.967 282.127 122.407 281.311 122.824 280.488C123.316 279.516 124.774 280.372 124.284 281.341C123.994 281.913 123.693 282.478 123.408 283.049C125.71 283.169 128.011 283.327 130.306 283.543C134.223 283.91 138.102 284.563 142.015 284.969C145.993 285.383 149.884 285.31 153.831 284.652C154.541 284.534 154.959 284.105 155.132 283.572C155.138 283.57 155.143 283.566 155.147 283.559C155.35 283.323 155.54 283.126 155.736 282.955C155.971 282.803 156.225 282.674 156.522 282.56C157.078 282.348 157.657 282.219 158.244 282.133C158.891 282.036 159.546 282.027 160.192 281.947C160.737 281.877 161.27 281.773 161.802 281.647C162.759 281.419 163.667 281.121 164.572 280.725C165.36 280.381 166.071 279.886 166.744 279.347C168.134 278.331 169.338 277.033 170.39 275.684C171.003 274.896 171.579 274.078 172.103 273.227C173.016 271.751 173.794 270.219 174.579 268.674C174.865 268.216 175.125 267.747 175.363 267.269C173.827 266.816 172.276 266.447 170.648 266.421C169.56 266.403 169.56 264.712 170.648 264.73C172.515 264.76 174.282 265.196 176.037 265.716C176.122 265.489 176.204 265.26 176.28 265.028C176.489 264.544 176.663 264.047 176.806 263.544C176.89 263.316 176.975 263.088 177.06 262.86C177.25 262.069 177.44 261.277 177.632 260.484C178.015 259.216 178.317 257.929 178.539 256.625C178.725 255.767 178.868 254.902 178.965 254.027C179.261 251.908 179.502 249.792 179.519 247.649C179.494 246.328 179.409 245.009 179.265 243.697C179.204 242.805 179.101 241.917 178.961 241.036C178.779 239.725 178.6 238.428 178.298 237.134C178.072 236.259 177.846 235.384 177.62 234.509C177.055 232.685 176.39 230.897 175.623 229.149C175.581 229.04 175.367 228.798 175.239 228.796C175.141 228.794 175.006 228.883 175.05 229.002C175.055 229.012 175.059 229.025 175.063 229.035C175.019 228.936 174.977 228.834 174.932 228.735C174.894 228.642 174.746 228.456 174.632 228.458C174.626 228.458 174.619 228.458 174.611 228.46C174.641 228.439 174.668 228.412 174.696 228.38C175.454 227.482 175.946 226.3 176.489 225.26C176.939 224.402 177.364 223.498 177.486 222.528C177.594 221.676 177.448 220.837 176.914 220.148C176.305 219.364 175.16 218.996 175.796 217.863C176.519 216.574 177.582 215.456 176.523 213.991C175.984 213.245 175.131 212.835 174.497 212.186C173.768 211.436 173.421 210.432 173.441 209.407C173.485 209.432 173.544 209.42 173.565 209.356C174.178 207.505 173.734 205.472 173.107 203.669C172.765 202.691 172.04 202.422 171.197 202.374C174.848 195.241 178.264 187.993 181.308 180.579C181.41 180.336 181.509 180.093 181.608 179.85C181.756 179.486 181.444 179.002 181.082 178.922C178.45 178.345 175.708 178.161 173.027 177.908Z" fill="black"/>
<path fill-rule="evenodd" clip-rule="evenodd" d="M99.7852 55.5158C131.739 53.9405 133.971 63.2511 138.359 69.187C140.537 72.1327 146.159 76.4953 147.092 86.5695C147.739 93.5626 143.618 101.623 143.618 107.872C143.618 111.061 147.513 117.909 145.7 122.558C141.663 132.906 133.117 144.389 122.225 144.389C111.334 144.389 91.23 138.372 79.1957 121.098C75.254 115.44 67.831 57.0912 99.7852 55.5158Z" fill="#FDC6A0"/>
<path fill-rule="evenodd" clip-rule="evenodd" d="M146.296 108.496C145.598 107.724 145.056 107.09 144.875 106.029C144.799 105.587 144.765 105.133 144.75 104.677C147.552 100.75 150.276 91.4742 150.276 86.4009C150.275 79.2436 147.643 72.3569 143.321 66.661C134.896 55.567 120.873 49.8796 107.148 50.3258C94.0054 50.7504 80.0262 55.6072 71.8278 65.9891C44.6267 100.434 67.4562 138.058 84.1769 145.885C85.6324 146.567 90.3333 146.33 89.6783 144.875C87.7969 140.695 86.3146 132.995 85.9688 131.262C86.5043 131.624 87.044 131.977 87.5859 132.342C88.5451 132.987 89.8311 133.724 91.037 133.511C91.0939 133.501 91.1298 133.439 91.1319 133.386C91.1867 132.251 90.3771 131.085 89.6646 130.275C88.6758 129.151 87.7355 127.999 86.6709 126.944C86.2176 126.494 85.758 126.048 85.2984 125.602C85.2394 122.926 85.4186 120.238 85.8972 117.548C86.7257 112.883 88.1551 108.339 89.7974 103.867C91.1698 102.852 92.5022 101.785 93.7355 100.618C96.706 97.8096 98.9723 94.3733 100.916 90.7592C100.939 90.7484 100.965 90.7357 100.988 90.7254C104.755 88.9688 108.491 87.1451 112.197 85.2641C114.109 84.2938 116.009 83.3004 117.908 82.3073C118.941 81.766 120.006 81.2736 121.062 80.7642C120.778 82.2268 120.394 83.6682 119.928 85.0863C119.544 86.2511 120.717 87.1111 121.754 86.9187C125.285 86.2638 128.698 84.9471 131.77 83.0829C133.292 82.1593 134.74 81.092 136.083 79.9209C137.426 81.9266 139.058 83.8077 140.705 85.4268C141.816 86.5195 142.977 87.5591 144.183 88.5442C143.637 92.3126 143.169 96.0892 142.577 99.8494C142.267 101.815 141.894 103.78 141.66 105.756C141.404 107.91 142.115 109.444 143.53 111.019C145.507 113.219 145.505 116.402 144.748 119.135C144.655 119.473 144.539 119.803 144.419 120.13C144.394 120.198 144.32 120.382 144.293 120.454C144.293 120.456 144.293 120.458 144.291 120.462C144.291 120.464 144.289 120.467 144.289 120.468C144.286 120.468 144.286 120.471 144.284 120.473V120.477V120.479L144.282 120.481C144.194 120.688 144.099 120.891 144.004 121.094C143.572 122.009 143.089 122.903 142.587 123.783C140.121 128.124 137.005 132.095 133.454 135.599C131.802 137.231 130.083 138.748 128.142 139.991C127.733 140.251 127.315 140.502 126.887 140.733C126.657 140.857 126.421 140.974 126.185 141.092C125.839 141.263 125.983 141.196 125.772 141.28C125.39 141.43 125 141.561 124.602 141.665C124.389 141.72 124.174 141.766 123.957 141.806C123.955 141.806 123.951 141.809 123.944 141.809C123.942 141.809 123.94 141.811 123.938 141.809C123.936 141.811 123.932 141.811 123.927 141.811C123.847 141.817 123.704 141.83 123.676 141.83C120.649 141.84 117.647 141.433 114.717 140.678C113.129 140.268 111.544 139.771 110.051 139.089C109.292 138.74 108.55 138.353 107.84 137.915C107.521 137.719 107.22 137.482 106.884 137.311C106.383 137.053 105.892 137.081 105.35 137.058C104.523 137.024 103.937 137.89 104.14 138.651C104.386 139.579 104.774 140.126 105.571 140.678C106.208 141.118 106.882 141.506 107.57 141.859C109.066 142.631 110.65 143.258 112.252 143.772C115.252 144.731 118.41 145.321 121.551 145.537C123.839 145.693 125.821 145.387 127.903 144.421C130.102 143.4 132.073 141.876 133.897 140.295C137.981 136.757 141.533 132.465 144.546 127.986C147.377 123.776 149.574 119.192 148.851 113.965C148.562 111.869 147.71 110.064 146.296 108.496" fill="black"/>
<path fill-rule="evenodd" clip-rule="evenodd" d="M123.152 128.274C121.732 127.695 120.465 126.728 119.538 125.493C119.216 125.063 119.133 124.61 119.2 124.195C119.276 123.729 119.552 123.306 119.928 123.023C120.305 122.739 120.777 122.598 121.233 122.67C121.63 122.732 122.024 122.949 122.337 123.399L122.402 123.489C122.953 124.235 123.67 124.846 124.488 125.241C125.276 125.621 126.158 125.798 127.07 125.695C128.808 125.499 130.005 124.559 131.278 123.282C131.436 123.121 131.594 122.955 131.752 122.786C131.852 122.633 131.991 122.534 132.146 122.483C132.317 122.425 132.511 122.429 132.689 122.491C132.86 122.55 133.013 122.664 133.116 122.815C133.213 122.958 133.269 123.135 133.251 123.339C133.134 124.661 132.443 125.842 131.461 126.769C130.37 127.799 128.924 128.511 127.563 128.761C126.064 129.036 124.536 128.839 123.152 128.274V128.274ZM128.271 107.866C129.866 108.836 132.297 111.098 130.581 113.503C128.56 115.624 125.652 113.193 124.219 112.093C122.89 111.241 121.396 113.433 122.629 114.428C132.987 122.099 137.19 108.12 129.078 106.726C128.184 106.572 127.853 107.566 128.271 107.866ZM109.711 98.9429C109.887 96.7541 113.219 96.257 113.551 98.423C113.847 100.363 113.498 102.145 112.624 103.892C111.79 105.561 109.692 104.783 109.533 103.263C109.32 101.226 109.601 100.304 109.711 98.9429ZM135.076 97.9739C135.541 97.3652 136.212 96.9497 137.015 97.1845C139.526 97.9185 138.786 101.485 137.904 103.22C137.425 104.163 135.876 104.402 135.176 103.572C134.036 102.219 133.489 99.5157 134.94 98.1825C134.979 98.1136 135.023 98.044 135.076 97.9739ZM112.589 89.3654L112.986 89.2959C114.213 89.0836 115.738 88.8796 116.606 89.8665C117.067 90.3898 117.225 91.3624 116.606 91.8633C115.518 92.7446 114.314 92.4031 113.01 92.4777C111.935 92.5394 110.902 92.7174 109.867 93.0135C107.595 93.6629 105.744 94.8486 103.804 96.1505C103.55 96.3213 103.29 95.9956 103.411 95.7574C104.531 93.563 106.701 91.7604 108.875 90.6616C110.036 90.0751 111.305 89.5885 112.589 89.3654ZM132.787 88.3823L133.091 88.4445C136.395 89.1353 140.687 90.5153 142.251 93.7615C142.311 94.2205 142.248 94.3189 142.197 94.3832L142.18 94.4046C142.137 94.4595 142.104 94.5351 141.905 94.5976C141.85 94.5844 141.794 94.5705 141.737 94.5557C141.02 94.3677 140.453 94.1087 139.904 93.84L139.308 93.5465C138.617 93.2076 137.92 92.881 137.181 92.6399C135.605 92.1255 133.983 91.7631 132.337 91.5696C131.98 91.5277 131.636 91.4072 131.365 91.2006C131.108 91.0046 130.911 90.7332 130.821 90.3724C130.705 89.9056 130.739 89.5521 130.989 89.1309C131.177 88.8146 131.447 88.5953 131.756 88.4694C132.071 88.3411 132.43 88.3108 132.787 88.3823Z" fill="black"/>
</g>
<defs>
<clipPath id="clip0_2016_14171">
<rect width="200" height="267" fill="white"/>
</clipPath>
</defs>
</svg>
