<svg width="200" height="267" viewBox="0 0 200 267" fill="none" xmlns="http://www.w3.org/2000/svg">
<g clip-path="url(#clip0_2016_14161)">
<rect width="200" height="267" fill="white"/>
<path fill-rule="evenodd" clip-rule="evenodd" d="M97.0963 126.02C111.157 119.963 121.542 124.665 124.922 132C127.597 137.805 127.65 150.085 132.881 154.95C158.346 173.752 163.898 206.513 169.097 235.803C171.426 249.947 172.907 264.229 173.506 278.551C173.561 279.865 172.309 281.13 170.99 281.069C133.379 279.25 95.6897 279.388 58.0796 281.014C55.8602 281.03 53.6102 280.825 51.5151 280.037C48.5631 281.195 46.694 277.633 46.7688 275.168C46.5184 273.533 44.8813 272.4 43.6893 271.355C40.8678 269.013 38.5864 266.324 37.0323 262.975C34.8083 258.435 34.503 253.44 32.5226 248.886C31.6243 246.255 31.2807 243.509 30.8557 240.78C29.7486 238.042 29.3996 235.104 29.2802 232.196C25.1066 229.572 27.1369 223.137 27.5204 219.082C28.1749 214.375 28.8717 209.668 29.7231 204.992C34.7033 172.817 57.3801 154.439 88.5243 147.952C94.7785 143.967 94.7785 127.018 97.0963 126.02Z" fill="#FDC6A0"/>
<path fill-rule="evenodd" clip-rule="evenodd" d="M115.732 175.82L115.96 176.088L116.191 176.355C117.816 178.216 119.626 179.913 121.473 181.566L122.002 182.038L122.51 182.489L125.102 184.778L126.257 185.79C128.573 187.809 130.911 189.802 133.227 191.817C139.314 197.109 145.39 202.409 151.432 207.752C154.62 210.57 157.8 213.4 160.963 216.251C160.249 216.215 159.53 216.304 158.806 216.31C157.637 216.32 156.467 216.251 155.309 216.097C154.902 216.042 154.496 215.976 154.092 215.902L153.789 215.844L153.486 215.784L153.478 215.727L153.474 215.712C153.458 215.678 153.411 215.687 153.39 215.715L153.384 215.727L153.381 215.739L153.378 215.76L153.077 215.695C151.771 215.405 150.484 215.028 149.218 214.604C145.445 213.338 141.778 211.707 138.226 209.915C131.318 206.431 124.817 202.156 118.851 197.233C115.591 194.543 112.477 191.645 109.43 188.716C109.657 188.08 109.868 187.448 110.094 186.858C110.608 185.516 111.106 184.164 111.596 182.811L111.889 182L112.217 181.088L112.287 180.887L112.594 179.984C113.023 178.736 113.524 177.477 114.547 176.631C114.794 176.428 115.056 176.248 115.325 176.075L115.46 175.989L115.732 175.82ZM79.2699 154.963C80.3134 153.155 82.3072 153.557 84.0553 154.165L84.1169 154.186L84.361 154.274L84.6036 154.363L85.3354 154.64L85.6656 154.767C87.4139 155.455 89.0707 156.332 90.7654 157.135L91.1049 157.295L90.7349 157.457L90.4874 157.568L90.2395 157.68C88.3804 158.527 86.5237 159.539 85.2951 161.152C85.0093 160.841 84.5725 160.649 84.1472 160.493L84.0677 160.464L83.7028 160.335L82.4228 159.868L80.0049 158.99L79.9599 158.974C79.5506 158.838 78.6546 158.682 78.372 158.373C78.2318 158.221 78.226 158.027 78.2504 157.828L78.256 157.786L78.2833 157.616L78.3039 157.499L78.3284 157.375C78.5005 156.55 78.8579 155.676 79.2699 154.963Z" fill="#FDEA6B"/>
<path fill-rule="evenodd" clip-rule="evenodd" d="M92.6431 140.399L92.7838 140.011C93.6354 137.656 94.6788 137.481 94.176 139.764L94.1 140.107C93.6645 142.06 93.1435 144.079 92.0762 145.787C90.2361 148.733 85.4148 149.826 82.1995 150.874C82.2098 150.948 82.2098 151.022 82.2014 151.092C84.1662 151.392 86.1838 152.339 87.8295 153.4C89.3359 154.374 90.6964 155.467 91.7105 156.919L96.6713 154.763C98.3086 154.053 99.9584 153.208 101.737 152.922C104.245 152.521 108.111 153.865 107.816 157.029C107.777 157.456 107.509 157.773 107.18 157.929C107.431 157.908 107.685 157.901 107.936 157.91C109.613 157.967 111.984 159.453 111.107 161.412C110.883 161.917 110.237 161.585 110.186 161.163C109.854 158.384 106.983 159.037 104.991 159.491C103.189 159.901 101.408 160.404 99.665 161.019C97.8014 161.676 95.9993 162.513 94.3366 163.589C92.6213 164.701 91.0178 166.049 91.1234 168.268C91.1274 168.315 91.0537 168.338 91.0324 168.294C90.1472 166.404 91.8711 164.411 93.272 163.323C95.3 161.748 97.6748 160.615 100.075 159.732C101.309 159.279 102.581 158.922 103.858 158.606L104.152 158.534C104.902 158.352 105.68 158.143 106.461 158.016C106.172 157.945 105.92 157.735 105.808 157.356L105.794 157.303C104.665 152.833 98.619 156.429 96.1706 157.509C94.419 158.28 92.6465 159.02 90.9143 159.838L90.6911 159.944C89.3481 160.589 87.9484 161.35 87.0457 162.564C84.7303 165.671 86.8091 169.866 87.5401 173.146C87.7493 174.087 87.95 175.084 87.9626 176.051C87.9729 176.841 87.7305 177.587 87.5343 178.348L87.4199 178.796V178.796C87.5211 178.798 87.6246 178.904 87.5908 179.011C86.7692 181.695 85.3788 184.24 84.0246 186.688C82.6429 189.186 81.2211 191.671 79.6957 194.083C74.2704 202.659 68.0591 210.756 61.2457 218.274C57.9795 221.878 54.4472 225.24 51.2591 228.915C49.776 230.625 48.3882 232.417 47.2302 234.37C46.6049 235.425 46.0429 236.52 45.5697 237.655L45.4763 237.879C45.0883 238.807 44.707 239.625 43.9852 240.366C43.6262 240.736 42.9077 240.58 42.7936 240.051C42.2633 237.566 44.0213 234.882 45.2974 232.853C46.6746 230.663 48.2845 228.622 49.9957 226.683C50.4795 226.134 50.9718 225.593 51.4704 225.058C49.2396 225.671 46.8901 225.834 44.6169 226.235C42.2887 226.645 39.9753 227.134 37.7192 227.844C35.6464 228.495 33.6732 229.355 31.7868 230.433C30.8824 230.951 29.9974 231.519 29.1692 232.155C29.0908 232.215 29.0148 232.278 28.9387 232.339C30.2908 235.738 31.3302 239.263 32.4162 242.748C33.1575 245.131 33.8822 247.52 34.6021 249.911L36.219 255.29C37.3854 259.168 38.357 263.387 40.4129 266.914C41.3002 268.436 42.5 269.811 43.8732 270.915C44.5389 271.452 45.2636 271.86 46.0155 272.255C46.4887 272.504 46.907 272.828 47.3464 273.123C47.6357 272.793 48.0745 272.589 48.613 272.675L48.6732 272.686C50.3739 273.02 52.1276 272.418 53.6401 271.674C55.2162 270.896 56.7861 269.983 58.119 268.833C60.7408 266.57 62.9148 263.748 65.034 261.026C72.5887 251.312 79.022 240.673 84.2655 229.543C86.9295 223.883 89.4164 218.128 91.7528 212.324C92.9213 209.425 94.0725 206.519 95.1943 203.6L95.3424 203.21C96.3474 200.531 97.2274 197.624 98.8429 195.262C98.8556 195.241 98.8727 195.224 98.8915 195.212C98.8957 195.144 98.9171 195.08 98.9509 195.025C99.4516 194.224 100.411 193.989 101.241 193.618C102.177 193.197 103.111 192.779 104.044 192.36C104.78 192.03 105.857 191.752 106.408 191.126C107.034 190.422 107.243 189.169 107.547 188.298C108.236 186.33 108.982 184.386 109.727 182.439C110.382 180.73 110.949 178.895 111.868 177.302C112.652 175.942 113.773 175.225 115.069 174.443L115.35 174.273C115.892 173.943 116.47 173.547 116.684 172.929C117.035 171.918 116.256 170.952 115.427 170.471C113.587 169.403 111.384 170.635 109.77 171.576C108.147 172.523 106.565 173.66 104.83 174.394C104.792 174.408 104.765 174.351 104.792 174.326C106.187 173.048 107.891 171.995 109.492 170.956L109.89 170.697C110.953 170.001 112.164 169.323 113.444 169.135C113.178 169.046 113.26 168.702 113.513 168.67C116.032 168.363 118.588 168.757 121.081 168.169C123.306 167.645 125.247 166.387 126.802 164.732C128.268 163.173 129.43 161.368 130.514 159.529C131.144 158.46 131.759 157.382 132.396 156.316C132.492 156.156 132.587 155.978 132.684 155.788C131.543 155.524 130.381 154.674 129.606 154.015C128.401 152.992 127.523 151.61 126.91 150.168C125.473 146.785 125.587 142.915 126.663 139.453C126.728 139.242 127.041 139.231 127.102 139.453C127.928 142.418 128.002 145.633 129.299 148.461C129.819 149.593 130.544 150.612 131.435 151.479C131.887 151.916 132.344 152.284 132.897 152.588C133.491 152.916 134.125 153.023 134.596 153.544C134.623 153.573 134.649 153.603 134.672 153.634C134.948 153.597 135.185 153.637 135.375 153.756L135.415 153.782L135.424 153.77C134.573 153.189 133.717 152.614 132.811 152.106C132.57 151.971 132.745 151.648 132.986 151.69L133.582 151.796C135.574 152.151 137.604 152.554 139.423 153.44C141.441 154.425 143.368 155.562 145.206 156.849C148.827 159.381 152.123 162.372 155.006 165.717C160.326 171.891 164.087 179.314 166.413 187.095C169.32 196.82 170.444 207.034 171.671 217.08C172.258 221.888 172.784 226.706 173.252 231.529L173.378 232.844C173.613 235.326 173.866 237.803 174.105 240.278C174.527 240.941 174.557 241.73 174.308 242.414C174.492 244.42 174.657 246.428 174.788 248.442C175.121 253.639 175.337 258.853 175.43 264.063C175.523 269.347 175.33 274.622 175.269 279.906C175.244 282.129 171.876 282.121 171.823 279.906C171.688 274.068 171.27 268.229 170.972 262.395C170.68 256.702 170.41 251.01 170.061 245.321C170.027 244.779 169.996 244.236 169.966 243.695C169.475 243.882 168.866 243.96 168.35 244.062L168.223 244.088C167.185 244.309 166.145 244.468 165.091 244.564L164.749 244.593C163.793 244.659 158.889 244.764 155.991 244.236C156.221 247.958 156.454 251.68 156.709 255.4C157.001 259.641 157.056 263.89 157.269 268.136C157.377 270.258 157.506 272.365 157.776 274.474C157.899 275.434 158.025 276.396 158.176 277.352L158.254 277.83C158.389 278.652 158.558 279.356 158.209 280.09C158.513 281.03 158.04 282.216 156.794 282.121C148.804 281.523 140.794 281.269 132.783 281.233C118.952 281.168 105.129 281.722 91.3036 282.102L87.5673 282.203C74.6174 282.558 61.6035 282.936 48.7136 281.504C48.6859 283.154 45.6014 283.135 45.7662 281.294L45.8066 280.85C45.9922 278.847 46.2328 276.772 46.8542 274.844C46.3387 274.859 45.8211 274.838 45.3352 274.677C44.6445 274.451 43.981 274.041 43.381 273.635C42.0457 272.735 40.9176 271.625 39.9438 270.344C38.0317 267.831 36.7619 264.854 35.7584 261.88C34.6914 258.71 33.7151 255.504 32.803 252.287L31.8213 248.803C30.5751 244.372 29.3515 239.873 28.6091 235.326C28.5291 235.431 28.419 235.522 28.2734 235.588C24.3014 237.363 20.9042 233.721 20.2324 230.04C19.8368 227.869 19.9296 225.646 19.9628 223.448L19.9662 223.213C20 220.681 20.0105 218.149 20.1396 215.619C20.5662 207.161 22.5373 198.965 25.6028 191.086C28.4908 183.669 31.981 176.194 36.4769 169.606C38.6126 166.478 41.076 163.473 44.0443 161.095C47.1753 158.591 50.6952 156.686 54.3819 155.135C58.1488 153.55 62.0549 152.297 65.9657 151.113C70.2798 149.807 74.6445 148.685 79.0833 147.896C79.4063 147.839 79.7232 147.934 79.903 148.23C80.0591 148.49 80.2049 148.757 80.3465 149.027C80.9528 148.647 81.8845 148.554 82.491 148.368C84.3943 147.778 87.819 147.425 89.3276 146.081C91.0477 144.549 91.8746 142.507 92.6431 140.399ZM28.269 232.929C28.0009 233.174 27.7324 233.419 27.4558 233.65C27.8169 233.497 28.1443 233.599 28.3852 233.823C28.3431 233.525 28.3049 233.227 28.269 232.929ZM115.59 175.769C115.18 176.023 114.775 176.276 114.405 176.581C113.077 177.68 112.628 179.474 112.074 181.038L112.039 181.137C111.358 183.031 110.672 184.929 109.951 186.808C109.726 187.398 109.514 188.03 109.288 188.666C112.334 191.595 115.449 194.493 118.708 197.183C124.675 202.106 131.175 206.381 138.084 209.864C141.635 211.656 145.303 213.288 149.076 214.554C150.439 215.011 151.827 215.412 153.236 215.71L153.238 215.689V215.689C153.244 215.638 153.327 215.615 153.335 215.676L153.344 215.733V215.733C153.948 215.858 154.557 215.964 155.167 216.046C156.325 216.201 157.495 216.27 158.663 216.26C159.388 216.253 160.106 216.164 160.82 216.201C157.658 213.349 154.478 210.519 151.29 207.702C145.248 202.359 139.172 197.059 133.085 191.766C130.383 189.416 127.65 187.094 124.959 184.728L122.368 182.438C120.078 180.412 117.802 178.354 115.818 176.038L115.59 175.769ZM88.5837 191.477C88.3999 191.251 88.679 190.963 88.9051 191.156C90.2551 192.299 91.7802 192.8 93.4007 193.415C93.7788 193.559 93.7495 194.161 93.3016 194.155C91.419 194.121 89.7225 192.903 88.5837 191.477ZM107.497 163.325L107.632 163.271C109.535 162.524 112.005 162.153 113.503 163.885C114.589 165.143 114.865 167.522 113.45 168.619C113.11 168.883 112.389 168.657 112.605 168.127C113.226 166.611 113.357 164.627 111.403 164.044C109.708 163.537 107.725 164.525 106.181 165.212L105.74 165.407C102.729 166.744 99.7391 168.364 97.8945 171.195C97.8459 171.267 97.7168 171.221 97.7487 171.134C99.221 167.055 103.73 164.859 107.497 163.325ZM85.1931 154.59L84.4613 154.313C82.6 153.618 80.2822 152.912 79.1276 154.913C78.695 155.661 78.3226 156.587 78.1617 157.449L78.141 157.566C78.0967 157.832 78.0394 158.117 78.2298 158.322C78.5232 158.643 79.4781 158.8 79.8626 158.939L82.2805 159.818V159.818L83.488 160.258C84.0373 160.459 84.7472 160.66 85.1528 161.101C86.5725 159.237 88.831 158.176 90.9626 157.244C89.0422 156.35 87.1812 155.338 85.1931 154.59Z" fill="black"/>
<path fill-rule="evenodd" clip-rule="evenodd" d="M90.1071 51.5414C122.061 49.9661 143.742 75.2293 144.675 85.3035C145.323 92.2966 144.883 101.623 144.883 107.872C144.883 111.061 146.489 120.757 144.675 125.406C140.639 135.753 136.078 143.858 123.442 143.858C110.806 143.858 91.5429 137.293 84.9283 128.824C83.7206 127.278 68.7133 115.96 68.7133 107.064C68.7133 88.0838 67.3063 52.6655 90.1071 51.5414Z" fill="#FDC6A0"/>
<path fill-rule="evenodd" clip-rule="evenodd" d="M68.3078 31.0416C70.1289 30.4709 71.2911 31.2924 72.1203 32.5652C72.3031 32.5295 72.48 32.5318 72.6769 32.5794C72.7256 32.5912 72.8434 32.6358 72.9326 32.6709C73.0015 32.6998 73.0637 32.7349 73.1236 32.7721L73.1592 32.7533V32.7533C73.2959 32.6039 73.4394 32.4675 73.5944 32.3576C73.9427 32.1108 74.3015 32.0389 74.642 32.0897L74.7996 32.0315V32.0315C76.1476 31.5606 77.6091 31.7792 78.523 32.9433C78.6999 33.1682 78.8428 33.4186 78.9649 33.6828C79.2389 33.7728 79.4961 33.903 79.7177 34.0632C79.8733 33.9899 80.0377 33.9282 80.2138 33.8827C81.2082 33.627 82.253 33.8684 83.0634 34.4796C83.4581 34.777 83.7484 35.1494 83.9685 35.5746C84.2192 35.6336 84.4669 35.7397 84.699 35.8821C84.8984 35.7826 85.101 35.6892 85.3087 35.6251C86.0679 35.3914 86.8823 35.3053 87.6724 35.3643C89.3751 35.4909 91.0218 37.4406 89.8839 39.1148L89.8485 39.1654C89.7041 39.3673 89.5785 39.5759 89.4621 39.7879C89.8696 39.9656 90.2622 40.2034 90.6248 40.5014C92.3985 41.9587 92.5581 44.2053 92.2264 46.3246L92.2123 46.4129H92.2165C93.1589 46.5026 93.9725 47.4893 93.4158 48.4174L93.3887 48.4608C92.635 49.6281 91.989 50.9176 91.2691 52.1459C89.2766 52.866 87.3554 53.7528 85.5463 54.8273C84.4195 55.8169 83.3466 56.8631 82.4027 58.027C81.9315 58.6082 81.4987 59.2234 81.1009 59.8613C81.419 60.0145 81.8124 60.0067 82.1447 59.6981C85.1002 56.9525 88.6709 55.0256 92.4728 53.7342C92.7467 53.641 92.9263 53.4656 93.0271 53.2581C94.7149 52.776 96.4325 52.4021 98.1671 52.1375C98.6453 51.6808 99.1462 51.2441 99.6222 50.7893C100.23 50.2089 100.991 50.2174 101.56 50.582C101.843 50.4529 102.132 50.3389 102.425 50.2365L102.607 50.1743C102.683 50.1493 102.755 50.1204 102.83 50.0975C104.865 49.4738 106.727 49.7054 108.729 50.2179L108.985 50.2848C109.919 50.533 110.506 50.4934 111.41 50.2649L111.512 50.2387C112.472 49.9876 113.499 49.8017 114.481 50.0661C115.508 50.3428 116.189 50.9582 116.889 51.7017L116.959 51.7765C117.285 52.1266 117.474 52.1648 117.901 52.1563L118.359 52.1427C120.086 52.0952 121.778 52.1682 123.072 53.5077C123.55 54.003 124.063 54.7041 124.371 55.3439L124.416 55.4394C124.43 55.4705 124.443 55.4965 124.455 55.5197C124.64 55.4897 124.929 55.372 125.067 55.3452C126.949 54.9791 128.52 55.5432 129.729 57.0305C129.993 57.3559 130.393 57.9951 130.67 58.3463C130.767 58.4288 130.858 58.5171 130.945 58.6099C131.399 58.9005 132.042 58.8821 132.551 58.984C133.938 59.2608 135.42 59.7896 136.126 61.1129C136.42 61.6652 136.529 62.2694 136.654 62.873C137.12 63.1801 137.485 63.6227 137.769 64.1018C138.114 64.6835 138.261 65.3959 138.658 65.9452C138.946 66.3442 139.387 66.5573 139.807 66.8012L139.967 66.8955C141.209 67.6373 142.182 68.4605 142.591 69.914L142.627 70.0433C142.693 70.2659 142.926 70.9013 142.723 70.8059C142.898 70.9024 143.195 70.9365 143.354 70.9893C144.216 71.2753 144.966 71.7373 145.425 72.5486C145.774 73.1662 145.838 73.8099 145.938 74.4907L145.98 74.7655C145.991 74.832 146.004 74.9093 146.018 74.9842L146.031 75.0578L146.034 75.0595C146.19 75.1271 146.343 75.2005 146.494 75.2795C147.209 75.7011 147.697 76.4331 147.697 77.2804C147.697 77.6916 147.569 78.0121 147.382 78.298C147.533 78.5271 147.65 78.7712 147.738 79.0432C147.912 79.5744 147.924 80.1551 147.865 80.7047C147.795 81.3641 147.627 81.9645 147.428 82.5943C147.351 82.8374 147.32 83.177 147.205 83.4091C147.418 83.6811 147.545 84.0136 147.505 84.3416C147.449 84.8108 147.235 85.3592 146.811 85.6224C146.604 86.6474 146.158 87.6949 145.719 88.5329C145.668 88.6301 145.607 88.7167 145.54 88.7886C145.601 92.1343 145.356 95.5034 145.339 98.8446C145.32 102.482 145.396 106.122 145.523 109.755C145.736 115.776 146.497 122.002 144.724 127.874C143.273 132.68 140.368 136.805 136.472 139.933C132.483 143.133 127.675 144.985 122.569 145.274C119.971 145.42 117.33 145.124 114.817 144.45L114.548 144.377C112.117 143.707 109.301 142.684 107.512 140.893C106.567 139.946 107.522 137.94 108.907 138.492C110.28 139.039 111.511 139.849 112.873 140.419C114.089 140.929 115.359 141.32 116.644 141.607C119.223 142.188 121.957 142.315 124.578 141.954C134.039 140.656 141.412 132.779 142.866 123.439C143.269 120.853 143.262 118.224 143.234 115.61L143.204 112.747C143.181 110.351 143.173 107.954 143.261 105.559C143.372 102.478 143.59 99.3984 143.881 96.3298L144.032 94.733C144.212 92.8647 144.415 90.9822 144.764 89.1394C144.478 89.1544 142.22 85.2833 140.968 83.1202C140.511 82.7567 140.124 82.305 139.975 81.7206C139.944 81.5987 139.928 81.4757 139.919 81.3524C139.647 80.924 139.36 80.5066 139.057 80.1017L138.991 80.0721C138.94 80.0488 138.901 80.0294 138.877 80.0163C138.217 79.6407 137.665 79.0718 137.287 78.4124C137.16 78.19 137.056 77.9579 136.971 77.7206C136.432 77.1907 135.869 76.6852 135.277 76.2111C135.219 76.1646 135.159 76.1211 135.1 76.0752C134.346 75.7933 133.685 75.3685 133.202 74.7566C133.001 74.6315 132.798 74.5089 132.593 74.3889C131.979 74.3832 131.358 74.2397 130.754 73.9909C129.65 73.5361 128.767 72.6372 127.658 72.2206C126.484 71.7804 125.247 72.7809 124 72.6004C123.682 72.5544 123.366 72.4573 123.073 72.3166C122.371 73.0622 121.626 73.7652 120.804 74.3804C119.611 75.2736 118.392 75.6817 117.01 76.0852C116.325 76.7368 115.558 77.3685 114.633 77.4613C112.492 79.1766 110.203 80.6235 107.794 81.9668C107.407 82.1828 107.021 82.2803 106.656 82.2828C105.9 82.7583 105.076 83.1242 104.204 83.3774C103.931 83.4566 103.65 83.4733 103.373 83.4393L102.617 84.0567V84.0567C102.091 84.4861 101.53 84.6914 100.993 84.7047C100.666 84.9555 100.327 85.1929 99.9787 85.4211C99.6054 85.6661 99.1211 85.7675 98.6345 85.738C97.8914 86.4667 96.9277 86.5432 96.1207 86.2076C96.0098 86.2727 95.8958 86.3344 95.7676 86.395C95.5934 86.4777 95.4117 86.5474 95.2264 86.6039C94.3848 87.5131 93.153 87.9899 91.9186 87.8652C90.9969 88.4312 89.924 88.7256 88.8752 88.6595C88.7152 89.4651 88.5828 90.2738 88.4708 91.0851L88.4594 91.6795C88.4581 91.7758 88.4579 91.8509 88.4592 91.9003L88.4599 91.92C88.5625 94.5257 88.6186 97.1327 88.72 99.7389L88.7293 99.9446C88.8447 102.221 89.4035 106.373 86.0651 106.282C84.8211 106.249 83.5868 105.33 82.6181 104.575L82.4816 104.468C82.4074 104.411 82.3313 104.351 82.2547 104.291C81.5308 104.196 80.8169 104.02 80.0858 103.993C79.1835 103.961 78.2348 104.054 77.3557 104.259C75.804 104.621 74.3029 105.329 73.291 106.612C73.2025 106.724 73.1202 106.842 73.0422 106.96C72.9706 107.204 72.8483 107.428 72.6859 107.622C71.7288 109.78 72.2814 112.631 73.3395 114.605C74.6003 116.956 76.5953 118.582 79.104 119.4L79.2299 119.441C80.9438 119.978 81.5995 121.017 82.5313 122.463C83.4041 123.82 84.4055 125.084 85.4807 126.284C87.5615 128.607 90.4816 130.524 91.6915 133.464C91.9361 134.056 91.2362 134.614 90.6944 134.462C88.5714 133.863 87.083 132.348 85.5398 130.841C84.4717 129.798 83.4446 128.712 82.4809 127.572C82.2788 127.665 82.0563 127.728 81.8247 127.757C80.8022 127.882 79.7476 127.83 78.8525 127.277C78.4399 127.315 78.01 127.171 77.6909 126.878C77.398 126.609 77.1455 126.317 76.9321 126.007C76.6079 126.035 76.2895 126.044 75.9857 125.993C75.8392 125.979 75.6973 125.941 75.5673 125.877C75.3256 125.782 75.0965 125.634 74.8861 125.408C74.4598 124.949 74.2964 124.301 74.3751 123.685C74.2907 123.668 74.207 123.646 74.1244 123.618C73.5569 123.425 73.12 123.043 72.8409 122.522C72.3415 122.242 71.8918 121.861 71.5513 121.456C71.1366 120.964 70.8238 120.409 70.6399 119.796C70.45 119.708 70.2655 119.605 70.0888 119.485C68.8228 118.627 68.098 117.014 68.5952 115.524L68.612 115.477C68.6373 115.41 68.683 115.295 68.7389 115.166C68.7309 115.061 68.7225 114.956 68.7168 114.851L68.6993 114.534V114.534L68.4457 114.426V114.426C67.1808 113.921 66.3257 113.241 66.1737 111.814C66.142 111.519 66.2563 111.218 66.4366 110.966L66.4357 110.887V110.887C66.3535 110.844 66.2753 110.801 66.2063 110.757C65.5167 110.315 65.093 109.524 65.1404 108.706C65.184 107.96 65.5962 107.365 66.0596 106.815L66.192 106.661C66.203 106.648 66.2153 106.634 66.2285 106.619L65.9221 106.523C65.7233 106.459 65.5413 106.396 65.4103 106.323C64.9035 106.038 64.4738 105.653 64.2088 105.164C64.1702 105.103 64.131 105.044 64.0956 104.979C63.7534 104.353 63.7087 103.551 63.9295 102.88C63.9556 102.8 63.9893 102.726 64.0239 102.651C63.0921 102.322 62.3746 101.642 62.2882 100.387C62.2543 99.8942 62.362 99.4028 62.5962 98.982C62.5444 98.6986 62.5336 98.4048 62.5671 98.1142C62.2393 97.8037 61.9846 97.4296 61.8708 96.9733C61.6555 96.1112 62.0496 95.291 62.6352 94.5388C62.4185 93.9441 62.4073 93.273 62.6548 92.6743C62.5595 92.3754 62.5054 92.0594 62.5024 91.735C62.4959 91.0166 62.7166 90.4166 63.0731 89.9062C62.572 89.292 62.334 88.4758 62.63 87.7109C62.8406 87.1673 63.0813 86.67 63.3588 86.2093C63.2131 85.8589 63.1283 85.4664 63.1283 85.027C63.1283 84.2365 63.4239 83.6103 63.8761 83.0978C63.6798 82.1617 64.0789 81.0217 64.9488 80.6095C65.2766 80.454 65.7155 80.2917 66.1992 80.1653C66.3807 79.5968 66.5702 79.0306 66.7703 78.4684C67.0855 77.5834 67.4245 76.7108 67.7837 75.8482C67.5769 76.0298 67.36 76.1991 67.1356 76.3525C66.4262 77.2567 65.4857 78.0399 64.6954 78.5085C63.1285 79.4376 61.3366 78.8864 60.5631 77.3319C59.8361 77.8759 58.9638 78.198 58.033 78.0879C56.9776 77.963 56.0127 77.2778 55.7491 76.209C55.711 76.0543 55.688 75.8871 55.6857 75.7189C55.0804 76.1509 54.4471 76.5485 53.7525 76.7761C52.8676 77.066 51.9645 76.3705 51.8477 75.504C51.8015 75.1605 51.8656 74.857 52.002 74.6006L51.9156 74.5666C51.9012 74.5606 51.887 74.5543 51.8728 74.5476C51.4087 74.3297 51.0485 73.9302 50.8773 73.4695C49.8725 73.8592 48.7222 73.4025 48.4035 72.2948C48.024 70.9781 48.001 69.6445 48.2981 68.3618C47.2334 67.5861 46.5398 66.2821 46.4218 64.9189C46.3355 63.9404 46.5685 63.037 46.979 62.2018C45.9721 61.8243 45.6259 60.5013 46.1045 59.5481C45.4688 59.1833 45.0544 58.4099 45.0451 57.6571C44.7611 57.226 44.6702 56.6707 44.9057 56.0485C45.2163 55.2287 45.8487 54.5429 46.5729 54.005C46.2571 53.4538 46.0225 52.8527 45.8768 52.2315C45.2768 52.0555 44.7925 51.569 44.6939 50.8383C44.5703 49.9223 45.1718 49.1458 45.9813 48.9408C46.0712 48.6618 46.1808 48.389 46.3163 48.1269C45.9158 47.1758 45.9748 45.9733 46.4913 44.9334C46.9488 44.014 47.693 43.4518 48.589 43.063C48.3613 42.281 48.6628 41.5011 49.4217 40.9199C50.3483 40.2095 51.3645 39.6666 52.4323 39.283C52.3374 38.01 52.8683 36.7064 54.1229 36.2626C54.4583 36.144 54.8074 36.1002 55.1622 36.1017C55.4198 35.5402 55.8497 35.0836 56.4107 34.6795C57.2596 34.0683 58.8461 34.4417 59.3169 35.4002L59.3399 35.4495C59.3639 35.5038 59.3898 35.5535 59.4145 35.6061C59.5094 35.1407 59.7312 34.7011 60.0877 34.3407C60.9788 33.4398 61.9197 33.4229 62.8252 33.8081C62.9913 33.3952 63.1924 33.0025 63.437 32.6434C64.3248 31.3406 65.7914 31.1747 66.8654 31.8802C67.2959 31.5008 67.7763 31.2083 68.3078 31.0416ZM74.6552 109.383C76.4427 108.681 78.6121 108.888 80.3788 109.562L80.5083 109.613C82.0687 110.231 84.6038 111.607 84.9093 113.367C85.0675 114.278 84.2033 115.066 83.3261 114.586C82.5629 114.17 82.1349 113.331 81.5278 112.722C80.9271 112.12 80.2544 111.636 79.5209 111.211C77.9904 110.325 76.3816 109.981 74.6552 109.725C74.4612 109.698 74.5139 109.438 74.6552 109.383Z" fill="black"/>
<path fill-rule="evenodd" clip-rule="evenodd" d="M123.152 128.274C121.732 127.695 120.465 126.728 119.538 125.493C119.216 125.063 119.133 124.61 119.2 124.195C119.276 123.729 119.552 123.306 119.928 123.023C120.305 122.739 120.777 122.598 121.233 122.67C121.63 122.732 122.024 122.949 122.337 123.399L122.402 123.489C122.953 124.235 123.67 124.846 124.488 125.241C125.276 125.621 126.158 125.798 127.07 125.695C128.808 125.499 130.005 124.559 131.278 123.282C131.436 123.121 131.594 122.955 131.752 122.786C131.852 122.633 131.991 122.534 132.146 122.483C132.317 122.425 132.511 122.429 132.689 122.491C132.86 122.55 133.013 122.664 133.116 122.815C133.213 122.958 133.269 123.135 133.251 123.339C133.134 124.661 132.443 125.842 131.461 126.769C130.37 127.799 128.924 128.511 127.563 128.761C126.064 129.036 124.536 128.839 123.152 128.274V128.274ZM128.271 107.866C129.866 108.836 132.297 111.098 130.581 113.503C128.56 115.624 125.652 113.193 124.219 112.093C122.89 111.241 121.396 113.433 122.629 114.428C132.987 122.099 137.19 108.12 129.078 106.726C128.184 106.572 127.853 107.566 128.271 107.866ZM109.711 98.9429C109.887 96.7541 113.219 96.257 113.551 98.423C113.847 100.363 113.498 102.145 112.624 103.892C111.79 105.561 109.692 104.783 109.533 103.263C109.32 101.226 109.601 100.304 109.711 98.9429ZM135.076 97.9739C135.541 97.3652 136.212 96.9497 137.015 97.1845C139.526 97.9185 138.786 101.485 137.904 103.22C137.425 104.163 135.876 104.402 135.176 103.572C134.036 102.219 133.489 99.5157 134.94 98.1825C134.979 98.1136 135.023 98.044 135.076 97.9739ZM112.589 89.3654L112.986 89.2959C114.213 89.0836 115.738 88.8796 116.606 89.8665C117.067 90.3898 117.225 91.3624 116.606 91.8633C115.518 92.7446 114.314 92.4031 113.01 92.4777C111.935 92.5394 110.902 92.7174 109.867 93.0135C107.595 93.6629 105.744 94.8486 103.804 96.1505C103.55 96.3213 103.29 95.9956 103.411 95.7574C104.531 93.563 106.701 91.7604 108.875 90.6616C110.036 90.0751 111.305 89.5885 112.589 89.3654ZM132.787 88.3823L133.091 88.4445C136.395 89.1353 140.687 90.5153 142.251 93.7615C142.311 94.2205 142.248 94.3189 142.197 94.3832L142.18 94.4046C142.137 94.4595 142.104 94.5351 141.905 94.5976C141.85 94.5844 141.794 94.5705 141.737 94.5557C141.02 94.3677 140.453 94.1087 139.904 93.84L139.308 93.5465C138.617 93.2076 137.92 92.881 137.181 92.6399C135.605 92.1255 133.983 91.7631 132.337 91.5696C131.98 91.5277 131.636 91.4072 131.365 91.2006C131.108 91.0046 130.911 90.7332 130.821 90.3724C130.705 89.9056 130.739 89.5521 130.989 89.1309C131.177 88.8146 131.447 88.5953 131.756 88.4694C132.071 88.3411 132.43 88.3108 132.787 88.3823Z" fill="black"/>
</g>
<defs>
<clipPath id="clip0_2016_14161">
<rect width="200" height="267" fill="white"/>
</clipPath>
</defs>
</svg>
