<svg width="200" height="267" viewBox="0 0 200 267" fill="none" xmlns="http://www.w3.org/2000/svg">
<g clip-path="url(#clip0_2016_14160)">
<rect width="200" height="267" fill="white"/>
<path fill-rule="evenodd" clip-rule="evenodd" d="M35.2054 285.569C37.7345 285.726 40.2634 285.849 42.7922 285.944C75.8621 287.176 108.905 283.405 141.954 282.58C153.464 282.277 164.914 282.428 176.394 283.352C177.518 283.443 178.805 282.232 178.666 281.079C176.546 262.764 173.892 244.499 172.517 226.109C172.516 225.136 172.642 224.165 172.976 223.249C173.039 223.177 173.365 222.371 173.656 222.321C173.561 222.392 173.991 222.268 173.717 222.289C175.377 222.018 177.005 220.225 175.8 218.51C163.392 199.485 146.454 182.12 141.004 159.523C139.717 153.414 135.067 153.036 130.112 150.516C128.567 149.596 124.787 147.049 124.172 145.278C122.702 138.894 125.29 132.641 117.73 130.058C112.74 128.674 103.919 127.502 98.8692 128.962C92.7097 131.013 93.1707 137.957 89.5979 142.734C87.7502 145.497 84.6001 149.28 81.6914 149.704C80.2816 149.909 79.2432 147.056 77.8356 147.252C55.8946 152.583 26.0015 188.949 16.5714 209.081C14.4462 215.416 21.2999 213.505 20.8788 219.873C20.3598 231.954 19.2245 247.419 19.8978 259.515C20.5284 266.535 20.0617 273.891 22.2431 280.647C21.656 281.36 22.4995 282.081 23.1879 282.39C24.0551 283.866 32.5886 285.365 35.2054 285.569Z" fill="#FDC6A0"/>
<path d="M77.8356 147.252C79.1484 147.069 79.2338 150.93 80.505 151.098C86.405 159.384 95.5481 162.134 106.122 162.134C117.347 162.134 126.449 158.757 133.427 152.003L134.067 152.273C137.37 153.677 140.071 155.094 141.004 159.523C146.454 182.12 163.392 199.485 175.8 218.51C177.005 220.225 175.377 222.018 173.717 222.289C173.991 222.268 173.561 222.392 173.656 222.321C173.365 222.371 173.039 223.177 172.976 223.249C172.814 223.692 172.701 224.149 172.628 224.612C172.628 224.612 158.727 227.558 154.99 227.639C117.466 228.451 48.8431 227.291 48.8431 227.291L20.1007 216.415C18.4569 213.946 14.9723 213.848 16.5714 209.081C26.0015 188.949 55.8946 152.583 77.8356 147.252Z" fill="#E86BBB"/>
<path fill-rule="evenodd" clip-rule="evenodd" d="M92.327 135.125C92.8974 132.558 96.9812 133.659 96.2819 136.216C95.1981 140.17 92.9502 143.907 89.7772 146.53C87.3263 148.555 83.9864 150.361 80.6735 150.695C80.984 150.998 81.2819 151.321 81.5946 151.63C82.3002 152.331 83.0502 152.982 83.8235 153.608C85.4124 154.893 87.0643 156.049 88.8686 157.017C96.0749 160.885 104.215 161.777 112.264 160.876C116.084 160.449 119.961 159.725 123.552 158.327C125.217 157.681 126.835 156.831 128.264 155.757L128.638 155.477C129.389 154.909 130.391 154.109 130.86 153.234C129.432 153.555 127.626 152.033 126.635 151.148C125.551 150.176 124.638 148.922 123.964 147.637C122.644 145.116 121.945 141.863 123.052 139.16C123.126 138.98 123.362 139.01 123.383 139.205C123.711 142.356 124.56 145.31 126.821 147.644C127.824 148.677 129.026 149.544 130.338 150.146L130.523 150.231C131.082 150.489 131.67 150.793 131.906 151.346C131.997 151.336 132.088 151.344 132.174 151.368C132.252 151.389 132.324 151.412 132.394 151.437C132.238 151.131 132.155 150.77 132.17 150.342C132.225 148.688 134.496 148.637 134.811 150.11C134.754 149.916 134.678 150.104 134.821 150.163C134.819 150.146 134.815 150.127 134.811 150.11L134.815 150.126V150.126L134.824 150.163L134.821 150.163C134.827 150.19 134.832 150.217 134.835 150.245L134.838 150.282L134.836 150.251C134.834 150.229 134.831 150.208 134.828 150.19L134.823 150.163C134.845 150.173 134.874 150.18 134.908 150.18L134.922 150.185C134.975 150.208 135.162 150.295 135.217 150.317C135.595 150.457 136.017 150.501 136.404 150.621C137.243 150.88 137.982 151.306 138.493 152.033C138.861 152.556 139.066 153.154 139.15 153.775C142.862 155.561 146.376 157.881 149.319 160.754C155.887 167.162 160.467 175.182 164.226 183.485C166.139 187.711 167.843 192.027 169.511 196.355L169.773 197.038C171.561 201.69 173.141 206.393 173.53 211.393C173.566 211.841 173.418 212.262 173.162 212.611C173.253 212.987 173.3 213.363 173.287 213.731C173.285 213.788 173.281 213.845 173.276 213.902C173.876 213.891 174.464 214.143 175.021 214.849C175.247 214.777 175.492 214.768 175.733 214.847C177.202 215.316 177.438 216.929 177.715 218.279C178 219.674 178.125 221.103 178.127 222.525C178.127 223.034 177.835 223.677 177.341 223.895C176.412 224.305 175.41 224.573 174.449 224.945C173.726 225.224 173.002 225.488 172.271 225.736C172.676 226.443 172.807 227.428 173.027 228.175C173.371 229.339 173.648 230.508 173.881 231.7C175.457 239.805 176.549 247.997 178.023 256.119C178.761 260.188 179.619 264.229 180.493 268.27C180.924 270.256 181.383 272.239 181.875 274.213C182.137 275.265 182.409 276.318 182.69 277.364C182.772 277.67 182.855 277.975 182.938 278.279L183.085 278.812V278.812C183.407 278.989 183.681 279.258 183.871 279.625C184.567 280.97 184.167 282.485 182.834 283.242C181.385 284.066 179.655 283.288 178.856 281.95C178.294 281.006 178.11 279.755 177.833 278.704C177.521 277.525 177.223 276.339 176.935 275.153C174.984 267.098 173.676 258.902 172.691 250.675L172.621 250.087C172.121 245.852 171.637 241.606 171.324 237.351C171.17 235.261 171.047 233.171 170.971 231.076C170.933 229.998 170.995 228.914 171.056 227.838C171.083 227.367 171.123 226.894 171.138 226.422L171.143 226.355C171.147 226.308 171.152 226.245 171.157 226.179L171.162 226.099C169.704 226.556 168.225 226.936 166.731 227.257C163.554 227.944 160.302 228.327 157.059 228.132C157.512 233.505 158.101 238.864 158.925 244.188C159.719 249.316 160.636 254.432 161.671 259.518C162.189 262.073 162.749 264.622 163.338 267.162C163.655 268.519 164.016 269.867 164.302 271.231C164.471 272.042 164.523 272.721 164.183 273.48C164.558 274.5 164.89 275.525 165.218 276.491L165.316 276.779C165.895 278.47 166.993 280.198 165.846 281.86C165.253 282.717 164.285 283.208 163.311 283.238C163.294 283.248 163.275 283.261 163.256 283.271C162.732 283.552 162.128 283.607 161.553 283.487C160.681 283.658 159.806 283.823 158.929 283.973C156.764 284.347 154.588 284.656 152.407 284.916C148.256 285.41 144.077 285.681 139.9 285.831C124.609 286.382 109.3 285.414 94.0026 285.693C86.2087 285.835 78.415 286.186 70.634 286.651C66.7509 286.883 62.8657 287.133 58.9805 287.325L57.7779 287.384C54.3034 287.55 50.8264 287.678 47.3545 287.424C47.2869 287.42 47.234 287.393 47.1981 287.355C46.0002 287.219 44.7962 286.116 44.9164 284.842C45.434 279.414 45.9517 273.987 46.4714 268.557C47.3946 258.884 48.3263 249.21 49.2686 239.539L49.4047 238.142C49.7213 234.884 50.0236 231.617 50.177 228.346C49.4038 228.291 48.6328 228.221 47.8615 228.136C39.5047 227.221 31.4935 224.692 23.8013 221.371L23.4897 221.236C22.7967 220.933 22.0383 220.631 21.2608 220.308C21.2737 221.785 21.2249 223.265 21.2186 224.727C21.208 227.156 21.227 229.584 21.2333 232.01C21.2481 237.011 21.4383 242.014 21.6876 247.006C22.1249 255.823 22.6383 264.628 23.4157 273.424C23.6122 275.637 23.8786 277.846 24.0664 280.059C24.1786 281.363 23.9101 282.449 22.7167 283.134C22.1291 283.472 21.6749 283.331 21.0918 283.058C19.6678 282.39 19.6277 280.811 19.4925 279.438C19.3892 278.402 19.2939 277.366 19.2009 276.329C19.0026 274.116 18.8312 271.903 18.6918 269.686C18.1406 260.877 17.9798 252.076 18.3601 243.256C18.5367 239.131 18.7916 234.997 19.1298 230.879L19.2094 229.929C19.4883 226.638 19.6678 223.185 20.2446 219.873C17.9186 218.841 15.6136 217.529 14.5446 215.347C13.1589 212.515 14.6819 210.094 16.8517 208.426C16.8305 208.145 16.8517 207.866 16.9108 207.612C17.534 204.913 18.5777 202.246 19.5855 199.672C20.6017 197.085 21.7235 194.538 22.9573 192.046C27.9094 182.064 34.6742 172.942 42.7383 165.257C46.7439 161.441 51.1277 157.913 55.8073 154.954C58.127 153.49 60.5059 152.137 62.9693 150.932L63.3335 150.755C65.0483 149.922 66.9717 149.037 68.8786 148.574C69.077 148.426 69.2777 148.286 69.4805 148.153C70.2305 147.654 71.2488 148.016 71.6925 148.728C71.9082 148.561 72.1573 148.413 72.4425 148.28L72.7244 148.151C74.4355 147.38 76.49 146.66 78.3474 147.166C79.5009 147.481 80.4094 148.331 80.8174 149.413C81.7531 148.918 82.6721 148.409 83.57 147.785C85.0129 146.788 86.3207 145.549 87.4953 144.249C89.8509 141.635 91.5622 138.573 92.327 135.125ZM174.064 217.552C173.904 217.599 173.735 217.615 173.559 217.594C173.876 217.631 173.242 217.819 173.068 217.909L173.054 217.916C172.738 218.097 172.419 218.273 172.095 218.442C171.341 218.839 170.57 219.196 169.786 219.532C168.242 220.19 166.647 220.695 165.009 221.065C163.408 221.426 161.728 221.637 160.087 221.671C158.988 221.692 157.685 221.642 156.548 221.318C156.679 223.311 156.825 225.302 156.988 227.291L159.232 226.776C161.477 226.261 163.72 225.733 165.935 225.091C167.597 224.609 169.237 224.045 170.857 223.436C171.707 223.117 172.55 222.779 173.382 222.415C173.796 222.234 174.185 222.019 174.568 221.801L174.897 221.614C174.821 220.724 174.681 219.852 174.479 218.972C174.373 218.507 174.193 218.03 174.064 217.552ZM20.3502 208.166C20.065 209.092 19.6277 209.956 18.6305 210.165C18.2777 210.239 17.9821 210.199 17.7369 210.079L17.678 210.197C16.8582 211.881 16.6174 213.658 18.5038 214.955C19.3554 215.54 20.2826 216.047 21.2418 216.501C22.957 217.318 24.7837 217.974 26.5059 218.642L26.8488 218.776C29.9291 219.985 33.058 221.086 36.2355 222.007C39.4596 222.939 42.7404 223.687 46.0617 224.163C47.4622 224.362 48.8735 224.501 50.2871 224.592C50.3101 222.69 50.2995 220.786 50.2932 218.884C49.7904 218.82 49.2918 218.753 48.8103 218.695C47.3439 218.524 45.8819 218.315 44.4284 218.055C41.3925 217.512 38.3883 216.762 35.458 215.802C30.0284 214.02 24.977 211.473 20.3502 208.166ZM79.8791 149.901C78.6453 148.595 76.2855 149.066 74.7962 149.7C74.346 149.893 73.8918 150.087 73.4608 150.322L73.3773 150.368C72.8754 150.657 72.8779 150.829 73.123 151.406C73.4418 152.165 73.8855 152.898 74.308 153.601C76.1167 156.622 78.4974 159.251 81.2164 161.472C90.846 169.334 104.68 172.108 116.722 169.474C122.502 168.212 128.076 165.663 132.331 161.483L132.718 161.098C134.434 159.381 136.789 156.895 136.623 154.35C136.545 153.126 135.546 153.056 134.526 152.82C134.108 152.722 133.708 152.585 133.362 152.391C133.64 153.593 132.155 155.381 131.388 156.132C129.781 157.706 127.845 158.936 125.798 159.856C121.902 161.608 117.665 162.436 113.445 162.96C108.658 163.556 103.767 163.503 99.0157 162.622C94.8812 161.855 90.8059 160.403 87.2481 158.142C85.6172 157.106 84.0094 155.924 82.6488 154.549L82.3597 154.256C81.3774 153.261 80.2344 152.057 79.6467 150.751C79.4228 150.753 79.201 150.746 78.9791 150.731C78.8228 150.723 78.7385 150.501 78.8946 150.419C79.07 150.326 79.2453 150.233 79.4207 150.142C79.3913 150.044 79.3657 149.95 79.3446 149.852C79.3277 149.77 79.4143 149.694 79.4904 149.74C79.596 149.804 79.6974 149.871 79.7967 149.943C79.8242 149.931 79.8517 149.916 79.8791 149.901Z" fill="black"/>
<path fill-rule="evenodd" clip-rule="evenodd" d="M140.714 72.2153C128.036 63.803 102.639 64.7166 88.684 69.8706C75.0674 74.1997 70.3001 86.2625 68.0393 99.295C65.2912 113.942 65.6606 135.057 85.4218 134.801C88.2 136.148 91.2778 136.732 94.1523 137.848C98.0867 139.211 101.944 140.794 105.937 141.989C113.8 144.528 122.55 144.307 130.009 140.592C134.13 138.596 135.836 135.488 138.531 132.177C146.371 122.542 150.316 108.754 149.963 96.5035C149.343 87.8772 147.92 77.8914 140.714 72.2153Z" fill="#FDC6A0"/>
<path fill-rule="evenodd" clip-rule="evenodd" d="M156.756 107.724C155.455 99.6295 155.094 91.3974 153.391 83.3661C151.789 75.8084 148.793 68.6667 143.558 62.9053C138.874 57.7505 132.817 53.9652 126.315 51.5664C113.649 46.8934 99.081 47.9502 86.828 53.4053C75.3593 58.5092 66.2118 67.9523 60.8801 79.2849C57.4163 86.6484 55.6749 94.4768 54.9012 102.557C54.0431 111.533 53.9504 120.602 53.6004 129.61C53.5582 130.721 53.4971 131.833 53.4823 132.945C53.4655 134.162 53.9567 135.229 54.3572 136.362C54.3847 136.443 54.4247 136.519 54.4732 136.591C54.1717 136.629 53.8702 136.673 53.5688 136.722C53.2315 136.774 53.2462 137.324 53.5688 137.389C56.2989 137.947 59.105 138.026 61.8815 138.163C64.7592 138.307 67.6411 138.385 70.5231 138.482C73.3333 138.577 76.1436 138.672 78.9538 138.767C80.4296 138.818 81.9053 138.869 83.3811 138.917C84.0831 138.941 84.7852 138.966 85.4893 138.989C85.8393 139.002 86.1914 139.012 86.5413 139.025C86.8259 139.034 87.2897 139.215 87.3193 139.006C87.372 139.038 87.4289 139.065 87.49 139.084C87.5575 139.12 87.6228 139.163 87.6861 139.209C88.0297 139.446 88.5505 139.416 88.8983 139.209C88.9299 139.19 88.9637 139.169 88.9974 139.148C89.2567 138.994 89.438 138.769 89.5392 138.516C90.9812 140.262 93.5343 138.3 92.0585 136.453C91.2658 135.46 83.3811 111.106 86.6446 92.5535L99.7324 90.8162C102.125 90.5732 106.578 90.0892 106.578 90.0892C106.578 90.0892 107.668 86.5237 107.98 85.3761C108.003 85.2915 108.026 85.2049 108.051 85.1203C108.363 85.6722 108.678 86.2215 108.994 86.771L110.609 90.0617C110.609 90.0617 134.444 89.6622 140.288 89.7003C140.387 89.7003 140.857 96.8228 140.645 99.9592C140.214 106.257 139.757 112.551 139.12 118.833C138.714 122.855 137.734 126.799 136.275 130.506C133.971 136.362 127.279 141.928 120.753 141.928C116.692 141.928 107.514 138.63 106.177 137.964C104.841 137.298 104.044 139.116 105.262 139.843C107.73 141.316 114.531 144.44 120.753 144.44C129.79 144.44 136.612 135.844 137.448 134.612C145.677 134.16 154.093 134.369 162.311 135.187C163 135.255 163.595 134.422 163.373 133.786C160.422 125.317 158.176 116.582 156.756 107.724Z" fill="black"/>
<path fill-rule="evenodd" clip-rule="evenodd" d="M123.152 128.274C121.732 127.695 120.465 126.728 119.538 125.493C119.216 125.063 119.133 124.61 119.2 124.195C119.276 123.729 119.552 123.306 119.928 123.023C120.305 122.739 120.777 122.598 121.233 122.67C121.63 122.732 122.024 122.949 122.337 123.399L122.402 123.489C122.953 124.235 123.67 124.846 124.488 125.241C125.276 125.621 126.158 125.798 127.07 125.695C128.808 125.499 130.005 124.559 131.278 123.282C131.436 123.121 131.594 122.955 131.752 122.786C131.852 122.633 131.991 122.534 132.146 122.483C132.317 122.425 132.511 122.429 132.689 122.491C132.86 122.55 133.013 122.664 133.116 122.815C133.213 122.958 133.269 123.135 133.251 123.339C133.134 124.661 132.443 125.842 131.461 126.769C130.37 127.799 128.924 128.511 127.563 128.761C126.064 129.036 124.536 128.839 123.152 128.274V128.274ZM128.271 107.866C129.866 108.836 132.297 111.098 130.581 113.503C128.56 115.624 125.652 113.193 124.219 112.093C122.89 111.241 121.396 113.433 122.629 114.428C132.987 122.099 137.19 108.12 129.078 106.726C128.184 106.572 127.853 107.566 128.271 107.866ZM109.711 98.9429C109.887 96.7541 113.219 96.257 113.551 98.423C113.847 100.363 113.498 102.145 112.624 103.892C111.79 105.561 109.692 104.783 109.533 103.263C109.32 101.226 109.601 100.304 109.711 98.9429ZM135.076 97.9739C135.541 97.3652 136.212 96.9497 137.015 97.1845C139.526 97.9185 138.786 101.485 137.904 103.22C137.425 104.163 135.876 104.402 135.176 103.572C134.036 102.219 133.489 99.5157 134.94 98.1825C134.979 98.1136 135.023 98.044 135.076 97.9739ZM112.589 89.3654L112.986 89.2959C114.213 89.0836 115.738 88.8796 116.606 89.8665C117.067 90.3898 117.225 91.3624 116.606 91.8633C115.518 92.7446 114.314 92.4031 113.01 92.4777C111.935 92.5394 110.902 92.7174 109.867 93.0135C107.595 93.6629 105.744 94.8486 103.804 96.1505C103.55 96.3213 103.29 95.9956 103.411 95.7574C104.531 93.563 106.701 91.7604 108.875 90.6616C110.036 90.0751 111.305 89.5885 112.589 89.3654ZM132.787 88.3823L133.091 88.4445C136.395 89.1353 140.687 90.5153 142.251 93.7615C142.311 94.2205 142.248 94.3189 142.197 94.3832L142.18 94.4046C142.137 94.4595 142.104 94.5351 141.905 94.5976C141.85 94.5844 141.794 94.5705 141.737 94.5557C141.02 94.3677 140.453 94.1087 139.904 93.84L139.308 93.5465C138.617 93.2076 137.92 92.881 137.181 92.6399C135.605 92.1255 133.983 91.7631 132.337 91.5696C131.98 91.5277 131.636 91.4072 131.365 91.2006C131.108 91.0046 130.911 90.7332 130.821 90.3724C130.705 89.9056 130.739 89.5521 130.989 89.1309C131.177 88.8146 131.447 88.5953 131.756 88.4694C132.071 88.3411 132.43 88.3108 132.787 88.3823Z" fill="black"/>
<path fill-rule="evenodd" clip-rule="evenodd" d="M152.803 91.7749C152.629 91.7459 152.455 91.7187 152.281 91.6931C152.145 91.616 151.985 91.5566 151.8 91.5208C151.376 91.4133 150.956 91.3408 150.536 91.3017C144.508 89.9446 130.563 91.8715 129.987 97.0174C128.068 97.6585 126.407 97.0844 124.182 97.1415C122.488 90.0602 93.2101 91.0597 91.802 95.329C91.7967 95.3275 91.7915 95.3262 91.786 95.3245C90.433 94.9056 88.4384 95.0066 86.8898 94.9403C83.5833 94.871 80.2729 95.1658 77.0378 95.8635C70.9797 96.8266 62.7117 97.9541 66.925 105.522C66.9259 105.523 66.9265 105.525 66.9276 105.526L66.9282 105.526C67.6543 106.27 68.8867 105.671 68.9325 104.663C67.516 101.077 70.7154 100.647 73.1771 99.6164C79.3024 97.415 85.5386 97.1098 91.8736 97.7908C92.3503 98.3521 93.0734 98.8416 93.8378 99.0978C98.0735 99.8011 95.8412 102.944 98.5186 103.401C98.0268 114.358 111.324 120.339 119.029 113.136C122.105 110.128 122.838 105.671 123.552 101.653C123.929 101.568 124.169 101.362 124.309 101.089C125.216 100.183 125.785 99.3465 127.579 99.0978C129.372 98.8492 130.753 99.3482 130.94 99.501C130.987 99.5959 131.037 99.691 131.096 99.7861C131.178 99.9279 131.29 100.041 131.416 100.13C129.645 111.041 138.112 117.941 146.66 112.282C150.374 108.787 151.159 103.436 151.314 98.6598C151.817 98.3559 152.136 97.7669 151.962 97.0263C151.722 96.0055 152.285 95.1216 153.182 94.6778C154.348 94.1014 154.141 91.9966 152.803 91.7749M116.074 96.9511C115.013 96.7176 114.56 98.3541 115.625 98.5882C116.378 98.7539 117.017 99.1342 117.449 99.7783L117.494 99.8483C118.073 100.77 119.538 99.9192 118.955 98.9914C118.298 97.9473 117.279 97.2159 116.074 96.9511ZM147.149 95.9364C146.775 95.6729 146.209 95.8685 145.992 96.241C145.753 96.6511 145.909 97.1078 146.26 97.3761L146.295 97.4023C146.617 97.6288 146.93 98.0349 146.969 98.451L146.972 98.5031C147.015 99.592 148.706 99.5975 148.664 98.5031C148.623 97.4324 148.003 96.5379 147.149 95.9364Z" fill="black"/>
</g>
<defs>
<clipPath id="clip0_2016_14160">
<rect width="200" height="267" fill="white"/>
</clipPath>
</defs>
</svg>
