<?xml version="1.0" encoding="utf-8"?>
<svg width="364" height="338" viewBox="0 0 364 338" fill="none" xmlns="http://www.w3.org/2000/svg">
  <g filter="url(#filter0_d_1661_26720)">
    <rect width="364" height="332.832" rx="17.8104" fill="white"/>
    <rect x="1.11315" y="1.11315" width="361.774" height="330.606" rx="16.6972" stroke="#18191F" stroke-width="2.2263"/>
  </g>
  <path d="M1.11315 17.8104C1.11315 8.58876 8.58876 1.11315 17.8104 1.11315H346.19C355.411 1.11315 362.887 8.58876 362.887 17.8104V198.141H1.11315V17.8104Z" fill="#E03932" stroke="#18191F" stroke-width="2.2263"/>
  <g clip-path="url(#clip0_1661_26720)">
    <g clip-path="url(#clip1_1661_26720)">
      <path fill-rule="evenodd" clip-rule="evenodd" d="M338.117 208.986C341.11 208.842 339.906 203.605 339.692 201.681C337.322 194.656 337.879 186.991 336.947 179.628C336.366 172.754 335.62 165.901 334.993 159.033C333.761 145.09 324.91 116.706 314.81 112.142C313.538 106.557 308.283 101.344 301.635 101.344C297.1 95.9744 291.642 92.1953 284.642 92.9583C281.749 93.09 278.943 96.1595 276.171 96.7522C274.619 96.9663 260.845 96.4152 258.086 98.0546C256.164 99.0418 254.429 100.866 254.994 103.189C255.896 106.002 253.094 102.958 247.249 105.961C235.329 113.122 242.452 122.703 242.768 122.999C235.329 133.352 228.828 141.751 225.82 154.406C223.871 163.8 224.09 173.499 222.457 182.942C221.88 186.216 220.995 189.378 220.038 192.558C219 196.719 218.496 207.091 217.924 207.183C216.882 207.442 218.526 209.582 219.63 209.584C250.236 214.662 281.324 209.794 312.094 208.999C320.765 208.697 329.446 208.627 338.117 208.986Z" fill="white"/>
      <path fill-rule="evenodd" clip-rule="evenodd" d="M291.731 123.913C291.745 123.773 291.934 123.774 291.949 123.913L292.165 126C292.428 128.549 292.681 131.092 292.864 133.653C293.093 136.846 293.246 140.038 293.32 143.238C293.577 154.383 293.628 165.534 293.65 176.682C295.157 176.578 296.664 176.477 298.172 176.38C299.195 176.314 300.218 176.25 301.241 176.188L303.85 176.03L304.925 175.964C305.65 175.919 306.475 175.736 306.983 176.379C307.186 176.637 307.288 176.971 307.098 177.277C306.661 177.982 305.99 177.957 305.231 177.988C304.515 178.017 303.799 178.045 303.083 178.073C301.548 178.133 300.014 178.189 298.479 178.232C296.868 178.277 295.258 178.314 293.647 178.341C293.631 183.047 293.437 187.748 293.226 192.449L293.131 194.564C292.873 200.285 292.596 206.011 292.203 211.724C292.17 212.192 291.509 212.191 291.477 211.724C291.034 205.29 290.741 198.843 290.451 192.4C290.241 187.729 290.119 183.056 290.06 178.383C289.847 178.384 289.635 178.387 289.422 178.388C283.378 178.414 277.335 178.441 271.291 178.384C271.301 178.396 271.311 178.408 271.318 178.424C271.755 179.457 271.797 180.775 271.786 181.883C271.774 183.155 271.603 184.41 271.31 185.647C270.261 190.076 267.557 194.043 264.476 197.323L264.375 197.429C263.649 198.198 262.815 198.969 262.369 199.948C261.913 200.947 261.755 202.115 261.53 203.189L261.504 203.312L260.624 207.375C260.345 208.666 260.266 210.548 259.245 211.479C258.292 212.348 257.03 211.894 256.581 210.775C256.231 209.902 256.58 208.944 256.787 208.071L258.412 201.239C258.679 200.124 258.971 199.003 259.547 198.002C260.137 196.977 261.002 196.234 261.885 195.473C263.557 194.033 265.092 192.385 266.39 190.6C267.687 188.816 268.796 186.849 269.574 184.781C269.963 183.746 270.282 182.671 270.502 181.586C270.711 180.557 270.709 179.492 270.933 178.474C270.949 178.404 271.008 178.355 271.076 178.334C271.06 178.289 271.084 178.227 271.148 178.223L276.091 177.906C280.485 177.622 284.878 177.331 289.268 176.999L290.044 176.943C289.984 170.708 290.035 164.471 290.148 158.234C290.251 152.514 290.253 146.793 290.423 141.074C290.508 138.235 290.69 135.403 290.893 132.571C291.1 129.674 291.432 126.802 291.731 123.913ZM245.318 157.078C245.265 156.761 245.665 156.564 245.849 156.854C247.954 160.173 248.969 163.778 249.396 167.662C249.774 171.09 249.663 174.567 249.475 178.004C249.274 181.67 249.04 185.334 248.803 188.998L248.439 194.616L247.526 208.701C247.461 209.708 247.232 210.624 246.365 211.093C246.255 211.184 246.141 211.267 246.008 211.338C245.539 211.588 244.918 211.462 244.647 210.981L244.756 211.052C244.85 211.112 244.744 211.029 244.437 210.803L244.176 210.466C243.987 210.181 243.866 209.901 243.817 209.562C243.742 209.036 243.839 208.459 243.874 207.931L244.472 198.695C244.938 191.515 245.481 184.337 245.891 177.154C246.081 173.806 246.215 170.455 246.125 167.101C246.035 163.765 245.865 160.373 245.318 157.078ZM263.527 95.2531L263.644 95.2335C267.825 94.5388 272.371 94.6688 276.191 96.6849C276.223 96.7014 276.209 96.754 276.173 96.7524L274.943 96.7033C271.05 96.5508 267.169 96.4605 263.341 97.3755L262.949 97.47C261.57 97.8064 260.131 98.2182 259.023 99.129C257.965 99.9997 257.438 101.343 256.931 102.579L256.863 102.742C256.349 103.964 255.699 105.122 254.572 105.885C253.112 106.874 251.357 106.753 249.683 106.888C246.736 107.124 244.327 109.261 243.128 111.875C242.402 113.458 242.093 115.233 242.031 116.964C242 117.846 241.995 118.762 242.113 119.637C242.15 119.917 242.496 120.937 242.673 120.913C243.065 120.858 243.423 121.063 243.545 121.376C244.513 120.44 245.51 119.531 246.538 118.655C249.101 116.472 251.861 114.493 254.768 112.793C256.987 111.495 259.328 110.209 261.751 109.236C261.559 109.232 261.37 109.271 261.186 109.366C261.106 109.408 261.026 109.307 261.09 109.24C261.853 108.437 262.767 108.323 263.689 108.537C263.886 108.474 264.083 108.414 264.28 108.356C264.379 108.328 264.428 108.463 264.347 108.516L264.121 108.66C265.127 108.997 266.114 109.66 266.895 110.182C269.141 111.683 271.117 113.519 273.12 115.319L273.485 115.646C275.248 117.221 277.056 118.752 279.06 120.015C280.109 120.677 281.21 121.288 282.366 121.743C283.357 122.134 284.97 122.38 285.434 123.428C285.847 123.929 285.675 124.569 285.191 124.906C284.377 125.803 282.746 125.224 281.775 124.85C280.605 124.4 279.471 123.858 278.389 123.223C276.289 121.99 274.353 120.457 272.549 118.825C270.666 117.122 268.889 115.312 267.057 113.555C266.263 112.794 265.488 112.015 264.693 111.254L264.293 110.876C263.887 110.495 263.309 109.902 262.691 109.543C261.527 110.238 260.344 110.904 259.19 111.617C257.58 112.612 256.016 113.678 254.477 114.78C251.514 116.901 248.706 119.277 246.099 121.824C241.318 126.493 237.244 131.826 233.686 137.473L233.416 137.903C231.394 141.135 229.481 144.471 228.126 148.042C226.634 151.972 225.908 156.104 225.514 160.276C225.123 164.417 224.991 168.58 224.554 172.718C224.105 176.961 223.222 181.111 222.217 185.253L221.978 186.235C221.068 189.945 220.13 193.655 219.663 197.452C219.413 199.48 219.263 201.536 219.297 203.581C219.331 205.638 219.654 207.649 219.915 209.684C220.015 210.464 219.248 211.114 218.561 211.218C217.772 211.336 217.094 210.832 216.849 210.099C216.084 207.813 215.945 205.285 215.969 202.886C215.993 200.449 216.304 198.029 216.742 195.635C217.602 190.925 218.929 186.313 220.04 181.66C221.018 177.559 221.675 173.45 222.029 169.249C222.396 164.89 222.617 160.516 223.287 156.188C223.949 151.916 225.194 147.835 227.072 143.94C228.781 140.393 230.913 137.054 233.147 133.818C235.861 129.889 238.841 126.149 242.172 122.743C241.873 122.73 241.565 122.633 241.283 122.457C240.42 121.918 240.018 120.864 239.894 119.902C239.605 117.652 239.675 115.302 240.254 113.102C241.187 109.552 243.609 106.398 247.12 105.118C248.024 104.789 248.985 104.669 249.942 104.645C250.851 104.622 251.844 104.741 252.721 104.453C254.116 103.994 254.715 102.349 255.239 101.103L255.263 101.046C255.935 99.457 256.741 98.0955 258.197 97.1036C259.749 96.0452 261.695 95.5639 263.527 95.2531ZM303.251 101.535C304.507 101.099 306.078 101.495 307.306 101.876C308.675 102.3 309.94 103.082 311.024 104.01C312.168 104.989 313.114 106.199 313.782 107.549L313.845 107.679C314.456 108.932 315.15 110.652 314.843 112.029C314.834 112.068 314.824 112.105 314.812 112.142C317.305 113.369 319.607 114.907 321.612 116.856C323.946 119.124 325.922 121.706 327.595 124.496C334.238 135.574 335.407 148.88 336.191 161.514L336.387 164.717C336.813 171.635 337.312 178.536 338.607 185.358L338.701 185.85C340.085 192.993 342.067 200.19 341.866 207.517C341.806 209.713 338.563 209.698 338.469 207.517C338.115 199.31 336.2 191.386 334.904 183.307C332.623 169.094 333.766 154.441 330.534 140.37C329.265 134.848 327.3 129.492 324.495 124.562C323.109 122.127 321.523 119.775 319.666 117.674C318.068 115.866 316.407 114.127 314.539 112.607C313.942 113.205 312.75 112.9 312.438 112.029C312.224 111.43 312.287 110.729 312.149 110.102C312.022 109.519 311.846 108.942 311.612 108.393C311.145 107.3 310.46 106.251 309.669 105.366C308.815 104.41 307.833 103.615 306.734 102.959C305.627 102.299 304.417 102.102 303.251 101.619C303.211 101.603 303.208 101.55 303.251 101.535ZM308.132 177.496C308.134 177.438 308.201 177.411 308.243 177.45C308.684 177.855 308.95 178.437 309.274 178.936C309.648 179.511 310.041 180.074 310.452 180.623C311.277 181.722 312.195 182.758 313.121 183.774C313.982 184.718 314.899 185.622 315.851 186.475C316.882 187.398 318.037 188.222 318.974 189.245C320.929 191.38 321.245 194.309 321.657 197.059L321.702 197.357C321.954 198.989 322.179 200.626 322.382 202.265C322.481 203.062 322.579 203.86 322.66 204.66L322.685 204.913C322.756 205.695 322.776 206.489 322.327 207.173C321.846 207.904 320.753 208.161 320.103 207.459C318.986 206.254 319.195 204.114 319.05 202.564C318.93 201.282 318.794 200.002 318.641 198.724L318.564 198.085C318.384 196.631 318.238 195.148 317.906 193.719C317.613 192.46 317.054 191.511 316.137 190.599C315.214 189.681 314.255 188.824 313.402 187.835C312.498 186.786 311.683 185.661 310.948 184.487C310.32 183.484 309.816 182.391 309.355 181.3L309.278 181.118C308.832 180.054 308.097 178.668 308.132 177.496ZM324.255 131.785C324.264 131.637 324.484 131.634 324.487 131.785C324.515 133.062 324.541 134.338 324.568 135.615C324.781 145.903 324.65 156.215 325.681 166.467C326.168 171.301 327.064 176.064 328.101 180.807C328.631 183.234 329.188 185.655 329.717 188.082C330.232 190.448 330.785 192.825 331.194 195.212C331.596 197.559 331.955 199.924 332.117 202.3L332.137 202.611C332.206 203.762 332.538 205.455 331.905 206.476C331.218 207.581 329.903 207.601 329.167 206.546C328.476 205.555 328.648 203.792 328.526 202.611C328.402 201.406 328.271 200.201 328.122 199C327.831 196.656 327.448 194.318 327.05 191.99C326.22 187.143 325.017 182.356 324.129 177.517C323.219 172.557 322.571 167.563 322.544 162.514C322.517 157.422 323.056 152.339 323.328 147.259C323.604 142.098 323.918 136.942 324.255 131.785ZM275.675 99.7868C275.952 98.8568 276.926 98.2754 277.877 98.5366C278.748 98.7761 279.467 99.8338 279.126 100.739C278.755 101.726 278.105 102.568 277.558 103.466C277.052 104.295 276.314 104.948 275.799 105.763L276.367 106.375C276.651 106.681 276.936 106.984 277.224 107.283L278.214 108.309C278.985 109.106 279.761 109.9 280.559 110.67C282.906 112.934 285.29 115.124 287.918 117.063C288.516 117.504 289.119 117.943 289.738 118.354L289.97 118.507C290.395 118.785 290.869 119.059 291.383 119.012C292.631 118.897 293.759 117.571 294.617 116.746L294.661 116.703C296.787 114.68 298.755 112.468 300.476 110.089C300.858 109.561 301.228 109.023 301.588 108.479C300.756 107.507 300.955 105.61 300.909 104.431C300.877 103.602 300.874 102.772 300.87 101.943L300.868 101.775C300.857 101.238 300.833 100.723 301.182 100.282C301.202 100.256 301.244 100.257 301.27 100.27C301.747 100.52 301.894 100.939 302.097 101.409L302.119 101.458C302.366 102.021 302.604 102.59 302.844 103.157C303.095 103.751 303.326 104.354 303.559 104.954C303.668 105.234 303.772 105.514 303.873 105.797C303.935 105.977 303.999 106.156 304.064 106.335L304.08 106.349C304.167 106.422 304.24 106.5 304.304 106.58C304.57 106.714 304.781 106.956 304.881 107.313C305.097 108.089 304.65 108.722 304.251 109.339C302.631 111.842 300.784 114.228 298.732 116.392C297.712 117.467 296.639 118.494 295.523 119.468L295.328 119.637C294.325 120.5 293.236 121.317 291.896 121.518C290.328 121.754 289.052 120.974 287.852 120.076L287.733 119.986C286.595 119.124 285.48 118.232 284.4 117.3C282.198 115.398 280.103 113.356 278.244 111.115C276.435 108.936 274.648 106.499 273.533 103.877C273.465 103.717 273.644 103.55 273.784 103.683C274.328 104.202 274.852 104.749 275.37 105.302C275.384 104.487 275.234 103.665 275.318 102.845C275.42 101.848 275.39 100.747 275.675 99.7868Z" fill="black"/>
      <path fill-rule="evenodd" clip-rule="evenodd" d="M312.061 64.7582C311.693 59.9951 312.263 55.0027 310.427 50.4753C307.226 42.9636 298.251 40.459 291.292 37.5992C288.505 36.7751 279.125 36.66 275.861 35.5694C268.473 33.1011 266.708 30.1601 260.839 34.8598C259.848 35.6627 259.228 36.5353 258.776 37.7274L258.794 37.7325C258.665 38.2296 258.803 38.7255 259.094 39.1043C256.549 41.7068 255.484 45.6085 256.79 49.0729C261.052 58.0881 260.851 62.9626 259.478 72.6543C257.685 81.7022 261.782 85.0073 268.568 89.9303C268.292 90.4662 268.235 91.1785 268.595 91.6513C276.442 102.682 291.237 107.949 303.913 102.35C309.059 100.059 311.356 94.577 312.667 89.6306C314.194 84.092 314.663 78.2558 313.42 72.6139C312.918 70.0046 312.265 67.4142 312.061 64.7582Z" fill="white"/>
      <path fill-rule="evenodd" clip-rule="evenodd" d="M266.8 11.9862C267.752 11.8432 268.471 12.4343 268.813 13.2676L268.831 13.3124C268.941 13.5959 269.064 13.8717 269.195 14.1428C271.579 12.9731 274.98 13.2737 276.488 15.6426C277.564 17.3344 276.908 19.3423 276.502 21.1363L276.236 22.3185C276.751 22.6462 277.139 23.2332 277.121 23.8411L277.118 23.8879L277.01 25.5363C277.354 25.1877 277.668 24.8082 277.949 24.4038C278.142 24.049 278.351 23.7004 278.576 23.3627C279.897 21.3749 282.862 23.1024 281.772 25.2311C281.563 25.6417 281.328 26.0306 281.075 26.4055C280.79 26.9586 280.556 27.5272 280.377 28.1113C280.893 28.3359 281.289 28.8348 281.331 29.5877C281.428 31.3462 280.505 32.8134 279.037 33.7352C278.605 34.0063 278.159 34.059 277.755 33.9583C277.684 34.0543 277.612 34.1504 277.544 34.248C278.13 34.7236 278.658 35.2659 279.112 35.867C280.478 35.6625 281.851 35.5664 283.225 35.5633C284.904 34.7407 286.914 34.7577 288.718 35.066C289.88 35.2643 290.995 35.6501 292.138 35.9274C293.342 36.2187 294.566 36.2295 295.785 36.4278C297.321 36.6773 298.668 37.3869 299.515 38.5194C300.446 38.5473 301.425 38.9284 302.237 39.4459C304.126 40.6512 306.004 41.8736 307.889 43.0867C308.613 43.5524 308.883 44.2959 308.75 45.1252L308.741 45.1782L308.677 45.5222L308.827 45.7339C309.403 46.5487 310.031 47.4022 310.404 48.3016C311.095 49.2978 311.719 50.342 312.272 51.4188C313.017 52.8658 313.632 54.3996 314.048 55.9737C314.152 56.3719 314.256 56.7731 314.324 57.1791C314.422 57.7523 314.271 58.1969 314.189 58.7469C314.087 59.4441 314.05 60.1506 313.941 60.8493C313.869 61.3126 313.475 61.5403 313.063 61.5527C313.218 62.7317 313.33 63.9185 313.437 65.0959C313.587 66.7785 313.689 68.4656 313.777 70.1528C314.233 70.8144 315.163 71.338 315.836 71.5193C316.766 71.7687 317.742 71.4976 318.622 71.18C319.174 70.9801 319.628 71.6758 319.359 72.1405C318.512 73.6 316.7 73.5938 315.328 72.9477C314.747 72.6751 314.237 72.28 313.859 71.7656C313.883 72.2552 313.907 72.7448 313.932 73.2359L313.955 73.6807C314.234 78.8758 314.837 84.2496 313.861 89.3935C312.171 98.3034 304.801 105.088 295.797 105.615C291.072 105.891 287.138 104.495 285.181 103.716C283.225 102.937 283.985 101.349 285.343 101.803C287.683 102.585 291.981 103.75 295.828 103.247C304.894 102.062 312.582 97.5285 311.792 78.0046C311.68 75.2359 311.335 72.4659 311.261 69.6973C311.189 66.9907 311.216 64.2825 311.097 61.5775L311.057 60.6545C311.01 59.5761 310.96 58.4927 310.88 57.413C310.782 56.9947 310.702 56.5702 310.582 56.1596C310.259 55.0426 309.836 53.9565 309.311 52.92C309.195 53.0084 309.065 53.0719 308.924 53.0967C307.854 53.2888 306.85 53.2346 305.848 52.7884C305.38 52.5823 304.968 52.3081 304.584 51.9688C304.402 51.8092 304.279 51.6543 304.183 51.4931C303.698 51.5009 303.214 51.3553 302.91 51.0067C302.564 50.6094 302.506 50.199 302.642 49.8191L302.656 49.7812L302.622 49.7688C302.213 50.827 301.399 51.7581 300.505 52.3871C299.093 53.3848 297.326 53.673 295.631 53.6993C293.761 53.7272 291.788 53.4391 289.942 53.1447C289.454 53.0672 288.969 52.9789 288.493 52.8596C288.475 52.8782 288.456 52.8999 288.436 52.9185C286.852 54.4353 284.623 54.8257 282.613 53.9596C281.452 53.4592 280.478 52.6536 279.616 51.7302C279.604 52.2136 279.579 52.6969 279.537 53.1757L279.52 53.3658C279.434 54.2574 279.269 55.2032 278.596 55.8467C277.507 56.8893 275.927 56.471 274.671 55.7924C274.673 55.825 274.673 55.8591 274.673 55.8931C275.012 57.0458 275.353 58.2 275.694 59.3543L275.767 59.6001C276.015 60.4197 276.286 61.2403 276.361 62.098C276.504 63.7372 275.413 65.3562 273.592 64.8062C272.637 64.5187 271.871 63.7152 271.137 63.0716L270.674 62.6713C271.871 66.5863 272.702 70.6408 272.779 74.7263C272.784 74.9479 272.593 75.1152 272.383 75.1229C271.89 75.1431 271.36 75.0455 270.865 74.8487C270.837 74.8472 270.809 74.8456 270.78 74.841C269.934 74.7186 269.149 74.4134 268.457 73.9625C268.616 74.4691 268.687 75.0129 268.646 75.5815C268.635 75.7194 268.419 75.7674 268.388 75.6156C267.989 73.6496 265.689 72.1638 263.707 72.5403C261.579 72.9446 260.012 74.7759 259.628 76.8597C259.216 79.0984 260.004 81.6873 261.464 83.4147C262.136 84.2111 263.021 84.8757 264.071 85.043C264.551 85.119 265.05 85.0926 265.516 84.9563C265.714 84.8974 265.9 84.8153 266.089 84.7378C266.364 84.6263 266.686 84.6092 266.947 84.4915C267.537 84.2266 268.13 84.7704 267.831 85.3761C267.571 85.9044 267.337 86.2608 266.905 86.5335C267.255 86.9611 267.572 87.556 267.69 87.7156C268.291 88.5274 268.901 89.2943 269.586 90.0364C270.283 90.7894 271.043 91.4772 271.847 92.114L272.185 92.3811C272.959 92.9953 273.633 93.5645 274.179 94.4457C274.61 95.1413 274.052 96.0848 273.245 96.074C270.721 96.0384 268.886 93.8198 267.579 91.8816C267.393 91.6043 267.218 91.3115 267.055 91.0109C266.996 91.1054 266.931 91.1937 266.858 91.2743L267.002 91.6616C267.43 92.8019 265.588 93.5471 265.054 92.4827C264.665 91.7112 264.215 90.9768 263.713 90.2827C263.417 90.2409 263.128 90.0612 262.967 89.8288C262.559 89.2385 262.102 88.642 261.717 88.013C261.503 87.8101 261.283 87.6149 261.059 87.4243C260.993 87.4816 260.927 87.5389 260.863 87.5994C260.582 88.2423 260.233 88.8295 259.801 89.3826L259.708 89.5006C258.881 90.5442 257.802 91.6124 256.468 91.8677C256.061 91.9451 255.669 91.4385 256.03 91.1147C256.964 90.275 258.068 89.7033 258.929 88.766C259.353 88.3042 259.743 87.7956 260.078 87.2627L260.154 87.1392C260.21 87.0478 260.267 86.9564 260.326 86.8635C259.937 86.5985 259.549 86.3321 259.16 86.0656C258.09 86.9802 256.696 87.3985 255.513 88.1561L255.395 88.233C254.325 88.9488 253.197 87.3654 254.055 86.4963C255.001 85.5418 255.791 84.4035 256.629 83.3425C256.235 82.6165 256.048 81.7581 255.978 80.8905C255.951 80.6449 255.929 80.3992 255.908 80.1535C255.307 80.1628 254.703 79.9567 254.192 79.6019L253.998 79.4641C253.377 79.6624 252.725 79.7584 252.101 79.7414C250.633 79.698 250.032 78.0201 250.95 76.9588C251.887 75.8743 253.527 75.6373 254.827 76.1641C254.868 76.1424 254.912 76.1191 254.954 76.0959C254.892 75.8108 254.905 75.5522 254.976 75.3251L254.955 75.1866C254.67 74.748 254.482 74.2473 254.411 73.7182C254.354 73.2991 254.366 72.8837 254.463 72.4699C254.495 72.3322 254.562 72.1895 254.613 72.0459C254.508 71.7791 254.446 71.5033 254.426 71.226C254.397 71.1908 254.367 71.1547 254.339 71.1157C253.695 70.2101 253.825 69.119 254.439 68.3862C254.441 68.3395 254.446 68.2929 254.452 68.2466C254.416 68.1657 254.383 68.084 254.353 68.0015C253.754 67.3965 253.313 66.6685 253.395 65.7663C253.444 65.2355 253.662 64.7577 253.992 64.4006C253.933 64.2274 253.928 64.0268 253.999 63.8593C253.472 62.4578 253.538 60.7698 253.918 59.2024C253.834 58.9638 253.791 58.7051 253.8 58.4309C253.843 57.2674 254.85 56.1983 256.042 56.2123C256.186 56.2135 256.32 56.2323 256.45 56.2597L256.451 56.232C256.497 55.8828 256.593 55.56 256.733 55.2705C256.664 55.2455 256.6 55.2097 256.544 55.1622C255.78 55.57 254.972 55.8817 254.124 56.0941C253.501 56.2502 252.862 55.5414 253.25 54.9561C253.429 54.6845 253.628 54.4407 253.842 54.2179C253.538 54.2196 253.229 54.2402 252.917 54.2803C252.356 54.3531 251.731 53.9705 251.367 53.453C250.915 53.893 250.461 54.3315 250.007 54.7699C248.858 55.8838 247.122 55.0643 246.941 53.5955C246.598 53.5041 246.279 53.3492 245.999 53.1277C244.187 53.9147 242.237 54.3469 240.244 54.4291C238.813 54.4879 237.977 52.8209 238.646 51.6434C239.095 50.8533 239.653 50.1437 240.295 49.5271C239.298 49.8323 238.268 50.0523 237.217 50.1933C236.648 50.2692 235.844 49.7982 235.617 49.2761C234.746 47.2682 234.821 45.1751 235.823 43.2215C235.861 43.144 235.905 43.0697 235.947 42.9953C236.05 42.7366 236.163 42.4809 236.286 42.2299C235.053 40.944 234.946 39.0322 235.611 37.4318C235.344 36.9995 235.242 36.479 235.423 36.008C235.939 34.6524 236.682 33.4005 237.621 32.3253C237.531 32.1518 237.452 31.9674 237.385 31.7691C236.857 30.1656 237.469 28.2305 238.703 27.1135C239.479 26.4101 240.371 25.9887 241.324 25.7191C241.725 25.0096 242.24 24.3697 242.841 23.8306C242.865 23.7794 242.888 23.7283 242.914 23.6772C243.85 21.9141 245.553 20.969 247.379 20.7506C247.45 20.0611 247.915 19.4027 248.59 19.1889C248.776 18.5924 249.053 18.0223 249.434 17.5048C250.033 16.6899 251.029 16.3057 251.968 16.8402C252.482 17.133 252.974 17.4692 253.436 17.841C253.643 17.7438 253.878 17.6808 254.143 17.6608L254.21 17.6566L255.737 17.5792C256.377 17.2957 257.015 16.9982 257.655 16.7085C258.039 16.3909 258.468 16.1259 258.935 15.9292C259.465 15.7076 260.007 15.5821 260.551 15.5403C260.992 15.3962 261.436 15.2692 261.889 15.17C262.951 14.9376 264.063 14.8075 265.166 14.8183C265.188 14.5328 265.199 14.2439 265.197 13.9516L265.195 13.8051C265.17 12.8678 265.918 12.1195 266.8 11.9862ZM265.729 86.9799C265.578 87.0125 265.424 87.0388 265.271 87.0574C265.317 87.172 265.364 87.2867 265.409 87.4013C265.533 87.4711 265.658 87.5377 265.784 87.5996C265.746 87.3889 265.725 87.1767 265.729 86.9799ZM257.773 84.6144L257.67 84.804C257.653 84.8351 257.637 84.8657 257.621 84.8959C257.839 84.8788 258.059 84.8835 258.276 84.9083L258.275 84.8852C258.247 84.8757 258.219 84.8671 258.193 84.854C258.043 84.7822 257.904 84.7016 257.773 84.6144ZM262.073 75.9612C263.443 76.041 264.604 76.2512 265.85 76.8508L265.957 76.9031C267.058 77.45 268.88 78.4602 268.726 79.9088C268.683 80.3209 268.384 80.7547 267.913 80.7221C266.623 80.6338 265.886 79.3324 265.013 78.5206C264.131 77.7026 263.049 76.8613 261.982 76.2989C261.831 76.2197 261.89 75.9691 262.054 75.961L262.073 75.9612ZM255.86 56.8755C255.532 56.8863 255.642 57.2055 255.81 56.939C255.824 56.9173 255.841 56.8956 255.86 56.8755ZM273.582 35.5693C270.473 35.6511 267.343 37.4878 265.014 39.3443C262.987 40.9594 261.237 42.8806 259.688 44.9512C259.289 45.9824 258.947 47.0351 258.658 48.0956C258.467 48.7959 258.348 49.5039 258.189 50.2104L258.139 50.427C258.014 50.6613 257.921 50.9133 257.853 51.1738C258.135 51.457 258.501 51.6598 258.905 51.756C259.035 51.787 259.143 51.8541 259.228 51.943C259.553 51.401 259.836 50.829 260.001 50.2227L260.007 50.1946C260.631 49.1722 261.309 48.1816 262.036 47.2249C264.04 44.5834 266.246 42.1758 268.899 40.1726C270.911 38.6543 273.16 37.4644 275.551 36.6913C274.966 36.2189 274.301 35.8452 273.582 35.5693Z" fill="black"/>
      <path fill-rule="evenodd" clip-rule="evenodd" d="M297.826 93.1362C296.785 92.7114 295.856 92.0027 295.177 91.0973C294.941 90.7826 294.879 90.4503 294.929 90.1463C294.985 89.8045 295.187 89.4947 295.462 89.2869C295.739 89.0785 296.085 88.9757 296.419 89.0281C296.71 89.0736 296.999 89.2328 297.228 89.5629L297.276 89.6289C297.679 90.1753 298.206 90.6236 298.805 90.9126C299.383 91.1911 300.029 91.3211 300.698 91.2456C301.971 91.1016 302.849 90.4126 303.782 89.4769C303.898 89.3587 304.014 89.2369 304.13 89.1131C304.203 89.0008 304.305 88.9287 304.418 88.8909C304.544 88.8489 304.686 88.8512 304.816 88.8967C304.942 88.9405 305.054 89.0236 305.129 89.1341C305.201 89.2392 305.242 89.369 305.228 89.5183C305.143 90.488 304.636 91.3534 303.916 92.033C303.117 92.7877 302.057 93.3098 301.059 93.493C299.96 93.6947 298.84 93.5502 297.826 93.1362ZM301.577 78.1768C302.747 78.8879 304.529 80.5461 303.271 82.3091C301.79 83.8636 299.658 82.0812 298.607 81.2752C297.633 80.6505 296.538 82.2572 297.442 82.9866C305.034 88.6098 308.115 78.3627 302.169 77.3406C301.514 77.228 301.271 77.9568 301.577 78.1768ZM287.973 71.635C288.102 70.0306 290.545 69.6662 290.788 71.2539C291.005 72.6762 290.749 73.9827 290.109 75.2632C289.497 76.4865 287.959 75.9157 287.843 74.8018C287.687 73.3086 287.892 72.6331 287.973 71.635ZM306.566 70.9249C306.907 70.4787 307.398 70.1741 307.988 70.3462C309.828 70.8843 309.286 73.4984 308.639 74.7708C308.288 75.4618 307.153 75.637 306.64 75.0286C305.803 74.0364 305.403 72.0551 306.466 71.0778C306.495 71.0273 306.527 70.9763 306.566 70.9249ZM290.082 64.6146L290.373 64.5637C291.273 64.408 292.391 64.2585 293.027 64.9819C293.365 65.3655 293.481 66.0785 293.027 66.4457C292.229 67.0917 291.347 66.8414 290.391 66.8961C289.603 66.9413 288.846 67.0717 288.087 67.2888C286.422 67.7649 285.065 68.6341 283.643 69.5884C283.456 69.7136 283.266 69.4749 283.355 69.3002C284.176 67.6916 285.767 66.3702 287.36 65.5647C288.211 65.1348 289.141 64.7782 290.082 64.6146ZM304.888 63.894L305.111 63.9395C307.533 64.4459 310.679 65.4575 311.826 67.8371C311.87 68.1736 311.823 68.2457 311.786 68.2928L311.773 68.3085C311.742 68.3488 311.718 68.4042 311.572 68.45C311.532 68.4404 311.491 68.4302 311.449 68.4193C310.924 68.2815 310.508 68.0917 310.105 67.8947L309.669 67.6795C309.162 67.4311 308.651 67.1917 308.11 67.0149C306.954 66.6378 305.765 66.3722 304.558 66.2303C304.296 66.1996 304.045 66.1113 303.846 65.9599C303.657 65.8162 303.513 65.6172 303.447 65.3528C303.362 65.0105 303.387 64.7514 303.57 64.4427C303.708 64.2108 303.906 64.0501 304.132 63.9578C304.364 63.8637 304.627 63.8415 304.888 63.894Z" fill="black"/>
      <path fill-rule="evenodd" clip-rule="evenodd" d="M287.783 94.1078C289.037 91.1692 291.774 89.0095 294.924 88.2199C297.238 87.6416 299.666 87.66 302.025 87.8896C303.261 88.009 304.586 88.1069 305.751 88.5659C306.745 88.9582 307.556 89.6995 308.165 90.5698C308.891 91.601 309.384 92.7813 309.73 93.991C309.78 94.163 309.826 94.3362 309.869 94.5104C309.718 95.4231 309.398 96.2 308.553 96.7739C307.729 97.3342 306.745 97.5635 305.764 97.6449C305.668 97.5987 305.575 97.5512 305.49 97.5025C303.961 96.6271 302.885 94.5585 300.956 94.8384C299.234 95.0885 298.101 97.2556 297.077 98.5264C293.79 98.9095 290.506 97.9216 287.832 96.0415C287.696 95.398 287.688 94.7491 287.783 94.1078ZM312.102 91.8784C311.839 91.1403 311.508 90.4254 311.116 89.752C309.818 87.525 307.826 85.7506 305.461 84.7363C299.867 82.34 292.629 84.0292 288.111 87.9591C286.568 89.3026 285.007 91.2768 284.535 93.4003C284.395 93.4282 284.262 93.5016 284.152 93.6049C280.888 91.5491 277.527 89.5712 274.897 86.7215C272.986 84.651 271.658 82.2006 270.844 79.508C270.778 79.2864 270.421 79.3188 270.431 79.564C270.435 79.6214 270.438 79.6786 270.441 79.736C270.407 79.6305 270.246 79.6848 270.233 79.7872C269.796 83.0581 269.248 86.526 269.752 89.8141C270.054 91.776 270.945 93.2123 272.136 94.7633C273.412 96.4257 274.856 97.972 276.333 99.4549C277.271 100.396 278.25 101.482 279.397 102.172C280.732 102.974 282.246 103.584 283.671 104.202C285.12 104.833 286.591 105.417 288.089 105.922C291.085 106.937 294.182 107.638 297.332 107.945C299.855 108.19 302.737 108.457 305.155 107.507C307.008 106.78 308.503 105.465 309.69 103.883C310.981 102.16 312.002 100.197 312.566 98.1271C313.153 95.9772 312.226 92.225 312.102 91.8784Z" fill="black"/>
    </g>
    <g clip-path="url(#clip2_1661_26720)">
      <path fill-rule="evenodd" clip-rule="evenodd" d="M145.43 194.16C145.183 189.569 144.88 184.981 144.516 180.398C143.792 171.268 142.844 162.131 141.267 153.106C139.711 144.201 137.532 135.542 134.395 127.057C132.939 123.12 131.362 119.762 129.075 116.223C126.913 112.877 124.153 110.61 120.715 108.59C117.617 106.77 114.018 103.613 111.047 101.575C109.807 100.724 107.255 100.781 106.405 99.5221C105.291 97.8741 106.013 95.3517 104.89 93.7092C103.607 91.8311 101.809 90.3722 99.7812 89.3123C97.5683 87.8132 94.9619 87.1346 92.3485 87.228C88.4947 86.9942 84.6134 88.2216 82.1392 91.3595C80.9046 92.9255 80.1837 94.7323 80.084 96.7329C80.058 97.2533 80.2251 97.6636 80.5001 97.9598C80.337 98.1779 80.1747 98.3962 80.0135 98.6158C79.5074 97.8659 78.3245 97.4674 77.5362 98.0334C74.9574 99.8853 72.1702 101.358 69.2285 102.437C68.5402 102.111 67.7071 102.262 67.1175 102.794C66.8782 103.01 66.6244 103.194 66.3591 103.351C65.2683 103.647 64.1607 103.894 63.0367 104.085C62.6848 104.144 62.3867 104.344 62.1606 104.614C61.8256 104.3 61.3652 104.15 60.851 104.346C54.9141 106.61 49.3076 110.127 45.0461 114.892C40.3247 120.171 37.845 126.738 35.9571 133.465C33.9135 140.748 32.6075 148.212 31.5106 155.689C30.3991 163.264 29.3043 170.869 28.5396 178.489C28.1092 182.777 27.945 187.103 28.1399 191.41C28.237 193.562 28.4335 195.708 28.7465 197.84C28.8194 198.338 28.8958 198.913 29.0187 199.486C28.645 199.414 28.1999 199.73 28.2757 200.235C28.8032 203.759 33.0611 204.785 35.9977 205.191C40.8013 205.854 45.6298 206.222 50.4795 206.25C55.2452 206.278 60.0102 205.972 64.7661 205.698C69.642 205.417 74.5177 205.135 79.3934 204.849C98.9284 203.703 118.464 202.57 138 201.424C139.784 201.319 141.822 201.177 143.351 200.142C145.446 198.722 145.554 196.466 145.43 194.16Z" fill="white"/>
      <path fill-rule="evenodd" clip-rule="evenodd" d="M50.1978 154.753C50.13 154.626 50.2873 154.512 50.3917 154.604C52.7632 156.686 54.0048 160.029 54.2651 163.12C54.5409 166.397 54.1499 169.79 54.0004 173.066C53.8341 176.715 53.6847 180.365 53.4816 184.012C53.2755 187.713 53.0534 191.412 52.8631 195.113L52.4349 203.438C52.3893 204.326 52.488 205.417 52.1476 206.245C51.6201 207.529 50.0533 207.33 49.724 206.257L49.7137 206.222L49.6836 206.245C49.3931 205.278 49.6105 204.13 49.6598 203.13L50.1084 194.034C50.4254 187.604 50.7081 181.174 51.0486 174.746L51.1643 172.603C51.3235 169.719 51.4456 166.842 51.5436 163.958L51.5754 162.996C51.6684 160.101 51.5946 157.368 50.1978 154.753ZM107.687 101.378C109.008 101.253 110.006 101.691 111.205 102.153C111.728 102.354 112.222 102.586 112.724 102.826C113.351 103.127 113.755 103.66 114.141 104.222L114.348 104.526C115.957 106.884 117.04 109.605 118.261 112.173C119.69 115.177 121.133 118.175 122.531 121.193L123.221 122.68C123.566 123.423 123.91 124.167 124.249 124.914L124.835 126.213C125.423 127.53 125.95 128.924 125.112 130.283C124.332 131.547 122.95 132.524 121.856 133.501C120.943 134.317 120.03 135.132 119.117 135.947C121.005 137.838 122.272 140.219 123.017 142.772C124.075 142.331 125.367 142.247 126.462 142.056C127.993 141.789 128.181 144.109 126.735 144.08C125.668 144.059 124.415 144.168 123.32 143.943C123.51 144.783 123.648 145.634 123.736 146.489C124.196 150.965 123.191 155.468 122.142 159.799L122.056 160.155C120.916 164.843 119.836 169.544 118.87 174.271C117.902 179.008 117.031 183.765 116.257 188.538C115.47 193.396 114.913 198.281 114.315 203.165C114.224 203.904 113.759 204.537 112.943 204.537C112.263 204.537 111.485 203.902 111.571 203.165C112.188 197.846 113.064 192.556 113.935 187.274C115.433 178.177 117.32 169.16 119.49 160.202L119.869 158.642C120.846 154.596 121.731 150.427 121.242 146.254C120.843 142.856 119.422 139.232 116.615 137.122L116.53 137.058C115.874 136.577 115.622 135.657 116.268 135.024C116.679 134.62 117.09 134.218 117.502 133.815L119.973 131.402L120.471 130.914C120.886 130.509 121.304 130.105 121.734 129.714C121.994 129.478 122.699 129.027 122.751 128.638C122.784 128.385 122.484 127.939 122.362 127.705L121.804 126.579C121.488 125.937 121.181 125.29 120.872 124.644C120.231 123.306 119.581 121.972 118.954 120.627L115.187 112.554C114.125 110.276 113.178 107.871 111.789 105.765L111.515 105.355C111.286 105.009 111.084 104.677 110.94 104.254C110.801 103.847 110.627 103.401 110.37 103.054C109.768 102.239 108.618 101.777 107.656 101.607C107.517 101.582 107.567 101.39 107.687 101.378ZM78.7172 99.2578C78.8009 99.2578 78.8136 99.3772 78.7364 99.4005C77.5755 99.7497 76.4662 100.313 75.5612 101.127C75.1281 101.516 74.6922 101.957 74.4249 102.481C74.3226 102.682 74.2659 102.894 74.2245 103.113L74.2112 103.187C74.1422 103.584 74.0435 103.804 73.842 104.122L73.8074 104.176C72.6572 105.953 71.8511 107.926 71.1141 109.902L69.5091 114.211L67.9051 118.521C67.3883 119.909 66.8712 121.298 66.3542 122.686C66.0686 123.453 65.775 124.216 65.4815 124.98C65.3545 125.31 65.218 125.639 65.1018 125.973C65.0858 126.019 65.0351 126.295 64.997 126.362L65.01 126.384C65.3335 126.929 66.1963 127.384 66.6853 127.779L68.3694 129.141C69.5701 130.113 70.8016 131.057 71.9662 132.071C72.6978 132.708 72.2426 133.849 71.4268 134.115C70.0596 134.561 68.7201 135.094 67.3734 135.598C66.8294 135.802 66.2629 135.979 65.7253 136.203L65.398 136.345C65.2701 136.402 65.3316 136.402 65.3367 136.638C65.3418 136.885 65.412 137.143 65.4523 137.387C65.9059 140.13 66.3867 142.87 66.8942 145.604C68.6895 155.273 70.8343 164.872 73.2804 174.397C74.5159 179.207 75.841 183.993 77.1036 188.796C78.3632 193.586 80.0204 198.308 81.6029 202.999C82.0494 204.322 79.9523 204.892 79.5168 203.574C77.6931 198.057 76.0247 192.491 74.3018 186.942C71.2406 177.082 68.8284 167.008 66.6949 156.91C65.6375 151.905 64.6703 146.881 63.7944 141.842C63.6285 140.888 63.4659 139.933 63.3066 138.978L63.0744 137.572C62.9153 136.571 62.8247 135.528 63.6028 134.735C64.3627 133.962 65.6671 133.687 66.6669 133.325L66.7395 133.298C67.3757 133.06 68.0166 132.832 68.6549 132.596C67.7146 131.855 66.7858 131.098 65.8478 130.358C65.0911 129.761 64.3225 129.176 63.5767 128.565C62.9617 128.061 62.4602 127.414 62.3961 126.595C62.3307 125.758 62.6894 124.981 62.9787 124.213L63.0064 124.139C63.2905 123.372 63.5753 122.606 63.8673 121.842L65.6747 117.114C66.8232 114.109 67.9232 111.08 69.1312 108.099C69.6091 106.919 70.1299 105.758 70.7454 104.643C71.0421 104.105 71.3603 103.579 71.7062 103.071C72.0937 102.502 72.4454 102.225 73.0458 101.91C74.0058 101.408 74.7592 100.566 75.7233 100.049C76.6696 99.5407 77.6431 99.2696 78.7172 99.2578ZM81.8339 93.8973C81.8706 93.8343 81.9678 93.8623 81.9691 93.934C81.9941 95.4272 81.6395 96.9531 81.4213 98.4296C81.2021 99.9114 81.1318 101.475 80.8148 102.941C80.8083 103.01 80.795 103.077 80.7764 103.143L80.7612 103.193C80.6274 103.604 80.2794 103.952 79.8525 104.061C79.9867 104.805 80.1133 105.551 80.2197 106.3C80.4024 107.589 80.5692 108.879 80.7332 110.169L80.9296 111.718C81.115 113.178 81.2952 114.638 81.4735 116.099C81.9268 116.289 82.3894 116.445 82.8631 116.581C83.9542 116.893 85.0717 117.02 86.1976 117.13C88.4905 117.355 90.8009 117.46 93.102 117.587L93.5949 117.615C96.1818 117.764 98.7828 117.79 101.363 117.524C102.643 117.393 103.912 117.172 105.16 116.859C105.794 116.699 106.41 116.462 107.043 116.306C107.253 116.255 107.44 116.136 107.651 116.009C107.744 115.891 107.875 115.801 108.046 115.767L108.092 115.759L108.138 115.752L108.154 115.745L108.152 115.75C108.282 115.732 108.405 115.732 108.521 115.748C108.567 114.609 108.617 113.471 108.68 112.332C108.848 109.275 109.313 106.085 108.692 103.054C108.672 102.952 108.81 102.916 108.846 103.011C110.064 106.22 109.927 109.729 109.988 113.106C110.048 116.409 110.012 119.714 109.996 123.017C110.232 123.118 110.443 123.254 110.61 123.446C110.944 123.828 111.04 124.494 110.61 124.863C110.42 125.027 110.209 125.14 109.985 125.219C109.973 128.089 109.953 130.959 109.924 133.829C110.47 134.251 110.521 135.252 109.904 135.668C109.801 144.961 109.632 154.256 109.492 163.548L109.199 183.044C109.16 185.642 109.095 188.239 109.072 190.836L109.09 190.844L109.155 190.874C109.264 190.925 109.427 191.008 109.461 191.093C109.47 191.115 109.472 191.131 109.471 191.142C109.65 191.167 109.827 191.252 109.981 191.397C110.36 191.757 110.283 192.3 109.981 192.667L109.9 192.765C109.712 192.993 109.355 193.081 109.063 193.035C109.066 194.656 109.076 196.277 109.071 197.898C109.069 198.393 109.062 198.889 109.053 199.384L109.033 200.571C109.019 201.248 108.959 202.109 108.266 202.414C107.483 202.757 106.781 202.476 106.465 201.681C106.379 201.465 106.397 201.265 106.429 201.052C106.419 200.732 106.369 200.361 106.375 200.064L106.401 198.827C106.405 198.636 106.413 198.445 106.418 198.254L106.395 198.256C103.615 198.392 100.815 198.326 98.0296 198.324L96.7909 198.326C95.7574 198.327 94.7217 198.321 93.6896 198.282L93.3028 198.265C92.5302 198.229 91.7176 198.217 90.9166 198.148C91.0186 198.971 91.114 199.794 91.1991 200.618C91.2796 201.399 90.4735 202.063 89.7545 202.063C88.9005 202.063 88.4121 201.391 88.3098 200.618C87.8273 196.968 87.6298 193.285 87.1688 189.633C86.7558 186.362 86.3977 183.084 86.0338 179.807L85.9122 178.714C84.5802 166.788 83.2871 154.858 82.0502 142.922L81.4743 137.342C80.8927 131.718 80.3076 126.094 79.8142 120.462C79.532 117.242 79.272 114.021 79.0273 110.798C78.8478 108.43 78.7351 106.075 78.6617 103.712C78.3722 103.414 78.2271 102.979 78.3554 102.53C78.4303 102.268 78.5175 102.007 78.6095 101.746C78.6038 101.491 78.5977 101.235 78.5928 100.979C78.5881 100.737 78.8341 100.612 79.0309 100.652C79.3886 99.7856 79.7826 98.9265 80.1114 98.0683C80.6435 96.6792 81.0821 95.1825 81.8339 93.8973ZM52.1156 108.91C57.6783 105.422 64.2999 102.913 70.9318 103.183C71.0826 103.189 71.1251 103.419 70.9685 103.454C67.431 104.244 63.8546 105.207 60.5056 106.607C57.1468 108.012 53.9531 109.904 51.1086 112.177C45.8604 116.371 41.7812 121.827 39.0952 127.977C37.5219 131.579 36.419 135.382 35.4561 139.187C34.437 143.213 33.5972 147.283 32.8989 151.377C31.5196 159.465 30.7166 167.641 30.2893 175.832C29.8546 184.164 30.0338 192.501 29.7238 200.834C29.6702 202.278 27.6073 202.25 27.5025 200.834C26.8 191.36 27.1892 181.735 27.8389 172.268C28.423 163.757 29.4431 155.264 31.0858 146.89L31.2289 146.164C32.7646 138.417 34.6169 130.481 38.3293 123.465C41.4989 117.475 46.3921 112.498 52.1156 108.91ZM129.363 145.938C129.392 145.855 129.501 145.856 129.531 145.938C130.165 147.714 130.188 149.717 130.356 151.589L130.369 151.733C130.531 153.44 130.653 155.15 130.766 156.861L130.808 157.502C131.262 164.482 131.83 171.454 132.686 178.397C133.538 185.313 134.691 192.182 135.937 199.037C136.076 199.8 135.738 200.577 134.938 200.797C134.233 200.991 133.328 200.556 133.179 199.798C132.405 195.863 131.779 191.923 131.221 187.954C130.238 180.966 129.504 173.945 129.033 166.904C128.796 163.367 128.65 159.832 128.592 156.288C128.566 154.644 128.608 152.995 128.696 151.353L128.717 150.974C128.814 149.295 128.804 147.539 129.363 145.938ZM69.2539 190.394C69.3282 190.353 69.4202 190.436 69.3732 190.513C68.296 192.264 66.8389 193.774 65.4305 195.262C63.9582 196.818 62.5222 198.421 61.0202 199.946C59.9349 201.047 58.189 199.27 59.3344 198.259C60.9449 196.838 62.6282 195.488 64.2673 194.098L64.9841 193.491C66.3281 192.355 67.7119 191.229 69.2539 190.394ZM120.413 189.517C120.333 189.363 120.516 189.239 120.641 189.341C121.51 190.047 122.289 190.891 123.128 191.636C123.959 192.375 124.82 193.064 125.706 193.736C126.595 194.411 127.503 195.059 128.436 195.672C129.21 196.181 130.008 196.588 130.818 197.01C131.193 197.059 131.541 197.243 131.819 197.592C132.259 198.145 132.306 199.186 131.696 199.666L131.586 199.752C130.874 200.312 130.029 200.38 129.328 199.752C128.546 199.051 127.806 198.28 127.055 197.539L126.829 197.318C126.021 196.532 125.234 195.722 124.491 194.875L123.818 194.11C122.571 192.687 121.273 191.153 120.413 189.517ZM116.411 107.476C116.266 107.38 116.355 107.123 116.534 107.184L116.861 107.297C118.228 107.773 119.635 108.3 120.877 109.031C122.211 109.818 123.442 110.754 124.619 111.759C127.055 113.839 129.127 116.397 130.888 119.063C134.421 124.412 136.606 130.539 138.371 136.669C140.252 143.205 141.7 149.882 142.883 156.578C144.084 163.382 145.011 170.248 145.621 177.132C145.921 180.522 146.122 183.915 146.224 187.318C146.276 189.068 146.274 190.817 146.259 192.568C146.256 193.019 146.259 193.469 146.264 193.919L146.281 195.269C146.29 196.123 146.392 197.02 146.189 197.854C145.863 199.197 143.644 198.946 143.717 197.574C143.65 197.118 143.647 196.646 143.664 196.173C143.654 196.112 143.642 196.05 143.63 195.986C143.593 195.805 143.624 195.637 143.696 195.493C143.707 195.266 143.717 195.04 143.721 194.819C143.736 193.917 143.735 193.019 143.71 192.118C143.657 190.218 143.582 188.317 143.505 186.418C143.353 182.622 143.141 178.825 142.833 175.038C141.763 161.858 139.503 148.604 135.708 135.924C133.945 130.035 131.514 124.255 128.029 119.167C126.482 116.908 124.736 114.822 122.801 112.885C120.854 110.937 118.708 108.998 116.411 107.476ZM90.1477 192.439L90.4107 194.343C90.5422 195.294 90.6724 196.246 90.796 197.199C91.6355 197.084 92.4944 197.036 93.3034 196.964C94.7197 196.839 96.1457 196.778 97.5662 196.719C100.504 196.598 103.456 196.388 106.396 196.403C106.426 196.403 106.455 196.405 106.483 196.407L106.629 192.652L104.563 192.649C102.813 192.646 101.063 192.631 99.3125 192.616C97.7361 192.602 96.1591 192.6 94.583 192.567L93.9076 192.551C92.7123 192.519 91.3925 192.586 90.1477 192.439ZM106.802 186.989C106.718 186.999 106.632 187.007 106.541 187.011C106.132 187.028 105.719 187.016 105.31 187.02C104.438 187.027 103.566 187.033 102.694 187.033C100.95 187.033 99.2066 187.043 97.4631 187.064C95.6682 187.086 93.8745 187.117 92.0794 187.121C91.2097 187.122 90.3427 187.099 89.4733 187.075C89.6139 188.311 89.7609 189.546 89.9232 190.778C91.2733 190.596 92.7255 190.688 94.045 190.675L94.2163 190.673C96.0173 190.642 97.8198 190.665 99.6212 190.667C101.474 190.669 103.327 190.675 105.181 190.69L106.703 190.703L106.706 190.626C106.751 189.415 106.78 188.202 106.802 186.989ZM88.8031 181.075C88.9719 182.534 89.1304 183.996 89.2919 185.457C89.3992 185.44 89.5079 185.426 89.6187 185.414C90.4897 185.323 91.3588 185.245 92.2329 185.191C93.9753 185.083 95.7176 185.026 97.4628 184.979C99.2574 184.931 101.052 184.894 102.848 184.869C103.72 184.856 104.591 184.858 105.463 184.864C105.873 184.866 106.286 184.854 106.694 184.881C106.743 184.884 106.79 184.889 106.836 184.895L106.866 182.701C106.872 182.336 106.877 181.97 106.883 181.605C105.535 181.688 104.165 181.656 102.818 181.657L102.507 181.657C100.815 181.665 99.1214 181.642 97.4292 181.607C95.6833 181.57 93.9411 181.513 92.1983 181.401C91.4923 181.356 90.7913 181.296 90.0891 181.219L89.7379 181.178C89.4324 181.142 89.1177 181.113 88.8031 181.075ZM107.023 174.885C103.776 175.143 100.547 175.251 97.292 175.283L96.8036 175.287C93.927 175.309 91.0268 175.427 88.1435 175.351C88.3158 176.846 88.4878 178.342 88.6611 179.837C89.0739 179.817 89.4888 179.817 89.8924 179.803C90.7134 179.773 91.5315 179.766 92.353 179.764C94.0452 179.76 95.7375 179.775 97.4299 179.771C99.174 179.768 100.918 179.738 102.662 179.705C104.075 179.679 105.504 179.572 106.922 179.576L107.023 174.885ZM107.16 168.507C106.784 168.632 106.34 168.64 105.853 168.662L104.596 168.725C104.014 168.753 103.431 168.78 102.848 168.801C100.906 168.872 98.9638 168.939 97.0213 169.001C95.0308 169.064 93.0307 169.101 91.0398 169.038C90.0646 169.007 89.0976 168.956 88.1254 168.875C87.885 168.854 87.64 168.841 87.3945 168.824C87.6208 170.805 87.848 172.786 88.076 174.766C90.9455 174.414 93.8372 174.195 96.7032 173.83L99.2947 173.499C101.885 173.169 104.473 172.844 107.073 172.571L107.16 168.507ZM107.298 162.057C106.746 162.193 106.117 162.187 105.587 162.22L105.489 162.227C104.485 162.303 103.478 162.341 102.471 162.366C100.498 162.415 98.5237 162.439 96.5501 162.451L95.3633 162.458C93.7811 162.468 92.1999 162.472 90.6172 162.435C89.6021 162.411 88.5892 162.361 87.5748 162.311C87.271 162.295 86.9603 162.285 86.6487 162.27C86.8607 164.145 87.0749 166.02 87.2887 167.895C87.6219 167.843 87.9568 167.802 88.2759 167.748C89.0935 167.61 89.9095 167.5 90.7329 167.401C92.5164 167.187 94.3092 167.033 96.101 166.904C97.9405 166.77 99.7816 166.657 101.621 166.528L102.924 166.437C103.359 166.406 103.793 166.377 104.228 166.351C104.97 166.305 105.832 166.356 106.569 166.195C106.768 166.112 106.989 166.093 107.211 166.14L107.298 162.057ZM107.465 154.508C107.274 154.75 106.989 154.877 106.649 154.921C104.877 155.151 103.06 155.188 101.274 155.297L100.959 155.317C99.1141 155.438 97.2684 155.534 95.4224 155.632C93.526 155.732 91.63 155.814 89.732 155.881C88.9263 155.909 88.1165 155.912 87.3096 155.902L86.9639 155.896C86.6325 155.891 86.2854 155.892 85.9376 155.88C86.1301 157.634 86.3245 159.388 86.5216 161.141C86.8763 161.102 87.2308 161.073 87.5747 161.037C88.5885 160.929 89.601 160.823 90.6171 160.743C92.5424 160.591 94.4692 160.5 96.398 160.405C98.3715 160.307 100.346 160.242 102.32 160.15C103.277 160.105 104.233 160.049 105.188 159.961C105.856 159.9 106.651 159.672 107.348 159.756C107.386 158.006 107.426 156.257 107.465 154.508ZM107.621 147.745C107.591 147.792 107.555 147.837 107.512 147.879C106.733 148.65 105.771 148.591 104.738 148.672L104.674 148.677C103.661 148.762 102.648 148.843 101.634 148.916C99.6068 149.062 97.5757 149.165 95.5456 149.256C93.4681 149.35 91.3772 149.414 89.2976 149.371C87.9659 149.344 86.5712 149.349 85.2128 149.219C85.4214 151.151 85.6313 153.082 85.8427 155.013C86.2246 154.941 86.609 154.886 86.973 154.829C87.8906 154.684 88.8092 154.539 89.732 154.433C91.5762 154.22 93.4208 154.022 95.2686 153.842C96.8488 153.689 98.4284 153.534 100.01 153.394L100.959 153.312C102.846 153.153 104.756 152.891 106.649 152.852C106.961 152.846 107.314 153.016 107.492 153.284C107.534 151.437 107.578 149.591 107.621 147.745ZM107.752 142.27C107.27 142.329 106.751 142.296 106.306 142.31C105.182 142.347 104.058 142.381 102.933 142.414L96.1872 142.613C93.8903 142.681 91.5854 142.732 89.2876 142.699C88.2768 142.685 87.2617 142.683 86.2512 142.628L85.9146 142.608C85.4988 142.58 84.9885 142.576 84.4901 142.526L85.0785 147.977C86.4302 147.782 87.8233 147.709 89.1636 147.594L89.4499 147.569C91.4267 147.389 93.4129 147.27 95.3932 147.136C97.4246 146.998 99.4531 146.831 101.482 146.66C102.496 146.575 103.509 146.49 104.523 146.397L104.648 146.384C105.605 146.284 106.505 146.072 107.352 146.636C107.476 146.718 107.573 146.829 107.64 146.952C107.677 145.392 107.713 143.831 107.752 142.27ZM107.909 135.908C103.801 136.073 99.6915 136.199 95.5799 136.254C93.2656 136.285 90.9542 136.263 88.6401 136.215C87.6367 136.194 86.625 136.146 85.6223 136.069L85.2468 136.039C84.7701 135.999 84.2693 135.969 83.7706 135.921C83.9767 137.796 84.1811 139.67 84.384 141.545C84.8745 141.454 85.3872 141.412 85.8171 141.357L85.9147 141.344C86.9829 141.197 88.0611 141.111 89.1345 141.017C91.2246 140.833 93.3251 140.714 95.4207 140.613C97.5667 140.51 99.7138 140.422 101.86 140.327L104.007 140.231C104.364 140.215 104.722 140.199 105.08 140.184C105.591 140.163 106.102 140.142 106.613 140.121C106.865 140.11 107.127 140.076 107.38 140.089L107.452 140.079C107.485 140.075 107.514 140.072 107.541 140.069C107.61 140.017 107.683 139.973 107.762 139.94L107.809 139.922L107.909 135.908ZM83.0973 129.879C83.2881 131.566 83.4767 133.254 83.6629 134.942C84.2489 134.875 84.8419 134.838 85.4014 134.788C86.5296 134.687 87.6631 134.598 88.7947 134.546L91.0564 134.441C92.564 134.371 94.0716 134.304 95.5803 134.249C99.7094 134.098 103.838 133.925 107.965 133.714C107.994 132.57 108.024 131.425 108.055 130.28C107.857 130.492 107.571 130.632 107.195 130.631C102.862 130.619 98.5265 130.644 94.1947 130.573C92.0264 130.537 89.8605 130.485 87.6947 130.374C86.6349 130.319 85.5693 130.208 84.5176 130.062C84.0691 130 83.5783 129.956 83.0973 129.879ZM82.404 123.866C82.6076 125.595 82.8074 127.324 83.004 129.053C83.542 128.957 84.0978 128.906 84.5997 128.838C85.6782 128.691 86.7634 128.574 87.8496 128.513C89.9633 128.393 92.0782 128.333 94.1948 128.288C98.5263 128.196 102.862 128.197 107.195 128.162C107.602 128.159 107.904 128.32 108.102 128.561C108.132 127.481 108.164 126.402 108.197 125.322C107.778 125.278 107.363 125.216 106.979 125.189C105.799 125.106 104.619 125.031 103.438 124.963C100.974 124.822 98.5072 124.701 96.0413 124.594C93.5747 124.486 91.1073 124.382 88.6399 124.29L87.5608 124.251C85.845 124.187 84.1 124.106 82.404 123.866ZM81.6277 117.356C81.8398 119.107 82.0485 120.858 82.2568 122.609L82.3202 123.151C84.3838 122.75 86.5586 122.632 88.6396 122.544C91.1074 122.439 93.5709 122.385 96.0409 122.392C98.5084 122.4 100.972 122.458 103.438 122.56C104.67 122.611 105.902 122.67 107.133 122.737C107.471 122.755 107.868 122.745 108.277 122.751C108.286 122.476 108.293 122.201 108.303 121.926C108.34 120.811 108.377 119.697 108.415 118.582C107.582 119.01 106.499 119.183 105.663 119.365L105.567 119.386C104.185 119.697 102.774 119.898 101.364 120.021C98.5937 120.262 95.795 120.172 93.0276 119.938L92.5428 119.897C90.1127 119.686 87.5934 119.419 85.2376 118.817C84.1154 118.531 82.9553 118.13 81.9497 117.548C81.8452 117.488 81.7372 117.424 81.6277 117.356ZM105.026 96.5532C105.05 96.4586 105.192 96.437 105.238 96.5255C105.565 97.1474 105.687 97.8938 105.914 98.5602C106.159 99.2766 106.387 99.9982 106.657 100.706C107.22 102.185 107.885 103.605 108.678 104.975C109.463 106.331 107.265 107.3 106.687 105.815C106.091 104.282 105.601 102.698 105.304 101.079C105.159 100.289 105.03 99.4882 104.988 98.6855C104.952 97.9961 104.855 97.2258 105.026 96.5532Z" fill="black"/>
      <path fill-rule="evenodd" clip-rule="evenodd" d="M121.07 66.4702C121.008 62.9995 120.94 59.4593 120.425 56.0224C119.92 52.6623 118.533 49.6251 116.15 47.1851C111.086 42.0022 103.747 40.7363 96.9156 39.5762L85.2356 37.5926C81.6722 36.9876 77.8707 36.0206 74.2704 36.8786C72.4964 37.3014 70.9899 38.2836 69.6129 39.4457C68.2857 40.5659 66.8587 41.7688 65.9594 43.2757C65.0586 44.7849 64.7487 46.5491 64.4558 48.2559C64.1255 50.1803 63.8689 52.1197 63.6866 54.0638C63.3212 57.9587 63.2714 61.8829 63.5364 65.7859C63.6647 67.6789 63.869 69.5666 64.1298 71.4459C64.2591 72.3778 64.4053 73.3074 64.5704 74.2337C64.619 74.5068 64.6561 74.8092 64.7059 75.1148C64.3375 76.163 64.1281 77.2486 64.145 78.3295C64.1947 81.5136 66.8812 83.5183 69.5895 84.5946C71.1599 85.2186 72.8017 85.6427 74.3446 86.3398C75.9678 87.0731 77.0726 88.2619 78.1824 89.618C80.299 92.2044 82.6875 94.5289 85.4149 96.4683C91.1974 100.58 98.5214 102.525 105.538 101.049C107.221 100.695 108.919 100.145 110.433 99.3161C112.03 98.4412 113.231 97.1734 114.24 95.6745C116.113 92.8918 117.457 89.7584 118.473 86.5698C119.51 83.3172 120.245 80.0587 120.647 76.6672C121.046 73.2866 121.131 69.8717 121.07 66.4702Z" fill="white"/>
      <path fill-rule="evenodd" clip-rule="evenodd" d="M83.7973 25.5032C88.6307 24.8381 95.302 26.9998 97.7091 31.3586C109.201 28.6482 123.696 28.5595 133.168 37.5821C143.051 48.2849 130.637 62.3966 122.405 65.5782C123.005 68.492 122.07 87.1586 115.458 95.4849C110.211 102.54 97.9904 105.796 92.3356 97.3692L92.2915 97.2997C91.6857 96.3265 92.2075 96.3578 92.8294 97.0816C98.3665 101.953 105.895 102.036 111.697 96.8953C122.57 87.4988 121.449 64.4593 116.275 51.1306C101.542 49.5119 85.7681 53.979 75.5925 65.0733L76.2806 69.2173C76.3978 69.9234 76.531 70.6287 76.6326 71.3372C76.6976 71.7912 76.7049 72.2426 76.3905 72.6101C75.3525 73.8232 73.6029 72.0003 72.1634 71.2753C71.7384 71.2155 71.3127 71.1924 70.8952 71.2218C63.9791 72.113 65.3418 85.5345 72.943 83.1819C73.5817 82.7839 74.1304 82.9053 74.3782 83.4829C76.19 85.1431 77.3846 88.1041 80.3948 90.9561C81.4569 92.0258 82.4234 92.9209 83.6181 93.779C84.3198 94.4889 86.4372 95.2127 85.766 96.4275C84.4967 99.1918 77.0117 90.5088 75.6884 88.1075C71.5421 89.7454 66.9471 89.1891 62.6503 88.7888C39.9822 87.6097 43.0083 63.7057 61.5888 48.6139C65.0864 46.0381 68.9452 43.9368 72.9565 42.3198C73.5041 42.099 73.2648 41.1995 72.7095 41.4234C70.0553 42.4935 67.4679 43.7671 65.0015 45.2413L64.9978 44.36C64.9942 42.8756 65.0174 41.3301 65.2752 39.9739C65.404 39.0341 65.6207 38.0303 65.9543 37.2752C66.3667 34.96 72.827 27.0134 83.7973 25.5032ZM70.5928 74.303C70.9428 73.9704 71.5961 74.367 71.9077 74.3571C72.7045 74.4661 73.4615 74.8028 74.0519 75.2183C74.4417 75.4368 74.7149 75.6419 74.9432 75.8306L74.9494 75.8289C74.9477 75.8289 74.9455 75.8306 74.9436 75.8311L74.9651 75.8456C75.2975 76.0818 76.5143 77.4126 75.7455 77.0547C75.6882 76.9802 75.6295 76.9086 75.5704 76.8384C75.564 76.848 75.5552 76.8575 75.5447 76.8666L75.5879 76.9307C76.2412 77.914 75.1132 76.8781 74.9396 76.6029C74.9314 76.6096 74.9221 76.6141 74.913 76.6189L75.139 76.8941C75.1706 76.9331 75.1954 76.9643 75.216 76.9907L75.2637 77.0367C76.0192 77.7796 76.0428 78.4481 75.1651 77.3498C75.1996 77.4016 75.2273 77.4564 75.2312 77.5051L75.2832 77.5714C75.9723 78.4597 75.4118 78.1443 75.0694 77.7649L75.0407 77.7322L75.0466 77.7411C75.3652 78.232 74.7331 77.8876 74.6214 77.6249L74.6167 77.6131C74.495 77.5137 74.4201 77.4022 74.3944 77.3741L74.3897 77.3694C73.7971 76.762 72.9382 76.2481 72.2086 76.0147C72.1029 75.9945 71.9959 75.9784 71.8878 75.9669C71.449 75.869 71.0055 75.8019 70.5573 75.7657C70.5025 75.7592 70.4469 75.7189 70.4054 75.6668C69.7276 75.644 69.9368 75.3661 70.218 75.3145L70.2229 75.3136L70.1672 75.3089C69.7322 75.2665 69.4352 75.1103 69.875 75.0145L69.9307 75.0034C69.9239 74.9927 69.9178 74.9821 69.9119 74.9714C69.5353 74.93 69.7811 74.5637 69.9902 74.6524C69.9022 74.3647 70.3042 74.5083 70.3544 74.4655C70.3927 74.4231 70.4402 74.3856 70.4676 74.3836C70.5887 74.298 70.53 74.3058 70.5928 74.303ZM72.8978 69.6452L72.8096 69.6968C72.7382 69.7384 72.6648 69.7662 72.5911 69.7824C72.6951 69.8268 72.798 69.8746 72.8997 69.9258C72.898 69.8633 72.8969 69.8008 72.8969 69.7385L72.8978 69.6452Z" fill="black"/>
      <path fill-rule="evenodd" clip-rule="evenodd" d="M107.356 88.6209C106.215 88.9514 104.991 88.981 103.828 88.6396C102.773 88.3299 101.69 87.6485 100.914 86.7467C100.224 85.9457 99.7775 84.9722 99.795 83.933C99.797 83.8144 99.8394 83.7153 99.9047 83.6384C99.9749 83.5556 100.073 83.4988 100.178 83.4741C100.286 83.4487 100.401 83.4577 100.498 83.502C100.586 83.542 100.661 83.61 100.709 83.7093C100.828 83.8661 100.947 84.0206 101.066 84.1708C102.025 85.3557 102.954 86.2412 104.397 86.5589C105.179 86.7312 105.961 86.6548 106.678 86.3918C107.446 86.1103 108.14 85.6154 108.684 84.982C108.929 84.6957 109.22 84.5789 109.503 84.5769C109.825 84.5747 110.143 84.7242 110.382 84.963C110.617 85.1979 110.775 85.5169 110.789 85.8507C110.802 86.1437 110.706 86.4497 110.452 86.7227C109.615 87.6219 108.53 88.2807 107.356 88.6209ZM107.322 73.7796C108.491 74.4908 110.273 76.149 109.015 77.912C107.534 79.4665 105.402 77.6841 104.351 76.8781C103.377 76.2534 102.282 77.8601 103.186 78.5895C110.778 84.2127 113.859 73.9656 107.913 72.9435C107.258 72.8309 107.015 73.5596 107.322 73.7796ZM96.3821 70.6507C96.0062 70.4103 95.564 70.3277 95.074 70.5507C94.6911 70.7249 94.0194 71.3057 93.552 72.0692C93.2323 72.5915 93.0055 73.2042 93.0527 73.8424C93.0637 73.9906 93.0089 74.0999 92.9226 74.1807C92.8544 74.2445 92.7559 74.2914 92.6401 74.3061C92.5419 74.3185 92.432 74.3073 92.3425 74.2794C92.1725 74.2263 92.0825 74.1159 92.0485 74.0258C91.7213 73.1564 91.8623 72.1861 92.229 71.3107C92.724 70.1293 93.623 69.1398 94.2119 68.8208C95.2198 68.2746 96.4087 68.2495 97.418 68.8059C98.2771 69.2794 98.8143 70.0439 99.3486 70.8232C99.4622 70.9889 99.5749 71.1533 99.6914 71.3149C99.9249 71.6386 99.9481 71.9596 99.8577 72.235C99.7575 72.5399 99.5021 72.7973 99.1827 72.932C98.8875 73.0565 98.5449 73.0741 98.2418 72.9461C97.9856 72.8381 97.7506 72.6274 97.6019 72.27C97.3514 71.668 96.9341 71.0039 96.3821 70.6507ZM115.471 71.9901C115.213 72.1243 115.012 72.1648 114.726 72.0792C114.568 72.0317 114.412 71.9408 114.29 71.8186C114.169 71.6974 114.082 71.5468 114.048 71.3796C113.964 70.9672 113.739 70.5811 113.417 70.3294C113.142 70.1142 112.796 70.0002 112.411 70.0645C111.996 70.1338 111.6 70.4002 111.328 70.7142C111.237 70.8193 111.165 70.9386 111.094 71.0571C110.959 71.2788 110.829 71.4848 110.644 71.6476C110.574 71.7095 110.468 71.7524 110.366 71.7524C110.324 71.7524 110.282 71.7456 110.242 71.7331C109.828 71.3182 109.749 71.0035 109.762 70.6914C109.776 70.364 109.905 70.0326 110.114 69.7234C110.603 68.998 111.531 68.4033 112.158 68.2686C113.016 68.0841 113.868 68.3055 114.551 68.785C115.254 69.2783 115.775 70.0442 115.937 70.9073C115.976 71.1152 115.96 71.3396 115.881 71.5341C115.803 71.7242 115.669 71.887 115.471 71.9901ZM98.2739 62.9168C97.759 63.4187 97.1495 63.4964 96.5329 63.5655C96.1903 63.6043 95.9169 63.6356 95.6477 63.6963C94.908 63.8634 94.1769 64.115 93.5098 64.4773C92.8125 64.856 92.0525 65.3128 91.5058 65.898C91.3758 66.0373 91.2533 66.1834 91.1306 66.3298C91.0187 66.4634 90.9109 66.5919 90.7973 66.7159C90.6668 66.8582 90.5429 67.0074 90.4197 67.1563C90.3435 67.2818 90.3284 67.3127 90.3131 67.3449C90.29 67.3932 90.2631 67.4473 90.2324 67.5053C90.1904 67.5847 90.1412 67.6717 90.0897 67.7505C90.0039 67.8946 89.9579 67.9343 89.9181 67.9521C89.8521 67.9815 89.7896 67.996 89.7289 67.9881C89.6719 67.9808 89.6183 67.9534 89.5654 67.9086C89.301 67.6852 89.223 67.3185 89.231 66.9292C89.2431 66.3385 89.4609 65.6845 89.6617 65.2824C90.1285 64.3483 90.776 63.3771 91.5545 62.6799C92.4428 61.884 93.4147 61.2815 94.5309 60.8664C95.2247 60.6083 96.0278 60.3714 96.7836 60.4013C97.3276 60.4228 97.8469 60.5846 98.2758 60.9886C98.5392 61.2366 98.6656 61.5893 98.6656 61.9418C98.6656 62.3013 98.5343 62.663 98.2739 62.9168ZM116.518 67.5129C116.485 67.5666 116.44 67.6036 116.39 67.6259C116.337 67.6492 116.278 67.6559 116.221 67.6463C116.165 67.6368 116.111 67.6112 116.069 67.5722C116.028 67.5347 115.997 67.485 115.983 67.4242C115.641 65.922 114.977 64.8044 113.56 64.0837C112.863 63.7292 112.062 63.504 111.303 63.3244C111.083 63.2722 110.85 63.2383 110.615 63.2041C109.88 63.0967 109.139 62.9737 108.66 62.3791C108.371 62.0209 108.25 61.5629 108.318 61.144C108.383 60.7496 108.613 60.3879 109.032 60.1712C110.075 59.6319 111.371 60.1611 112.423 60.6119C112.502 60.6453 112.578 60.6782 112.653 60.7098C113.683 61.1446 114.622 61.7186 115.394 62.5393C116.006 63.1905 116.574 64.1531 116.803 65.1433C116.993 65.9672 116.948 66.8082 116.518 67.5129Z" fill="black"/>
      <path fill-rule="evenodd" clip-rule="evenodd" d="M107.491 79.8158C105.769 79.0398 102.676 79.717 101.553 79.9862C98.9431 80.6125 96.3172 81.9658 95.5056 84.086C94.5911 86.4754 96.4158 87.2276 96.6842 87.1048C98.4912 87.2321 100.643 86.0957 102.537 85.8024C104.074 85.5623 105.696 85.3527 107.136 84.5356C108.187 85.1142 110.562 85.427 112.479 85.933C114.112 86.3637 114.819 87.2978 116.332 87.0992C118.146 86.8612 117.404 83.0448 115.382 81.4988C113.17 79.8068 109.428 79.1206 107.491 79.8158ZM110.902 96.1336C109.395 96.5011 109.294 93.1972 109.125 92.03C108.993 91.1181 108.249 88.7664 106.363 88.8679C104.478 88.9694 103.769 90.9397 103.865 92.1651C103.927 92.9598 104.659 96.9851 102.322 97.4944C100.832 97.4891 99.1091 97.3885 97.5428 97.0996C95.6992 96.6819 93.302 95.2195 92.6688 98.0995C92.4409 99.136 100.562 102.216 104.165 102.494C107.82 103.235 112.096 102.096 114.698 99.2989C115.29 98.6626 116.957 96.0215 117.076 95.3744C117.326 94.0149 116.748 93.1401 115.066 93.6193C113.878 94.2539 111.871 95.8973 110.902 96.1336Z" fill="black"/>
      <path fill-rule="evenodd" clip-rule="evenodd" d="M118.189 76.4167C115.865 77.5365 112.622 75.8848 111.06 74.1547C110.491 73.5248 110.052 71.7225 110.271 70.5794C110.863 67.4838 113.09 65.6259 115.441 64.9915C118.7 64.1118 121.98 66.3403 121.598 68.97C121.235 71.4624 120.686 75.0777 118.189 76.4167ZM102.369 70.47C102.183 73.8436 99.4749 76.7964 96.2382 77.6713C91.0231 79.127 88.4458 75.4597 87.2784 71.5088C87.1624 71.1162 86.8897 69.918 87.6214 68.8902C90.4994 64.8473 97.5014 65.5364 100.999 66.6464C102.022 67.6257 102.441 69.0391 102.369 70.47ZM120.715 64.6515C120.713 64.6535 120.711 64.6552 120.71 64.6572C120.698 64.6499 120.686 64.6425 120.674 64.6354C120.687 64.641 120.701 64.6458 120.715 64.6515ZM125.078 65.0415C124.775 61.6067 114.002 62.9219 112.742 63.2034C109.305 64.2148 106.336 66.9663 102.492 65.7568C98.5103 61.3161 85.1004 62.5896 82.2892 64.8517C81.7571 64.6429 81.1101 64.7549 80.4245 64.9519C76.9037 64.8248 60.8308 66.0389 64.1183 70.5342C64.6173 70.8805 65.1159 70.5282 65.1296 69.8149C82.2679 63.6259 80.6066 69.4229 82.6391 68.7459C82.9494 68.8352 83.2733 68.8918 83.5565 68.9513C85.1297 69.4576 85.6638 69.3011 85.871 71.0678C87.2947 84.7094 105.454 80.0011 103.964 68.8115C105.439 68.7304 106.729 68.0925 108.288 68.7153C109.371 79.2562 117.85 79.6817 120.402 76.0277C122.326 73.4915 121.563 69.6641 124.208 67.6689C125.252 68.5431 125.32 65.5929 125.078 65.0415Z" fill="black"/>
    </g>
    <g clip-path="url(#clip3_1661_26720)">
      <path fill-rule="evenodd" clip-rule="evenodd" d="M238.189 187.115C237.813 183.625 237.582 180.109 237.449 176.601C237.316 173.097 237.49 169.55 237.566 166.044C237.721 158.913 237.974 151.765 237.406 144.644C236.87 137.915 235.638 131.232 233.695 124.767C232.749 121.618 231.752 118.342 230.195 115.432C228.631 112.507 226.152 110.559 223.429 108.773C220.53 106.87 217.654 104.932 214.766 103.013C212.342 101.401 207.98 99.5258 205.991 97.3715C203.899 95.1048 203.505 89.4859 202.112 86.8007C200.754 84.1852 196.912 82.479 193.954 82.479C189.058 82.479 185.348 82.2287 181.321 86.7599C179.312 89.0208 180.911 91.3064 178.805 93.4763C176.869 95.4713 171.919 97.5216 169.424 98.6792C166.435 100.066 163.371 101.29 160.263 102.38C157.093 103.493 153.842 104.322 150.654 105.371C147.597 106.378 143.607 110.525 141.234 112.72C139.028 114.76 138.481 114.532 136.804 117.01C133.124 122.45 129.439 127.952 126.509 133.842C125.049 136.776 123.635 139.862 123.106 143.12C122.541 146.595 123.101 149.953 124.017 153.318C124.95 156.742 127.911 160.002 128.876 163.417C129.321 164.991 127.795 166.709 128.497 168.192C128.847 168.933 129.289 169.592 129.791 170.238C130.179 170.735 131.689 170.625 131.885 171.234C132.082 171.848 130.989 173.124 130.973 173.76C130.95 174.671 130.914 175.582 130.884 176.492L130.707 181.875C130.591 185.412 130.475 188.95 130.359 192.487C130.321 193.642 130.266 194.77 130.543 195.866C130.443 195.773 130.348 195.672 130.261 195.559C130.007 195.227 129.469 195.509 129.685 195.896C130.044 196.543 130.561 196.999 131.169 197.326C131.875 198.367 238.8 200.693 239.326 197.649C239.621 195.941 239.084 194.112 238.869 192.415C238.645 190.647 238.38 188.887 238.189 187.115Z" fill="white"/>
      <path fill-rule="evenodd" clip-rule="evenodd" d="M129.574 143.125C129.836 142.376 131.033 142.7 130.769 143.455C129.415 147.335 130.376 151.558 131.84 155.262C132.133 156.005 130.935 156.324 130.645 155.591C129.105 151.695 128.152 147.2 129.574 143.125ZM138.654 165.29C142.473 165.827 146.295 166.159 150.141 166.427C150.313 166.439 150.461 166.413 150.59 166.357C150.475 168.118 150.382 169.882 150.31 171.645C149.261 171.615 148.191 171.685 147.152 171.657C145.794 171.62 144.437 171.552 143.082 171.448C140.458 171.25 137.84 170.933 135.246 170.497C134.276 170.334 133.045 170.235 131.941 169.912C130.897 169.607 129.968 169.102 129.48 168.151C129.065 167.345 128.989 166.359 128.989 165.468C128.989 164.854 129.094 164.231 129.158 163.613C129.237 163.557 129.308 163.491 129.365 163.416C130.517 163.78 131.713 164.036 132.884 164.284C134.79 164.69 136.725 165.018 138.654 165.29ZM136.5 150.965C136.521 152.149 136.849 153.224 137.486 154.221C137.917 154.896 136.845 155.517 136.416 154.847C135.666 153.673 135.286 152.355 135.261 150.965C135.247 150.165 136.486 150.168 136.5 150.965ZM234.397 163.883C234.914 163.912 235.435 163.929 235.953 163.957C236.411 164.348 237.044 164.549 237.622 164.424C237.642 164.475 237.661 164.531 237.677 164.596C237.779 164.994 237.83 165.421 237.889 165.827C237.948 166.227 237.993 166.63 238.024 167.033C238.04 167.236 238.137 167.694 238.013 167.871C237.902 168.03 237.655 168.016 237.485 168.036C237.027 168.086 236.562 168.109 236.101 168.148C235.229 168.224 234.357 168.3 233.486 168.376C232.633 168.45 231.696 168.427 230.861 168.652C230.719 166.977 230.589 165.302 230.468 163.626C231.761 163.816 233.113 163.812 234.397 163.883ZM125.971 161.105C126.491 162.11 126.971 163.099 127.967 163.703C128.097 163.781 128.243 163.822 128.391 163.833C128.28 164.312 128.21 164.802 128.148 165.254C128.012 166.25 127.982 167.28 128.232 168.263C128.475 169.219 128.877 170.072 129.667 170.684C130.034 170.969 130.435 171.186 130.857 171.358C130.785 171.558 130.744 171.757 130.765 171.975C130.665 172.481 130.598 172.997 130.525 173.492C130.366 174.588 130.206 175.687 130.081 176.79C129.83 178.984 129.633 181.178 129.468 183.379C129.302 185.574 129.183 187.773 129.083 189.973C129.032 191.098 128.987 192.222 128.946 193.349C128.904 194.506 128.716 195.69 129.227 196.764C129.639 197.631 131.032 197.581 131.459 196.764C132.001 195.724 131.842 194.489 131.856 193.349C131.87 192.275 131.888 191.2 131.911 190.126C131.958 187.928 132.026 185.731 132.08 183.533C132.133 181.387 132.198 179.243 132.241 177.097C132.263 175.974 132.264 174.85 132.271 173.727C132.274 173.104 132.3 172.44 132.254 171.79C132.641 171.882 133.031 171.959 133.417 172.038C136.361 172.643 139.336 173.083 142.329 173.355C143.833 173.492 145.342 173.588 146.85 173.642C147.959 173.682 149.108 173.76 150.234 173.718C150.146 176.407 150.105 179.098 150.11 181.79C150.113 183.731 150.139 185.672 150.187 187.613C150.214 188.634 150.235 189.655 150.266 190.676C150.28 191.135 150.28 191.598 150.311 192.055C150.321 192.198 150.341 192.336 150.367 192.472C150.265 192.762 150.18 193.048 150.11 193.316C149.769 194.618 149.769 195.868 149.921 197.194C150.051 198.319 150.997 199.362 152.247 198.967C152.45 198.903 152.653 198.836 152.854 198.768C154.694 198.977 156.545 199.026 158.411 199.061C161.138 199.114 163.867 199.131 166.596 199.145C171.948 199.173 177.302 199.187 182.656 199.202C193.414 199.233 204.173 199.262 214.932 199.293C217.918 199.303 220.903 199.31 223.889 199.32C225.435 199.324 226.977 199.326 228.521 199.385C229.242 199.413 229.963 199.452 230.683 199.462C231.518 199.476 232.257 199.236 233.054 199.018C233.505 198.892 233.683 198.44 233.587 198.057C234.309 198.229 235.184 197.864 235.43 197.05C235.61 196.46 235.543 195.82 235.275 195.273V195.271C234.758 192.004 234.101 188.752 233.586 185.483C233.02 181.903 232.477 178.315 231.998 174.72C231.639 172.006 231.343 173.93 231.088 171.203C232.201 171.29 233.46 170.951 234.563 170.807C235.354 170.705 236.152 170.622 236.945 170.514C236.886 171.313 236.903 172.128 236.881 172.895C236.839 174.418 236.858 175.935 236.897 177.458C236.971 180.397 237.137 178.686 237.402 181.613C237.669 184.561 237.998 187.499 238.396 190.433C238.6 191.944 238.819 193.453 239.049 194.96C239.156 195.663 239.266 196.365 239.379 197.069C239.514 197.898 239.557 198.683 240.178 199.306C240.651 199.778 241.616 199.738 241.928 199.08C242.325 198.248 242.145 197.535 241.998 196.661C241.879 195.959 241.764 195.258 241.651 194.556C241.41 193.051 241.18 191.545 240.965 190.038C240.55 187.133 240.158 184.223 239.808 181.311C239.455 178.375 239.09 180.09 238.743 177.154C238.568 175.673 238.393 174.195 238.188 172.719C238.085 171.959 238.019 171.151 237.883 170.368C237.927 170.362 237.97 170.354 238.013 170.346C238.955 170.175 239.759 169.643 239.996 168.673C240.222 167.745 239.952 166.678 239.762 165.767C239.599 164.991 239.452 164.001 238.953 163.336C240.712 161.094 241.857 158.273 242.586 155.561C243.382 152.606 243.714 149.522 243.785 146.469C243.867 142.931 243.6 139.415 242.994 135.956C242.98 135.223 242.946 134.49 242.892 133.758C242.359 126.576 240.123 118.075 233.033 114.719C233.005 114.705 232.975 114.693 232.946 114.68C232.39 114.016 231.696 113.418 231.136 112.859C230.143 111.867 229.105 110.919 228.006 110.045C225.828 108.315 223.44 106.933 220.958 105.688C218.447 104.429 215.9 103.247 213.447 101.872C211.309 100.673 209.386 99.2294 207.56 97.5995C205.508 95.7667 204.048 93.2956 203.475 90.5983C203.445 90.4575 203.236 90.4962 203.233 90.6308C203.083 95.5746 206.419 99.9436 210.258 102.708C214.848 106.009 220.391 107.572 225.046 110.773C226.203 111.568 227.286 112.465 228.315 113.418C226.737 113.257 225.131 113.359 223.652 113.796C223.07 113.76 222.485 113.75 221.901 113.721C220.566 113.655 219.229 113.593 217.893 113.534C215.169 113.413 212.443 113.303 209.717 113.207C204.37 113.018 199.021 112.876 193.671 112.781C182.922 112.59 172.159 112.553 161.411 112.865C158.496 112.949 143.17 112.368 141.752 112.532C143.838 110.725 146.127 109.25 148.643 108.037C151.792 106.523 155.046 105.513 158.408 104.59C165.332 102.689 172.523 100.856 178.064 96.027C179.44 94.8263 180.664 93.446 181.666 91.9169C182.623 90.4575 183.687 88.5889 183.713 86.8087C183.732 85.5447 181.973 85.0844 181.347 86.1673C180.958 86.8382 180.766 87.5741 180.449 88.2775C180.133 88.9746 179.758 89.647 179.341 90.2901C178.522 91.5544 177.506 92.6821 176.4 93.7C174.043 95.8721 171.188 97.4632 168.233 98.667C161.524 101.398 154.186 102.551 147.829 106.152C145.047 107.727 142.385 109.901 140.714 112.674C140.445 112.716 140.177 112.766 139.909 112.821C140.109 112.569 140.31 112.316 140.513 112.065C140.646 111.901 140.44 111.684 140.277 111.83C137.116 114.643 134.205 117.681 131.566 120.994C129.042 124.164 126.688 127.486 125.021 131.198C122.026 137.866 121.366 145.493 122.913 152.623C123.335 154.565 123.929 156.468 124.687 158.307C125.077 159.257 125.5 160.192 125.971 161.105Z" fill="black"/>
      <path fill-rule="evenodd" clip-rule="evenodd" d="M194.208 22.0372C203.002 22.0372 214.015 32.0721 217.239 36.3424C219.949 39.9326 219.565 58.4282 219.565 69.3998C219.565 71.6944 218.529 76.0373 218.152 78.2322C216.773 86.2753 210.764 93.0208 198.87 93.0208C189.186 93.0208 181.733 89.9522 174.526 82.1037C172.882 80.3131 164.852 86.7232 163.21 84.4148C158.921 84.4148 155.334 44.3226 163.756 32.2972C172.177 20.2719 185.415 22.0372 194.208 22.0372Z" fill="white"/>
      <path fill-rule="evenodd" clip-rule="evenodd" d="M167.778 24.8606C172.859 20.236 179.628 18.0112 186.458 18.1755C189.995 18.2607 193.52 18.9346 196.86 20.0888C198.531 20.6683 200.15 21.4243 201.697 22.2795C202.254 22.587 202.768 22.9473 203.263 23.3299L203.387 23.426H203.388C204.715 23.9032 205.9 24.7599 206.975 25.7623C209.129 25.5904 211.3 25.784 213.383 26.4487C216.282 27.3751 218.966 29.0716 220.851 31.4808C223.046 34.2855 223.776 37.6876 223.516 41.1996L223.468 41.7962C223.21 44.8986 222.749 48.889 220.204 50.9275C220.01 51.0824 219.796 51.2001 219.575 51.2714C221.215 54.0818 222.561 57.2021 223.366 60.3533C226.44 72.3898 224.077 84.9421 220.38 96.5432C220.077 97.4991 218.632 98.1344 217.896 97.2001C216.583 95.53 214.675 94.2565 212.528 94.0179C211.204 93.8707 209.886 94.1372 208.635 93.5361C208.144 93.299 207.67 92.9117 207.329 92.4407C205.217 93.2417 202.942 93.6197 200.686 93.5268C196.983 93.3749 193.024 92.0921 190.477 89.2786C190.068 88.827 189.964 88.3199 190.058 87.8629C190.378 87.7488 190.706 87.6639 191.044 87.6108C194.274 89.5155 197.835 90.7882 201.663 90.8682C203.874 90.9143 206.031 90.605 207.824 89.2236C208.212 88.9246 208.569 88.5935 208.899 88.2378C212.647 85.8252 215.291 81.7275 216.547 77.3382C217.718 73.245 217.574 68.9829 217.171 64.7843L216.959 62.5687C216.649 59.3169 216.362 56.0554 216.281 52.7897L216.306 52.7885C217.097 52.7373 217.103 51.4974 216.306 51.549C214.243 51.6826 212.196 51.3441 210.14 51.4916C210.123 50.5191 210.053 49.5509 209.767 48.613C209.604 48.0771 208.671 47.9714 208.572 48.613C208.44 49.4713 208.392 50.3248 208.377 51.187C205.3 51.1461 202.225 50.887 199.147 50.9935C198.58 50.3877 198.399 49.3136 198.133 48.5663C198.095 48.4563 198.056 48.3479 198.016 48.2379C197.782 49.3057 197.451 50.35 197.016 51.3724L196.261 51.375C191.979 51.3951 187.609 51.5231 183.426 52.4129C183.136 52.1897 182.963 51.8002 182.916 51.4465C182.613 49.1449 182.18 46.9045 181.412 44.7111L181.303 44.4017C181.294 44.376 181.284 44.3487 181.274 44.32C180.709 45.233 180.034 46.0841 179.298 46.8765C178.865 47.3436 178.41 47.7903 177.943 48.2243C177.49 48.7278 177.022 49.2237 176.568 49.7288C176.585 49.8207 176.601 49.9139 176.613 50.0089C176.752 51.057 176.767 52.12 176.665 53.1721C176.481 55.0741 175.944 56.907 175.082 58.6025L175.055 58.7723C174.924 59.5669 174.737 60.388 174.302 60.9864C174.845 61.595 175.264 62.3219 175.506 63.1295C175.722 63.8485 174.728 64.4717 174.212 63.8833C173.802 63.4158 173.347 63.029 172.847 62.7204C172.816 62.7633 172.759 62.7843 172.695 62.7486C171.302 61.9755 168.938 62.2094 167.547 62.9376C165.817 63.8424 165.142 65.7 165.334 67.5823C165.518 69.3811 166.305 71.4835 167.83 72.4053C168.53 72.8282 169.075 72.8639 169.819 72.6609C170.056 72.5963 170.351 72.3983 170.478 72.2999L170.602 72.2001C171.089 71.8147 171.543 71.5509 172.119 71.5408C172.707 71.3572 173.298 71.6119 173.523 72.2291L173.537 72.2689C173.642 72.5835 173.835 72.9785 173.793 73.4588C173.749 73.9732 173.514 74.441 173.162 74.8175C173.102 74.8826 173.037 74.9477 172.97 75.0081C179.026 81.5662 179.803 91.7854 176.698 99.978C176.563 100.337 176.419 100.692 176.269 101.044C175.75 102.249 173.752 101.876 173.498 100.681C173.423 100.324 173.339 99.9672 173.248 99.6139C173.08 98.9612 172.887 98.3145 172.67 97.6772L172.588 97.4387C172.404 96.912 172.232 96.3806 172.046 95.8538L172.027 95.7936C172.02 95.7697 172.012 95.7422 172.004 95.7113L171.69 96.3976L170.734 98.469C170.287 99.4356 168.866 98.9103 168.813 97.9788L168.812 97.9469C168.807 97.7749 168.801 97.6045 168.79 97.4356C168.722 96.1699 168.504 94.9397 168.157 93.7359L168.032 93.8915C166.168 96.1965 163.981 98.357 160.98 98.8889C160.228 99.0221 159.376 98.2351 159.893 97.4744C160.107 97.1599 160.313 96.8376 160.508 96.5107C160.339 96.4317 160.18 96.3496 160.033 96.2659C158.894 95.626 157.947 94.7151 157.163 93.6817C155.501 91.491 154.906 88.7333 154.761 86.0344C154.606 83.1822 154.857 80.175 155.636 77.4234C155.974 76.2336 156.43 75.0918 156.958 73.984C156.921 73.8849 156.886 73.7857 156.85 73.6865C156.28 72.097 155.812 70.4718 155.424 68.828C154.64 65.5094 154.219 62.0855 154.168 58.6755C154.075 52.5666 155.128 46.3602 157.347 40.6634C159.639 34.7885 163.087 29.1289 167.778 24.8606ZM164.924 78.2709C164.503 77.6079 163.45 78.2054 163.84 78.8729L163.855 78.8968C164.522 79.9488 164.835 81.1448 165.219 82.3176C165.466 83.0722 166.663 82.7499 166.413 81.9876L166.331 81.7331C165.949 80.5438 165.6 79.3351 164.924 78.2709ZM168.589 65.6163L168.869 65.4809C169.751 65.0598 170.523 64.773 171.566 65.1406C172.961 65.6318 174.455 67.195 173.512 68.7117C173.165 69.271 172.549 69.4941 171.914 69.3624C170.844 69.1404 170.567 68.176 170.024 67.3844L169.931 67.2504C169.599 66.7714 169.181 66.1092 168.629 65.9215C168.504 65.8781 168.451 65.6829 168.589 65.6163ZM169.376 33.4129L169.466 33.3322C170.065 32.8023 169.186 31.9285 168.589 32.4553C165.861 34.8675 164.913 38.6432 163.497 41.861C163.18 42.5846 164.247 43.2167 164.567 42.487C165.918 39.4163 166.814 35.7432 169.376 33.4129ZM202.168 32.3577C201.455 32.0363 200.831 33.0743 201.516 33.4161L201.542 33.4283C203.952 34.5174 204.977 36.9839 205.959 39.2737C206.272 40.005 207.339 39.3744 207.029 38.6494L206.852 38.2385C205.827 35.8787 204.632 33.4734 202.168 32.3577ZM205.945 30.8673C205.189 30.6054 204.865 31.8015 205.615 32.0633C207.657 32.7744 209.059 34.3082 210.241 36.062C210.684 36.7189 211.757 36.0992 211.309 35.4361C209.937 33.4003 208.308 31.6915 205.945 30.8673Z" fill="black"/>
      <path fill-rule="evenodd" clip-rule="evenodd" d="M201.798 82.1411C200.757 81.7163 199.828 81.0076 199.149 80.1022C198.913 79.7875 198.852 79.4551 198.902 79.1512C198.957 78.8094 199.159 78.4996 199.435 78.2918C199.712 78.0834 200.057 77.9806 200.392 78.033C200.682 78.0785 200.972 78.2377 201.201 78.5677L201.248 78.6338C201.652 79.1802 202.178 79.6285 202.778 79.9175C203.356 80.196 204.002 80.326 204.67 80.2504C205.944 80.1065 206.822 79.4175 207.755 78.4817C207.871 78.3636 207.986 78.2418 208.103 78.118C208.176 78.0057 208.278 77.9336 208.391 77.8958C208.517 77.8537 208.659 77.8561 208.789 77.9016C208.915 77.9454 209.027 78.0285 209.102 78.139C209.174 78.2441 209.214 78.3739 209.201 78.5232C209.116 79.4929 208.609 80.3583 207.889 81.0379C207.089 81.7926 206.03 82.3147 205.032 82.4979C203.933 82.6996 202.813 82.5551 201.798 82.1411ZM205.55 67.1814C206.72 67.8925 208.502 69.5508 207.244 71.3137C205.763 72.8682 203.631 71.0859 202.58 70.2798C201.606 69.6551 200.511 71.2618 201.415 71.9913C209.007 77.6145 212.088 67.3674 206.142 66.3453C205.487 66.2327 205.244 66.9614 205.55 67.1814ZM191.945 60.6402C192.074 59.0357 194.517 58.6713 194.76 60.2591C194.978 61.6813 194.721 62.9878 194.081 64.2683C193.469 65.4916 191.931 64.9209 191.815 63.807C191.659 62.3138 191.865 61.6383 191.945 60.6402ZM210.539 59.9298C210.88 59.4836 211.371 59.1791 211.961 59.3512C213.801 59.8893 213.259 62.5034 212.612 63.7758C212.261 64.4668 211.126 64.642 210.613 64.0336C209.776 63.0414 209.376 61.0601 210.439 60.0828C210.468 60.0323 210.5 59.9813 210.539 59.9298ZM194.055 53.6195L194.346 53.5685C195.245 53.4129 196.364 53.2634 197 53.9868C197.337 54.3704 197.454 55.0834 197 55.4506C196.202 56.0966 195.32 55.8462 194.364 55.9009C193.576 55.9462 192.818 56.0766 192.059 56.2937C190.394 56.7698 189.037 57.6389 187.615 58.5933C187.429 58.7185 187.238 58.4797 187.327 58.3051C188.148 56.6965 189.739 55.3751 191.333 54.5696C192.183 54.1397 193.114 53.7831 194.055 53.6195ZM208.861 52.8988L209.084 52.9444C211.505 53.4508 214.652 54.4624 215.799 56.842C215.842 57.1785 215.796 57.2506 215.759 57.2977L215.746 57.3134C215.715 57.3536 215.69 57.4091 215.545 57.4549C215.504 57.4453 215.463 57.435 215.422 57.4242C214.896 57.2864 214.48 57.0966 214.078 56.8996L213.641 56.6844C213.135 56.4359 212.624 56.1965 212.082 56.0198C210.927 55.6427 209.738 55.3771 208.531 55.2352C208.269 55.2045 208.017 55.1162 207.818 54.9648C207.63 54.8211 207.486 54.6221 207.42 54.3577C207.335 54.0154 207.359 53.7563 207.543 53.4476C207.681 53.2157 207.878 53.055 208.105 52.9627C208.336 52.8686 208.6 52.8464 208.861 52.8988Z" fill="black"/>
      <path fill-rule="evenodd" clip-rule="evenodd" d="M218.609 68.5685C217.566 69.9699 215.633 70.4162 213.85 70.2621C210.005 69.8918 208.794 65.5226 208.668 62.1267C211.247 62.8524 208.45 57.7128 217.265 57.1476C220.373 56.8886 219.516 58.766 220.889 60.1378C220.861 63.0167 220.382 66.1448 218.609 68.5685ZM200.293 65.2605C198.022 75.8969 185.59 73.3669 184.284 63.7789C185.49 62.9274 185.172 60.8249 186.67 60.0631C189.045 58.5454 192.013 58.6103 194.709 58.646C198.156 58.8829 199.138 60.3112 200.908 61.8694C200.823 62.9102 200.578 64.1438 200.293 65.2605ZM223.534 55.3861C223.406 55.3649 223.279 55.3449 223.151 55.3261C223.052 55.2696 222.935 55.2261 222.799 55.1999C222.488 55.121 222.18 55.0679 221.872 55.0392C217.453 54.0444 207.231 55.4569 206.809 59.2291C205.402 59.699 204.184 59.2782 202.553 59.3201C201.312 54.1292 179.85 54.8618 178.818 57.9914C178.814 57.9903 178.81 57.9894 178.806 57.9881C177.814 57.6811 176.352 57.7551 175.217 57.7065C172.793 57.6557 170.366 57.8718 167.995 58.3832C163.554 59.0892 157.493 59.9158 160.582 65.4635C160.582 65.4644 160.583 65.4655 160.584 65.4664L160.584 65.4659C161.116 66.0118 162.02 65.5722 162.053 64.8334C161.015 62.2052 163.36 61.8896 165.165 61.1343C169.655 59.5205 174.226 59.2968 178.87 59.796C179.22 60.2075 179.75 60.5663 180.31 60.7541C183.415 61.2697 181.779 63.5738 183.741 63.9089C183.381 71.9407 193.128 76.3249 198.776 71.0451C201.031 68.8395 201.569 65.5722 202.092 62.6272C202.368 62.5651 202.544 62.4138 202.647 62.2137C203.311 61.5496 203.729 60.9364 205.044 60.7541C206.358 60.5719 207.37 60.9377 207.507 61.0497C207.542 61.1193 207.579 61.189 207.622 61.2587C207.682 61.3626 207.764 61.4455 207.857 61.5108C206.558 69.5088 212.765 74.5669 219.031 70.4187C221.754 67.8567 222.329 63.9342 222.443 60.4331C222.812 60.2103 223.045 59.7785 222.918 59.2356C222.741 58.4873 223.154 57.8394 223.812 57.5141C224.666 57.0916 224.515 55.5486 223.534 55.3861Z" fill="black"/>
    </g>
  </g>
  <path d="M28.5849 235.159V216.458H38.1491C40.607 216.458 42.4414 216.912 43.6525 217.821C44.8636 218.711 45.4692 219.887 45.4692 221.347C45.4692 222.309 45.2109 223.155 44.6944 223.885C44.1958 224.598 43.4833 225.168 42.5572 225.595C41.6489 226.005 40.5624 226.209 39.2979 226.209L39.8322 224.927C41.1502 224.927 42.2989 225.132 43.2785 225.542C44.2581 225.933 45.015 226.512 45.5493 227.278C46.1015 228.026 46.3775 228.943 46.3775 230.03C46.3775 231.651 45.7185 232.915 44.4006 233.823C43.1004 234.714 41.1947 235.159 38.6834 235.159H28.5849ZM33.8212 231.339H38.256C39.1643 231.339 39.85 231.187 40.3131 230.885C40.794 230.564 41.0344 230.083 41.0344 229.442C41.0344 228.801 40.794 228.329 40.3131 228.026C39.85 227.706 39.1643 227.545 38.256 227.545H33.4472V223.885H37.4545C38.345 223.885 39.0129 223.734 39.4582 223.431C39.9034 223.128 40.1261 222.674 40.1261 222.069C40.1261 221.463 39.9034 221.018 39.4582 220.733C39.0129 220.43 38.345 220.279 37.4545 220.279H33.8212V231.339ZM57.7198 235.159V232.461L57.3725 231.793V226.824C57.3725 226.022 57.1231 225.408 56.6244 224.981C56.1435 224.535 55.3688 224.313 54.3002 224.313C53.6056 224.313 52.902 224.428 52.1896 224.66C51.4772 224.874 50.8717 225.176 50.373 225.568L48.6632 222.122C49.4824 221.588 50.462 221.178 51.6019 220.893C52.7596 220.59 53.9083 220.439 55.0482 220.439C57.3992 220.439 59.2158 220.982 60.4982 222.069C61.7983 223.137 62.4484 224.82 62.4484 227.118V235.159H57.7198ZM53.4453 235.4C52.2876 235.4 51.308 235.204 50.5065 234.812C49.7051 234.42 49.0906 233.886 48.6632 233.209C48.2535 232.532 48.0487 231.775 48.0487 230.938C48.0487 230.048 48.2713 229.282 48.7166 228.641C49.1797 227.982 49.8832 227.483 50.8271 227.145C51.7711 226.788 52.9911 226.61 54.4872 226.61H57.9068V229.255H55.1818C54.3625 229.255 53.7837 229.389 53.4453 229.656C53.1247 229.923 52.9644 230.279 52.9644 230.724C52.9644 231.17 53.1336 231.526 53.472 231.793C53.8104 232.06 54.2734 232.194 54.8612 232.194C55.4133 232.194 55.912 232.06 56.3573 231.793C56.8203 231.508 57.1587 231.081 57.3725 230.511L58.0671 232.381C57.7999 233.378 57.2745 234.135 56.4908 234.652C55.725 235.15 54.7098 235.4 53.4453 235.4ZM72.1176 235.4C70.2653 235.4 68.8227 234.945 67.7897 234.037C66.7567 233.111 66.2402 231.722 66.2402 229.869V217.447H71.3161V229.816C71.3161 230.333 71.4586 230.742 71.7436 231.045C72.0285 231.33 72.3936 231.472 72.8389 231.472C73.4445 231.472 73.961 231.321 74.3884 231.018L75.644 234.571C75.2166 234.856 74.6912 235.061 74.0678 235.186C73.4445 235.328 72.7944 235.4 72.1176 235.4ZM64.1296 225.007V221.214H74.6289V225.007H64.1296ZM83.7796 235.4C81.9273 235.4 80.4846 234.945 79.4516 234.037C78.4186 233.111 77.9021 231.722 77.9021 229.869V217.447H82.9781V229.816C82.9781 230.333 83.1206 230.742 83.4055 231.045C83.6905 231.33 84.0556 231.472 84.5009 231.472C85.1064 231.472 85.6229 231.321 86.0504 231.018L87.306 234.571C86.8786 234.856 86.3532 235.061 85.7298 235.186C85.1064 235.328 84.4564 235.4 83.7796 235.4ZM75.7916 225.007V221.214H86.2908V225.007H75.7916ZM89.2634 235.159V215.336H94.3393V235.159H89.2634ZM105.225 235.4C103.516 235.4 102.019 235.079 100.737 234.438C99.4725 233.779 98.4841 232.888 97.7717 231.766C97.077 230.626 96.7297 229.335 96.7297 227.893C96.7297 226.45 97.0681 225.168 97.7449 224.045C98.4395 222.906 99.3924 222.024 100.604 221.401C101.815 220.759 103.177 220.439 104.691 220.439C106.116 220.439 107.416 220.733 108.591 221.321C109.767 221.89 110.702 222.736 111.397 223.858C112.091 224.981 112.439 226.343 112.439 227.946C112.439 228.124 112.43 228.329 112.412 228.56C112.394 228.792 112.376 229.006 112.358 229.202H100.897V226.53H109.66L107.737 227.278C107.754 226.619 107.63 226.049 107.363 225.568C107.113 225.087 106.757 224.713 106.294 224.446C105.849 224.179 105.323 224.045 104.718 224.045C104.112 224.045 103.578 224.179 103.115 224.446C102.67 224.713 102.322 225.096 102.073 225.595C101.824 226.076 101.699 226.646 101.699 227.305V228.08C101.699 228.792 101.841 229.406 102.126 229.923C102.429 230.439 102.857 230.84 103.409 231.125C103.961 231.392 104.62 231.526 105.386 231.526C106.098 231.526 106.704 231.428 107.202 231.232C107.719 231.018 108.226 230.698 108.725 230.27L111.397 233.049C110.702 233.814 109.847 234.402 108.832 234.812C107.817 235.204 106.615 235.4 105.225 235.4ZM129.82 235.4C128.235 235.4 126.828 235.079 125.599 234.438C124.37 233.797 123.399 232.915 122.687 231.793C121.992 230.653 121.645 229.353 121.645 227.893C121.645 226.432 121.992 225.141 122.687 224.019C123.399 222.897 124.37 222.024 125.599 221.401C126.828 220.759 128.235 220.439 129.82 220.439C131.405 220.439 132.812 220.759 134.041 221.401C135.288 222.024 136.259 222.897 136.953 224.019C137.648 225.141 137.995 226.432 137.995 227.893C137.995 229.353 137.648 230.653 136.953 231.793C136.259 232.915 135.288 233.797 134.041 234.438C132.812 235.079 131.405 235.4 129.82 235.4ZM129.82 231.366C130.408 231.366 130.924 231.232 131.37 230.965C131.833 230.698 132.198 230.306 132.465 229.789C132.732 229.255 132.866 228.623 132.866 227.893C132.866 227.162 132.732 226.548 132.465 226.049C132.198 225.533 131.833 225.141 131.37 224.874C130.924 224.607 130.408 224.473 129.82 224.473C129.25 224.473 128.734 224.607 128.271 224.874C127.825 225.141 127.46 225.533 127.175 226.049C126.908 226.548 126.775 227.162 126.775 227.893C126.775 228.623 126.908 229.255 127.175 229.789C127.46 230.306 127.825 230.698 128.271 230.965C128.734 231.232 129.25 231.366 129.82 231.366ZM140.934 235.159V220.84C140.934 219.094 141.451 217.705 142.484 216.672C143.535 215.621 145.031 215.096 146.972 215.096C147.595 215.096 148.21 215.158 148.815 215.283C149.421 215.407 149.929 215.594 150.338 215.844L149.083 219.424C148.869 219.299 148.628 219.201 148.361 219.13C148.094 219.041 147.827 218.996 147.56 218.996C147.025 218.996 146.607 219.157 146.304 219.477C146.019 219.78 145.877 220.252 145.877 220.893V221.935L146.01 224.045V235.159H140.934ZM138.824 225.007V221.214H149.323V225.007H138.824ZM165.44 235.4C163.587 235.4 162.145 234.945 161.112 234.037C160.079 233.111 159.562 231.722 159.562 229.869V217.447H164.638V229.816C164.638 230.333 164.781 230.742 165.066 231.045C165.351 231.33 165.716 231.472 166.161 231.472C166.766 231.472 167.283 231.321 167.71 231.018L168.966 234.571C168.539 234.856 168.013 235.061 167.39 235.186C166.766 235.328 166.116 235.4 165.44 235.4ZM157.452 225.007V221.214H167.951V225.007H157.452ZM180.354 220.439C181.476 220.439 182.491 220.67 183.4 221.133C184.308 221.579 185.02 222.273 185.537 223.217C186.071 224.161 186.338 225.381 186.338 226.877V235.159H181.262V227.706C181.262 226.673 181.049 225.924 180.621 225.461C180.211 224.981 179.633 224.74 178.885 224.74C178.35 224.74 177.86 224.865 177.415 225.114C176.97 225.346 176.623 225.711 176.373 226.209C176.124 226.708 175.999 227.358 175.999 228.16V235.159H170.923V215.336H175.999V224.794L174.824 223.591C175.376 222.541 176.133 221.757 177.095 221.24C178.056 220.706 179.143 220.439 180.354 220.439ZM197.295 235.4C195.585 235.4 194.089 235.079 192.807 234.438C191.542 233.779 190.554 232.888 189.841 231.766C189.147 230.626 188.799 229.335 188.799 227.893C188.799 226.45 189.138 225.168 189.815 224.045C190.509 222.906 191.462 222.024 192.673 221.401C193.884 220.759 195.247 220.439 196.761 220.439C198.185 220.439 199.486 220.733 200.661 221.321C201.837 221.89 202.772 222.736 203.466 223.858C204.161 224.981 204.508 226.343 204.508 227.946C204.508 228.124 204.499 228.329 204.481 228.56C204.464 228.792 204.446 229.006 204.428 229.202H192.967V226.53H201.73L199.806 227.278C199.824 226.619 199.699 226.049 199.432 225.568C199.183 225.087 198.827 224.713 198.364 224.446C197.918 224.179 197.393 224.045 196.787 224.045C196.182 224.045 195.648 224.179 195.184 224.446C194.739 224.713 194.392 225.096 194.143 225.595C193.893 226.076 193.769 226.646 193.769 227.305V228.08C193.769 228.792 193.911 229.406 194.196 229.923C194.499 230.439 194.926 230.84 195.478 231.125C196.03 231.392 196.689 231.526 197.455 231.526C198.168 231.526 198.773 231.428 199.272 231.232C199.788 231.018 200.296 230.698 200.795 230.27L203.466 233.049C202.772 233.814 201.917 234.402 200.902 234.812C199.886 235.204 198.684 235.4 197.295 235.4ZM223.733 235.4C222.433 235.4 221.347 235.132 220.474 234.598C219.619 234.064 218.978 233.245 218.55 232.14C218.123 231.036 217.909 229.62 217.909 227.893C217.909 226.201 218.132 224.802 218.577 223.698C219.04 222.594 219.708 221.775 220.581 221.24C221.453 220.706 222.504 220.439 223.733 220.439C225.051 220.439 226.244 220.742 227.313 221.347C228.4 221.953 229.254 222.817 229.878 223.939C230.519 225.043 230.84 226.361 230.84 227.893C230.84 229.442 230.519 230.778 229.878 231.9C229.254 233.004 228.4 233.868 227.313 234.491C226.244 235.097 225.051 235.4 223.733 235.4ZM214.623 235.159V215.336H219.699V223.11L219.432 227.893L219.459 232.675V235.159H214.623ZM222.665 231.366C223.234 231.366 223.742 231.232 224.187 230.965C224.65 230.698 225.016 230.306 225.283 229.789C225.568 229.255 225.71 228.623 225.71 227.893C225.71 227.162 225.568 226.548 225.283 226.049C225.016 225.533 224.65 225.141 224.187 224.874C223.742 224.607 223.234 224.473 222.665 224.473C222.095 224.473 221.578 224.607 221.115 224.874C220.67 225.141 220.305 225.533 220.02 226.049C219.753 226.548 219.619 227.162 219.619 227.893C219.619 228.623 219.753 229.255 220.02 229.789C220.305 230.306 220.67 230.698 221.115 230.965C221.578 231.232 222.095 231.366 222.665 231.366ZM241.729 235.159V232.461L241.381 231.793V226.824C241.381 226.022 241.132 225.408 240.633 224.981C240.152 224.535 239.378 224.313 238.309 224.313C237.614 224.313 236.911 224.428 236.199 224.66C235.486 224.874 234.881 225.176 234.382 225.568L232.672 222.122C233.491 221.588 234.471 221.178 235.611 220.893C236.768 220.59 237.917 220.439 239.057 220.439C241.408 220.439 243.225 220.982 244.507 222.069C245.807 223.137 246.457 224.82 246.457 227.118V235.159H241.729ZM237.454 235.4C236.296 235.4 235.317 235.204 234.515 234.812C233.714 234.42 233.1 233.886 232.672 233.209C232.262 232.532 232.058 231.775 232.058 230.938C232.058 230.048 232.28 229.282 232.725 228.641C233.189 227.982 233.892 227.483 234.836 227.145C235.78 226.788 237 226.61 238.496 226.61H241.916V229.255H239.191C238.371 229.255 237.793 229.389 237.454 229.656C237.134 229.923 236.973 230.279 236.973 230.724C236.973 231.17 237.142 231.526 237.481 231.793C237.819 232.06 238.282 232.194 238.87 232.194C239.422 232.194 239.921 232.06 240.366 231.793C240.829 231.508 241.168 231.081 241.381 230.511L242.076 232.381C241.809 233.378 241.283 234.135 240.5 234.652C239.734 235.15 238.719 235.4 237.454 235.4ZM259.092 220.439C260.214 220.439 261.229 220.67 262.137 221.133C263.046 221.579 263.758 222.273 264.275 223.217C264.809 224.161 265.076 225.381 265.076 226.877V235.159H260V227.706C260 226.673 259.787 225.924 259.359 225.461C258.949 224.981 258.371 224.74 257.623 224.74C257.088 224.74 256.598 224.865 256.153 225.114C255.708 225.346 255.361 225.711 255.111 226.209C254.862 226.708 254.737 227.358 254.737 228.16V235.159H249.661V220.679H254.497V224.794L253.562 223.591C254.114 222.541 254.871 221.757 255.833 221.24C256.794 220.706 257.881 220.439 259.092 220.439ZM274.751 235.4C273.433 235.4 272.23 235.097 271.144 234.491C270.075 233.868 269.22 233.004 268.579 231.9C267.938 230.778 267.618 229.442 267.618 227.893C267.618 226.361 267.938 225.043 268.579 223.939C269.22 222.817 270.075 221.953 271.144 221.347C272.23 220.742 273.433 220.439 274.751 220.439C275.997 220.439 277.048 220.706 277.903 221.24C278.776 221.775 279.435 222.594 279.88 223.698C280.325 224.802 280.548 226.201 280.548 227.893C280.548 229.62 280.334 231.036 279.907 232.14C279.479 233.245 278.838 234.064 277.983 234.598C277.128 235.132 276.051 235.4 274.751 235.4ZM275.819 231.366C276.389 231.366 276.897 231.232 277.342 230.965C277.805 230.698 278.17 230.306 278.437 229.789C278.704 229.255 278.838 228.623 278.838 227.893C278.838 227.162 278.704 226.548 278.437 226.049C278.17 225.533 277.805 225.141 277.342 224.874C276.897 224.607 276.389 224.473 275.819 224.473C275.231 224.473 274.706 224.607 274.243 224.874C273.798 225.141 273.442 225.533 273.174 226.049C272.907 226.548 272.774 227.162 272.774 227.893C272.774 228.623 272.907 229.255 273.174 229.789C273.442 230.306 273.798 230.698 274.243 230.965C274.706 231.232 275.231 231.366 275.819 231.366ZM278.998 235.159V232.675L279.025 227.893L278.758 223.11V215.336H283.834V235.159H278.998ZM292.363 235.4C291.134 235.4 289.932 235.257 288.756 234.972C287.598 234.687 286.663 234.331 285.951 233.904L287.474 230.431C288.15 230.84 288.943 231.17 289.851 231.419C290.76 231.651 291.65 231.766 292.523 231.766C293.378 231.766 293.966 231.677 294.286 231.499C294.625 231.321 294.794 231.081 294.794 230.778C294.794 230.493 294.633 230.288 294.313 230.163C294.01 230.021 293.6 229.914 293.084 229.843C292.585 229.772 292.033 229.691 291.428 229.602C290.822 229.513 290.208 229.398 289.584 229.255C288.979 229.095 288.418 228.863 287.901 228.56C287.402 228.24 287.002 227.812 286.699 227.278C286.396 226.744 286.245 226.067 286.245 225.248C286.245 224.322 286.512 223.502 287.046 222.79C287.598 222.06 288.4 221.49 289.451 221.08C290.501 220.653 291.784 220.439 293.298 220.439C294.313 220.439 295.337 220.546 296.37 220.759C297.421 220.955 298.302 221.258 299.015 221.668L297.492 225.114C296.78 224.704 296.067 224.428 295.355 224.286C294.642 224.126 293.966 224.045 293.324 224.045C292.469 224.045 291.864 224.143 291.508 224.339C291.169 224.535 291 224.776 291 225.061C291 225.346 291.152 225.568 291.454 225.729C291.757 225.871 292.158 225.987 292.656 226.076C293.173 226.147 293.734 226.227 294.34 226.316C294.945 226.388 295.551 226.503 296.156 226.664C296.78 226.824 297.341 227.064 297.839 227.385C298.356 227.688 298.765 228.106 299.068 228.641C299.371 229.157 299.522 229.825 299.522 230.644C299.522 231.535 299.246 232.336 298.694 233.049C298.16 233.761 297.358 234.331 296.29 234.758C295.239 235.186 293.93 235.4 292.363 235.4Z" fill="#18191F"/>
  <path d="M44.2463 262.148C44.2463 267.992 36.7325 273.001 36.7325 273.001C36.7325 273.001 29.2188 267.992 29.2188 262.148C29.2188 260.155 30.0104 258.244 31.4195 256.835C32.8286 255.425 34.7397 254.634 36.7325 254.634C38.7253 254.634 40.6364 255.425 42.0455 256.835C43.4546 258.244 44.2463 260.155 44.2463 262.148Z" stroke="#18191F" stroke-width="2.2263" stroke-linecap="round" stroke-linejoin="round"/>
  <path d="M36.7331 264.652C38.1163 264.652 39.2377 263.53 39.2377 262.147C39.2377 260.764 38.1163 259.643 36.7331 259.643C35.3499 259.643 34.2285 260.764 34.2285 262.147C34.2285 263.53 35.3499 264.652 36.7331 264.652Z" stroke="#18191F" stroke-width="2.2263" stroke-linecap="round" stroke-linejoin="round"/>
  <path d="M42.5765 288.307H30.8885C29.9663 288.307 29.2188 289.054 29.2188 289.976V301.664C29.2188 302.587 29.9663 303.334 30.8885 303.334H42.5765C43.4987 303.334 44.2463 302.587 44.2463 301.664V289.976C44.2463 289.054 43.4987 288.307 42.5765 288.307Z" stroke="#18191F" stroke-width="2.2263" stroke-linecap="round" stroke-linejoin="round"/>
  <path d="M40.0723 286.637V289.976" stroke="#18191F" stroke-width="2.2263" stroke-linecap="round" stroke-linejoin="round"/>
  <path d="M33.3945 286.637V289.976" stroke="#18191F" stroke-width="2.2263" stroke-linecap="round" stroke-linejoin="round"/>
  <path d="M29.2188 293.315H44.2463" stroke="#18191F" stroke-width="2.2263" stroke-linecap="round" stroke-linejoin="round"/>
  <g filter="url(#filter1_d_1661_26720)"/>
  <defs>
    <filter id="filter0_d_1661_26720" x="0" y="0" width="364" height="337.285" filterUnits="userSpaceOnUse" color-interpolation-filters="sRGB">
      <feFlood flood-opacity="0" result="BackgroundImageFix"/>
      <feColorMatrix in="SourceAlpha" type="matrix" values="0 0 0 0 0 0 0 0 0 0 0 0 0 0 0 0 0 0 127 0" result="hardAlpha"/>
      <feOffset dy="4.4526"/>
      <feColorMatrix type="matrix" values="0 0 0 0 0.0941176 0 0 0 0 0.0980392 0 0 0 0 0.121569 0 0 0 1 0"/>
      <feBlend mode="normal" in2="BackgroundImageFix" result="effect1_dropShadow_1661_26720"/>
      <feBlend mode="normal" in="SourceGraphic" in2="effect1_dropShadow_1661_26720" result="shape"/>
    </filter>
    <filter id="filter1_d_1661_26720" x="274.949" y="243.779" width="66.7891" height="68.7891" filterUnits="userSpaceOnUse" color-interpolation-filters="sRGB">
      <feFlood flood-opacity="0" result="BackgroundImageFix"/>
      <feColorMatrix in="SourceAlpha" type="matrix" values="0 0 0 0 0 0 0 0 0 0 0 0 0 0 0 0 0 0 127 0" result="hardAlpha"/>
      <feOffset dy="2"/>
      <feColorMatrix type="matrix" values="0 0 0 0 0.0941176 0 0 0 0 0.0980392 0 0 0 0 0.121569 0 0 0 1 0"/>
      <feBlend mode="normal" in2="BackgroundImageFix" result="effect1_dropShadow_1661_26720"/>
      <feBlend mode="normal" in="SourceGraphic" in2="effect1_dropShadow_1661_26720" result="shape"/>
    </filter>
    <clipPath id="clip0_1661_26720">
      <rect width="329.142" height="191.462" fill="white" transform="translate(17.8105 5.56641)"/>
    </clipPath>
    <clipPath id="clip1_1661_26720">
      <rect width="175.931" height="190.591" fill="white" transform="translate(192.891 6.43652)"/>
    </clipPath>
    <clipPath id="clip2_1661_26720">
      <rect width="175.931" height="190.591" fill="white" transform="translate(-1.36719 6.43652)"/>
    </clipPath>
    <clipPath id="clip3_1661_26720">
      <rect width="175.931" height="190.591" fill="white" transform="translate(96.8613 6.43652)"/>
    </clipPath>
  </defs>
</svg>