<svg width="428" height="34" viewBox="0 0 428 34" fill="none" xmlns="http://www.w3.org/2000/svg">
<g clip-path="url(#clip0_997_21921)">
<path d="M14.9964 10.9927C16.0989 10.9927 16.9927 10.0989 16.9927 8.99635C16.9927 7.8938 16.0989 7 14.9964 7C13.8938 7 13 7.8938 13 8.99635C13 10.0989 13.8938 10.9927 14.9964 10.9927Z" fill="#4EB7B4"/>
<path d="M32.9964 10.9927C34.0989 10.9927 34.9927 10.0989 34.9927 8.99635C34.9927 7.8938 34.0989 7 32.9964 7C31.8938 7 31 7.8938 31 8.99635C31 10.0989 31.8938 10.9927 32.9964 10.9927Z" fill="#4EB7B4"/>
<path d="M50.9964 10.9927C52.0989 10.9927 52.9927 10.0989 52.9927 8.99635C52.9927 7.8938 52.0989 7 50.9964 7C49.8938 7 49 7.8938 49 8.99635C49 10.0989 49.8938 10.9927 50.9964 10.9927Z" fill="#4EB7B4"/>
<path d="M68.9964 10.9927C70.0989 10.9927 70.9927 10.0989 70.9927 8.99635C70.9927 7.8938 70.0989 7 68.9964 7C67.8938 7 67 7.8938 67 8.99635C67 10.0989 67.8938 10.9927 68.9964 10.9927Z" fill="#4EB7B4"/>
<path d="M86.9964 10.9927C88.0989 10.9927 88.9927 10.0989 88.9927 8.99635C88.9927 7.8938 88.0989 7 86.9964 7C85.8938 7 85 7.8938 85 8.99635C85 10.0989 85.8938 10.9927 86.9964 10.9927Z" fill="#4EB7B4"/>
<path d="M104.996 10.9927C106.099 10.9927 106.993 10.0989 106.993 8.99635C106.993 7.8938 106.099 7 104.996 7C103.894 7 103 7.8938 103 8.99635C103 10.0989 103.894 10.9927 104.996 10.9927Z" fill="#4EB7B4"/>
<path d="M122.996 10.9927C124.099 10.9927 124.993 10.0989 124.993 8.99635C124.993 7.8938 124.099 7 122.996 7C121.894 7 121 7.8938 121 8.99635C121 10.0989 121.894 10.9927 122.996 10.9927Z" fill="#4EB7B4"/>
<path d="M140.996 10.9927C142.099 10.9927 142.993 10.0989 142.993 8.99635C142.993 7.8938 142.099 7 140.996 7C139.894 7 139 7.8938 139 8.99635C139 10.0989 139.894 10.9927 140.996 10.9927Z" fill="#4EB7B4"/>
<path d="M158.996 10.9927C160.099 10.9927 160.993 10.0989 160.993 8.99635C160.993 7.8938 160.099 7 158.996 7C157.894 7 157 7.8938 157 8.99635C157 10.0989 157.894 10.9927 158.996 10.9927Z" fill="#4EB7B4"/>
<path d="M5.99635 28.9927C7.09891 28.9927 7.9927 28.0989 7.9927 26.9964C7.9927 25.8938 7.09891 25 5.99635 25C4.8938 25 4 25.8938 4 26.9964C4 28.0989 4.8938 28.9927 5.99635 28.9927Z" fill="#4EB7B4"/>
<path d="M23.9964 28.9927C25.0989 28.9927 25.9927 28.0989 25.9927 26.9964C25.9927 25.8938 25.0989 25 23.9964 25C22.8938 25 22 25.8938 22 26.9964C22 28.0989 22.8938 28.9927 23.9964 28.9927Z" fill="#4EB7B4"/>
<path d="M41.9964 28.9927C43.0989 28.9927 43.9927 28.0989 43.9927 26.9964C43.9927 25.8938 43.0989 25 41.9964 25C40.8938 25 40 25.8938 40 26.9964C40 28.0989 40.8938 28.9927 41.9964 28.9927Z" fill="#4EB7B4"/>
<path d="M59.9964 28.9927C61.0989 28.9927 61.9927 28.0989 61.9927 26.9964C61.9927 25.8938 61.0989 25 59.9964 25C58.8938 25 58 25.8938 58 26.9964C58 28.0989 58.8938 28.9927 59.9964 28.9927Z" fill="#4EB7B4"/>
<path d="M77.9964 28.9927C79.0989 28.9927 79.9927 28.0989 79.9927 26.9964C79.9927 25.8938 79.0989 25 77.9964 25C76.8938 25 76 25.8938 76 26.9964C76 28.0989 76.8938 28.9927 77.9964 28.9927Z" fill="#4EB7B4"/>
<path d="M95.9964 28.9927C97.0989 28.9927 97.9927 28.0989 97.9927 26.9964C97.9927 25.8938 97.0989 25 95.9964 25C94.8938 25 94 25.8938 94 26.9964C94 28.0989 94.8938 28.9927 95.9964 28.9927Z" fill="#4EB7B4"/>
<path d="M113.996 28.9927C115.099 28.9927 115.993 28.0989 115.993 26.9964C115.993 25.8938 115.099 25 113.996 25C112.894 25 112 25.8938 112 26.9964C112 28.0989 112.894 28.9927 113.996 28.9927Z" fill="#4EB7B4"/>
<path d="M131.996 28.9927C133.099 28.9927 133.993 28.0989 133.993 26.9964C133.993 25.8938 133.099 25 131.996 25C130.894 25 130 25.8938 130 26.9964C130 28.0989 130.894 28.9927 131.996 28.9927Z" fill="#4EB7B4"/>
<path d="M149.996 28.9927C151.099 28.9927 151.993 28.0989 151.993 26.9964C151.993 25.8938 151.099 25 149.996 25C148.894 25 148 25.8938 148 26.9964C148 28.0989 148.894 28.9927 149.996 28.9927Z" fill="#4EB7B4"/>
<path d="M167.996 28.9927C169.099 28.9927 169.993 28.0989 169.993 26.9964C169.993 25.8938 169.099 25 167.996 25C166.894 25 166 25.8938 166 26.9964C166 28.0989 166.894 28.9927 167.996 28.9927Z" fill="#4EB7B4"/>
<path d="M177.996 10.9927C179.099 10.9927 179.993 10.0989 179.993 8.99635C179.993 7.8938 179.099 7 177.996 7C176.894 7 176 7.8938 176 8.99635C176 10.0989 176.894 10.9927 177.996 10.9927Z" fill="#4EB7B4"/>
<path d="M195.996 10.9927C197.099 10.9927 197.993 10.0989 197.993 8.99635C197.993 7.8938 197.099 7 195.996 7C194.894 7 194 7.8938 194 8.99635C194 10.0989 194.894 10.9927 195.996 10.9927Z" fill="#4EB7B4"/>
<path d="M213.996 10.9927C215.099 10.9927 215.993 10.0989 215.993 8.99635C215.993 7.8938 215.099 7 213.996 7C212.894 7 212 7.8938 212 8.99635C212 10.0989 212.894 10.9927 213.996 10.9927Z" fill="#4EB7B4"/>
<path d="M231.996 10.9927C233.099 10.9927 233.993 10.0989 233.993 8.99635C233.993 7.8938 233.099 7 231.996 7C230.894 7 230 7.8938 230 8.99635C230 10.0989 230.894 10.9927 231.996 10.9927Z" fill="#4EB7B4"/>
<path d="M249.996 10.9927C251.099 10.9927 251.993 10.0989 251.993 8.99635C251.993 7.8938 251.099 7 249.996 7C248.894 7 248 7.8938 248 8.99635C248 10.0989 248.894 10.9927 249.996 10.9927Z" fill="#4EB7B4"/>
<path d="M267.996 10.9927C269.099 10.9927 269.993 10.0989 269.993 8.99635C269.993 7.8938 269.099 7 267.996 7C266.894 7 266 7.8938 266 8.99635C266 10.0989 266.894 10.9927 267.996 10.9927Z" fill="#4EB7B4"/>
<path d="M285.996 10.9927C287.099 10.9927 287.993 10.0989 287.993 8.99635C287.993 7.8938 287.099 7 285.996 7C284.894 7 284 7.8938 284 8.99635C284 10.0989 284.894 10.9927 285.996 10.9927Z" fill="#4EB7B4"/>
<path d="M303.996 10.9927C305.099 10.9927 305.993 10.0989 305.993 8.99635C305.993 7.8938 305.099 7 303.996 7C302.894 7 302 7.8938 302 8.99635C302 10.0989 302.894 10.9927 303.996 10.9927Z" fill="#4EB7B4"/>
<path d="M321.996 10.9927C323.099 10.9927 323.993 10.0989 323.993 8.99635C323.993 7.8938 323.099 7 321.996 7C320.894 7 320 7.8938 320 8.99635C320 10.0989 320.894 10.9927 321.996 10.9927Z" fill="#4EB7B4"/>
<path d="M339.996 10.9927C341.099 10.9927 341.993 10.0989 341.993 8.99635C341.993 7.8938 341.099 7 339.996 7C338.894 7 338 7.8938 338 8.99635C338 10.0989 338.894 10.9927 339.996 10.9927Z" fill="#4EB7B4"/>
<path d="M357.996 10.9927C359.099 10.9927 359.993 10.0989 359.993 8.99635C359.993 7.8938 359.099 7 357.996 7C356.894 7 356 7.8938 356 8.99635C356 10.0989 356.894 10.9927 357.996 10.9927Z" fill="#4EB7B4"/>
<path d="M375.996 10.9927C377.099 10.9927 377.993 10.0989 377.993 8.99635C377.993 7.8938 377.099 7 375.996 7C374.894 7 374 7.8938 374 8.99635C374 10.0989 374.894 10.9927 375.996 10.9927Z" fill="#4EB7B4"/>
<path d="M393.996 10.9927C395.099 10.9927 395.993 10.0989 395.993 8.99635C395.993 7.8938 395.099 7 393.996 7C392.894 7 392 7.8938 392 8.99635C392 10.0989 392.894 10.9927 393.996 10.9927Z" fill="#4EB7B4"/>
<path d="M411.996 10.9927C413.099 10.9927 413.993 10.0989 413.993 8.99635C413.993 7.8938 413.099 7 411.996 7C410.894 7 410 7.8938 410 8.99635C410 10.0989 410.894 10.9927 411.996 10.9927Z" fill="#4EB7B4"/>
<path d="M186.996 28.9927C188.099 28.9927 188.993 28.0989 188.993 26.9964C188.993 25.8938 188.099 25 186.996 25C185.894 25 185 25.8938 185 26.9964C185 28.0989 185.894 28.9927 186.996 28.9927Z" fill="#4EB7B4"/>
<path d="M204.996 28.9927C206.099 28.9927 206.993 28.0989 206.993 26.9964C206.993 25.8938 206.099 25 204.996 25C203.894 25 203 25.8938 203 26.9964C203 28.0989 203.894 28.9927 204.996 28.9927Z" fill="#4EB7B4"/>
<path d="M222.996 28.9927C224.099 28.9927 224.993 28.0989 224.993 26.9964C224.993 25.8938 224.099 25 222.996 25C221.894 25 221 25.8938 221 26.9964C221 28.0989 221.894 28.9927 222.996 28.9927Z" fill="#4EB7B4"/>
<path d="M240.996 28.9927C242.099 28.9927 242.993 28.0989 242.993 26.9964C242.993 25.8938 242.099 25 240.996 25C239.894 25 239 25.8938 239 26.9964C239 28.0989 239.894 28.9927 240.996 28.9927Z" fill="#4EB7B4"/>
<path d="M258.996 28.9927C260.099 28.9927 260.993 28.0989 260.993 26.9964C260.993 25.8938 260.099 25 258.996 25C257.894 25 257 25.8938 257 26.9964C257 28.0989 257.894 28.9927 258.996 28.9927Z" fill="#4EB7B4"/>
<path d="M276.996 28.9927C278.099 28.9927 278.993 28.0989 278.993 26.9964C278.993 25.8938 278.099 25 276.996 25C275.894 25 275 25.8938 275 26.9964C275 28.0989 275.894 28.9927 276.996 28.9927Z" fill="#4EB7B4"/>
<path d="M294.996 28.9927C296.099 28.9927 296.993 28.0989 296.993 26.9964C296.993 25.8938 296.099 25 294.996 25C293.894 25 293 25.8938 293 26.9964C293 28.0989 293.894 28.9927 294.996 28.9927Z" fill="#4EB7B4"/>
<path d="M312.996 28.9927C314.099 28.9927 314.993 28.0989 314.993 26.9964C314.993 25.8938 314.099 25 312.996 25C311.894 25 311 25.8938 311 26.9964C311 28.0989 311.894 28.9927 312.996 28.9927Z" fill="#4EB7B4"/>
<path d="M330.996 28.9927C332.099 28.9927 332.993 28.0989 332.993 26.9964C332.993 25.8938 332.099 25 330.996 25C329.894 25 329 25.8938 329 26.9964C329 28.0989 329.894 28.9927 330.996 28.9927Z" fill="#4EB7B4"/>
<path d="M348.996 28.9927C350.099 28.9927 350.993 28.0989 350.993 26.9964C350.993 25.8938 350.099 25 348.996 25C347.894 25 347 25.8938 347 26.9964C347 28.0989 347.894 28.9927 348.996 28.9927Z" fill="#4EB7B4"/>
<path d="M366.996 28.9927C368.099 28.9927 368.993 28.0989 368.993 26.9964C368.993 25.8938 368.099 25 366.996 25C365.894 25 365 25.8938 365 26.9964C365 28.0989 365.894 28.9927 366.996 28.9927Z" fill="#4EB7B4"/>
<path d="M384.996 28.9927C386.099 28.9927 386.993 28.0989 386.993 26.9964C386.993 25.8938 386.099 25 384.996 25C383.894 25 383 25.8938 383 26.9964C383 28.0989 383.894 28.9927 384.996 28.9927Z" fill="#4EB7B4"/>
<path d="M402.996 28.9927C404.099 28.9927 404.993 28.0989 404.993 26.9964C404.993 25.8938 404.099 25 402.996 25C401.894 25 401 25.8938 401 26.9964C401 28.0989 401.894 28.9927 402.996 28.9927Z" fill="#4EB7B4"/>
<path d="M420.996 28.9927C422.099 28.9927 422.993 28.0989 422.993 26.9964C422.993 25.8938 422.099 25 420.996 25C419.894 25 419 25.8938 419 26.9964C419 28.0989 419.894 28.9927 420.996 28.9927Z" fill="#4EB7B4"/>
</g>
<defs>
<clipPath id="clip0_997_21921">
<rect width="587" height="34" fill="white" transform="translate(-120)"/>
</clipPath>
</defs>
</svg>
