<?xml version="1.0" encoding="utf-8"?>
<svg width="364" height="338" viewBox="0 0 364 338" fill="none" xmlns="http://www.w3.org/2000/svg">
  <g filter="url(#filter0_d_1661_26705)">
    <rect width="364" height="332.832" rx="17.8104" fill="white"/>
    <rect x="1.11315" y="1.11315" width="361.774" height="330.606" rx="16.6972" stroke="#18191F" stroke-width="2.2263"/>
  </g>
  <path d="M1.11315 17.8104C1.11315 8.58876 8.58876 1.11315 17.8104 1.11315H346.19C355.411 1.11315 362.887 8.58876 362.887 17.8104V198.141H1.11315V17.8104Z" fill="#F7DCAD" stroke="#18191F" stroke-width="2.2263"/>
  <path d="M32.8108 223.727H40.5628V227.399H32.8108V223.727ZM33.1468 233.159H28.3948V216.359H41.5708V220.031H33.1468V233.159ZM48.768 233.375C47.712 233.375 46.76 233.167 45.912 232.751C45.08 232.335 44.424 231.687 43.944 230.807C43.48 229.911 43.248 228.783 43.248 227.423V220.151H47.808V226.679C47.808 227.687 47.992 228.407 48.36 228.839C48.744 229.271 49.28 229.487 49.968 229.487C50.416 229.487 50.824 229.383 51.192 229.175C51.56 228.967 51.856 228.639 52.08 228.191C52.304 227.727 52.416 227.135 52.416 226.415V220.151H56.976V233.159H52.632V229.487L53.472 230.519C53.024 231.479 52.376 232.199 51.528 232.679C50.68 233.143 49.76 233.375 48.768 233.375ZM59.9132 233.159V215.351H64.4732V233.159H59.9132ZM67.4367 233.159V215.351H71.9967V233.159H67.4367ZM86.5285 222.863H94.3285V226.415H86.5285V222.863ZM86.8645 229.487H95.6485V233.159H82.1605V216.359H95.3365V220.031H86.8645V229.487ZM101.647 233.159L96.2946 220.151H100.975L105.247 231.023H102.895L107.383 220.151H111.727L106.351 233.159H101.647ZM119.37 233.375C117.834 233.375 116.49 233.087 115.338 232.511C114.202 231.919 113.314 231.119 112.674 230.111C112.05 229.087 111.738 227.927 111.738 226.631C111.738 225.335 112.042 224.183 112.65 223.175C113.274 222.151 114.13 221.359 115.218 220.799C116.306 220.223 117.53 219.935 118.89 219.935C120.17 219.935 121.338 220.199 122.394 220.727C123.45 221.239 124.29 221.999 124.914 223.007C125.538 224.015 125.85 225.239 125.85 226.679C125.85 226.839 125.842 227.023 125.826 227.231C125.81 227.439 125.794 227.631 125.778 227.807H115.482V225.407H123.354L121.626 226.079C121.642 225.487 121.53 224.975 121.29 224.543C121.066 224.111 120.746 223.775 120.33 223.535C119.93 223.295 119.458 223.175 118.914 223.175C118.37 223.175 117.89 223.295 117.474 223.535C117.074 223.775 116.762 224.119 116.538 224.567C116.314 224.999 116.202 225.511 116.202 226.103V226.799C116.202 227.439 116.33 227.991 116.586 228.455C116.858 228.919 117.242 229.279 117.738 229.535C118.234 229.775 118.826 229.895 119.514 229.895C120.154 229.895 120.698 229.807 121.146 229.631C121.61 229.439 122.066 229.151 122.514 228.767L124.914 231.263C124.29 231.951 123.522 232.479 122.61 232.847C121.698 233.199 120.618 233.375 119.37 233.375ZM136.424 219.935C137.432 219.935 138.344 220.143 139.16 220.559C139.976 220.959 140.616 221.583 141.08 222.431C141.56 223.279 141.8 224.375 141.8 225.719V233.159H137.24V226.463C137.24 225.535 137.048 224.863 136.664 224.447C136.296 224.015 135.776 223.799 135.104 223.799C134.624 223.799 134.184 223.911 133.784 224.135C133.384 224.343 133.072 224.671 132.848 225.119C132.624 225.567 132.512 226.151 132.512 226.871V233.159H127.952V220.151H132.296V223.847L131.456 222.767C131.952 221.823 132.632 221.119 133.496 220.655C134.36 220.175 135.336 219.935 136.424 219.935ZM150.471 233.375C148.807 233.375 147.511 232.967 146.583 232.151C145.655 231.319 145.191 230.071 145.191 228.407V217.247H149.751V228.359C149.751 228.823 149.879 229.191 150.135 229.463C150.391 229.719 150.719 229.847 151.119 229.847C151.663 229.847 152.127 229.711 152.511 229.439L153.639 232.631C153.255 232.887 152.783 233.071 152.223 233.183C151.663 233.311 151.079 233.375 150.471 233.375ZM143.295 224.039V220.631H152.727V224.039H143.295ZM162.598 233.159V216.359H170.278C171.814 216.359 173.134 216.607 174.238 217.103C175.358 217.599 176.222 218.319 176.83 219.263C177.438 220.191 177.742 221.295 177.742 222.575C177.742 223.839 177.438 224.935 176.83 225.863C176.222 226.791 175.358 227.511 174.238 228.023C173.134 228.519 171.814 228.767 170.278 228.767H165.238L167.35 226.703V233.159H162.598ZM167.35 227.207L165.238 225.023H169.99C170.982 225.023 171.718 224.807 172.198 224.375C172.694 223.943 172.942 223.343 172.942 222.575C172.942 221.791 172.694 221.183 172.198 220.751C171.718 220.319 170.982 220.103 169.99 220.103H165.238L167.35 217.919V227.207ZM187.67 233.159V230.735L187.358 230.135V225.671C187.358 224.951 187.134 224.399 186.686 224.015C186.254 223.615 185.558 223.415 184.598 223.415C183.974 223.415 183.342 223.519 182.702 223.727C182.062 223.919 181.518 224.191 181.07 224.543L179.534 221.447C180.27 220.967 181.15 220.599 182.174 220.343C183.214 220.071 184.246 219.935 185.27 219.935C187.382 219.935 189.014 220.423 190.166 221.399C191.334 222.359 191.918 223.871 191.918 225.935V233.159H187.67ZM183.83 233.375C182.79 233.375 181.91 233.199 181.19 232.847C180.47 232.495 179.918 232.015 179.534 231.407C179.166 230.799 178.982 230.119 178.982 229.367C178.982 228.567 179.182 227.879 179.582 227.303C179.998 226.711 180.63 226.263 181.478 225.959C182.326 225.639 183.422 225.479 184.766 225.479H187.838V227.855H185.39C184.654 227.855 184.134 227.975 183.83 228.215C183.542 228.455 183.398 228.775 183.398 229.175C183.398 229.575 183.55 229.895 183.854 230.135C184.158 230.375 184.574 230.495 185.102 230.495C185.598 230.495 186.046 230.375 186.446 230.135C186.862 229.879 187.166 229.495 187.358 228.983L187.982 230.663C187.742 231.559 187.27 232.239 186.566 232.703C185.878 233.151 184.966 233.375 183.83 233.375ZM199.524 233.375C198.42 233.375 197.34 233.247 196.284 232.991C195.244 232.735 194.404 232.415 193.764 232.031L195.132 228.911C195.74 229.279 196.452 229.575 197.268 229.799C198.084 230.007 198.884 230.111 199.668 230.111C200.436 230.111 200.964 230.031 201.252 229.871C201.556 229.711 201.708 229.495 201.708 229.223C201.708 228.967 201.564 228.783 201.276 228.671C201.004 228.543 200.636 228.447 200.172 228.383C199.724 228.319 199.228 228.247 198.684 228.167C198.14 228.087 197.588 227.983 197.028 227.855C196.484 227.711 195.98 227.503 195.516 227.231C195.068 226.943 194.708 226.559 194.436 226.079C194.164 225.599 194.028 224.991 194.028 224.255C194.028 223.423 194.268 222.687 194.748 222.047C195.244 221.391 195.964 220.879 196.908 220.511C197.852 220.127 199.004 219.935 200.364 219.935C201.276 219.935 202.196 220.031 203.124 220.223C204.068 220.399 204.86 220.671 205.5 221.039L204.132 224.135C203.492 223.767 202.852 223.519 202.212 223.391C201.572 223.247 200.964 223.175 200.388 223.175C199.62 223.175 199.076 223.263 198.756 223.439C198.452 223.615 198.3 223.831 198.3 224.087C198.3 224.343 198.436 224.543 198.708 224.687C198.98 224.815 199.34 224.919 199.788 224.999C200.252 225.063 200.756 225.135 201.3 225.215C201.844 225.279 202.388 225.383 202.932 225.527C203.492 225.671 203.996 225.887 204.444 226.175C204.908 226.447 205.276 226.823 205.548 227.303C205.82 227.767 205.956 228.367 205.956 229.103C205.956 229.903 205.708 230.623 205.212 231.263C204.732 231.903 204.012 232.415 203.052 232.799C202.108 233.183 200.932 233.375 199.524 233.375ZM212.649 233.375C211.545 233.375 210.465 233.247 209.409 232.991C208.369 232.735 207.529 232.415 206.889 232.031L208.257 228.911C208.865 229.279 209.577 229.575 210.393 229.799C211.209 230.007 212.009 230.111 212.793 230.111C213.561 230.111 214.089 230.031 214.377 229.871C214.681 229.711 214.833 229.495 214.833 229.223C214.833 228.967 214.689 228.783 214.401 228.671C214.129 228.543 213.761 228.447 213.297 228.383C212.849 228.319 212.353 228.247 211.809 228.167C211.265 228.087 210.713 227.983 210.153 227.855C209.609 227.711 209.105 227.503 208.641 227.231C208.193 226.943 207.833 226.559 207.561 226.079C207.289 225.599 207.153 224.991 207.153 224.255C207.153 223.423 207.393 222.687 207.873 222.047C208.369 221.391 209.089 220.879 210.033 220.511C210.977 220.127 212.129 219.935 213.489 219.935C214.401 219.935 215.321 220.031 216.249 220.223C217.193 220.399 217.985 220.671 218.625 221.039L217.257 224.135C216.617 223.767 215.977 223.519 215.337 223.391C214.697 223.247 214.089 223.175 213.513 223.175C212.745 223.175 212.201 223.263 211.881 223.439C211.577 223.615 211.425 223.831 211.425 224.087C211.425 224.343 211.561 224.543 211.833 224.687C212.105 224.815 212.465 224.919 212.913 224.999C213.377 225.063 213.881 225.135 214.425 225.215C214.969 225.279 215.513 225.383 216.057 225.527C216.617 225.671 217.121 225.887 217.569 226.175C218.033 226.447 218.401 226.823 218.673 227.303C218.945 227.767 219.081 228.367 219.081 229.103C219.081 229.903 218.833 230.623 218.337 231.263C217.857 231.903 217.137 232.415 216.177 232.799C215.233 233.183 214.057 233.375 212.649 233.375ZM231.102 237.815C230.11 236.375 229.342 234.695 228.798 232.775C228.27 230.839 228.006 228.775 228.006 226.583C228.006 224.391 228.27 222.335 228.798 220.415C229.342 218.479 230.11 216.791 231.102 215.351H235.47C234.43 217.207 233.67 219.047 233.19 220.871C232.71 222.695 232.47 224.599 232.47 226.583C232.47 228.567 232.71 230.471 233.19 232.295C233.67 234.119 234.43 235.959 235.47 237.815H231.102ZM241.858 233.495C240.69 233.495 239.522 233.351 238.354 233.063C237.202 232.775 236.194 232.367 235.33 231.839L237.058 228.263C237.73 228.711 238.474 229.055 239.29 229.295C240.122 229.535 240.93 229.655 241.714 229.655C242.53 229.655 243.178 229.503 243.658 229.199C244.138 228.895 244.378 228.463 244.378 227.903C244.378 227.407 244.178 227.015 243.778 226.727C243.378 226.423 242.722 226.271 241.81 226.271H239.818V223.271L244.33 218.399L244.786 220.031H236.194V216.359H248.338V219.335L243.826 224.207L241.498 222.887H242.794C244.89 222.887 246.474 223.359 247.546 224.303C248.634 225.231 249.178 226.431 249.178 227.903C249.178 228.863 248.914 229.767 248.386 230.615C247.874 231.463 247.082 232.159 246.01 232.703C244.938 233.231 243.554 233.495 241.858 233.495ZM258.551 233.159V216.359H266.495C268.351 216.359 269.983 216.703 271.391 217.391C272.799 218.079 273.895 219.047 274.679 220.295C275.479 221.543 275.879 223.031 275.879 224.759C275.879 226.471 275.479 227.959 274.679 229.223C273.895 230.471 272.799 231.439 271.391 232.127C269.983 232.815 268.351 233.159 266.495 233.159H258.551ZM263.303 229.367H266.303C267.263 229.367 268.095 229.191 268.799 228.839C269.519 228.471 270.079 227.943 270.479 227.255C270.879 226.551 271.079 225.719 271.079 224.759C271.079 223.783 270.879 222.951 270.479 222.263C270.079 221.575 269.519 221.055 268.799 220.703C268.095 220.335 267.263 220.151 266.303 220.151H263.303V229.367ZM286.107 233.159V230.735L285.795 230.135V225.671C285.795 224.951 285.571 224.399 285.123 224.015C284.691 223.615 283.995 223.415 283.035 223.415C282.411 223.415 281.779 223.519 281.139 223.727C280.499 223.919 279.955 224.191 279.507 224.543L277.971 221.447C278.707 220.967 279.587 220.599 280.611 220.343C281.651 220.071 282.683 219.935 283.707 219.935C285.819 219.935 287.451 220.423 288.603 221.399C289.771 222.359 290.355 223.871 290.355 225.935V233.159H286.107ZM282.267 233.375C281.227 233.375 280.347 233.199 279.627 232.847C278.907 232.495 278.355 232.015 277.971 231.407C277.603 230.799 277.419 230.119 277.419 229.367C277.419 228.567 277.619 227.879 278.019 227.303C278.435 226.711 279.067 226.263 279.915 225.959C280.763 225.639 281.859 225.479 283.203 225.479H286.275V227.855H283.827C283.091 227.855 282.571 227.975 282.267 228.215C281.979 228.455 281.835 228.775 281.835 229.175C281.835 229.575 281.987 229.895 282.291 230.135C282.595 230.375 283.011 230.495 283.539 230.495C284.035 230.495 284.483 230.375 284.883 230.135C285.299 229.879 285.603 229.495 285.795 228.983L286.419 230.663C286.179 231.559 285.707 232.239 285.003 232.703C284.315 233.151 283.403 233.375 282.267 233.375ZM295.231 238.031C294.543 238.031 293.847 237.919 293.143 237.695C292.455 237.487 291.895 237.207 291.463 236.855L293.047 233.663C293.319 233.903 293.631 234.087 293.983 234.215C294.351 234.359 294.711 234.431 295.063 234.431C295.559 234.431 295.951 234.319 296.239 234.095C296.527 233.871 296.775 233.519 296.983 233.039L297.583 231.527L297.943 231.071L302.359 220.151H306.703L301.087 233.687C300.639 234.807 300.119 235.679 299.527 236.303C298.951 236.943 298.303 237.391 297.583 237.647C296.879 237.903 296.095 238.031 295.231 238.031ZM297.007 233.711L291.271 220.151H295.951L300.175 230.663L297.007 233.711ZM312.399 233.375C311.295 233.375 310.215 233.247 309.159 232.991C308.119 232.735 307.279 232.415 306.639 232.031L308.007 228.911C308.615 229.279 309.327 229.575 310.143 229.799C310.959 230.007 311.759 230.111 312.543 230.111C313.311 230.111 313.839 230.031 314.127 229.871C314.431 229.711 314.583 229.495 314.583 229.223C314.583 228.967 314.439 228.783 314.151 228.671C313.879 228.543 313.511 228.447 313.047 228.383C312.599 228.319 312.103 228.247 311.559 228.167C311.015 228.087 310.463 227.983 309.903 227.855C309.359 227.711 308.855 227.503 308.391 227.231C307.943 226.943 307.583 226.559 307.311 226.079C307.039 225.599 306.903 224.991 306.903 224.255C306.903 223.423 307.143 222.687 307.623 222.047C308.119 221.391 308.839 220.879 309.783 220.511C310.727 220.127 311.879 219.935 313.239 219.935C314.151 219.935 315.071 220.031 315.999 220.223C316.943 220.399 317.735 220.671 318.375 221.039L317.007 224.135C316.367 223.767 315.727 223.519 315.087 223.391C314.447 223.247 313.839 223.175 313.263 223.175C312.495 223.175 311.951 223.263 311.631 223.439C311.327 223.615 311.175 223.831 311.175 224.087C311.175 224.343 311.311 224.543 311.583 224.687C311.855 224.815 312.215 224.919 312.663 224.999C313.127 225.063 313.631 225.135 314.175 225.215C314.719 225.279 315.263 225.383 315.807 225.527C316.367 225.671 316.871 225.887 317.319 226.175C317.783 226.447 318.151 226.823 318.423 227.303C318.695 227.767 318.831 228.367 318.831 229.103C318.831 229.903 318.583 230.623 318.087 231.263C317.607 231.903 316.887 232.415 315.927 232.799C314.983 233.183 313.807 233.375 312.399 233.375ZM323.652 237.815H319.284C320.34 235.959 321.1 234.119 321.564 232.295C322.044 230.471 322.284 228.567 322.284 226.583C322.284 224.599 322.044 222.695 321.564 220.871C321.1 219.047 320.34 217.207 319.284 215.351H323.652C324.66 216.791 325.428 218.479 325.956 220.415C326.484 222.335 326.748 224.391 326.748 226.583C326.748 228.775 326.484 230.839 325.956 232.775C325.428 234.695 324.66 236.375 323.652 237.815Z" fill="#18191F"/>
  <path d="M28.245 266V255.5H32.79C33.73 255.5 34.54 255.655 35.22 255.965C35.9 256.265 36.425 256.7 36.795 257.27C37.165 257.84 37.35 258.52 37.35 259.31C37.35 260.09 37.165 260.765 36.795 261.335C36.425 261.895 35.9 262.325 35.22 262.625C34.54 262.925 33.73 263.075 32.79 263.075H29.595L30.675 262.01V266H28.245ZM34.92 266L32.295 262.19H34.89L37.545 266H34.92ZM30.675 262.28L29.595 261.14H32.655C33.405 261.14 33.965 260.98 34.335 260.66C34.705 260.33 34.89 259.88 34.89 259.31C34.89 258.73 34.705 258.28 34.335 257.96C33.965 257.64 33.405 257.48 32.655 257.48H29.595L30.675 256.325V262.28ZM41.8253 266.12C41.1353 266.12 40.4703 266.04 39.8303 265.88C39.2003 265.71 38.7003 265.5 38.3303 265.25L39.1103 263.57C39.4803 263.8 39.9153 263.99 40.4153 264.14C40.9253 264.28 41.4253 264.35 41.9153 264.35C42.4553 264.35 42.8353 264.285 43.0553 264.155C43.2853 264.025 43.4003 263.845 43.4003 263.615C43.4003 263.425 43.3103 263.285 43.1303 263.195C42.9603 263.095 42.7303 263.02 42.4403 262.97C42.1503 262.92 41.8303 262.87 41.4803 262.82C41.1403 262.77 40.7953 262.705 40.4453 262.625C40.0953 262.535 39.7753 262.405 39.4853 262.235C39.1953 262.065 38.9603 261.835 38.7803 261.545C38.6103 261.255 38.5253 260.88 38.5253 260.42C38.5253 259.91 38.6703 259.46 38.9603 259.07C39.2603 258.68 39.6903 258.375 40.2503 258.155C40.8103 257.925 41.4803 257.81 42.2603 257.81C42.8103 257.81 43.3703 257.87 43.9403 257.99C44.5103 258.11 44.9853 258.285 45.3653 258.515L44.5853 260.18C44.1953 259.95 43.8003 259.795 43.4003 259.715C43.0103 259.625 42.6303 259.58 42.2603 259.58C41.7403 259.58 41.3603 259.65 41.1203 259.79C40.8803 259.93 40.7603 260.11 40.7603 260.33C40.7603 260.53 40.8453 260.68 41.0153 260.78C41.1953 260.88 41.4303 260.96 41.7203 261.02C42.0103 261.08 42.3253 261.135 42.6653 261.185C43.0153 261.225 43.3653 261.29 43.7153 261.38C44.0653 261.47 44.3803 261.6 44.6603 261.77C44.9503 261.93 45.1853 262.155 45.3653 262.445C45.5453 262.725 45.6353 263.095 45.6353 263.555C45.6353 264.055 45.4853 264.5 45.1853 264.89C44.8853 265.27 44.4503 265.57 43.8803 265.79C43.3203 266.01 42.6353 266.12 41.8253 266.12ZM54.2371 266.18C53.5071 266.18 52.7821 266.085 52.0621 265.895C51.3421 265.695 50.7321 265.415 50.2321 265.055L51.1771 263.195C51.5771 263.485 52.0421 263.715 52.5721 263.885C53.1021 264.055 53.6371 264.14 54.1771 264.14C54.7871 264.14 55.2671 264.02 55.6171 263.78C55.9671 263.54 56.1421 263.21 56.1421 262.79C56.1421 262.39 55.9871 262.075 55.6771 261.845C55.3671 261.615 54.8671 261.5 54.1771 261.5H53.0671V259.895L55.9921 256.58L56.2621 257.45H50.7571V255.5H58.1071V257.075L55.1971 260.39L53.9671 259.685H54.6721C55.9621 259.685 56.9371 259.975 57.5971 260.555C58.2571 261.135 58.5871 261.88 58.5871 262.79C58.5871 263.38 58.4321 263.935 58.1221 264.455C57.8121 264.965 57.3371 265.38 56.6971 265.7C56.0571 266.02 55.2371 266.18 54.2371 266.18ZM64.209 266.18C63.349 266.18 62.579 265.97 61.899 265.55C61.219 265.12 60.684 264.5 60.294 263.69C59.904 262.88 59.709 261.9 59.709 260.75C59.709 259.6 59.904 258.62 60.294 257.81C60.684 257 61.219 256.385 61.899 255.965C62.579 255.535 63.349 255.32 64.209 255.32C65.079 255.32 65.849 255.535 66.519 255.965C67.199 256.385 67.734 257 68.124 257.81C68.514 258.62 68.709 259.6 68.709 260.75C68.709 261.9 68.514 262.88 68.124 263.69C67.734 264.5 67.199 265.12 66.519 265.55C65.849 265.97 65.079 266.18 64.209 266.18ZM64.209 264.125C64.619 264.125 64.974 264.01 65.274 263.78C65.584 263.55 65.824 263.185 65.994 262.685C66.174 262.185 66.264 261.54 66.264 260.75C66.264 259.96 66.174 259.315 65.994 258.815C65.824 258.315 65.584 257.95 65.274 257.72C64.974 257.49 64.619 257.375 64.209 257.375C63.809 257.375 63.454 257.49 63.144 257.72C62.844 257.95 62.604 258.315 62.424 258.815C62.254 259.315 62.169 259.96 62.169 260.75C62.169 261.54 62.254 262.185 62.424 262.685C62.604 263.185 62.844 263.55 63.144 263.78C63.454 264.01 63.809 264.125 64.209 264.125ZM74.3897 266.18C73.5297 266.18 72.7597 265.97 72.0797 265.55C71.3997 265.12 70.8647 264.5 70.4747 263.69C70.0847 262.88 69.8897 261.9 69.8897 260.75C69.8897 259.6 70.0847 258.62 70.4747 257.81C70.8647 257 71.3997 256.385 72.0797 255.965C72.7597 255.535 73.5297 255.32 74.3897 255.32C75.2597 255.32 76.0297 255.535 76.6997 255.965C77.3797 256.385 77.9147 257 78.3047 257.81C78.6947 258.62 78.8897 259.6 78.8897 260.75C78.8897 261.9 78.6947 262.88 78.3047 263.69C77.9147 264.5 77.3797 265.12 76.6997 265.55C76.0297 265.97 75.2597 266.18 74.3897 266.18ZM74.3897 264.125C74.7997 264.125 75.1547 264.01 75.4547 263.78C75.7647 263.55 76.0047 263.185 76.1747 262.685C76.3547 262.185 76.4447 261.54 76.4447 260.75C76.4447 259.96 76.3547 259.315 76.1747 258.815C76.0047 258.315 75.7647 257.95 75.4547 257.72C75.1547 257.49 74.7997 257.375 74.3897 257.375C73.9897 257.375 73.6347 257.49 73.3247 257.72C73.0247 257.95 72.7847 258.315 72.6047 258.815C72.4347 259.315 72.3497 259.96 72.3497 260.75C72.3497 261.54 72.4347 262.185 72.6047 262.685C72.7847 263.185 73.0247 263.55 73.3247 263.78C73.6347 264.01 73.9897 264.125 74.3897 264.125ZM89.5834 266.12C88.9034 266.12 88.3084 265.97 87.7984 265.67C87.2884 265.37 86.8884 264.915 86.5984 264.305C86.3184 263.685 86.1784 262.905 86.1784 261.965C86.1784 261.015 86.3134 260.235 86.5834 259.625C86.8534 259.015 87.2434 258.56 87.7534 258.26C88.2634 257.96 88.8734 257.81 89.5834 257.81C90.3434 257.81 91.0234 257.985 91.6234 258.335C92.2334 258.675 92.7134 259.155 93.0634 259.775C93.4234 260.395 93.6034 261.125 93.6034 261.965C93.6034 262.815 93.4234 263.55 93.0634 264.17C92.7134 264.79 92.2334 265.27 91.6234 265.61C91.0234 265.95 90.3434 266.12 89.5834 266.12ZM84.8134 268.91V257.93H87.0484V259.58L87.0034 261.98L87.1534 264.365V268.91H84.8134ZM89.1784 264.2C89.5684 264.2 89.9134 264.11 90.2134 263.93C90.5234 263.75 90.7684 263.495 90.9484 263.165C91.1384 262.825 91.2334 262.425 91.2334 261.965C91.2334 261.495 91.1384 261.095 90.9484 260.765C90.7684 260.435 90.5234 260.18 90.2134 260C89.9134 259.82 89.5684 259.73 89.1784 259.73C88.7884 259.73 88.4384 259.82 88.1284 260C87.8184 260.18 87.5734 260.435 87.3934 260.765C87.2134 261.095 87.1234 261.495 87.1234 261.965C87.1234 262.425 87.2134 262.825 87.3934 263.165C87.5734 263.495 87.8184 263.75 88.1284 263.93C88.4384 264.11 88.7884 264.2 89.1784 264.2ZM99.1748 266.12C98.2548 266.12 97.4448 265.94 96.7448 265.58C96.0548 265.22 95.5198 264.73 95.1398 264.11C94.7598 263.48 94.5698 262.765 94.5698 261.965C94.5698 261.155 94.7548 260.44 95.1248 259.82C95.5048 259.19 96.0198 258.7 96.6698 258.35C97.3198 257.99 98.0548 257.81 98.8748 257.81C99.6648 257.81 100.375 257.98 101.005 258.32C101.645 258.65 102.15 259.13 102.52 259.76C102.89 260.38 103.075 261.125 103.075 261.995C103.075 262.085 103.07 262.19 103.06 262.31C103.05 262.42 103.04 262.525 103.03 262.625H96.4748V261.26H101.8L100.9 261.665C100.9 261.245 100.815 260.88 100.645 260.57C100.475 260.26 100.24 260.02 99.9398 259.85C99.6398 259.67 99.2898 259.58 98.8898 259.58C98.4898 259.58 98.1348 259.67 97.8248 259.85C97.5248 260.02 97.2898 260.265 97.1198 260.585C96.9498 260.895 96.8648 261.265 96.8648 261.695V262.055C96.8648 262.495 96.9598 262.885 97.1498 263.225C97.3498 263.555 97.6248 263.81 97.9748 263.99C98.3348 264.16 98.7548 264.245 99.2348 264.245C99.6648 264.245 100.04 264.18 100.36 264.05C100.69 263.92 100.99 263.725 101.26 263.465L102.505 264.815C102.135 265.235 101.67 265.56 101.11 265.79C100.55 266.01 99.9048 266.12 99.1748 266.12ZM104.633 266V257.93H106.868V260.21L106.553 259.55C106.793 258.98 107.178 258.55 107.708 258.26C108.238 257.96 108.883 257.81 109.643 257.81V259.97C109.543 259.96 109.453 259.955 109.373 259.955C109.293 259.945 109.208 259.94 109.118 259.94C108.478 259.94 107.958 260.125 107.558 260.495C107.168 260.855 106.973 261.42 106.973 262.19V266H104.633ZM120.246 257.81C120.886 257.81 121.456 257.94 121.956 258.2C122.466 258.45 122.866 258.84 123.156 259.37C123.446 259.89 123.591 260.56 123.591 261.38V266H121.251V261.74C121.251 261.09 121.106 260.61 120.816 260.3C120.536 259.99 120.136 259.835 119.616 259.835C119.246 259.835 118.911 259.915 118.611 260.075C118.321 260.225 118.091 260.46 117.921 260.78C117.761 261.1 117.681 261.51 117.681 262.01V266H115.341V254.87H117.681V260.165L117.156 259.49C117.446 258.95 117.861 258.535 118.401 258.245C118.941 257.955 119.556 257.81 120.246 257.81ZM129.775 266.12C128.855 266.12 128.045 265.94 127.345 265.58C126.655 265.22 126.12 264.73 125.74 264.11C125.36 263.48 125.17 262.765 125.17 261.965C125.17 261.155 125.355 260.44 125.725 259.82C126.105 259.19 126.62 258.7 127.27 258.35C127.92 257.99 128.655 257.81 129.475 257.81C130.265 257.81 130.975 257.98 131.605 258.32C132.245 258.65 132.75 259.13 133.12 259.76C133.49 260.38 133.675 261.125 133.675 261.995C133.675 262.085 133.67 262.19 133.66 262.31C133.65 262.42 133.64 262.525 133.63 262.625H127.075V261.26H132.4L131.5 261.665C131.5 261.245 131.415 260.88 131.245 260.57C131.075 260.26 130.84 260.02 130.54 259.85C130.24 259.67 129.89 259.58 129.49 259.58C129.09 259.58 128.735 259.67 128.425 259.85C128.125 260.02 127.89 260.265 127.72 260.585C127.55 260.895 127.465 261.265 127.465 261.695V262.055C127.465 262.495 127.56 262.885 127.75 263.225C127.95 263.555 128.225 263.81 128.575 263.99C128.935 264.16 129.355 264.245 129.835 264.245C130.265 264.245 130.64 264.18 130.96 264.05C131.29 263.92 131.59 263.725 131.86 263.465L133.105 264.815C132.735 265.235 132.27 265.56 131.71 265.79C131.15 266.01 130.505 266.12 129.775 266.12ZM139.964 266V264.425L139.814 264.08V261.26C139.814 260.76 139.659 260.37 139.349 260.09C139.049 259.81 138.584 259.67 137.954 259.67C137.524 259.67 137.099 259.74 136.679 259.88C136.269 260.01 135.919 260.19 135.629 260.42L134.789 258.785C135.229 258.475 135.759 258.235 136.379 258.065C136.999 257.895 137.629 257.81 138.269 257.81C139.499 257.81 140.454 258.1 141.134 258.68C141.814 259.26 142.154 260.165 142.154 261.395V266H139.964ZM137.504 266.12C136.874 266.12 136.334 266.015 135.884 265.805C135.434 265.585 135.089 265.29 134.849 264.92C134.609 264.55 134.489 264.135 134.489 263.675C134.489 263.195 134.604 262.775 134.834 262.415C135.074 262.055 135.449 261.775 135.959 261.575C136.469 261.365 137.134 261.26 137.954 261.26H140.099V262.625H138.209C137.659 262.625 137.279 262.715 137.069 262.895C136.869 263.075 136.769 263.3 136.769 263.57C136.769 263.87 136.884 264.11 137.114 264.29C137.354 264.46 137.679 264.545 138.089 264.545C138.479 264.545 138.829 264.455 139.139 264.275C139.449 264.085 139.674 263.81 139.814 263.45L140.174 264.53C140.004 265.05 139.694 265.445 139.244 265.715C138.794 265.985 138.214 266.12 137.504 266.12ZM147.795 266.12C147.035 266.12 146.35 265.95 145.74 265.61C145.13 265.26 144.645 264.775 144.285 264.155C143.935 263.535 143.76 262.805 143.76 261.965C143.76 261.115 143.935 260.38 144.285 259.76C144.645 259.14 145.13 258.66 145.74 258.32C146.35 257.98 147.035 257.81 147.795 257.81C148.475 257.81 149.07 257.96 149.58 258.26C150.09 258.56 150.485 259.015 150.765 259.625C151.045 260.235 151.185 261.015 151.185 261.965C151.185 262.905 151.05 263.685 150.78 264.305C150.51 264.915 150.12 265.37 149.61 265.67C149.11 265.97 148.505 266.12 147.795 266.12ZM148.2 264.2C148.58 264.2 148.925 264.11 149.235 263.93C149.545 263.75 149.79 263.495 149.97 263.165C150.16 262.825 150.255 262.425 150.255 261.965C150.255 261.495 150.16 261.095 149.97 260.765C149.79 260.435 149.545 260.18 149.235 260C148.925 259.82 148.58 259.73 148.2 259.73C147.81 259.73 147.46 259.82 147.15 260C146.84 260.18 146.59 260.435 146.4 260.765C146.22 261.095 146.13 261.495 146.13 261.965C146.13 262.425 146.22 262.825 146.4 263.165C146.59 263.495 146.84 263.75 147.15 263.93C147.46 264.11 147.81 264.2 148.2 264.2ZM150.315 266V264.35L150.36 261.95L150.21 259.565V254.87H152.55V266H150.315Z" fill="black"/>
  <path fill-rule="evenodd" clip-rule="evenodd" d="M309.364 128.307C308.133 127.869 306.947 127.363 305.866 126.618C302.75 124.302 300.719 120.816 298.799 117.514C296.096 112.711 294.169 107.592 292.838 102.253C292.266 99.9589 292.071 97.2991 290.772 95.2653C287.825 91.0067 279.184 91.5585 274.596 92.306C271.523 92.849 270.888 96.2833 270.19 98.8246C269.609 100.936 269.229 103.072 268.909 105.236C268.15 105.735 267.292 106.14 266.475 106.493C257.566 109.221 256 114.279 252.597 122.093C246.85 133.449 231.256 137.896 228.9 151.336C227.382 160.209 231.698 168.557 236.148 175.934C240.292 183.991 246.077 187.858 255.291 185.955C263.932 184.018 272.238 180.78 280.727 178.277C284.839 177.267 288.944 174.641 293.27 175.556C302.182 177.556 311.339 178.495 320.473 178.236C333.297 178.754 333.295 166.461 331.978 156.941C331.057 142.126 323.575 132.613 309.364 128.307Z" fill="#FFDDC4"/>
  <path fill-rule="evenodd" clip-rule="evenodd" d="M310.221 149.745C311.293 150.452 312.194 151.526 312.918 152.655C309.897 152.341 306.882 151.979 303.873 151.567C304.267 151.316 304.665 151.07 305.071 150.838C306.555 150.003 308.565 148.651 310.221 149.745ZM260.038 158.662C259.485 158.446 259.271 157.603 259.055 157.12C258.379 155.605 257.762 154.064 257.119 152.534C259.558 151.84 261.929 151.07 264.455 150.7C267.17 150.302 269.926 150.206 272.667 150.295C278.219 150.476 283.72 151.383 289.178 152.354C294.63 153.325 300.082 154.257 305.572 154.989C310.951 155.706 316.347 156.231 321.753 156.692C322.803 156.781 324.555 157.158 325.399 156.333C326.068 155.679 326.09 154.473 325.253 153.942C324.732 153.61 323.976 153.605 323.381 153.529C322.631 153.433 321.878 153.369 321.123 153.319C320.816 153.298 320.508 153.28 320.201 153.261C322.669 152.331 325.247 151.824 327.923 151.966C328.075 152.884 328.757 153.829 329.13 154.586C329.781 155.908 330.289 157.246 330.623 158.684C331.32 161.689 331.35 164.807 331.153 167.872C330.973 170.427 330.584 173.254 328.577 175.064C327.058 176.434 324.914 176.941 322.925 177.101C320.614 177.286 318.266 177.088 315.974 176.779C312.759 176.345 309.53 175.77 306.378 175.001C300.274 173.511 294.423 171.139 289.024 167.925C286.392 166.357 283.88 164.593 281.211 163.085C278.492 161.548 275.598 160.356 272.56 159.615C269.16 158.787 265.606 158.433 262.111 158.638C261.504 158.673 260.628 158.893 260.038 158.662ZM256.098 157.124C256.455 158.282 256.729 159.604 257.492 160.577C258.247 161.541 259.387 161.882 260.567 161.967C261.991 162.071 263.431 162.005 264.857 162.057C267.783 162.166 270.669 162.641 273.466 163.511C276.073 164.323 278.493 165.589 280.823 166.993C282.979 168.291 285.071 169.686 287.227 170.98C286.653 171.243 286.086 171.527 285.515 171.775C284.319 172.294 283.115 172.794 281.906 173.282C279.521 174.245 277.127 175.184 274.708 176.057C269.83 177.816 264.872 179.353 259.854 180.663C257.461 181.287 255.033 182.016 252.547 182.12C250.342 182.212 248.3 181.59 246.522 180.281C242.834 177.565 239.9 173.646 237.528 169.779C236.119 167.482 234.889 165.069 233.872 162.574C233.358 161.312 232.891 160.03 232.471 158.734C232.274 158.125 232.087 157.513 231.911 156.898C231.833 156.628 231.758 156.357 231.684 156.085C235.455 154.936 239.271 153.898 243.177 153.322C245.262 153.015 247.375 152.859 249.483 152.882C250.53 152.893 251.575 152.949 252.616 153.057C253.176 153.115 253.734 153.19 254.29 153.282C254.52 153.321 254.756 153.377 254.992 153.418C255.354 154.656 255.718 155.892 256.098 157.124ZM334.053 152.204C334.256 151.794 334.342 151.39 334.415 150.943C334.47 150.602 334.618 150.122 334.489 149.679C334.344 149.183 333.95 148.739 333.668 148.317C333.355 147.849 333.043 147.381 332.732 146.913C332.109 145.978 331.487 145.041 330.866 144.104C328.331 140.276 325.813 136.437 323.292 132.601C321.054 129.196 318.854 125.761 316.548 122.403C314.576 119.53 312.427 116.706 309.728 114.472C306.315 111.648 302.251 110.317 298.007 109.279C297.543 108.799 296.924 108.536 296.262 108.589C295.327 107.53 294.584 106.79 294.247 105.443C294.086 104.798 294.136 102.985 293.507 102.603C292.76 102.15 292.37 102.75 292.163 103.427C291.474 105.69 292.265 108.733 294.087 111C293.319 113.649 292.302 117.413 290.487 119.535C288.544 121.807 285.856 122.514 282.957 122.561C277.427 122.65 271.903 120.597 267.685 117.04C266.403 115.958 265.212 114.751 264.135 113.467C263.327 112.503 262.371 111.016 261.739 109.892C261.739 109.454 261.221 108.996 266.492 108.642C271.764 108.288 272.163 101.079 272.281 100.098C272.376 99.3017 272.781 98.0651 272.219 97.4155C271.98 97.1396 271.491 97.0952 271.188 97.2826C270.618 97.6363 270.431 98.5409 270.251 99.155C270 100.016 269.179 105.356 267.624 105.974C266.895 106.264 266.06 106.269 265.29 106.323C264.338 106.389 263.385 106.437 262.437 106.548C262.088 106.589 261.706 106.702 261.362 106.705C261.137 106.707 260.906 106.598 260.689 106.522C259.957 106.264 259.226 106.457 258.472 106.559C251.806 107.453 244.942 109.495 239.256 113.17C234.244 116.409 230.713 121.067 228.383 126.512C226.006 132.07 224.644 138.08 223.502 143.996C223.119 145.978 222.785 147.97 222.498 149.968C222.221 151.899 221.874 153.873 221.791 155.824C221.758 156.596 221.943 157.312 222.227 158.017C222.547 158.811 223.303 159.124 224.029 159.494C225.621 160.308 227.301 160.939 229.032 161.386C230.09 163.307 230.98 165.303 231.695 167.375C231.429 167.9 231.424 168.684 231.373 169.195C231.246 170.465 231.192 171.743 231.181 173.019C231.158 175.578 231.312 178.134 231.433 180.688C231.555 183.279 231.962 193.502 232.029 194.75C232.08 195.72 232.011 197.077 232.522 197.938C233.308 199.261 235.248 199.216 236.147 198.143C258.472 202.937 300.437 201.493 317.338 199.081C319.537 198.768 318.847 199.116 319.406 198.561C319.826 198.144 320.183 197.43 320.299 196.857C320.454 196.091 320.204 195.399 319.765 194.779C319.303 194.128 319.219 193.074 319.048 192.299C318.643 190.469 318.441 182.43 318.252 181.539C318.193 181.262 318.136 180.968 318.067 180.675C321.167 180.968 324.398 180.968 327.347 179.932C329.02 179.345 330.58 178.423 331.78 177.105C333.234 175.511 334.043 173.503 334.459 171.407C334.996 168.705 335.11 165.906 335.004 163.158C334.858 159.912 334.318 156.619 332.98 153.638C333.421 153.23 333.79 152.737 334.053 152.204Z" fill="black"/>
  <path fill-rule="evenodd" clip-rule="evenodd" d="M284.533 47.3671C305.82 48.0417 307.103 58.1615 307.103 75.1329C307.103 92.1043 296.061 102.799 291.995 104.666C287.929 106.534 277.223 114.555 267.561 110.858C257.899 107.162 260.697 91.5455 260.697 84.8355C260.697 78.1256 263.247 46.6926 284.533 47.3671Z" fill="#FFDDC4"/>
  <path fill-rule="evenodd" clip-rule="evenodd" d="M263.959 74.3004C268.36 56.3376 276.395 47.5737 288.063 48.0086C305.565 48.6609 305.381 66.5158 304.283 64.8878C303.565 63.8242 298.543 60.1086 289.215 53.741L288.638 53.3479L263.959 74.3004Z" fill="#9FD8E5"/>
  <path fill-rule="evenodd" clip-rule="evenodd" d="M293.168 99.0922C289.259 101.276 284.783 101.361 280.579 99.9868C278.057 99.1645 275.745 97.8932 273.581 96.3729C271.698 95.0494 270.018 93.5815 268.354 92.0229C266.983 88.9981 265.763 85.9787 265.191 82.6876C264.679 79.7334 264.612 76.666 265.206 73.7175C269.598 70.1008 273.964 66.4544 278.324 62.7968C280.545 60.9339 282.771 59.0811 285.024 57.2577C286.168 56.332 287.301 55.3921 288.441 54.4621C288.629 54.3092 288.815 54.1563 289.004 54.0034C291.357 55.7276 293.88 57.2055 296.216 58.9578C297.439 59.8765 298.629 60.8546 299.762 61.8835C300.356 62.423 300.936 62.9793 301.501 63.5497C302.019 64.0708 302.518 64.8181 303.252 65.015C303.353 65.0417 303.447 65.0474 303.536 65.0346C304.518 73.6354 305.215 82.9226 301.01 90.7335C299.176 94.1407 296.575 97.1869 293.168 99.0922ZM267.739 102.253C267.2 101.76 268.003 100.961 268.539 101.452C271.905 104.539 276.307 106.175 280.753 106.932C281.47 107.055 281.164 108.146 280.452 108.024C275.81 107.234 271.248 105.471 267.739 102.253ZM263.699 106.989C263.056 106.644 263.628 105.667 264.27 106.011C266.893 107.419 269.77 108.151 272.688 108.645C273.406 108.766 273.099 109.857 272.387 109.737C269.37 109.226 266.409 108.444 263.699 106.989ZM274.374 59.2821C276.551 57.3271 278.89 55.467 281.361 53.8973C283.861 52.3091 286.592 51.3592 289.544 51.3366C289.337 51.5022 289.141 51.6862 288.941 51.8574C288.384 52.3345 287.828 52.8144 287.272 53.2929C286.161 54.2512 285.046 55.2079 283.949 56.1819C281.788 58.1014 279.62 60.0109 277.463 61.9346C273.318 65.632 269.262 69.4099 265.293 73.2971C265.315 73.2022 265.337 73.1074 265.36 73.0127C266.674 67.5203 270.247 62.9892 274.374 59.2821ZM291.436 51.5758C291.45 51.5334 291.46 51.4922 291.466 51.4527C297.13 52.1916 301.861 56.363 303.425 61.8554C303.289 62.045 303.214 62.2701 303.242 62.5092C303.256 62.6297 303.27 62.7514 303.285 62.8717C303.091 62.6793 302.891 62.4994 302.722 62.3281C302.157 61.7563 301.579 61.1998 300.985 60.6577C299.77 59.5495 298.509 58.5133 297.179 57.5465C294.867 55.8649 292.364 54.3191 289.607 53.5123C289.788 53.3636 289.969 53.215 290.152 53.0678C290.696 52.6246 291.201 52.2595 291.436 51.5758ZM301.59 45.7028C298.113 41.8993 293.297 39.1135 288.226 38.1453C283.383 37.2196 278.37 37.8297 273.795 39.6288C264.221 43.3941 256.668 51.6736 253.131 61.2679C251.069 66.8578 250.393 72.9856 251.012 78.9025C251.629 84.7924 253.401 90.875 256.625 95.886C256.921 96.3448 257.245 96.7849 257.584 97.2109C257.433 98.9407 256.856 100.636 255.948 102.111C255.899 102.19 255.848 102.268 255.797 102.346C254.867 103.043 253.903 103.697 252.961 104.372C252.145 104.957 251.338 105.557 250.57 106.204C249.846 106.816 249.005 107.497 248.515 108.323C248.113 108.999 247.949 109.918 248.497 110.563C249.158 111.34 250.278 111.066 251.173 111.066C251.25 111.066 251.326 111.068 251.403 111.069C251.672 111.238 251.949 111.391 252.217 111.533C254.928 112.971 257.649 114.394 260.373 115.81C265.798 118.631 271.201 121.565 276.737 124.163C279.303 125.367 282.05 126.42 284.923 126.416C287.619 126.412 290.056 125.34 292.16 123.711C294.559 121.855 296.564 119.498 298.51 117.188C299.288 116.264 300.05 115.328 300.798 114.38C302.235 113.9 303.661 113.76 304.942 114.686C305.97 115.429 307.325 114.418 307.349 113.302C307.358 112.906 307.341 112.516 307.298 112.131C307.041 109.752 305.878 107.601 304.569 105.605C303.853 104.514 303.099 103.442 302.341 102.38C302.163 102.13 301.988 101.879 301.818 101.624C304.863 97.1373 307.278 92.1618 308.763 86.9624C310.324 81.4915 310.854 75.8181 310.506 70.1489C309.971 61.4604 307.59 52.2652 301.59 45.7028Z" fill="black"/>
  <path fill-rule="evenodd" clip-rule="evenodd" d="M291.031 92.9119C290.078 92.5237 289.228 91.8762 288.607 91.0491C288.391 90.7615 288.335 90.4578 288.38 90.1801C288.431 89.8678 288.616 89.5848 288.868 89.3949C289.121 89.2045 289.438 89.1106 289.744 89.1585C290.01 89.2001 290.275 89.3455 290.484 89.6471L290.528 89.7074C290.897 90.2066 291.379 90.6163 291.927 90.8803C292.456 91.1348 293.048 91.2535 293.66 91.1845C294.825 91.053 295.628 90.4234 296.482 89.5685C296.588 89.4605 296.694 89.3492 296.8 89.2361C296.868 89.1336 296.961 89.0677 297.064 89.0331C297.179 88.9947 297.309 88.9969 297.429 89.0384C297.543 89.0785 297.646 89.1543 297.715 89.2553C297.781 89.3513 297.818 89.4699 297.806 89.6063C297.727 90.4923 297.264 91.2831 296.605 91.9039C295.873 92.5935 294.903 93.0705 293.99 93.2379C292.984 93.4222 291.959 93.2901 291.031 92.9119ZM294.465 79.2437C295.535 79.8934 297.166 81.4085 296.014 83.0193C294.659 84.4395 292.708 82.8111 291.747 82.0746C290.855 81.5038 289.853 82.9718 290.68 83.6383C297.628 88.776 300.448 79.4136 295.006 78.4798C294.407 78.3769 294.184 79.0427 294.465 79.2437ZM282.014 73.2673C282.132 71.8013 284.368 71.4684 284.59 72.919C284.789 74.2185 284.555 75.4122 283.969 76.5821C283.409 77.6998 282.001 77.1784 281.895 76.1606C281.752 74.7963 281.941 74.1792 282.014 73.2673ZM299.03 72.6183C299.342 72.2106 299.792 71.9323 300.331 72.0896C302.015 72.5812 301.519 74.9696 300.927 76.1321C300.606 76.7635 299.567 76.9236 299.097 76.3677C298.332 75.4612 297.966 73.6509 298.939 72.758C298.965 72.7118 298.994 72.6652 299.03 72.6183ZM283.945 66.8527L284.211 66.8062C285.034 66.664 286.058 66.5274 286.64 67.1883C286.949 67.5388 287.055 68.1902 286.64 68.5257C285.91 69.116 285.103 68.8872 284.228 68.9372C283.506 68.9785 282.813 69.0977 282.119 69.296C280.595 69.731 279.353 70.5251 278.052 71.3971C277.881 71.5115 277.707 71.2933 277.788 71.1338C278.54 69.6641 279.995 68.4567 281.454 67.7208C282.232 67.328 283.084 67.0022 283.945 66.8527ZM297.495 66.1943L297.698 66.2359C299.915 66.6986 302.794 67.6228 303.843 69.797C303.883 70.1045 303.841 70.1703 303.807 70.2134L303.795 70.2277C303.767 70.2645 303.744 70.3152 303.611 70.357C303.574 70.3482 303.537 70.3389 303.499 70.329C303.018 70.203 302.637 70.0296 302.269 69.8496L301.869 69.653C301.406 69.426 300.938 69.2073 300.442 69.0458C299.385 68.7013 298.297 68.4586 297.192 68.329C296.953 68.3009 296.722 68.2202 296.541 68.0819C296.368 67.9506 296.236 67.7688 296.176 67.5272C296.098 67.2145 296.12 66.9777 296.288 66.6956C296.415 66.4838 296.595 66.3369 296.803 66.2526C297.014 66.1667 297.255 66.1464 297.495 66.1943Z" fill="black"/>
  <path fill-rule="evenodd" clip-rule="evenodd" d="M307.149 80.1064C305.428 81.8822 302.556 82.3918 300.267 81.4394C294.388 78.9865 297.265 71.3356 301.799 69.2809C302.365 69.14 303.122 68.8055 303.811 68.7296C303.874 68.699 304.009 68.7875 304.174 68.7038C309.173 69.2613 310.311 77.0115 307.149 80.1064ZM288.189 80.561C286.259 83.1176 282.671 83.9063 279.74 82.7178C273.949 80.4399 276.003 73.6555 279.965 70.9957C288.335 67.8545 291.791 75.8471 288.189 80.561ZM275.635 74.8963C275.63 74.8938 275.624 74.8925 275.619 74.89C275.65 74.8765 275.68 74.8631 275.711 74.8493C275.701 74.8752 275.69 74.9009 275.68 74.9268C275.665 74.9164 275.652 74.9044 275.635 74.8963ZM311.133 72.1328C310.661 72.1338 309.978 72.2114 309.587 72.5388C308.622 69.2897 305.062 66.2827 301.966 68.4754C299.527 69.2586 297.718 70.9956 296.689 73.3048C294.835 72.2033 291.92 72.6737 290.312 74.1304C289.259 70.6551 286.667 69.4382 283.582 69.2586C280.216 68.7078 276.86 71.9735 275.813 74.5934C274.942 74.4945 273.641 74.2177 272.822 74.7543C267.507 73.362 258.213 72.5944 257.132 73.368C256.362 73.6631 255.94 75.4787 257.015 75.5766C257.953 75.4437 256.906 74.2463 257.851 74.1157C262.885 73.804 267.773 74.8166 272.754 75.2416C273.199 75.8391 274.636 76.0389 275.402 75.7989C274.195 80.243 276.801 83.2666 280.706 84.1723C286.753 85.5596 292.014 80.1568 290.433 74.5372C292.265 73.627 294.372 73.6661 296.367 74.1455C293.033 86.4026 312.797 85.8526 309.711 72.9588C311.765 73.9793 312.211 72.3388 311.133 72.1328Z" fill="black"/>
  <path fill-rule="evenodd" clip-rule="evenodd" d="M222.858 129.702C220.878 120.393 213.858 113.17 204.417 109.571C202.602 108.552 200.842 104.18 198.403 103.38C198.012 103.251 198.63 104.273 198.403 104.334C197.597 104.551 196.693 104.574 195.802 103.788C194.211 102.384 193.711 98.2814 192.743 96.4272C187.639 86.6479 174.896 90.4742 173.189 101.285C171.998 102.055 170.315 102.734 169.02 103.354C167.685 103.993 166.512 105.541 165.136 106.095C163.91 106.588 161.888 106.239 160.652 106.669C154.965 108.649 150.149 111.147 146.373 116.209C145.578 117.277 144.681 118.589 143.957 119.668C140.224 123.933 137.632 128.713 135.244 133.842C128.564 148.896 126.746 165.565 125.116 181.785C125.153 184.623 123.256 192.492 126.062 193.853C125.894 194.025 125.955 194.372 126.266 194.369C133.381 194.298 140.48 194.93 147.484 196.159C150.864 196.752 154.226 197.565 157.668 197.698C164.814 197.649 171.935 196.461 179.071 197.585C187.651 197.585 198.078 197.337 207.622 196.973C216.542 196.633 225.511 197.401 234.32 195.896C235.018 195.786 235.358 194.942 235.212 194.337C234.178 190.599 233.671 186.751 233.091 182.925C233.207 180.47 233 177.908 232.085 175.622C229.695 160.191 226.631 144.859 222.858 129.702Z" fill="#FFDDC4"/>
  <path fill-rule="evenodd" clip-rule="evenodd" d="M198.403 104.391C198.63 104.33 198.012 103.309 198.403 103.437C200.842 104.238 202.602 108.61 204.417 109.628C213.858 113.227 220.878 120.45 222.858 129.759C226.631 144.917 229.695 160.248 232.085 175.68C233 177.965 233.207 180.528 233.091 182.982L233.182 183.586C233.726 187.213 234.233 190.853 235.212 194.394C235.358 194.999 235.018 195.843 234.32 195.953C225.611 197.442 216.746 196.707 207.926 197.019L206.088 197.088C196.971 197.42 187.193 197.643 179.071 197.643C171.935 196.518 164.814 197.707 157.668 197.755C154.226 197.622 150.864 196.809 147.484 196.216C140.48 194.987 133.381 194.355 126.266 194.426C125.955 194.429 125.894 194.083 126.062 193.91C123.256 192.549 125.153 184.68 125.116 181.842L125.264 180.381C126.86 164.623 128.764 148.502 135.244 133.899L135.438 133.484C137.773 128.513 140.325 123.875 143.957 119.725L144.179 119.395C144.859 118.386 145.657 117.227 146.373 116.266C150.149 111.205 154.965 108.706 160.652 106.726C161.888 106.296 163.91 106.646 165.136 106.152C166.423 105.634 167.532 104.247 168.762 103.546L168.762 108.77L186.56 126.172L196.654 110.808L197.68 104.516C197.928 104.501 198.17 104.454 198.403 104.391Z" fill="#DF8F9D"/>
  <path fill-rule="evenodd" clip-rule="evenodd" d="M219.979 149.986C219.791 150.893 219.527 151.801 219.176 152.66C218.838 153.49 218.329 154.233 217.979 155.052C217.932 155.163 217.855 155.246 217.762 155.31L217.791 155.533L217.817 155.756C217.992 157.26 218.189 158.761 218.359 160.265L218.442 161.017C218.777 164.158 219.306 167.284 219.717 170.416C220.119 173.484 220.528 176.551 220.966 179.614C221.418 182.772 221.879 185.926 222.416 189.072C222.643 190.4 222.88 191.727 223.127 193.053L223.318 194.068C225.28 194.537 225.816 197.252 223.818 198.254C222.911 198.707 221.746 198.598 220.999 197.886C220.222 197.144 220.19 195.806 220.01 194.802L219.836 193.868C218.537 186.846 217.409 179.744 216.882 172.623C216.746 170.785 216.632 168.944 216.558 167.103C216.488 165.37 216.521 163.638 216.494 161.906L216.485 161.433C216.444 159.586 216.478 157.742 216.527 155.894C216.532 155.669 216.542 155.444 216.554 155.218C216.488 155.141 216.441 155.051 216.421 154.963L216.396 154.847C216.331 154.548 216.404 154.199 216.635 153.985C216.735 152.727 216.866 151.47 216.902 150.213C216.905 150.109 217.054 150.112 217.063 150.213C217.147 151.283 217.315 152.356 217.484 153.427C218.566 152.564 219.366 151.14 219.838 149.948C219.872 149.862 219.999 149.893 219.979 149.986ZM194.37 99.9585C194.55 100.774 194.905 101.506 195.381 102.187C195.608 102.512 195.866 102.815 196.175 103.069C196.441 103.285 196.743 103.427 197.025 103.615C197.436 103.551 197.865 103.706 198.153 104.006L198.108 103.567C198.094 103.425 198.33 103.397 198.357 103.534C199.605 109.78 200.743 116.029 201.728 122.32L202.16 125.098L202.566 127.706C203.24 132.052 203.893 136.396 204.384 140.774C205.039 146.616 205.589 152.473 205.991 158.339C206.395 164.246 206.643 170.157 206.82 176.076C206.864 177.568 206.911 179.058 206.956 180.55L207.261 178.766C207.565 176.982 207.863 175.197 208.119 173.405C209.036 166.991 209.769 160.532 210.127 154.063C210.455 148.143 210.345 142.106 208.828 136.339C208.445 134.888 207.978 133.46 207.413 132.068C206.865 130.715 206.118 129.461 205.529 128.128C204.844 126.576 204.639 125.113 204.991 123.442C205.3 121.987 205.84 120.618 205.937 119.121C206.118 116.341 205.207 113.648 203.919 111.215C203.58 110.574 203.222 109.941 202.848 109.314C201.717 107.418 200.442 105.592 199.119 103.841C199.048 103.748 199.199 103.645 199.276 103.721C200.482 104.905 201.801 106.068 202.887 107.36C203.414 107.989 203.929 108.63 204.417 109.288C209.767 110.176 214.365 113.484 217.508 117.852C221.074 122.809 222.878 128.776 224.213 134.652C225.698 141.182 226.95 147.771 228.283 154.333C229.664 161.124 231.037 167.914 232.426 174.703C233.116 178.073 233.806 181.443 234.495 184.815C234.844 186.522 235.211 188.225 235.595 189.927C235.791 190.799 236.003 191.669 236.185 192.544C236.39 193.531 236.199 194.162 235.526 194.887C235.278 195.156 234.886 195.151 234.578 195.008L234.481 194.963L234.388 194.919C234.007 194.733 233.708 194.54 233.471 194.126C233.21 193.672 233.169 193.168 233.079 192.663C232.914 191.733 232.75 190.803 232.584 189.871C232.337 188.479 232.068 187.09 231.795 185.701L230.422 178.762C230.056 176.911 229.69 175.061 229.321 173.212C228.005 166.599 226.687 159.987 225.37 153.375C224.105 147.026 222.985 140.634 221.545 134.322L221.463 133.966L221.38 133.611C220.092 128.17 218.293 122.906 215.028 118.295C212.515 114.749 209.026 111.583 204.916 109.98C205.205 110.394 205.483 110.816 205.749 111.246C207.414 113.947 208.631 117.153 208.345 120.369C208.206 121.94 207.604 123.485 207.661 125.069C207.714 126.476 208.591 127.711 209.197 128.936C210.573 131.71 211.568 134.659 212.21 137.684C213.498 143.758 213.494 150.007 213.05 156.173C212.568 162.876 211.653 169.577 210.61 176.214C210.075 179.619 209.364 182.995 208.819 186.393C208.55 188.069 208.183 189.741 207.862 191.409L207.709 192.205C207.623 192.647 207.535 193.088 207.432 193.524L207.369 193.785V193.832C207.366 194.153 207.277 194.419 207.135 194.632C206.939 195.253 206.697 195.859 206.375 196.441C206.209 196.738 205.97 196.905 205.709 196.966C205.446 197.562 204.852 198.02 204.142 198.018L194.802 197.982C189.377 197.961 183.953 197.926 178.528 197.896C177.159 197.889 175.792 197.863 174.424 197.828C173.142 197.793 171.913 197.64 170.645 197.481C169.213 197.303 168.437 196.296 168.651 194.877C168.698 194.564 168.75 194.252 168.798 193.941C168.513 194.034 168.174 193.991 167.944 193.768L167.729 193.559C167.43 193.266 167.163 192.979 166.974 192.588C166.779 192.186 166.62 191.761 166.448 191.351C166.076 190.467 165.714 189.581 165.361 188.691C164.655 186.91 163.95 185.122 163.293 183.323C161.994 179.76 160.845 176.144 159.845 172.486C158.063 165.96 156.774 159.309 155.961 152.598L155.766 150.998L155.71 150.526C155.402 147.925 155.142 145.283 155.265 142.688C155.34 141.063 155.594 139.425 156.206 137.907C156.771 136.508 157.642 135.31 158.471 134.059L158.565 133.914L158.661 133.766C159.385 132.63 159.962 131.441 159.991 130.061C160.02 128.661 159.609 127.297 159.149 125.986L159.035 125.663L158.958 125.449C157.98 122.739 156.867 120.067 157.234 117.118C157.776 112.775 160.429 109.274 163.766 106.575C160.798 107.158 157.86 108.31 155.268 109.771C152.206 111.498 149.449 113.777 147.072 116.349C142.58 121.21 139.373 127.042 136.748 133.064C133.999 139.365 131.962 145.969 130.426 152.659C128.881 159.387 127.848 166.222 127.142 173.085C126.789 176.5 126.513 179.924 126.283 183.35C126.166 185.105 126.078 186.863 125.941 188.616C125.804 190.367 125.743 192.145 125.312 193.849C125.111 194.643 123.755 194.724 123.609 193.849C123.287 191.895 123.377 189.875 123.467 187.897L123.475 187.717C123.564 185.747 123.679 183.778 123.816 181.809C124.096 177.784 124.469 173.766 124.957 169.76C126.667 155.698 129.82 141.71 136.005 128.874C138.917 122.828 142.654 116.953 147.854 112.588C150.329 110.511 153.12 108.854 156.128 107.653C158.817 106.579 161.55 106.071 164.407 106.072C165.841 104.982 167.379 104.033 168.916 103.221C169.009 103.172 169.106 103.291 169.029 103.367C168.989 103.405 168.951 103.445 168.911 103.482C169.085 103.493 169.264 103.574 169.426 103.742C169.99 104.33 170.467 105.064 170.893 105.827C171.542 106.631 172.161 107.462 172.808 108.258C173.845 109.532 174.906 110.787 175.98 112.033C177.783 114.126 179.646 116.18 181.588 118.151L181.912 118.479C182.919 119.491 183.939 120.703 185.129 121.504L185.193 121.546C185.695 121.871 186.051 121.93 186.48 121.445C186.869 121.003 187.193 120.491 187.527 120.004L187.604 119.892C189.305 117.439 190.882 114.895 192.31 112.277C192.96 111.085 193.579 109.876 194.166 108.653L194.342 108.286C194.661 107.612 195.008 106.951 195.271 106.258C195.333 106.095 195.393 105.932 195.451 105.771C194.553 105.186 193.857 103.921 193.604 102.93C193.342 101.901 193.475 100.845 193.942 99.9035C194.031 99.7265 194.327 99.7703 194.37 99.9585ZM150.05 141.777C149.926 145.69 149.85 149.607 149.665 153.516L149.601 154.851C149.89 155.171 150.06 155.541 149.924 156.047C149.872 156.241 149.716 156.417 149.522 156.482L149.462 157.723C149.186 163.307 148.864 168.878 148.274 174.448C147.537 181.418 146.684 188.376 145.833 195.334C145.712 196.319 145.021 197.1 143.948 196.956C142.861 196.81 142.42 195.872 142.563 194.894C143.123 191.056 143.662 187.216 144.135 183.366L144.672 178.979C145.346 173.496 146.036 168.013 146.831 162.547C147.164 160.263 147.509 157.98 147.855 155.696L147.734 155.541C147.239 154.902 146.727 154.278 146.221 153.65C145.248 152.438 144.289 151.236 143.397 149.968C143.353 149.904 143.443 149.811 143.507 149.859C144.756 150.775 145.939 151.754 147.128 152.749L148.169 153.624C148.768 149.679 149.361 145.732 149.89 141.777C149.903 141.678 150.053 141.671 150.05 141.777ZM168.02 104.334C167.268 105.037 166.499 105.726 165.742 106.425L165.465 106.682L165.188 106.941C163.857 108.194 162.582 109.498 161.52 110.996C159.569 113.746 158.407 117.099 159.218 120.457C159.891 123.238 161.435 125.759 161.85 128.61C162.059 130.039 161.957 131.474 161.415 132.823C160.862 134.199 159.978 135.378 159.184 136.619C157.458 139.317 157.223 142.279 157.394 145.404C157.574 148.668 157.951 151.934 158.418 155.168C159.362 161.722 160.785 168.208 162.669 174.56C163.612 177.74 164.725 180.853 165.833 183.979C166.385 185.534 167.028 187.053 167.691 188.565C168.041 189.36 168.399 190.152 168.763 190.941C168.628 189.826 168.628 188.681 168.563 187.573C168.469 185.984 168.349 184.399 168.239 182.812C168.015 179.592 167.816 176.369 167.637 173.146C167.006 161.651 166.541 150.148 166.575 138.635C166.592 132.878 166.71 127.121 166.96 121.37C167.077 118.661 167.304 115.956 167.508 113.251L167.552 112.671C167.733 110.244 167.95 107.811 168.322 105.404C168.212 105.157 168.116 104.908 168.045 104.651L168.02 104.555L168.038 104.558C168.021 104.483 168.015 104.408 168.02 104.334ZM174.52 94.4423C174.535 94.3758 174.631 94.3815 174.648 94.4423C175.071 95.8579 174.922 97.4149 174.557 98.8389C174.36 99.6104 174.08 100.359 173.742 101.081L173.624 101.334C173.335 101.949 173.008 102.582 172.445 102.965C172.209 103.125 171.789 103.135 171.553 102.965L171.433 102.875C171.413 102.86 171.394 102.844 171.375 102.828C171.155 102.645 171.047 102.242 171.148 101.976C171.409 101.289 172.001 100.785 172.41 100.174C172.773 99.6302 173.094 99.0569 173.36 98.461C173.935 97.1715 174.193 95.8026 174.52 94.4423Z" fill="black"/>
  <path fill-rule="evenodd" clip-rule="evenodd" d="M191.077 104.442C188.131 104.434 185.435 103.863 182.877 102.613C179.788 101.61 176.415 101.064 173.908 98.8451C172.687 99.1026 171.436 97.8561 170.423 97.1139C168.772 103.159 160.177 102.153 156.545 98.2465C154.323 96.3803 153.43 91.7635 157.288 90.5422C150.967 86.2716 148.683 78.8944 149.118 70.9118C149.575 57.5213 159.924 43.5999 173.226 41.2773C175.85 40.8181 178.545 40.8666 181.158 41.4127C182.617 41.7275 184.027 42.3379 185.589 42.3102C191.645 41.3579 198.297 41.4674 203.299 45.3228C211.294 50.6436 212.406 61.2897 211.471 69.8491L211.509 69.9292C211.044 73.0711 210.272 75.9487 208.811 77.843C208.698 80.5663 207.746 86.3796 207.676 88.6778C207.846 99.3721 201.74 104.119 191.077 104.442Z" fill="#FFDDC4"/>
  <path fill-rule="evenodd" clip-rule="evenodd" d="M170.385 43.2885C175.84 41.4526 179.283 42.4011 184.374 43.415L184.688 43.4771L185.182 43.5732C190.291 43.2323 194.691 42.1169 199.624 44.5509C209.888 48.8433 211.787 60.6926 211.08 70.5876L211.038 70.7716C210.704 72.2153 210.234 73.707 209.245 74.8546C207.586 66.7299 202.251 61.3663 195.691 56.2451L195.457 55.9629C194.642 54.9861 193.754 53.9713 192.679 53.2823C192.715 52.9665 192.732 52.65 192.727 52.3378C192.719 51.9066 192.1 51.5439 191.777 51.9189L191.715 51.9948C191.294 52.5034 189.082 54.9482 187.962 56.2028L187.822 56.3594L187.484 56.7415L186.914 57.4206C180.757 64.7419 174.264 72.0916 165.081 75.6055C162.881 74.2214 160.212 75.4402 158.837 77.3901C154.93 81.9201 159.459 90.4619 165.464 88.1447C165.829 91.2775 167.405 94.8093 169.543 97.1723C167.2 100.424 163.452 101.011 159.946 99.1703C156.523 97.6492 154.308 94.4563 156.409 90.9246C156.453 90.8991 156.499 90.8744 156.545 90.8504C158.156 91.9195 160.033 92.6201 161.974 92.7619L162.121 92.7717C163.334 92.8286 163.315 90.929 162.084 90.8318C153.945 89.8027 150.331 80.5569 150.323 73.3063C149.977 60.5429 157.977 47.411 170.385 43.2885Z" fill="#C93305"/>
  <path fill-rule="evenodd" clip-rule="evenodd" d="M155.895 90.3947C136.748 73.5664 156.391 35.6952 181.304 40.7198C183.825 41.5597 186.386 41.8511 188.997 41.2289C202.155 39.185 212.92 50.2913 212.364 63.1408C212.456 65.3385 212.438 67.5382 212.2 69.7272C211.926 72.6044 211.181 75.6815 209.517 78.0733C209.498 79.6798 208.547 85.7063 208.395 88.5416L208.365 89.1336C208.214 92.0475 207.887 95.0194 206.599 97.6765C202.639 104.814 192.438 106.346 185.123 104.266L184.819 104.167C183.461 103.718 181.92 103.119 181.058 101.987C180.602 101.389 181.356 100.626 181.984 100.788C182.792 100.998 183.462 101.488 184.216 101.836C189.136 103.999 194.956 103.274 199.812 101.254L199.959 101.192C208.658 97.6802 206.275 85.1864 207.42 78.0625C207.68 69.0163 200.095 62.856 194.38 56.8728L194.209 56.6833C193.622 56.0356 193.002 55.4043 192.186 55.2662C191.962 55.941 191.412 56.5153 190.902 57.0074L189.749 58.2473C188.595 59.4857 187.439 60.719 186.267 61.9413C180.574 67.6938 174.773 75.5041 165.998 76.0923C166.537 76.5778 167.01 77.1325 167.576 77.5897C167.814 77.8271 167.571 78.2256 167.251 78.1442C166.654 77.9926 166.273 77.4298 165.881 76.99C161.142 75.0109 157.25 82.3243 161.265 85.3519C162.755 86.9209 167.108 85.727 166.101 87.6618C167.2 91.0888 168.891 94.5356 171.751 96.8279C172.591 97.4586 173.903 97.7781 174.46 98.7067C174.595 98.9305 174.526 99.2957 174.273 99.4147C173.058 99.9783 171.753 99.0304 170.82 98.3164C165.891 107.899 147.819 97.3118 155.895 90.3947ZM185.182 43.5701L184.688 43.4741C179.422 42.4379 175.951 41.4121 170.384 43.2855C157.976 47.4079 149.977 60.5399 150.323 73.3033C150.331 80.5539 153.944 89.7996 162.084 90.8287C163.314 90.926 163.334 92.8256 162.121 92.7686L162.084 92.7663C160.078 92.6417 158.135 91.918 156.48 90.8044C154.259 94.3825 156.485 97.6293 159.945 99.1673C163.452 101.008 167.2 100.421 169.543 97.1693C167.405 94.8062 165.829 91.2745 165.464 88.1416C159.459 90.4589 154.93 81.917 158.837 77.387C160.212 75.4372 162.881 74.2184 165.081 75.6025C174.547 71.9799 181.156 64.2806 187.484 56.7385L187.822 56.3564C188.93 55.1116 191.477 52.3001 191.76 51.9366C192.077 51.5279 192.718 51.8958 192.726 52.3348C192.732 52.6469 192.714 52.9634 192.679 53.2792C193.857 54.035 194.812 55.1826 195.691 56.2421C202.251 61.3633 207.585 66.7269 209.245 74.8516C210.275 73.6552 210.743 72.0846 211.08 70.5846C211.787 60.6895 209.887 48.8403 199.624 44.5479C194.691 42.1139 190.29 43.2293 185.182 43.5701ZM161.907 80.7325C161.479 80.353 164.303 80.3071 164.569 80.6043L164.63 80.625C165.641 80.9785 167.492 82.1183 166.583 83.3018C165.287 84.5167 164.384 80.9095 161.907 80.7325Z" fill="black"/>
  <path fill-rule="evenodd" clip-rule="evenodd" d="M193.627 92.9119C192.669 92.5237 191.813 91.8762 191.188 91.0491C190.97 90.7615 190.914 90.4578 190.96 90.1801C191.011 89.8678 191.197 89.5848 191.451 89.3949C191.706 89.2045 192.024 89.1106 192.332 89.1585C192.6 89.2001 192.866 89.3455 193.077 89.6471L193.121 89.7074C193.493 90.2066 193.977 90.6163 194.529 90.8803C195.061 91.1348 195.656 91.2535 196.272 91.1845C197.445 91.053 198.253 90.4234 199.112 89.5685C199.219 89.4605 199.325 89.3492 199.432 89.2361C199.5 89.1336 199.594 89.0677 199.698 89.0331C199.814 88.9947 199.945 88.9969 200.064 89.0384C200.18 89.0785 200.283 89.1543 200.353 89.2553C200.418 89.3513 200.456 89.4699 200.444 89.6063C200.365 90.4923 199.898 91.2831 199.236 91.9039C198.499 92.5935 197.523 93.0705 196.605 93.2379C195.593 93.4222 194.561 93.2901 193.627 92.9119ZM197.082 79.2437C198.159 79.8934 199.8 81.4085 198.641 83.0193C197.278 84.4395 195.315 82.8111 194.347 82.0746C193.45 81.5038 192.442 82.9718 193.274 83.6383C200.265 88.776 203.103 79.4136 197.627 78.4798C197.024 78.3769 196.8 79.0427 197.082 79.2437ZM184.554 73.2673C184.673 71.8013 186.922 71.4684 187.146 72.919C187.347 74.2185 187.111 75.4122 186.521 76.5821C185.958 77.6998 184.541 77.1784 184.434 76.1606C184.291 74.7963 184.48 74.1792 184.554 73.2673ZM201.676 72.6183C201.99 72.2106 202.442 71.9323 202.985 72.0896C204.68 72.5812 204.18 74.9696 203.585 76.1321C203.261 76.7635 202.216 76.9236 201.744 76.3677C200.973 75.4612 200.605 73.6509 201.584 72.758C201.61 72.7118 201.64 72.6652 201.676 72.6183ZM186.497 66.8527L186.765 66.8062C187.593 66.664 188.623 66.5274 189.209 67.1883C189.52 67.5388 189.626 68.1902 189.209 68.5257C188.474 69.116 187.662 68.8872 186.781 68.9372C186.056 68.9785 185.358 69.0977 184.66 69.296C183.126 69.731 181.877 70.5251 180.567 71.3971C180.395 71.5115 180.22 71.2933 180.302 71.1338C181.058 69.6641 182.523 68.4567 183.99 67.7208C184.774 67.328 185.631 67.0022 186.497 66.8527ZM200.131 66.1943L200.336 66.2359C202.566 66.6986 205.463 67.6228 206.519 69.797C206.559 70.1045 206.517 70.1703 206.482 70.2134L206.471 70.2277C206.442 70.2645 206.419 70.3152 206.285 70.357C206.248 70.3482 206.21 70.3389 206.172 70.329C205.688 70.203 205.305 70.0296 204.935 69.8496L204.533 69.653C204.066 69.426 203.596 69.2073 203.097 69.0458C202.033 68.7013 200.938 68.4586 199.827 68.329C199.586 68.3009 199.354 68.2202 199.171 68.0819C198.997 67.9506 198.864 67.7688 198.804 67.5272C198.725 67.2145 198.748 66.9777 198.917 66.6956C199.044 66.4838 199.226 66.3369 199.435 66.2526C199.648 66.1667 199.89 66.1464 200.131 66.1943Z" fill="black"/>
  <path fill-rule="evenodd" clip-rule="evenodd" d="M108.314 107.538C105.689 105.63 104.387 102.505 103.407 101.974C102.687 101.582 102.7 98.8823 101.256 97.9267C99.3173 96.6444 93.1405 95.6909 90.8932 95.5125C88.7363 95.3414 84.9847 95.7009 82.961 96.4898C79.5862 97.8053 78.2401 100.315 76.7539 103.548C76.7539 103.548 110.117 108.849 108.314 107.538Z" fill="#D08B5B"/>
  <path fill-rule="evenodd" clip-rule="evenodd" d="M59.359 109.768H112.699L131.162 126.172L139.357 195.124L127.701 198.749L55.6826 199.951L33.1905 193.599L31.7871 145.604L59.359 109.768Z" fill="#78E185"/>
  <path fill-rule="evenodd" clip-rule="evenodd" d="M131.857 182.597C131.485 182.412 131.098 182.2 130.674 182.185C129.945 182.16 129.944 181.028 130.674 181.053C131.31 181.075 131.869 181.34 132.429 181.62C133.083 181.945 132.508 182.922 131.857 182.597ZM130.674 150.722C131.171 150.723 131.672 150.785 132.054 151.133C132.281 151.339 132.263 151.725 132.054 151.934C131.83 152.157 131.479 152.139 131.252 151.934C131.326 152.001 131.253 151.934 131.226 151.919C131.22 151.916 131.216 151.913 131.215 151.912C131.209 151.91 131.203 151.909 131.194 151.907C131.135 151.892 131.076 151.877 131.016 151.867C131.015 151.87 130.89 151.858 130.86 151.857C130.798 151.855 130.736 151.855 130.674 151.855C130.366 151.855 130.107 151.596 130.107 151.288C130.107 150.983 130.367 150.722 130.674 150.722ZM125.343 163.425C125.18 164.136 124.087 163.833 124.249 163.124C124.485 162.092 124.442 161.035 124.249 160C124.117 159.287 125.21 158.984 125.343 159.699C125.574 160.941 125.625 162.187 125.343 163.425ZM123.911 122.727C123.066 122.527 122.231 122.503 121.367 122.503C120.637 122.502 120.638 121.37 121.367 121.37C122.331 121.37 123.271 121.412 124.212 121.635C124.923 121.804 124.62 122.895 123.911 122.727ZM121.081 150.31C120.592 150.065 120.102 149.821 119.612 149.576C118.958 149.25 119.533 148.273 120.184 148.598L121.654 149.332C122.307 149.658 121.732 150.635 121.081 150.31ZM120.877 172.61C120.256 173.505 119.383 174.06 118.334 174.338C117.627 174.525 117.328 173.433 118.033 173.246C118.783 173.048 119.449 172.686 119.898 172.039C120.312 171.443 121.294 172.01 120.877 172.61ZM116.96 132.74C116.791 132.426 116.539 132.294 116.224 132.287C115.495 132.27 115.495 131.138 116.224 131.154C116.94 131.17 117.596 131.529 117.938 132.168C118.283 132.812 117.304 133.383 116.96 132.74ZM109.768 140.437C109.565 140.658 109.171 140.653 108.966 140.437C108.841 140.305 108.736 140.158 108.653 139.996C108.622 139.935 108.592 139.873 108.558 139.813C108.542 139.787 108.525 139.76 108.508 139.735C108.502 139.73 108.489 139.717 108.476 139.703C108.259 139.473 108.264 139.134 108.476 138.903C108.68 138.682 109.074 138.687 109.278 138.903C109.403 139.035 109.509 139.182 109.591 139.343C109.623 139.405 109.652 139.467 109.687 139.527C109.703 139.553 109.72 139.58 109.737 139.605C109.743 139.61 109.755 139.623 109.768 139.636C109.986 139.866 109.981 140.206 109.768 140.437ZM109.164 157.159C108.425 157.496 107.615 157.496 106.877 157.159C106.597 157.031 106.531 156.628 106.674 156.384C106.839 156.102 107.171 156.054 107.449 156.181C107.784 156.334 108.257 156.334 108.591 156.181C108.871 156.053 109.2 156.098 109.367 156.384C109.51 156.629 109.442 157.031 109.164 157.159ZM107.149 168.995C107.023 169.295 106.749 169.454 106.428 169.466C106.111 169.478 105.875 169.197 105.861 168.9C105.853 168.708 105.957 168.544 106.106 168.442C106.106 168.432 106.107 168.421 106.107 168.411C106.107 168.093 106.366 167.858 106.673 167.844C106.979 167.831 107.24 168.115 107.24 168.411C107.24 168.611 107.228 168.809 107.149 168.995ZM104.224 187.811C103.32 187.826 102.435 188.041 101.531 188.056C100.799 188.068 100.802 186.935 101.531 186.924C102.435 186.909 103.319 186.693 104.224 186.679C104.955 186.667 104.953 187.799 104.224 187.811ZM100.462 115.243C99.9321 115.747 99.2779 115.995 98.6328 116.31C97.9792 116.629 97.405 115.652 98.0605 115.332C98.607 115.066 99.212 114.869 99.6602 114.443C100.189 113.94 100.991 114.739 100.462 115.243ZM99.0401 128.296C98.6685 128.11 98.2812 127.899 97.857 127.884C97.1281 127.858 97.1271 126.726 97.857 126.751C98.4933 126.773 99.0523 127.039 99.6124 127.318C100.266 127.644 99.6912 128.62 99.0401 128.296ZM92.2244 180.682C92.0566 180.368 91.8036 180.236 91.4895 180.229C90.7598 180.212 90.7595 179.08 91.4895 179.096C92.2053 179.112 92.8616 179.471 93.2036 180.11C93.5477 180.754 92.5686 181.325 92.2244 180.682ZM89.8641 156.092C89.6385 155.885 89.6542 155.501 89.8641 155.291C90.109 155.046 90.3539 154.802 90.5989 154.557C90.8229 154.333 91.1742 154.35 91.4005 154.557C91.6262 154.764 91.6104 155.148 91.4005 155.358C91.1555 155.603 90.9107 155.847 90.6658 156.092C90.4416 156.316 90.0904 156.299 89.8641 156.092ZM87.0812 194.416C86.2633 194.396 85.4965 194.162 84.7264 193.906C84.0364 193.677 84.334 192.583 85.0279 192.814C85.6972 193.037 86.3696 193.267 87.0812 193.283C87.8109 193.3 87.8112 194.432 87.0812 194.416ZM83.4077 170.2C82.6687 170.179 82.0557 169.804 81.5375 169.3C81.0132 168.791 81.8158 167.991 82.3392 168.5C82.6358 168.787 82.9781 169.056 83.4077 169.067C84.1371 169.088 84.1377 170.22 83.4077 170.2ZM85.6889 139.058C85.6978 139.36 85.8254 139.683 86.0127 139.881C86.5137 140.411 85.713 141.213 85.211 140.682C84.7969 140.244 84.5725 139.658 84.5551 139.058C84.5341 138.328 85.668 138.331 85.6889 139.058ZM77.0406 114.395C76.8034 113.931 76.4925 113.387 76.0195 113.13C75.3772 112.782 75.9502 111.805 76.5918 112.152C77.2347 112.501 77.6947 113.188 78.0197 113.823C78.3513 114.472 77.3726 115.044 77.0406 114.395ZM75.571 126.172C75.3079 126.164 75.0469 126.119 74.7932 126.05C74.6847 126.021 74.5776 125.987 74.469 125.958C74.4226 125.945 74.2251 125.92 74.3465 125.927C74.0395 125.911 73.7795 125.681 73.7795 125.361C73.7795 125.066 74.0403 124.778 74.3465 124.795C74.7672 124.817 75.1499 125.027 75.571 125.039C76.3001 125.06 76.3007 126.192 75.571 126.172ZM71.8974 144.272H70.6729C69.9422 144.272 69.9435 143.14 70.6729 143.14H71.8974C72.6282 143.14 72.6269 144.272 71.8974 144.272ZM70.4691 194.338C70.0978 194.524 69.6602 194.7 69.3594 194.983C68.8291 195.484 68.0264 194.685 68.5577 194.183C68.9408 193.821 69.4306 193.593 69.897 193.36C70.1718 193.223 70.5097 193.285 70.6726 193.564C70.8199 193.815 70.7429 194.201 70.4691 194.338ZM67.7331 180.03C67.6856 180.017 67.6355 180.008 67.5874 180.001C67.3947 179.975 67.193 179.984 66.9994 179.984C66.2687 179.984 66.2698 178.851 66.9994 178.852C67.5744 178.852 68.1728 178.86 68.6249 179.262C68.8543 179.466 68.8321 179.856 68.6249 180.063C68.3995 180.288 68.0516 180.266 67.8231 180.063C67.8472 180.084 67.7646 180.039 67.7331 180.03ZM66.9997 160.787C67.1644 160.448 67.1669 160.227 67.1672 159.85C67.1678 159.12 68.3016 159.121 68.301 159.85C68.3007 160.397 68.2192 160.863 67.9787 161.358C67.8445 161.635 67.4517 161.707 67.2032 161.562C66.9246 161.399 66.8663 161.062 66.9997 160.787ZM63.7214 134.223C63.0638 134.447 62.4768 134.763 61.8977 135.145C61.2865 135.547 60.7191 134.566 61.3254 134.167C61.9863 133.731 62.6698 133.386 63.42 133.131C64.1136 132.896 64.4085 133.99 63.7214 134.223ZM59.8973 115.164C59.4087 115.178 58.9045 115.365 58.4691 115.576C57.8148 115.894 57.2406 114.917 57.897 114.599C58.5188 114.297 59.1993 114.052 59.8973 114.032C60.6284 114.011 60.6253 115.144 59.8973 115.164ZM58.183 166.042C57.9908 166.05 57.8265 165.947 57.7248 165.797C57.7141 165.797 57.7036 165.797 57.6932 165.797C57.3754 165.797 57.1401 165.538 57.1263 165.231C57.1125 164.925 57.3967 164.664 57.6932 164.665C57.8933 164.665 58.0918 164.677 58.2778 164.755C58.5781 164.882 58.7377 165.156 58.7499 165.475C58.7619 165.793 58.4804 166.028 58.183 166.042ZM55.3948 126.885C54.6985 127.112 54.4029 126.019 55.0933 125.793C55.9039 125.529 56.7321 125.324 57.5425 125.059C58.2388 124.832 58.5344 125.926 57.8438 126.151C57.0336 126.416 56.2052 126.621 55.3948 126.885ZM52.8521 148.259C52.6361 148.954 51.5421 148.656 51.7587 147.958C51.9679 147.285 51.9829 146.607 51.9833 145.907C51.9837 145.177 53.1176 145.179 53.1171 145.907C53.1167 146.704 53.0899 147.493 52.8521 148.259ZM45.2716 173.86C45.2304 174.142 45.0065 174.345 44.7134 174.358C44.415 174.371 44.1357 174.088 44.1465 173.792C44.1673 173.222 44.6326 172.757 45.2032 172.737C45.5206 172.725 45.7568 173.005 45.7701 173.303C45.7831 173.592 45.5413 173.818 45.2716 173.86ZM41.4354 141.317C40.8363 141.516 40.1962 141.707 39.7265 142.149C39.1957 142.65 38.393 141.85 38.9247 141.349C39.5441 140.765 40.3407 140.489 41.1341 140.225C41.8288 139.993 42.1241 141.087 41.4354 141.317ZM38.8355 163.315C38.6708 163.596 38.3373 163.647 38.0599 163.518C37.6881 163.346 37.2775 163.351 36.8765 163.351C36.1459 163.35 36.1471 162.218 36.8765 162.219C37.495 162.219 38.0656 162.277 38.6322 162.541C38.911 162.67 38.9789 163.07 38.8355 163.315ZM37.3663 190.013C37.0489 190.024 36.8128 189.744 36.7994 189.447C36.7864 189.157 37.028 188.932 37.298 188.889C37.3391 188.607 37.5632 188.404 37.8561 188.391C38.1546 188.378 38.434 188.661 38.423 188.957C38.4022 189.527 37.9372 189.992 37.3663 190.013ZM140.659 194.294C140.467 193.602 140.026 193.043 139.693 192.42C139.581 192.21 139.543 192.08 139.482 191.926C139.4 192.09 139.24 192.214 139 192.214C138.54 192.214 138.002 192.185 137.572 192.381C137.293 192.509 136.964 192.464 136.796 192.178C136.653 191.933 136.721 191.531 137 191.404C137.633 191.114 138.313 191.082 139 191.082C139.17 191.082 139.298 191.144 139.389 191.238C139.651 187.648 139.645 184.056 139.397 180.463C139.132 176.624 138.522 172.862 137.884 169.073C137.576 167.235 137.175 165.379 137.253 163.508C137.33 161.65 138.128 159.917 137.563 158.053C137.336 157.305 136.948 156.62 136.696 155.881C136.425 155.086 136.449 154.3 136.572 153.476C136.826 151.799 137.247 150.141 136.574 148.504C136.276 147.777 135.794 147.129 135.562 146.379C135.273 145.446 135.312 144.414 135.264 143.447C135.166 141.497 135.141 139.533 134.979 137.587C134.907 136.715 134.75 135.888 134.391 135.089C134.047 134.319 133.535 133.618 133.307 132.801C133.08 131.997 133.06 131.149 132.938 130.327C132.811 129.458 132.611 128.601 132.342 127.766C131.301 124.533 129.395 121.628 127.143 119.11C124.75 116.433 121.888 114.418 118.851 112.539C117.254 111.552 115.657 110.564 114.061 109.576C114.027 109.761 113.909 109.932 113.681 110.008C113.082 110.207 112.442 110.397 111.972 110.84C111.442 111.341 110.639 110.541 111.171 110.04C111.725 109.516 112.422 109.241 113.132 108.999C112.405 108.541 111.67 108.067 110.849 107.803C110.13 107.571 109.07 107.773 108.488 107.247C108.03 106.832 107.885 106.063 107.71 105.5C107.49 104.801 107.3 104.063 107.021 103.384C106.831 102.919 106.555 102.474 106.206 102.114C106.053 101.525 105.772 100.987 105.276 100.66C103.978 99.8025 102.384 100.655 101.813 101.878C101.341 101.876 100.843 101.98 100.384 102.008C99.4402 102.067 98.4949 102.094 97.5496 102.091C95.7001 102.086 93.8491 101.965 92.0152 101.72C88.7357 101.282 85.5539 100.397 82.3297 99.7076C82.3113 99.6651 82.29 99.6227 82.2645 99.5802C81.57 98.4167 79.8396 98.6134 78.7496 99.0536C78.282 99.2419 77.8058 99.4797 77.538 99.9214C77.2545 100.112 77.0093 100.345 76.8463 100.589C76.509 101.095 76.2483 102.114 75.5637 102.199C75.113 102.254 74.6553 102.168 74.1975 102.233C73.6249 102.312 73.1119 102.513 72.5832 102.742C68.5582 104.488 64.3972 106.429 60.0291 107.105C59.0045 107.264 57.9614 107.428 57.0714 108.001C56.3486 108.467 55.7901 109.107 55.1935 109.714C54.6125 110.306 54.1334 110.568 53.3043 110.674C52.2981 110.802 51.4265 111.08 50.6909 111.81C50.0801 112.418 49.6818 113.193 49.2028 113.898C48.7151 114.617 47.9996 115.022 47.2569 115.44C45.5009 116.428 43.8654 117.621 42.4411 119.052C39.4408 122.07 37.6239 125.949 35.7928 129.728C33.8129 133.816 31.9619 137.954 30.6779 142.319C29.4194 146.605 28.6711 151.015 28.3253 155.465C27.961 160.135 27.91 164.823 27.6067 169.496C27.4551 171.83 27.3403 174.167 27.224 176.503C27.1107 178.81 26.9448 181.122 26.9716 183.432C27.0228 187.898 27.9169 192.378 29.4803 196.559C29.8701 197.6 30.3022 198.626 30.7628 199.637C31.1668 200.524 32.5487 200.425 32.9823 199.637C33.0816 199.455 33.1595 199.269 33.2247 199.079C34.3585 199.089 35.5036 199.001 36.6304 199.106C38.6202 199.291 40.6141 199.395 42.6096 199.518C46.5582 199.763 50.5138 199.925 54.4637 200.15C54.8469 200.172 55.2301 200.194 55.6132 200.217C52.7984 191.515 53.1635 182.108 52.718 173.058C52.6822 172.329 53.8163 172.333 53.8518 173.058C54.2991 182.147 53.9183 191.578 56.8326 200.294C57.9633 200.37 59.0924 200.464 60.2177 200.601C61.1274 200.71 62.0417 200.838 62.9601 200.793C64.0018 200.744 65.0194 200.506 66.0355 200.299C67.8822 199.924 69.6609 200.094 71.5146 200.325C73.4974 200.572 75.4872 200.71 77.4827 200.796C85.4732 201.146 93.5175 201.464 101.505 200.93C103.438 200.802 105.367 200.62 107.288 200.374C109.266 200.121 111.223 199.695 113.2 199.453C115.149 199.215 116.94 199.867 118.866 199.988C120.831 200.111 122.848 199.702 124.793 199.467C125.428 199.39 126.064 199.315 126.699 199.241C125.881 193.639 125.416 187.995 124.964 182.353C124.906 181.625 126.04 181.632 126.098 182.353C126.546 187.951 127.001 193.553 127.818 199.111C131.187 198.719 134.56 198.323 137.895 197.713C138.844 197.54 139.788 197.259 140.356 196.412C140.777 195.785 140.862 195.016 140.659 194.294Z" fill="black"/>
  <path fill-rule="evenodd" clip-rule="evenodd" d="M123.326 68.6534C122.031 61.59 118.84 54.8693 113.939 49.6107C113.374 48.9863 112.866 48.0014 112.003 47.844C111.136 46.0773 109.485 44.8284 108.165 43.4017C105.284 40.5266 102.528 37.3138 98.8119 35.4982C81.5765 28.4033 64.9904 48.6334 61.4707 63.8476C57.9748 76.083 61.793 92.9615 76.9429 93.4566C79.0862 96.2939 82.0437 98.2578 85.0817 100.012C89.2305 102.67 93.7561 103.75 98.5558 102.27C103.336 103.52 108.291 99.5084 111.164 95.99C113.434 93.2647 114.991 89.9386 117.067 87.1176C119.519 87.0563 121.638 84.9783 121.966 82.5426C124.257 78.3304 124.152 73.283 123.326 68.6534Z" fill="#D08B5B"/>
  <path fill-rule="evenodd" clip-rule="evenodd" d="M61.4707 63.8476C64.9904 48.6334 81.5765 28.4033 98.8119 35.4982C102.528 37.3138 105.284 40.5266 108.165 43.4017C109.485 44.8284 111.136 46.0773 112.003 47.844C112.866 48.0014 113.374 48.9863 113.939 49.6107C118.84 54.8693 122.031 61.59 123.326 68.6534C124.152 73.283 124.257 78.3304 121.966 82.5426C121.638 84.9783 119.519 87.0563 117.067 87.1176C116.618 87.728 116.193 88.3621 115.78 89.0086L115.682 89.0418L115.67 88.3257C115.463 76.7241 114.796 69.7208 113.668 67.3159C112.528 64.8864 107.623 60.4381 98.9522 53.9709L98.6883 53.7743L96.653 52.0919L95.0735 53.8768C89.1312 60.5858 84.4797 65.7628 81.119 69.4079C77.5026 73.3303 74.443 79.2975 71.94 87.3095L71.8644 87.5529L76.2866 93.4245C61.6831 92.4696 58.0258 75.9044 61.4707 63.8476Z" fill="#9DDADB"/>
  <path fill-rule="evenodd" clip-rule="evenodd" d="M85.7831 33.0946C88.9192 32.3612 92.2081 32.5133 95.3145 33.3193C101.472 34.917 106.538 39.0717 110.738 43.704C114.835 48.2223 118.214 53.402 120.682 58.9819L120.807 59.2657C122.552 63.2433 124.069 67.3776 124.134 71.7573C124.19 75.5267 123.81 79.4536 122.593 83.0389C121.509 86.2327 119.516 89.4511 116.086 90.2167C114.108 95.2486 110.238 99.6062 105.364 101.938C102.341 103.384 99.021 104.03 95.6785 103.709C92.2683 103.381 89.083 101.741 86.4178 99.6499C86.3447 99.5926 86.4387 99.4815 86.5141 99.5248C89.7229 101.376 93.518 102.037 97.1934 101.915C103.233 101.716 108.771 98.4527 111.952 93.3238C112.744 92.0473 113.45 90.7008 114.012 89.3002C113.979 89.185 113.96 89.0682 113.96 88.9544C113.96 88.4718 114.189 88.1031 114.531 87.8648C114.689 87.3698 114.829 86.8692 114.946 86.3628C115.211 85.216 115.359 84.0525 115.448 82.8798C115.521 81.927 115.48 80.9162 115.576 79.939C115.541 79.1561 115.493 78.3739 115.422 77.5934C115.194 75.0783 114.732 72.5694 113.844 70.1989C112.944 67.7979 111.522 65.6806 109.729 63.8581C105.881 59.9493 101.092 57.0953 97.3508 53.0798L97.1549 52.8674L97.1416 52.8631C96.6774 53.3395 96.2136 53.8158 95.7484 54.2911L93.6233 56.4607C89.2858 60.8936 84.9834 65.3695 81.2101 70.3023C79.0373 73.1428 77.0852 76.1204 75.4032 79.2778C74.6067 80.7733 73.8845 82.306 73.2317 83.8696L72.9748 84.492C72.6692 85.2369 72.3389 86.0707 72.1554 86.9119C72.7013 87.4539 73.1005 88.2504 73.5421 88.8656C74.0429 89.5633 74.6204 90.2275 75.2147 90.8473C75.8162 91.4748 76.476 92.0763 77.1763 92.5917L77.2604 92.6525C78.064 93.2232 78.9864 93.6174 79.1069 94.7039C79.1592 95.1757 78.7378 95.5552 78.3476 95.7022C77.2794 96.1038 76.1729 94.9501 75.4609 94.2865C75.017 93.8726 74.6088 93.4266 74.2304 92.9556C73.862 93.0084 73.4911 93.0349 73.1241 92.9913C72.5555 92.9236 71.9923 92.8241 71.4383 92.6783C66.8437 91.4709 63.4428 87.6532 61.6079 83.4014C59.1446 77.6932 59.2019 71.1131 60.2259 65.0767C62.0971 54.0455 68.1533 43.7436 77.2981 37.2216C79.8592 35.395 82.6991 33.8157 85.7831 33.0946ZM90.7334 34.5703C84.8258 34.2588 79.4397 37.3078 75.1184 41.1032C67.2503 48.0138 62.4039 58.132 61.4289 68.5224C60.9109 74.0429 61.2985 79.9934 64.1745 84.8709C65.2904 86.7633 66.7276 88.4122 68.424 89.8025C70.0225 91.1129 71.8447 91.8681 73.7927 92.3819C73.704 92.2596 73.6165 92.1365 73.5313 92.0115C73.0782 91.3475 72.7183 90.6417 72.4167 89.9022C72.3901 89.9288 72.3401 89.9342 72.3105 89.8936C71.081 88.205 71.4658 86.1901 72.0519 84.3332C72.6664 82.3856 73.4452 80.4905 74.3341 78.6522C77.574 71.9528 82.393 66.1164 87.3952 60.6702C89.9499 57.8888 92.5894 55.188 95.219 52.478C96.5323 51.1247 97.8421 49.7675 99.1353 48.3948C99.7789 47.7113 100.419 47.0244 101.052 46.3319C101.679 45.6472 102.243 44.922 103.024 44.4092C103.646 44.0005 104.267 44.7816 103.976 45.3626C103.529 46.2561 102.76 46.9644 102.079 47.691L102.009 47.7663C101.346 48.4831 100.676 49.1941 100.002 49.9013C99.2276 50.7147 98.4468 51.5225 97.6636 52.3282C98.3316 52.2508 99.0074 52.2062 99.6714 52.1053C100.573 51.9683 101.463 51.7664 102.348 51.5468C103.28 51.3157 104.201 51.0206 105.09 50.6537C105.925 50.3091 106.714 49.7571 107.632 49.703C108.41 49.6571 108.653 50.6207 108.222 51.1277C107.628 51.8264 106.561 52.1014 105.693 52.3609L105.57 52.3979C104.61 52.6912 103.627 52.9113 102.634 53.0583C101.328 53.252 99.8175 53.3406 98.4195 53.1424C101.211 54.7808 103.78 56.8112 106.342 58.7913L106.794 59.1401C109.297 61.0675 111.739 63.1452 113.524 65.7822C115.19 68.244 116.196 71.11 116.76 74.0139C117.038 75.4466 117.222 76.8944 117.345 78.3483C117.805 79.6373 117.731 81.1698 117.615 82.5875L117.574 83.0768L117.577 83.2204C117.595 84.107 117.951 86.0813 117.112 86.7508C117.098 86.8222 117.085 86.8939 117.07 86.9653C117.174 86.9007 117.277 86.8343 117.379 86.7661C117.421 86.7379 117.462 86.7069 117.503 86.6765L117.619 86.5813C117.623 86.5775 117.627 86.5743 117.63 86.5716C117.891 86.343 118.139 86.1043 118.37 85.8463C118.798 85.3694 119.204 84.7634 119.589 84.0653C120.435 82.5308 120.975 80.8628 121.393 79.1381C122.157 75.985 122.472 72.5984 122.124 69.3648C122.075 68.9134 121.975 68.3474 121.821 67.7668C121.453 66.3881 121.03 65.0239 120.556 63.6782C119.609 60.986 118.447 58.3742 117.093 55.8625C114.343 50.7609 110.805 46.0444 106.565 42.0865C102.271 38.0781 96.7033 34.8851 90.7334 34.5703ZM82.4022 50.8701C82.6152 50.7398 82.8344 50.9928 82.7288 51.1969C82.2173 52.1848 81.3571 53.0188 80.6426 53.8653C79.9028 54.7418 79.1684 55.6231 78.4358 56.5057C76.944 58.3027 75.488 60.1327 74.0895 62.0034L73.7203 62.4983C72.4907 64.1503 71.2761 65.8285 70.2012 67.5837C69.6389 68.502 69.1434 69.4517 68.6934 70.4296C68.265 71.3606 68.0674 72.4844 67.5526 73.3589C67.5202 73.4141 67.4198 73.4096 67.4074 73.3398C67.2394 72.3982 67.6544 71.2641 67.951 70.3824C68.3036 69.3337 68.8054 68.3349 69.3425 67.3703C70.4629 65.358 71.8053 63.4718 73.1539 61.6084C74.5237 59.7162 75.9457 57.8628 77.4376 56.0653C78.1383 55.221 78.8548 54.3936 79.5927 53.5825L79.8704 53.2791C80.6433 52.44 81.4223 51.4688 82.4022 50.8701ZM78.8207 47.9447C79.171 47.6849 79.4699 48.2157 79.2465 48.4971C77.9116 50.1779 76.3927 51.6882 74.9317 53.2557C73.5288 54.7611 72.1878 56.3229 70.9224 57.9461C68.3424 61.256 66.2771 64.8879 64.528 68.6944C64.495 68.7662 64.3912 68.7127 64.4068 68.6433C65.3333 64.526 67.4993 60.7865 69.9656 57.4078L70.0594 57.2796C72.5541 53.8819 75.4216 50.4664 78.8207 47.9447Z" fill="black"/>
  <path fill-rule="evenodd" clip-rule="evenodd" d="M105.203 92.7306C104.298 92.738 103.279 92.3985 102.598 92.1327L102.421 92.0624C101.831 91.8267 101.226 91.556 100.775 91.1018C100.63 90.9541 100.476 90.7871 100.398 90.6114C100.353 90.5086 100.334 90.402 100.378 90.2962C100.541 90.2802 100.696 90.2593 100.842 90.2325C100.912 90.2198 100.979 90.2066 101.03 90.2063C101.219 90.2051 101.406 90.2291 101.593 90.2526C101.62 90.256 101.647 90.2595 101.674 90.2628C101.819 90.2808 101.964 90.3002 102.108 90.3195C102.528 90.3759 102.946 90.4318 103.372 90.4521C103.68 90.4669 104.002 90.4496 104.328 90.4319C105.172 90.386 106.044 90.3234 106.695 90.9139C106.865 91.0685 106.936 91.2633 106.936 91.4617C106.936 91.7029 106.835 91.9483 106.68 92.1409C106.328 92.5769 105.788 92.7259 105.203 92.7306ZM110.143 85.1264C109.749 85.717 109.092 86.0967 108.193 86.0554C106.405 85.9738 104.271 85.3 102.773 84.3256C102.383 84.072 102.13 83.6664 102.085 83.2319L102.004 82.459L101.568 83.1027C101.523 83.1697 101.477 83.2366 101.431 83.3035C101.305 83.4878 101.179 83.672 101.059 83.8609C100.603 84.5859 100.184 85.3182 99.8035 86.0862C99.5342 86.63 99.3374 87.2382 99.14 87.8519C98.8067 88.888 98.4847 89.907 97.7727 90.6352C97.665 90.7453 97.4995 90.7847 97.348 90.7653C97.2145 90.7481 97.0836 90.6827 97.0195 90.5525C96.1687 88.8244 97.3131 86.742 98.2413 85.2943L98.3395 85.1432C99.2003 83.8349 100.606 82.1036 102.216 81.8683L102.4 82.1619L102.668 81.9834C103.107 81.6914 103.685 81.705 104.192 81.9334L104.698 82.1617C105.641 82.5844 106.571 82.9743 107.592 83.1879C107.666 83.2035 107.74 83.218 107.814 83.2315C107.884 83.2442 107.955 83.2561 108.026 83.2672C108.01 83.1977 107.994 83.1286 107.978 83.0596C107.96 82.9867 107.943 82.9136 107.924 82.8407C107.905 82.7654 107.884 82.6906 107.864 82.616C107.782 82.3188 107.69 82.0242 107.58 81.7359C107.168 80.6517 106.511 79.6377 105.871 78.6706L105.796 78.5568C105.704 78.4182 105.603 78.2736 105.499 78.124C105 77.4063 104.447 76.6274 104.408 75.8456C105.07 75.8872 105.624 76.2982 106.112 76.6561C106.782 77.1469 107.402 77.7081 107.965 78.3178C109.057 79.5007 110.037 81.0129 110.467 82.5761C110.713 83.4713 110.605 84.4345 110.143 85.1264ZM92.6732 76.2086L92.673 76.1767C92.675 75.274 93.2014 73.2131 94.5024 73.2131C95.3152 73.2131 95.8087 74.6157 95.8941 76.0616L95.8971 76.1206C95.9348 77.0195 95.6878 78.9844 94.5024 78.9844C93.3045 78.9844 92.6855 77.1234 92.6732 76.2086ZM111.828 75.9255L111.828 75.8936C111.826 74.9909 111.3 72.93 109.999 72.93C109.206 72.93 108.718 74.2634 108.614 75.6702L108.607 75.7785C108.556 76.6471 108.787 78.7013 109.999 78.7013C111.197 78.7013 111.816 76.8403 111.828 75.9255ZM97.0549 70.0998C96.8825 70.12 96.7109 70.1464 96.5395 70.1736C96.0392 70.2532 95.5416 70.3488 95.0474 70.4601C94.1088 70.6718 93.1777 70.939 92.2645 71.241C91.4099 71.5236 90.5686 71.8431 89.7275 72.1625C89.6826 72.1796 89.6377 72.1966 89.5928 72.2137C89.2958 72.3264 88.9998 72.4528 88.7029 72.5796C88.2511 72.7725 87.7972 72.9668 87.334 73.1132C88.5543 71.4279 90.4349 70.1791 92.2443 69.2855C93.2767 68.7757 94.3719 68.3645 95.4737 68.0277L96.0872 67.8435C96.9907 67.5773 97.9785 67.3314 98.8271 67.8622C99.1628 68.0722 99.377 68.3985 99.4445 68.7513C99.5106 69.0973 99.4351 69.4683 99.1959 69.7779C98.9875 70.0476 98.7278 70.2012 98.4514 70.2539C98.1463 70.312 97.823 70.2482 97.5286 70.0912C97.2928 70.0736 97.2233 70.08 97.1535 70.0877L97.0549 70.0998ZM110.646 70.2712C110.041 70.14 109.443 70.0872 108.822 70.1061C108.542 70.1146 108.27 70.1578 108 70.2014C107.579 70.2691 107.16 70.3389 106.708 70.2568C106.471 70.214 106.27 70.0759 106.115 69.8957C105.933 69.6851 105.813 69.4158 105.774 69.1598C105.734 68.8954 105.774 68.6641 105.872 68.4599C105.988 68.2186 106.183 68.0153 106.418 67.8372C107.131 67.298 108.355 67.4277 109.196 67.5367C110.028 67.6447 110.855 67.9022 111.59 68.3113C112.315 68.715 112.945 69.2589 113.437 69.9237C113.852 70.484 114.047 71.1289 114.249 71.7856C113.3 70.9906 111.848 70.5319 110.646 70.2712Z" fill="black"/>
  <path fill-rule="evenodd" clip-rule="evenodd" d="M91.8389 93.799C92.9863 91.1142 95.4907 89.1409 98.3741 88.4195C100.491 87.8911 102.714 87.908 104.872 88.1177C106.003 88.2268 107.216 88.3162 108.282 88.7357C109.192 89.094 109.933 89.7714 110.491 90.5665C111.155 91.5087 111.606 92.587 111.923 93.6923C111.968 93.8495 112.011 94.0078 112.05 94.1669C111.912 95.0008 111.62 95.7106 110.846 96.2349C110.092 96.7469 109.191 96.9563 108.294 97.0307C108.206 96.9885 108.12 96.9451 108.042 96.9006C106.644 96.1009 105.659 94.2108 103.894 94.4666C102.318 94.695 101.281 96.6751 100.344 97.8362C97.3362 98.1862 94.3308 97.2835 91.8836 95.5658C91.7593 94.9779 91.7521 94.385 91.8389 93.799ZM114.094 91.7623C113.854 91.088 113.551 90.4348 113.192 89.8196C112.004 87.7848 110.181 86.1636 108.017 85.2369C102.898 83.0475 96.2737 84.5908 92.1394 88.1815C90.7271 89.4089 89.2991 91.2127 88.8673 93.1529C88.7384 93.1784 88.6166 93.2454 88.5164 93.3398C85.5294 91.4615 82.4534 89.6543 80.0464 87.0507C78.2984 85.1589 77.0826 82.9201 76.3381 80.46C76.2773 80.2575 75.9503 80.2871 75.9602 80.5112C75.9631 80.5636 75.9659 80.6159 75.9687 80.6683C75.9376 80.572 75.7904 80.6216 75.7791 80.7151C75.3785 83.7036 74.8775 86.8721 75.3389 89.8762C75.6149 91.6688 76.4301 92.9811 77.52 94.3982C78.6877 95.9171 80.0096 97.3299 81.3613 98.6847C82.219 99.5447 83.1149 100.537 84.1652 101.167C85.3866 101.9 86.7723 102.457 88.0758 103.022C89.402 103.599 90.7481 104.132 92.1195 104.594C94.8611 105.52 97.6947 106.161 100.578 106.441C102.886 106.665 105.525 106.909 107.737 106.042C109.432 105.377 110.801 104.176 111.887 102.73C113.068 101.156 114.003 99.3626 114.519 97.4716C115.056 95.5073 114.208 92.079 114.094 91.7623Z" fill="black"/>
  <path fill-rule="evenodd" clip-rule="evenodd" d="M112.259 68.7168C115.585 68.7168 117.484 69.4313 118.179 69.487L118.2 69.4885C118.49 69.5069 118.749 69.5311 119.022 69.6363C120.023 70.0215 120.186 71.0704 119.602 71.7315C119.561 73.0994 119.741 74.6978 119.432 76.0701C119.051 81.8555 116.326 82.8318 114.778 83.1881C114.001 83.3671 113.079 83.4383 112.253 83.2494C110.845 83.197 109.452 82.7565 108.261 81.9895C106.601 80.9205 105.368 79.2774 104.968 77.3274C104.779 76.3979 104.69 75.4305 104.793 74.4857L104.809 74.3555C104.269 74.0978 103.644 74.049 103 74.0263C102.692 74.0154 102.389 74.0056 102.094 74.0186C101.806 74.0508 101.521 74.0935 101.236 74.1518C100.924 74.2458 100.63 74.4008 100.358 74.6464L100.339 75.0049C100.288 75.9004 100.17 76.7985 99.9886 77.6771C99.7205 78.9734 99.2894 80.2114 98.3717 81.1309C98.0611 81.5942 97.6767 82.0078 97.21 82.366C95.5149 83.6696 93.2119 84.1481 91.0983 83.9679C86.8073 83.6022 84.327 80.2 83.7554 78.7458L83.7213 78.6577C83.3084 77.5766 82.9793 76.1739 81.6745 75.9416L81.397 75.8918C80.8016 75.7802 80.2523 75.6248 79.9031 75.0446C79.7501 74.7913 79.6714 74.508 79.6521 74.2192C79.4484 74.2348 79.245 74.2497 79.0423 74.2642C77.4255 74.6058 67.7276 74.8953 66.9535 74.8953C66.9535 74.8953 65.4655 75.5208 64.8373 75.0362C64.4018 74.6992 64.2586 74.25 64.4983 73.7412C64.86 72.9756 66.5286 72.5151 67.2695 72.3692C67.2695 72.3692 79.2261 72.4684 80.0867 72.3055C80.6191 71.7571 81.5716 71.8321 82.3674 71.7454C83.0262 71.2762 83.9479 70.962 84.6759 70.7516C84.8243 70.6955 84.9712 70.6412 85.1141 70.59C86.4488 70.1153 87.8361 69.8638 89.2445 69.7288C90.6969 69.5909 92.1536 69.6533 93.5975 69.8509C94.2059 69.9333 94.8087 70.0399 95.4073 70.1794C96.479 70.3205 97.5446 70.5529 98.6167 70.8287L98.8312 70.8844C99.9602 71.18 101.12 71.4357 102.289 71.2353C103.241 71.0732 104.156 70.7075 105.033 70.312L105.147 70.2603C107.076 69.3806 110.089 68.7168 112.259 68.7168ZM95.2913 71.9332C94.5795 71.7769 94.2756 72.8729 94.9896 73.0296C95.4952 73.1407 95.9237 73.3953 96.2132 73.8267L96.2437 73.8737C96.6322 74.4911 97.6145 73.9211 97.2234 73.2997C96.7832 72.6004 96.0993 72.1106 95.2913 71.9332ZM116.137 71.2536C115.886 71.0771 115.507 71.2082 115.361 71.4576C115.201 71.7323 115.306 72.0381 115.541 72.2178L115.565 72.2354C115.78 72.3871 115.99 72.6591 116.016 72.9378L116.019 72.9726C116.047 73.702 117.182 73.7056 117.153 72.9726C117.126 72.2556 116.71 71.6565 116.137 71.2536Z" fill="black"/>
  <defs>
    <filter id="filter0_d_1661_26705" x="0" y="0" width="364" height="337.285" filterUnits="userSpaceOnUse" color-interpolation-filters="sRGB">
      <feFlood flood-opacity="0" result="BackgroundImageFix"/>
      <feColorMatrix in="SourceAlpha" type="matrix" values="0 0 0 0 0 0 0 0 0 0 0 0 0 0 0 0 0 0 127 0" result="hardAlpha"/>
      <feOffset dy="4.4526"/>
      <feColorMatrix type="matrix" values="0 0 0 0 0.0941176 0 0 0 0 0.0980392 0 0 0 0 0.121569 0 0 0 1 0"/>
      <feBlend mode="normal" in2="BackgroundImageFix" result="effect1_dropShadow_1661_26705"/>
      <feBlend mode="normal" in="SourceGraphic" in2="effect1_dropShadow_1661_26705" result="shape"/>
    </filter>
  </defs>
</svg>