<svg width="38" height="38" viewBox="0 0 38 38" fill="none" xmlns="http://www.w3.org/2000/svg">
<path fill-rule="evenodd" clip-rule="evenodd" d="M4.62913 7.94948C3.80078 9.57521 3.80078 11.7034 3.80078 15.9598V22.0398C3.80078 26.2962 3.80078 28.4244 4.62913 30.0501C5.35777 31.4802 6.52042 32.6428 7.95045 33.3715C9.57618 34.1998 11.7044 34.1998 15.9608 34.1998H22.0408C26.2972 34.1998 28.4254 34.1998 30.0511 33.3715C31.4811 32.6428 32.6438 31.4802 33.3724 30.0501C34.2008 28.4244 34.2008 26.2962 34.2008 22.0398V15.9598C34.2008 11.7034 34.2008 9.57521 33.3724 7.94948C32.6438 6.51945 31.4811 5.35679 30.0511 4.62816C28.4254 3.7998 26.2972 3.7998 22.0408 3.7998H15.9608C11.7044 3.7998 9.57618 3.7998 7.95045 4.62816C6.52042 5.35679 5.35777 6.51945 4.62913 7.94948ZM11.3989 15.1963H14.438V26.5929H11.3989V15.1963ZM12.9094 13.6768H12.8926C11.9855 13.6768 11.3989 13.0006 11.3989 12.1565C11.3989 11.2941 12.0037 10.6377 12.9268 10.6377C13.8515 10.6377 14.4205 11.2941 14.438 12.1565C14.438 13.0006 13.8515 13.6768 12.9094 13.6768ZM27.3541 19.3751C27.3541 17.0669 25.4836 15.1963 23.1754 15.1963C21.7607 15.1963 20.5124 15.9014 19.7564 16.9772V15.1963H16.7173V26.5929H19.7564V20.5147C19.7564 19.2558 20.7768 18.2354 22.0357 18.2354C23.2947 18.2354 24.3151 19.2558 24.3151 20.5147V26.5929H27.3541V19.3751Z" fill="#186B80"/>
</svg>
