<svg width="38" height="38" viewBox="0 0 38 38" fill="none" xmlns="http://www.w3.org/2000/svg">
<path d="M16.1765 18.6737C16.3618 18.3811 16.5367 18.1049 16.6969 17.8546L17.7582 16.2379C17.3788 15.6753 16.9667 15.1355 16.5241 14.6212C16.1971 14.1801 15.7761 13.8173 15.2916 13.559C14.807 13.3007 14.2711 13.1535 13.7227 13.1279C13.1578 13.185 12.6157 13.3803 12.1443 13.6968C11.6729 14.0132 11.2867 14.4409 11.0199 14.942C9.87877 16.8502 9.28922 19.0375 9.31683 21.2608C9.2862 21.9906 9.45245 22.7153 9.79814 23.3588C9.93883 23.6103 10.1452 23.8189 10.3951 23.9623C10.645 24.1058 10.9292 24.1787 11.2174 24.1733C11.9085 24.1733 12.5379 24.0005 13.772 22.3098C14.5591 21.2276 15.4481 19.8238 16.1765 18.6737Z" fill="#186B80"/>
<path d="M25.3851 23.149C26.0392 23.9388 26.4959 24.1733 27.0882 24.1733C28.6062 24.1733 28.9764 22.7911 29.0258 21.1744C29.0797 18.8639 28.4947 16.5833 27.3351 14.5841C27.0356 14.0125 26.5972 13.5253 26.0602 13.1673C25.5233 12.8094 24.9049 12.5921 24.2621 12.5355C22.9909 12.5355 21.9666 13.4981 20.8065 15.2135C20.7295 15.3199 20.6594 15.4313 20.5967 15.5467C20.7626 15.827 20.9444 16.1232 21.1359 16.4353C21.3577 16.7966 21.5925 17.1791 21.8309 17.5831L22.4726 18.6444C23.3488 20.205 24.3216 21.7095 25.3851 23.149Z" fill="#186B80"/>
<path fill-rule="evenodd" clip-rule="evenodd" d="M4.62913 7.94948C3.80078 9.57521 3.80078 11.7034 3.80078 15.9598V22.0398C3.80078 26.2962 3.80078 28.4244 4.62913 30.0501C5.35777 31.4802 6.52042 32.6428 7.95045 33.3715C9.57618 34.1998 11.7044 34.1998 15.9608 34.1998H22.0408C26.2972 34.1998 28.4254 34.1998 30.0511 33.3715C31.4811 32.6428 32.6438 31.4802 33.3724 30.0501C34.2008 28.4244 34.2008 26.2962 34.2008 22.0398V15.9598C34.2008 11.7034 34.2008 9.57521 33.3724 7.94948C32.6438 6.51945 31.4811 5.35679 30.0511 4.62816C28.4254 3.7998 26.2972 3.7998 22.0408 3.7998H15.9608C11.7044 3.7998 9.57618 3.7998 7.95045 4.62816C6.52042 5.35679 5.35777 6.51945 4.62913 7.94948ZM27.146 11.3356C27.9936 11.8618 28.6952 12.5927 29.1863 13.4611C30.639 15.7449 31.386 18.4064 31.3336 21.1127C31.3565 21.5237 31.3565 21.9357 31.3336 22.3468C31.2529 22.826 31.129 23.2968 30.9634 23.7537L30.8153 24.1856C30.7102 24.4553 30.5822 24.7154 30.4327 24.9631C30.3675 25.0838 30.2932 25.1993 30.2106 25.3087C29.8527 25.7994 29.3795 26.1946 28.8329 26.4593C28.2862 26.724 27.6828 26.8502 27.0759 26.8267C26.4943 26.852 25.9138 26.7552 25.3718 26.5427C24.8298 26.3301 24.3383 26.0065 23.9289 25.5925C22.9551 24.5556 22.106 23.4083 21.3989 22.174L19.1898 18.4716L19.0047 18.1631C18.943 18.2742 18.8813 18.3852 18.8073 18.4963L18.0298 19.8785C17.2407 21.43 16.3287 22.9157 15.3023 24.3214C13.9325 26.0985 12.7724 26.7896 11.2297 26.7896C10.49 26.8373 9.75171 26.6777 9.09769 26.3289C8.44368 25.9801 7.89987 25.4558 7.52735 24.815C7.21822 24.2955 6.9972 23.7283 6.87326 23.1366C6.71969 22.4731 6.64512 21.7937 6.65112 21.1127C6.65445 18.4982 7.38054 15.9355 8.74913 13.7079C9.23993 12.7849 9.9572 12.0016 10.8336 11.4317C11.7101 10.8619 12.7169 10.524 13.7597 10.4498C15.0664 10.4509 16.3287 10.9243 17.314 11.7827C18.059 12.4157 18.7334 13.1274 19.3256 13.9054C19.8728 13.1362 20.5017 12.4286 21.2015 11.795C22.0477 10.9799 23.1623 10.5016 24.3361 10.4498C25.3322 10.5048 26.2985 10.8094 27.146 11.3356Z" fill="#186B80"/>
</svg>
