<?xml version="1.0" encoding="utf-8"?>
<svg width="364" height="338" viewBox="0 0 364 338" fill="none" xmlns="http://www.w3.org/2000/svg">
  <g filter="url(#filter0_d_1661_26690)">
    <rect width="364" height="332.832" rx="17.8104" fill="white"/>
    <rect x="1.11315" y="1.11315" width="361.774" height="330.606" rx="16.6972" stroke="#18191F" stroke-width="2.2263"/>
  </g>
  <path d="M1.11315 17.8104C1.11315 8.58876 8.58876 1.11315 17.8104 1.11315H346.19C355.411 1.11315 362.887 8.58876 362.887 17.8104V198.141H1.11315V17.8104Z" fill="#F5E074" stroke="#18191F" stroke-width="2.2263"/>
  <path d="M28.3948 233.159V216.359H36.3388C38.1948 216.359 39.8268 216.703 41.2348 217.391C42.6428 218.079 43.7388 219.047 44.5228 220.295C45.3228 221.543 45.7228 223.031 45.7228 224.759C45.7228 226.471 45.3228 227.959 44.5228 229.223C43.7388 230.471 42.6428 231.439 41.2348 232.127C39.8268 232.815 38.1948 233.159 36.3388 233.159H28.3948ZM33.1468 229.367H36.1468C37.1068 229.367 37.9388 229.191 38.6428 228.839C39.3628 228.471 39.9228 227.943 40.3228 227.255C40.7228 226.551 40.9228 225.719 40.9228 224.759C40.9228 223.783 40.7228 222.951 40.3228 222.263C39.9228 221.575 39.3628 221.055 38.6428 220.703C37.9388 220.335 37.1068 220.151 36.1468 220.151H33.1468V229.367ZM55.951 233.159V230.735L55.639 230.135V225.671C55.639 224.951 55.415 224.399 54.967 224.015C54.535 223.615 53.839 223.415 52.879 223.415C52.255 223.415 51.623 223.519 50.983 223.727C50.343 223.919 49.799 224.191 49.351 224.543L47.815 221.447C48.551 220.967 49.431 220.599 50.455 220.343C51.495 220.071 52.527 219.935 53.551 219.935C55.663 219.935 57.295 220.423 58.447 221.399C59.615 222.359 60.199 223.871 60.199 225.935V233.159H55.951ZM52.111 233.375C51.071 233.375 50.191 233.199 49.471 232.847C48.751 232.495 48.199 232.015 47.815 231.407C47.447 230.799 47.263 230.119 47.263 229.367C47.263 228.567 47.463 227.879 47.863 227.303C48.279 226.711 48.911 226.263 49.759 225.959C50.607 225.639 51.703 225.479 53.047 225.479H56.119V227.855H53.671C52.935 227.855 52.415 227.975 52.111 228.215C51.823 228.455 51.679 228.775 51.679 229.175C51.679 229.575 51.831 229.895 52.135 230.135C52.439 230.375 52.855 230.495 53.383 230.495C53.879 230.495 54.327 230.375 54.727 230.135C55.143 229.879 55.447 229.495 55.639 228.983L56.263 230.663C56.023 231.559 55.551 232.239 54.847 232.703C54.159 233.151 53.247 233.375 52.111 233.375ZM65.0749 238.031C64.3869 238.031 63.6909 237.919 62.9869 237.695C62.2989 237.487 61.7389 237.207 61.3069 236.855L62.8909 233.663C63.1629 233.903 63.4749 234.087 63.8269 234.215C64.1949 234.359 64.5549 234.431 64.9069 234.431C65.4029 234.431 65.7949 234.319 66.0829 234.095C66.3709 233.871 66.6189 233.519 66.8269 233.039L67.4269 231.527L67.7869 231.071L72.2029 220.151H76.5469L70.9309 233.687C70.4829 234.807 69.9629 235.679 69.3709 236.303C68.7949 236.943 68.1469 237.391 67.4269 237.647C66.7229 237.903 65.9389 238.031 65.0749 238.031ZM66.8509 233.711L61.1149 220.151H65.7949L70.0189 230.663L66.8509 233.711ZM84.9261 233.159V216.359H92.6061C94.1421 216.359 95.4621 216.607 96.5661 217.103C97.6861 217.599 98.5501 218.319 99.1581 219.263C99.7661 220.191 100.07 221.295 100.07 222.575C100.07 223.839 99.7661 224.935 99.1581 225.863C98.5501 226.791 97.6861 227.511 96.5661 228.023C95.4621 228.519 94.1421 228.767 92.6061 228.767H87.5661L89.6781 226.703V233.159H84.9261ZM89.6781 227.207L87.5661 225.023H92.3181C93.3101 225.023 94.0461 224.807 94.5261 224.375C95.0221 223.943 95.2701 223.343 95.2701 222.575C95.2701 221.791 95.0221 221.183 94.5261 220.751C94.0461 220.319 93.3101 220.103 92.3181 220.103H87.5661L89.6781 217.919V227.207ZM109.998 233.159V230.735L109.686 230.135V225.671C109.686 224.951 109.462 224.399 109.014 224.015C108.582 223.615 107.886 223.415 106.926 223.415C106.302 223.415 105.67 223.519 105.03 223.727C104.39 223.919 103.846 224.191 103.398 224.543L101.862 221.447C102.598 220.967 103.478 220.599 104.502 220.343C105.542 220.071 106.574 219.935 107.598 219.935C109.71 219.935 111.342 220.423 112.494 221.399C113.662 222.359 114.246 223.871 114.246 225.935V233.159H109.998ZM106.158 233.375C105.118 233.375 104.238 233.199 103.518 232.847C102.798 232.495 102.246 232.015 101.862 231.407C101.494 230.799 101.31 230.119 101.31 229.367C101.31 228.567 101.51 227.879 101.91 227.303C102.326 226.711 102.958 226.263 103.806 225.959C104.654 225.639 105.75 225.479 107.094 225.479H110.166V227.855H107.718C106.982 227.855 106.462 227.975 106.158 228.215C105.87 228.455 105.726 228.775 105.726 229.175C105.726 229.575 105.878 229.895 106.182 230.135C106.486 230.375 106.902 230.495 107.43 230.495C107.926 230.495 108.374 230.375 108.774 230.135C109.19 229.879 109.494 229.495 109.686 228.983L110.31 230.663C110.07 231.559 109.598 232.239 108.894 232.703C108.206 233.151 107.294 233.375 106.158 233.375ZM121.852 233.375C120.748 233.375 119.668 233.247 118.612 232.991C117.572 232.735 116.732 232.415 116.092 232.031L117.46 228.911C118.068 229.279 118.78 229.575 119.596 229.799C120.412 230.007 121.212 230.111 121.996 230.111C122.764 230.111 123.292 230.031 123.58 229.871C123.884 229.711 124.036 229.495 124.036 229.223C124.036 228.967 123.892 228.783 123.604 228.671C123.332 228.543 122.964 228.447 122.5 228.383C122.052 228.319 121.556 228.247 121.012 228.167C120.468 228.087 119.916 227.983 119.356 227.855C118.812 227.711 118.308 227.503 117.844 227.231C117.396 226.943 117.036 226.559 116.764 226.079C116.492 225.599 116.356 224.991 116.356 224.255C116.356 223.423 116.596 222.687 117.076 222.047C117.572 221.391 118.292 220.879 119.236 220.511C120.18 220.127 121.332 219.935 122.692 219.935C123.604 219.935 124.524 220.031 125.452 220.223C126.396 220.399 127.188 220.671 127.828 221.039L126.46 224.135C125.82 223.767 125.18 223.519 124.54 223.391C123.9 223.247 123.292 223.175 122.716 223.175C121.948 223.175 121.404 223.263 121.084 223.439C120.78 223.615 120.628 223.831 120.628 224.087C120.628 224.343 120.764 224.543 121.036 224.687C121.308 224.815 121.668 224.919 122.116 224.999C122.58 225.063 123.084 225.135 123.628 225.215C124.172 225.279 124.716 225.383 125.26 225.527C125.82 225.671 126.324 225.887 126.772 226.175C127.236 226.447 127.604 226.823 127.876 227.303C128.148 227.767 128.284 228.367 128.284 229.103C128.284 229.903 128.036 230.623 127.54 231.263C127.06 231.903 126.34 232.415 125.38 232.799C124.436 233.183 123.26 233.375 121.852 233.375ZM134.977 233.375C133.873 233.375 132.793 233.247 131.737 232.991C130.697 232.735 129.857 232.415 129.217 232.031L130.585 228.911C131.193 229.279 131.905 229.575 132.721 229.799C133.537 230.007 134.337 230.111 135.121 230.111C135.889 230.111 136.417 230.031 136.705 229.871C137.009 229.711 137.161 229.495 137.161 229.223C137.161 228.967 137.017 228.783 136.729 228.671C136.457 228.543 136.089 228.447 135.625 228.383C135.177 228.319 134.681 228.247 134.137 228.167C133.593 228.087 133.041 227.983 132.481 227.855C131.937 227.711 131.433 227.503 130.969 227.231C130.521 226.943 130.161 226.559 129.889 226.079C129.617 225.599 129.481 224.991 129.481 224.255C129.481 223.423 129.721 222.687 130.201 222.047C130.697 221.391 131.417 220.879 132.361 220.511C133.305 220.127 134.457 219.935 135.817 219.935C136.729 219.935 137.649 220.031 138.577 220.223C139.521 220.399 140.313 220.671 140.953 221.039L139.585 224.135C138.945 223.767 138.305 223.519 137.665 223.391C137.025 223.247 136.417 223.175 135.841 223.175C135.073 223.175 134.529 223.263 134.209 223.439C133.905 223.615 133.753 223.831 133.753 224.087C133.753 224.343 133.889 224.543 134.161 224.687C134.433 224.815 134.793 224.919 135.241 224.999C135.705 225.063 136.209 225.135 136.753 225.215C137.297 225.279 137.841 225.383 138.385 225.527C138.945 225.671 139.449 225.887 139.897 226.175C140.361 226.447 140.729 226.823 141.001 227.303C141.273 227.767 141.409 228.367 141.409 229.103C141.409 229.903 141.161 230.623 140.665 231.263C140.185 231.903 139.465 232.415 138.505 232.799C137.561 233.183 136.385 233.375 134.977 233.375ZM153.431 237.815C152.439 236.375 151.671 234.695 151.127 232.775C150.599 230.839 150.335 228.775 150.335 226.583C150.335 224.391 150.599 222.335 151.127 220.415C151.671 218.479 152.439 216.791 153.431 215.351H157.799C156.759 217.207 155.999 219.047 155.519 220.871C155.039 222.695 154.799 224.599 154.799 226.583C154.799 228.567 155.039 230.471 155.519 232.295C155.999 234.119 156.759 235.959 157.799 237.815H153.431ZM165.338 233.495C163.962 233.495 162.634 233.327 161.354 232.991C160.09 232.639 159.058 232.191 158.258 231.647L159.818 228.143C160.57 228.623 161.434 229.023 162.41 229.343C163.402 229.647 164.386 229.799 165.362 229.799C166.018 229.799 166.546 229.743 166.946 229.631C167.346 229.503 167.634 229.343 167.81 229.151C168.002 228.943 168.098 228.703 168.098 228.431C168.098 228.047 167.922 227.743 167.57 227.519C167.218 227.295 166.762 227.111 166.202 226.967C165.642 226.823 165.018 226.679 164.33 226.535C163.658 226.391 162.978 226.207 162.29 225.983C161.618 225.759 161.002 225.471 160.442 225.119C159.882 224.751 159.426 224.279 159.074 223.703C158.722 223.111 158.546 222.367 158.546 221.471C158.546 220.463 158.818 219.551 159.362 218.735C159.922 217.919 160.754 217.263 161.858 216.767C162.962 216.271 164.338 216.023 165.986 216.023C167.09 216.023 168.17 216.151 169.226 216.407C170.298 216.647 171.25 217.007 172.082 217.487L170.618 221.015C169.818 220.583 169.026 220.263 168.242 220.055C167.458 219.831 166.698 219.719 165.962 219.719C165.306 219.719 164.778 219.791 164.378 219.935C163.978 220.063 163.69 220.239 163.514 220.463C163.338 220.687 163.25 220.943 163.25 221.231C163.25 221.599 163.418 221.895 163.754 222.119C164.106 222.327 164.562 222.503 165.122 222.647C165.698 222.775 166.322 222.911 166.994 223.055C167.682 223.199 168.362 223.383 169.034 223.607C169.722 223.815 170.346 224.103 170.906 224.471C171.466 224.823 171.914 225.295 172.25 225.887C172.602 226.463 172.778 227.191 172.778 228.071C172.778 229.047 172.498 229.951 171.938 230.783C171.394 231.599 170.57 232.255 169.466 232.751C168.378 233.247 167.002 233.495 165.338 233.495ZM174.757 233.159V220.151H179.317V233.159H174.757ZM177.037 218.711C176.205 218.711 175.533 218.479 175.021 218.015C174.509 217.551 174.253 216.975 174.253 216.287C174.253 215.599 174.509 215.023 175.021 214.559C175.533 214.095 176.205 213.863 177.037 213.863C177.869 213.863 178.541 214.087 179.053 214.535C179.565 214.967 179.821 215.527 179.821 216.215C179.821 216.935 179.565 217.535 179.053 218.015C178.557 218.479 177.885 218.711 177.037 218.711ZM190.752 219.935C191.76 219.935 192.672 220.143 193.488 220.559C194.304 220.959 194.944 221.583 195.408 222.431C195.888 223.279 196.128 224.375 196.128 225.719V233.159H191.568V226.463C191.568 225.535 191.376 224.863 190.992 224.447C190.624 224.015 190.104 223.799 189.432 223.799C188.952 223.799 188.512 223.911 188.112 224.135C187.712 224.343 187.4 224.671 187.176 225.119C186.952 225.567 186.84 226.151 186.84 226.871V233.159H182.28V220.151H186.624V223.847L185.784 222.767C186.28 221.823 186.96 221.119 187.824 220.655C188.688 220.175 189.664 219.935 190.752 219.935ZM205.515 238.031C204.267 238.031 203.075 237.887 201.939 237.599C200.819 237.311 199.859 236.887 199.059 236.327L200.715 233.135C201.259 233.567 201.931 233.903 202.731 234.143C203.547 234.399 204.339 234.527 205.107 234.527C206.339 234.527 207.227 234.255 207.771 233.711C208.315 233.183 208.587 232.407 208.587 231.383V229.847L208.827 226.199L208.803 222.527V220.151H213.147V230.783C213.147 233.247 212.483 235.071 211.155 236.255C209.827 237.439 207.947 238.031 205.515 238.031ZM204.723 232.487C203.571 232.487 202.507 232.231 201.531 231.719C200.571 231.191 199.795 230.463 199.203 229.535C198.627 228.591 198.339 227.479 198.339 226.199C198.339 224.919 198.627 223.815 199.203 222.887C199.795 221.943 200.571 221.215 201.531 220.703C202.507 220.191 203.571 219.935 204.723 219.935C205.827 219.935 206.771 220.159 207.555 220.607C208.339 221.039 208.931 221.719 209.331 222.647C209.747 223.575 209.955 224.759 209.955 226.199C209.955 227.639 209.747 228.823 209.331 229.751C208.931 230.679 208.339 231.367 207.555 231.815C206.771 232.263 205.827 232.487 204.723 232.487ZM205.803 228.863C206.347 228.863 206.827 228.751 207.243 228.527C207.675 228.303 208.011 227.991 208.251 227.591C208.507 227.191 208.635 226.727 208.635 226.199C208.635 225.671 208.507 225.207 208.251 224.807C208.011 224.407 207.675 224.103 207.243 223.895C206.827 223.671 206.347 223.559 205.803 223.559C205.259 223.559 204.771 223.671 204.339 223.895C203.907 224.103 203.563 224.407 203.307 224.807C203.067 225.207 202.947 225.671 202.947 226.199C202.947 226.727 203.067 227.191 203.307 227.591C203.563 227.991 203.907 228.303 204.339 228.527C204.771 228.751 205.259 228.863 205.803 228.863ZM216.077 233.159V215.351H220.637V233.159H216.077ZM230.417 233.375C228.881 233.375 227.537 233.087 226.385 232.511C225.249 231.919 224.361 231.119 223.721 230.111C223.097 229.087 222.785 227.927 222.785 226.631C222.785 225.335 223.089 224.183 223.697 223.175C224.321 222.151 225.177 221.359 226.265 220.799C227.353 220.223 228.577 219.935 229.937 219.935C231.217 219.935 232.385 220.199 233.441 220.727C234.497 221.239 235.337 221.999 235.961 223.007C236.585 224.015 236.897 225.239 236.897 226.679C236.897 226.839 236.889 227.023 236.873 227.231C236.857 227.439 236.841 227.631 236.825 227.807H226.529V225.407H234.401L232.673 226.079C232.689 225.487 232.577 224.975 232.337 224.543C232.113 224.111 231.793 223.775 231.377 223.535C230.977 223.295 230.505 223.175 229.961 223.175C229.417 223.175 228.937 223.295 228.521 223.535C228.121 223.775 227.809 224.119 227.585 224.567C227.361 224.999 227.249 225.511 227.249 226.103V226.799C227.249 227.439 227.377 227.991 227.633 228.455C227.905 228.919 228.289 229.279 228.785 229.535C229.281 229.775 229.873 229.895 230.561 229.895C231.201 229.895 231.745 229.807 232.193 229.631C232.657 229.439 233.113 229.151 233.561 228.767L235.961 231.263C235.337 231.951 234.569 232.479 233.657 232.847C232.745 233.199 231.665 233.375 230.417 233.375ZM246.2 233.159V216.359H254.144C256 216.359 257.632 216.703 259.04 217.391C260.448 218.079 261.544 219.047 262.328 220.295C263.128 221.543 263.528 223.031 263.528 224.759C263.528 226.471 263.128 227.959 262.328 229.223C261.544 230.471 260.448 231.439 259.04 232.127C257.632 232.815 256 233.159 254.144 233.159H246.2ZM250.952 229.367H253.952C254.912 229.367 255.744 229.191 256.448 228.839C257.168 228.471 257.728 227.943 258.128 227.255C258.528 226.551 258.728 225.719 258.728 224.759C258.728 223.783 258.528 222.951 258.128 222.263C257.728 221.575 257.168 221.055 256.448 220.703C255.744 220.335 254.912 220.151 253.952 220.151H250.952V229.367ZM273.756 233.159V230.735L273.444 230.135V225.671C273.444 224.951 273.22 224.399 272.772 224.015C272.34 223.615 271.644 223.415 270.684 223.415C270.06 223.415 269.428 223.519 268.788 223.727C268.148 223.919 267.604 224.191 267.156 224.543L265.62 221.447C266.356 220.967 267.236 220.599 268.26 220.343C269.3 220.071 270.332 219.935 271.356 219.935C273.468 219.935 275.1 220.423 276.252 221.399C277.42 222.359 278.004 223.871 278.004 225.935V233.159H273.756ZM269.916 233.375C268.876 233.375 267.996 233.199 267.276 232.847C266.556 232.495 266.004 232.015 265.62 231.407C265.252 230.799 265.068 230.119 265.068 229.367C265.068 228.567 265.268 227.879 265.668 227.303C266.084 226.711 266.716 226.263 267.564 225.959C268.412 225.639 269.508 225.479 270.852 225.479H273.924V227.855H271.476C270.74 227.855 270.22 227.975 269.916 228.215C269.628 228.455 269.484 228.775 269.484 229.175C269.484 229.575 269.636 229.895 269.94 230.135C270.244 230.375 270.66 230.495 271.188 230.495C271.684 230.495 272.132 230.375 272.532 230.135C272.948 229.879 273.252 229.495 273.444 228.983L274.068 230.663C273.828 231.559 273.356 232.239 272.652 232.703C271.964 233.151 271.052 233.375 269.916 233.375ZM282.88 238.031C282.192 238.031 281.496 237.919 280.792 237.695C280.104 237.487 279.544 237.207 279.112 236.855L280.696 233.663C280.968 233.903 281.28 234.087 281.632 234.215C282 234.359 282.36 234.431 282.712 234.431C283.208 234.431 283.6 234.319 283.888 234.095C284.176 233.871 284.424 233.519 284.632 233.039L285.232 231.527L285.592 231.071L290.008 220.151H294.352L288.736 233.687C288.288 234.807 287.768 235.679 287.176 236.303C286.6 236.943 285.952 237.391 285.232 237.647C284.528 237.903 283.744 238.031 282.88 238.031ZM284.656 233.711L278.92 220.151H283.6L287.824 230.663L284.656 233.711ZM298.386 237.815H294.018C295.074 235.959 295.834 234.119 296.298 232.295C296.778 230.471 297.018 228.567 297.018 226.583C297.018 224.599 296.778 222.695 296.298 220.871C295.834 219.047 295.074 217.207 294.018 215.351H298.386C299.394 216.791 300.162 218.479 300.69 220.415C301.218 222.335 301.482 224.391 301.482 226.583C301.482 228.775 301.218 230.839 300.69 232.775C300.162 234.695 299.394 236.375 298.386 237.815ZM306.31 225.335C305.542 225.335 304.894 225.079 304.366 224.567C303.838 224.055 303.574 223.407 303.574 222.623C303.574 221.807 303.838 221.159 304.366 220.679C304.894 220.183 305.542 219.935 306.31 219.935C307.078 219.935 307.726 220.183 308.254 220.679C308.782 221.159 309.046 221.807 309.046 222.623C309.046 223.407 308.782 224.055 308.254 224.567C307.726 225.079 307.078 225.335 306.31 225.335ZM306.31 233.375C305.542 233.375 304.894 233.119 304.366 232.607C303.838 232.095 303.574 231.447 303.574 230.663C303.574 229.847 303.838 229.199 304.366 228.719C304.894 228.223 305.542 227.975 306.31 227.975C307.078 227.975 307.726 228.223 308.254 228.719C308.782 229.199 309.046 229.847 309.046 230.663C309.046 231.447 308.782 232.095 308.254 232.607C307.726 233.119 307.078 233.375 306.31 233.375Z" fill="#18191F"/>
  <path d="M28.245 266V255.5H32.79C33.73 255.5 34.54 255.655 35.22 255.965C35.9 256.265 36.425 256.7 36.795 257.27C37.165 257.84 37.35 258.52 37.35 259.31C37.35 260.09 37.165 260.765 36.795 261.335C36.425 261.895 35.9 262.325 35.22 262.625C34.54 262.925 33.73 263.075 32.79 263.075H29.595L30.675 262.01V266H28.245ZM34.92 266L32.295 262.19H34.89L37.545 266H34.92ZM30.675 262.28L29.595 261.14H32.655C33.405 261.14 33.965 260.98 34.335 260.66C34.705 260.33 34.89 259.88 34.89 259.31C34.89 258.73 34.705 258.28 34.335 257.96C33.965 257.64 33.405 257.48 32.655 257.48H29.595L30.675 256.325V262.28ZM41.8253 266.12C41.1353 266.12 40.4703 266.04 39.8303 265.88C39.2003 265.71 38.7003 265.5 38.3303 265.25L39.1103 263.57C39.4803 263.8 39.9153 263.99 40.4153 264.14C40.9253 264.28 41.4253 264.35 41.9153 264.35C42.4553 264.35 42.8353 264.285 43.0553 264.155C43.2853 264.025 43.4003 263.845 43.4003 263.615C43.4003 263.425 43.3103 263.285 43.1303 263.195C42.9603 263.095 42.7303 263.02 42.4403 262.97C42.1503 262.92 41.8303 262.87 41.4803 262.82C41.1403 262.77 40.7953 262.705 40.4453 262.625C40.0953 262.535 39.7753 262.405 39.4853 262.235C39.1953 262.065 38.9603 261.835 38.7803 261.545C38.6103 261.255 38.5253 260.88 38.5253 260.42C38.5253 259.91 38.6703 259.46 38.9603 259.07C39.2603 258.68 39.6903 258.375 40.2503 258.155C40.8103 257.925 41.4803 257.81 42.2603 257.81C42.8103 257.81 43.3703 257.87 43.9403 257.99C44.5103 258.11 44.9853 258.285 45.3653 258.515L44.5853 260.18C44.1953 259.95 43.8003 259.795 43.4003 259.715C43.0103 259.625 42.6303 259.58 42.2603 259.58C41.7403 259.58 41.3603 259.65 41.1203 259.79C40.8803 259.93 40.7603 260.11 40.7603 260.33C40.7603 260.53 40.8453 260.68 41.0153 260.78C41.1953 260.88 41.4303 260.96 41.7203 261.02C42.0103 261.08 42.3253 261.135 42.6653 261.185C43.0153 261.225 43.3653 261.29 43.7153 261.38C44.0653 261.47 44.3803 261.6 44.6603 261.77C44.9503 261.93 45.1853 262.155 45.3653 262.445C45.5453 262.725 45.6353 263.095 45.6353 263.555C45.6353 264.055 45.4853 264.5 45.1853 264.89C44.8853 265.27 44.4503 265.57 43.8803 265.79C43.3203 266.01 42.6353 266.12 41.8253 266.12ZM52.4521 266V256.4L53.5021 257.45H50.3521V255.5H54.8821V266H52.4521ZM60.2761 266.18C59.5461 266.18 58.8211 266.085 58.1011 265.895C57.3911 265.695 56.7811 265.415 56.2711 265.055L57.2311 263.195C57.6311 263.485 58.0911 263.715 58.6111 263.885C59.1411 264.055 59.6761 264.14 60.2161 264.14C60.8261 264.14 61.3061 264.02 61.6561 263.78C62.0061 263.54 62.1811 263.205 62.1811 262.775C62.1811 262.505 62.1111 262.265 61.9711 262.055C61.8311 261.845 61.5811 261.685 61.2211 261.575C60.8711 261.465 60.3761 261.41 59.7361 261.41H57.0511L57.5911 255.5H63.9961V257.45H58.4611L59.7211 256.34L59.3461 260.555L58.0861 259.445H60.3061C61.3461 259.445 62.1811 259.59 62.8111 259.88C63.4511 260.16 63.9161 260.545 64.2061 261.035C64.4961 261.525 64.6411 262.08 64.6411 262.7C64.6411 263.32 64.4861 263.895 64.1761 264.425C63.8661 264.945 63.3861 265.37 62.7361 265.7C62.0961 266.02 61.2761 266.18 60.2761 266.18ZM70.127 266.18C69.267 266.18 68.497 265.97 67.817 265.55C67.137 265.12 66.602 264.5 66.212 263.69C65.822 262.88 65.627 261.9 65.627 260.75C65.627 259.6 65.822 258.62 66.212 257.81C66.602 257 67.137 256.385 67.817 255.965C68.497 255.535 69.267 255.32 70.127 255.32C70.997 255.32 71.767 255.535 72.437 255.965C73.117 256.385 73.652 257 74.042 257.81C74.432 258.62 74.627 259.6 74.627 260.75C74.627 261.9 74.432 262.88 74.042 263.69C73.652 264.5 73.117 265.12 72.437 265.55C71.767 265.97 70.997 266.18 70.127 266.18ZM70.127 264.125C70.537 264.125 70.892 264.01 71.192 263.78C71.502 263.55 71.742 263.185 71.912 262.685C72.092 262.185 72.182 261.54 72.182 260.75C72.182 259.96 72.092 259.315 71.912 258.815C71.742 258.315 71.502 257.95 71.192 257.72C70.892 257.49 70.537 257.375 70.127 257.375C69.727 257.375 69.372 257.49 69.062 257.72C68.762 257.95 68.522 258.315 68.342 258.815C68.172 259.315 68.087 259.96 68.087 260.75C68.087 261.54 68.172 262.185 68.342 262.685C68.522 263.185 68.762 263.55 69.062 263.78C69.372 264.01 69.727 264.125 70.127 264.125ZM85.3207 266.12C84.6407 266.12 84.0457 265.97 83.5357 265.67C83.0257 265.37 82.6257 264.915 82.3357 264.305C82.0557 263.685 81.9157 262.905 81.9157 261.965C81.9157 261.015 82.0507 260.235 82.3207 259.625C82.5907 259.015 82.9807 258.56 83.4907 258.26C84.0007 257.96 84.6107 257.81 85.3207 257.81C86.0807 257.81 86.7607 257.985 87.3607 258.335C87.9707 258.675 88.4507 259.155 88.8007 259.775C89.1607 260.395 89.3407 261.125 89.3407 261.965C89.3407 262.815 89.1607 263.55 88.8007 264.17C88.4507 264.79 87.9707 265.27 87.3607 265.61C86.7607 265.95 86.0807 266.12 85.3207 266.12ZM80.5507 268.91V257.93H82.7857V259.58L82.7407 261.98L82.8907 264.365V268.91H80.5507ZM84.9157 264.2C85.3057 264.2 85.6507 264.11 85.9507 263.93C86.2607 263.75 86.5057 263.495 86.6857 263.165C86.8757 262.825 86.9707 262.425 86.9707 261.965C86.9707 261.495 86.8757 261.095 86.6857 260.765C86.5057 260.435 86.2607 260.18 85.9507 260C85.6507 259.82 85.3057 259.73 84.9157 259.73C84.5257 259.73 84.1757 259.82 83.8657 260C83.5557 260.18 83.3107 260.435 83.1307 260.765C82.9507 261.095 82.8607 261.495 82.8607 261.965C82.8607 262.425 82.9507 262.825 83.1307 263.165C83.3107 263.495 83.5557 263.75 83.8657 263.93C84.1757 264.11 84.5257 264.2 84.9157 264.2ZM94.9121 266.12C93.9921 266.12 93.1821 265.94 92.4821 265.58C91.7921 265.22 91.2571 264.73 90.8771 264.11C90.4971 263.48 90.3071 262.765 90.3071 261.965C90.3071 261.155 90.4921 260.44 90.8621 259.82C91.2421 259.19 91.7571 258.7 92.4071 258.35C93.0571 257.99 93.7921 257.81 94.6121 257.81C95.4021 257.81 96.1121 257.98 96.7421 258.32C97.3821 258.65 97.8871 259.13 98.2571 259.76C98.6271 260.38 98.8121 261.125 98.8121 261.995C98.8121 262.085 98.8071 262.19 98.7971 262.31C98.7871 262.42 98.7771 262.525 98.7671 262.625H92.2121V261.26H97.5371L96.6371 261.665C96.6371 261.245 96.5521 260.88 96.3821 260.57C96.2121 260.26 95.9771 260.02 95.6771 259.85C95.3771 259.67 95.0271 259.58 94.6271 259.58C94.2271 259.58 93.8721 259.67 93.5621 259.85C93.2621 260.02 93.0271 260.265 92.8571 260.585C92.6871 260.895 92.6021 261.265 92.6021 261.695V262.055C92.6021 262.495 92.6971 262.885 92.8871 263.225C93.0871 263.555 93.3621 263.81 93.7121 263.99C94.0721 264.16 94.4921 264.245 94.9721 264.245C95.4021 264.245 95.7771 264.18 96.0971 264.05C96.4271 263.92 96.7271 263.725 96.9971 263.465L98.2421 264.815C97.8721 265.235 97.4071 265.56 96.8471 265.79C96.2871 266.01 95.6421 266.12 94.9121 266.12ZM100.37 266V257.93H102.605V260.21L102.29 259.55C102.53 258.98 102.915 258.55 103.445 258.26C103.975 257.96 104.62 257.81 105.38 257.81V259.97C105.28 259.96 105.19 259.955 105.11 259.955C105.03 259.945 104.945 259.94 104.855 259.94C104.215 259.94 103.695 260.125 103.295 260.495C102.905 260.855 102.71 261.42 102.71 262.19V266H100.37ZM115.983 257.81C116.623 257.81 117.193 257.94 117.693 258.2C118.203 258.45 118.603 258.84 118.893 259.37C119.183 259.89 119.328 260.56 119.328 261.38V266H116.988V261.74C116.988 261.09 116.843 260.61 116.553 260.3C116.273 259.99 115.873 259.835 115.353 259.835C114.983 259.835 114.648 259.915 114.348 260.075C114.058 260.225 113.828 260.46 113.658 260.78C113.498 261.1 113.418 261.51 113.418 262.01V266H111.078V254.87H113.418V260.165L112.893 259.49C113.183 258.95 113.598 258.535 114.138 258.245C114.678 257.955 115.293 257.81 115.983 257.81ZM125.513 266.12C124.593 266.12 123.783 265.94 123.083 265.58C122.393 265.22 121.858 264.73 121.478 264.11C121.098 263.48 120.908 262.765 120.908 261.965C120.908 261.155 121.093 260.44 121.463 259.82C121.843 259.19 122.358 258.7 123.008 258.35C123.658 257.99 124.393 257.81 125.213 257.81C126.003 257.81 126.713 257.98 127.343 258.32C127.983 258.65 128.488 259.13 128.858 259.76C129.228 260.38 129.413 261.125 129.413 261.995C129.413 262.085 129.408 262.19 129.398 262.31C129.388 262.42 129.378 262.525 129.368 262.625H122.813V261.26H128.138L127.238 261.665C127.238 261.245 127.153 260.88 126.983 260.57C126.813 260.26 126.578 260.02 126.278 259.85C125.978 259.67 125.628 259.58 125.228 259.58C124.828 259.58 124.473 259.67 124.163 259.85C123.863 260.02 123.628 260.265 123.458 260.585C123.288 260.895 123.203 261.265 123.203 261.695V262.055C123.203 262.495 123.298 262.885 123.488 263.225C123.688 263.555 123.963 263.81 124.313 263.99C124.673 264.16 125.093 264.245 125.573 264.245C126.003 264.245 126.378 264.18 126.698 264.05C127.028 263.92 127.328 263.725 127.598 263.465L128.843 264.815C128.473 265.235 128.008 265.56 127.448 265.79C126.888 266.01 126.243 266.12 125.513 266.12ZM135.701 266V264.425L135.551 264.08V261.26C135.551 260.76 135.396 260.37 135.086 260.09C134.786 259.81 134.321 259.67 133.691 259.67C133.261 259.67 132.836 259.74 132.416 259.88C132.006 260.01 131.656 260.19 131.366 260.42L130.526 258.785C130.966 258.475 131.496 258.235 132.116 258.065C132.736 257.895 133.366 257.81 134.006 257.81C135.236 257.81 136.191 258.1 136.871 258.68C137.551 259.26 137.891 260.165 137.891 261.395V266H135.701ZM133.241 266.12C132.611 266.12 132.071 266.015 131.621 265.805C131.171 265.585 130.826 265.29 130.586 264.92C130.346 264.55 130.226 264.135 130.226 263.675C130.226 263.195 130.341 262.775 130.571 262.415C130.811 262.055 131.186 261.775 131.696 261.575C132.206 261.365 132.871 261.26 133.691 261.26H135.836V262.625H133.946C133.396 262.625 133.016 262.715 132.806 262.895C132.606 263.075 132.506 263.3 132.506 263.57C132.506 263.87 132.621 264.11 132.851 264.29C133.091 264.46 133.416 264.545 133.826 264.545C134.216 264.545 134.566 264.455 134.876 264.275C135.186 264.085 135.411 263.81 135.551 263.45L135.911 264.53C135.741 265.05 135.431 265.445 134.981 265.715C134.531 265.985 133.951 266.12 133.241 266.12ZM143.532 266.12C142.772 266.12 142.087 265.95 141.477 265.61C140.867 265.26 140.382 264.775 140.022 264.155C139.672 263.535 139.497 262.805 139.497 261.965C139.497 261.115 139.672 260.38 140.022 259.76C140.382 259.14 140.867 258.66 141.477 258.32C142.087 257.98 142.772 257.81 143.532 257.81C144.212 257.81 144.807 257.96 145.317 258.26C145.827 258.56 146.222 259.015 146.502 259.625C146.782 260.235 146.922 261.015 146.922 261.965C146.922 262.905 146.787 263.685 146.517 264.305C146.247 264.915 145.857 265.37 145.347 265.67C144.847 265.97 144.242 266.12 143.532 266.12ZM143.937 264.2C144.317 264.2 144.662 264.11 144.972 263.93C145.282 263.75 145.527 263.495 145.707 263.165C145.897 262.825 145.992 262.425 145.992 261.965C145.992 261.495 145.897 261.095 145.707 260.765C145.527 260.435 145.282 260.18 144.972 260C144.662 259.82 144.317 259.73 143.937 259.73C143.547 259.73 143.197 259.82 142.887 260C142.577 260.18 142.327 260.435 142.137 260.765C141.957 261.095 141.867 261.495 141.867 261.965C141.867 262.425 141.957 262.825 142.137 263.165C142.327 263.495 142.577 263.75 142.887 263.93C143.197 264.11 143.547 264.2 143.937 264.2ZM146.052 266V264.35L146.097 261.95L145.947 259.565V254.87H148.287V266H146.052Z" fill="black"/>
  <path fill-rule="evenodd" clip-rule="evenodd" d="M178.447 84.1765C181.861 81.9486 192.656 84.0381 197.111 84.7502C199.451 85.1243 200.745 88.2156 201.837 92.8889C208.325 91.5081 216.822 90.2725 222.762 94.7383C224.586 96.4285 224.852 99.2214 222.641 100.707C221.922 101.161 220.551 101.523 220.323 101.928C219.385 104.115 218.325 107.011 218.407 109.371C220.412 134.177 225.192 159.136 228.336 183.82L228.41 184.753C228.739 188.946 228.957 193.889 226.016 197.128C224.057 198.688 221.349 198.381 219.001 198.776C196.919 201.046 174.801 197.548 152.692 197.767C148.923 197.864 145.132 198.021 141.359 197.933L141.359 197.89C141.766 197.899 142.173 197.906 142.58 197.91C142.541 185.616 142.057 173.326 142.157 161.031C142.188 157.156 142.282 153.281 142.477 149.41C142.517 148.626 141.298 148.589 141.258 149.373C141.193 150.657 141.142 151.942 141.098 153.227C140.206 152.482 139.208 151.883 138.253 151.214C137.608 150.762 136.965 151.799 137.605 152.248C138.738 153.042 139.949 153.716 140.921 154.715C140.961 154.756 141.002 154.787 141.044 154.814C140.687 167.158 141.153 179.519 141.311 191.864C141.334 193.691 141.35 195.517 141.358 197.344L141.359 197.933C137.276 197.838 133.214 197.455 129.225 196.396C128.517 197.321 126.931 197.46 126.165 196.214C125.777 195.741 125.72 194.955 125.103 194.76C124.94 194.624 125.201 194.539 125.317 194.604C120.305 178.687 126.223 149.494 131.15 133.496C133.344 125.237 138.24 117.679 138.99 109.083C139.166 105.026 136.406 100.047 140.196 96.8999C139.743 93.9022 142.638 91.5048 145.489 91.3958C149.38 78.8586 164.428 94.0824 172.816 94.4894C174.026 92.6108 176.814 85.2424 178.447 84.1765ZM223.089 168.408C223.112 167.624 221.893 167.585 221.869 168.371C221.621 176.715 222.031 186.727 222.807 195.034C222.879 195.805 224.1 195.852 224.027 195.071C223.25 186.764 222.84 176.753 223.089 168.408ZM165.569 177.361C166.273 177.011 165.69 175.939 164.986 176.289C159.821 178.854 154.972 181.96 150.297 185.328C149.669 185.78 150.243 186.858 150.88 186.4C155.555 183.032 160.404 179.926 165.569 177.361ZM209.714 177.158C209.251 176.567 208.204 177.134 208.659 177.763C209.718 179.226 211.055 180.395 212.636 181.268C213.314 181.642 213.957 180.638 213.308 180.248L213.284 180.234C211.934 179.489 210.726 178.519 209.803 177.279L209.714 177.158ZM149.787 139.604C149.981 138.844 148.815 138.482 148.621 139.244C148.213 140.844 148.421 142.567 148.745 144.175L148.767 144.282L148.811 144.495C148.87 144.772 149.122 144.933 149.385 144.96C153.86 145.43 158.343 144.043 162.678 143.05L162.999 142.978L163.319 142.906C164.085 142.738 163.799 141.552 163.031 141.721L162.689 141.797C158.522 142.735 154.218 144.106 149.91 143.784L149.871 143.584C149.627 142.313 149.468 140.956 149.763 139.703L149.787 139.604ZM218.728 138.749C218.758 137.964 217.539 137.926 217.509 138.711L217.502 138.865C217.45 140.102 217.294 141.856 216.062 142.474C214.965 143.024 213.547 142.542 212.418 142.061L212.189 141.962L211.859 141.816C211.142 141.496 210.79 142.666 211.498 142.981L211.676 143.059C213.21 143.728 215.187 144.38 216.748 143.49C218.275 142.619 218.624 140.685 218.714 139.054L218.72 138.929L218.728 138.749Z" fill="#FFC59C"/>
  <path fill-rule="evenodd" clip-rule="evenodd" d="M216.787 91.6209L216.911 91.6476L220.342 92.3953L216.834 92.5516C216.672 92.5589 216.509 92.569 216.345 92.5821C216.008 92.6085 215.676 92.6447 215.35 92.6907L215.139 92.722L215.229 92.7202C216.509 92.7001 217.785 92.8436 219.038 93.1472C220.274 93.4463 221.367 93.8353 222.34 94.3485L222.456 94.4107L222.606 94.4935L222.678 94.5308L222.736 94.5596C223.002 94.6928 223.11 94.7605 223.22 94.9191C223.437 95.2333 223.33 95.5774 223.029 95.832C222.804 96.0229 222.518 96.1121 222.145 96.1568C222.09 96.1634 222.034 96.1689 221.973 96.1739L221.644 96.1961C221.03 96.2411 220.617 96.5599 220.54 97.0716C220.464 97.573 220.744 98.0925 221.163 98.2309L221.194 98.2403L221.233 98.2506C221.287 98.2646 221.336 98.2796 221.382 98.298L221.417 98.3126L221.492 98.3462L221.496 98.3469L221.498 98.3488L221.57 98.3809L221.588 98.4184L221.599 98.4276C221.641 98.464 221.658 98.4895 221.685 98.5443L221.708 98.5931L221.726 98.6634L221.731 98.6861L221.734 98.7048L221.735 98.7103L221.751 98.8382L221.755 98.8817L221.756 98.9099L221.696 100.865L221.225 99.8468L221.208 99.8606C220.959 100.049 220.642 100.199 220.241 100.344L220.16 100.372L219.949 100.443L219.532 100.578L219.435 100.61L219.35 100.64C219.282 100.664 219.224 100.687 219.171 100.709C219.091 100.743 219.021 100.782 218.959 100.825L218.923 100.852L218.719 101.01L218.235 100.824C218.179 100.803 218.127 100.782 218.077 100.762L217.608 100.571L217.207 100.409C216.685 100.2 216.217 100.018 215.76 99.8485L215.206 99.6448L214.802 99.4992C214.662 99.449 214.514 99.3964 214.35 99.3387L212.066 98.5391L211.626 98.3829C211.379 98.2947 211.157 98.2142 210.927 98.1297L210.501 97.9715L210.088 97.8152C208.743 97.3013 207.46 96.7562 205.174 95.7502L205.667 96.0518L206.033 96.2739C206.472 96.5393 206.954 96.8271 207.492 97.147L209.94 98.5996L210.43 98.8936L211.527 99.5551L212.106 99.902C213.144 100.52 213.881 100.939 214.667 101.353C215.275 101.674 215.901 101.983 216.553 102.285L216.799 102.398L217.176 102.569L217.473 102.709L217.674 102.804L217.807 102.866C218.518 103.189 218.938 103.281 219.412 103.173L219.445 103.164L219.477 103.154L220.403 102.831L220.056 103.748C220.016 103.852 219.977 103.958 219.938 104.065L219.868 104.259L219.812 104.361C219.487 104.96 219.166 105.578 218.841 106.226L218.667 106.576L218.57 106.643C218.535 106.667 218.502 106.704 218.474 106.754C218.346 106.987 218.221 107.219 218.101 107.451L217.974 107.698L217.842 107.959C217.268 109.101 216.743 110.276 216.058 111.916L215.155 114.103L215.02 114.429C213.911 117.103 212.861 119.785 211.871 122.474C209.913 127.78 208.161 133.171 206.617 138.633C203.518 149.603 201.332 160.769 200.083 172.036C199.847 174.16 199.659 176.275 199.519 178.384L199.484 178.932L199.411 179.415C199.354 179.796 199.299 180.166 199.248 180.528L199.218 180.745C198.842 183.424 198.636 185.536 198.588 187.562C198.565 188.567 198.566 189.504 198.596 190.408L198.603 190.616L198.728 193.94L197.71 190.773C197.638 190.549 197.569 190.321 197.491 190.056L197.393 189.718L197.346 189.548C197.304 189.392 197.264 189.231 197.215 189.021L197.04 188.27L196.997 188.09C196.952 187.903 196.913 187.76 196.869 187.607L196.815 187.428L196.776 187.303C196.704 187.08 196.618 186.841 196.482 186.479L196.272 185.923L196.23 185.809L196.233 185.72L196.249 185.425C196.287 184.72 196.306 183.977 196.311 183.143L196.312 182.489L196.309 181.929C196.309 181.871 196.308 181.812 196.308 181.751L196.28 179.23L196.25 173.635L196.248 172.69C196.247 171.987 196.248 171.351 196.251 170.731L196.255 170.164L196.256 169.972C196.304 164.422 196.525 158.718 196.912 152.791L196.95 152.216L196.988 151.651C197.615 142.443 198.451 134.616 200.336 119.213L200.649 116.665L201.116 112.893L201.224 112.008C201.443 110.205 201.603 108.799 201.745 107.421L201.807 106.807C202.048 104.372 202.226 101.841 202.36 99.0602L202.384 98.5601L202.141 99.3177L202.028 96.7694C201.994 95.9979 201.919 95.2834 201.796 94.616L201.769 94.4738L201.716 94.2017L201.673 94.0211C201.6 93.7158 202.156 92.3389 202.156 92.3389L202.448 92.2784L202.802 92.2065C208.434 91.0728 212.804 90.7783 216.787 91.6209ZM161.728 87.6635L161.895 87.7151L162.001 87.7486C162.849 88.0207 163.747 88.3966 164.78 88.8937L165.076 89.0374C165.208 89.102 165.973 89.432 166.277 89.5726L166.329 89.597C167.45 90.131 168.111 90.6759 168.237 91.4519L168.244 91.5046C168.566 91.8326 168.941 92.1499 169.369 92.4565L169.477 92.5329L169.58 92.6035C170.041 92.9171 170.478 93.1947 170.89 93.4354L171.002 93.5002L171.079 93.544L171.825 93.8263L172.748 94.1783L172.933 94.248C173.895 94.6089 174.463 94.8004 175.144 94.9901L175.527 95.0962C176.977 95.4955 178.263 95.8116 179.504 96.0664C180.767 96.3248 182.065 96.5571 183.408 96.7669L183.862 96.8367C184.31 96.9034 184.748 96.957 185.432 97.0316L186.539 97.1516L187.286 97.2354L186.868 97.8607C185.771 99.499 184.908 101.335 183.924 103.94L183.814 104.232C182.922 106.626 182.279 108.788 181.159 112.939C179.463 119.239 178.03 125.607 176.865 132.018C176.062 136.437 175.386 140.849 174.838 145.251L174.761 145.88L173.85 145.851C173.772 144.491 173.666 143.09 173.532 141.616C173.109 137.025 172.437 132.509 171.513 128.094L171.425 127.68L171.387 127.502L171.482 127.346C171.539 127.253 171.564 127.147 171.552 127.053C171.462 126.359 171.278 125.722 170.919 124.759L170.554 123.791L170.472 123.569L170.466 123.546C170.092 122.063 169.69 120.595 169.259 119.144L169.115 118.661L169.109 118.639C168.496 116.156 167.881 114.102 167.145 112.173C166.567 110.666 165.904 109.185 165.159 107.737L165.018 107.465L165.005 107.439C164.07 105.33 163.067 103.333 161.994 101.457L161.822 101.158L161.807 101.109C161.772 100.997 161.717 100.896 161.642 100.81L161.613 100.778L161.577 100.74L161.498 100.607L160.842 100.422C158.996 99.8992 157.062 99.799 154.891 100.055L154.746 100.072L154.6 100.091C153.006 100.3 151.632 100.609 149.133 101.286L146.675 101.957L146.325 102.049L145.995 102.136C144.797 102.445 143.749 102.674 142.734 102.839L142.596 102.861L142.22 102.92L142.034 102.948C140.916 103.112 140.136 103.141 139.404 102.978L139.337 102.962L139.256 102.942L139.183 102.921C138.331 102.665 138.032 102.033 138.455 101.177C138.804 100.469 139.529 99.9815 140.587 99.5671L140.74 99.5084L140.778 99.4941L140.818 99.4868C141.068 99.441 141.309 99.3538 141.539 99.2232C142.004 98.9603 142.213 98.3936 142.02 97.9144C141.822 97.4235 141.248 97.0868 140.837 97.2378L140.527 97.3501L140.187 97.4719L139.989 97.1702C139.978 97.1534 139.968 97.136 139.958 97.117L139.943 97.0873L139.934 97.0661L139.909 97.0433L139.885 97.0172C139.824 96.9469 139.792 96.8716 139.778 96.7949C139.772 96.7659 139.77 96.7396 139.769 96.7135L139.769 96.6874C139.769 96.6332 139.775 96.5898 139.796 96.4389C139.89 95.783 140.337 95.2649 141.102 94.677L141.225 94.5835L141.262 94.5561C142.724 93.4691 144.551 92.9429 146.078 93.3472C146.153 93.3666 146.226 93.3879 146.301 93.4123L146.376 93.4379L146.465 93.4706C146.933 93.6489 147.308 93.459 147.494 93.0143C147.682 92.5665 147.58 92.0626 147.222 91.7812L147.189 91.757L147.08 91.6788L146.952 91.585L146.81 91.4785L146.745 91.4284L146.651 91.3541C145.932 90.7748 145.543 90.2423 145.681 89.631L145.69 89.5919L145.702 89.546L145.723 89.5036L145.789 89.3728L145.858 89.2428L145.877 89.207L145.902 89.1752C146.166 88.8415 146.599 88.5953 147.214 88.3628L147.286 88.3361C147.543 88.2416 148.261 88.0142 148.368 87.9768L148.376 87.9739C150.504 87.1862 152.801 86.7647 155.1 86.7347C157.357 86.706 159.608 87.0191 161.728 87.6635Z" fill="white"/>
  <path d="M200.362 112.362L200.329 112.568L200.296 112.774C199.367 118.696 198.507 126.157 197.775 132.104C196.316 143.96 195.278 155.878 195.004 167.824C194.933 170.913 194.95 173.996 194.998 177.083L195.009 177.745C195.065 181.111 195.202 184.67 196.038 187.94C196.13 188.301 196.354 188.514 196.617 188.597C196.617 188.976 196.627 189.355 196.641 189.731L196.652 190.013C196.713 191.532 196.926 194.692 197.545 196.087C198.148 197.449 199.19 198.545 200.542 199.173C200.921 199.348 201.309 199.478 201.702 199.572C193.376 199.486 182.457 198.882 174.127 198.425C174.998 198.315 175.51 197.645 175.651 196.775C175.934 195.029 175.56 193.204 174.633 191.7C174.537 191.545 174.422 191.406 174.293 191.286L174.346 190.317C174.385 189.59 174.415 188.862 174.396 188.134C174.357 186.528 174.274 184.92 174.207 183.315C174.071 180.099 173.988 176.879 174.016 173.661C174.067 167.225 174.371 160.79 174.933 154.379C176.058 141.569 178.196 127.348 181.363 114.882C181.594 113.974 181.826 113.066 182.066 112.159C184.194 113.349 188.032 113.871 190.395 113.959C193.358 114.068 197.648 113.518 200.362 112.362Z" fill="#E86BBB"/>
  <path fill-rule="evenodd" clip-rule="evenodd" d="M222.784 195.078C222.007 186.771 221.598 176.759 221.846 168.415C221.869 167.629 223.089 167.668 223.065 168.452C222.817 176.797 223.227 186.808 224.003 195.115C224.076 195.896 222.856 195.849 222.784 195.078ZM216.725 143.533C215.102 144.458 213.031 143.719 211.475 143.025C210.766 142.709 211.119 141.54 211.835 141.859C213.02 142.387 214.751 143.164 216.038 142.518C217.323 141.873 217.437 139.995 217.485 138.755C217.515 137.97 218.734 138.008 218.704 138.793C218.64 140.48 218.348 142.607 216.725 143.533ZM212.613 181.311C211.031 180.438 209.695 179.27 208.635 177.807C208.175 177.171 209.253 176.597 209.707 177.224C210.639 178.512 211.875 179.513 213.261 180.278C213.949 180.658 213.299 181.69 212.613 181.311ZM206.197 138.52C203.1 149.483 200.904 160.673 199.648 171.997C199.393 174.296 199.193 176.593 199.049 178.894C198.957 179.492 198.869 180.092 198.785 180.692C198.466 182.962 198.205 185.27 198.151 187.562C198.127 188.591 198.127 189.617 198.166 190.644C198.055 190.298 197.952 189.95 197.853 189.604C197.651 188.894 197.525 188.161 197.318 187.456C197.147 186.872 196.92 186.312 196.71 185.745L196.71 185.744C196.849 183.455 196.765 181.138 196.756 178.856C196.744 175.899 196.709 172.944 196.734 169.987C196.784 164.072 197.032 158.159 197.427 152.258C198.221 140.367 199.667 128.554 201.123 116.732C201.527 113.445 201.955 110.16 202.282 106.864C202.612 103.533 202.806 100.192 202.935 96.8456C202.944 96.6047 202.58 96.5296 202.506 96.7606C202.471 95.9647 202.39 95.1689 202.238 94.3969C204.816 96.1542 207.544 97.6889 210.214 99.2966C211.621 100.144 213.021 101.005 214.474 101.769C215.273 102.19 216.08 102.58 216.905 102.95C217.759 103.333 218.572 103.85 219.532 103.63C219.615 103.612 219.694 103.583 219.77 103.546C219.655 103.748 219.541 103.949 219.431 104.154C219.049 104.857 218.684 105.565 218.329 106.278C218.239 106.341 218.158 106.429 218.094 106.544C217.923 106.855 217.756 107.169 217.593 107.487C217.564 107.457 217.534 107.427 217.505 107.397C217.38 107.273 217.198 107.449 217.307 107.583C217.357 107.644 217.405 107.704 217.454 107.765C216.394 109.873 215.517 112.096 214.618 114.265C213.512 116.932 212.459 119.619 211.462 122.327C209.497 127.653 207.741 133.057 206.197 138.52ZM165.546 177.404C160.38 179.97 155.532 183.076 150.857 186.443C150.219 186.902 149.645 185.824 150.274 185.372C154.949 182.004 159.797 178.898 164.963 176.332C165.666 175.983 166.249 177.055 165.546 177.404ZM149.362 145.004C149.098 144.976 148.846 144.815 148.788 144.539C148.428 142.841 148.162 140.995 148.598 139.287C148.792 138.526 149.957 138.888 149.763 139.648C149.42 140.994 149.615 142.467 149.887 143.828C154.313 144.158 158.734 142.702 163.007 141.765C163.776 141.596 164.062 142.782 163.295 142.95C158.763 143.945 154.058 145.497 149.362 145.004ZM236.213 192.673C236.218 192.662 236.223 192.65 236.226 192.64C236.511 191.858 236.545 190.941 236.6 190.114C236.695 188.643 236.687 187.166 236.6 185.694C236.414 182.596 235.904 179.539 235.276 176.503C234.031 170.491 232.192 164.622 231.282 158.539C229.496 146.598 230.387 134.25 226.518 122.666C224.91 117.851 222.545 113.197 219.257 109.309C219.528 108.561 219.794 107.811 220.054 107.058C220.507 105.747 220.972 104.395 221.268 103.04C221.275 103.004 221.284 102.966 221.29 102.928C222.758 102.347 224.113 101.21 224.387 99.6498C224.505 98.9761 224.415 98.2227 224.143 97.5599C224.757 97.0265 225.163 96.322 225.101 95.3589C224.986 93.5461 222.89 93.0162 221.431 92.6175C219.773 92.1654 218.044 92.0008 216.329 92.1373C215.464 92.2053 214.605 92.3376 213.764 92.5497C213.034 92.7332 212.239 92.9209 211.643 93.3999C211.573 93.4557 211.626 93.5702 211.708 93.5727C212.884 93.6044 214.067 93.2089 215.256 93.1889C216.502 93.1693 217.739 93.3096 218.951 93.6031C220.135 93.8897 221.313 94.292 222.379 94.8908C222.679 95.0602 223.122 95.1822 222.754 95.4943C222.485 95.7225 221.969 95.7266 221.631 95.7511C220.883 95.806 220.227 96.2221 220.108 97.0148C220.002 97.7149 220.397 98.5233 221.139 98.7048C221.18 98.7154 221.217 98.7271 221.251 98.7418C221.269 98.7805 221.299 98.8135 221.297 98.7615C221.297 98.7615 221.299 98.7601 221.299 98.7616C221.314 98.8734 221.318 98.9177 221.318 98.9254C221.314 98.9161 221.307 98.8778 221.302 98.8471C221.306 98.8747 221.314 98.9192 221.324 98.9851C221.309 98.913 221.318 99.0888 221.303 99.1157C220.884 99.8351 219.706 100.005 219.014 100.299C218.879 100.356 218.763 100.424 218.662 100.502C218.503 100.441 218.34 100.379 218.176 100.312C217.367 99.9802 216.559 99.6579 215.738 99.3564C214.154 98.7724 212.549 98.2455 210.965 97.6598C207.966 96.5516 205.076 95.1798 202.138 93.927C202.054 93.5735 201.955 93.2272 201.836 92.8894C201.812 92.8187 201.688 92.7918 201.671 92.8844C201.616 93.1786 201.571 93.4747 201.531 93.7725C201.518 93.7996 201.514 93.83 201.519 93.8591C201.294 95.5914 201.285 97.3714 201.143 99.1047C200.967 101.266 200.594 103.405 200.441 105.568L200.44 105.608C200.063 107.447 199.716 109.293 199.397 111.146C199.105 111.045 198.768 111.053 198.418 111.227C195.942 112.452 193.183 113.092 190.424 113.169C189.034 113.207 187.662 113.12 186.288 112.917C185.384 112.785 184.497 112.569 183.608 112.362C184.139 110.402 184.706 108.453 185.337 106.526C185.857 104.942 186.43 103.367 187.125 101.849C187.827 100.316 188.686 98.8576 189.49 97.3751C189.861 96.6893 189.482 95.6112 188.573 95.6565C188.304 95.6696 188.035 95.6781 187.765 95.682C185.137 95.7265 182.416 95.35 179.833 95.0095C176.893 94.6202 173.913 94.2187 171.005 93.6428C170.79 93.6011 170.692 93.8926 170.903 93.9708C172.276 94.4798 173.63 95.0491 175.041 95.442C176.493 95.8482 177.956 96.2227 179.432 96.5259C180.847 96.8151 182.268 97.0646 183.696 97.2824C184.627 97.4254 185.57 97.5124 186.508 97.6175C185.179 99.6026 184.236 101.859 183.406 104.084C182.34 106.94 181.531 109.889 180.737 112.832C179.039 119.14 177.603 125.52 176.435 131.948C175.598 136.557 174.892 141.188 174.327 145.836C174.245 144.416 174.136 143 174.008 141.585C173.575 136.887 172.877 132.211 171.893 127.596C171.999 127.422 172.053 127.212 172.025 127.005C171.861 125.74 171.362 124.628 170.93 123.446C170.515 121.801 170.063 120.165 169.573 118.541C169.028 116.332 168.407 114.154 167.592 112.02C166.969 110.395 166.25 108.807 165.444 107.265C164.489 105.113 163.433 103.005 162.264 100.984C162.205 100.797 162.107 100.622 161.963 100.473C161.75 100.112 161.534 99.7561 161.313 99.403C161.169 99.1728 160.732 99.2967 160.837 99.5868C160.887 99.7227 160.936 99.8583 160.987 99.9927C156.015 98.5857 151.044 100.351 146.228 101.618C145.013 101.94 143.787 102.225 142.545 102.42C141.569 102.574 140.431 102.761 139.47 102.53C138.826 102.376 138.548 102.073 138.885 101.391C139.233 100.685 140.138 100.241 140.92 99.9481C141.213 99.8944 141.503 99.7919 141.784 99.6327C142.44 99.2623 142.747 98.4571 142.465 97.7543C142.208 97.1194 141.42 96.5551 140.699 96.8198C140.596 96.8578 140.494 96.8943 140.392 96.9308C140.382 96.9153 140.37 96.8936 140.361 96.8628C140.267 96.5807 140.213 96.9133 140.269 96.5152C140.362 95.8651 141.071 95.2934 141.555 94.9345C142.759 94.0394 144.478 93.4026 145.984 93.8013C146.097 93.8308 146.21 93.8663 146.322 93.9094C147.868 94.4985 148.697 92.2722 147.475 91.3955C147.4 91.3429 147.306 91.2759 147.203 91.198C146.695 90.8208 145.953 90.1893 146.177 89.6472C146.454 88.9736 147.976 88.6283 148.555 88.4142C150.647 87.6394 152.895 87.2325 155.126 87.2035C157.371 87.1748 159.635 87.4916 161.779 88.163C162.831 88.4914 163.907 88.9745 164.895 89.4597C165.784 89.8942 167.727 90.4924 167.817 91.6363C167.837 91.8888 168.192 91.985 168.279 91.7131C168.96 89.5433 166.62 88.0571 165.075 87.105C164.061 86.4787 162.902 86.0725 161.781 85.6734C160.706 85.2895 159.606 84.9979 158.48 84.8075C156.062 84.4008 153.604 84.3679 151.181 84.7603C148.975 85.1183 146.513 85.7686 144.697 87.1255C143.582 87.9577 143.047 89.3204 143.443 90.6782C143.457 90.7229 143.471 90.769 143.485 90.8137C141.516 91.1041 139.628 92.1689 138.341 93.6946C137.283 94.9481 136.695 96.7196 137.56 98.2429C137.521 98.269 137.482 98.2968 137.445 98.3262C136.554 98.9945 135.877 99.9838 135.651 101.081C135.208 103.246 136.476 104.809 138.298 105.448C137.829 105.879 137.377 106.338 136.934 106.797C135.943 107.827 134.991 108.953 134.147 110.105C132.437 112.438 130.958 114.991 129.654 117.568C126.972 122.862 125.208 128.595 124.187 134.431C123.672 137.371 123.297 140.332 123.098 143.31C122.868 146.705 122.89 150.109 122.72 153.507C122.556 156.773 122.096 159.95 121.268 163.114C120.475 166.139 119.451 169.096 118.514 172.077C117.457 175.434 116.305 178.774 115.695 182.25C115.385 184.019 115.148 185.795 115.234 187.597C115.321 189.432 115.938 191.017 116.498 192.739C116.64 193.178 117.109 193.368 117.491 193.286C117.552 194.104 117.835 194.909 118.273 195.612C119.202 197.102 120.673 198.08 122.38 198.471C124.304 198.91 126.302 198.881 128.264 198.872C130.393 198.861 132.522 198.857 134.651 198.834C136.88 198.811 139.109 198.785 141.338 198.758C141.334 196.475 141.317 194.191 141.288 191.908C141.13 179.563 140.664 167.202 141.021 154.857C140.978 154.831 140.937 154.799 140.898 154.759C139.925 153.759 138.715 153.085 137.582 152.292C136.941 151.843 137.585 150.806 138.23 151.258C139.185 151.927 140.183 152.526 141.074 153.27C141.119 151.986 141.17 150.701 141.235 149.417C141.274 148.632 142.494 148.67 142.454 149.454C142.258 153.325 142.165 157.199 142.133 161.075C142.031 173.633 142.538 186.187 142.558 198.744C148.541 198.672 154.524 198.599 160.506 198.564C165.372 198.537 170.238 198.509 175.104 198.482C176.125 198.477 176.72 197.766 176.874 196.817C177.157 195.071 176.783 193.246 175.856 191.742C175.76 191.587 175.645 191.447 175.516 191.327C175.571 190.278 175.646 189.228 175.619 188.176C175.58 186.57 175.497 184.962 175.43 183.357C175.294 180.141 175.211 176.921 175.239 173.703C175.29 167.267 175.594 160.832 176.156 154.42C177.281 141.611 179.372 128.914 182.539 116.448C182.77 115.54 183.002 114.631 183.242 113.725C185.371 114.915 187.989 115.399 190.352 115.487C193.315 115.597 196.233 115.004 198.948 113.848C198.925 113.986 198.902 114.122 198.881 114.261C197.952 120.182 197.139 126.119 196.407 132.066C194.948 143.922 193.91 155.84 193.636 167.786C193.56 171.096 193.585 174.398 193.641 177.707C193.697 181.073 193.834 184.632 194.67 187.902C194.762 188.264 194.986 188.477 195.249 188.559C195.248 189.032 195.264 189.507 195.283 189.975C195.345 191.495 195.558 194.654 196.177 196.049C196.78 197.411 197.822 198.508 199.174 199.135C200.892 199.931 202.781 199.775 204.623 199.713C212.631 199.437 220.639 198.985 228.646 198.617C229.762 198.566 230.877 198.517 231.991 198.464C232.982 198.418 234.007 198.382 234.901 197.896C235.917 197.343 236.784 194.5 236.476 193.303C236.42 193.085 236.332 192.869 236.213 192.673Z" fill="black"/>
  <path fill-rule="evenodd" clip-rule="evenodd" d="M215.668 47.4109C215.189 43.8325 217.143 43.1532 215.904 39.7276C213.112 33.3649 204.97 33.3851 199.016 32.7195C192.367 32.2598 185.602 32.9315 179.383 35.4111C177.897 36.0033 176.464 36.7094 175.087 37.5193C173.895 38.2198 174.013 39.6248 174.726 40.4112C169.181 47.7729 171.91 57.9671 167.426 65.7577C166.6 67.1495 165.525 68.3873 164.799 69.8396C163.695 72.0472 163.53 75.2539 165.831 76.8132C169.082 78.689 171.034 75.233 172.502 80.3749C180.068 98.3791 196.345 99.8802 212.111 91.0994C213.474 90.3955 214.866 89.5954 215.914 88.456C218.289 85.9429 218.13 82.3014 218.28 79.0766C218.367 77.1867 218.43 75.2958 218.469 73.4041C218.632 65.7419 216.42 55.0381 215.668 47.4109Z" fill="#FFC59C"/>
  <path fill-rule="evenodd" clip-rule="evenodd" d="M183.347 25.1028C192.825 21.15 203.476 19.8679 213.64 21.236C218.657 21.9104 223.59 23.1782 228.26 25.1349L228.67 25.3077C229.823 25.7926 231.067 26.277 231.925 27.2184C232.925 28.3124 233.165 29.9278 232.387 31.2174C231.782 32.2194 230.729 32.9192 229.619 33.2758C229.996 33.6047 230.352 33.9696 230.685 34.3749C231.245 35.0543 231.26 35.9989 230.615 36.6322C229.373 37.8526 227.782 38.7143 226.086 39.0987C226.247 40.0175 226.114 41.0248 225.681 41.9223C224.437 44.4984 221.15 44.709 218.633 44.4764L218.557 44.4692L218.368 46.0698C218.267 46.9226 217.734 47.5699 216.861 47.6742C216.831 47.6779 216.8 47.68 216.77 47.6819C217.992 52.6961 218.665 57.8472 219.275 62.9661C219.594 65.6382 219.87 68.3152 220.131 70.9934L220.218 71.8862C220.495 74.7735 220.863 77.6926 220.933 80.5949C220.994 83.2284 220.415 85.7233 218.73 87.7951C217.217 89.6525 215.191 91.0166 213.026 92.0089C208.134 94.252 203.009 95.8765 197.655 96.5388L197.298 96.5826C195.232 96.8333 193.104 97.0328 191.087 96.401C189.315 95.8462 187.48 94.4991 187.947 92.4402C188.104 91.7448 189.084 91.7444 189.402 92.2958L189.476 92.4221C189.859 93.0724 190.281 93.6789 190.973 94.0296C191.782 94.4422 192.731 94.5795 193.629 94.6179C196.135 94.724 198.765 94.1793 201.199 93.6271C205.743 92.5953 210.432 90.8292 214.214 88.0514C215.823 86.8712 217.132 85.3737 217.638 83.4105C218.263 80.9903 217.839 78.3106 217.664 75.8536C217.305 70.7838 216.848 65.7204 216.357 60.6616L216.258 59.6499C215.844 55.4204 215.402 51.1886 215.261 46.9431C215.153 46.7857 215.082 46.6081 215.057 46.4151L215.023 46.1379C214.994 45.9005 214.994 45.6839 215.026 45.4851C215.051 44.72 215.096 43.9601 215.164 43.1962C215.175 43.0594 215.186 42.9224 215.195 42.7869C214.394 42.9377 213.588 43.0548 212.779 43.1505C207.095 43.8286 201.343 43.8654 195.652 43.2664C192.813 42.9669 190 42.516 187.199 41.9737C185.774 41.698 184.353 41.3981 182.939 41.0678C181.916 40.8304 180.917 40.5205 179.913 40.2272C178.823 41.7147 178.201 43.5675 178.254 45.4075C178.314 47.507 179.651 49.4505 179.194 51.5799C178.764 53.5727 177.028 54.1413 175.318 54.5856L174.591 54.7717C174.031 54.9166 173.623 55.0604 173.503 55.7239C173.295 56.8632 173.467 58.1577 173.476 59.3097C173.488 60.6724 173.516 62.0357 173.506 63.3977C173.501 64.1024 173.507 64.8104 173.484 65.5145C173.467 66.0144 173.382 66.3535 173.178 66.6705C173.322 66.8628 173.45 67.0696 173.562 67.2881C173.598 67.3594 173.501 67.4311 173.447 67.3716C173.301 67.2099 173.145 67.0633 172.98 66.9314C172.891 67.0341 172.789 67.1378 172.669 67.2485L172.66 67.236C172.287 67.5861 171.709 67.6035 171.271 67.2055L171.157 67.0997C170.836 66.801 170.617 66.5537 170.541 66.074C170.537 66.0494 170.533 66.0249 170.531 66.0004C169.695 65.9458 168.838 66.1176 168.072 66.5107C166.859 67.134 165.99 68.0486 165.458 69.1947C165.649 69.4325 165.874 69.6469 166.138 69.8289C166.176 69.856 166.14 69.9114 166.1 69.8903C165.828 69.7522 165.586 69.5846 165.371 69.3904C165.178 69.8421 165.038 70.3291 164.946 70.8464C164.621 72.6733 165.031 74.93 166.657 76.0265C167.361 76.5013 168.174 76.7719 169.024 76.8011C169.438 76.8152 169.799 76.7562 170.204 76.6695C170.479 76.6108 170.753 76.5216 171.038 76.5304C171.282 76.5379 171.506 76.6058 171.711 76.7341L171.653 76.7374C171.512 76.7463 171.539 76.7531 171.735 76.7591C172.344 76.8039 172.673 77.4334 172.377 77.9629L172.337 78.0448C172.329 78.0614 172.322 78.0751 172.316 78.086L172.29 78.228C172.287 78.2415 172.285 78.2554 172.282 78.2696L172.272 78.2983C172.271 78.3029 172.269 78.3074 172.267 78.3119L173.138 79.7343C174.207 81.4745 175.301 83.2089 176.557 84.807C177.438 85.9279 178.374 87.0292 179.368 88.0529C180.261 88.9728 181.351 89.4365 182.372 90.1697C182.917 90.5587 183.056 91.3425 182.535 91.8284C181.005 93.2566 178.939 92.0215 177.758 90.7861C176.641 89.6152 175.688 88.2189 174.872 86.8254C173.424 84.3476 172.291 81.7254 171.847 78.9031C171.62 79.099 171.334 79.2169 171.046 79.3072C170.468 79.4878 169.836 79.5507 169.232 79.5535C168.074 79.5561 166.925 79.24 165.899 78.7111C161.725 76.5615 161.289 70.4945 163.988 67.0076C163.67 65.9843 163.509 64.8796 163.326 63.9362L163.243 63.5144C162.315 58.8035 161.748 53.8561 163.787 49.3306C164.049 48.7467 164.341 48.179 164.683 47.6372C164.957 47.2017 165.42 46.743 165.559 46.2423C165.867 45.1427 164.21 43.9262 163.743 43.0316C163.194 41.9819 163.149 40.7616 163.969 39.8423C164.073 39.7266 164.186 39.6201 164.308 39.5279C163.6 38.1453 163.618 36.4342 164.647 35.1233C165.323 34.2592 166.333 33.6709 167.421 33.5167C168.086 33.4227 168.88 33.4898 169.601 33.7164C173.695 30.1427 178.332 27.1944 183.347 25.1028ZM166.638 70.8802C167.73 69.9755 168.918 69.5208 170.362 69.6887C171.814 69.8583 173.548 70.5144 174.365 71.7889C175.01 72.7958 173.589 74.1999 172.621 73.4287C171.74 72.7258 171.161 71.9452 170.052 71.548C169.056 71.1925 167.817 70.9454 166.758 71.099C166.642 71.1152 166.53 70.9684 166.638 70.8802Z" fill="black"/>
  <path fill-rule="evenodd" clip-rule="evenodd" d="M201.506 79.0327C201.753 78.6334 202.302 78.2734 202.793 78.3463C204.992 78.6729 204.906 81.3483 204.006 82.884C203.208 84.2458 201.619 85.0107 200.058 84.8439C198.418 84.6685 197.046 83.6589 196.477 82.1019C196.101 81.072 195.97 79.188 197.076 78.5377C197.096 78.5256 197.129 78.5298 197.145 78.5487C197.646 79.1696 197.639 80.0785 198.073 80.766C198.477 81.4055 199.119 81.943 199.888 82.0465C200.461 82.124 201.05 81.9343 201.291 81.4245C201.421 81.1488 201.412 80.9966 201.372 80.8028L201.336 80.6344C201.21 80.0445 201.158 79.5967 201.506 79.0327ZM202.457 67.3173C203.586 68.0522 205.29 69.7374 203.998 71.4337C202.494 72.9182 200.449 71.1003 199.44 70.2755C198.5 69.6315 197.374 71.179 198.242 71.924C205.543 77.6856 208.886 67.698 203.064 66.5126C202.423 66.382 202.162 67.0916 202.457 67.3173ZM190.45 62.1465C191.189 61.1083 192.797 61.314 193.148 62.5837C193.337 63.2714 193.027 63.8749 193.022 64.5557C193.017 65.1309 192.959 65.7702 192.766 66.3214C192.325 67.5783 191.156 68.4397 189.807 68.361C188.462 68.2826 187.302 67.3942 186.775 66.1769C186.247 64.955 186.405 63.7121 186.855 62.4999C186.877 62.4417 186.955 62.4156 187 62.4666C187.472 63.0004 187.813 63.5591 188.165 64.1515L188.525 64.7587C188.801 65.216 189.205 65.8018 189.747 65.7824L189.828 65.7769C189.979 65.7686 189.955 65.7977 190.077 65.5964C190.134 65.5033 190.129 65.3268 190.159 65.2157L190.169 65.1782L190.164 65.1577C190.155 65.1031 190.146 65.0007 190.143 64.8233L190.142 64.7841C190.128 63.9542 189.927 62.8821 190.45 62.1465ZM208.336 63.4025C208.251 62.0431 210.166 61.8006 210.769 62.8231C211.083 63.3564 211.159 64.0164 211.213 64.6412L211.238 64.9377C211.294 65.5794 211.303 66.2454 211.007 66.8333C210.541 67.7592 209.575 68.2265 208.552 68.1164C207.575 68.011 206.699 67.4158 206.255 66.5394C205.858 65.7574 205.487 64.243 206.022 63.4565C206.054 63.4088 206.116 63.4045 206.157 63.4432C206.626 63.8859 206.68 64.6687 206.95 65.2349C207.227 65.8188 207.658 66.3929 208.335 66.5011C208.982 66.6046 209.242 66.2573 209.095 65.6326C208.906 64.8262 208.39 64.2657 208.336 63.4025ZM191.213 54.1031L191.528 53.9934C192.608 53.6228 194.089 53.2016 194.93 54.0966C195.449 54.6485 195.527 55.4404 195.125 56.082C194.637 56.8593 193.806 56.8532 193 56.9452C192.083 57.0497 191.147 57.2733 190.287 57.6066C189.317 57.9821 188.414 58.4596 187.526 58.9967C186.683 59.507 185.832 60.3573 184.837 60.4919C184.796 60.4974 184.751 60.4786 184.742 60.4339C184.547 59.4592 185.201 58.5259 185.781 57.788C186.484 56.8946 187.325 56.1694 188.259 55.5247C189.161 54.9023 190.182 54.464 191.213 54.1031ZM210.504 58.1404L210.6 58.1266C211.251 58.0387 211.837 58.0816 212.309 58.6094C212.67 59.0121 212.798 59.5236 212.604 60.0354C212.426 60.5076 212.044 60.9812 211.51 61.0648C209.704 61.3474 207.717 61.2305 205.921 60.9193C205.099 60.7768 204.27 60.608 203.473 60.3574L203.106 60.2388C202.441 60.0264 201.679 59.8025 201.206 59.2938C201.037 59.111 201.145 58.8602 201.358 58.7845C202.219 58.4775 203.379 58.6906 204.287 58.6924C205.344 58.6946 206.403 58.648 207.457 58.5713C208.486 58.4962 209.486 58.2949 210.504 58.1404Z" fill="black"/>
  <defs>
    <filter id="filter0_d_1661_26690" x="0" y="0" width="364" height="337.285" filterUnits="userSpaceOnUse" color-interpolation-filters="sRGB">
      <feFlood flood-opacity="0" result="BackgroundImageFix"/>
      <feColorMatrix in="SourceAlpha" type="matrix" values="0 0 0 0 0 0 0 0 0 0 0 0 0 0 0 0 0 0 127 0" result="hardAlpha"/>
      <feOffset dy="4.4526"/>
      <feColorMatrix type="matrix" values="0 0 0 0 0.0941176 0 0 0 0 0.0980392 0 0 0 0 0.121569 0 0 0 1 0"/>
      <feBlend mode="normal" in2="BackgroundImageFix" result="effect1_dropShadow_1661_26690"/>
      <feBlend mode="normal" in="SourceGraphic" in2="effect1_dropShadow_1661_26690" result="shape"/>
    </filter>
  </defs>
</svg>