<svg width="38" height="38" viewBox="0 0 38 38" fill="none" xmlns="http://www.w3.org/2000/svg">
<path d="M14.7812 19.0002C14.7812 16.6733 16.6743 14.7802 19.0012 14.7802C21.3281 14.7802 23.2212 16.6733 23.2212 19.0002C23.2212 21.3271 21.3281 23.2202 19.0012 23.2202C16.6743 23.2202 14.7812 21.3271 14.7812 19.0002Z" fill="#186B80"/>
<path fill-rule="evenodd" clip-rule="evenodd" d="M9.71726 13.9362C9.71726 11.6093 11.6104 9.71624 13.9373 9.71624H24.0652C26.3922 9.71624 28.2852 11.6093 28.2852 13.9362V24.0642C28.2852 26.3911 26.3922 28.2842 24.0652 28.2842H13.9373C11.6104 28.2842 9.71726 26.3911 9.71726 24.0642V13.9362ZM13.0932 19.0002C13.0932 22.2581 15.7442 24.9082 19.0012 24.9082C22.2582 24.9082 24.9092 22.2581 24.9092 19.0002C24.9092 15.7424 22.2582 13.0922 19.0012 13.0922C15.7442 13.0922 13.0932 15.7424 13.0932 19.0002ZM25.3312 13.9362C26.0304 13.9362 26.5972 13.3694 26.5972 12.6702C26.5972 11.971 26.0304 11.4042 25.3312 11.4042C24.6321 11.4042 24.0652 11.971 24.0652 12.6702C24.0652 13.3694 24.6321 13.9362 25.3312 13.9362Z" fill="#186B80"/>
<path fill-rule="evenodd" clip-rule="evenodd" d="M10.5756 34.1998L27.4555 34.1838C31.1691 34.1804 34.205 31.1395 34.2008 27.425L34.1847 10.545C34.1805 6.83145 31.1396 3.79643 27.426 3.79981L10.546 3.81584C6.83243 3.82006 3.79741 6.86099 3.80078 10.5746L3.81682 27.4546C3.82104 31.1682 6.86197 34.2032 10.5756 34.1998ZM13.9373 29.9722H24.0652C27.3222 29.9722 29.9732 27.3221 29.9732 24.0642V13.9362C29.9732 10.6784 27.3222 8.02824 24.0652 8.02824H13.9373C10.6803 8.02824 8.02926 10.6784 8.02926 13.9362V24.0642C8.02926 27.3221 10.6803 29.9722 13.9373 29.9722Z" fill="#186B80"/>
</svg>
