<svg width="38" height="38" viewBox="0 0 38 38" fill="none" xmlns="http://www.w3.org/2000/svg">
<path fill-rule="evenodd" clip-rule="evenodd" d="M15.0579 26.246C16.379 27.0288 17.8856 27.4418 19.4201 27.4379C24.1441 27.4379 27.9887 23.5921 27.9924 18.8632C27.9942 17.7374 27.7734 16.6227 27.343 15.5822C26.9125 14.5419 26.2816 13.5965 25.4856 12.8C24.6915 12.0036 23.7452 11.3718 22.7062 10.9406C21.6671 10.5095 20.552 10.2874 19.4257 10.2873C14.6942 10.2873 10.8497 14.1342 10.8497 18.8614C10.846 20.4748 11.3024 22.0562 12.1634 23.4206L12.3656 23.7453L11.4991 26.9073L14.7425 26.0591L15.0579 26.246ZM22.3592 20.181C22.4501 20.2141 22.695 20.3272 22.9771 20.4609C23.4242 20.6736 23.9623 20.9385 24.1219 21.0179L24.2239 21.0699L24.4039 21.1624C24.506 21.218 24.5765 21.2672 24.6136 21.3278C24.6767 21.434 24.6767 21.9504 24.4614 22.5517C24.2462 23.153 23.2183 23.7027 22.7229 23.7756C22.4148 23.8277 22.1031 23.8389 21.7933 23.8098C21.6856 23.7997 21.5799 23.7848 21.4741 23.7649C21.3479 23.7414 21.2236 23.7111 21.1012 23.6741L20.6095 23.5088L20.2829 23.3906C20.0862 23.3164 19.8691 23.2306 19.6335 23.1292C17.2205 22.0882 15.5899 19.7497 15.2791 19.304L15.2323 19.239C15.1859 19.1769 15.0523 18.9974 14.8946 18.7383C14.813 18.6053 14.7258 18.4513 14.6404 18.2816C14.4846 17.97 14.338 17.605 14.2545 17.2186C14.2081 17.0082 14.1803 16.7914 14.1803 16.5732C14.1803 15.3799 14.7698 14.7555 15.0372 14.4724L15.082 14.4233C15.1692 14.3255 15.275 14.2465 15.3919 14.1912C15.5106 14.136 15.6387 14.1057 15.7704 14.1021H15.8242L16.0209 14.1027L16.2621 14.1099L16.3215 14.1108C16.4718 14.1101 16.661 14.1093 16.8429 14.5533C17.0525 15.0697 17.5702 16.3382 17.6352 16.4676C17.6537 16.5038 17.6704 16.5414 17.6815 16.5806C17.7131 16.6814 17.7168 16.793 17.6556 16.9187L17.6203 16.9907L17.6132 17.0054C17.552 17.1319 17.5067 17.2255 17.3995 17.3496C17.3531 17.4021 17.3067 17.4587 17.2622 17.5151L17.2455 17.5339L17.2232 17.5608L17.2151 17.5707C17.1439 17.657 17.0761 17.7391 17.0117 17.8008C16.8818 17.9266 16.7482 18.072 16.8985 18.3248C17.0488 18.5777 17.5684 19.4229 18.3328 20.1056C18.7299 20.4603 19.1028 20.716 19.422 20.9033C19.7597 21.1006 20.038 21.2221 20.2254 21.3039L20.4054 21.3853C20.6614 21.5159 20.8099 21.4921 20.9602 21.3206C21.1123 21.1491 21.6021 20.5721 21.7784 20.3116C21.9528 20.051 22.1235 20.0948 22.3592 20.181Z" fill="#186B80"/>
<path fill-rule="evenodd" clip-rule="evenodd" d="M4.62913 7.94948C3.80078 9.57521 3.80078 11.7034 3.80078 15.9598V22.0398C3.80078 26.2962 3.80078 28.4244 4.62913 30.0501C5.35777 31.4802 6.52042 32.6428 7.95045 33.3715C9.57618 34.1998 11.7044 34.1998 15.9608 34.1998H22.0408C26.2972 34.1998 28.4254 34.1998 30.0511 33.3715C31.4811 32.6428 32.6438 31.4802 33.3724 30.0501C34.2008 28.4244 34.2008 26.2962 34.2008 22.0398V15.9598C34.2008 11.7034 34.2008 9.57521 33.3724 7.94948C32.6438 6.51945 31.4811 5.35679 30.0511 4.62816C28.4254 3.7998 26.2972 3.7998 22.0408 3.7998H15.9608C11.7044 3.7998 9.57618 3.7998 7.95045 4.62816C6.52042 5.35679 5.35777 6.51945 4.62913 7.94948ZM23.3686 9.32985C24.0347 9.60573 24.6674 9.95038 25.2574 10.3574C25.7788 10.7163 26.2649 11.1237 26.7103 11.5753C27.1537 12.0168 27.5545 12.4969 27.9089 13.009C28.3227 13.6054 28.6715 14.2454 28.9517 14.9189C29.4712 16.1705 29.7365 17.5126 29.7328 18.8674C29.7328 24.5526 25.1053 29.1771 19.4183 29.1771C17.6982 29.1764 16.0042 28.7444 14.492 27.9205L9.02578 29.3552L10.4897 24.013C9.58613 22.446 9.11113 20.6686 9.11299 18.8596C9.11299 13.1744 13.7387 8.54985 19.4183 8.54985C20.7746 8.54568 22.1161 8.81078 23.3686 9.32985Z" fill="#186B80"/>
</svg>
