<svg xmlns="http://www.w3.org/2000/svg" xmlns:xlink="http://www.w3.org/1999/xlink" version="1.1" width="810pt" height="1440pt" viewBox="0 0 810 1440">
<defs>
<clipPath id="clip_0">
<path transform="matrix(.24,0,0,.24,0,0)" d="M0 0H3375V6000H0Z" fill-rule="evenodd"/>
</clipPath>
<clipPath id="clip_1">
<path transform="matrix(.24,0,0,.24,0,0)" d="M0 0H3375V6000H0Z" fill-rule="evenodd"/>
</clipPath>
<clipPath id="clip_2">
<path transform="matrix(.24,0,0,.24,0,0)" d="M0 .00000000000071054276H3375V6000H0Z" fill-rule="evenodd"/>
</clipPath>
<clipPath id="clip_3">
<path transform="matrix(.24,0,0,.24,0,0)" d="M3.125 3.125H1175V293.75H3.125Z" fill-rule="evenodd"/>
</clipPath>
<clipPath id="clip_4">
<path transform="matrix(.24,0,0,.24,0,0)" d="M1179.5404 3.125H2351.4156V293.75H1179.5404Z" fill-rule="evenodd"/>
</clipPath>
<clipPath id="clip_5">
<path transform="matrix(.24,0,0,.24,0,0)" d="M2355.9559 3.125H3371.5809V293.75H2355.9559Z" fill-rule="evenodd"/>
</clipPath>
<clipPath id="clip_6">
<path transform="matrix(.24,0,0,.24,0,0)" d="M3.125 297.26564H3371.875V587.8906H3.125Z" fill-rule="evenodd"/>
</clipPath>
<clipPath id="clip_7">
<path transform="matrix(.24,0,0,.24,0,0)" d="M3.125 591.40628H1175V1110.1563H3.125Z" fill-rule="evenodd"/>
</clipPath>
<clipPath id="clip_8">
<path transform="matrix(.24,0,0,.24,0,0)" d="M1179.5404 591.40628H2351.4156V1110.1563H1179.5404Z" fill-rule="evenodd"/>
</clipPath>
<clipPath id="clip_9">
<path transform="matrix(.24,0,0,.24,0,0)" d="M2355.9559 591.40628H3371.5809V1110.1563H2355.9559Z" fill-rule="evenodd"/>
</clipPath>
<clipPath id="clip_10">
<path transform="matrix(.24,0,0,.24,0,0)" d="M3.125 1114.3888H1175V1517.5138H3.125Z" fill-rule="evenodd"/>
</clipPath>
<clipPath id="clip_11">
<path transform="matrix(.24,0,0,.24,0,0)" d="M1179.5404 1114.3888H2351.4156V1517.5138H1179.5404Z" fill-rule="evenodd"/>
</clipPath>
<clipPath id="clip_12">
<path transform="matrix(.24,0,0,.24,0,0)" d="M2355.9559 1114.3888H3371.5809V1517.5138H2355.9559Z" fill-rule="evenodd"/>
</clipPath>
<clipPath id="clip_13">
<path transform="matrix(.24,0,0,.24,0,0)" d="M3.125 1520.1203H1175V1963.8703H3.125Z" fill-rule="evenodd"/>
</clipPath>
<clipPath id="clip_14">
<path transform="matrix(.24,0,0,.24,0,0)" d="M1179.5404 1520.1203H2351.4156V1963.8703H1179.5404Z" fill-rule="evenodd"/>
</clipPath>
<clipPath id="clip_15">
<path transform="matrix(.24,0,0,.24,0,0)" d="M2355.9559 1520.1203H3371.5809V1963.8703H2355.9559Z" fill-rule="evenodd"/>
</clipPath>
<clipPath id="clip_16">
<path transform="matrix(.24,0,0,.24,0,0)" d="M3.125 1965.7055H1175V2368.8306H3.125Z" fill-rule="evenodd"/>
</clipPath>
<clipPath id="clip_17">
<path transform="matrix(.24,0,0,.24,0,0)" d="M1179.5404 1965.7055H2351.4156V2368.8306H1179.5404Z" fill-rule="evenodd"/>
</clipPath>
<clipPath id="clip_18">
<path transform="matrix(.24,0,0,.24,0,0)" d="M2355.9559 1965.7055H3371.5809V2368.8306H2355.9559Z" fill-rule="evenodd"/>
</clipPath>
<clipPath id="clip_19">
<path transform="matrix(.24,0,0,.24,0,0)" d="M3.125 2371.437H1175V2774.562H3.125Z" fill-rule="evenodd"/>
</clipPath>
<clipPath id="clip_20">
<path transform="matrix(.24,0,0,.24,0,0)" d="M1179.5404 2371.437H2351.4156V2774.562H1179.5404Z" fill-rule="evenodd"/>
</clipPath>
<clipPath id="clip_21">
<path transform="matrix(.24,0,0,.24,0,0)" d="M2355.9559 2371.437H3371.5809V2774.562H2355.9559Z" fill-rule="evenodd"/>
</clipPath>
<clipPath id="clip_22">
<path transform="matrix(.24,0,0,.24,0,0)" d="M3.125 2777.1685H1175V3149.0435H3.125Z" fill-rule="evenodd"/>
</clipPath>
<clipPath id="clip_23">
<path transform="matrix(.24,0,0,.24,0,0)" d="M1179.5404 2777.1685H2351.4156V3149.0435H1179.5404Z" fill-rule="evenodd"/>
</clipPath>
<clipPath id="clip_24">
<path transform="matrix(.24,0,0,.24,0,0)" d="M2355.9559 2777.1685H3371.5809V3149.0435H2355.9559Z" fill-rule="evenodd"/>
</clipPath>
<clipPath id="clip_25">
<path transform="matrix(.24,0,0,.24,0,0)" d="M3.125 3151.0169H1175V3513.5169H3.125Z" fill-rule="evenodd"/>
</clipPath>
<clipPath id="clip_26">
<path transform="matrix(.24,0,0,.24,0,0)" d="M1179.5404 3151.0169H2351.4156V3513.5169H1179.5404Z" fill-rule="evenodd"/>
</clipPath>
<clipPath id="clip_27">
<path transform="matrix(.24,0,0,.24,0,0)" d="M2355.9559 3151.0169H3371.5809V3513.5169H2355.9559Z" fill-rule="evenodd"/>
</clipPath>
<clipPath id="clip_28">
<path transform="matrix(.24,0,0,.24,0,0)" d="M3.125 3516.8946H1175V3776.2696H3.125Z" fill-rule="evenodd"/>
</clipPath>
<clipPath id="clip_29">
<path transform="matrix(.24,0,0,.24,0,0)" d="M1179.5404 3516.8946H2351.4156V3776.2696H1179.5404Z" fill-rule="evenodd"/>
</clipPath>
<clipPath id="clip_30">
<path transform="matrix(.24,0,0,.24,0,0)" d="M2355.9559 3516.8946H3371.5809V3776.2696H2355.9559Z" fill-rule="evenodd"/>
</clipPath>
<clipPath id="clip_31">
<path transform="matrix(.24,0,0,.24,0,0)" d="M3.125 3779.1519H1175V4110.402H3.125Z" fill-rule="evenodd"/>
</clipPath>
<clipPath id="clip_32">
<path transform="matrix(.24,0,0,.24,0,0)" d="M1179.5404 3779.1519H2351.4156V4110.402H1179.5404Z" fill-rule="evenodd"/>
</clipPath>
<clipPath id="clip_33">
<path transform="matrix(.24,0,0,.24,0,0)" d="M2355.9559 3779.1519H3371.5809V4110.402H2355.9559Z" fill-rule="evenodd"/>
</clipPath>
<clipPath id="clip_34">
<path transform="matrix(.24,0,0,.24,0,0)" d="M3.125 4113.1467H1175V4413.1467H3.125Z" fill-rule="evenodd"/>
</clipPath>
<clipPath id="clip_35">
<path transform="matrix(.24,0,0,.24,0,0)" d="M1179.5404 4113.1467H2351.4156V4413.1467H1179.5404Z" fill-rule="evenodd"/>
</clipPath>
<clipPath id="clip_36">
<path transform="matrix(.24,0,0,.24,0,0)" d="M2355.9559 4113.1467H3371.5809V4413.1467H2355.9559Z" fill-rule="evenodd"/>
</clipPath>
<clipPath id="clip_37">
<path transform="matrix(.24,0,0,.24,0,0)" d="M3.125 4415.258H1175V5546.508H3.125Z" fill-rule="evenodd"/>
</clipPath>
<clipPath id="clip_38">
<path transform="matrix(.24,0,0,.24,0,0)" d="M1179.5404 4415.258H2351.4156V5546.508H1179.5404Z" fill-rule="evenodd"/>
</clipPath>
<clipPath id="clip_39">
<path transform="matrix(.24,0,0,.24,0,0)" d="M2355.9559 4415.258H3371.5809V5546.508H2355.9559Z" fill-rule="evenodd"/>
</clipPath>
<clipPath id="clip_40">
<path transform="matrix(.24,0,0,.24,0,0)" d="M3.125 5549.6096H1175V5996.4846H3.125Z" fill-rule="evenodd"/>
</clipPath>
<clipPath id="clip_41">
<path transform="matrix(.24,0,0,.24,0,0)" d="M1179.5404 5549.6096H2351.4156V5996.4846H1179.5404Z" fill-rule="evenodd"/>
</clipPath>
<clipPath id="clip_42">
<path transform="matrix(.24,0,0,.24,0,0)" d="M2355.9559 5549.6096H3371.5809V5996.4846H2355.9559Z" fill-rule="evenodd"/>
</clipPath>
<clipPath id="clip_43">
<path transform="matrix(.24,0,0,.24,0,0)" d="M0 .00000000000071054276H3375V6000H0Z" fill-rule="evenodd"/>
</clipPath>
</defs>
<g clip-path="url(#clip_0)">
<path transform="matrix(.75,0,0,.75,0,0)" d="M0 0H1080V1920H0Z" fill="#ffffff"/>
</g>
<g clip-path="url(#clip_1)">
<path transform="matrix(.75,0,0,.75,0,0)" d="M0 0H1080V1920H0Z" fill="#ffffff"/>
</g>
<g clip-path="url(#clip_2)">
<path transform="matrix(.75,0,0,.75,0,.00000000000017053026)" d="M.25 .25V94.875H377.20295V.25H.25ZM376.70295 .25V94.875H753.6559V.25H376.70295ZM753.1559 .25V94.875H1079.75V.25H753.1559Z" fill="#186b80"/>
<path transform="matrix(.75,0,0,.75,0,.00000000000017053026)" d="M.25 94.375V189H1079.75V94.375H.25Z" fill="#fffbf0"/>
<path transform="matrix(.75,0,0,.75,0,.00000000000017053026)" d="M.25 188.5V356.3544H377.20295V188.5H.25ZM376.70295 188.5V356.3544H753.6559V188.5H376.70295ZM753.1559 188.5V356.3544H1079.75V188.5H753.1559ZM.25 355.8544V486.18849H377.20295V355.8544H.25ZM376.70295 355.8544V486.18849H753.6559V355.8544H376.70295ZM753.1559 355.8544V486.18849H1079.75V355.8544H753.1559ZM.25 485.68849V628.77578H377.20295V485.68849H.25ZM376.70295 485.68849V628.77578H753.6559V485.68849H376.70295ZM753.1559 485.68849V628.77578H1079.75V485.68849H753.1559ZM.25 628.27578V758.60989H377.20295V628.27578H.25ZM376.70295 628.27578V758.60989H753.6559V628.27578H376.70295ZM753.1559 628.27578V758.60989H1079.75V628.27578H753.1559ZM.25 758.10989V888.4439H377.20295V758.10989H.25ZM376.70295 758.10989V888.4439H753.6559V758.10989H376.70295ZM753.1559 758.10989V888.4439H1079.75V758.10989H753.1559ZM.25 887.9439V1008.0754H377.20295V887.9439H.25ZM376.70295 887.9439V1008.0754H753.6559V887.9439H376.70295ZM753.1559 887.9439V1008.0754H1079.75V887.9439H753.1559ZM.25 1007.5754V1125.1563H377.20295V1007.5754H.25ZM376.70295 1007.5754V1125.1563H753.6559V1007.5754H376.70295ZM753.1559 1007.5754V1125.1563H1079.75V1007.5754H753.1559ZM.25 1124.6563V1209.0786H377.20295V1124.6563H.25ZM376.70295 1124.6563V1209.0786H753.6559V1124.6563H376.70295ZM753.1559 1124.6563V1209.0786H1079.75V1124.6563H753.1559ZM.25 1208.5786V1315.9569H377.20295V1208.5786H.25ZM376.70295 1208.5786V1315.9569H753.6559V1208.5786H376.70295ZM753.1559 1208.5786V1315.9569H1079.75V1208.5786H753.1559ZM.25 1315.4569V1412.6326H377.20295V1315.4569H.25ZM376.70295 1315.4569V1412.6326H753.6559V1315.4569H376.70295ZM753.1559 1315.4569V1412.6326H1079.75V1315.4569H753.1559ZM.25 1412.1326V1775.625H377.20295V1412.1326H.25ZM376.70295 1412.1326V1775.625H753.6559V1412.1326H376.70295ZM753.1559 1412.1326V1775.625H1079.75V1412.1326H753.1559ZM.25 1775.125V1919.75H377.20295V1775.125H.25ZM376.70295 1775.125V1919.75H753.6559V1775.125H376.70295ZM753.1559 1775.125V1919.75H1079.75V1775.125H753.1559Z" fill="#ff5757"/>
</g>
<g clip-path="url(#clip_3)">
<text fill="#ffffff" xml:space="preserve" transform="matrix(.75 0 0 .75 1.5 1.5)" font-size="35.99" font-family="CanvaSans" font-weight="bold"><tspan y="59" x="0 21.29544 31.732316 65.25682">Time</tspan></text>
</g>
<g clip-path="url(#clip_4)">
<text fill="#ffffff" xml:space="preserve" transform="matrix(.75 0 0 .75 283.8397 1.5)" font-size="35.99" font-family="CanvaSans" font-weight="bold"><tspan y="59" x="0 22.08612 42.92473 63.99176 86.69284">Event</tspan></text>
</g>
<g clip-path="url(#clip_5)">
<text fill="#ffffff" xml:space="preserve" transform="matrix(.75 0 0 .75 566.1794 1.5)" font-size="35.99" font-family="CanvaSans" font-weight="bold"><tspan y="59" x="0 24.387848 45.45488 68.15596 90.57591">Venue</tspan></text>
</g>
<g clip-path="url(#clip_6)">
<text fill="#186b80" xml:space="preserve" transform="matrix(.75 0 0 .75 1.5 72.09375)" font-size="35.99" font-family="CanvaSans" font-weight="bold"><tspan y="59" x="0 27.462693 52.500658 75.570728 89.43385 108.392429 116.87898 129.65274 152.03755 167.09548 189.79656 198.28311 223.32108 246.53171 261.7302 272.16706 283.30677 293.30439 301.79096 321.8389 346.94715 366.9951 389.37989">DAY-1 (4th April, 2024)</tspan></text>
</g>
<g clip-path="url(#clip_7)">
<text fill="#ffffff" xml:space="preserve" transform="matrix(.75 0 0 .75 1.5 142.6875)" font-size="35.99" font-family="CanvaSans" font-weight="bold"><tspan y="95" x="0 23.228196 33.155534 54.415834 79.52408 88.010639 113.0486 146.20413 160.06726 179.02584 197.9844 207.91175 233.01999 258.12825 266.6148 291.65278">9:30 AM-11:00 AM</tspan></text>
</g>
<g clip-path="url(#clip_8)">
<text fill="#ffffff" xml:space="preserve" transform="matrix(.75 0 0 .75 283.8397 142.6875)" font-size="35.99" font-family="CanvaSans" font-weight="bold"><tspan y="95" x="0 11.772232 34.473314 54.907808 77.32776 97.481128 119.90108 135.09957 155.53406 170.59198 181.02886 203.55423">Inauguration</tspan></text>
</g>
<g clip-path="url(#clip_9)">
<text fill="#ffffff" xml:space="preserve" transform="matrix(.75 0 0 .75 566.1794 142.6875)" font-size="35.99" font-family="CanvaSans" font-weight="bold"><tspan y="95" x="0 23.474183 43.908678 66.60976 89.83795 110.272449">Pandal</tspan></text>
</g>
<g clip-path="url(#clip_10)">
<text fill="#ffffff" xml:space="preserve" transform="matrix(.75 0 0 .75 1.5 268.2033)" font-size="35.99" font-family="CanvaSans" font-weight="bold"><tspan y="76" x="0 25.037964 39.02408 54.082 75.14903 90.34752 98.834079 110.60631 133.30739 153.74188 176.16184 196.3152 211.51369 231.94818 247.0061 257.443 279.96839">After Inaugration</tspan></text>
</g>
<g clip-path="url(#clip_11)">
<text fill="#ffffff" xml:space="preserve" transform="matrix(.75 0 0 .75 283.8397 268.2033)" font-size="35.99" font-family="CanvaSans" font-weight="bold"><tspan y="76" x="0 25.125809 47.54576 64.83513 82.1245 90.61105 124.24098 134.67786 149.87635">Buzz Wire</tspan></text>
</g>
<g clip-path="url(#clip_12)">
<text fill="#ffffff" xml:space="preserve" transform="matrix(.75 0 0 .75 566.1794 268.2033)" font-size="35.99" font-family="CanvaSans" font-weight="bold"><tspan y="76" x="0 22.068543 37.126466 57.56096 68.70065 79.84035">Stalls</tspan></text>
</g>
<g clip-path="url(#clip_13)">
<text fill="#ffffff" xml:space="preserve" transform="matrix(.75 0 0 .75 1.5 365.57887)" font-size="35.99" font-family="CanvaSans" font-weight="bold"><tspan y="83" x="0 25.037964 39.02408 54.082 75.14903 90.34752 98.834079 110.60631 133.30739 153.74188 176.16184 196.3152 211.51369 231.94818 247.0061 257.443 279.96839">After Inaugration</tspan></text>
</g>
<g clip-path="url(#clip_14)">
<text fill="#ffffff" xml:space="preserve" transform="matrix(.75 0 0 .75 283.8397 365.57887)" font-size="35.99" font-family="CanvaSans" font-weight="bold"><tspan y="83" x="0 26.795014 49.214967 71.916049 80.4026 102.471149 125.172229 147.6976 170.22298 185.2809 195.71778 218.41886">Gun Shooting</tspan></text>
</g>
<g clip-path="url(#clip_15)">
<text fill="#ffffff" xml:space="preserve" transform="matrix(.75 0 0 .75 566.1794 365.57887)" font-size="35.99" font-family="CanvaSans" font-weight="bold"><tspan y="83" x="0 22.068543 37.126466 57.56096 68.70065 79.84035">Stalls</tspan></text>
</g>
<g clip-path="url(#clip_16)">
<text fill="#ffffff" xml:space="preserve" transform="matrix(.75 0 0 .75 1.5 472.5193)" font-size="35.99" font-family="CanvaSans" font-weight="bold"><tspan y="76" x="0 25.037964 39.02408 54.082 75.14903 90.34752 98.834079 110.60631 133.30739 153.74188 176.16184 196.3152 211.51369 231.94818 247.0061 257.443 279.96839">After Inaugration</tspan></text>
</g>
<g clip-path="url(#clip_17)">
<text fill="#ffffff" xml:space="preserve" transform="matrix(.75 0 0 .75 283.8397 472.5193)" font-size="35.99" font-family="CanvaSans" font-weight="bold"><tspan y="76" x="0 27.462693 47.897188 63.095674 78.153598 86.64015 108.708698 131.40978 153.93515 176.46053 191.51845 201.95532 224.6564">Dart Shooting</tspan></text>
</g>
<g clip-path="url(#clip_18)">
<text fill="#ffffff" xml:space="preserve" transform="matrix(.75 0 0 .75 566.1794 472.5193)" font-size="35.99" font-family="CanvaSans" font-weight="bold"><tspan y="76" x="0 22.068543 37.126466 57.56096 68.70065 79.84035">Stalls</tspan></text>
</g>
<g clip-path="url(#clip_19)">
<text fill="#ffffff" xml:space="preserve" transform="matrix(.75 0 0 .75 1.5 569.8949)" font-size="35.99" font-family="CanvaSans" font-weight="bold"><tspan y="76" x="0 25.037964 39.02408 54.082 75.14903 90.34752 98.834079 110.60631 133.30739 153.74188 176.16184 196.3152 211.51369 231.94818 247.0061 257.443 279.96839">After Inaugration</tspan></text>
</g>
<g clip-path="url(#clip_20)">
<text fill="#ffffff" xml:space="preserve" transform="matrix(.75 0 0 .75 283.8397 569.8949)" font-size="35.99" font-family="CanvaSans" font-weight="bold"><tspan y="76" x="0 25.19609 47.616044 58.755739 73.81366 96.23361 111.4321 131.8666 143.00629 151.49285 173.57897 192.22127 214.92235 225.35923 248.56986 259.0067 274.06465 284.50154 307.02693 329.728">Cultural Exhibition&#x00a0;</tspan></text>
</g>
<g clip-path="url(#clip_21)">
<text fill="#ffffff" xml:space="preserve" transform="matrix(.75 0 0 .75 566.1794 569.8949)" font-size="35.99" font-family="CanvaSans" font-weight="bold"><tspan y="76" x="0 22.068543 37.126466 57.56096 68.70065 79.84035">Stalls</tspan></text>
</g>
<g clip-path="url(#clip_22)">
<text fill="#ffffff" xml:space="preserve" transform="matrix(.75 0 0 .75 1.5 667.2704)" font-size="35.99" font-family="CanvaSans" font-weight="bold"><tspan y="71" x="0 18.958573 37.917146 47.844484 72.95273 98.060977 106.54753 131.5855 164.74103 185.57964 194.0662 213.02477 233.07271 243.00005 264.26036 289.3686 297.85517 321.32936">11:00 AM&#x2013; 12:30 PM</tspan></text>
</g>
<g clip-path="url(#clip_23)">
<text fill="#ffffff" xml:space="preserve" transform="matrix(.75 0 0 .75 283.8397 667.2704)" font-size="35.99" font-family="CanvaSans" font-weight="bold"><tspan y="71" x="0 22.068543 45.542726 57.314958 82.51105 90.997608 124.15314 149.1911 174.38719 199.42516">SPIC MACAY</tspan></text>
</g>
<g clip-path="url(#clip_24)">
<text fill="#ffffff" xml:space="preserve" transform="matrix(.75 0 0 .75 566.1794 667.2704)" font-size="35.99" font-family="CanvaSans" font-weight="bold"><tspan y="71" x="0 23.474183 43.908678 66.60976 89.83795 110.272449">Pandal</tspan></text>
</g>
<g clip-path="url(#clip_25)">
<text fill="#ffffff" xml:space="preserve" transform="matrix(.75 0 0 .75 1.5 756.994)" font-size="35.99" font-family="CanvaSans" font-weight="bold"><tspan y="70" x="0 18.958573 28.88591 50.14621 75.254459 83.74101 107.215198 140.37073 148.85729 162.72042 171.20697 196.31522 217.57552 227.50286 252.6111 277.71937 286.20594 309.6801 342.83564">1:30 PM - 03:00 PM&#x00a0;</tspan></text>
</g>
<g clip-path="url(#clip_26)">
<text fill="#ffffff" xml:space="preserve" transform="matrix(.75 0 0 .75 283.8397 756.994)" font-size="35.99" font-family="CanvaSans" font-weight="bold"><tspan y="70" x="0 22.08612 40.728425 55.786348 76.85338 110.377887 133.58852 156.11389 171.31238 192.37941 200.86597 222.93451 246.14514 267.21217 288.27919 308.25685">Extempore Speech</tspan></text>
</g>
<g clip-path="url(#clip_27)">
<text fill="#ffffff" xml:space="preserve" transform="matrix(.75 0 0 .75 566.1794 756.994)" font-size="35.99" font-family="CanvaSans" font-weight="bold"><tspan y="70" x="0 25.19609 49.214967">CR5</tspan></text>
</g>
<g clip-path="url(#clip_28)">
<text fill="#ffffff" xml:space="preserve" transform="matrix(.75 0 0 .75 1.5 844.8047)" font-size="35.99" font-family="CanvaSans" font-weight="bold"><tspan y="53" x="0 25.108246 44.06682 53.994157 79.1024 104.21065 112.697208 136.17139 169.32692 177.81348 191.6766 200.16316 225.27141 247.65622 257.58357 282.6918 307.80006 316.28663 339.7608">01:00 PM - 04:00 PM</tspan></text>
</g>
<g clip-path="url(#clip_29)">
<text fill="#ffffff" xml:space="preserve" transform="matrix(.75 0 0 .75 283.8397 844.8047)" font-size="35.99" font-family="CanvaSans" font-weight="bold"><tspan y="53" x="0 23.474183 48.670274 57.15683 83.95184 104.38634 137.91085 148.34772 171.0488">PC Gaming</tspan></text>
</g>
<g clip-path="url(#clip_30)">
<text fill="#ffffff" xml:space="preserve" transform="matrix(.75 0 0 .75 566.1794 844.8047)" font-size="35.99" font-family="CanvaSans" font-weight="bold"><tspan y="53" x="0 20.803467 41.8705 61.84816 76.90608 99.326038 114.52452 135.59156 144.07811 172.41933 192.85382 203.99352">Lecture Hall</tspan></text>
</g>
<g clip-path="url(#clip_31)">
<text fill="#ffffff" xml:space="preserve" transform="matrix(.75 0 0 .75 1.5 907.7464)" font-size="35.99" font-family="CanvaSans" font-weight="bold"><tspan y="65" x="0 20.047944 29.97528 51.23558 76.34383 84.83038 108.304569 141.4601 149.94666 163.80979 172.29634 197.40459 219.7894 229.71674 238.2033 259.4636 284.57185 293.0584 316.5326">2:30 PM - 04: 30 PM</tspan></text>
</g>
<g clip-path="url(#clip_32)">
<text fill="#ffffff" xml:space="preserve" transform="matrix(.75 0 0 .75 283.8397 907.7464)" font-size="35.99" font-family="CanvaSans" font-weight="bold"><tspan y="65" x="0 22.068543 42.87201 76.396518 99.60715 122.30823 144.8336 167.53469">Symphony</tspan></text>
</g>
<g clip-path="url(#clip_33)">
<text fill="#ffffff" xml:space="preserve" transform="matrix(.75 0 0 .75 566.1794 907.7464)" font-size="35.99" font-family="CanvaSans" font-weight="bold"><tspan y="65" x="0 23.474183 43.908678 66.60976 89.83795 110.272449">Pandal</tspan></text>
</g>
<g clip-path="url(#clip_34)">
<text fill="#ffffff" xml:space="preserve" transform="matrix(.75 0 0 .75 1.5 987.90518)" font-size="35.99" font-family="CanvaSans" font-weight="bold"><tspan y="60" x="0 25.037964 36.177659 47.317354 55.80391 83.2666 103.701099">All Day</tspan></text>
</g>
<g clip-path="url(#clip_35)">
<text fill="#ffffff" xml:space="preserve" transform="matrix(.75 0 0 .75 283.8397 987.90518)" font-size="35.99" font-family="CanvaSans" font-weight="bold"><tspan y="60" x="0 25.037964 40.23645 55.294374 63.78093 84.21542 106.916507 130.1447 138.63126 163.82735 179.02584 199.46033 213.44644">Art and Craft</tspan></text>
</g>
<g clip-path="url(#clip_36)">
<text fill="#ffffff" xml:space="preserve" transform="matrix(.75 0 0 .75 566.1794 987.90518)" font-size="35.99" font-family="CanvaSans" font-weight="bold"><tspan y="60" x="0 25.19609 49.214967 68.17354">CR10</tspan></text>
</g>
<g clip-path="url(#clip_37)">
<text fill="#ffffff" xml:space="preserve" transform="matrix(.75 0 0 .75 1.5 1060.4119)" font-size="35.99" font-family="CanvaSans" font-weight="bold"><tspan y="193" x="0 25.037964 36.177659 47.317354 55.80391 83.2666 103.701099">All Day</tspan></text>
</g>
<g clip-path="url(#clip_38)">
<text fill="#ffffff" xml:space="preserve" transform="matrix(.75 0 0 .75 283.8397 1060.4119)" font-size="35.99" font-family="CanvaSans" font-weight="bold"><tspan y="93" x="0 33.155534 43.592409 54.7321 65.871799 86.93883 101.99675 119.86595 128.35251 151.82669 174.35207 192.22127 207.27919 228.34622">Millets Poster</tspan></text>
<text fill="#ffffff" xml:space="preserve" transform="matrix(.75 0 0 .75 283.8397 1060.4119)" font-size="35.99" font-family="CanvaSans" font-weight="bold"><tspan y="143" x="0 27.462693 37.899568 55.76877 78.9794 90.119098 110.55359 131.35706 146.45012 168.53624 193.66205 215.73059 240.8564 249.34296 271.4115 286.46943 306.90394 318.04365 329.18336">Display/EBSB Stalls</tspan></text>
<text fill="#ffffff" xml:space="preserve" transform="matrix(.75 0 0 .75 283.8397 1060.4119)" font-size="35.99" font-family="CanvaSans" font-weight="bold"><tspan y="193" x="0 12.773758 36.792634 57.859666 78.29416 101.522357 122.32582 130.81238 144.7985 159.99698 182.52236">(Ready from</tspan></text>
<text fill="#ffffff" xml:space="preserve" transform="matrix(.75 0 0 .75 283.8397 1060.4119)" font-size="35.99" font-family="CanvaSans" font-weight="bold"><tspan y="243" x="0 33.155534 55.68091 70.879398 93.580478 104.01735 126.71843 146.8718 159.64556 168.13211 188.90044 216.89025 240.90912 249.39568 274.43367 295.23713 316.0406 324.52717">Morning) FOR ALL 3</tspan></text>
<text fill="#ffffff" xml:space="preserve" transform="matrix(.75 0 0 .75 283.8397 1060.4119)" font-size="35.99" font-family="CanvaSans" font-weight="bold"><tspan y="293" x="0 27.462693 52.500658 75.570728">DAYS</tspan></text>
</g>
<g clip-path="url(#clip_39)">
<text fill="#ffffff" xml:space="preserve" transform="matrix(.75 0 0 .75 566.1794 1060.4119)" font-size="35.99" font-family="CanvaSans" font-weight="bold"><tspan y="193" x="0 22.068543 37.126466 57.56096 68.70065 79.84035">Stalls</tspan></text>
</g>
<g clip-path="url(#clip_40)">
<text fill="#ffffff" xml:space="preserve" transform="matrix(.75 0 0 .75 1.5 1332.6563)" font-size="35.99" font-family="CanvaSans" font-weight="bold"><tspan y="59" x="0 25.108246 46.755098 56.682435 81.79068 106.898929 115.38548 138.85967 172.0152 180.50176 201.34037 209.82692 234.93517 253.15578 263.08314 284.34346">05:00 PM &#x2013; 07:30</tspan></text>
<text fill="#ffffff" xml:space="preserve" transform="matrix(.75 0 0 .75 1.5 1332.6563)" font-size="35.99" font-family="CanvaSans" font-weight="bold"><tspan y="109" x="0 23.474183">PM</tspan></text>
</g>
<g clip-path="url(#clip_41)">
<text fill="#ffffff" xml:space="preserve" transform="matrix(.75 0 0 .75 283.8397 1332.6563)" font-size="35.99" font-family="CanvaSans" font-weight="bold"><tspan y="84" x="0 20.733185 45.77115 78.92668 87.41324 109.48178 131.5679 153.63645 175.70499 187.47722 215.46703">JAM SESSION</tspan></text>
</g>
<g clip-path="url(#clip_42)">
<text fill="#ffffff" xml:space="preserve" transform="matrix(.75 0 0 .75 566.1794 1332.6563)" font-size="35.99" font-family="CanvaSans" font-weight="bold"><tspan y="84" x="0 23.474183 43.908678 66.60976 89.83795 110.272449">Pandal</tspan></text>
</g>
<g clip-path="url(#clip_43)">
<path transform="matrix(.75,0,0,.75,0,.00000000000017053026)" d="M.5 1V1919M376.95295 1V94.125M376.95295 189.25V1919M753.4059 1V94.125M753.4059 189.25V1919M1079.5 1V1919M0 .5H1080M0 94.625H1080M0 188.75H1080M0 356.1044H1080M0 485.93849H1080M0 628.52578H1080M0 758.35989H1080M0 888.1939H1080M0 1007.8254H1080M0 1124.9063H1080M0 1208.8286H1080M0 1315.7069H1080M0 1412.3826H1080M0 1775.375H1080M0 1919.5H1080"/>
<path transform="matrix(.75,0,0,.75,0,.00000000000017053026)" stroke-width="1" stroke-linecap="butt" stroke-miterlimit="4" stroke-linejoin="miter" fill="none" stroke="#ffffff" d="M.5 1V1919M376.95295 1V94.125M376.95295 189.25V1919M753.4059 1V94.125M753.4059 189.25V1919M1079.5 1V1919M0 .5H1080M0 94.625H1080M0 188.75H1080M0 356.1044H1080M0 485.93849H1080M0 628.52578H1080M0 758.35989H1080M0 888.1939H1080M0 1007.8254H1080M0 1124.9063H1080M0 1208.8286H1080M0 1315.7069H1080M0 1412.3826H1080M0 1775.375H1080M0 1919.5H1080"/>
</g>
</svg>
