<svg width="200" height="267" viewBox="0 0 200 267" fill="none" xmlns="http://www.w3.org/2000/svg">
<g clip-path="url(#clip0_2016_14083)">
<rect width="200" height="267" fill="white"/>
<path fill-rule="evenodd" clip-rule="evenodd" d="M92.7058 140.051L90.1211 146.444L91.5452 166.706L92.6049 166.871C103.797 168.607 111.402 169.483 115.42 169.501L115.545 169.501C119.591 169.501 124.44 168.597 130.091 166.789L130.349 166.706L131.001 151.534H129.462L126.68 145.007L126.682 145.005C126.713 145.057 126.745 145.108 126.778 145.157C127.938 146.874 128.611 145.487 131.336 146.095C134.6 146.822 136.049 150.121 138.922 152.587C140.256 153.732 143.056 154.272 144.396 155.059L145.804 155.887C150.214 158.489 155.283 161.65 157.945 165.768C161.065 170.596 163.215 175.177 165.201 180.548C169.482 192.123 172.453 203.935 174.576 216.083C176.728 228.395 178.021 240.859 179.009 253.314C179.467 259.086 179.855 264.862 180.177 270.643L180.256 272.088C180.425 275.234 180.278 278.311 177.419 280.248C175.371 281.636 172.653 281.847 170.25 281.989L170.119 281.997C152.353 283.039 134.586 284.074 116.82 285.111L90.1703 286.67C85.7361 286.93 81.3018 287.188 76.8675 287.444L66.0437 288.069C60.9424 288.36 55.8348 288.611 50.7266 288.581C44.2998 288.544 37.9003 288.069 31.5327 287.212L30.971 287.136C26.9649 286.582 21.1563 285.182 20.4368 280.376C20.3334 279.686 20.9406 279.255 21.4504 279.354C21.2827 278.572 21.1785 277.788 21.079 277.108C20.652 274.199 20.3839 271.273 20.2515 268.337C19.9857 262.462 20.2096 256.559 20.7968 250.71C21.768 241.032 23.1296 231.372 24.5365 221.745L24.8497 219.606C26.3461 209.407 28.1277 199.225 30.9156 189.29C33.491 180.112 37.5086 170.565 43.0368 164.761C48.565 158.958 56.447 153.916 64.546 150.828C65.2474 150.56 79.1826 147.508 80.1214 147.952L80.2901 147.82C83.0684 145.626 87.0317 141.772 91.1123 142.985L91.1217 142.97C91.2179 142.793 91.5949 141.609 92.1156 140.051L92.7058 140.051Z" fill="#8FA7DF"/>
<path fill-rule="evenodd" clip-rule="evenodd" d="M95.653 131.543C99.0282 127.262 102.586 125.902 107.843 126.221C111.408 126.093 114.964 127.019 117.983 129.064C120.749 130.51 123.201 132.5 124.952 135.062C126.45 137.252 125.312 142.665 126.68 145.007C126.666 145.262 126.659 145.494 126.659 145.704C126.659 147.731 128.069 149.992 130.889 152.489L131.001 152.587V167.314C126.26 168.772 120.391 169.501 113.394 169.501C106.5 169.501 99.3303 168.344 91.8839 166.028L91.5452 165.922L90.1211 149.916L91.5452 145.487L91.545 141.778L92.0953 140.118C93.0698 137.201 94.5614 132.928 95.653 131.543Z" fill="#FDC6A0"/>
<path fill-rule="evenodd" clip-rule="evenodd" d="M91.5454 165.922C91.5454 165.922 104.062 169.568 112.607 169.568C121.151 169.568 130.349 165.922 130.349 165.922L128.857 285.95L104.841 286.244L91.5454 165.922Z" fill="#9FD8E5"/>
<path fill-rule="evenodd" clip-rule="evenodd" d="M50.3425 218.33C50.25 218.157 50.4647 218.001 50.6071 218.126C53.8422 220.966 55.5359 225.527 55.8911 229.743C56.2673 234.214 55.7339 238.843 55.53 243.311C55.3031 248.289 55.0992 253.269 54.8223 258.244C54.5411 263.292 54.2381 268.338 53.9785 273.387L53.3943 284.745V284.745C53.3322 285.955 53.4668 287.444 53.0024 288.573C52.2828 290.325 50.1454 290.053 49.6962 288.59L49.6821 288.542L49.6411 288.573C49.2448 287.254 49.5414 285.688 49.6086 284.324L50.2206 271.915V271.915C50.653 263.144 51.0387 254.373 51.5032 245.603L51.6611 242.68C51.8782 238.745 52.0447 234.82 52.1784 230.887L52.2218 229.575C52.3487 225.625 52.248 221.896 50.3425 218.33ZM128.767 145.517C130.569 145.346 131.93 145.944 133.567 146.574C134.28 146.848 134.955 147.164 135.638 147.492C136.495 147.903 137.045 148.629 137.572 149.397L137.854 149.811C140.049 153.028 141.526 156.74 143.193 160.243C145.142 164.341 147.11 168.43 149.018 172.548L149.959 174.576C150.43 175.59 150.899 176.605 151.361 177.623L152.16 179.395C152.962 181.193 153.681 183.094 152.538 184.948C151.475 186.672 149.589 188.006 148.097 189.339C146.852 190.451 145.606 191.563 144.36 192.674C146.936 195.254 148.664 198.502 149.681 201.986C151.124 201.384 152.887 201.269 154.379 201.008C156.469 200.644 156.725 203.809 154.753 203.77C153.296 203.741 151.588 203.89 150.094 203.583C150.353 204.728 150.542 205.89 150.661 207.055C151.289 213.162 149.917 219.305 148.486 225.213L148.369 225.699C146.815 232.094 145.342 238.506 144.023 244.955C142.702 251.417 141.514 257.906 140.459 264.418C139.385 271.045 138.626 277.709 137.809 284.371C137.686 285.379 137.051 286.244 135.938 286.244C135.01 286.244 133.949 285.377 134.066 284.371C134.908 277.116 136.103 269.899 137.29 262.693C139.335 250.284 141.908 237.983 144.869 225.763L145.386 223.635C146.718 218.115 147.927 212.428 147.259 206.735C146.714 202.099 144.777 197.157 140.947 194.277L140.831 194.191C139.936 193.534 139.592 192.279 140.473 191.415C141.034 190.865 141.595 190.316 142.157 189.767L145.528 186.474L146.207 185.809C146.774 185.256 147.343 184.706 147.93 184.173C148.285 183.85 149.247 183.235 149.317 182.704C149.363 182.358 148.953 181.75 148.787 181.431L148.026 179.895V179.895C147.594 179.019 147.176 178.136 146.754 177.255C145.879 175.43 144.993 173.61 144.137 171.776L138.999 160.762V160.762C137.55 157.655 136.258 154.374 134.363 151.502L133.99 150.942C133.678 150.47 133.402 150.017 133.205 149.44C133.016 148.885 132.778 148.276 132.427 147.803C131.607 146.691 130.038 146.061 128.725 145.828C128.535 145.795 128.604 145.533 128.767 145.517ZM89.2488 142.624C89.3629 142.624 89.3802 142.787 89.275 142.819C87.6913 143.295 86.178 144.064 84.9434 145.173C84.3527 145.704 83.758 146.307 83.3933 147.022C83.2538 147.295 83.1765 147.584 83.1199 147.884L83.1018 147.984C83.0077 148.525 82.8731 148.826 82.5981 149.26L82.551 149.333C80.9819 151.757 79.8823 154.45 78.8768 157.145L76.6873 163.023V163.023L74.4992 168.902C73.7942 170.796 73.0887 172.69 72.3835 174.585C71.9939 175.63 71.5934 176.672 71.193 177.713C71.0198 178.164 70.8335 178.612 70.675 179.069C70.6532 179.131 70.5839 179.507 70.532 179.599L70.5497 179.63V179.63C70.9911 180.372 72.168 180.993 72.8352 181.532L75.1325 183.39V183.39C76.7705 184.715 78.4505 186.003 80.0392 187.387C81.0373 188.256 80.4163 189.813 79.3034 190.176C77.4383 190.783 75.6111 191.511 73.7739 192.199C73.0318 192.476 72.259 192.718 71.5255 193.024L71.0791 193.217C70.9047 193.296 70.9885 193.295 70.9955 193.617C71.0025 193.955 71.0982 194.307 71.1531 194.639C71.7719 198.382 72.4279 202.118 73.1202 205.848C75.5692 219.039 78.4951 232.133 81.832 245.127C83.5175 251.689 85.3251 258.218 87.0476 264.77C88.7659 271.305 91.0266 277.745 93.1854 284.145C93.7944 285.95 90.9337 286.727 90.3396 284.93C87.8517 277.403 85.5757 269.81 83.2254 262.241C79.0494 248.79 75.7587 235.048 72.8483 221.272C71.4058 214.445 70.0864 207.591 68.8915 200.716C68.6652 199.414 68.4433 198.112 68.226 196.809L67.9093 194.892C67.6922 193.526 67.5686 192.103 68.6301 191.021C69.6667 189.966 71.4461 189.592 72.8101 189.097L72.9092 189.061C73.777 188.737 74.6513 188.425 75.5221 188.103C74.2393 187.092 72.9723 186.06 71.6927 185.05C70.6604 184.236 69.6119 183.438 68.5944 182.604C67.7555 181.917 67.0714 181.035 66.9839 179.917C66.8947 178.775 67.384 177.715 67.7787 176.667L67.8166 176.566C68.204 175.52 68.5925 174.475 68.991 173.433L71.4565 166.982V166.982C73.0232 162.884 74.5239 158.752 76.1718 154.685C76.8237 153.076 77.5342 151.492 78.3738 149.97C78.7786 149.237 79.2128 148.519 79.6845 147.826C80.2131 147.05 80.6929 146.671 81.512 146.243C82.8216 145.558 83.8494 144.409 85.1646 143.703C86.4554 143.01 87.7835 142.64 89.2488 142.624ZM93.5004 135.312C93.5505 135.226 93.6832 135.264 93.6849 135.362C93.7191 137.399 93.2353 139.48 92.9376 141.495C92.6387 143.516 92.5428 145.65 92.1103 147.649C92.1013 147.742 92.0833 147.834 92.0579 147.924L92.0372 147.993V147.993C91.8547 148.553 91.38 149.028 90.7975 149.177C90.9807 150.192 91.1533 151.209 91.2984 152.231C91.5477 153.989 91.7752 155.749 91.999 157.51L92.2669 159.623C92.5197 161.614 92.7657 163.606 93.0088 165.599C93.6272 165.857 94.2583 166.071 94.9045 166.256C96.3929 166.682 97.9174 166.855 99.4533 167.006C102.581 167.313 105.733 167.455 108.872 167.629L109.545 167.667C113.074 167.869 116.622 167.905 120.142 167.543C121.887 167.363 123.619 167.062 125.321 166.635C126.186 166.418 127.027 166.094 127.89 165.881C128.176 165.811 128.432 165.649 128.719 165.475C128.847 165.314 129.025 165.192 129.258 165.145L129.321 165.134V165.134L129.384 165.125L129.405 165.116L129.403 165.122C129.58 165.098 129.748 165.099 129.906 165.12C129.969 163.567 130.037 162.013 130.123 160.46C130.352 156.289 130.987 151.938 130.14 147.803C130.112 147.664 130.301 147.615 130.35 147.745C132.011 152.122 131.824 156.909 131.908 161.516C131.99 166.021 131.94 170.53 131.918 175.036C132.241 175.173 132.528 175.36 132.756 175.621C133.212 176.143 133.343 177.05 132.756 177.554C132.496 177.778 132.209 177.933 131.904 178.04C131.888 181.955 131.86 185.871 131.821 189.786C132.565 190.361 132.634 191.726 131.792 192.294C131.652 204.972 131.422 217.651 131.231 230.328L130.831 256.924V256.924C130.778 260.467 130.689 264.01 130.658 267.553L130.683 267.563V267.563L130.771 267.604C130.921 267.674 131.142 267.788 131.188 267.904C131.201 267.934 131.204 267.955 131.202 267.97C131.446 268.005 131.688 268.12 131.898 268.319C132.414 268.81 132.309 269.55 131.898 270.051L131.788 270.184V270.184C131.531 270.496 131.044 270.616 130.646 270.553C130.65 272.764 130.664 274.976 130.657 277.187C130.654 277.863 130.644 278.538 130.633 279.213L130.605 280.833C130.586 281.757 130.504 282.932 129.558 283.347C128.491 283.816 127.533 283.432 127.101 282.347C126.984 282.053 127.009 281.78 127.052 281.489C127.039 281.053 126.97 280.547 126.979 280.142L127.014 278.454V278.454C127.02 278.193 127.03 277.933 127.037 277.673L127.007 277.676V277.676C123.213 277.86 119.394 277.77 115.594 277.768L113.904 277.77C112.495 277.772 111.082 277.764 109.674 277.71L109.146 277.688C108.092 277.638 106.984 277.622 105.891 277.528C106.03 278.65 106.16 279.773 106.276 280.897C106.386 281.963 105.286 282.868 104.306 282.868C103.141 282.868 102.474 281.952 102.335 280.897C101.677 275.918 101.407 270.893 100.778 265.912C100.215 261.45 99.7264 256.977 99.2299 252.507L99.064 251.017C97.247 234.748 95.483 218.473 93.7956 202.19L93.01 194.578C92.2165 186.906 91.4184 179.234 90.7453 171.55C90.3604 167.158 90.0057 162.764 89.6719 158.367C89.427 155.137 89.2732 151.925 89.1731 148.701C88.7782 148.294 88.5802 147.701 88.7552 147.088C88.8574 146.73 88.9764 146.374 89.1019 146.019C89.094 145.67 89.0858 145.322 89.079 144.972C89.0727 144.642 89.4082 144.472 89.6767 144.526C90.1647 143.344 90.7022 142.172 91.1507 141.002C91.8766 139.107 92.475 137.065 93.5004 135.312ZM52.9592 155.792C60.5477 151.034 69.5807 147.611 78.6278 147.98C78.8336 147.988 78.8915 148.302 78.6779 148.349C73.8521 149.427 68.9733 150.74 64.4046 152.651C59.8227 154.567 55.4659 157.148 51.5856 160.249C44.4261 165.971 38.8613 173.413 35.1971 181.802C33.0508 186.716 31.5464 191.905 30.2327 197.095C28.8426 202.588 27.6969 208.14 26.7443 213.725C24.8627 224.758 23.7673 235.912 23.1844 247.085C22.5914 258.451 22.8358 269.825 22.4129 281.193C22.3398 283.163 19.5257 283.124 19.3827 281.193C18.4244 268.269 18.9553 255.138 19.8415 242.223C20.6384 230.613 22.0301 219.027 24.271 207.603L24.4662 206.613C26.5611 196.044 29.0879 185.219 34.1524 175.648C38.4762 167.476 45.1514 160.687 52.9592 155.792ZM158.337 206.304C158.377 206.191 158.526 206.192 158.566 206.304C159.431 208.727 159.462 211.46 159.692 214.014L159.71 214.21C159.931 216.539 160.097 218.871 160.251 221.205L160.309 222.08C160.928 231.602 161.703 241.112 162.87 250.584C164.033 260.019 165.606 269.389 167.306 278.74C167.496 279.781 167.035 280.842 165.943 281.142C164.981 281.406 163.746 280.813 163.543 279.778C162.487 274.411 161.633 269.036 160.872 263.622C159.531 254.089 158.53 244.511 157.887 234.906C157.564 230.081 157.365 225.259 157.286 220.424C157.25 218.18 157.308 215.932 157.428 213.691L157.456 213.174C157.588 210.884 157.575 208.488 158.337 206.304ZM76.3386 266.949C76.44 266.894 76.5655 267.007 76.5013 267.112C75.0319 269.501 73.0441 271.561 71.1228 273.591C69.1143 275.713 67.1554 277.899 65.1063 279.98C63.6258 281.483 61.2441 279.058 62.8067 277.679C65.0037 275.741 67.2999 273.899 69.536 272.003L70.5139 271.174C72.3472 269.625 74.235 268.089 76.3386 266.949ZM146.129 265.753C146.019 265.544 146.27 265.374 146.44 265.513C147.625 266.477 148.688 267.627 149.832 268.645C150.966 269.653 152.141 270.593 153.349 271.509C154.562 272.43 155.801 273.314 157.074 274.15C158.13 274.844 159.218 275.4 160.323 275.976C160.835 276.041 161.309 276.293 161.689 276.769C162.289 277.523 162.352 278.944 161.52 279.598L161.371 279.716V279.716C160.4 280.479 159.247 280.572 158.291 279.716C157.223 278.76 156.214 277.707 155.189 276.697L154.881 276.395C153.78 275.324 152.705 274.218 151.692 273.062L150.774 272.019C149.073 270.077 147.302 267.985 146.129 265.753ZM140.669 153.836C140.472 153.705 140.594 153.353 140.837 153.437L141.284 153.592C143.149 154.24 145.068 154.959 146.761 155.957C148.581 157.03 150.261 158.308 151.867 159.679C155.189 162.516 158.016 166.005 160.418 169.642C165.239 176.94 168.22 185.297 170.626 193.66C173.193 202.576 175.168 211.684 176.782 220.819C178.421 230.101 179.685 239.468 180.517 248.858C180.926 253.483 181.201 258.112 181.339 262.753C181.41 265.141 181.408 267.527 181.388 269.916C181.383 270.53 181.387 271.144 181.394 271.758L181.417 273.601C181.43 274.765 181.569 275.989 181.293 277.127C180.847 278.959 177.82 278.617 177.919 276.745C177.828 276.122 177.824 275.478 177.848 274.833C177.834 274.75 177.818 274.666 177.801 274.579C177.751 274.332 177.793 274.103 177.89 273.906C177.906 273.596 177.92 273.289 177.925 272.986C177.945 271.757 177.944 270.532 177.91 269.302C177.838 266.71 177.735 264.117 177.631 261.526C177.423 256.348 177.134 251.168 176.714 246.002C175.254 228.023 172.171 209.941 166.994 192.643C164.589 184.611 161.273 176.725 156.519 169.784C154.408 166.703 152.027 163.856 149.387 161.215C146.731 158.557 143.803 155.912 140.669 153.836ZM104.841 269.74L105.2 272.337C105.379 273.635 105.557 274.934 105.725 276.234C106.871 276.077 108.042 276.011 109.146 275.913C111.078 275.742 113.023 275.659 114.961 275.579C118.968 275.414 122.996 275.127 127.007 275.147C127.048 275.147 127.087 275.15 127.126 275.153L127.325 270.03V270.03L124.506 270.026V270.026C122.119 270.022 119.731 270.002 117.343 269.981C115.193 269.963 113.042 269.96 110.892 269.915L109.97 269.893C108.34 269.849 106.539 269.94 104.841 269.74ZM127.561 262.304C127.446 262.318 127.329 262.329 127.205 262.335C126.646 262.358 126.084 262.342 125.525 262.346C124.336 262.357 123.147 262.365 121.957 262.365C119.578 262.364 117.199 262.379 114.821 262.407C112.372 262.437 109.925 262.48 107.477 262.484C106.29 262.487 105.107 262.455 103.921 262.422C104.113 264.108 104.314 265.793 104.535 267.474C106.377 267.225 108.358 267.35 110.158 267.333L110.392 267.33C112.849 267.288 115.307 267.319 117.765 267.322C120.293 267.325 122.821 267.333 125.349 267.354L127.426 267.371V267.371L127.43 267.266V267.266C127.491 265.614 127.53 263.96 127.561 262.304ZM103.008 254.238C103.238 256.228 103.454 258.222 103.674 260.215C103.821 260.192 103.969 260.173 104.12 260.157C105.308 260.033 106.494 259.926 107.686 259.852C110.063 259.705 112.44 259.627 114.821 259.563C117.269 259.498 119.718 259.447 122.167 259.413C123.357 259.396 124.545 259.398 125.735 259.406C126.293 259.41 126.857 259.392 127.414 259.43C127.481 259.434 127.544 259.441 127.607 259.448L127.649 256.456C127.656 255.957 127.664 255.459 127.672 254.96C125.833 255.074 123.963 255.03 122.126 255.031L121.702 255.032C119.393 255.042 117.084 255.011 114.775 254.963C112.393 254.913 110.017 254.835 107.639 254.683C106.676 254.621 105.72 254.539 104.762 254.433L104.283 254.378C103.866 254.329 103.437 254.289 103.008 254.238ZM127.862 245.794C123.433 246.145 119.028 246.292 114.587 246.336L113.921 246.342C109.997 246.371 106.04 246.533 102.107 246.429C102.342 248.469 102.576 250.509 102.813 252.548C103.376 252.522 103.942 252.522 104.493 252.502C105.613 252.462 106.729 252.451 107.849 252.449C110.158 252.444 112.466 252.464 114.775 252.459C117.154 252.454 119.533 252.414 121.912 252.369C123.841 252.333 125.79 252.188 127.724 252.193L127.862 245.794V245.794ZM128.049 237.091C127.536 237.262 126.93 237.273 126.266 237.303L124.551 237.389C123.757 237.428 122.962 237.464 122.167 237.493C119.517 237.59 116.868 237.681 114.218 237.765C111.502 237.852 108.774 237.902 106.058 237.816C104.728 237.774 103.408 237.704 102.082 237.593C101.754 237.566 101.42 237.548 101.085 237.524C101.394 240.227 101.704 242.929 102.015 245.631C105.929 245.15 109.874 244.851 113.784 244.354L117.319 243.903C120.853 243.451 124.383 243.009 127.93 242.636L128.049 237.091V237.091ZM128.238 228.293C127.485 228.479 126.627 228.47 125.903 228.516L125.769 228.525C124.399 228.629 123.026 228.681 121.652 228.715C118.961 228.781 116.268 228.814 113.575 228.831L111.956 228.841C109.798 228.853 107.641 228.859 105.482 228.808C104.097 228.776 102.715 228.708 101.332 228.639C100.917 228.618 100.493 228.605 100.068 228.583C100.357 231.142 100.65 233.7 100.941 236.258C101.396 236.186 101.852 236.131 102.288 236.057C103.403 235.869 104.516 235.718 105.64 235.584C108.073 235.292 110.518 235.082 112.963 234.905C115.472 234.723 117.984 234.569 120.493 234.393L122.271 234.268C122.864 234.226 123.456 234.187 124.049 234.15C125.061 234.088 126.238 234.158 127.242 233.938C127.514 233.825 127.816 233.799 128.118 233.863L128.238 228.293V228.293ZM128.466 217.995C128.205 218.326 127.816 218.499 127.352 218.559C124.935 218.873 122.456 218.923 120.019 219.071L119.59 219.098C117.073 219.264 114.555 219.394 112.037 219.528C109.45 219.665 106.864 219.777 104.274 219.868C103.175 219.906 102.071 219.91 100.97 219.896L100.498 219.889C100.046 219.882 99.5727 219.883 99.0982 219.867C99.3608 222.26 99.6259 224.652 99.8949 227.044C100.379 226.991 100.862 226.951 101.332 226.901C102.714 226.755 104.096 226.61 105.482 226.501C108.108 226.294 110.737 226.17 113.368 226.039C116.06 225.906 118.754 225.817 121.446 225.691C122.752 225.63 124.057 225.555 125.359 225.434C126.271 225.351 127.354 225.04 128.306 225.154C128.358 222.767 128.412 220.381 128.466 217.995ZM128.678 208.769C128.637 208.833 128.589 208.895 128.53 208.952C127.466 210.004 126.155 209.923 124.745 210.033L124.658 210.04C123.277 210.156 121.894 210.267 120.511 210.367C117.745 210.566 114.975 210.706 112.205 210.831C109.371 210.958 106.519 211.046 103.682 210.988C101.865 210.951 99.9625 210.957 98.1095 210.78C98.394 213.415 98.6803 216.05 98.9687 218.684C99.4897 218.586 100.014 218.511 100.511 218.432C101.762 218.235 103.016 218.037 104.274 217.892C106.79 217.603 109.307 217.332 111.827 217.087C113.983 216.878 116.138 216.666 118.295 216.475L119.59 216.363C122.164 216.146 124.77 215.789 127.352 215.736C127.778 215.728 128.259 215.959 128.503 216.325C128.56 213.806 128.619 211.288 128.678 208.769ZM128.857 201.301C128.199 201.381 127.491 201.335 126.885 201.355C125.351 201.405 123.817 201.452 122.284 201.497L113.081 201.769V201.769C109.947 201.861 106.803 201.93 103.668 201.886C102.289 201.867 100.905 201.864 99.5261 201.789L99.0669 201.762C98.4997 201.724 97.8035 201.718 97.1237 201.649L97.9263 209.086V209.086C99.7703 208.82 101.671 208.72 103.499 208.564L103.89 208.529C106.586 208.283 109.296 208.121 111.997 207.938C114.769 207.75 117.536 207.522 120.303 207.289C121.686 207.173 123.069 207.057 124.451 206.93L124.622 206.913C125.928 206.776 127.155 206.486 128.312 207.256C128.481 207.369 128.613 207.519 128.704 207.688C128.754 205.559 128.804 203.43 128.857 201.301ZM129.071 192.622C123.466 192.847 117.861 193.019 112.252 193.094C109.095 193.136 105.942 193.106 102.785 193.04C101.416 193.012 100.036 192.946 98.668 192.841L98.1557 192.8C97.5054 192.745 96.8222 192.706 96.1419 192.64C96.4231 195.197 96.702 197.754 96.9788 200.312C97.6479 200.188 98.3473 200.13 98.9337 200.055L99.0669 200.038C100.524 199.837 101.995 199.72 103.459 199.591C106.31 199.34 109.176 199.178 112.035 199.04C114.962 198.899 117.891 198.78 120.819 198.65L123.747 198.519C124.235 198.497 124.723 198.476 125.211 198.455C125.909 198.426 126.606 198.398 127.303 198.369C127.647 198.355 128.005 198.308 128.349 198.326L128.447 198.312C128.492 198.307 128.532 198.302 128.569 198.298C128.662 198.227 128.763 198.168 128.87 198.123L128.935 198.098L129.071 192.622ZM95.2229 184.397C95.4832 186.699 95.7405 189.001 95.9945 191.304C96.7939 191.212 97.6028 191.162 98.3661 191.093C99.9052 190.955 101.452 190.834 102.995 190.763L106.081 190.62C108.137 190.525 110.194 190.433 112.252 190.358C117.885 190.152 123.517 189.916 129.147 189.629C129.187 188.067 129.227 186.505 129.269 184.944C128.999 185.233 128.609 185.424 128.096 185.422C122.186 185.407 116.271 185.441 110.362 185.344C107.404 185.295 104.449 185.223 101.495 185.071C100.049 184.997 98.5952 184.846 97.1604 184.647C96.5486 184.562 95.8791 184.502 95.2229 184.397ZM94.2771 176.194C94.5549 178.552 94.8274 180.911 95.0955 183.27C95.8295 183.139 96.5877 183.069 97.2724 182.976C98.7437 182.776 100.224 182.617 101.706 182.533C104.589 182.37 107.474 182.288 110.362 182.226C116.271 182.101 122.186 182.102 128.096 182.055C128.651 182.05 129.063 182.27 129.334 182.598C129.375 181.126 129.418 179.653 129.463 178.181C128.892 178.12 128.326 178.035 127.802 177.998C126.192 177.886 124.582 177.783 122.971 177.691C119.61 177.498 116.245 177.333 112.881 177.187C109.516 177.04 106.15 176.897 102.784 176.773L101.312 176.719C98.9712 176.632 96.5907 176.522 94.2771 176.194ZM93.2186 167.314C93.5078 169.702 93.7926 172.091 94.0768 174.48L94.1632 175.219V175.219C96.9783 174.672 99.9452 174.511 102.784 174.39C106.151 174.247 109.511 174.173 112.881 174.184C116.247 174.194 119.608 174.274 122.971 174.413C124.652 174.482 126.332 174.562 128.012 174.654C128.474 174.678 129.015 174.665 129.572 174.673C129.585 174.298 129.595 173.922 129.608 173.547C129.659 172.027 129.709 170.506 129.761 168.986C128.625 169.57 127.148 169.805 126.006 170.054L125.876 170.083C123.991 170.506 122.066 170.781 120.142 170.949C116.363 171.278 112.545 171.155 108.77 170.836L108.109 170.779C104.794 170.492 101.357 170.127 98.143 169.307C96.6122 168.916 95.0296 168.369 93.6578 167.576C93.5152 167.494 93.368 167.406 93.2186 167.314ZM125.138 138.935C125.171 138.806 125.365 138.776 125.428 138.897C125.875 139.745 126.041 140.764 126.351 141.673C126.684 142.65 126.995 143.635 127.363 144.6C128.132 146.617 129.039 148.555 130.12 150.424C131.191 152.274 128.193 153.595 127.405 151.569C126.591 149.479 125.922 147.318 125.518 145.109C125.32 144.031 125.144 142.939 125.087 141.844C125.038 140.903 124.906 139.852 125.138 138.935Z" fill="black"/>
<path fill-rule="evenodd" clip-rule="evenodd" d="M149.33 68.4448C149.26 65.9175 145.593 64.8681 144.533 67.3711C144.468 67.4381 144.396 67.5026 144.329 67.5603C144.661 67.2752 143.967 67.7469 143.855 67.8053C143.758 67.8551 143.659 67.9001 143.561 67.9466C142.879 61.544 140.566 54.6417 134.589 51.4279C126.252 47.3751 116.619 46.584 107.473 46.9866C102.84 47.2622 97.4897 48.0049 93.3734 45.6551C92.0908 44.923 91.0626 43.7705 89.6132 43.318C85.0377 42.0772 82.9624 46.7873 83.5856 50.6607C81.634 50.6762 79.698 51.7593 78.8558 53.5427C78.3612 54.5982 78.3699 55.7371 77.9434 56.7964C76.6348 59.4827 74.7625 61.4136 75.821 64.6705C73.9593 66.7944 75.0208 70.0096 76.5231 72.043C77.265 73.1006 78.1485 74.116 78.692 75.2997C79.2195 76.4332 78.4232 77.7774 77.9801 78.8519C74.7039 86.6399 74.8911 95.2167 76.654 103.34C73.1164 104.879 72.0547 109.689 74.3615 112.718C75.1553 113.789 76.1236 114.186 77.2217 114.845C78.6115 115.612 77.4764 118.683 77.9215 120.166C78.5261 123.788 81.8149 126.017 85.0668 123.666C87.1304 123.353 88.7948 129.372 90.2933 130.883C91.2165 132.1 92.2415 133.193 93.3559 134.202C96.6764 142.767 113.691 147.11 122.103 146.614C130.912 145.69 136.855 138.19 141.804 131.533C144.345 127.987 145.997 124.017 146.598 119.688C147.202 115.336 146.938 110.977 146.53 106.621C145.672 97.3645 144.32 84.0291 143.446 74.6729C146.603 74.4123 149.426 71.7182 149.33 68.4448V68.4448Z" fill="#FDC6A0"/>
<path fill-rule="evenodd" clip-rule="evenodd" d="M86.401 44.5499C87.0141 43.9436 88.0185 44.5657 88.6829 45.0529L88.8299 45.1623L89.251 45.4832C90.2057 46.2211 91.0992 47.023 92.1305 47.6612C93.256 48.3582 94.4784 48.9124 95.7199 49.3668C98.1275 50.2479 100.717 50.6433 103.27 50.7682C113.713 51.2793 125.868 45.7785 135.346 52.3472C137.593 53.9043 139.144 56.1809 139.944 58.7848C140.846 61.721 140.537 64.762 141.275 67.7084C141.596 68.9873 143.803 69.1647 144.05 67.7593L144.066 67.6504L144.259 67.5289L144.336 67.4833C144.414 67.4381 144.45 67.4251 144.382 67.4888L144.367 67.5023L144.397 67.4762C144.42 67.4557 144.443 67.4345 144.466 67.4129L144.533 67.3469C145.004 66.2351 145.989 65.8242 146.944 65.9323L146.917 65.9984L146.633 66.7336L146.542 66.9643C146.207 67.8063 145.839 68.6035 145.203 69.3251C144.302 70.3461 143.181 71.1782 141.919 71.6905C141.66 71.7958 141.699 72.1485 141.985 72.177C144.805 72.4584 147.981 70.7412 149.307 68.1385C149.319 68.2302 149.327 68.3243 149.33 68.4205C149.339 68.7376 149.321 69.0492 149.278 69.3537C149.121 69.4123 148.969 69.4991 148.828 69.6166C147.912 70.3793 147.463 71.6261 146.602 72.4772C145.699 73.3691 144.592 74.1961 143.389 74.6103C143.37 74.6169 143.355 74.6264 143.341 74.637C143.25 74.2921 143.154 73.949 143.045 73.6113C143.002 73.4786 142.825 73.5118 142.812 73.643C142.788 73.8773 139.48 71.5184 136.933 71.8995C132.144 72.6159 131.038 75.419 124.157 75.0051C120.799 74.8031 113.706 71.6492 107.502 71.4121C101.873 71.197 91.8143 74.4174 89.1604 76.2732C87.7808 77.2379 91.6767 80.4235 90.971 81.8718C88.9693 85.9802 89.7802 91.415 87.6872 94.6636L87.6064 94.7859C86.266 96.7604 87.1027 102.014 86.5807 103.634C85.6381 106.558 84.0773 105.277 84.313 105.669C84.3876 105.793 84.5871 105.713 84.5478 105.57C83.9044 103.224 82.1434 101.453 79.9045 100.807C80.0015 100.251 79.8252 99.5527 79.4803 99.0967L79.339 98.4366L79.2089 97.8188C78.909 96.3776 78.6405 94.9376 78.496 93.457C78.2795 91.2365 78.2719 88.9996 78.4142 86.7737C78.6008 83.8489 79.2017 81.031 79.8625 78.2151L79.9335 77.9134L80.453 75.7238C81.7517 76.0941 83.0841 76.3281 84.3792 76.4441C85.887 76.579 87.3798 76.5665 88.861 76.4471C90.1738 80.0221 90.1239 84.0929 88.5016 87.5844C86.6036 91.6687 81.9516 95.5701 83.2285 100.523C83.7854 102.682 87.043 102.241 87.1202 100.061L87.1216 99.9947C87.1337 97.8405 87.8642 96.0666 88.8292 94.2151L88.9622 93.9621L89.1826 93.5493C90.3379 91.3836 91.316 89.2464 91.6412 86.7825C92.1134 83.2033 91.3734 79.5074 89.6052 76.3782C95.9036 75.7196 101.999 73.22 108.149 71.8771L108.431 71.8166L108.715 71.7582C113.258 70.8397 118.265 70.7313 122.384 73.1291C122.462 73.1748 122.524 73.0604 122.453 73.0093C116.475 68.6869 108.733 69.3005 101.878 70.8237L101.483 70.9125L101.096 71.0014C94.7551 72.4695 88.1125 74.6258 81.6313 72.7263C79.9467 72.2326 78.3117 71.4216 76.9928 70.2471L76.8825 70.1482C76.325 69.6436 75.6883 68.9905 75.581 68.2245C75.5432 67.9548 75.555 67.7701 75.7138 67.5566C75.8791 67.3343 76.1679 67.3354 76.0018 67.255C77.943 68.1931 79.6072 65.4977 77.7839 64.33L77.655 64.2503C75.3221 62.7686 76.4876 59.3967 79.1639 59.4124L79.3007 59.4149C80.8164 59.4194 81.2809 57.6247 80.4657 56.5741L80.3875 56.4761C78.8789 54.5284 81.4181 52.1791 83.3938 53.2802L83.5019 53.3425C84.4397 53.8624 85.4257 53.2835 85.7805 52.3654C86.5417 50.3953 86.1522 48.3613 86.1072 46.3223L86.1048 46.1893L86.1015 45.9675L86.101 45.7924L86.1026 45.6763C86.1125 45.2465 86.168 44.7804 86.401 44.5499ZM143.412 74.9174L143.431 74.9217L143.472 74.9235L143.509 75.3203L143.462 75.1187L143.412 74.9174ZM78.6474 75.1811L78.6018 75.0879L78.7494 75.1475L78.6783 75.2473L78.6474 75.1811ZM120.001 63.8442C119.844 63.7994 119.731 64.0443 119.887 64.1158C123.765 65.8941 126.706 68.7321 129.002 72.2882C129.22 72.6249 129.548 72.7236 129.926 72.6649C130.111 72.636 130.215 72.5458 130.314 72.4221L130.339 72.3905L130.415 72.2882C130.578 72.0629 130.557 71.6882 130.415 71.4606C128.084 67.7296 124.184 65.0417 120.001 63.8442ZM129.232 62.6794C129.062 62.68 128.971 62.9416 129.101 63.0528C130.215 64.003 131.302 65.0562 132.093 66.2994C132.477 66.9028 132.798 67.5461 133.03 68.2237C133.284 68.963 133.366 69.7294 133.727 70.4285C134.333 71.6002 135.957 70.9457 136.038 69.8008C136.162 68.0739 134.723 66.132 133.583 64.9552C132.426 63.7609 131.007 62.9373 129.37 62.6967L129.255 62.6808L129.232 62.6794ZM86.4863 61.3275C86.0109 61.207 85.6221 61.8153 85.9959 62.172C88.0489 64.1327 90.8235 65.0421 93.5861 65.4392L93.7265 65.459C96.3131 65.8145 100.075 66.0161 102.025 63.907C102.438 63.4604 102.309 62.6045 101.646 62.4665C100.738 62.2774 99.8065 62.3471 98.8857 62.4608L98.623 62.4943L97.9699 62.5812C96.6801 62.7501 95.3855 62.853 94.0834 62.8148C91.4766 62.7378 88.9936 61.9639 86.4863 61.3275ZM131.664 55.0888C131.39 54.9829 131.101 55.3595 131.273 55.5981C132.06 56.6917 133.002 57.648 133.808 58.7249C134.616 59.8051 135.291 60.9402 136.247 61.9012C136.761 62.4169 137.634 61.8924 137.453 61.1977C136.767 58.5678 134.155 56.0542 131.664 55.0888ZM90.7352 56.2757C90.4481 56.1739 90.247 56.5725 90.4468 56.7726C93.0939 59.4221 97.8564 60.8098 101.363 59.2794C102.152 58.9349 101.668 57.8279 100.959 57.7841C99.2039 57.6757 97.4419 57.879 95.6963 57.6115C93.992 57.35 92.3575 56.8517 90.7352 56.2757ZM95.1852 52.7243C94.8059 52.566 94.6474 53.1333 94.9261 53.34C96.4238 54.45 98.2621 54.9312 100.095 54.5315C100.692 54.4014 100.563 53.4365 99.9504 53.4613C98.2925 53.5276 96.7301 53.3691 95.1852 52.7243ZM107.473 46.9624C109.742 46.8625 112.042 46.836 114.344 46.9147L113.322 47.0507L112.641 47.1397C110.03 47.4774 107.415 47.763 104.778 47.7514C102.996 47.7436 101.217 47.5996 99.4769 47.2475C102.142 47.4087 104.917 47.1144 107.473 46.9624Z" fill="#ECDCBF"/>
<path fill-rule="evenodd" clip-rule="evenodd" d="M80.521 62.8797C80.518 62.8928 80.5225 62.9027 80.5254 62.9166C80.526 62.9126 80.5267 62.9105 80.5277 62.9057C80.5252 62.8951 80.5233 62.8881 80.521 62.8797" fill="#4F66AF"/>
<path fill-rule="evenodd" clip-rule="evenodd" d="M80.5202 63.0143C80.5086 63.002 80.4921 62.9929 80.4757 62.9807C80.4753 62.9811 80.475 62.9815 80.4748 62.9819C80.4902 62.9921 80.505 63.0037 80.5202 63.0143" fill="#4F66AF"/>
<path fill-rule="evenodd" clip-rule="evenodd" d="M148.829 69.6408C149.865 68.7772 151.499 69.5723 151.147 70.9941C150.765 72.5424 149.11 73.6005 147.743 74.2366C146.337 74.8912 144.967 75.0174 143.432 74.9459L143.413 74.9417V74.9417C143.839 76.6543 144.081 78.4345 144.407 80.1574C144.82 82.3432 145.227 84.53 145.628 86.7179C146.016 88.8327 146.506 90.9502 146.804 93.0756C147.104 95.221 147.392 97.3679 147.688 99.5139C148.18 103.098 148.578 106.699 148.997 110.294L149.197 111.995C149.617 115.596 149.955 119.202 149.159 122.786C148.413 126.145 146.733 129.278 144.785 132.082C142.877 134.827 140.745 137.467 138.405 139.855C133.892 144.46 128.326 148.149 121.8 148.833C118.99 149.128 115.989 148.8 113.347 147.776L113.171 147.707C110.497 146.649 107.222 144.836 106.526 141.862C106.099 140.038 107.974 138.614 109.618 139.479C110.38 139.881 110.953 140.339 111.578 140.914L111.689 141.016C112.2 141.492 112.397 141.638 112.987 142.011C114.196 142.773 115.103 143.134 116.476 143.481C119.009 144.12 121.743 144.019 124.314 143.263C129.773 141.659 134.008 137.475 137.636 133.279C139.606 131 141.476 128.61 142.918 125.954C144.431 123.168 145.129 120.243 145.087 117.073C145.04 113.496 144.547 109.905 144.223 106.344C143.893 102.715 143.589 99.0866 143.32 95.452C143.068 92.0435 143.044 88.6197 142.956 85.2006L142.939 84.5596C142.887 82.7445 142.851 80.9288 142.81 79.1133C142.77 77.3031 142.627 75.4699 142.813 73.6673C142.826 73.536 143.002 73.5028 143.045 73.6356C143.155 73.9733 143.251 74.3163 143.342 74.6612C143.355 74.6507 143.371 74.6412 143.39 74.6346C144.593 74.2204 145.7 73.3933 146.602 72.5014C147.463 71.6503 147.913 70.4036 148.829 69.6408ZM83.036 44.2793C83.7913 41.1691 87.1906 40.4744 89.7043 41.9722C90.9133 42.6925 91.8814 43.7313 93.0108 44.5568C94.1336 45.3777 95.3745 46.0369 96.6839 46.5025C99.2853 47.4274 102.029 47.7636 104.779 47.7757C111.47 47.8051 118.025 45.9198 124.726 46.1301C129.912 46.2928 135.415 47.8292 139.177 51.587C141.203 53.6113 142.508 56.2138 143.209 58.9768C143.536 60.2681 143.78 61.5908 143.973 62.9104L144.02 63.2402C144.127 64.0114 144.3 64.8278 144.316 65.6073C144.331 66.3073 144.154 67.0398 144.058 67.7326C143.857 69.1931 141.6 69.0267 141.276 67.7326C140.538 64.7862 140.847 61.7453 139.944 58.809C139.144 56.2052 137.594 53.9285 135.347 52.3715C125.869 45.8027 113.714 51.3035 103.27 50.7925C100.718 50.6676 98.1281 50.2722 95.7205 49.391C94.479 48.9366 93.2566 48.3825 92.131 47.6854C91.0997 47.0472 90.2063 46.2454 89.2516 45.5075L88.8304 45.1866C88.176 44.6929 87.0618 43.9212 86.4015 44.5741C86.1142 44.8584 86.0968 45.501 86.1021 45.9918L86.1053 46.2136C86.1353 48.2971 86.5588 50.3768 85.7811 52.3897C85.4263 53.3078 84.4403 53.8867 83.5025 53.3667L83.454 53.3388C81.4704 52.1558 78.8642 54.533 80.388 56.5003L80.4355 56.5598C81.2928 57.6044 80.8357 59.4437 79.3013 59.4392L79.246 59.4382C76.5121 59.3526 75.2991 62.7779 77.6556 64.2746L77.7281 64.3193C79.6413 65.4672 77.9632 68.2268 76.0023 67.2793C76.1684 67.3596 75.8796 67.3586 75.7143 67.5809C75.5556 67.7944 75.5438 67.9791 75.5815 68.2488C75.696 69.0658 76.4128 69.7544 76.9934 70.2714C78.3123 71.4459 79.9472 72.2568 81.6319 72.7505C88.3803 74.7283 95.3037 72.309 101.879 70.8479C108.734 69.3247 116.476 68.7112 122.454 73.0335C122.525 73.0847 122.463 73.199 122.384 73.1534C118.094 70.6556 112.839 70.8773 108.15 71.9013C102 73.2442 95.9041 75.7439 89.6058 76.4024C91.374 79.5317 92.114 83.2276 91.6417 86.8068C91.3165 89.2706 90.3384 91.4078 89.1832 93.5736L88.9627 93.9863C87.9327 95.9303 87.1348 97.7668 87.1221 100.019C87.1097 102.256 83.7916 102.728 83.2291 100.547C81.9521 95.5943 86.6041 91.693 88.5022 87.6087C90.1244 84.1172 90.1744 80.0463 88.8616 76.4713C87.3804 76.5908 85.8875 76.6032 84.3797 76.4684C83.0847 76.3524 81.7523 76.1184 80.4536 75.7481L79.9341 77.9377C79.2458 80.8541 78.608 83.7687 78.4148 86.7979C78.2724 89.0239 78.28 91.2608 78.4965 93.4812C78.6838 95.399 79.0788 97.2486 79.4809 99.1209C79.8258 99.577 80.002 100.275 79.9051 100.831C82.144 101.477 83.905 103.249 84.5484 105.594C84.5876 105.737 84.3882 105.818 84.3135 105.694C82.787 103.155 78.856 102.22 76.3694 103.898C73.9947 105.499 73.058 108.733 74.4022 111.293C75.1092 112.639 76.1575 113.585 77.5092 114.236L77.781 114.364C78.4894 114.7 79.1396 115.066 79.5951 115.741C80.1861 116.616 80.206 117.542 80.1502 118.542L80.126 118.948C80.0887 119.618 80.0802 120.308 80.2795 120.953L80.3247 121.097C80.3773 121.258 80.4325 121.4 80.5285 121.553C80.5571 121.599 80.8261 121.863 80.9138 121.959L81.0243 121.993V121.993L81.1478 121.998V121.998C81.2849 122 81.465 121.94 81.4059 121.982L81.422 121.972C81.474 121.94 81.5218 121.906 81.5621 121.875L81.6386 121.815C81.8176 121.556 82.0419 121.341 82.3171 121.178L82.58 121.061V121.061C83.2628 120.338 84.4329 120.718 84.9224 121.438C85.2747 121.956 85.4642 122.482 85.4798 123.001C85.5348 122.913 85.6571 122.864 85.7349 122.964L86.1991 123.556C87.9749 125.831 89.7201 128.12 91.7381 130.194C92.8497 131.336 94.0455 132.41 95.2955 133.399C96.3627 134.243 98.387 135.056 98.418 136.594C98.4276 137.093 98.0741 137.446 97.6415 137.616C96.2335 138.167 94.4937 136.292 93.4767 135.379L93.3936 135.305C92.149 134.212 91.013 133.013 89.9648 131.73C87.9289 129.238 86.2265 126.37 85.4762 123.214C85.441 123.765 85.2053 124.305 84.7466 124.814C84.1358 125.491 83.2999 125.966 82.4071 126.162C80.3842 126.605 78.4093 125.876 77.2057 124.186C76.1884 122.757 75.8889 120.871 76.0201 119.145L76.0363 118.938C76.0547 118.661 76.0782 118.153 76.1497 117.937L75.5128 117.587V117.587C74.7319 117.17 74.0082 116.624 73.3586 116.024C70.748 113.611 69.4382 109.69 70.6316 106.258C71.3781 104.112 72.9469 102.244 74.9556 101.274C74.6198 100.496 74.5076 99.5719 74.3809 98.7546L74.3596 98.6194C74.1448 97.2786 73.9649 95.9209 73.8964 94.564C73.7682 92.0299 73.924 89.4721 74.3212 86.9674C74.9663 82.8991 76.3019 78.5846 78.75 75.1717C76.8823 74.4282 75.1632 73.3518 73.8363 71.8571C72.4498 70.2953 71.5658 68.0592 72.638 66.0757C72.9112 65.5701 73.2673 65.1451 73.6765 64.8076C72.9669 63.4642 72.7373 61.8765 73.1752 60.3591C73.6985 58.5448 75.1192 57.1298 76.8355 56.4692C76.4187 54.7502 76.7594 52.9013 78.033 51.4688C79.2962 50.0477 81.2579 49.5301 83.0735 49.8549C83.1719 48.0268 82.5979 46.0823 83.036 44.2793ZM77.9436 108.466C79.6082 107.65 81.5811 107.779 83.2438 108.553L83.3565 108.607C85.1719 109.49 87.5762 111.551 86.9992 113.744C86.6615 115.027 85.2401 115.465 84.1379 114.911C83.2173 114.449 83.0073 113.622 82.5454 112.791C82.2188 112.203 81.8151 111.744 81.341 111.272C80.3415 110.276 79.2188 109.537 77.9436 108.945C77.7597 108.86 77.7661 108.554 77.9436 108.466ZM119.888 64.14C119.732 64.0686 119.845 63.8236 120.002 63.8684C124.185 65.0659 128.085 67.7539 130.415 71.4849C130.557 71.7125 130.579 72.0872 130.415 72.3125L130.34 72.4148C130.233 72.5546 130.127 72.6579 129.926 72.6891C129.549 72.7479 129.22 72.6492 129.003 72.3125C126.707 68.7563 123.766 65.9183 119.888 64.14ZM147.89 64.8442C148.244 64.2425 149.184 64.3636 149.371 65.0382L149.398 65.0969C149.499 65.3269 149.453 65.374 149.265 65.2438C149.731 65.6289 149.942 66.2025 149.8 66.8192C149.03 70.1501 145.266 72.5287 141.986 72.2013C141.699 72.1728 141.66 71.82 141.92 71.7148C143.182 71.2024 144.302 70.3704 145.203 69.3493C146.079 68.3568 146.447 67.2212 146.918 66.0227C147.095 65.5727 147.369 65.2487 147.757 65.0718C147.808 65.0008 147.853 64.9251 147.89 64.8442ZM129.233 62.7036L129.256 62.7051C130.941 62.9234 132.4 63.7574 133.583 64.9794C134.723 66.1562 136.162 68.0981 136.039 69.8251C135.957 70.9699 134.334 71.6245 133.728 70.4528C133.366 69.7536 133.284 68.9873 133.031 68.248C132.799 67.5704 132.478 66.927 132.094 66.3236C131.303 65.0805 130.215 64.0273 129.102 63.0771C128.972 62.9659 129.062 62.7042 129.233 62.7036V62.7036ZM85.9965 62.1963C85.6227 61.8395 86.0114 61.2313 86.4868 61.3517C88.9941 61.9881 91.4772 62.7621 94.084 62.839C95.386 62.8773 96.6807 62.7743 97.9705 62.6055L98.6235 62.5185C99.6293 62.3869 100.652 62.2836 101.647 62.4907C102.309 62.6287 102.439 63.4847 102.026 63.9313C100.076 66.0403 96.3137 65.8387 93.7271 65.4832C90.9183 65.0969 88.0842 64.1902 85.9965 62.1963ZM131.274 55.6224C131.102 55.3838 131.391 55.0072 131.664 55.113C134.156 56.0785 136.767 58.5921 137.454 61.2219C137.635 61.9166 136.761 62.4412 136.248 61.9255C135.292 60.9645 134.617 59.8293 133.808 58.7491C133.003 57.6723 132.06 56.7159 131.274 55.6224ZM90.4474 56.7969C90.2475 56.5967 90.4487 56.1981 90.7358 56.3C92.3581 56.8759 93.9926 57.3743 95.6969 57.6357C97.4425 57.9033 99.2045 57.7 100.959 57.8084C101.669 57.8521 102.152 58.9592 101.363 59.3037C97.8569 60.8341 93.0945 59.4464 90.4474 56.7969ZM94.9267 53.3642C94.648 53.1575 94.8065 52.5902 95.1858 52.7485C96.7307 53.3934 98.2931 53.5519 99.951 53.4855C100.563 53.4608 100.692 54.4256 100.095 54.5558C98.2627 54.9555 96.4243 54.4742 94.9267 53.3642Z" fill="black"/>
<path fill-rule="evenodd" clip-rule="evenodd" d="M123.152 128.274C121.732 127.695 120.465 126.728 119.538 125.493C119.216 125.063 119.133 124.61 119.2 124.195C119.276 123.729 119.552 123.306 119.928 123.023C120.305 122.739 120.777 122.598 121.233 122.67C121.63 122.732 122.024 122.949 122.337 123.399L122.402 123.489C122.953 124.235 123.67 124.846 124.488 125.241C125.276 125.621 126.158 125.798 127.07 125.695C128.808 125.499 130.005 124.559 131.278 123.282C131.436 123.121 131.594 122.955 131.752 122.786C131.852 122.633 131.991 122.534 132.146 122.483C132.317 122.425 132.511 122.429 132.689 122.491C132.86 122.55 133.013 122.664 133.116 122.815C133.213 122.958 133.269 123.135 133.251 123.339C133.134 124.661 132.443 125.842 131.461 126.769C130.37 127.799 128.924 128.511 127.563 128.761C126.064 129.036 124.536 128.839 123.152 128.274V128.274ZM128.271 107.866C129.866 108.836 132.297 111.098 130.581 113.503C128.56 115.624 125.652 113.193 124.219 112.093C122.89 111.241 121.396 113.433 122.629 114.428C132.987 122.099 137.19 108.12 129.078 106.726C128.184 106.572 127.853 107.566 128.271 107.866ZM109.711 98.9429C109.887 96.7541 113.219 96.257 113.551 98.423C113.847 100.363 113.498 102.145 112.624 103.892C111.79 105.561 109.692 104.783 109.533 103.263C109.32 101.226 109.601 100.304 109.711 98.9429ZM135.076 97.9739C135.541 97.3652 136.212 96.9497 137.015 97.1845C139.526 97.9185 138.786 101.485 137.904 103.22C137.425 104.163 135.876 104.402 135.176 103.572C134.036 102.219 133.489 99.5157 134.94 98.1825C134.979 98.1136 135.023 98.044 135.076 97.9739ZM112.589 89.3654L112.986 89.2959C114.213 89.0836 115.738 88.8796 116.606 89.8665C117.067 90.3898 117.225 91.3624 116.606 91.8633C115.518 92.7446 114.314 92.4031 113.01 92.4777C111.935 92.5394 110.902 92.7174 109.867 93.0135C107.595 93.6629 105.744 94.8486 103.804 96.1505C103.55 96.3213 103.29 95.9956 103.411 95.7574C104.531 93.563 106.701 91.7604 108.875 90.6616C110.036 90.0751 111.305 89.5885 112.589 89.3654ZM132.787 88.3823L133.091 88.4445C136.395 89.1353 140.687 90.5153 142.251 93.7615C142.311 94.2205 142.248 94.3189 142.197 94.3832L142.18 94.4046C142.137 94.4595 142.104 94.5351 141.905 94.5976C141.85 94.5844 141.794 94.5705 141.737 94.5557C141.02 94.3677 140.453 94.1087 139.904 93.84L139.308 93.5465C138.617 93.2076 137.92 92.881 137.181 92.6399C135.605 92.1255 133.983 91.7631 132.337 91.5696C131.98 91.5277 131.636 91.4072 131.365 91.2006C131.108 91.0046 130.911 90.7332 130.821 90.3724C130.705 89.9056 130.739 89.5521 130.989 89.1309C131.177 88.8146 131.447 88.5953 131.756 88.4694C132.071 88.3411 132.43 88.3108 132.787 88.3823Z" fill="black"/>
<path fill-rule="evenodd" clip-rule="evenodd" d="M139.379 76.3792C140.6 75.9605 141.574 77.2309 141.34 78.3382C141.063 79.6422 139.702 80.6888 138.8 81.608C137.854 82.576 136.888 83.525 135.887 84.438C133.975 86.184 131.993 87.828 129.904 89.3603L129.265 89.8287C127.35 91.2306 125.44 92.5999 123.388 93.8135C122.277 94.4687 121.155 95.1027 120.019 95.7135C119.613 95.9312 119.119 96.2671 118.61 96.5167C120.471 97.9538 121.903 100.148 122.214 102.191C122.983 107.268 119.712 111.973 115.098 113.843C112.798 114.775 110.237 115.046 107.778 114.765C105.276 114.479 102.741 113.739 101.117 111.689C99.6736 109.87 99.1539 107.547 99.0503 105.267C99.0018 104.184 99.0123 103.119 99.2405 102.162C98.2454 102.17 97.2503 102.166 96.2637 102.177C93.8257 102.2 91.3832 102.211 88.9433 102.143C86.4271 102.071 83.9236 101.959 81.4158 101.735C80.3151 101.636 79.2208 101.473 78.1262 101.316C77.0637 101.166 75.8912 101.109 74.8982 100.674C74.8306 100.646 74.8586 100.549 74.9172 100.53C75.9757 100.188 77.1778 100.249 78.2806 100.181L79.3555 100.116C80.2508 100.063 81.1454 100.014 82.0433 99.9847C84.1174 99.9165 86.1899 99.8997 88.2636 99.8641L89.1525 99.8475C91.5926 99.7989 94.0327 99.7715 96.4729 99.6933C97.4848 99.6616 98.4989 99.6024 99.5151 99.5474C99.6334 99.2788 99.8069 99.0336 99.9736 98.795C100.472 98.0807 101.106 97.4508 101.763 96.8802C103.109 95.7049 104.624 94.8322 106.314 94.2468C107.989 93.6686 110.438 93.3817 112.21 93.4191C113.982 93.4564 116.507 93.7064 117.319 95.1556C117.403 95.3056 118.948 95.0161 119.406 94.665C120.477 93.8473 121.529 93.0061 122.562 92.1438C124.481 90.5397 126.454 88.9609 128.271 87.2447C130.145 85.4736 132.004 83.6729 133.787 81.813C134.683 80.881 135.576 79.9468 136.445 78.9915C137.332 78.0172 138.095 76.8167 139.379 76.3792Z" fill="black"/>
</g>
<defs>
<clipPath id="clip0_2016_14083">
<rect width="200" height="267" fill="white"/>
</clipPath>
</defs>
</svg>
