<svg width="200" height="267" viewBox="0 0 200 267" fill="none" xmlns="http://www.w3.org/2000/svg">
<g clip-path="url(#clip0_2016_14085)">
<rect width="200" height="267" fill="white"/>
<path fill-rule="evenodd" clip-rule="evenodd" d="M134.008 150.111C130.095 147.262 128.154 142.597 126.694 141.803C125.62 141.219 125.64 137.188 123.487 135.761C120.597 133.846 111.39 132.423 108.04 132.156C104.824 131.901 99.2319 132.438 96.2152 133.615C91.1844 135.58 89.1779 139.326 86.9624 144.153C86.9624 144.153 136.696 152.069 134.008 150.111Z" fill="#FDC6A0"/>
<path fill-rule="evenodd" clip-rule="evenodd" d="M61.0302 153.44H140.544L168.066 177.934L180.281 280.885L162.906 286.297L55.5497 288.092L22.0212 278.609L19.9292 206.947L61.0302 153.44Z" fill="#78E185"/>
<path fill-rule="evenodd" clip-rule="evenodd" d="M169.101 262.182C168.547 261.905 167.97 261.589 167.337 261.567C166.251 261.529 166.249 259.838 167.337 259.876C168.286 259.909 169.119 260.305 169.954 260.722C170.928 261.209 170.071 262.667 169.101 262.182M167.337 214.59C168.079 214.59 168.826 214.684 169.395 215.203C169.734 215.511 169.707 216.086 169.395 216.398C169.062 216.732 168.537 216.706 168.2 216.398C168.31 216.498 168.201 216.399 168.161 216.377C168.151 216.372 168.146 216.368 168.144 216.366C168.135 216.364 168.127 216.362 168.113 216.359C168.025 216.336 167.937 216.315 167.848 216.299C167.847 216.303 167.659 216.286 167.615 216.284C167.523 216.281 167.43 216.281 167.337 216.281C166.879 216.28 166.492 215.894 166.492 215.435C166.492 214.979 166.88 214.59 167.337 214.59M159.39 233.556C159.148 234.618 157.519 234.165 157.761 233.106C158.112 231.566 158.048 229.988 157.761 228.442C157.563 227.377 159.192 226.925 159.39 227.993C159.735 229.847 159.812 231.708 159.39 233.556M157.256 172.79C155.997 172.491 154.752 172.456 153.465 172.455C152.375 172.455 152.377 170.764 153.465 170.764C154.901 170.765 156.302 170.827 157.705 171.16C158.764 171.412 158.313 173.041 157.256 172.79M153.038 213.974C152.308 213.609 151.578 213.244 150.848 212.878C149.873 212.391 150.731 210.933 151.701 211.418L153.891 212.514C154.865 213.001 154.008 214.459 153.038 213.974M152.734 247.27C151.808 248.606 150.506 249.436 148.943 249.85C147.889 250.13 147.443 248.498 148.494 248.22C149.611 247.923 150.604 247.384 151.275 246.417C151.891 245.528 153.355 246.374 152.734 247.27M146.894 187.741C146.643 187.272 146.266 187.074 145.798 187.064C144.71 187.039 144.71 185.348 145.798 185.373C146.865 185.397 147.843 185.933 148.353 186.887C148.866 187.847 147.407 188.701 146.894 187.741M136.174 199.233C135.871 199.563 135.283 199.555 134.979 199.233C134.792 199.036 134.635 198.816 134.512 198.575C134.465 198.484 134.421 198.39 134.369 198.302C134.346 198.262 134.321 198.223 134.295 198.185C134.286 198.177 134.267 198.158 134.248 198.138C133.924 197.794 133.932 197.287 134.248 196.942C134.551 196.612 135.139 196.62 135.444 196.942C135.63 197.139 135.787 197.359 135.91 197.6C135.957 197.692 136.001 197.785 136.053 197.874C136.076 197.914 136.102 197.953 136.128 197.991C136.137 197.999 136.155 198.018 136.174 198.038C136.499 198.381 136.49 198.888 136.174 199.233M135.273 224.2C134.172 224.704 132.965 224.704 131.864 224.2C131.447 224.009 131.348 223.407 131.561 223.043C131.807 222.622 132.302 222.55 132.717 222.74C133.216 222.968 133.921 222.968 134.42 222.74C134.836 222.549 135.326 222.617 135.576 223.043C135.79 223.409 135.688 224.01 135.273 224.2M132.27 241.872C132.081 242.32 131.673 242.558 131.195 242.576C130.722 242.594 130.37 242.174 130.35 241.731C130.338 241.444 130.492 241.199 130.715 241.047C130.715 241.032 130.715 241.016 130.715 241C130.716 240.526 131.103 240.175 131.561 240.155C132.017 240.134 132.406 240.558 132.406 241C132.405 241.299 132.387 241.595 132.27 241.872M127.91 269.967C126.561 269.989 125.243 270.31 123.894 270.332C122.804 270.35 122.808 268.659 123.894 268.641C125.243 268.619 126.561 268.298 127.91 268.276C129 268.258 128.996 269.949 127.91 269.967M122.301 161.616C121.511 162.369 120.536 162.739 119.574 163.21C118.6 163.686 117.744 162.227 118.721 161.75C119.536 161.351 120.438 161.057 121.106 160.421C121.894 159.67 123.09 160.864 122.301 161.616M120.182 181.105C119.628 180.828 119.05 180.512 118.418 180.49C117.331 180.452 117.33 178.761 118.418 178.799C119.367 178.832 120.2 179.228 121.035 179.645C122.009 180.132 121.152 181.589 120.182 181.105M110.022 259.322C109.771 258.854 109.394 258.656 108.926 258.645C107.838 258.621 107.838 256.93 108.926 256.955C109.993 256.979 110.971 257.515 111.481 258.469C111.994 259.429 110.535 260.282 110.022 259.322M106.503 222.607C106.167 222.298 106.19 221.724 106.503 221.411C106.868 221.046 107.233 220.681 107.599 220.316C107.932 219.982 108.456 220.006 108.793 220.316C109.13 220.625 109.106 221.198 108.793 221.511C108.428 221.877 108.063 222.242 107.698 222.607C107.364 222.941 106.841 222.917 106.503 222.607M102.355 279.828C101.135 279.799 99.9925 279.449 98.8445 279.067C97.8158 278.725 98.2595 277.092 99.2938 277.437C100.292 277.769 101.294 278.112 102.355 278.137C103.443 278.162 103.443 279.853 102.355 279.828M96.8786 243.672C95.7771 243.641 94.8634 243.08 94.0907 242.328C93.3093 241.568 94.5057 240.374 95.2859 241.133C95.7281 241.563 96.2383 241.963 96.8786 241.981C97.966 242.011 97.9669 243.702 96.8786 243.672M100.279 197.175C100.293 197.625 100.483 198.107 100.762 198.403C101.509 199.194 100.315 200.391 99.5668 199.599C98.9495 198.945 98.615 198.069 98.5891 197.175C98.5578 196.084 100.248 196.089 100.279 197.175M87.3874 160.35C87.0338 159.657 86.5703 158.845 85.8653 158.462C84.9078 157.942 85.7619 156.483 86.7184 157.002C87.6767 157.522 88.3624 158.548 88.8469 159.496C89.3412 160.465 87.8822 161.319 87.3874 160.35M85.1966 177.933C84.8045 177.922 84.4153 177.855 84.0372 177.753C83.8755 177.709 83.7158 177.658 83.554 177.614C83.4847 177.595 83.1904 177.559 83.3712 177.568C82.9136 177.544 82.5262 177.201 82.5262 176.723C82.5262 176.283 82.9149 175.853 83.3712 175.877C83.9985 175.911 84.5689 176.225 85.1966 176.243C86.2836 176.273 86.2844 177.964 85.1966 177.933M79.7205 204.959H77.8952C76.8059 204.959 76.8078 203.268 77.8952 203.268H79.7205C80.8098 203.268 80.8079 204.959 79.7205 204.959M77.5914 279.712C77.0379 279.989 76.3855 280.252 75.9372 280.676C75.1466 281.423 73.95 280.229 74.742 279.48C75.3131 278.94 76.0432 278.6 76.7385 278.252C77.1481 278.047 77.6518 278.14 77.8948 278.556C78.1143 278.931 77.9995 279.508 77.5914 279.712M73.5129 258.349C73.4421 258.329 73.3673 258.315 73.2957 258.306C73.0084 258.267 72.7077 258.28 72.4191 258.28C71.3298 258.28 71.3315 256.589 72.4191 256.589C73.2762 256.59 74.1682 256.602 74.8422 257.202C75.1842 257.507 75.151 258.089 74.8422 258.398C74.5062 258.734 73.9876 258.701 73.647 258.398C73.6829 258.43 73.5598 258.362 73.5129 258.349M72.4196 229.617C72.665 229.111 72.6688 228.781 72.6693 228.218C72.6701 227.128 74.3603 227.13 74.3594 228.218C74.359 229.035 74.2375 229.731 73.879 230.471C73.6789 230.883 73.0933 230.991 72.7229 230.774C72.3076 230.531 72.2207 230.028 72.4196 229.617M67.5327 189.955C66.5524 190.289 65.6774 190.761 64.8141 191.331C63.9029 191.932 63.0572 190.468 63.961 189.871C64.9462 189.221 65.9651 188.705 67.0834 188.325C68.1173 187.973 68.5569 189.607 67.5327 189.955M61.8321 161.499C61.1038 161.519 60.3522 161.799 59.7031 162.114C58.7277 162.588 57.8719 161.129 58.8503 160.654C59.7773 160.203 60.7916 159.837 61.8321 159.808C62.922 159.777 62.9174 161.468 61.8321 161.499M59.2766 237.463C58.9901 237.476 58.7453 237.321 58.5936 237.098C58.5777 237.098 58.5621 237.098 58.5465 237.098C58.0728 237.098 57.7221 236.711 57.7014 236.252C57.6809 235.796 58.1045 235.407 58.5465 235.407C58.8448 235.407 59.1407 235.425 59.4179 235.542C59.8656 235.731 60.1035 236.14 60.1217 236.618C60.1396 237.091 59.72 237.443 59.2766 237.463M55.1203 178.999C54.0824 179.338 53.6417 177.705 54.671 177.369C55.8792 176.974 57.1138 176.668 58.3219 176.273C59.3598 175.933 59.8005 177.567 58.771 177.903C57.5632 178.298 56.3284 178.604 55.1203 178.999M51.33 210.912C51.008 211.95 49.3772 211.505 49.7 210.463C50.0119 209.457 50.0343 208.445 50.0349 207.401C50.0355 206.311 51.7257 206.313 51.725 207.401C51.7244 208.59 51.6845 209.768 51.33 210.912M40.0299 249.136C39.9684 249.557 39.6346 249.861 39.1977 249.88C38.753 249.9 38.3366 249.477 38.3526 249.035C38.3837 248.184 39.0773 247.49 39.9279 247.459C40.4011 247.442 40.7531 247.86 40.7729 248.304C40.7924 248.736 40.4319 249.073 40.0299 249.136M34.3113 200.546C33.4183 200.845 32.464 201.129 31.7638 201.79C30.9726 202.537 29.776 201.343 30.5687 200.594C31.4919 199.722 32.6795 199.311 33.8622 198.916C34.8978 198.57 35.3379 200.204 34.3113 200.546M30.4356 233.392C30.1901 233.812 29.693 233.888 29.2795 233.695C28.7252 233.438 28.1131 233.446 27.5155 233.446C26.4264 233.445 26.4281 231.754 27.5155 231.755C28.4374 231.756 29.288 231.843 30.1326 232.235C30.5482 232.429 30.6494 233.027 30.4356 233.392M28.2456 273.254C27.7724 273.271 27.4204 272.853 27.4005 272.409C27.3811 271.977 27.7413 271.64 28.1438 271.577C28.205 271.156 28.5391 270.852 28.9757 270.833C29.4207 270.813 29.8371 271.236 29.8208 271.678C29.7898 272.529 29.0966 273.223 28.2456 273.254M182.223 279.647C181.936 278.613 181.279 277.779 180.782 276.849C180.616 276.535 180.558 276.34 180.468 276.111C180.345 276.356 180.107 276.541 179.75 276.541C179.063 276.541 178.261 276.497 177.62 276.791C177.204 276.982 176.714 276.914 176.464 276.487C176.25 276.121 176.353 275.521 176.768 275.331C177.711 274.898 178.726 274.85 179.75 274.85C180.003 274.85 180.194 274.943 180.329 275.083C180.72 269.723 180.711 264.359 180.341 258.996C179.946 253.264 179.037 247.646 178.086 241.988C177.626 239.245 177.028 236.474 177.144 233.68C177.26 230.905 178.45 228.318 177.607 225.535C177.269 224.419 176.69 223.396 176.314 222.293C175.91 221.105 175.946 219.932 176.13 218.702C176.508 216.197 177.136 213.722 176.132 211.277C175.689 210.193 174.97 209.225 174.624 208.105C174.193 206.712 174.252 205.171 174.18 203.728C174.034 200.815 173.996 197.884 173.755 194.978C173.648 193.676 173.413 192.442 172.879 191.247C172.365 190.098 171.603 189.052 171.263 187.832C170.925 186.632 170.895 185.366 170.713 184.138C170.523 182.84 170.225 181.561 169.824 180.314C168.273 175.487 165.432 171.15 162.075 167.39C158.506 163.394 154.241 160.384 149.713 157.579C147.333 156.105 144.952 154.63 142.573 153.155C142.522 153.432 142.346 153.686 142.007 153.799C141.114 154.098 140.16 154.381 139.459 155.043C138.668 155.789 137.472 154.596 138.264 153.847C139.091 153.066 140.13 152.655 141.188 152.294C140.104 151.61 139.008 150.902 137.785 150.508C136.714 150.161 135.134 150.463 134.265 149.677C133.583 149.058 133.367 147.91 133.106 147.069C132.778 146.025 132.495 144.924 132.079 143.909C131.796 143.216 131.384 142.55 130.864 142.013C130.636 141.134 130.217 140.331 129.478 139.843C127.543 138.562 125.166 139.834 124.315 141.66C123.611 141.658 122.87 141.813 122.185 141.855C120.778 141.944 119.369 141.984 117.96 141.98C115.203 141.971 112.444 141.792 109.71 141.426C104.821 140.771 100.078 139.45 95.2717 138.42C95.2443 138.357 95.2126 138.294 95.1746 138.23C94.1393 136.493 91.5598 136.787 89.9349 137.444C89.2379 137.725 88.5281 138.08 88.1288 138.74C87.7062 139.025 87.3407 139.372 87.0978 139.737C86.595 140.492 86.2062 142.013 85.1858 142.14C84.514 142.223 83.8316 142.094 83.1492 142.191C82.2957 142.309 81.5309 142.609 80.7429 142.952C74.7429 145.558 68.54 148.455 62.0286 149.466C60.5013 149.702 58.9464 149.948 57.6196 150.803C56.5422 151.499 55.7095 152.454 54.8203 153.361C53.9541 154.244 53.24 154.635 52.0041 154.794C50.5041 154.986 49.2048 155.4 48.1083 156.491C47.1978 157.398 46.6041 158.556 45.89 159.608C45.1631 160.682 44.0964 161.286 42.9893 161.91C40.3717 163.385 37.9337 165.167 35.8105 167.304C31.3379 171.81 28.6295 177.601 25.8999 183.244C22.9485 189.347 20.1893 195.525 18.2752 202.043C16.3992 208.443 15.2837 215.027 14.7682 221.671C14.2252 228.644 14.1492 235.644 13.6971 242.62C13.471 246.106 13.2999 249.595 13.1267 253.082C12.9576 256.527 12.7105 259.979 12.7504 263.428C12.8267 270.096 14.1595 276.785 16.49 283.028C17.071 284.582 17.7152 286.114 18.4018 287.623C19.0041 288.948 21.064 288.8 21.7105 287.623C21.8583 287.353 21.9745 287.074 22.0717 286.79C23.7619 286.805 25.4689 286.674 27.1485 286.831C30.1147 287.108 33.087 287.262 36.0617 287.446C41.9478 287.811 47.8443 288.054 53.7323 288.39C54.3036 288.423 54.8748 288.456 55.4459 288.49C51.2499 275.497 51.7941 261.451 51.1301 247.939C51.0767 246.85 52.7672 246.856 52.8203 247.939C53.487 261.509 52.9193 275.591 57.2636 288.605C58.9491 288.719 60.6323 288.858 62.3098 289.063C63.6659 289.225 65.0288 289.418 66.3978 289.35C67.9506 289.276 69.4675 288.921 70.9823 288.612C73.7351 288.052 76.3865 288.306 79.1499 288.65C82.1055 289.02 85.0717 289.225 88.0464 289.354C99.9576 289.876 111.949 290.352 123.856 289.555C126.738 289.363 129.613 289.092 132.476 288.724C135.425 288.346 138.343 287.71 141.29 287.348C144.195 286.993 146.865 287.968 149.737 288.147C152.664 288.331 155.671 287.72 158.572 287.37C159.518 287.255 160.465 287.143 161.413 287.032C160.193 278.668 159.499 270.241 158.826 261.817C158.739 260.731 160.43 260.74 160.516 261.817C161.184 270.175 161.862 278.54 163.08 286.838C168.103 286.253 173.131 285.662 178.101 284.751C179.517 284.493 180.924 284.073 181.771 282.809C182.398 281.872 182.525 280.725 182.223 279.647" fill="black"/>
<path fill-rule="evenodd" clip-rule="evenodd" d="M156.386 92.0542C154.457 81.5081 149.7 71.4734 142.394 63.6219C141.551 62.6896 140.794 61.2191 139.507 60.984C138.216 58.3462 135.755 56.4814 133.787 54.3512C129.492 50.0585 125.384 45.2615 119.844 42.5507C94.1515 31.9574 69.427 62.1627 64.1802 84.8789C58.9689 103.147 64.6607 128.348 87.2444 129.088C90.4394 133.324 94.8481 136.256 99.3767 138.875C105.561 142.845 112.308 144.456 119.462 142.247C126.588 144.114 133.975 138.124 138.257 132.87C141.641 128.801 143.961 123.835 147.057 119.623C150.712 119.531 153.871 116.429 154.36 112.792C157.774 106.503 157.619 98.9666 156.386 92.0542V92.0542Z" fill="#FDC6A0"/>
<path fill-rule="evenodd" clip-rule="evenodd" d="M64.1802 84.8789C69.427 62.1627 94.1515 31.9574 119.844 42.5507C125.384 45.2615 129.492 50.0585 133.787 54.3512C135.755 56.4814 138.216 58.3462 139.507 60.984C140.794 61.2191 141.551 62.6896 142.394 63.6219C149.7 71.4734 154.457 81.5081 156.386 92.0542C157.619 98.9666 157.774 106.503 154.36 112.792C153.871 116.429 150.712 119.531 147.057 119.623C146.387 120.534 145.754 121.481 145.138 122.446L144.993 122.496L144.974 121.427C144.666 104.105 143.671 93.648 141.989 90.0573C140.29 86.4299 132.978 79.7881 120.053 70.132L119.66 69.8385L116.626 67.3266L114.271 69.9916C105.413 80.0087 98.4794 87.7384 93.4696 93.1808C88.0787 99.0372 83.5177 107.947 79.7867 119.909L79.6738 120.273L86.266 129.04C64.4968 127.614 59.045 102.881 64.1802 84.8789Z" fill="#9DDADB"/>
<path fill-rule="evenodd" clip-rule="evenodd" d="M100.422 38.9615C105.097 37.8665 110 38.0935 114.63 39.297C123.808 41.6825 131.36 47.8858 137.622 54.8022C143.73 61.5485 148.766 69.2823 152.445 77.6135L152.631 78.0373C155.234 83.9762 157.495 90.149 157.592 96.6883C157.675 102.316 157.108 108.18 155.294 113.533C153.679 118.301 150.707 123.107 145.594 124.25C142.645 131.763 136.877 138.269 129.611 141.75C125.105 143.91 120.156 144.874 115.173 144.394C110.089 143.906 105.341 141.457 101.368 138.334C101.259 138.249 101.399 138.083 101.512 138.148C106.295 140.911 111.952 141.899 117.431 141.717C126.435 141.419 134.689 136.547 139.432 128.889C140.612 126.983 141.664 124.973 142.503 122.881C142.454 122.709 142.425 122.535 142.425 122.365C142.425 121.645 142.766 121.094 143.275 120.738C143.511 119.999 143.72 119.252 143.894 118.496C144.29 116.783 144.51 115.046 144.643 113.295C144.751 111.873 144.691 110.363 144.834 108.904C144.782 107.735 144.71 106.567 144.604 105.402C144.264 101.647 143.576 97.9008 142.252 94.3615C140.91 90.7766 138.791 87.6152 136.117 84.8941C130.382 79.058 123.242 74.7967 117.666 68.8012L117.374 68.484L117.354 68.4777C116.662 69.1889 115.971 69.9001 115.277 70.6098L112.109 73.8491C105.643 80.4678 99.23 87.1508 93.6051 94.5158C90.3662 98.757 87.4563 103.203 84.949 107.917C83.7616 110.15 82.685 112.438 81.7119 114.773L81.329 115.702C80.8733 116.815 80.3809 118.059 80.1074 119.315C80.9212 120.125 81.5163 121.314 82.1745 122.232C82.9211 123.274 83.7821 124.266 84.6679 125.191C85.5645 126.128 86.548 127.026 87.592 127.796L87.7174 127.887C88.9153 128.739 90.2903 129.327 90.47 130.95C90.548 131.654 89.9197 132.221 89.3381 132.44C87.7457 133.04 86.0962 131.317 85.035 130.326C84.3732 129.708 83.7648 129.042 83.2006 128.339C82.6514 128.418 82.0986 128.458 81.5516 128.393C80.7038 128.291 79.8643 128.143 79.0386 127.925C72.1894 126.122 67.1197 120.422 64.3845 114.074C60.7124 105.551 60.7978 95.7264 62.3244 86.7136C65.1138 70.2431 74.1416 54.8614 87.7735 45.1235C91.5913 42.3962 95.8248 40.0382 100.422 38.9615ZM107.801 41.1649C98.995 40.6997 90.966 45.2522 84.5244 50.9191C72.7955 61.2372 65.571 76.3446 64.1176 91.8583C63.3454 100.101 63.9233 108.985 68.2105 116.268C69.8739 119.094 72.0163 121.556 74.5451 123.631C76.928 125.588 79.6443 126.715 82.5481 127.483C82.4159 127.3 82.2854 127.116 82.1585 126.93C81.483 125.938 80.9465 124.884 80.497 123.78C80.4574 123.82 80.3828 123.828 80.3387 123.767C78.5058 121.246 79.0795 118.238 79.9531 115.465C80.8691 112.557 82.0301 109.728 83.3551 106.983C88.1849 96.9802 95.3684 88.266 102.825 80.1343C106.633 75.9815 110.568 71.9489 114.488 67.9026C116.446 65.8821 118.398 63.8557 120.326 61.806C121.285 60.7856 122.239 59.7599 123.184 58.726C124.118 57.7037 124.959 56.6209 126.122 55.8552C127.05 55.245 127.975 56.4113 127.542 57.2786C126.875 58.6128 125.729 59.6704 124.714 60.7552L124.61 60.8676C123.621 61.9379 122.623 62.9995 121.618 64.0554C120.464 65.2698 119.3 66.476 118.132 67.679C119.128 67.5634 120.135 67.4968 121.125 67.3461C122.469 67.1415 123.795 66.8401 125.115 66.5123C126.505 66.1672 127.878 65.7265 129.202 65.1787C130.447 64.6643 131.623 63.84 132.992 63.7593C134.151 63.6908 134.513 65.1295 133.871 65.8865C132.986 66.9297 131.395 67.3403 130.101 67.7277L129.918 67.783C128.487 68.2209 127.022 68.5495 125.542 68.7691C123.594 69.0583 121.343 69.1906 119.259 68.8947C123.421 71.3409 127.25 74.3724 131.069 77.329L131.743 77.8498C135.473 80.7275 139.115 83.8297 141.775 87.767C144.258 91.4426 145.757 95.7218 146.599 100.058C147.014 102.197 147.288 104.358 147.472 106.529C148.157 108.454 148.047 110.742 147.874 112.859L147.812 113.589L147.817 113.804C147.843 115.128 148.373 118.075 147.124 119.075C147.102 119.181 147.083 119.289 147.06 119.395C147.216 119.299 147.37 119.2 147.522 119.098C147.585 119.056 147.645 119.009 147.707 118.964L147.879 118.822C147.886 118.816 147.892 118.811 147.896 118.807C148.284 118.466 148.654 118.11 148.999 117.724C149.636 117.012 150.242 116.108 150.816 115.065C152.077 112.774 152.883 110.284 153.505 107.709C154.644 103.001 155.114 97.9441 154.595 93.116C154.522 92.442 154.373 91.5971 154.143 90.7301C153.594 88.6716 152.964 86.6348 152.258 84.6255C150.846 80.6058 149.114 76.7062 147.096 72.956C142.996 65.3389 137.721 58.2967 131.401 52.3872C125.001 46.4023 116.701 41.6349 107.801 41.1649ZM95.3823 65.5018C95.6997 65.3074 96.0265 65.6851 95.869 65.9898C95.1065 67.4648 93.8243 68.7101 92.7592 69.974C91.6564 71.2827 90.5616 72.5985 89.4695 73.9163C87.2458 76.5994 85.0754 79.3317 82.9906 82.1249L82.4402 82.8638C80.6073 85.3304 78.7967 87.836 77.1944 90.4568C76.3562 91.8278 75.6175 93.2458 74.9467 94.706C74.3081 96.096 74.0136 97.7739 73.2462 99.0797C73.1979 99.1621 73.0482 99.1553 73.0296 99.0511C72.7792 97.6452 73.398 95.9519 73.84 94.6354C74.3656 93.0697 75.1136 91.5784 75.9143 90.1381C77.5845 87.1335 79.5856 84.3173 81.596 81.5351C83.6378 78.7099 85.7576 75.9425 87.9816 73.2588C89.0261 71.9982 90.0942 70.7628 91.1941 69.5518L91.6081 69.0988C92.7603 67.8459 93.9215 66.3958 95.3823 65.5018ZM90.0432 61.1339C90.5655 60.7461 91.0111 61.5387 90.678 61.9588C88.6881 64.4684 86.4239 66.7233 84.2461 69.0638C82.1547 71.3115 80.1557 73.6433 78.2695 76.0669C74.4235 81.0089 71.3448 86.4317 68.7374 92.1151C68.6883 92.2223 68.5335 92.1424 68.5567 92.0389C69.9378 85.8913 73.1667 80.3079 76.8432 75.2632L76.983 75.0719C80.7017 69.9988 84.9764 64.8992 90.0432 61.1339Z" fill="black"/>
<path fill-rule="evenodd" clip-rule="evenodd" d="M129.373 128.003C128.022 128.014 126.504 127.507 125.489 127.11L125.224 127.005C124.346 126.653 123.443 126.249 122.77 125.571C122.555 125.351 122.326 125.101 122.21 124.839C122.142 124.685 122.113 124.526 122.179 124.368C122.422 124.344 122.653 124.313 122.872 124.273C122.976 124.254 123.075 124.234 123.152 124.234C123.433 124.232 123.712 124.268 123.99 124.303C124.03 124.308 124.071 124.313 124.111 124.318C124.328 124.345 124.543 124.374 124.758 124.403C125.385 124.487 126.007 124.571 126.642 124.601C127.101 124.623 127.582 124.597 128.067 124.571C129.325 124.502 130.626 124.409 131.595 125.29C131.849 125.521 131.956 125.812 131.956 126.108C131.956 126.468 131.804 126.835 131.573 127.123C131.05 127.773 130.244 127.996 129.373 128.003ZM136.736 116.649C136.148 117.531 135.17 118.098 133.829 118.036C131.163 117.914 127.982 116.908 125.749 115.454C125.168 115.075 124.791 114.469 124.724 113.821L124.603 112.667L123.953 113.628C123.886 113.728 123.817 113.828 123.749 113.928C123.561 114.203 123.373 114.478 123.195 114.76C122.514 115.842 121.89 116.936 121.323 118.082C120.922 118.894 120.628 119.802 120.334 120.719C119.837 122.266 119.357 123.787 118.296 124.874C118.135 125.039 117.888 125.098 117.663 125.069C117.464 125.043 117.269 124.945 117.173 124.751C115.905 122.171 117.61 119.062 118.994 116.9L119.141 116.674C120.424 114.721 122.519 112.136 124.919 111.785L125.194 112.223L125.594 111.956C126.247 111.52 127.109 111.541 127.864 111.882L128.62 112.223C130.025 112.854 131.412 113.436 132.932 113.755C133.043 113.778 133.154 113.8 133.265 113.82C133.369 113.839 133.474 113.857 133.579 113.873C133.557 113.77 133.532 113.666 133.508 113.563C133.482 113.454 133.456 113.345 133.428 113.236C133.4 113.124 133.369 113.012 133.338 112.901C133.217 112.457 133.079 112.017 132.916 111.587C132.302 109.968 131.321 108.454 130.367 107.01L130.255 106.84C130.118 106.633 129.969 106.417 129.814 106.194C129.07 105.123 128.245 103.96 128.186 102.792C129.174 102.854 130 103.468 130.727 104.002C131.726 104.735 132.651 105.573 133.49 106.483C135.117 108.25 136.578 110.507 137.219 112.841C137.586 114.178 137.424 115.616 136.736 116.649V116.649ZM110.694 103.334L110.694 103.287C110.697 101.939 111.481 98.8617 113.421 98.8617C114.632 98.8617 115.368 100.956 115.495 103.115L115.5 103.203C115.556 104.545 115.188 107.479 113.421 107.479C111.635 107.479 110.712 104.7 110.694 103.334V103.334ZM139.248 102.911L139.248 102.864C139.245 101.516 138.461 98.4389 136.521 98.4389C135.34 98.4389 134.611 100.43 134.457 102.53L134.447 102.692C134.37 103.989 134.714 107.056 136.521 107.056C138.307 107.056 139.23 104.277 139.248 102.911V102.911ZM117.226 94.2132C116.969 94.2433 116.713 94.2828 116.457 94.3234C115.712 94.4423 114.97 94.585 114.233 94.7512C112.834 95.0672 111.446 95.4662 110.085 95.9171C108.811 96.3391 107.557 96.8161 106.303 97.293C106.236 97.3185 106.169 97.3439 106.102 97.3694C105.659 97.5378 105.218 97.7264 104.776 97.9157C104.102 98.2039 103.425 98.4939 102.735 98.7125C104.554 96.1961 107.357 94.3316 110.055 92.9974C111.594 92.2362 113.226 91.6223 114.869 91.1193L115.783 90.8444C117.13 90.4469 118.602 90.0798 119.868 90.8723C120.368 91.1858 120.687 91.6731 120.788 92.1998C120.886 92.7165 120.774 93.2704 120.417 93.7326C120.107 94.1353 119.719 94.3647 119.307 94.4433C118.853 94.53 118.371 94.4347 117.932 94.2003C117.58 94.1741 117.477 94.1836 117.373 94.1952L117.226 94.2132ZM137.486 94.4692C136.584 94.2732 135.692 94.1945 134.767 94.2227C134.349 94.2353 133.944 94.2999 133.541 94.3649C132.914 94.4659 132.29 94.5703 131.615 94.4477C131.262 94.3837 130.962 94.1776 130.731 93.9086C130.46 93.594 130.281 93.192 130.223 92.8098C130.164 92.4149 130.223 92.0696 130.369 91.7647C130.541 91.4045 130.832 91.1009 131.183 90.8349C132.246 90.03 134.07 90.2236 135.324 90.3863C136.564 90.5475 137.797 90.932 138.892 91.5428C139.973 92.1456 140.913 92.9576 141.647 93.9502C142.265 94.7869 142.556 95.7498 142.857 96.7302C141.442 95.5432 139.278 94.8583 137.486 94.4692Z" fill="black"/>
<path fill-rule="evenodd" clip-rule="evenodd" d="M109.449 129.598C111.16 125.59 114.893 122.644 119.191 121.566C122.347 120.777 125.66 120.803 128.877 121.116C130.563 121.279 132.371 121.412 133.96 122.038C135.317 122.573 136.422 123.585 137.254 124.772C138.243 126.179 138.916 127.789 139.389 129.439C139.456 129.674 139.519 129.91 139.578 130.148C139.372 131.393 138.936 132.453 137.783 133.235C136.658 134 135.316 134.313 133.978 134.424C133.847 134.361 133.72 134.296 133.604 134.229C131.518 133.035 130.051 130.213 127.419 130.595C125.07 130.936 123.524 133.893 122.127 135.626C117.644 136.149 113.164 134.801 109.516 132.236C109.33 131.359 109.32 130.473 109.449 129.598M142.625 126.557C142.266 125.551 141.815 124.575 141.279 123.657C139.509 120.619 136.792 118.198 133.566 116.814C125.934 113.546 116.06 115.85 109.897 121.211C107.792 123.044 105.663 125.737 105.019 128.634C104.827 128.672 104.646 128.772 104.496 128.913C100.044 126.108 95.4583 123.41 91.8702 119.523C89.2645 116.698 87.4522 113.355 86.3424 109.682C86.2516 109.38 85.7643 109.424 85.779 109.759C85.7833 109.837 85.7875 109.915 85.7917 109.993C85.7453 109.849 85.5258 109.923 85.509 110.063C84.9119 114.525 84.165 119.256 84.8528 123.741C85.2642 126.418 86.4795 128.377 88.1041 130.493C89.8448 132.761 91.8154 134.87 93.8303 136.893C95.1089 138.177 96.4444 139.658 98.01 140.6C99.8308 141.694 101.896 142.525 103.84 143.369C105.816 144.23 107.823 145.026 109.867 145.716C113.954 147.099 118.178 148.056 122.476 148.475C125.917 148.809 129.85 149.173 133.148 147.878C135.675 146.886 137.716 145.092 139.334 142.933C141.096 140.583 142.488 137.905 143.258 135.082C144.058 132.149 142.794 127.03 142.625 126.557" fill="black"/>
<path fill-rule="evenodd" clip-rule="evenodd" d="M139.889 92.1487C144.848 92.1487 147.678 93.2155 148.715 93.2986L148.746 93.3008C149.177 93.3284 149.564 93.3645 149.97 93.5215C151.463 94.0967 151.706 95.6629 150.835 96.6499C150.774 98.6923 151.042 101.079 150.582 103.128C150.013 111.766 145.953 113.224 143.644 113.756C142.485 114.023 141.112 114.129 139.881 113.847C137.781 113.769 135.705 113.111 133.929 111.966C131.455 110.37 129.618 107.917 129.021 105.005C128.739 103.617 128.607 102.173 128.761 100.762L128.783 100.568C127.979 100.183 127.047 100.11 126.087 100.076C125.628 100.06 125.176 100.045 124.736 100.065C124.307 100.113 123.883 100.177 123.457 100.264C122.992 100.404 122.553 100.635 122.148 101.002L122.12 101.537C122.044 102.874 121.869 104.215 121.598 105.527C121.198 107.463 120.556 109.311 119.188 110.684C118.725 111.376 118.152 111.993 117.456 112.528C114.929 114.474 111.496 115.189 108.345 114.92C101.949 114.374 98.2515 109.294 97.3994 107.123L97.3485 106.991C96.733 105.377 96.2425 103.283 94.2975 102.936L93.8838 102.862C92.9963 102.695 92.1773 102.463 91.6569 101.597C91.4288 101.218 91.3114 100.795 91.2827 100.364C90.979 100.388 90.6758 100.41 90.3737 100.432C87.9635 100.941 73.507 101.374 72.353 101.374C72.353 101.374 70.1349 102.308 69.1985 101.584C68.5494 101.081 68.3358 100.41 68.6931 99.6505C69.2323 98.5074 71.7196 97.8198 72.8241 97.6021C72.8241 97.6021 90.6477 97.7502 91.9305 97.5069C92.7242 96.6881 94.144 96.8002 95.3303 96.6707C96.3124 95.9702 97.6863 95.5009 98.7716 95.1869C98.9928 95.103 99.2118 95.022 99.4247 94.9456C101.414 94.2367 103.482 93.8613 105.582 93.6597C107.747 93.4538 109.918 93.547 112.071 93.842C112.978 93.9651 113.876 94.1243 114.769 94.3324C116.366 94.5431 117.955 94.8902 119.553 95.3019L119.873 95.3851C121.556 95.8265 123.285 96.2083 125.027 95.909C126.446 95.667 127.81 95.121 129.118 94.5305L129.288 94.4532C132.163 93.1398 136.654 92.1487 139.889 92.1487ZM114.596 96.9511C113.535 96.7176 113.082 98.3541 114.146 98.5881C114.9 98.7539 115.538 99.1341 115.97 99.7783L116.015 99.8483C116.595 100.77 118.059 99.9192 117.476 98.9914C116.82 97.9472 115.8 97.2159 114.596 96.9511ZM145.67 95.9364C145.296 95.6728 144.73 95.8685 144.513 96.241C144.274 96.6511 144.431 97.1077 144.781 97.3761L144.817 97.4022C145.138 97.6288 145.451 98.0349 145.49 98.451L145.494 98.503C145.536 99.592 147.227 99.5975 147.185 98.503C147.144 97.4324 146.524 96.5379 145.67 95.9364Z" fill="black"/>
</g>
<defs>
<clipPath id="clip0_2016_14085">
<rect width="200" height="267" fill="white"/>
</clipPath>
</defs>
</svg>
