<svg width="200" height="267" viewBox="0 0 200 267" fill="none" xmlns="http://www.w3.org/2000/svg">
<g clip-path="url(#clip0_2016_14088)">
<rect width="200" height="267" fill="white"/>
<path fill-rule="evenodd" clip-rule="evenodd" d="M178.116 286.283C182.198 286.086 180.556 278.941 180.263 276.317C177.031 266.734 177.791 256.278 176.519 246.233C175.727 236.856 174.709 227.508 173.853 218.138C172.172 199.117 160.099 160.397 146.321 154.17C144.585 146.552 137.417 139.44 128.347 139.44C122.161 132.115 114.716 126.96 105.166 128.001C101.219 128.18 97.3919 132.367 93.6104 133.176C91.4931 133.468 72.7029 132.716 68.939 134.953C66.3171 136.299 63.9503 138.788 64.7212 141.956C65.9512 145.795 62.1288 141.642 54.1549 145.739C37.895 155.508 47.6112 168.577 48.0418 168.982C37.895 183.105 29.0263 194.563 24.9228 211.825C22.2634 224.641 22.5628 237.872 20.3345 250.753C19.5478 255.22 18.3408 259.534 17.0347 263.872C15.6192 269.548 14.931 283.697 14.1508 283.823C12.7296 284.176 14.9721 287.096 16.478 287.098C58.2296 294.026 100.639 287.385 142.615 286.3C154.444 285.888 166.287 285.793 178.116 286.283Z" fill="#FDC6A0"/>
<path fill-rule="evenodd" clip-rule="evenodd" d="M93.6629 145.612C93.6629 150.057 109.092 166.575 114.416 165.485C117.966 164.759 123.33 160.021 130.507 151.272V145.612L128.957 139.451C137.737 139.761 144.624 146.723 146.321 154.17C159.961 160.335 171.93 198.346 173.8 217.561L173.853 218.138C174.709 227.508 175.727 236.856 176.519 246.233C177.791 256.278 177.031 266.734 180.263 276.317L180.282 276.48C180.62 279.224 182.117 286.09 178.116 286.283C166.287 285.793 154.444 285.888 142.615 286.3C100.639 287.385 58.2296 294.026 16.478 287.098C14.9721 287.096 12.7296 284.176 14.1508 283.823C14.931 283.697 15.6192 269.548 17.0347 263.872L17.3034 262.974C18.5053 258.938 19.602 254.912 20.3345 250.753C22.5628 237.872 22.2634 224.641 24.9228 211.825C29.0263 194.563 37.895 183.105 48.0418 168.982C47.6112 168.577 37.895 155.508 54.1549 145.739C62.1288 141.642 65.9512 145.795 64.7212 141.956C63.9503 138.788 66.3171 136.299 68.939 134.953C72.7029 132.716 91.4931 133.468 93.6104 133.176C94.594 132.966 95.5807 132.527 96.5718 131.989L96.3999 132.562C94.5752 138.68 93.6629 143.03 93.6629 145.612Z" fill="#9FD8E5"/>
<path fill-rule="evenodd" clip-rule="evenodd" d="M114.835 170.229C114.854 170.037 115.112 170.038 115.132 170.229L115.426 173.075C115.785 176.552 116.13 180.022 116.381 183.515C116.693 187.871 116.902 192.225 117.002 196.591C117.353 211.795 117.422 227.007 117.452 242.214C119.508 242.072 121.564 241.935 123.621 241.802C125.017 241.712 126.412 241.625 127.808 241.54L131.368 241.324V241.324L132.833 241.234C133.823 241.173 134.948 240.924 135.641 241.801C135.918 242.152 136.057 242.609 135.798 243.026C135.202 243.988 134.287 243.954 133.252 243.996C132.275 244.035 131.298 244.074 130.321 244.112C128.227 244.193 126.134 244.27 124.04 244.328C121.842 244.39 119.646 244.44 117.449 244.478C117.427 250.898 117.161 257.31 116.874 263.723L116.744 266.609C116.393 274.413 116.015 282.224 115.478 290.018C115.434 290.656 114.532 290.655 114.488 290.018C113.883 281.241 113.484 272.445 113.089 263.656C112.802 257.284 112.635 250.909 112.556 244.534C112.265 244.536 111.975 244.54 111.685 244.541C103.44 244.577 95.1965 244.613 86.9514 244.536C86.9651 244.552 86.9786 244.568 86.9877 244.59C87.5843 245.999 87.6412 247.797 87.6266 249.309C87.6099 251.044 87.3764 252.757 86.9771 254.444C85.5466 260.486 81.8566 265.897 77.654 270.372L77.5168 270.517C76.5255 271.565 75.3883 272.618 74.7796 273.952C74.1579 275.315 73.9421 276.909 73.6353 278.374L73.5995 278.542L72.3999 284.085C72.0188 285.845 71.9106 288.413 70.5175 289.683C69.2178 290.869 67.496 290.25 66.8843 288.724C66.4067 287.533 66.8824 286.225 67.1653 285.034L69.3818 275.714C69.7459 274.194 70.1439 272.664 70.9299 271.298C71.735 269.9 72.9154 268.886 74.1198 267.849C76.4005 265.884 78.4941 263.636 80.2648 261.201C82.0348 258.767 83.5474 256.084 84.6082 253.263C85.1393 251.851 85.5745 250.384 85.8748 248.905C86.1602 247.501 86.1576 246.047 86.4629 244.659C86.4838 244.563 86.5648 244.497 86.6575 244.468C86.6355 244.406 86.6691 244.322 86.7557 244.317L93.4989 243.883C99.4929 243.496 105.487 243.1 111.475 242.646L112.534 242.57V242.57C112.451 234.064 112.521 225.557 112.675 217.048C112.815 209.245 112.818 201.44 113.05 193.638C113.166 189.766 113.414 185.903 113.691 182.039C113.974 178.087 114.427 174.169 114.835 170.229ZM51.5195 215.471C51.4476 215.038 51.9925 214.77 52.2437 215.166C55.115 219.693 56.4995 224.611 57.083 229.91C57.5985 234.586 57.4466 239.329 57.1899 244.018C56.9161 249.018 56.5966 254.018 56.2736 259.015L55.7773 266.68V266.68L54.5319 285.893C54.4428 287.268 54.1309 288.517 52.948 289.156C52.7983 289.281 52.6421 289.394 52.4602 289.491C51.8211 289.833 50.9735 289.66 50.604 289.004L50.7522 289.101C50.8812 289.183 50.7363 289.069 50.3173 288.761L49.9618 288.301V288.301C49.7034 287.912 49.5384 287.53 49.4721 287.069C49.369 286.351 49.5025 285.564 49.5494 284.843L50.3657 272.244V272.244C51.0006 262.449 51.7419 252.657 52.3007 242.858C52.561 238.291 52.7433 233.719 52.6199 229.143C52.497 224.594 52.2652 219.966 51.5195 215.471ZM76.359 131.131L76.5183 131.104C82.2215 130.156 88.423 130.334 93.6352 133.084C93.6783 133.107 93.6587 133.178 93.6103 133.176L91.9326 133.109C86.6216 132.901 81.327 132.778 76.1049 134.026L75.5703 134.155C73.6896 134.614 71.7257 135.176 70.2152 136.418C68.7713 137.606 68.0524 139.438 67.3611 141.125L67.2687 141.348C66.5673 143.014 65.6796 144.593 64.1423 145.635C62.1511 146.984 59.7564 146.819 57.4732 147.002C53.4532 147.325 50.1665 150.24 48.5313 153.806C47.5411 155.966 47.1187 158.387 47.0351 160.749C46.9922 161.951 46.9861 163.201 47.1462 164.395C47.1973 164.777 47.6693 166.168 47.9099 166.135C48.4447 166.061 48.9335 166.34 49.1002 166.767C50.4211 165.491 51.7799 164.251 53.1825 163.056C56.6788 160.077 60.4447 157.377 64.4106 155.058C67.4374 153.287 70.6301 151.533 73.9362 150.207C73.6742 150.201 73.4159 150.253 73.1659 150.383C73.0565 150.44 72.9477 150.303 73.0341 150.212C74.0754 149.116 75.3228 148.96 76.5802 149.252C76.8485 149.167 77.1171 149.084 77.3866 149.006C77.5208 148.967 77.5876 149.152 77.4781 149.223L77.1692 149.42V149.42C78.541 149.88 79.8878 150.784 80.9541 151.497C84.0171 153.545 86.713 156.048 89.446 158.505L89.9429 158.95C92.3485 161.099 94.8154 163.187 97.5485 164.911C98.9792 165.813 100.482 166.647 102.058 167.268C103.41 167.801 105.611 168.136 106.245 169.566C106.807 170.25 106.572 171.123 105.913 171.583C104.801 172.807 102.578 172.016 101.253 171.506C99.6559 170.892 98.1088 170.153 96.6333 169.287C93.7687 167.604 91.1275 165.513 88.6671 163.288C86.0974 160.964 83.6735 158.495 81.1742 156.098C80.0913 155.059 79.0334 153.996 77.9489 152.959L77.4042 152.443C76.8506 151.924 76.062 151.114 75.2188 150.625C73.6303 151.572 72.0173 152.481 70.4431 153.454C68.2457 154.811 66.113 156.266 64.0132 157.769C59.9708 160.663 56.1401 163.904 52.5838 167.377C46.0616 173.748 40.5048 181.023 35.6505 188.726L35.2819 189.313C32.5234 193.721 29.9148 198.273 28.0652 203.144C26.03 208.505 25.0402 214.143 24.5025 219.833C23.9689 225.483 23.7889 231.161 23.1925 236.806C22.5809 242.595 21.3758 248.256 20.0051 253.907L19.6782 255.246C18.4379 260.307 17.1578 265.368 16.5202 270.548C16.1799 273.315 15.9752 276.12 16.0214 278.909C16.0679 281.715 16.5086 284.458 16.8642 287.234C17.0004 288.298 15.9542 289.186 15.0181 289.327C13.9415 289.488 13.0166 288.801 12.6819 287.801C11.6387 284.682 11.4492 281.234 11.4819 277.96C11.5149 274.637 11.9389 271.335 12.5355 268.069C13.7089 261.644 15.5197 255.353 17.0344 249.005C18.3694 243.41 19.2654 237.805 19.7484 232.074C20.2497 226.127 20.5499 220.161 21.4645 214.257C22.3673 208.429 24.0659 202.862 26.6275 197.548C28.9599 192.709 31.8673 188.155 34.9155 183.74C38.6171 178.38 42.6825 173.279 47.2269 168.631C46.8187 168.613 46.3996 168.482 46.0147 168.241C44.8371 167.507 44.2886 166.069 44.12 164.757C43.7254 161.686 43.8206 158.481 44.6099 155.479C45.8833 150.637 49.1879 146.334 53.9773 144.589C55.2101 144.139 56.5206 143.975 57.8271 143.943C59.0668 143.912 60.4208 144.074 61.617 143.681C63.521 143.055 64.3371 140.811 65.052 139.111L65.0849 139.033C66.0016 136.866 67.1019 135.008 69.0874 133.655C71.2057 132.211 73.8598 131.555 76.359 131.131V131.131ZM130.549 139.701C132.262 139.106 134.405 139.646 136.081 140.165C137.948 140.744 139.674 141.811 141.153 143.077C142.714 144.413 144.003 146.062 144.915 147.905L145.002 148.083C145.834 149.792 146.782 152.138 146.362 154.016C146.35 154.069 146.336 154.12 146.321 154.17C149.721 155.845 152.861 157.942 155.596 160.6C158.78 163.696 161.477 167.218 163.758 171.023C172.82 186.136 174.415 204.287 175.486 221.522L175.752 225.892C176.334 235.329 177.014 244.743 178.78 254.049L178.909 254.721C180.798 264.465 183.501 274.283 183.227 284.279C183.145 287.274 178.721 287.253 178.592 284.279C178.109 273.083 175.498 262.273 173.729 251.252C170.617 231.863 172.177 211.873 167.767 192.678C166.037 185.145 163.357 177.838 159.529 171.114C157.639 167.792 155.475 164.582 152.942 161.717C150.761 159.251 148.496 156.878 145.948 154.805C145.134 155.621 143.507 155.205 143.082 154.016C142.79 153.198 142.875 152.243 142.688 151.387C142.514 150.592 142.274 149.805 141.955 149.056C141.318 147.565 140.383 146.133 139.304 144.927C138.139 143.622 136.799 142.538 135.3 141.644C133.791 140.743 132.14 140.474 130.549 139.815C130.495 139.793 130.49 139.721 130.549 139.701ZM137.207 243.325C137.21 243.246 137.302 243.209 137.359 243.261C137.96 243.814 138.323 244.608 138.766 245.289C139.276 246.073 139.811 246.842 140.373 247.59C141.498 249.09 142.75 250.504 144.013 251.888C145.187 253.176 146.439 254.41 147.737 255.573C149.144 256.833 150.72 257.957 151.998 259.353C154.664 262.264 155.095 266.26 155.658 270.013L155.72 270.418C156.063 272.645 156.37 274.878 156.647 277.114C156.782 278.201 156.916 279.29 157.026 280.38L157.06 280.726C157.158 281.793 157.184 282.876 156.571 283.809C155.915 284.807 154.424 285.156 153.537 284.2C152.014 282.556 152.3 279.636 152.101 277.522C151.938 275.773 151.752 274.027 151.544 272.283L151.438 271.412C151.193 269.428 150.994 267.405 150.541 265.455C150.141 263.739 149.379 262.443 148.128 261.2C146.869 259.947 145.56 258.777 144.397 257.428C143.164 255.998 142.052 254.463 141.05 252.862C140.192 251.493 139.505 250.002 138.876 248.514L138.771 248.266C138.163 246.814 137.159 244.924 137.207 243.325ZM159.203 180.967C159.216 180.764 159.515 180.761 159.519 180.967C159.557 182.708 159.594 184.45 159.63 186.192C159.92 200.226 159.741 214.293 161.149 228.279C161.813 234.873 163.035 241.371 164.449 247.841C165.173 251.152 165.933 254.455 166.654 257.766C167.357 260.993 168.111 264.236 168.669 267.493C169.217 270.694 169.708 273.92 169.928 277.162L169.955 277.585C170.05 279.156 170.503 281.466 169.638 282.858C168.702 284.366 166.908 284.393 165.904 282.953C164.962 281.602 165.196 279.198 165.03 277.585C164.861 275.942 164.682 274.298 164.478 272.659C164.082 269.462 163.559 266.272 163.016 263.097C161.884 256.484 160.243 249.955 159.031 243.353C157.789 236.587 156.907 229.774 156.869 222.886C156.832 215.94 157.567 209.007 157.938 202.075C158.315 195.036 158.744 188.001 159.203 180.967ZM92.9321 137.316C93.3088 136.047 94.6381 135.254 95.9348 135.61C97.1232 135.937 98.1043 137.38 97.6398 138.614C97.1327 139.962 96.2467 141.11 95.4996 142.335C94.8096 143.466 93.8031 144.357 93.1003 145.468L93.8748 146.303C94.2623 146.72 94.651 147.134 95.0439 147.541L96.3949 148.941C97.447 150.029 98.5058 151.111 99.5944 152.162C102.796 155.251 106.047 158.238 109.632 160.883C110.448 161.485 111.271 162.084 112.116 162.644L112.432 162.853C113.012 163.233 113.659 163.607 114.36 163.542C116.062 163.386 117.601 161.577 118.771 160.451L118.832 160.392C121.732 157.632 124.417 154.615 126.764 151.37C127.285 150.649 127.79 149.916 128.282 149.174C127.147 147.848 127.418 145.259 127.355 143.651C127.311 142.52 127.308 141.389 127.302 140.257L127.298 140.029C127.285 139.296 127.252 138.593 127.727 137.991C127.754 137.956 127.812 137.957 127.847 137.975C128.498 138.316 128.698 138.888 128.976 139.529L129.005 139.595C129.343 140.364 129.667 141.14 129.994 141.914C130.337 142.724 130.652 143.546 130.97 144.365C131.118 144.747 131.26 145.129 131.398 145.514C131.483 145.76 131.57 146.004 131.66 146.249L131.681 146.267C131.799 146.368 131.899 146.474 131.986 146.583C132.349 146.765 132.638 147.096 132.773 147.583C133.068 148.642 132.458 149.506 131.914 150.346C129.704 153.761 127.185 157.016 124.385 159.968C122.994 161.435 121.531 162.836 120.007 164.165L119.741 164.395C118.373 165.572 116.887 166.686 115.06 166.961C112.921 167.283 111.181 166.219 109.543 164.994L109.38 164.871C107.828 163.695 106.307 162.479 104.834 161.206C101.83 158.612 98.9722 155.826 96.436 152.77C93.9688 149.797 91.5301 146.473 90.0094 142.896C89.9167 142.678 90.1605 142.45 90.3515 142.632C91.0943 143.339 91.809 144.085 92.5153 144.84C92.5349 143.728 92.3298 142.607 92.4438 141.488C92.5831 140.128 92.5429 138.625 92.9321 137.316Z" fill="black"/>
<path fill-rule="evenodd" clip-rule="evenodd" d="M143.356 85.4321C141.448 77.3683 137.277 69.8641 130.598 63.7993C110.501 43.8804 73.5937 54.692 73.7609 84.7084C73.0401 88.2143 72.7474 91.8191 72.9861 95.3945C73.0848 96.92 73.7434 99.049 72.8585 100.422C70.8627 102.99 69.7027 104.884 70.382 108.3C70.9495 111.284 72.9747 113.397 75.7078 114.521C77.3469 114.992 78.9022 116.019 79.5093 117.585C83.1578 124.281 85.8608 129.851 91.6126 134.415C93.0968 135.59 108.319 142.637 113.335 142.637C128.019 142.637 146.526 137.304 146.833 120.861C146.887 117.25 146.254 113.596 145.858 110.013C144.892 101.836 145.233 93.3636 143.356 85.4321Z" fill="#FDC6A0"/>
<path fill-rule="evenodd" clip-rule="evenodd" d="M143.026 81.3988C143.03 81.299 143.173 81.2766 143.2 81.3751C143.746 83.3163 144.056 85.294 144.482 87.2654C144.894 89.1644 145.282 91.0689 145.605 92.9846C146.214 96.6 146.728 100.225 147.205 103.859L147.324 104.768C148.154 111.163 149.525 117.825 148.327 124.257C147.303 129.746 143.873 134.169 139.452 137.412C135.267 140.483 130.191 142.454 125.152 143.574C119.744 144.777 113.333 145.136 108.933 141.16C107.171 139.568 109.573 136.409 111.484 137.846C115.971 141.218 121.68 140.224 126.744 138.882L126.897 138.841C131.341 137.655 135.815 135.856 139.343 132.821C143.244 129.466 145.173 124.809 145.396 119.702C145.521 116.833 145.254 113.967 144.966 111.115L144.934 110.798C144.604 107.536 144.257 104.275 143.937 101.012C143.646 98.0364 143.394 95.0434 143.261 92.0544L143.199 90.5469C143.069 87.5075 142.895 84.4236 143.026 81.3988ZM90.3955 56.1441C97.698 52.3328 106.09 50.9688 114.217 52.2479C122.03 53.4775 129.2 57.519 134.559 63.314C137.176 66.1433 139.498 69.4161 140.982 72.9915C141.719 74.7677 142.297 76.6206 142.604 78.5236C142.762 79.5019 142.918 80.5156 142.947 81.5074C142.975 82.4257 142.706 83.287 142.738 84.2205C142.742 84.3666 142.519 84.3947 142.485 84.2548C142.231 83.2139 141.62 82.4268 141.236 81.4381C140.949 80.6999 140.624 79.9791 140.293 79.2606L140.008 78.6449C139.182 76.8554 138.195 75.1394 137.218 73.4296C135.251 69.9859 132.728 66.8562 129.773 64.2154C124.585 59.5788 117.929 56.5858 110.982 56.0469C103.772 55.4872 96.4586 57.2102 90.3009 61.0267C84.1436 64.8431 79.4878 70.7757 77.0705 77.6063C75.8509 81.0532 75.1774 84.6447 75.0207 88.2964C74.9414 90.1449 75.0154 92.0088 75.1447 93.8537L75.2089 94.7334C75.2841 95.7884 75.3356 96.8394 75.1784 97.8689C76.289 97.5216 77.4532 97.3777 78.6215 97.5495C80.3577 97.8049 81.3949 98.5184 82.1737 100.073C82.2144 100.155 82.1328 100.236 82.052 100.195C81.0424 99.6903 79.409 99.9562 78.3397 100.221C77.227 100.497 76.2247 100.976 75.2792 101.624C73.53 102.822 72.1588 104.679 71.8223 106.809C71.497 108.867 72.3397 110.95 73.7551 112.425C74.4837 113.185 75.3547 113.841 76.3297 114.25C77.513 114.747 78.6844 114.732 79.7313 115.552C80.3785 116.059 80.2221 116.927 79.7832 117.49C81.992 119.918 83.9507 122.574 86.1593 125.012C87.183 126.141 88.1986 127.273 89.1795 128.439L89.5457 128.878C90.5252 130.063 92.0836 131.315 92.5312 132.805C92.8097 133.732 91.8192 134.945 90.818 134.523C89.2823 133.874 88.1859 132.188 87.1482 130.894L87.0806 130.81C85.9923 129.47 85.0261 128.054 84.1428 126.571L83.8523 126.083C82.255 123.39 80.6714 120.597 79.6529 117.638C79.5856 117.707 79.5144 117.77 79.4393 117.824C77.972 118.87 75.8389 118.066 74.3735 117.386C72.9901 116.745 71.7218 115.781 70.7332 114.618C68.5833 112.09 67.5922 108.816 68.3103 105.535C68.9185 102.755 70.8401 100.052 73.3594 98.6456C72.1965 97.3035 71.715 95.4944 71.3946 93.7256C70.9856 91.4677 70.904 89.1539 71.0151 86.8643C71.2367 82.304 72.4074 77.8088 74.2171 73.6329C77.4549 66.1611 83.1791 59.911 90.3955 56.1441ZM75.0263 106.004C76.559 105.716 77.9873 105.647 79.4656 106.297C81.0691 107.002 82.1977 108.167 83.2467 109.532C84.4403 111.085 81.3812 112.781 80.6099 110.72L80.5872 110.656C80.3806 110.046 80.0106 109.456 79.5419 108.913C79.4013 109.129 79.2133 109.319 78.9923 109.428C78.7248 109.56 78.3162 109.469 78.2519 109.126C78.1807 108.746 78.2595 108.285 78.4783 107.963L78.5083 107.919V107.919C77.4449 107.062 76.1658 106.435 75.0263 106.233C74.9125 106.213 74.9138 106.025 75.0263 106.004Z" fill="black"/>
<path fill-rule="evenodd" clip-rule="evenodd" d="M123.152 128.274C121.732 127.695 120.465 126.728 119.538 125.493C119.216 125.063 119.133 124.61 119.2 124.195C119.276 123.729 119.552 123.306 119.928 123.023C120.305 122.739 120.777 122.598 121.233 122.67C121.63 122.732 122.024 122.949 122.337 123.399L122.402 123.489C122.953 124.235 123.67 124.846 124.488 125.241C125.276 125.621 126.158 125.798 127.07 125.695C128.808 125.499 130.005 124.559 131.278 123.282C131.436 123.121 131.594 122.955 131.752 122.786C131.852 122.633 131.991 122.534 132.146 122.483C132.317 122.425 132.511 122.429 132.689 122.491C132.86 122.55 133.013 122.664 133.116 122.815C133.213 122.958 133.269 123.135 133.251 123.339C133.134 124.661 132.443 125.842 131.461 126.769C130.37 127.799 128.924 128.511 127.563 128.761C126.064 129.036 124.536 128.839 123.152 128.274V128.274ZM128.271 107.866C129.866 108.836 132.297 111.098 130.581 113.503C128.56 115.624 125.652 113.193 124.219 112.093C122.89 111.241 121.396 113.433 122.629 114.428C132.987 122.099 137.19 108.12 129.078 106.726C128.184 106.572 127.853 107.566 128.271 107.866ZM109.711 98.9429C109.887 96.7541 113.219 96.257 113.551 98.423C113.847 100.363 113.498 102.145 112.624 103.892C111.79 105.561 109.692 104.783 109.533 103.263C109.32 101.226 109.601 100.304 109.711 98.9429ZM135.076 97.9739C135.541 97.3652 136.212 96.9497 137.015 97.1845C139.526 97.9185 138.786 101.485 137.904 103.22C137.425 104.163 135.876 104.402 135.176 103.572C134.036 102.219 133.489 99.5157 134.94 98.1825C134.979 98.1136 135.023 98.044 135.076 97.9739ZM112.589 89.3654L112.986 89.2959C114.213 89.0836 115.738 88.8796 116.606 89.8665C117.067 90.3898 117.225 91.3624 116.606 91.8633C115.518 92.7446 114.314 92.4031 113.01 92.4777C111.935 92.5394 110.902 92.7174 109.867 93.0135C107.595 93.6629 105.744 94.8486 103.804 96.1505C103.55 96.3213 103.29 95.9956 103.411 95.7574C104.531 93.563 106.701 91.7604 108.875 90.6616C110.036 90.0751 111.305 89.5885 112.589 89.3654ZM132.787 88.3823L133.091 88.4445C136.395 89.1353 140.687 90.5153 142.251 93.7615C142.311 94.2205 142.248 94.3189 142.197 94.3832L142.18 94.4046C142.137 94.4595 142.104 94.5351 141.905 94.5976C141.85 94.5844 141.794 94.5705 141.737 94.5557C141.02 94.3677 140.453 94.1087 139.904 93.84L139.308 93.5465C138.617 93.2076 137.92 92.881 137.181 92.6399C135.605 92.1255 133.983 91.7631 132.337 91.5696C131.98 91.5277 131.636 91.4072 131.365 91.2006C131.108 91.0046 130.911 90.7332 130.821 90.3724C130.705 89.9056 130.739 89.5521 130.989 89.1309C131.177 88.8146 131.447 88.5953 131.756 88.4694C132.071 88.3411 132.43 88.3108 132.787 88.3823Z" fill="black"/>
<path fill-rule="evenodd" clip-rule="evenodd" d="M132.746 131.525C130.778 129.772 128.573 126.247 125.746 129.036C125.047 129.824 124.764 131.591 123.695 131.938C122.275 132.398 120.868 130.896 120.384 129.742C118.405 123.33 126.588 121.571 131.25 122.607C133.527 123.543 135.205 127.309 135.306 129.275C135.372 130.596 134.254 132.538 132.746 131.525M147.589 121.643C147.57 121.558 147.543 121.481 147.511 121.411C146.641 121.082 145.952 121.417 145.527 122.044C145.541 122.2 145.587 122.358 145.616 122.512C145.288 123.204 144.992 124.06 144.547 124.658C144.459 124.665 144.368 124.656 144.281 124.63C136.905 125.401 140.506 117.681 133.024 115.763C127.241 114.808 116.789 115.902 114.061 121.923C111.91 131.542 100.97 124.84 97.3775 119.838C93.5449 115.285 91.0668 109.723 88.6773 104.325C88.1724 103.182 86.5965 103.999 86.7679 105.095C84.5593 109.527 84.6328 114.851 84.0858 119.707C83.1554 129.394 82.2489 142.979 91.2461 148.894C102.969 162.15 132.242 166.827 145.762 154.648C150.443 144.581 149.866 132.3 147.589 121.643" fill="black"/>
</g>
<defs>
<clipPath id="clip0_2016_14088">
<rect width="200" height="267" fill="white"/>
</clipPath>
</defs>
</svg>
