<svg width="200" height="267" viewBox="0 0 200 267" fill="none" xmlns="http://www.w3.org/2000/svg">
<g clip-path="url(#clip0_2016_14097)">
<rect width="200" height="267" fill="white"/>
<rect x="108.451" y="194.02" width="48.3803" height="59.6008" fill="#FDEA6B"/>
<path fill-rule="evenodd" clip-rule="evenodd" d="M94.3394 135.724C99.5546 131.751 112.647 129.964 118.214 133.789C123.711 137.631 124.31 143.843 126.872 149.557C129.289 148.417 133.281 150.05 133.982 152.294C134.851 153.352 134.89 156.325 135.489 157.748C161.569 161.9 165.528 182.24 168.667 205.332C172.82 228.764 182.247 252.145 178.154 276.258C178.687 277.029 179.108 277.78 179.497 278.671C180.428 280.256 179.228 282.501 177.349 282.414C174.918 282.2 172.51 281.908 170.066 281.817C163.293 281.582 156.514 281.61 149.738 281.696L148.814 281.708C114.666 282.133 80.5204 282.971 46.3711 283.194C45.1322 283.196 44.5257 282.084 44.6911 280.988C45.0243 278.78 45.3334 276.571 45.656 274.363C37.5788 276.497 28.992 277.034 20.9377 274.587C20.3742 274.013 22.2505 274.324 22.5482 274.237C15.1356 269.17 17.3493 258.495 18.0059 250.807C22.0889 224.462 23.5282 195.313 39.3034 172.832C46.1279 163.658 56.1334 156.394 67.6303 154.76L67.9493 154.716C71.311 154.268 75.0576 154.123 77.9968 152.294C81.3026 149.654 82.7113 144.775 86.1891 144.73C87.3375 144.715 88.8997 146.168 90.5808 147.155C90.7063 144.984 91.8756 143.152 92.1338 141.469L92.1547 141.325C92.4241 139.363 92.0551 137.598 94.3394 135.724ZM150.386 206.028C143.057 200.935 124.125 203.494 123.691 203.779C122.737 204.407 122.326 204.463 121.81 205.278C121.301 205.346 120.791 205.416 120.283 205.488C119.262 205.822 120.018 207.078 121.197 206.629C120.488 209.689 122.575 211.864 123.406 214.888C123.675 215.87 123.415 217.637 123.406 218.64C123.486 219.919 124.9 221.43 124.664 222.714C123.827 227.277 119.281 231.728 121.197 236.153C122.467 238.652 126.286 239.926 128.825 240.776C134.085 242.795 143.251 240.7 146.307 236.153C147.938 233.727 149.826 227.609 150.798 225.711L151.014 222.701C151.545 215.218 152.018 207.162 150.386 206.028Z" fill="#FDC6A0"/>
<path fill-rule="evenodd" clip-rule="evenodd" d="M85.9179 144.743L88.0154 146.031L100.197 152.055C102.558 152.716 103.739 153.509 103.739 154.433V163.842C103.739 165.101 105.955 167.955 110.387 172.403L114.482 168.32L114.39 167.785C114.001 165.481 113.806 163.94 113.806 163.162C113.806 162.325 117.812 159.147 125.824 153.629L129.329 150.327L128.955 149.19C131.117 149.293 133.46 150.624 133.982 152.294C134.851 153.352 134.89 156.325 135.489 157.748C161.569 161.9 165.528 182.24 168.667 205.332C172.82 228.764 182.247 252.145 178.154 276.258C178.687 277.029 179.108 277.78 179.497 278.671C180.428 280.256 179.228 282.501 177.349 282.414C174.918 282.2 172.51 281.908 170.066 281.817C163.293 281.582 156.514 281.61 149.738 281.696L148.814 281.708C114.666 282.133 80.5204 282.971 46.3711 283.194C45.1322 283.196 44.5257 282.084 44.6911 280.988C45.0243 278.78 45.3334 276.571 45.656 274.363C37.5788 276.497 28.992 277.034 20.9377 274.587C20.3742 274.013 22.2505 274.324 22.5482 274.237C15.1356 269.17 17.3493 258.495 18.0059 250.807C22.0889 224.462 23.5282 195.313 39.3034 172.832C46.1279 163.658 56.1334 156.394 67.6303 154.76L67.9493 154.716L68.2706 154.674C71.5481 154.257 75.1509 154.065 77.9968 152.294C81.2153 149.723 82.6356 145.031 85.9179 144.743ZM115.106 199.97C113.911 199.97 111.464 201.826 107.765 205.539L107.44 205.689C102.968 207.767 100.006 209.57 98.5529 211.096L98.5011 211.152C97.0333 212.727 94.1265 216.916 89.781 223.718L83.488 227.441H81.1069L79.4117 239.743L83.488 248.526L92.7212 245.415L107.765 241.448L116.398 232.686L121.268 231.051C120.677 232.758 120.463 234.457 121.197 236.153C122.467 238.652 126.286 239.926 128.825 240.776C134.085 242.795 143.251 240.7 146.307 236.153C147.938 233.727 149.826 227.609 150.798 225.711L151.077 221.801C151.58 214.584 151.952 207.117 150.386 206.028C143.057 200.935 124.125 203.494 123.691 203.779C122.737 204.407 122.326 204.463 121.81 205.278L121.543 205.314L123.045 203.275L122.513 202.991C118.717 200.977 116.248 199.97 115.106 199.97ZM121.197 206.629C120.518 209.558 122.402 211.677 123.293 214.506L121.017 210.147L121.017 206.686C121.076 206.671 121.136 206.653 121.197 206.629Z" fill="#9DDADB"/>
<path fill-rule="evenodd" clip-rule="evenodd" d="M84.9119 144.289C85.4179 143.84 86.1667 144.404 85.8451 145.009C85.1226 146.37 84.3814 147.659 83.4117 148.862C82.8238 149.592 82.194 150.282 81.5557 150.964C83.1937 152.381 84.5984 154.141 85.925 155.791C87.6212 157.9 89.225 160.099 91.1291 162.029C93.007 163.933 95.0835 165.264 97.5941 166.151L98.1012 166.327C100.623 167.213 103.319 168.409 104.741 170.798C105.021 171.269 104.457 171.851 103.982 171.557C101.512 170.027 98.609 169.719 95.92 168.708C93.3225 167.732 91.0581 166.229 89.0574 164.31C87.0601 162.395 85.3831 160.216 83.6338 158.083C81.9039 155.974 80.0414 154.173 77.9952 152.388C74.8377 154.513 71.2335 155.438 67.5687 156.346L67.1686 156.445C63.4993 157.354 59.8497 158.409 56.4073 159.992C53.3722 161.387 50.387 163.053 47.9147 165.323C45.2904 167.733 43.2478 170.81 41.3783 173.819C37.1965 180.552 34.2565 187.928 31.6683 195.394C28.9763 203.16 26.7246 211.081 24.9069 219.096C23.9823 223.172 23.2315 227.278 22.6144 231.413C22.3173 233.404 22.0535 235.4 21.8217 237.4C21.5743 239.536 21.5175 241.733 20.8626 243.786C20.5818 244.666 19.9188 245.032 19.2552 245.001L19.1205 246.687C18.9417 248.935 18.7751 251.184 18.7188 253.447C18.6255 257.208 18.6678 260.959 18.9383 264.713L18.9766 265.224C19.1891 267.964 19.664 271.042 21.7233 273.048C23.8558 275.126 27.1353 275.779 30.0096 275.816C36.704 275.904 43.1481 272.739 49.0721 269.963C55.1731 267.104 61.1074 263.931 66.8995 260.489C69.8492 258.736 72.767 256.925 75.6476 255.061C77.0612 254.147 78.4649 253.216 79.858 252.271C80.6559 251.729 81.4121 251.136 82.2244 250.655C81.8264 250.284 81.6487 249.702 81.9821 249.193C79.6338 247.154 78.6565 243.515 78.5422 240.57C78.4499 238.194 78.7995 235.824 79.0755 233.47C79.2147 232.283 79.3867 231.097 79.5652 229.916C79.6357 229.449 79.6896 228.949 79.772 228.456C73.4312 231.942 66.9128 235.047 60.2217 237.804C56.792 239.218 53.3183 240.489 49.7967 241.654L49.0829 241.889C45.7462 242.982 42.3296 244.014 38.8801 244.638C38.6957 244.672 38.5459 244.399 38.7428 244.313C42.1045 242.829 45.5826 241.577 48.9947 240.21L49.5555 239.982V239.982C49.491 239.978 49.4243 239.97 49.3545 239.953C47.3534 239.47 45.3679 238.725 43.4052 238.098C41.5837 237.516 39.5371 237.151 37.8345 236.273C37.7035 236.205 37.7769 236.023 37.9045 236.014C39.8181 235.881 41.8955 236.439 43.7718 236.768L44.4766 236.891C45.6574 237.099 46.8644 237.323 48.0394 237.615C48.0819 237.222 48.3018 236.826 48.6147 236.594C52.0577 234.043 51.7081 228.892 52.0763 225.093L52.3494 222.272C52.8297 217.336 53.3378 212.401 54.1097 207.501C54.1509 207.24 54.5555 207.315 54.5572 207.562C54.597 213.635 54.1388 219.68 53.9091 225.744L53.8735 226.738C53.7465 230.48 53.647 234.365 51.2914 237.244C51.6208 237.051 52.0662 237.051 52.333 237.369C52.6609 237.759 52.8502 238.197 52.8443 238.627C54.9728 237.735 57.092 236.819 59.2009 235.884C65.9811 232.879 72.6191 229.516 79.0816 225.878C79.7771 225.486 80.4381 225.794 80.7821 226.31L80.8317 226.303C80.84 226.302 80.8484 226.301 80.8571 226.301L80.9063 226.299C80.9082 226.299 80.9101 226.299 80.9118 226.299C81.8215 225.799 83.0608 226.155 83.8414 226.884C83.8645 226.906 83.8841 226.93 83.9046 226.953C84.8929 226.509 85.8157 225.91 86.6532 225.151C88.367 223.597 89.8186 221.676 91.0841 219.749C93.4146 216.2 95.3942 212.254 98.5423 209.333C101.1 206.96 104.271 205.482 107.598 204.555C107.584 204.458 107.621 204.354 107.688 204.285C107.859 204.11 107.981 204.049 108.202 204.156C108.22 204.164 108.23 204.176 108.237 204.189L108.562 203.634C108.739 203.333 108.921 203.03 108.984 202.95C109.362 202.474 109.751 202.002 110.145 201.54C110.814 200.757 111.577 199.985 112.46 199.442C114.393 198.254 116.425 198.926 118.412 199.576C119.613 199.968 120.81 200.373 122.009 200.772L122.132 200.812C123.026 201.099 124.072 201.351 124.472 202.298C124.63 202.673 124.655 203.062 124.581 203.44C133.071 201.28 142.5 202.272 150.784 204.807C151.102 204.905 151.42 205.166 151.487 205.51C152.436 210.38 152.859 215.374 152.429 220.326C152.059 224.602 151.112 228.791 149.327 232.705L149.226 232.926C147.549 236.554 144.891 241.025 140.832 242.162C138.381 242.848 135.67 242.444 133.171 242.318C130.741 242.195 128.258 242.178 125.852 241.796C123.709 241.455 121.831 240.494 120.507 238.751C119.364 237.247 118.762 235.43 118.269 233.621C118.044 233.693 117.82 233.77 117.599 233.856C116.668 234.22 115.879 234.807 115.166 235.498C113.66 236.957 112.491 238.729 110.916 240.122C109.489 241.382 107.864 242.362 106.12 243.116C102.507 244.678 98.6312 245.302 94.8095 246.129L94.543 246.187C91.6659 246.819 88.7293 247.594 86.1899 249.093C86.1402 249.534 85.9393 249.949 85.6174 250.221C86.0652 250.642 86.255 251.308 85.8614 251.933C84.762 253.679 82.8682 254.672 81.1682 255.788L81.0576 255.861C79.3852 256.97 77.6982 258.057 75.9975 259.122C72.5401 261.288 69.0105 263.334 65.4309 265.29C59.6737 268.437 53.7928 271.405 47.8055 274.097C48.1649 275.866 48.0336 277.689 48.3037 279.47L48.3451 279.724C48.4605 280.385 48.3046 280.938 47.8496 281.369L47.8015 281.413L47.8024 281.408L47.7597 281.447L47.7454 281.459L47.7502 281.455C47.6977 281.503 47.6436 281.548 47.5885 281.586L47.5182 281.631V281.631C47.08 281.898 46.5158 281.894 46.0671 281.659L46.0159 281.631L45.9297 281.582C45.3369 281.241 44.9281 280.395 45.174 279.724C45.7784 278.074 46.0068 276.313 46.565 274.651L46.1221 274.849V274.849L45.5385 275.104C39.2263 277.834 32.2146 280.134 25.337 278.272C22.2981 277.45 19.4578 275.709 17.9373 272.873C16.4412 270.082 16.2297 266.841 16.1502 263.736C16.0522 259.904 16.2576 256.014 16.7627 252.215C17.1018 249.664 17.5119 247.066 18.1444 244.542C17.819 244.255 17.5799 243.843 17.5167 243.333C17.2182 240.923 17.7407 238.417 18.0605 236.019C18.373 233.677 18.7182 231.341 19.1086 229.011C19.8969 224.307 20.8127 219.612 21.879 214.963C23.7766 206.688 26.2824 198.561 29.2993 190.628L29.5635 189.936C32.3513 182.685 35.5791 175.589 40.0738 169.219C42.2238 166.171 44.4966 163.408 47.5347 161.212C50.3809 159.154 53.5913 157.672 56.9044 156.54C60.2211 155.407 63.6301 154.647 67.0993 154.175C70.6226 153.695 74.3416 153.401 77.6283 151.955C77.2125 151.21 77.5693 150.203 78.269 149.741C80.6238 148.184 82.8014 146.159 84.9119 144.289ZM160.293 211.967C160.392 211.818 160.626 211.912 160.583 212.09C159.438 216.783 158.363 221.487 157.661 226.27C156.393 234.904 156.626 243.65 156.73 252.348L156.735 252.798C156.788 257.482 156.862 262.168 157.017 266.85C157.095 269.217 157.25 271.607 157.166 273.975C157.12 275.26 156.778 276.475 156.657 277.744C156.55 278.854 156.645 279.981 156.698 281.092C156.734 281.831 155.643 281.799 155.569 281.092L155.474 280.177C155.351 279.019 155.199 277.868 154.82 276.76C154.364 275.427 154.145 274.118 153.986 272.718C153.744 270.573 153.636 268.407 153.543 266.248L153.479 264.754C153.088 255.728 153.102 246.66 153.734 237.644L153.78 237C154.407 228.478 155.493 219.27 160.293 211.967ZM135.88 158.253C135.581 158.13 135.686 157.678 136.017 157.757L136.62 157.901C141.034 158.958 145.368 160.104 149.489 162.073C153.611 164.042 157.102 166.982 159.876 170.597C165.267 177.625 167.508 186.166 169.276 194.698C171.242 204.18 173.032 213.696 175.014 223.174L175.383 224.94C177.217 233.768 178.949 242.601 180.226 251.533L180.317 252.181C181.604 261.367 182.379 270.87 180.974 280.08C180.696 281.902 177.666 281.448 177.784 279.648C178.126 274.444 178.371 269.267 178.135 264.052C177.898 258.835 177.408 253.641 176.679 248.47C176.066 244.118 175.151 239.82 174.342 235.503L174.215 234.821C173.537 231.149 172.838 227.481 172.141 223.813L171.099 218.32C169.538 210.096 167.946 201.864 166.147 193.692L166.04 193.211C164.28 185.348 161.684 177.112 156.404 170.868C151.045 164.532 143.374 161.341 135.88 158.253ZM116.409 241.652C116.537 241.365 116.988 241.396 117.127 241.652C117.67 242.654 117.73 243.933 117.833 245.065L117.844 245.182C117.974 246.562 118.09 247.948 118.161 249.333C118.295 251.962 118.359 254.587 118.351 257.22C118.342 259.917 118.288 262.612 118.143 265.306L118.103 266.027C117.97 268.368 117.748 270.979 116.636 273.026C116.232 273.77 115.133 273.551 114.899 272.799C114.132 270.335 114.525 267.414 114.722 264.891L114.875 262.922C115.026 260.953 115.17 258.984 115.285 257.012C115.442 254.315 115.571 251.616 115.695 248.918C115.736 248.041 115.779 247.165 115.826 246.288L115.897 244.974C115.957 243.875 115.952 242.668 116.409 241.652ZM30.1801 245.143L30.5196 244.815C31.5618 243.795 32.8788 242.223 34.4195 242.321C35.0338 242.36 35.4253 242.87 35.2979 243.475C35.0258 244.767 33.7077 245.438 32.7589 246.227C31.7195 247.091 30.7398 248.015 29.7621 248.948C28.8946 249.775 28.0604 250.625 27.2463 251.503L26.9418 251.833C26.65 252.151 24.5717 254.032 24.7964 254.52L24.8087 254.542C24.8712 254.635 24.7671 254.763 24.6633 254.731C23.7659 254.447 23.8218 253.678 24.1611 252.898C24.8131 251.4 25.9548 250.014 26.9518 248.735C27.9461 247.458 29.0222 246.27 30.1801 245.143V245.143ZM119.661 207.575C118.967 205.934 116.41 205.969 114.959 206.067C111.304 206.314 107.349 207.239 104.097 208.948C100.726 210.72 98.4545 213.558 96.4224 216.698L96.3274 216.845C94.3467 219.925 92.4392 223.571 89.3378 225.689C87.7581 226.768 85.9136 227.753 83.9969 228.179C83.8653 228.411 83.6521 228.594 83.3726 228.661L83.2427 228.69C82.6968 228.811 81.8488 228.944 81.1163 228.865C81.1212 229.223 81.1174 229.579 81.1264 229.918C81.1522 230.892 81.1632 231.869 81.1632 232.843C81.1636 234.884 81.054 236.928 81.1391 238.969C81.2145 240.773 81.4693 242.659 82.3355 244.272C82.9708 245.456 83.8093 246.239 84.8215 246.987C87.3115 245.469 90.1271 244.543 92.9847 243.848C96.4406 243.006 99.9791 242.445 103.356 241.304C104.982 240.755 106.545 240.036 107.961 239.059C109.463 238.023 110.611 236.62 111.792 235.248L111.977 235.035C113.182 233.652 114.497 232.329 116.2 231.58C117.667 230.934 119.601 230.819 120.883 229.819C121.554 229.297 121.61 228.538 121.681 227.761C120.859 227.878 119.99 227.69 119.171 227.594L118.747 227.544C117.973 227.452 117.216 227.351 116.454 227.154C116.313 227.118 116.313 226.904 116.454 226.868C117.355 226.635 118.247 226.536 119.171 226.427L119.388 226.4C120.223 226.291 121.101 226.125 121.921 226.309C122.068 225.75 122.28 225.215 122.578 224.68C122.996 223.928 123.787 223.076 123.894 222.198C123.926 221.936 123.865 221.626 123.741 221.395L123.699 221.316C123.647 221.222 123.585 221.128 123.495 221.07C123.485 221.082 123.464 221.095 123.418 221.109C122.788 221.308 122.238 220.999 121.946 220.523C120.706 220.677 119.353 220.626 118.191 220.677L117.016 220.734C115.76 220.791 114.447 220.817 113.267 220.563C113.102 220.527 113.052 220.253 113.217 220.183C114.668 219.562 116.428 219.364 117.981 219.125C118.849 218.992 119.723 218.891 120.593 218.773C121.172 218.695 121.787 218.566 122.387 218.535C123.892 216.661 123.081 213.704 120.987 212.897C120.224 213.233 119.538 213.038 118.704 212.966C117.872 212.895 117.038 212.846 116.203 212.85C114.529 212.857 112.755 213.298 111.098 213.108C110.828 213.077 110.577 212.718 110.845 212.499C112.114 211.463 113.933 211.126 115.543 210.905L115.877 210.86C116.417 210.789 117.074 210.686 117.755 210.625C117.909 210.324 118.185 210.097 118.6 210.04C118.724 210.024 118.848 210.014 118.972 210.003L118.97 209.991V209.991C119.982 209.942 119.938 208.231 119.661 207.575ZM50.3502 239.579C50.3323 239.606 50.3128 239.633 50.2919 239.658L50.2598 239.695L50.4263 239.628L50.3502 239.579V239.579ZM137.327 203.908C133.066 203.45 128.799 203.547 124.525 203.67C124.183 204.788 122.993 205.742 121.84 205.778C122.743 207.152 122.836 209.013 122.203 210.471C123.547 211.007 124.705 211.968 125.409 213.338C126.384 215.236 126.256 217.349 125.292 219.104C126.115 219.848 126.6 221.058 126.552 222.198C126.497 223.469 125.74 224.555 125.11 225.608C124.43 226.746 124.408 227.748 124.199 229.023C123.893 230.889 122.635 232.02 121.017 232.727L121.103 233.066C121.52 234.691 122.039 236.405 123.232 237.593C124.766 239.122 127.146 239.108 129.173 239.205L129.271 239.209C131.127 239.302 132.982 239.411 134.838 239.516L136.229 239.594C138.366 239.711 140.417 239.726 142.161 238.313C145.008 236.007 146.96 232.19 148.196 228.811C150.789 221.719 150.82 213.936 149.63 206.55C145.638 205.262 141.496 204.356 137.327 203.908ZM101.889 215.675L101.921 215.677C102.798 215.777 103.401 216.488 103.616 217.331C103.927 218.556 103.774 219.664 104.525 220.77C105.296 221.908 105.771 222.819 105.883 224.224C105.929 224.802 105.908 225.379 106.037 225.945L106.13 226.341C106.229 226.764 106.31 227.171 106.261 227.625C106.216 228.039 106.014 228.362 105.599 228.495C104.246 228.928 103.202 227.93 102.852 226.669C102.551 225.58 102.954 224.282 102.528 223.259C102.292 222.692 101.857 222.218 101.611 221.647C101.367 221.081 101.245 220.49 101.206 219.875C101.131 218.712 102.16 217.314 101.586 216.26C101.464 216.035 101.602 215.668 101.889 215.675ZM83.9206 203.67C84.8366 203.484 85.8758 203.057 86.7792 203.412C87.2436 203.595 87.473 204.161 87.0807 204.555C86.3995 205.238 85.4096 205.276 84.4921 205.437L84.4113 205.451C83.3265 205.652 82.2397 205.843 81.1515 206.023C79.1041 206.362 77.0518 206.662 74.9924 206.917C72.8772 207.179 70.756 207.412 68.632 207.588L67.8097 207.655C66.0154 207.799 64.1484 207.907 62.3879 207.632C62.1321 207.592 62.1733 207.219 62.3879 207.154C64.3166 206.57 66.4322 206.414 68.4262 206.166C70.546 205.903 72.6623 205.625 74.7731 205.296C76.8805 204.966 78.9851 204.613 81.082 204.222C82.0297 204.046 82.976 203.862 83.9206 203.67ZM116.974 201.795C116.17 201.511 115.286 201.089 114.415 201.23C112.913 201.473 111.576 202.937 110.387 203.902L110.984 203.785C114.039 203.198 118.084 202.565 120.648 204.508C120.655 204.497 120.66 204.486 120.667 204.475C120.875 204.16 121.114 203.915 121.376 203.646C121.401 203.622 121.425 203.598 121.449 203.573L121.59 203.423L121.267 203.311C120.575 203.066 119.756 202.75 119.626 202.704L119.617 202.701C118.735 202.402 117.852 202.107 116.974 201.795ZM91.8754 137.74C91.7497 136.123 94.2661 136.136 94.3907 137.74C94.6626 141.242 93.8748 144.711 92.1792 147.782C92.1667 147.804 92.153 147.824 92.1399 147.845C93.2004 148.397 94.273 148.927 95.3695 149.4C96.7721 150.006 98.2011 150.558 99.6557 151.025C100.971 151.449 102.593 151.616 103.699 152.498C106.031 154.356 105.155 158.212 104.706 160.712L104.636 161.106C104.413 162.393 104.251 163.712 104.793 164.947C105.372 166.265 106.543 167.243 107.587 168.187L107.798 168.378C108.723 169.221 109.78 170.246 110.459 171.389C111.078 170.108 111.923 169.061 112.816 167.882C113.453 167.041 112.999 166.763 112.542 165.942C112.101 165.151 111.886 164.308 112.024 163.406C112.278 161.739 113.609 160.536 114.934 159.631C116.499 158.564 118.246 157.773 119.863 156.78C123.187 154.739 126.425 152.406 129.341 149.815C129.422 149.744 129.561 149.838 129.497 149.936C127.193 153.441 124.491 156.47 121.171 159.042C119.825 160.084 118.411 160.949 116.987 161.858L116.578 162.121C116.006 162.492 115.293 162.987 115.035 163.617C114.775 164.252 115.329 164.73 115.628 165.256C116.576 166.924 116.118 168.481 114.995 169.896L114.942 169.961C113.825 171.338 112.979 172.618 112.574 174.377C111.705 178.156 112.916 182.091 114.184 185.638L114.234 185.778C114.92 187.69 115.649 189.588 116.245 191.53L116.409 192.067C116.949 193.855 117.391 195.617 116.786 197.455C116.58 198.08 115.728 198.228 115.374 197.639C114.125 195.565 113.814 193.069 113.032 190.789C112.269 188.566 111.393 186.384 110.657 184.152C109.708 181.279 109.073 178.186 109.418 175.172C109.408 175.154 109.396 175.138 109.388 175.119L109.147 174.591C108.488 173.16 107.852 171.911 106.655 170.77C105.406 169.581 104.05 168.527 103.067 167.087C100.932 163.959 102.253 160.479 102.51 157.059L102.54 156.639C102.587 155.929 102.612 154.964 102.149 154.472C101.627 153.919 100.404 153.778 99.7117 153.533C97.9231 152.9 96.1605 152.162 94.4818 151.276C92.8838 150.433 91.3358 149.501 89.8945 148.41L89.164 147.86C88.0114 146.99 86.8162 146.04 86.0438 144.856C85.9546 144.719 86.1061 144.499 86.2675 144.564C87.5571 145.088 88.7353 145.921 89.9419 146.645C89.9607 146.601 89.9824 146.556 90.0071 146.512C91.5 143.809 92.1139 140.815 91.8754 137.74ZM133.069 156.258C133.583 154.848 135.925 154.957 135.831 156.632C135.76 157.919 135.214 159.08 134.714 160.248L134.661 160.373C134.145 161.59 133.55 162.733 132.838 163.849C131.477 165.981 129.882 167.96 128.179 169.828C126.635 171.521 124.609 172.557 122.273 172.385C121.29 172.312 120.296 172.062 119.434 171.57C118.41 170.986 117.298 169.232 115.992 169.657C115.865 169.698 115.747 169.513 115.857 169.425C117.365 168.21 119.077 170.094 120.521 170.548C122.697 171.232 124.93 170.476 126.33 168.716C127.792 166.879 129.138 164.822 130.367 162.821C130.991 161.805 131.56 160.751 132.052 159.665C132.548 158.568 132.661 157.376 133.069 156.258ZM129.562 147.584C129.498 147.389 129.74 147.204 129.911 147.315C130.902 147.96 131.761 148.813 132.675 149.561C133.689 150.39 134.711 151.203 135.748 152.002C137.261 153.169 135.507 155.316 134.175 154.042C132.353 152.299 130.358 150.02 129.562 147.584ZM124.121 140.761C124.523 139.208 126.904 139.849 126.557 141.384L126.546 141.43C125.889 143.966 126.825 146.547 128.823 148.191L128.897 148.251C130.161 149.263 128.37 151.032 127.118 150.03C124.385 147.842 123.249 144.125 124.121 140.761Z" fill="black"/>
<path fill-rule="evenodd" clip-rule="evenodd" d="M144.623 91.3171C143.84 85.0567 141.382 78.4099 138.796 72.5734C132.983 60.2335 119.675 58.5346 107.744 55.9903C95.9709 54.2721 83.504 52.7205 71.9084 56.1489C65.3895 57.7498 62.8434 65.533 63.8723 71.6751C64.4594 75.5024 66.1972 79.1248 67.6791 82.6718C70.6245 89.9562 72.4932 97.7549 72.4963 105.642C72.2942 110.796 71.5685 116.678 77.4766 118.861C83.0986 121.664 83.5736 129.262 90.6131 133.572C93.4596 139.353 101.213 139.861 106.794 141.202C110.321 141.879 113.888 142.377 117.465 142.699C127.822 144.029 136.107 141.021 141.529 131.771C145.157 126.143 147.859 119.643 147.191 112.821C146.526 105.637 145.419 98.4912 144.623 91.3171Z" fill="#FDC6A0"/>
<path fill-rule="evenodd" clip-rule="evenodd" d="M107.833 40.9933C108.425 40.3216 109.335 40.552 109.888 41.0831C110.248 41.1894 110.597 41.3475 110.926 41.5567C111.67 41.461 112.45 41.461 113.18 41.4878C113.357 41.3883 113.547 41.2997 113.754 41.2236C115.229 40.6828 116.536 40.9576 117.614 41.6816C118.134 41.1892 118.789 40.8802 119.626 40.9269C120.373 40.9688 120.906 41.3213 121.362 41.7856C121.817 41.1277 122.553 40.6583 123.47 40.593C124.751 40.5017 125.983 41.0167 127.003 41.8142C127.598 41.1302 128.409 40.7371 129.313 40.7333C129.907 40.6251 130.534 40.6678 131.101 40.8394C131.924 41.0886 132.647 41.5555 133.223 42.1614C134.133 41.2873 135.248 40.6583 136.533 40.75C138.196 40.8705 139.575 42.0965 140.216 43.6056C141.342 44.0576 142.381 44.7025 143.25 45.6218C143.296 45.6702 143.34 45.721 143.387 45.7719C143.855 45.945 144.295 46.1904 144.683 46.5135C145.912 47.5388 146.187 49.0225 145.78 50.4763C145.837 50.709 145.885 50.9458 145.929 51.1823C147.08 51.3577 148.126 52.0236 148.721 53.1079C149.534 54.5958 149.374 56.5569 148.493 57.9774C148.114 58.5884 147.633 59.1032 147.093 59.5534C147.704 60.9441 147.411 62.6036 146.426 63.7284C146.186 64.1163 145.892 64.4663 145.56 64.7831C145.926 66.2209 145.275 67.7044 143.977 68.4726L143.866 68.7513C143.847 68.7976 143.828 68.8437 143.808 68.8894C143.794 68.9486 143.776 69.0058 143.759 69.0635C143.728 69.5737 143.56 70.0744 143.228 70.5462C142.547 71.5129 141.702 72.1434 141.255 73.272L141.21 73.3905C141.017 73.9246 140.396 74.3014 139.866 74.1366C142.807 80.1899 144.348 86.9254 145.407 93.5263C145.934 96.8194 146.341 100.124 146.672 103.441L146.996 106.744C147.281 109.68 147.534 112.626 147.536 115.572C147.54 122.236 145.638 128.646 141.557 133.949C137.697 138.962 132.234 142.595 126.064 144.026C119.693 145.502 112.219 144.92 106.506 141.543C104.821 140.55 106.297 138.161 108.011 138.96C111.255 140.474 114.553 141.598 118.149 141.85C121.655 142.097 125.17 141.657 128.494 140.507C133.995 138.603 138.675 134.615 141.683 129.648C143.165 127.201 144.239 124.544 144.81 121.737C145.521 118.239 145.414 114.623 145.153 111.08L145.135 110.838C144.618 104.011 143.937 97.1425 142.837 90.3837C141.864 84.4069 140.368 78.5513 138.426 72.8252C137.666 72.1539 136.815 71.5985 135.904 71.1766C129.236 70.8974 122.557 70.979 115.898 71.4402C110.219 71.8361 104.567 72.5058 98.9582 73.482L98.3574 73.5877C97.1156 73.8094 95.7369 73.9362 94.5668 74.4373C93.5633 74.8685 93.1564 75.697 92.9034 76.7155C92.2667 79.2918 92.1698 82.1115 92.0622 84.7533C91.9568 87.3358 92.1951 89.9399 91.9885 92.5139C91.8135 94.6676 91.2632 96.872 89.6715 98.4298C88.8388 99.2454 87.8142 99.6914 86.8528 100.311C86.2309 100.71 85.9674 101.122 86.0475 101.862C86.2204 103.481 87.5211 105.52 86.0601 106.907C85.8029 107.15 85.3581 107.182 85.1051 106.907C84.5022 106.25 83.6694 105.749 82.9547 105.218C82.6554 104.999 82.9041 104.572 83.2436 104.724C83.6905 104.925 84.1459 105.161 84.6118 105.368C83.583 104.519 82.1199 104.102 80.9013 103.855C80.2878 103.732 79.6427 103.696 79.0039 103.754C78.5317 103.98 78.0489 104.189 77.5661 104.394C76.9526 104.652 76.3328 104.886 75.7088 105.108C73.5436 106.877 72.5106 109.754 72.9618 112.567C73.2084 114.12 73.9231 115.809 75.2703 116.716C76.8662 117.79 79.0039 117.329 80.7285 118.126C82.3434 118.871 83.3258 120.379 84.0615 121.938L84.3683 122.588C85.0512 124.025 85.7532 125.425 86.6863 126.734C87.7657 128.249 89.0875 129.61 90.5296 130.779C91.2291 131.345 91.9748 131.854 92.7454 132.317L92.9561 132.442C93.7362 132.901 94.2948 133.338 94.3475 134.308C94.3644 134.647 94.1515 134.955 93.8774 135.131C92.6968 135.881 91.5225 134.942 90.5401 134.287C89.4797 133.581 88.4656 132.787 87.5275 131.92C85.7439 130.276 84.2007 128.323 83.0138 126.203C82.1093 124.589 81.5949 122.317 80.1656 121.065C79.2928 120.302 78.0594 120.296 76.9695 120.156C75.9554 120.026 74.9962 119.814 74.0939 119.313C70.4235 117.27 69.3862 112.322 70.2569 108.499C70.4045 107.854 70.6111 107.226 70.8662 106.622C69.5001 106.85 67.9653 105.434 68.5198 104.005C68.5619 103.897 68.6104 103.796 68.6568 103.692C67.7566 103.098 67.0461 102.198 66.7088 101.021C66.5359 100.412 66.5106 99.797 66.6013 99.2031C66.1649 98.9096 65.8044 98.5057 65.5725 98.009C64.8472 97.673 64.2042 97.1702 63.8205 96.4516C63.2893 95.4601 63.3567 94.5471 63.7615 93.725C63.7046 93.6216 63.6498 93.5159 63.5971 93.4079C62.1108 92.4634 61.0735 90.8358 61.1916 89.0309C61.2295 88.4327 61.3771 87.8938 61.6048 87.4079C61.5858 87.3466 61.5669 87.283 61.55 87.2217C60.3061 86.5877 59.2773 85.5459 58.9105 84.1552C58.5437 82.7559 58.9758 81.361 59.8402 80.2873C58.5753 79.3597 57.8142 78.0641 58.2759 76.1047C58.4636 75.3081 58.8409 74.583 59.3511 73.9722C59.349 73.9533 59.3448 73.9343 59.3406 73.9151L59.2222 73.8231C57.6607 72.5877 56.763 71.0135 57.7215 69.0773C58.1515 68.2067 58.765 67.5999 59.486 67.2005L59.5219 67.0864V67.0864C59.0054 65.9768 58.8304 64.7446 59.1867 63.449C59.4776 62.3819 60.167 61.5321 61.0482 60.968C60.9892 60.4901 60.9976 59.981 61.0925 59.4291C61.2506 58.4973 61.7123 57.6836 62.3869 57.1066C62.4122 56.9838 62.4439 56.8636 62.4797 56.7429C62.7074 56.0055 63.1333 55.2045 63.6266 54.6104C64.0335 54.1179 64.4888 53.9383 65.0454 53.9192C65.0117 53.4651 65.0349 53.0041 65.1276 52.537C65.4122 51.0958 66.3272 49.7408 67.6828 49.1258C68.2394 48.8743 68.8254 48.8006 69.3905 48.8616C69.8711 47.8472 70.8093 47.1119 71.9625 46.9534C72.4115 46.8899 72.829 46.894 73.2127 46.9512C73.4298 46.8496 73.6554 46.7589 73.8915 46.6763C74.0475 46.6213 74.2056 46.5706 74.3637 46.5201C74.8971 45.8564 75.5992 45.3257 76.4193 45.0068C77.3658 44.637 78.3293 44.6748 79.1831 44.9855L79.4551 44.9284V44.9284C79.881 44.1887 80.5598 43.6159 81.6034 43.356C82.7882 43.0622 84.0046 43.4722 84.9365 44.2185C84.9407 44.2185 84.9449 44.2185 84.9512 44.2162C85.4382 43.1235 86.271 42.3626 87.6687 42.4154C88.5394 42.4493 89.3258 42.8827 89.9329 43.4999C90.2703 43.4574 90.6076 43.4194 90.947 43.3815C91.3054 42.9607 91.7038 42.5678 92.1445 42.2149C92.8655 41.6356 93.8036 41.6823 94.3349 42.4979C94.4509 42.6754 94.5584 42.8551 94.6659 43.0347L95.1529 43.0009V43.0009C95.7263 42.2252 96.5085 41.7011 97.5794 41.659C98.5619 41.6187 99.2618 42.1007 99.7952 42.7747C100.229 42.7642 100.666 42.7559 101.102 42.7494C101.61 42.1597 102.209 41.6398 102.892 41.2086C103.415 40.8789 104.187 40.9912 104.61 41.4308C104.897 41.7296 105.163 42.0416 105.411 42.3645C106.049 41.6468 106.912 41.174 107.833 40.9933ZM76.8051 108.107C77.7896 107.545 79.1136 108.154 80.0665 108.632C81.2281 109.213 82.3813 110.09 83.0918 111.189C84.0594 112.685 81.7847 113.894 80.7664 112.552C80.1403 111.726 79.6406 110.893 78.8817 110.17C78.188 109.507 77.1824 109.063 76.784 108.188C76.7692 108.158 76.7734 108.124 76.8051 108.107ZM77.4967 71.7867L77.5151 71.734C77.7951 70.9661 76.5732 70.6352 76.2955 71.3966C75.8747 72.5508 76.3598 73.8056 77.497 74.304C77.8122 74.4422 78.1722 74.3942 78.3622 74.0766C78.5218 73.8092 78.4478 73.3459 78.1353 73.2092C77.4955 72.9287 77.2812 72.4336 77.4967 71.7867V71.7867ZM66.97 69.6397C67.5816 69.0986 66.6841 68.2044 66.0755 68.7431C65.5075 69.2457 65.0863 69.9284 65.1957 70.7136C65.3073 71.5137 65.9091 72.0787 66.568 72.4779C67.2662 72.9012 67.9027 71.8052 67.2063 71.3829L67.1281 71.3349C66.8358 71.1529 66.4937 70.9027 66.4442 70.5447C66.3917 70.1643 66.7128 69.8673 66.97 69.6397ZM70.4417 60.0926L70.485 60.0607C71.142 59.5906 70.511 58.4903 69.8465 58.9657C69.2372 59.4017 68.7485 59.9681 68.6971 60.7492C68.6471 61.5084 69.0325 62.1666 69.5363 62.7006C70.0969 63.2947 70.9904 62.3969 70.4309 61.8041C69.8857 61.2263 69.7791 60.5958 70.4417 60.0926V60.0926Z" fill="black"/>
<path fill-rule="evenodd" clip-rule="evenodd" d="M127.453 124.137C127.777 123.573 128.523 123.051 129.206 123.131C132.265 123.49 132.26 127.2 131.079 129.366C130.031 131.287 127.864 132.414 125.695 132.249C123.416 132.076 121.474 130.736 120.619 128.603C120.054 127.192 119.793 124.588 121.297 123.64C121.324 123.622 121.371 123.627 121.393 123.652C122.114 124.491 122.142 125.75 122.773 126.684C123.36 127.553 124.272 128.27 125.34 128.381C126.138 128.464 126.945 128.176 127.257 127.46C127.425 127.072 127.406 126.862 127.343 126.595L127.285 126.363C127.085 125.551 126.996 124.933 127.453 124.137ZM128.271 107.866C129.866 108.836 132.297 111.098 130.581 113.503C128.561 115.624 125.652 113.193 124.219 112.093C122.89 111.241 121.396 113.433 122.629 114.428C132.987 122.099 137.19 108.12 129.078 106.726C128.185 106.572 127.853 107.566 128.271 107.866ZM111.424 101.214C112.403 99.7444 114.638 99.9608 115.178 101.705C115.47 102.65 115.066 103.499 115.087 104.442C115.105 105.239 115.052 106.127 114.808 106.899C114.251 108.659 112.669 109.903 110.797 109.851C108.931 109.8 107.288 108.618 106.506 106.954C105.722 105.284 105.888 103.555 106.46 101.857C106.488 101.775 106.595 101.736 106.659 101.804C107.336 102.524 107.831 103.283 108.344 104.089L108.869 104.915C109.271 105.537 109.854 106.331 110.604 106.281L110.717 106.27C110.925 106.252 110.893 106.293 111.054 106.009C111.128 105.878 111.114 105.634 111.15 105.479L111.163 105.426V105.426L111.156 105.398C111.14 105.323 111.124 105.181 111.112 104.936L111.109 104.881C111.055 103.732 110.73 102.255 111.424 101.214ZM136.246 102.193C136.07 100.313 138.712 99.8954 139.59 101.286C140.048 102.012 140.182 102.923 140.283 103.786L140.33 104.196C140.434 105.082 140.476 106.005 140.091 106.832C139.485 108.134 138.167 108.823 136.746 108.714C135.388 108.609 134.15 107.822 133.497 106.627C132.915 105.56 132.336 103.478 133.043 102.366C133.086 102.298 133.171 102.29 133.23 102.342C133.898 102.935 134.007 104.017 134.404 104.79C134.814 105.587 135.435 106.364 136.377 106.485C137.277 106.601 137.622 106.109 137.392 105.25C137.095 104.141 136.357 103.386 136.246 102.193ZM112.137 90.0386L112.569 89.8731C114.049 89.3137 116.082 88.6671 117.285 89.8712C118.027 90.6137 118.169 91.7074 117.639 92.6135C116.997 93.711 115.845 93.7381 114.733 93.8998C113.468 94.0836 112.182 94.4332 111.004 94.9316C109.678 95.4931 108.447 96.1931 107.241 96.9749C106.094 97.7178 104.952 98.932 103.58 99.1609C103.524 99.1702 103.46 99.1461 103.446 99.0846C103.134 97.7425 104 96.4218 104.773 95.3748C105.708 94.1071 106.841 93.0666 108.107 92.1337C109.329 91.2332 110.726 90.5824 112.137 90.0386ZM139.025 94.8102L139.157 94.787C140.054 94.6376 140.868 94.672 141.544 95.3831C142.06 95.9257 142.259 96.6288 142.013 97.3462C141.786 98.0079 141.278 98.6802 140.541 98.8189C138.053 99.2872 135.296 99.2099 132.795 98.8552C131.651 98.6929 130.497 98.4943 129.382 98.181L128.869 98.0323C127.939 97.7664 126.874 97.4886 126.198 96.8041C125.955 96.558 126.095 96.2059 126.385 96.092C127.565 95.63 129.181 95.8758 130.439 95.8397C131.901 95.7978 133.367 95.6881 134.822 95.537C136.245 95.3891 137.622 95.0676 139.025 94.8102Z" fill="black"/>
<path fill-rule="evenodd" clip-rule="evenodd" d="M109.449 129.598C111.16 125.59 114.893 122.644 119.191 121.566C122.347 120.777 125.66 120.803 128.877 121.116C130.563 121.279 132.371 121.412 133.96 122.038C135.317 122.573 136.422 123.585 137.254 124.772C138.243 126.179 138.916 127.789 139.389 129.439C139.456 129.674 139.519 129.91 139.578 130.148C139.372 131.393 138.936 132.453 137.783 133.235C136.658 134 135.316 134.313 133.978 134.424C133.847 134.361 133.72 134.296 133.604 134.229C131.518 133.035 130.051 130.213 127.419 130.595C125.07 130.936 123.524 133.893 122.127 135.626C117.644 136.149 113.164 134.801 109.516 132.236C109.33 131.359 109.32 130.473 109.449 129.598M142.625 126.557C142.266 125.551 141.815 124.575 141.279 123.657C139.509 120.619 136.792 118.198 133.566 116.814C125.934 113.546 116.06 115.85 109.897 121.211C107.792 123.044 105.663 125.737 105.019 128.634C104.827 128.672 104.646 128.772 104.496 128.913C100.044 126.108 95.4583 123.41 91.8702 119.523C89.2645 116.698 87.4522 113.355 86.3424 109.682C86.2516 109.38 85.7643 109.424 85.779 109.759C85.7833 109.837 85.7875 109.915 85.7917 109.993C85.7453 109.849 85.5258 109.923 85.509 110.063C84.9119 114.525 84.165 119.256 84.8528 123.741C85.2642 126.418 86.4795 128.377 88.1041 130.493C89.8448 132.761 91.8154 134.87 93.8303 136.893C95.1089 138.177 96.4444 139.658 98.01 140.6C99.8308 141.694 101.896 142.525 103.84 143.369C105.816 144.23 107.823 145.026 109.867 145.716C113.954 147.099 118.178 148.056 122.476 148.475C125.917 148.809 129.85 149.173 133.148 147.878C135.675 146.886 137.716 145.092 139.334 142.933C141.096 140.583 142.488 137.905 143.258 135.082C144.058 132.149 142.794 127.03 142.625 126.557" fill="black"/>
</g>
<defs>
<clipPath id="clip0_2016_14097">
<rect width="200" height="267" fill="white"/>
</clipPath>
</defs>
</svg>
