<svg width="200" height="267" viewBox="0 0 200 267" fill="none" xmlns="http://www.w3.org/2000/svg">
<g clip-path="url(#clip0_2016_14080)">
<rect width="200" height="267" fill="white"/>
<path fill-rule="evenodd" clip-rule="evenodd" d="M23.008 267.246C22.7205 267.256 22.8111 267.172 22.9168 267.151C22.9472 267.183 22.9776 267.215 23.008 267.246ZM31.4978 273.56C39.5317 274.513 47.5755 273.641 55.5699 272.767C71.7657 271.566 87.8475 275.065 104.075 273.998C124.355 273.143 144.69 271.538 164.903 274.243C170.494 274.372 179.411 275.881 177.383 267.223C174.72 244.964 171.159 222.817 167.345 200.729C164.113 188.346 163.879 166.928 155.027 158.317C153.733 157.135 149.091 153.311 147.864 152.798C141.763 150.526 130.764 148.752 126.226 143.935C122.55 137.713 124.26 129.223 118.545 124.214C113.536 120.123 102.602 120.988 97.2471 124.06C93.0217 126.801 92.3598 132.124 89.727 136.061C89.0775 137.004 87.5349 139.278 86.6638 140.012C84.5434 142.054 77.096 144.2 74.9453 144.594C62.8086 147.082 56.757 148.619 47.2113 156.687C22.2695 182.16 25.805 227.214 18.9035 260.524C18.6211 264.186 16.3958 269.155 20.3659 271.513C23.7853 273.151 27.8057 272.973 31.4978 273.56Z" fill="#FDC6A0"/>
<path fill-rule="evenodd" clip-rule="evenodd" d="M123.444 135.467C123.474 135.38 123.613 135.365 123.634 135.467C123.974 137.024 124.612 138.732 125.259 140.193C125.916 141.672 126.814 143.031 127.948 144.185C130.325 146.603 133.382 147.706 136.735 147.708L136.815 147.71C136.83 147.598 136.848 147.485 136.864 147.372L136.887 147.203C137.193 144.887 139.942 144.954 140.478 146.702C140.751 146.789 141.023 146.876 141.294 146.966L141.348 146.986C141.803 147.159 143.345 147.927 143.628 147.723C144.252 147.275 144.964 147.789 145.2 148.361C145.587 149.299 145.652 150.458 145.777 151.476L145.794 151.608L145.813 151.766C154.633 154.059 159.583 162.888 162.11 171.02C163.479 175.429 164.375 179.977 165.275 184.5C166.238 189.338 167.126 194.188 168.066 199.028C169.919 208.566 171.672 218.126 173.195 227.721L173.637 230.508C175.032 239.331 176.392 248.149 177.535 257.012C178.152 261.791 178.73 266.574 179.288 271.361C179.388 272.215 179.487 273.069 179.585 273.923L179.732 275.205C179.863 276.355 180.085 277.492 179.516 278.568C178.285 280.901 174.554 280.884 174.342 277.896C174.3 277.302 174.501 276.848 174.833 276.531L174.828 276.48C174.825 276.45 174.821 276.428 174.82 276.419C174.71 275.825 174.68 275.197 174.613 274.596C174.465 273.316 174.321 272.035 174.176 270.752C173.895 268.309 173.611 265.866 173.318 263.425C172.724 258.473 172.097 253.527 171.431 248.586L170.772 243.7C168.566 227.414 166.267 211.131 163.242 194.975C162.419 190.577 161.572 186.185 160.703 181.795C159.879 177.638 158.954 173.499 157.572 169.486C155.316 162.93 151.371 156.79 145.895 152.487C145.98 153.309 146.041 154.135 146.119 154.958C146.32 157.069 146.533 159.178 146.749 161.288C147.533 168.93 148.595 176.56 150.408 184.033C151.306 187.736 152.4 191.39 153.733 194.96C154.39 196.718 155.107 198.454 155.892 200.157C156.67 201.841 158.033 203.642 158.115 205.519C158.153 206.388 157.245 207.159 156.404 207.066C156.797 210.524 157.019 214.017 157.253 217.467C157.595 222.463 157.868 227.468 158.267 232.46C158.981 241.402 159.877 250.332 160.815 259.253C161.001 261.021 161.203 262.788 161.403 264.555L161.57 266.039C161.683 267.001 161.854 268.154 161.343 269.006C161.8 270.108 162.112 271.238 162.294 272.418C162.524 273.884 161.686 275.529 159.974 275.465C159.78 275.459 159.585 275.442 159.391 275.421C157.804 275.789 156.222 276.112 154.574 276.123C152.47 276.137 150.361 276.095 148.257 276.08C144.186 276.053 140.115 276.025 136.044 275.992C121.306 275.873 106.561 275.88 91.8256 275.643L85.9296 275.549C80.5246 275.462 75.1188 275.362 69.7164 275.165C65.996 275.03 62.2758 274.893 58.5572 274.743L57.8002 274.714C54.5192 274.594 51.2344 274.533 47.9896 274.03C47.9083 274.017 47.8731 273.932 47.8857 273.858L47.8903 273.838L47.7488 273.806C47.6664 274.161 45.9551 272.669 45.9678 271.678C45.2579 270.754 45.5896 269.279 45.6657 268.21C45.7396 267.168 45.8326 266.124 45.915 265.082C46.0903 262.856 46.2403 260.629 46.4199 258.403C47.1446 249.429 47.7699 240.432 48.1756 231.439C48.3805 226.906 48.5453 222.37 48.7185 217.836C48.7965 215.772 48.9051 213.707 49.1075 211.652L49.1601 211.139C49.3819 209.055 49.3608 206.815 50.1277 204.851C50.1382 204.824 50.1741 204.824 50.1847 204.851C50.9601 206.762 51.034 208.983 51.1903 211.08C51.2178 211.071 51.2453 211.067 51.2748 211.061C52.346 210.551 53.4277 210.093 54.4417 209.463C54.5791 209.378 54.7122 209.289 54.8474 209.203C56.4425 204.321 58.291 199.519 59.9918 194.668C65.4868 178.984 68.5206 162.281 69.1925 145.673C65.0009 148.376 60.4359 150.479 55.9982 152.738L55.5826 152.95C51.2115 155.186 47.0263 157.724 43.9143 161.602C41.2016 164.98 39.4291 169.095 37.7706 173.062C35.9896 177.325 34.384 181.664 32.9157 186.043C29.9368 194.928 27.6298 204.031 25.8298 213.227C24.053 222.302 22.7833 231.445 21.934 240.652C21.5009 245.348 21.1058 250.048 20.7741 254.755C20.6051 257.137 20.4551 259.521 20.3157 261.907C20.2481 263.065 20.1974 264.226 20.1213 265.384C20.0748 266.052 20.0664 266.741 19.8467 267.375C19.6629 267.903 19.3375 268.345 19.0333 268.812C18.4777 269.664 17.0748 269.818 16.553 268.812L16.3271 268.376C16.028 267.796 15.7548 267.212 15.7143 266.542C15.6763 265.908 15.7544 265.247 15.7903 264.61C15.8601 263.323 15.9403 262.034 16.0206 260.747C16.1896 258.04 16.3777 255.332 16.5889 252.627C17.0094 247.208 17.5502 241.804 18.2305 236.41C20.6241 217.467 24.0805 198.623 30.6763 180.645C32.3072 176.2 34.1263 171.791 36.1798 167.525C38.1657 163.399 40.6777 159.504 44.3241 156.663C47.6808 154.048 51.5826 152.297 55.4594 150.598L55.9439 150.386C60.2896 148.486 64.627 146.44 69.165 145.028C69.0636 145.041 68.9643 145.054 68.8779 145.083C68.7784 145.115 68.7194 144.986 68.7807 144.916C69.0382 144.631 69.146 144.337 69.442 144.056C69.6463 143.862 69.8589 143.678 70.0776 143.501L70.3922 143.25C70.968 142.793 71.5733 142.326 72.2981 142.167C73.3229 141.943 73.8258 142.875 73.5382 143.604C73.6861 143.412 74.0833 143.469 74.1868 143.733C77.5587 152.432 79.7727 161.641 84.3108 169.86C87.6615 175.932 92.1572 181.539 98.1234 185.206C101.328 187.176 104.996 188.689 108.784 188.928C112.185 189.141 115.458 188.277 118.35 186.491C123.957 183.031 127.619 176.957 130.23 171.071C133.101 164.591 135.15 157.686 136.354 150.686C132.539 150.739 128.512 148.998 125.975 146.159C124.64 144.665 123.645 142.845 123.14 140.905C122.63 138.948 122.793 137.339 123.444 135.467ZM91.4346 130.384C91.8996 129.553 92.9306 129.279 93.7736 129.617C94.7093 129.993 94.9905 130.902 94.8574 131.825C94.703 132.907 94.0079 134.076 93.4672 135.021C92.9011 136.01 92.1722 136.921 91.4177 137.773C89.9982 139.379 88.479 140.827 86.6771 142.01C84.8834 143.187 82.8551 144.069 80.7701 144.561L80.2744 144.677C78.6524 145.048 76.3448 145.473 74.9938 144.591C74.9285 144.549 74.9304 144.462 74.9938 144.42C75.7248 143.91 76.7032 143.819 77.5438 143.579C78.4607 143.314 79.3799 143.014 80.2565 142.638C81.987 141.894 83.6433 140.913 85.1177 139.742C86.5989 138.568 88.0311 137.166 89.0222 135.549C89.5208 134.738 89.9454 133.886 90.353 133.028C90.7651 132.168 90.972 131.212 91.4346 130.384Z" fill="black"/>
<path fill-rule="evenodd" clip-rule="evenodd" d="M141.685 76.2443C141.915 74.1044 139.416 68.3955 139.477 69.5535C135.471 63.3612 127.653 60.926 120.907 58.8818C106.588 54.1429 95.4067 59.8661 85.3458 70.0094C79.4061 75.5715 73.7544 81.7846 70.7728 89.4843C64.9071 104.173 73.6994 120.921 87.0704 127.938C88.1493 128.524 89.3251 129.079 90.3526 129.787C95.88 132.988 102.371 134.095 108.53 135.489C120.052 138.129 134.524 136.871 141.314 125.873C145.92 118.068 144.697 108.606 144.336 99.944C143.795 92.3546 142.844 83.7781 141.685 76.2443Z" fill="#FDC6A0"/>
<path fill-rule="evenodd" clip-rule="evenodd" d="M80.0945 54.5843C87.5597 47.5882 98.5935 44.1973 108.682 44.7904C114.146 45.1116 119.411 46.4841 124.349 48.8422C125.894 49.5796 127.398 50.4427 128.786 51.4591C129.722 51.897 130.637 52.3709 131.524 52.8861C135.964 55.4646 139.396 59.3702 141.593 64.003C142.641 66.2142 143.469 68.5459 143.938 70.9484L144.013 71.3439C144.252 72.5495 144.725 74.1379 144.127 75.266C143.73 76.014 142.9 76.4855 142.113 76.4221C142.284 77.1153 142.489 77.8084 142.619 78.506L142.975 80.4082C143.034 80.7252 143.093 81.0422 143.151 81.3593C143.494 83.2487 143.811 85.1359 144.064 87.0401C144.593 91.0053 145.071 94.9787 145.493 98.9584C145.795 101.805 146.078 104.654 146.353 107.502L146.517 109.211C146.8 112.153 147.021 115.12 146.829 118.075C146.54 122.507 145.18 126.551 142.541 129.841C142.793 130.447 142.877 131.13 143.067 131.884C143.329 132.927 143.67 133.948 144.033 134.961C144.203 135.359 144.374 135.757 144.542 136.156L144.985 137.213V137.213L145.331 137.906C145.705 138.66 146.067 139.425 146.297 140.205C147.789 141.003 149.007 142.306 149.066 144.09C149.119 145.703 148.284 147.41 146.874 148.232C145.482 149.045 144.049 148.725 142.717 148.105C141.555 148.444 140.311 148.487 139.16 148.125C138.274 148.929 137.131 149.484 135.865 149.634C133.955 149.861 132.141 149.325 130.389 148.62L130.267 148.571C130.213 148.549 130.158 148.526 130.105 148.503C128.09 148.406 126.083 147.607 124.653 146.191C124.187 145.732 123.785 145.208 123.46 144.621C122.281 142.484 122.098 139.861 123.258 137.741C123.009 137.752 122.758 137.762 122.509 137.769C119.192 137.863 115.869 137.694 112.56 137.475L111.78 137.422C109.639 137.268 106.481 136.904 106.421 134.243C106.413 133.903 106.763 133.647 107.083 133.738C108.3 134.082 109.495 134.624 110.756 134.818C112.404 135.074 114.112 135.101 115.778 135.194L116.257 135.221C119.615 135.405 123.094 135.518 126.399 134.85C128.865 134.353 131.435 133.448 133.695 132.328C135.865 131.251 137.836 129.841 139.425 128C142.927 123.951 143.391 118.238 143.22 113.115C143.014 106.996 142.297 100.886 141.892 94.7758L141.709 92.0308C141.558 89.7417 141.42 87.4495 141.363 85.1593C141.321 83.4875 141.348 81.8115 141.356 80.1398C141.361 79.3049 141.35 78.4659 141.369 77.631C141.38 77.1618 141.435 76.7032 141.475 76.2444C141.289 76.1474 141.116 76.0119 140.96 75.8324C140.838 75.6908 140.743 75.5408 140.678 75.3886C139.891 75.158 139.527 74.8516 139.016 74.1564C138.586 73.571 138.099 73.0299 137.579 72.5227C136.47 71.4448 135.203 70.5635 133.864 69.7961C131.096 68.209 128.064 67.1481 125.007 66.2773C120.327 64.9458 115.466 64.261 110.716 63.1914C109.407 65.0217 108.019 66.7972 106.569 68.5155C102.042 73.8753 96.8521 78.6538 91.2904 82.9148C90.1585 83.7834 89.0114 84.6394 87.8479 85.4698C86.3149 87.8129 84.7658 90.1448 83.1936 92.461L82.5183 93.4527L82.5077 93.4717C82.415 93.6133 82.3262 93.7549 82.2379 93.8965C82.0503 94.1967 81.8394 94.4862 81.616 94.7673C81.4705 94.9806 81.3229 95.194 81.1732 95.4077C81.46 95.5618 81.7214 95.7353 81.9259 95.9276C82.3433 96.3226 82.2735 96.9506 81.9259 97.3521C80.8043 98.6498 79.0292 96.959 77.739 96.5088C76.3412 96.9356 75.1754 98.6033 74.5956 99.8776C73.7607 101.714 73.4255 103.929 73.8029 105.918C74.1484 107.736 75.0805 109.306 76.63 110.291C76.6848 110.325 76.7437 110.361 76.8008 110.392C76.8029 110.397 76.8029 110.397 76.805 110.394C76.8577 110.428 76.9125 110.46 76.9673 110.49C77.6947 110.891 78.4937 111.128 79.322 111.185C79.7964 111.219 80.292 111.193 80.7664 111.251C81.2534 111.307 81.6539 111.532 82.1219 111.65C82.6385 111.783 82.9716 112.478 82.6467 112.945C82.4867 113.176 82.3349 113.396 82.1723 113.592C82.7059 114.222 83.1695 114.917 83.5893 115.579C84.1625 116.485 84.6708 117.447 85.1346 118.428C85.5626 118.992 85.9716 119.567 86.3679 120.155C88.6131 123.49 90.3313 127.205 91.3876 131.088C92.4332 134.928 93.0868 139.242 92.1191 143.162C91.2273 146.768 88.6237 149.754 84.7699 149.947C83.9656 149.986 83.1746 149.896 82.4308 149.692C80.7969 150.703 78.7722 151.212 76.9602 151.272C75.4941 151.32 73.8893 151.01 72.6921 150.122C71.2718 150.741 69.7311 151.093 68.3913 151.173C66.8922 151.263 65.3232 150.853 64.1011 150.042C62.9382 151.041 61.6834 151.883 60.2576 152.462C57.8057 153.455 54.888 153.332 52.6427 151.847C50.3932 150.359 49.2485 147.687 49.9358 145.037C50.5682 142.594 52.5563 140.802 54.4242 139.258L54.7932 138.955C56.6408 137.443 58.5067 135.98 59.6926 133.85C60.9512 131.591 61.4108 128.966 61.5352 126.409C61.805 120.778 60.6624 115.199 60.3145 109.598C59.9561 103.813 60.1564 98.0113 60.9428 92.2689C62.4712 81.1141 66.4937 70.1788 73.7713 61.4837C74.8241 60.2255 75.9512 59.0263 77.139 57.8896C78.0468 56.6993 79.0279 55.5836 80.0945 54.5843ZM176.899 118.276C176.939 118.278 176.977 118.28 177.013 118.295C177.037 118.305 177.057 118.321 177.076 118.339L177.253 118.517C177.316 118.58 177.312 118.677 177.253 118.741C177.201 118.798 177.108 118.8 177.047 118.755L177.03 118.741L176.846 118.556C176.826 118.535 176.809 118.511 176.8 118.481C176.791 118.451 176.791 118.417 176.789 118.386C176.787 118.329 176.842 118.276 176.899 118.276ZM77.9855 101.008C79.6763 100.495 81.7044 101.717 82.7122 103.006C83.2181 103.652 83.3615 104.538 82.7122 105.174C82.1598 105.715 81.0804 105.814 80.547 105.174C79.942 104.445 79.4486 103.435 78.5843 102.968C77.6461 102.46 76.3896 102.587 76.1682 103.823C76.1303 104.033 75.8309 103.963 75.8183 103.775C75.7361 102.524 76.8302 101.357 77.9855 101.008Z" fill="black"/>
<path fill-rule="evenodd" clip-rule="evenodd" d="M123.152 122.274C121.732 121.695 120.465 120.728 119.538 119.493C119.216 119.063 119.133 118.61 119.2 118.195C119.276 117.729 119.552 117.306 119.928 117.023C120.305 116.739 120.777 116.598 121.233 116.67C121.63 116.732 122.024 116.949 122.337 117.399L122.402 117.489C122.953 118.235 123.67 118.846 124.488 119.241C125.276 119.621 126.158 119.798 127.07 119.695C128.808 119.499 130.005 118.559 131.278 117.282C131.436 117.121 131.594 116.955 131.752 116.786C131.852 116.633 131.991 116.534 132.146 116.483C132.317 116.425 132.511 116.429 132.689 116.491C132.86 116.55 133.013 116.664 133.116 116.815C133.213 116.958 133.269 117.135 133.251 117.339C133.134 118.661 132.443 119.842 131.461 120.769C130.37 121.799 128.924 122.511 127.563 122.761C126.064 123.036 124.536 122.839 123.152 122.274V122.274ZM128.271 101.866C129.866 102.836 132.297 105.098 130.581 107.503C128.56 109.624 125.652 107.193 124.219 106.093C122.89 105.241 121.396 107.433 122.629 108.428C132.987 116.099 137.19 102.12 129.078 100.726C128.184 100.572 127.853 101.566 128.271 101.866ZM109.711 92.9429C109.887 90.7541 113.219 90.257 113.551 92.423C113.847 94.3632 113.498 96.1455 112.624 97.8923C111.79 99.5611 109.692 98.7825 109.533 97.2629C109.32 95.2259 109.601 94.3044 109.711 92.9429ZM135.076 91.9739C135.541 91.3652 136.212 90.9497 137.015 91.1845C139.526 91.9185 138.786 95.4846 137.904 97.2204C137.425 98.163 135.876 98.4021 135.176 97.5721C134.036 96.2186 133.489 93.5157 134.94 92.1825C134.979 92.1136 135.023 92.044 135.076 91.9739ZM112.589 83.3654L112.986 83.2959C114.213 83.0836 115.738 82.8796 116.606 83.8665C117.067 84.3898 117.225 85.3624 116.606 85.8633C115.518 86.7446 114.314 86.4031 113.01 86.4777C111.935 86.5394 110.902 86.7174 109.867 87.0135C107.595 87.6629 105.744 88.8486 103.804 90.1505C103.55 90.3213 103.29 89.9956 103.411 89.7574C104.531 87.563 106.701 85.7604 108.875 84.6616C110.036 84.0751 111.305 83.5885 112.589 83.3654ZM132.787 82.3823L133.091 82.4445C136.395 83.1353 140.687 84.5153 142.251 87.7615C142.311 88.2205 142.248 88.3189 142.197 88.3832L142.18 88.4046C142.137 88.4595 142.104 88.5351 141.905 88.5976C141.85 88.5844 141.794 88.5705 141.737 88.5557C141.02 88.3677 140.453 88.1087 139.904 87.84L139.308 87.5465C138.617 87.2076 137.92 86.881 137.181 86.6399C135.605 86.1255 133.983 85.7631 132.337 85.5696C131.98 85.5277 131.636 85.4072 131.365 85.2006C131.108 85.0046 130.911 84.7332 130.821 84.3724C130.705 83.9056 130.739 83.5521 130.989 83.1309C131.177 82.8146 131.447 82.5953 131.756 82.4694C132.071 82.3411 132.43 82.3108 132.787 82.3823Z" fill="black"/>
<path fill-rule="evenodd" clip-rule="evenodd" d="M146.773 110.395C146.491 109.554 145.042 109.627 145.131 110.618C145.234 111.749 144.846 113.012 143.762 113.561C142.628 114.136 141.351 113.619 140.658 112.632C140.056 111.774 139.641 110.841 138.884 110.093C138.18 109.397 137.323 108.861 136.386 108.542C135.657 108.294 134.9 108.228 134.165 108.31C132.336 107.896 130.216 108.837 129.076 110.264C129.002 110.356 128.934 110.45 128.868 110.545C128.755 110.392 128.637 110.239 128.511 110.089C128.188 109.702 127.787 109.619 127.425 109.724C125.363 108.19 122.473 107.987 120.131 109.371C118.255 110.481 116.702 112.116 114.395 112.243C112.567 112.344 110.577 111.3 110.448 109.291C110.38 108.242 108.951 107.367 108.149 108.339C106.464 110.381 106.127 113.094 107.059 115.564C108.043 118.17 110.048 120.005 112.587 121.085C115.328 122.251 118.541 122.656 121.506 122.564C124.463 122.472 127.151 121.334 128.933 118.915C129.146 118.626 129.333 118.333 129.497 118.036C131.227 120.24 133.939 121.166 136.702 121.233C139.592 121.302 143.008 120.795 145.052 118.55C147.021 116.385 147.701 113.167 146.773 110.395" fill="black"/>
</g>
<defs>
<clipPath id="clip0_2016_14080">
<rect width="200" height="267" fill="white"/>
</clipPath>
</defs>
</svg>
