<svg width="200" height="267" viewBox="0 0 200 267" fill="none" xmlns="http://www.w3.org/2000/svg">
<g clip-path="url(#clip0_2016_14106)">
<rect width="200" height="267" fill="white"/>
<path fill-rule="evenodd" clip-rule="evenodd" d="M225.861 194.94C228.025 193.81 230.138 192.583 232.217 191.305C233.682 190.428 232.385 188.221 230.883 189.018C230.115 189.426 229.35 189.838 228.583 190.244C229.187 189.723 229.747 189.156 230.249 188.539L230.215 188.504C232.151 186.769 229.664 183.495 227.462 184.92C225.52 186.328 223.561 187.765 221.332 188.692C216.715 190.65 211.623 190.975 206.668 191.031C204.855 190.895 203.123 191.209 201.363 191.559C202.053 188.791 203.779 186.7 204.695 184.019C205.371 181.312 201.465 179.468 200.08 182.07C199.741 182.709 199.417 183.356 199.1 184.005C196.108 186.728 191.112 186.488 188.095 189.411C186.376 190.937 185.535 193.008 185.202 195.086C184.977 196.497 185.327 197.912 184.474 199.162C180.351 204.997 173.835 214.22 170.526 220.641C168.183 205.382 161.927 186.509 155.464 172.556C153.327 168.094 150.882 163.734 147.672 159.951C148.036 158.69 146.752 156.451 145.935 157.14C143.422 154.069 138.979 153.273 135.406 151.746C130.584 149.683 126.583 145.395 124.616 140.522C122.089 131.241 115.867 130.062 107.239 130.472C98.9823 130.462 92.873 133.995 91.0714 142.404C87.4111 148.786 78.769 147.731 72.5516 149.42C67.995 150.461 63.573 152.071 59.3704 154.115C54.6953 149.679 37.9513 168.298 36.4293 173.09C37.3253 173.263 38.2158 173.472 39.0983 173.727C39.8842 173.955 39.5542 175.142 38.7615 174.952C37.7751 174.715 36.7823 174.552 35.7849 174.439C35.7545 174.534 35.7279 174.629 35.708 174.723C35.5961 174.715 35.4843 174.705 35.3723 174.698C35.6206 174.827 35.8595 174.977 36.0923 175.171C36.6552 175.638 35.9225 176.54 35.3244 176.168C34.7609 175.746 34.023 175.813 33.3471 175.671C33.307 177.062 28.3479 175.506 27.5776 175.045C24.154 174.617 20.632 175.077 17.4359 173.425C13.1833 172.529 8.89881 171.538 4.69396 170.397C3.58079 170.831 2.53459 172.385 3.41874 173.525C3.91607 174.044 3.27677 174.891 2.65057 174.522C0.550363 173.285 -1.07386 171.355 -2.4509 169.275C-3.09907 168.621 -4.24964 168.762 -5.12048 168.49C-5.23689 168.699 -5.30555 168.933 -5.3045 169.172C-8.99851 169.78 -6.36337 173.816 -4.50633 175.074C-5.49147 175.716 -5.52886 176.972 -5.44267 178.022C-5.6514 178.395 -5.72112 178.859 -5.53943 179.278C-4.84478 180.879 -3.34245 182.227 -2.20013 183.525C-0.938862 184.958 0.185715 186.398 1.72036 187.56C7.56994 192.021 14.629 194.515 21.8709 195.49C24.4422 195.885 28.1409 196.49 29.733 198.665C29.3423 201.246 28.6251 203.722 27.9744 206.239C27.0644 209.581 27.1263 213.079 27.1143 216.485C26.9871 216.383 26.7429 216.404 26.7066 216.599C26.4949 218.011 26.3375 219.455 25.4795 220.641C24.7274 222.848 24.2269 225.201 23.9457 227.519C22.8192 238.508 22.5503 249.822 25.0902 260.64C26.0702 264.653 27.6642 268.467 29.8361 271.979C30.4836 273.027 31.5247 273.334 32.4596 273.128C35.5885 274.754 39.5301 275.275 42.9025 274.862C54.3999 271.606 50.3939 279.447 66.5142 277.046C94.3397 273.5 122.46 280.468 150.227 276.377C150.91 281.661 159.863 280.145 162.972 277.911C172.296 270.977 176.926 249.023 181.605 237.886C184.822 229.108 190.208 213.56 197.262 207.669C199.377 206.015 201.933 205.143 204.491 204.44C214.038 201.979 223.622 199.652 233.186 197.259C234.809 196.859 234.517 194.092 232.782 194.269C230.481 194.505 228.171 194.718 225.861 194.94Z" fill="#FDC6A0"/>
<path fill-rule="evenodd" clip-rule="evenodd" d="M13.3368 193.294C12.6904 193.214 12.0566 192.984 11.427 192.802C10.4657 192.521 9.52346 192.193 8.59599 191.819C6.68191 191.052 4.82487 190.145 3.08402 189.036C0.272048 187.241 -2.21246 184.942 -4.0864 182.173L-4.21506 181.98C-5.28488 180.35 -7.25829 176.73 -5.04556 175.492C-6.47168 174.3 -7.81957 172.159 -7.74351 170.507C-7.63576 168.169 -4.77097 168.201 -3.28999 169.192C-2.32027 169.841 -1.59351 170.75 -0.864635 171.644C-0.0575927 172.637 0.804379 173.584 1.70015 174.495C1.93783 174.736 2.17788 174.972 2.42209 175.204L2.66774 175.435C2.62973 175.344 2.59593 175.251 2.56635 175.156C2.07198 173.616 2.66142 171.61 4.20156 170.904C5.14407 170.472 6.1229 170.736 7.03623 171.103L7.17621 171.16C8.40579 171.669 9.65015 172.119 10.9304 172.481C16.1487 173.954 21.5952 174.199 26.9424 174.934C29.0023 175.22 31.1002 175.579 33.1495 176.107C33.9311 172.787 35.8473 169.604 37.9262 166.986C47.8811 154.459 64.2987 150.319 79.3177 147.639C80.6867 147.396 81.8213 149.209 82.6178 148.78C84.1284 147.968 85.4572 146.818 86.6234 145.569C89.1101 142.904 90.8741 139.77 92.9467 136.8C93.9713 135.334 96.3291 136.646 95.3784 138.221L94.9126 138.99C92.995 142.142 90.8715 145.391 88.1213 147.835C86.6594 149.133 85.0368 150.158 83.1819 150.798C81.777 151.282 79.8058 151.69 78.2678 151.221L78.0832 150.952C78.1443 151.042 78.2058 151.131 78.2678 151.221C82.2818 157.039 87.3184 161.964 92.6255 166.611C97.9823 171.3 103.761 175.498 109.575 179.604L110.059 179.945C119.53 173.035 127.531 164.02 133.144 153.721C131.968 153.58 130.804 152.825 129.798 152.263C128.588 151.582 127.449 150.771 126.561 149.689C124.628 147.332 124.88 144.295 124.531 141.435C124.51 141.258 124.745 141.213 124.852 141.302C125.9 142.173 126.268 143.6 126.705 144.832C127.187 146.187 127.732 147.303 128.837 148.256C129.866 149.144 131.121 149.796 132.34 150.378C132.968 150.676 136.089 151.442 136.445 152.077C141.836 150.811 147.088 152.998 151.083 156.689C154.943 160.254 157.776 164.889 160.278 169.465C162.946 174.347 165.133 179.436 167.017 184.667C168.927 189.976 170.391 195.402 171.196 200.99C171.875 205.701 172.292 210.486 172.562 215.25L172.595 215.846C176.583 209.583 180.671 203.386 184.844 197.245C183.895 194.71 184.945 192.124 186.722 190.166C188.691 188 191.414 186.994 194.019 185.823L194.362 185.668C195.617 185.095 196.868 184.464 197.953 183.606C198.997 182.778 199.764 181.636 200.862 180.873C202.459 179.762 205.358 179.998 205.432 182.427C205.47 183.761 204.897 185.223 204.373 186.421C203.78 187.776 202.979 189.004 202.028 190.133C201.984 190.185 201.936 190.227 201.888 190.26L201.851 190.283C203.165 190.5 204.49 190.676 205.84 190.737C208.563 190.862 211.316 190.661 213.982 190.086C216.711 189.499 219.357 188.543 221.811 187.212C223.909 186.075 225.853 184.604 228.236 184.257C228.456 184.223 228.678 184.202 228.906 184.189C229.286 184.168 229.666 184.616 229.516 184.992C229.434 185.2 229.347 185.405 229.252 185.612C228.428 187.427 227.165 189.188 225.588 190.525L225.466 190.627C226.022 190.435 226.569 190.219 227.108 189.976C230.275 188.55 233.148 186.394 236.543 185.527C236.704 185.485 236.866 185.447 237.029 185.411C238.079 185.185 238.633 186.326 238.016 187.108C237.916 187.235 237.817 187.36 237.714 187.484C236.199 189.365 234.528 191.111 232.685 192.679C232.054 193.216 231.403 193.736 230.74 194.233C230.46 194.443 230.179 194.649 229.895 194.852L229.755 194.951C230.087 194.717 230.414 194.478 230.74 194.233C232.818 193.603 234.868 192.857 236.873 192.031C237.669 191.703 238.288 192.51 238.373 193.174C238.656 195.397 236.188 197.006 234.583 198.075C232.973 199.149 231.2 199.965 229.385 200.62C225.896 201.881 222.231 202.454 218.572 202.967L216.795 203.215C209.76 204.199 202.413 205.376 197.366 210.851C194.537 213.92 192.623 217.733 190.871 221.484C189.122 225.232 187.586 229.078 186.128 232.946C184.618 236.949 183.302 241.026 181.903 245.069C180.618 248.781 179.084 252.446 177.565 256.074L177.325 256.647C174.099 264.357 170.245 271.619 164.875 278.056C163.99 279.119 162.559 277.611 163.377 276.558C168.995 269.313 172.903 260.764 176.129 252.236C177.597 248.356 178.827 244.382 180.238 240.48L181.078 238.163C182.199 235.073 183.33 231.987 184.51 228.922C186.004 225.043 187.645 221.212 189.523 217.504L189.723 217.114C191.561 213.538 193.746 210.013 196.753 207.307C202.165 202.433 209.367 201.264 216.33 200.338L218.52 200.049C221.464 199.658 224.416 199.226 227.279 198.439C228.931 197.987 230.545 197.407 232.062 196.608C232.666 196.291 233.256 195.943 233.826 195.562C232.199 196.04 230.549 196.431 228.87 196.737C228.048 196.887 227.235 197 226.423 197.078C224.334 197.285 222.261 197.276 220.121 197.164C219.94 197.154 219.881 196.868 220.075 196.832C221.565 196.567 223.057 196.236 224.543 195.876L224.989 195.767C224.997 195.52 225.095 195.258 225.297 195.009C226.037 194.108 227.442 193.647 228.416 193.011C229.436 192.345 230.425 191.627 231.367 190.857C232.229 190.154 233.057 189.41 233.854 188.632L234.093 188.397C234.013 188.476 233.934 188.554 233.854 188.632C231.703 189.626 229.664 190.9 227.419 191.686C225.633 192.314 223.761 192.736 221.873 192.887L221.755 192.896L221.638 192.903C219.667 193.045 217.683 192.988 215.742 193.415C215.524 193.464 215.457 193.172 215.651 193.089C217.347 192.384 219.111 192.111 220.895 191.781C220.933 191.642 221.03 191.517 221.199 191.437L221.655 191.219C223.014 190.566 224.28 189.907 225.409 188.848C226.406 187.911 227.237 186.817 227.86 185.603C225.365 186.151 223.174 188.042 220.905 189.105C218.433 190.266 215.818 191.098 213.13 191.572L212.824 191.625C207.802 192.463 201.763 192.356 197.264 189.744C197.121 189.659 197.224 189.467 197.372 189.49C198.648 189.699 199.911 189.947 201.175 190.166C200.928 189.94 200.818 189.534 201.103 189.209C202.238 187.908 203.135 186.421 203.709 184.794L203.818 184.476C204.083 183.721 204.529 182.55 204.073 181.869C203.638 181.22 202.614 181.309 202.001 181.583C200.727 182.158 199.88 183.594 198.806 184.46C197.636 185.407 196.305 186.108 194.942 186.736L194.655 186.867C192.298 187.928 189.779 188.82 187.926 190.693C186.929 191.699 186.071 192.956 185.784 194.366C185.653 195.013 185.653 195.678 185.826 196.319C185.964 196.82 186.251 197.128 186.086 197.638C185.871 198.295 185.108 199.081 184.715 199.667C184.259 200.343 183.804 201.021 183.35 201.7C182.444 203.057 181.542 204.418 180.64 205.777C178.835 208.499 177.05 211.234 175.28 213.977C174.704 214.87 174.129 215.765 173.557 216.66L172.7 218.003L172.247 218.712L171.475 219.926C171.502 220.039 171.5 220.157 171.464 220.26C171.333 220.636 171.086 220.892 170.78 221.078L170.725 221.11C166.216 228.239 161.78 235.414 157.299 242.56C157.06 244.741 156.836 246.924 156.642 249.108C156.2 254.049 155.898 259.003 155.801 263.964C155.754 266.365 155.947 268.78 156.05 271.179C156.101 272.324 156.17 273.467 156.261 274.611L156.327 275.421C156.417 276.534 156.467 277.64 156.067 278.701C155.712 279.633 154.63 279.842 153.99 279.132C145.639 278.796 137.281 278.54 128.923 278.382C113.964 278.094 98.9973 278.139 84.0354 278.428C76.5206 278.574 69.0037 278.779 61.491 279.033C57.7896 279.155 54.0861 279.329 50.3825 279.379C48.3872 279.407 45.2468 278.68 45.0858 276.434L45.0818 276.366C44.8326 276.433 44.5748 276.488 44.3107 276.528C44.1932 276.546 44.0802 276.541 43.9759 276.517L43.9241 276.503C40.9497 277.41 37.1873 276.116 34.361 275.362L34.1277 275.3C31.4298 274.597 29.2622 273.59 27.4939 271.354C24.3988 267.438 23.3425 262.18 22.7932 257.333C22.2777 252.773 22.2481 248.127 22.8755 243.575C22.5058 239.866 22.8671 236.038 23.2875 232.35C23.4945 230.526 23.7375 228.704 24.0291 226.891C24.1917 225.878 24.4051 224.876 24.6227 223.877C24.7096 223.477 24.7819 223.047 24.8921 222.631L24.9417 222.454C24.6037 222.499 24.234 222.425 23.8769 222.228C23.0276 221.761 22.7804 220.816 22.7656 219.912C22.7192 217.185 23.0445 214.381 23.3318 211.671C23.6213 208.966 24.0185 206.25 24.5382 203.579L24.6727 202.89C25.0665 200.891 25.5171 198.828 26.3107 196.951C23.3298 196.444 20.3573 195.905 17.465 194.987C16.0537 194.537 14.6636 193.977 13.3368 193.294ZM168.927 221.668C168.88 221.679 168.836 221.691 168.792 221.704C167.6 222.038 166.396 222.321 165.196 222.626C163.121 223.148 161.093 223.731 159.164 224.638C158.76 229.74 158.161 234.825 157.592 239.913L157.478 240.931C158.353 239.307 159.249 237.697 160.185 236.106C163.035 231.255 165.95 226.443 168.927 221.668ZM25.6685 222.173C25.6748 222.78 25.5481 223.41 25.4805 223.993C25.3706 224.94 25.2819 225.891 25.1699 226.838C24.9417 228.74 24.7474 230.644 24.6058 232.555C24.515 233.774 24.4558 234.998 24.403 236.222C25.6009 231.743 27.1875 227.362 28.696 222.974C28.4438 222.948 28.1861 222.886 27.9202 222.815L27.4726 222.695C27.2087 222.627 26.3525 222.416 25.6685 222.173ZM172.7 218.003L172.709 218.204C172.74 218.916 172.314 219.318 171.796 219.422C172.096 218.948 172.398 218.475 172.7 218.003ZM35.6297 184.247C36.891 184.358 38.1269 184.627 39.3058 185.092L39.4195 185.136C40.2915 185.473 41.5664 185.896 41.8516 186.827C41.9318 187.091 41.7164 187.309 41.4692 187.33C40.5227 187.406 39.4072 186.392 38.5304 186.049C37.5544 185.669 36.5318 185.386 35.4966 185.236C33.1706 184.895 30.7452 185.153 28.5565 186.001C28.4276 186.052 28.3473 185.846 28.4635 185.785C30.6692 184.585 33.122 184.025 35.6297 184.247ZM8.90233 190.291C8.75647 190.162 8.6107 190.027 8.46703 189.892C7.33434 188.82 6.3313 187.569 5.58862 186.194L5.39316 185.822C4.78827 184.65 4.04548 182.981 5.46703 182.137C6.31633 181.632 7.33887 181.759 8.28534 182.065C8.34661 182.084 8.40788 182.106 8.46915 182.127C8.89168 182.275 9.29943 182.452 9.66281 182.621C11.241 183.346 12.6332 184.401 14.091 185.331C15.6705 186.339 17.2301 186.984 19.0531 187.361L19.2248 187.396C20.9361 187.734 22.791 187.951 23.9846 189.359C24.2846 189.714 24.01 190.38 23.4924 190.204C20.1924 189.091 16.7001 188.845 13.6706 187.017C12.4156 186.261 11.2283 185.392 9.94591 184.675C9.26563 184.295 8.56326 183.962 7.81476 183.734L7.40585 183.613C7.16634 183.543 6.88041 183.474 6.68816 183.543C6.32219 183.67 6.43899 183.866 6.55222 184.208L6.56351 184.242C7.45295 186.994 9.98816 189.298 12.3375 190.822C12.8762 191.172 13.4276 191.494 13.9896 191.792C17.7935 193.82 22.0499 194.764 26.2303 195.885C26.2303 195.885 28.6474 196.56 29.4481 196.813C30.3396 196.739 31.3558 197.054 32.0277 197.431C32.6805 197.796 33.2065 198.287 33.6037 198.864C33.6037 198.864 33.9861 199.183 34.0558 199.677C34.2565 200.136 34.3917 200.63 34.4594 201.146C34.4974 201.448 34.4213 201.681 34.2777 201.846C34.7098 208.48 32.9183 215.078 30.8986 221.383L30.6985 222.005L30.5699 222.399C28.3917 229.084 25.8925 235.721 24.777 242.691C24.0312 247.347 24.0544 252.166 24.6016 256.843L24.6402 257.166C25.1793 261.588 26.2166 266.549 29.0277 270.108C30.4615 271.924 32.1602 272.731 34.332 273.316L34.4509 273.348C36.4157 273.865 38.4439 274.599 40.4699 274.821C42.3502 275.026 43.9263 274.326 45.6185 273.671L45.6206 273.669C49.1847 270.513 50.803 265.919 51.9988 261.281C55.0981 249.281 54.7136 236.824 52.9558 224.648C52.0389 218.287 50.7924 211.98 49.5502 205.675C48.9291 202.524 48.2593 199.379 47.7037 196.217L47.3737 194.357C47.1916 193.323 47.0155 192.288 46.865 191.249C46.6622 189.852 46.6009 188.478 46.5312 187.072C44.8241 184.242 42.346 181.911 39.4748 180.239C37.4192 179.041 35.2431 178.21 32.9974 177.608C26.5769 175.877 19.5776 176 13.1171 174.668C10.9467 174.221 8.88651 173.558 6.82742 172.763L6.54663 172.654C5.60227 172.286 4.63889 172.081 4.16987 173.195C3.83607 173.988 4.03466 174.812 4.53537 175.478C5.76283 177.109 8.23044 177.866 10.0875 178.453C11.2051 178.808 12.3459 179.09 13.4994 179.299C14.653 179.508 15.8107 179.561 16.9178 179.969C17.3445 180.125 17.429 180.804 16.9178 180.924C15.5149 181.252 14.1037 180.971 12.7093 180.698C11.1776 180.396 9.66917 179.967 8.20297 179.424C7.93255 179.324 7.65266 179.219 7.36764 179.107L7.15297 179.022C7.3748 179.183 7.59663 179.341 7.82058 179.5C7.87973 179.542 7.84382 179.654 7.76565 179.626C4.31817 178.34 1.18139 176.018 -1.24865 173.272L-1.36956 173.134C-2.2252 172.153 -4.1752 169.186 -5.81886 170.012C-7.3623 170.787 -4.73128 173.775 -3.73141 174.996L-3.6153 175.14C-2.47868 175.169 -1.37797 175.877 -0.456846 176.448C1.14245 177.439 2.81358 178.293 4.51639 179.092C7.9009 180.683 11.4946 181.806 14.8432 183.477C14.8875 183.501 14.8537 183.557 14.8115 183.551C12.6798 183.211 10.5713 182.668 8.51146 181.994L8.41956 181.965L8.32766 181.934C7.04104 181.512 5.77132 181.034 4.52273 180.525C3.1347 179.958 1.77837 179.322 0.462168 178.601C-0.729381 177.95 -2.05192 176.777 -3.43361 176.604C-3.58149 176.585 -3.71248 176.583 -3.82656 176.594C-5.41316 176.727 -4.10119 179.356 -3.65753 180.142C-2.93288 181.433 -2.05823 182.625 -1.05471 183.714C0.979795 185.925 3.44529 187.677 6.1136 189.04C7.02416 189.505 7.95585 189.915 8.90233 190.291Z" fill="black"/>
<path fill-rule="evenodd" clip-rule="evenodd" d="M109.619 53.9492C121.59 53.9492 137.042 61.477 138.359 69.187C139.912 78.2729 148.227 113.137 146.35 124.317C144.472 135.497 134.354 143.546 118.163 143.546C101.972 143.546 89.8876 134.694 87.1129 131.655C84.3381 128.616 79.1959 117.765 79.1959 117.765C79.1959 117.765 70.527 116.609 70.4859 109.525C70.4448 102.44 76.1221 99.863 76.1221 99.863C76.1221 99.863 74.0979 71.9057 79.1959 64.627C84.294 57.3483 97.6488 53.9492 109.619 53.9492Z" fill="#FDC6A0"/>
<path fill-rule="evenodd" clip-rule="evenodd" d="M137.627 67.9429C137.618 67.7804 137.854 67.7614 137.898 67.9051C140.481 76.4584 142.073 83.1242 143.749 91.8934L144.244 94.4729C145.566 101.353 146.902 108.243 148.031 115.157L148.097 115.569C148.662 119.148 148.988 122.762 148.28 126.348C147.618 129.7 145.809 132.773 143.46 135.22C138.921 139.95 132.613 142.905 126.268 144.226C123.059 144.894 119.749 145.152 116.479 144.919C114.849 144.805 113.222 144.574 111.626 144.234L111.45 144.196C109.841 143.848 108.413 143.433 107.559 141.916C107.344 141.533 107.431 140.878 107.882 140.681C108.734 140.313 109.36 140.159 110.289 140.265C111.177 140.366 112.043 140.635 112.92 140.802C114.596 141.121 116.3 141.281 118.005 141.32C121.355 141.394 124.714 140.973 127.916 139.971C133.418 138.249 139.01 134.954 142.225 130.025C146.007 124.227 144.501 117.191 143.499 110.787L143.468 110.594C142.454 104.049 141.451 97.5042 140.477 90.9552L140.061 88.1482C138.97 80.7319 137.939 75.4376 137.627 67.9429ZM81.7609 49.7902C84.5072 47.9756 87.9198 47.5297 91.1454 47.5548L91.5493 47.5599C95.6796 47.623 116.47 48.119 123.431 48.2716L125.087 48.3066C127.279 48.348 131.699 48.3913 133.977 48.433L134.108 48.4355C135.225 48.4566 136.343 48.4651 137.46 48.501L137.624 48.5069C138.461 48.5427 139.157 48.6683 139.813 49.2598C140.146 49.5595 140.276 50.0167 140.246 50.4522L140.241 50.5088L141.9 50.6547C143.027 50.7545 143.622 51.7675 143.175 52.7925L143.152 52.8421C142.357 54.5414 141.75 59.487 141.324 61.3152C141.101 62.2768 140.922 63.2533 140.816 64.236C140.732 65.0098 140.724 65.7852 140.294 66.4658C139.376 67.9178 136.796 67.9051 136.75 65.8486C136.748 65.7831 136.75 65.7197 136.756 65.6584C130.263 65.3731 121.398 65.4006 114.913 65.7895C108.856 66.153 102.826 66.9772 96.8916 68.239C95.3885 68.5581 93.8895 68.9069 92.4011 69.2852C91.1805 69.5938 89.6815 69.7776 88.5895 70.4392C87.3667 71.1831 87.3899 72.5167 87.5227 73.787C87.6653 75.1333 87.903 74.4396 88.2398 75.6665L88.2606 75.7441C88.6084 77.0756 89.0385 78.3923 89.6077 79.6435C89.9324 80.3578 90.4554 81.0447 90.2571 81.8669C90.1453 82.3297 89.7804 82.8243 89.4454 83.1477C87.9188 84.6165 85.3386 83.6803 84.3013 85.6923C83.2158 87.7963 83.1889 90.6463 83.0967 92.9744L83.0912 93.1107C83.024 94.7149 83.0427 96.3232 83.1481 97.9232C83.243 99.3813 83.6307 100.825 83.1334 102.226C82.7706 103.245 81.586 103.34 80.9661 102.512C80.895 102.416 80.8298 102.319 80.7687 102.221L80.7089 102.123L80.7049 102.125C80.7638 102.218 80.8186 102.313 80.8713 102.41C80.9282 102.518 80.7869 102.636 80.7005 102.543C79.2416 100.952 77.1102 101.269 75.4595 102.383C73.7877 103.515 73.1278 105.667 73.0413 107.597C72.9444 109.737 73.1341 112.247 74.0238 114.225C74.399 115.062 74.9343 115.831 75.8221 116.15C76.225 116.294 76.6085 116.275 77.028 116.309C77.4642 116.342 77.9893 116.562 78.4129 116.533C78.9635 116.493 79.4579 117.123 79.3015 117.651L79.2901 117.687C79.2819 117.712 79.2732 117.737 79.265 117.76C79.2859 117.78 79.307 117.803 79.3217 117.837C80.924 121.119 83.1207 124.04 85.5494 126.749C86.7661 128.104 88.1151 129.349 89.5255 130.501C90.2212 131.069 90.9549 131.638 91.7286 132.096C91.9858 132.246 92.2217 132.348 92.511 132.431C92.6457 132.468 92.7996 132.487 92.9303 132.532L93.066 132.578C93.0753 132.581 93.0842 132.584 93.0926 132.587C93.4805 132.631 93.8073 132.889 93.9359 133.293C94.2711 134.345 93.6618 135.275 92.6204 135.565C91.492 135.881 90.4287 135.326 89.5343 134.688L89.4749 134.645C87.6513 133.329 85.971 131.851 84.5164 130.127C81.6387 126.722 79.8359 122.78 79.0015 118.42C78.7947 118.866 78.5164 119.255 78.0336 119.525C77.2831 119.948 76.3871 119.948 75.5649 119.806C73.9099 119.525 72.4995 118.513 71.5572 117.143C70.5787 115.723 70.2142 113.998 69.9929 112.318C69.7736 110.636 69.6661 108.947 69.8853 107.261C70.1997 104.839 71.2135 102.444 73.1847 101.117C71.7089 97.8936 71.4496 94.2795 71.555 90.7499C71.6837 86.4046 72.4321 82.0106 73.0076 77.7054L74.6438 65.4661V65.4661L74.7107 64.9727C75.1056 62.0934 75.5862 59.1988 76.6612 56.4858C77.7216 53.8122 79.3323 51.3944 81.7609 49.7902ZM74.8755 107.692C77.5783 106.377 80.4982 107.588 81.9528 110.139C83.2176 112.357 79.4571 113.823 78.8296 111.537L78.8116 111.466C78.3984 109.735 76.7158 108.239 74.9599 108.007C74.8144 107.986 74.7067 107.774 74.8755 107.692Z" fill="black"/>
<path fill-rule="evenodd" clip-rule="evenodd" d="M123.152 128.274C121.732 127.695 120.465 126.728 119.538 125.493C119.216 125.063 119.133 124.61 119.2 124.195C119.276 123.729 119.552 123.306 119.928 123.023C120.305 122.739 120.777 122.598 121.233 122.67C121.63 122.732 122.024 122.949 122.337 123.399L122.402 123.489C122.953 124.235 123.67 124.846 124.488 125.241C125.276 125.621 126.158 125.798 127.07 125.695C128.808 125.499 130.005 124.559 131.278 123.282C131.436 123.121 131.594 122.955 131.752 122.786C131.852 122.633 131.991 122.534 132.146 122.483C132.317 122.425 132.511 122.429 132.689 122.491C132.86 122.55 133.013 122.664 133.116 122.815C133.213 122.958 133.269 123.135 133.251 123.339C133.134 124.661 132.443 125.842 131.461 126.769C130.37 127.799 128.924 128.511 127.563 128.761C126.064 129.036 124.536 128.839 123.152 128.274V128.274ZM128.271 107.866C129.866 108.836 132.297 111.098 130.581 113.503C128.56 115.624 125.652 113.193 124.219 112.093C122.89 111.241 121.396 113.433 122.629 114.428C132.987 122.099 137.19 108.12 129.078 106.726C128.184 106.572 127.853 107.566 128.271 107.866ZM109.711 98.9429C109.887 96.7541 113.219 96.257 113.551 98.423C113.847 100.363 113.498 102.145 112.624 103.892C111.79 105.561 109.692 104.783 109.533 103.263C109.32 101.226 109.601 100.304 109.711 98.9429ZM135.076 97.9739C135.541 97.3652 136.212 96.9497 137.015 97.1845C139.526 97.9185 138.786 101.485 137.904 103.22C137.425 104.163 135.876 104.402 135.176 103.572C134.036 102.219 133.489 99.5157 134.94 98.1825C134.979 98.1136 135.023 98.044 135.076 97.9739ZM112.589 89.3654L112.986 89.2959C114.213 89.0836 115.738 88.8796 116.606 89.8665C117.067 90.3898 117.225 91.3624 116.606 91.8633C115.518 92.7446 114.314 92.4031 113.01 92.4777C111.935 92.5394 110.902 92.7174 109.867 93.0135C107.595 93.6629 105.744 94.8486 103.804 96.1505C103.55 96.3213 103.29 95.9956 103.411 95.7574C104.531 93.563 106.701 91.7604 108.875 90.6616C110.036 90.0751 111.305 89.5885 112.589 89.3654ZM132.787 88.3823L133.091 88.4445C136.395 89.1353 140.687 90.5153 142.251 93.7615C142.311 94.2205 142.248 94.3189 142.197 94.3832L142.18 94.4046C142.137 94.4595 142.104 94.5351 141.905 94.5976C141.85 94.5844 141.794 94.5705 141.737 94.5557C141.02 94.3677 140.453 94.1087 139.904 93.84L139.308 93.5465C138.617 93.2076 137.92 92.881 137.181 92.6399C135.605 92.1255 133.983 91.7631 132.337 91.5696C131.98 91.5277 131.636 91.4072 131.365 91.2006C131.108 91.0046 130.911 90.7332 130.821 90.3724C130.705 89.9056 130.739 89.5521 130.989 89.1309C131.177 88.8146 131.447 88.5953 131.756 88.4694C132.071 88.3411 132.43 88.3108 132.787 88.3823Z" fill="black"/>
</g>
<defs>
<clipPath id="clip0_2016_14106">
<rect width="200" height="267" fill="white"/>
</clipPath>
</defs>
</svg>
