<svg width="200" height="267" viewBox="0 0 200 267" fill="none" xmlns="http://www.w3.org/2000/svg">
<g clip-path="url(#clip0_2016_14094)">
<rect width="200" height="267" fill="white"/>
<path fill-rule="evenodd" clip-rule="evenodd" d="M174.637 251.934C173.786 247.123 173.005 242.299 172.296 237.465C171.959 235.169 171.63 232.872 171.335 230.571C171.128 228.959 170.813 227.115 171.91 225.921C173.453 224.241 174.854 222.802 175.043 220.395C175.221 218.13 174.455 215.66 173.976 213.462C172.972 208.851 171.723 204.297 170.342 199.787C168.939 195.204 167.4 190.664 165.839 186.133C164.38 181.897 162.978 177.622 161.077 173.558C157.471 165.845 151.369 160.133 143.829 156.318C141.954 155.37 138.128 151.984 136.169 151.226C134.368 150.528 134.374 152.564 132.602 151.797C131.184 151.184 129.865 150.367 129.071 148.998C128.21 147.512 126.049 145.433 125.72 143.703C125.023 140.036 125.778 136.914 123.162 134.154C120.839 131.703 117.717 130.024 114.487 129.123C107.381 127.14 97.9038 128.526 93.6163 135.132C91.5685 138.287 90.8529 142.1 88.0898 144.674C85.6769 146.922 86.2169 148.459 83.0918 149.618C82.9147 149.683 78.1174 148.654 77.9403 148.72C74.5216 147.988 71.2541 150.037 68.1176 151.226C63.4416 152.998 58.9898 155.304 54.8073 158.046C46.3737 163.574 39.1505 170.752 33.1955 178.875C27.1912 187.064 22.5326 196.244 19.2155 205.838C18.4099 208.168 17.6863 210.527 17.0481 212.908C16.6908 214.241 16.3091 215.624 16.7441 216.989C17.0998 218.105 17.8912 218.936 18.8206 219.606C20.0804 220.514 22.6074 221.105 22.5582 222.931C22.5205 224.32 22.0496 225.781 21.8198 227.153C21.5462 228.788 21.3214 230.431 21.0966 232.073C20.0741 239.544 19.2782 247.057 18.9262 254.592C18.5798 262.011 18.2922 269.581 18.8067 276.998C18.8407 277.487 18.9865 277.936 19.2216 278.315C19.0021 278.399 18.9852 278.809 19.2584 278.867C19.4498 278.907 19.6408 278.948 19.8322 278.988C20.2298 279.289 20.7256 279.474 21.2962 279.492C21.6831 279.504 22.0697 279.521 22.4561 279.541C26.5338 280.394 30.6108 281.199 34.7417 281.809C39.7632 282.551 44.7993 283.155 49.8512 283.647C60.2318 284.656 70.5307 284.321 80.9251 283.777C91.3034 283.234 101.676 283.107 112.065 283.377C122.463 283.648 132.857 284.1 143.258 284.285C154.877 284.492 166.479 284.174 178.065 283.25C179.653 283.124 180.636 281.86 180.323 280.281C178.446 270.825 176.319 261.432 174.637 251.934Z" fill="#FDC6A0"/>
<path fill-rule="evenodd" clip-rule="evenodd" d="M68.1176 151.226L68.3445 151.138C71.4116 149.939 74.604 148.006 77.9403 148.72C78.0584 148.676 80.2293 149.119 81.7163 149.399L80.3049 150.873L77.8141 151.352C86.407 165.54 96.57 172.634 108.303 172.634C120.036 172.634 128.939 165.54 135.012 151.352L135.841 151.123C135.944 151.147 136.053 151.18 136.169 151.226C138.128 151.984 141.954 155.37 143.829 156.318C151.369 160.132 157.471 165.845 161.077 173.558C162.914 177.487 164.286 181.612 165.694 185.709L165.839 186.133C167.4 190.664 168.939 195.204 170.342 199.786C171.663 204.101 172.864 208.455 173.844 212.861L173.976 213.462C174.455 215.66 175.221 218.129 175.043 220.395C174.976 221.252 174.755 221.987 174.428 222.653L157.432 228.771L165.529 284.017C158.112 284.335 150.689 284.417 143.258 284.285C132.857 284.1 122.463 283.648 112.065 283.377C101.99 283.115 91.932 283.226 81.8685 283.729L79.3129 283.86C69.4651 284.352 59.6949 284.604 49.8512 283.647L49.1804 283.581V283.581L49.1803 275.499L52.6381 230.501L35.1146 227.201L17.9128 218.843C17.3931 218.323 16.976 217.716 16.7441 216.989C16.3412 215.725 16.6389 214.445 16.9689 213.204L17.0481 212.908C17.6863 210.527 18.4099 208.168 19.2155 205.838C22.5326 196.244 27.1912 187.064 33.1955 178.874C39.1505 170.752 46.3737 163.574 54.8073 158.046C58.9898 155.304 63.4416 152.998 68.1176 151.226Z" fill="#EC7495"/>
<path fill-rule="evenodd" clip-rule="evenodd" d="M74.6975 148.487C75.772 148.44 76.8676 148.614 77.9396 148.72C78.033 148.729 78.0685 148.873 77.9633 148.895C76.0448 149.296 74.1473 149.844 72.2632 150.401L71.4564 150.64C69.3317 151.269 67.2693 151.918 65.2124 152.756C61.113 154.428 57.2195 156.684 53.6362 159.275C39.8379 169.256 29.8513 184.366 23.5492 200.01C21.8377 204.259 20.3876 208.613 19.2129 213.041C18.9273 214.118 18.6585 215.199 18.4038 216.284C18.329 216.602 18.003 217.417 18.1817 217.742C18.3397 218.03 18.9541 218.208 19.2395 218.357L20.2031 218.857C22.0828 219.826 25.2137 221.419 25.5277 221.575L26.0174 221.816C34.0267 225.744 42.5845 229.075 51.5975 229.305L51.668 228.535V228.535C52.0699 224.278 52.5972 219.999 53.7482 215.873C53.8101 215.651 54.0921 215.726 54.1179 215.923C54.7591 220.808 54.5542 225.73 54.3304 230.637C53.9343 239.328 53.4083 248.015 52.9407 256.702C52.7066 261.048 52.4041 265.391 52.1309 269.735C51.8573 274.088 51.7688 278.544 51.1441 282.861C51.0049 283.823 49.8784 284.346 49.0253 284.245C48.0814 284.132 47.3552 283.301 47.3508 282.347C47.3394 279.833 47.6552 277.288 47.8308 274.78C47.9975 272.397 48.1764 270.015 48.3598 267.633C49.0299 258.94 49.8009 250.257 50.5139 241.568C50.7666 238.486 51.0395 235.407 51.3205 232.328C41.7727 232.02 32.8528 228.482 24.3433 224.349C24.2202 227.146 23.9227 229.939 23.6347 232.725C22.8309 240.5 22.1221 248.271 21.5916 256.07C21.3237 260.009 21.1287 263.953 20.9588 267.897C20.8754 269.836 20.8073 271.774 20.7552 273.714C20.7377 274.36 20.7219 275.007 20.708 275.654L20.6789 277.135C20.6552 278.073 20.5598 278.943 19.7704 279.626C18.9687 280.32 17.8857 280.357 17.0922 279.626C16.0299 278.647 16.2178 277.314 16.2492 276C16.2754 274.891 16.3069 273.783 16.3435 272.675C16.4168 270.459 16.5104 268.243 16.6242 266.028C17.0227 258.285 17.8189 250.573 18.8594 242.892L19.2656 239.927C20.0241 234.415 20.8568 228.777 22.5524 223.468C21.8922 223.139 21.2339 222.808 20.5781 222.476C19.4149 221.887 18.2121 221.334 17.0814 220.684C16.1844 220.168 15.4107 219.46 15.161 218.416C14.8825 217.252 15.3084 215.98 15.5913 214.845L15.6159 214.745C15.8933 213.602 16.192 212.464 16.5072 211.331C17.7854 206.737 19.3659 202.232 21.2155 197.837C24.919 189.038 29.6994 180.679 35.5386 173.121C40.7947 166.317 47.0039 160.148 54.2812 155.52C57.839 153.258 61.6304 151.4 65.64 150.087C67.5142 149.473 69.5533 148.939 71.5156 148.72C72.574 148.601 73.634 148.533 74.6975 148.487ZM93.7356 134.544C95.0125 133.173 97.5494 134.592 96.9363 136.408C95.4942 140.682 93.1977 144.58 89.6137 147.388C86.2449 150.027 82.2276 151.742 77.9013 151.376C77.8679 151.373 77.839 151.364 77.8134 151.352L78.1862 151.858C81.1133 155.819 84.2012 159.725 87.923 162.963C95.506 169.559 105.831 173.117 115.8 170.586C123.644 168.595 130.555 162.39 132.587 154.482C132.296 154.613 131.95 154.658 131.57 154.575C129.943 154.222 128.334 152.511 127.285 151.284C126.15 149.957 125.264 148.524 124.615 146.904C123.426 143.94 123.045 140.123 124.668 137.252C124.868 136.898 125.33 137.096 125.37 137.442L125.431 137.981C125.744 140.672 126.134 143.275 127.402 145.729C128.023 146.929 128.767 148.101 129.673 149.106C130.157 149.644 130.683 150.158 131.25 150.609C131.803 151.049 132.472 151.366 132.967 151.871L133.058 151.967L133.061 151.95C133.186 150.885 133.933 150.415 134.664 150.445C135.371 150.473 136.201 150.785 136.523 150.934L136.554 150.948C141.487 153.317 146.031 156.405 150.307 159.831C159.15 166.917 165.775 176.179 168.986 187.086C170.561 192.44 171.465 197.956 172.42 203.446L173.007 206.81C173.898 211.879 174.893 217.047 176.904 221.762C177.424 222.981 177.023 224.125 175.748 224.605C174.155 225.204 172.557 225.784 170.956 226.356C171.742 229.73 172.221 233.221 172.81 236.611C174.062 243.818 175.596 250.979 176.911 258.176C177.584 261.856 178.191 265.549 178.862 269.229C179.186 271.001 179.524 272.771 179.852 274.543C180.029 275.498 180.189 276.456 180.358 277.413L180.387 277.572C180.484 278.076 180.605 278.598 180.467 279.103C180.308 279.679 179.859 280.086 179.458 280.499C179.128 280.839 178.65 280.841 178.246 280.656L178.113 280.594C177.39 280.256 176.824 279.919 176.568 279.103C176.405 278.587 176.347 278.005 176.241 277.473C176.037 276.454 175.845 275.433 175.662 274.409C175.298 272.36 174.942 270.31 174.595 268.258L174.271 266.337C173.157 259.715 172.1 253.054 171.565 246.362C171.328 243.394 171.077 240.428 170.823 237.461L170.633 235.236C170.392 232.42 170.098 229.533 170.056 226.678L169.099 227.018V227.018L164.427 228.67V228.67C163.269 229.08 161.795 229.919 160.548 229.766C159.938 229.691 159.473 229.499 159.114 229.15C159.544 235.223 160.126 241.285 160.902 247.316C161.608 252.804 162.391 258.285 163.315 263.74C163.773 266.442 164.244 269.141 164.755 271.832C165.01 273.179 165.274 274.523 165.545 275.866C165.681 276.536 165.842 277.206 165.948 277.882C166.069 278.655 165.856 279.131 165.424 279.768C165.069 280.29 164.359 280.559 163.784 280.198C163.022 279.72 162.625 279.305 162.401 278.434C162.197 277.643 162.073 276.817 161.915 276.016C161.625 274.537 161.343 273.056 161.072 271.574C160.504 268.473 159.981 265.364 159.514 262.246C157.867 251.263 156.822 240.187 156.294 229.093C156.034 223.62 155.953 218.142 155.999 212.663C156.023 209.854 156.115 207.038 156.313 204.237C156.514 201.401 156.933 198.622 157.306 195.813C157.319 195.714 157.459 195.709 157.465 195.813C157.641 198.962 157.919 202.107 158.055 205.264C158.184 208.276 158.241 211.294 158.344 214.307C158.48 218.268 158.667 222.232 158.916 226.192C159.366 225.7 160.045 225.416 160.724 225.526C161.708 225.32 162.766 224.804 163.704 224.49L167.24 223.309V223.309C169.098 222.688 170.957 222.071 172.822 221.473C171.154 215.861 170.012 210.165 169.037 204.387L168.602 201.788C167.74 196.672 166.812 191.554 165.252 186.6C163.613 181.392 161.159 176.55 157.904 172.165C154.696 167.844 150.792 164.039 146.773 160.48C143.332 157.433 139.651 154.682 136.141 151.719C136.178 151.915 136.186 152.131 136.154 152.369C135.407 157.832 132.559 162.92 128.588 166.704C120.612 174.307 108.805 175.884 98.5958 172.319C88.7205 168.871 79.9894 160.704 76.9047 150.597C76.8519 150.425 77.0835 150.356 77.1764 150.483C77.3475 150.718 77.5195 150.952 77.6917 151.187C77.6801 151.094 77.7285 150.992 77.8434 150.948C81.4425 149.557 84.9768 147.586 87.6747 144.797C88.9897 143.437 90.1373 141.897 91.0432 140.235C91.4771 139.44 91.8669 138.616 92.1779 137.764L92.2569 137.544C92.6338 136.477 92.9488 135.389 93.7356 134.544Z" fill="black"/>
<path fill-rule="evenodd" clip-rule="evenodd" d="M142.394 89.561C141.893 83.0633 142.67 76.2527 140.17 70.0766C135.813 59.8293 123.595 56.4126 114.122 52.5113C110.328 51.3872 97.5584 51.2301 93.1151 49.7423C83.0588 46.3751 80.6561 42.3632 72.6655 48.7744C71.3167 49.8697 70.4728 51.06 69.8572 52.6863L69.8825 52.6933C69.7066 53.3713 69.8951 54.0478 70.2913 54.5646C66.8266 58.1149 65.3768 63.4375 67.1544 68.1635C72.9556 80.4618 72.6828 87.1115 70.8137 100.333C68.3728 112.676 73.9505 117.184 83.1879 123.9C82.8118 124.631 82.7337 125.603 83.2241 126.248C93.9058 141.296 114.046 148.48 131.303 140.843C138.307 137.717 141.434 130.239 143.219 123.491C145.298 115.936 145.937 107.974 144.244 100.278C143.562 96.718 142.672 93.1842 142.394 89.561Z" fill="#FDC6A0"/>
<path fill-rule="evenodd" clip-rule="evenodd" d="M65.8867 71.1284L72.2381 75.3701L94.973 51.3423L87.4073 45.3727C87.4073 45.3727 73.6814 55.5425 70.9826 58.2266C68.2838 60.9106 65.8867 71.1284 65.8867 71.1284Z" fill="#9FD8E5"/>
<path fill-rule="evenodd" clip-rule="evenodd" d="M80.7797 17.571C82.0763 17.3759 83.0555 18.1823 83.5212 19.319L83.5457 19.3802C83.6954 19.767 83.8619 20.1432 84.0411 20.513C87.2857 18.9174 91.9153 19.3274 93.9687 22.5589C95.434 24.8669 94.5401 27.606 93.9877 30.0534L93.6251 31.666C94.326 32.1132 94.8546 32.9139 94.8298 33.7431L94.8268 33.807L94.6792 36.0557C95.1472 35.5802 95.5752 35.0624 95.9568 34.5108C96.2203 34.0268 96.5049 33.5512 96.8106 33.0905C98.6089 30.3789 102.646 32.7354 101.162 35.6394C100.877 36.1995 100.557 36.73 100.213 37.2414C99.8254 37.9959 99.507 38.7716 99.2625 39.5684C99.9645 39.8748 100.504 40.5554 100.561 41.5826C100.694 43.9814 99.4375 45.9829 97.4389 47.2404C96.8507 47.6103 96.2435 47.6821 95.6933 47.5447C95.5963 47.6758 95.4993 47.8068 95.4065 47.94C96.2035 48.5888 96.9224 49.3285 97.5401 50.1486C99.3995 49.8696 101.27 49.7386 103.139 49.7343C105.425 48.6121 108.161 48.6353 110.617 49.0559C112.199 49.3264 113.716 49.8527 115.272 50.231C116.912 50.6283 118.578 50.6431 120.237 50.9137C122.329 51.2539 124.163 52.2219 125.316 53.7669C126.583 53.8049 127.915 54.3249 129.02 55.0308C131.592 56.6751 134.149 58.3426 136.715 59.9975C137.7 60.6328 138.068 61.6471 137.887 62.7784L137.875 62.8507L137.788 63.3199L137.991 63.6087C138.776 64.7203 139.631 65.8846 140.139 67.1116C141.079 68.4705 141.929 69.895 142.681 71.3639C143.695 73.3379 144.532 75.4303 145.099 77.5776C145.241 78.1208 145.382 78.6682 145.475 79.2219C145.607 80.0039 145.403 80.6105 145.291 81.3608C145.152 82.3119 145.101 83.2756 144.954 84.2288C144.855 84.8608 144.319 85.1714 143.759 85.1883C143.969 86.7967 144.121 88.4157 144.267 90.0219C144.471 92.3172 144.61 94.6188 144.73 96.9204C145.35 97.8229 146.617 98.5372 147.532 98.7845C148.799 99.1248 150.127 98.7549 151.325 98.3217C152.078 98.049 152.695 98.998 152.328 99.632C151.175 101.623 148.709 101.614 146.841 100.733C146.05 100.361 145.357 99.8222 144.842 99.1206C144.874 99.7884 144.908 100.456 144.941 101.126L144.973 101.733C145.352 108.82 146.172 116.151 144.844 123.168C142.544 135.323 132.511 144.578 120.254 145.296C113.822 145.674 108.466 143.769 105.803 142.707C103.139 141.644 104.175 139.478 106.024 140.097C109.209 141.164 115.06 142.753 120.296 142.067C132.638 140.45 143.103 134.266 142.028 107.632C141.875 103.855 141.406 100.076 141.305 96.299C141.208 92.6067 141.243 88.9123 141.081 85.2222L141.027 83.9631C140.964 82.4919 140.896 81.0139 140.786 79.5411C140.653 78.9704 140.544 78.3913 140.381 77.8312C139.941 76.3074 139.365 74.8258 138.65 73.4119C138.492 73.5324 138.315 73.619 138.123 73.6529C136.667 73.9149 135.3 73.8409 133.936 73.2323C133.3 72.9512 132.739 72.5771 132.216 72.1142C131.967 71.8965 131.801 71.6852 131.67 71.4654C131.01 71.4759 130.35 71.2773 129.937 70.8017C129.466 70.2597 129.387 69.6999 129.572 69.1816L129.591 69.13L129.545 69.113C128.988 70.5566 127.879 71.8268 126.663 72.6849C124.74 74.046 122.335 74.4391 120.028 74.475C117.482 74.513 114.796 74.1199 112.283 73.7184C111.619 73.6127 110.959 73.4922 110.312 73.3295C110.286 73.3548 110.261 73.3844 110.234 73.4098C108.077 75.4789 105.043 76.0115 102.307 74.8301C100.726 74.1474 99.3995 73.0484 98.2273 71.7887C98.2105 72.4482 98.1767 73.1076 98.1198 73.7606L98.0963 74.02C97.9795 75.2363 97.755 76.5265 96.838 77.4043C95.356 78.8267 93.2056 78.2561 91.4958 77.3303C91.4979 77.3747 91.4979 77.4212 91.4979 77.4677C91.9596 79.0402 92.4234 80.6147 92.8872 82.1893L92.9871 82.5247C93.3244 83.6427 93.6943 84.7622 93.7959 85.9323C93.9898 88.1684 92.5056 90.377 90.0264 89.6267C88.7259 89.2346 87.6841 88.1384 86.6844 87.2604L86.0545 86.7143C87.6841 92.0551 88.8141 97.5862 88.9196 103.159C88.9259 103.462 88.6666 103.69 88.3799 103.701C87.7094 103.728 86.9884 103.595 86.3138 103.326C86.2759 103.324 86.2379 103.322 86.1978 103.316C85.0468 103.149 83.9779 102.733 83.0355 102.118C83.2527 102.809 83.3496 103.55 83.2927 104.326C83.278 104.514 82.9849 104.58 82.9428 104.373C82.3988 101.691 79.2681 99.6637 76.5696 100.177C73.6729 100.729 71.5394 103.227 71.0166 106.07C70.4558 109.124 71.5289 112.655 73.5169 115.012C74.4319 116.098 75.6357 117.005 77.065 117.233C77.7186 117.337 78.3974 117.301 79.032 117.115C79.3019 117.035 79.5549 116.923 79.8121 116.817C80.1873 116.665 80.6258 116.641 80.98 116.481C81.7832 116.119 82.5907 116.861 82.1838 117.688C81.8296 118.408 81.5113 118.894 80.9231 119.266C81.3995 119.85 81.8317 120.661 81.992 120.879C82.8099 121.987 83.6406 123.033 84.5724 124.045C85.5211 125.072 86.5562 126.011 87.6504 126.879L88.1103 127.244C89.1642 128.082 90.082 128.858 90.8254 130.06C91.4115 131.009 90.6525 132.296 89.5541 132.281C86.1177 132.233 83.6195 129.206 81.8402 126.562C81.5872 126.184 81.3489 125.785 81.1276 125.374C81.0475 125.503 80.9589 125.624 80.8598 125.734L81.0559 126.262C81.6378 127.818 79.1311 128.834 78.4038 127.382C77.8746 126.33 77.2611 125.328 76.578 124.381C76.1754 124.324 75.7811 124.079 75.5619 123.762C75.0074 122.957 74.3855 122.143 73.8606 121.285C73.5696 121.008 73.2703 120.742 72.9646 120.482C72.876 120.56 72.7854 120.638 72.6989 120.721C72.3152 121.598 71.8409 122.399 71.2527 123.153L71.1266 123.314C69.9998 124.738 68.532 126.195 66.7158 126.543C66.1613 126.649 65.628 125.958 66.1192 125.516C67.3904 124.371 68.8936 123.591 70.0658 122.312C70.6433 121.682 71.1735 120.988 71.6295 120.261L71.7334 120.093C71.8093 119.968 71.8873 119.843 71.9674 119.717C71.4382 119.355 70.909 118.992 70.3799 118.628C68.9232 119.876 67.0262 120.447 65.4149 121.48L65.2548 121.585C63.798 122.561 62.2632 120.401 63.4312 119.216C64.7187 117.914 65.7935 116.361 66.934 114.913C66.3977 113.923 66.1438 112.752 66.0488 111.568C66.0112 111.233 65.9819 110.898 65.9526 110.563C65.1346 110.576 64.3124 110.295 63.6167 109.811L63.3532 109.623C62.5078 109.893 61.6202 110.024 60.7706 110.001C58.772 109.942 57.954 107.653 59.2042 106.205C60.4797 104.726 62.7123 104.402 64.4811 105.121C64.538 105.091 64.597 105.06 64.654 105.028C64.5696 104.639 64.5884 104.286 64.6843 103.976L64.6565 103.787C64.2675 103.189 64.0118 102.506 63.9148 101.784C63.8381 101.213 63.8537 100.646 63.9857 100.081C64.0295 99.8935 64.1208 99.6988 64.1906 99.5029C64.0468 99.1389 63.9623 98.7627 63.9361 98.3844C63.8958 98.3365 63.8558 98.2872 63.8178 98.2339C62.9402 96.9986 63.1175 95.5101 63.9528 94.5104C63.9566 94.4468 63.9625 94.3831 63.9711 94.3199C63.9222 94.2096 63.8773 94.0982 63.8364 93.9856C63.0203 93.1603 62.4211 92.1671 62.5329 90.9364C62.5984 90.2124 62.8953 89.5606 63.3445 89.0734C63.2649 88.8371 63.2573 88.5634 63.3538 88.3349C62.6368 86.4231 62.7275 84.1204 63.2436 81.9822C63.1297 81.6567 63.0707 81.3037 63.0833 80.9296C63.1424 79.3424 64.5127 77.8841 66.136 77.9031C66.3315 77.9048 66.5145 77.9304 66.6903 77.9678L66.6926 77.9299C66.7548 77.4536 66.8855 77.0133 67.0763 76.6183C66.9825 76.5843 66.8956 76.5355 66.8195 76.4706C65.7793 77.0268 64.6786 77.4521 63.5246 77.7418C62.676 77.9549 61.8068 76.988 62.3343 76.1895C62.5791 75.819 62.8491 75.4863 63.14 75.1824C62.7264 75.1847 62.3065 75.2128 61.8817 75.2676C61.1185 75.3669 60.2668 74.8449 59.7713 74.139C59.1557 74.7392 58.538 75.3373 57.9203 75.9354C56.356 77.455 53.9927 76.337 53.746 74.3334C53.2801 74.2087 52.8458 73.9973 52.4642 73.6951C49.9976 74.7688 47.3434 75.3584 44.6301 75.4705C42.6821 75.5508 41.5437 73.2766 42.4544 71.6704C43.0658 70.5925 43.8248 69.6245 44.6997 68.7833C43.342 69.1997 41.94 69.4998 40.5085 69.6921C39.7348 69.7957 38.6406 69.1532 38.3307 68.441C37.1459 65.7019 37.2471 62.8465 38.6111 60.1814C38.6638 60.0757 38.7229 59.9743 38.7798 59.8728C38.921 59.5199 39.0749 59.1711 39.2415 58.8287C37.5633 57.0745 37.4179 54.4665 38.3223 52.2832C37.9597 51.6936 37.8205 50.9834 38.0672 50.3409C38.7692 48.4916 39.7812 46.7839 41.0588 45.3171C40.9365 45.0804 40.829 44.8289 40.7383 44.5584C40.0194 42.3709 40.8522 39.7311 42.5324 38.2073C43.5886 37.2478 44.803 36.6729 46.0995 36.3051C46.6456 35.3372 47.3476 34.4643 48.1656 33.7288C48.1972 33.659 48.2288 33.5893 48.2647 33.5195C49.538 31.1144 51.8571 29.8251 54.3427 29.5271C54.4396 28.5866 55.0721 27.6884 55.9913 27.3967C56.2443 26.583 56.6216 25.8053 57.1403 25.0993C57.9561 23.9876 59.3117 23.4635 60.5893 24.1927C61.2892 24.5921 61.9597 25.0507 62.5879 25.558C62.8701 25.4253 63.19 25.3395 63.5509 25.3121L63.642 25.3065L65.7207 25.2008C66.5914 24.814 67.46 24.4082 68.3307 24.013C68.8535 23.5797 69.4375 23.2183 70.0742 22.9499C70.7952 22.6477 71.5331 22.4765 72.2731 22.4194C72.8739 22.2229 73.479 22.0496 74.0946 21.9143C75.5408 21.5973 77.0545 21.4197 78.5556 21.4345C78.5863 21.045 78.6015 20.6509 78.5986 20.2521L78.5956 20.0523C78.5619 18.7736 79.5801 17.7528 80.7797 17.571ZM79.323 119.875C79.1163 119.92 78.9076 119.955 78.6989 119.981C78.7622 120.137 78.8254 120.294 78.8865 120.45C79.0552 120.545 79.226 120.636 79.3967 120.721C79.3461 120.433 79.3166 120.144 79.323 119.875ZM68.4916 116.648L68.3514 116.907C68.3287 116.95 68.3063 116.991 68.2843 117.032C68.5816 117.009 68.8809 117.016 69.1761 117.049L69.1753 117.018C69.1373 117.005 69.0994 116.993 69.0631 116.975C68.8594 116.877 68.6701 116.767 68.4916 116.648ZM74.3454 104.844C76.2106 104.953 77.7909 105.24 79.4872 106.058L79.6329 106.129C81.1318 106.875 83.6111 108.253 83.4024 110.229C83.3433 110.791 82.9364 111.383 82.2955 111.339C80.5394 111.218 79.5359 109.443 78.3468 108.335C77.1473 107.22 75.6736 106.072 74.2211 105.305C74.0157 105.197 74.0966 104.855 74.32 104.844L74.3454 104.844ZM65.8873 78.8077C65.4403 78.8225 65.59 79.2578 65.8198 78.8943C65.8388 78.8647 65.862 78.8352 65.8873 78.8077ZM90.0129 49.7424C85.78 49.854 81.5199 52.3595 78.349 54.8921C75.5903 57.0955 73.2083 59.7162 71.099 62.5409C70.5563 63.9476 70.0904 65.3838 69.6968 66.8305C69.4375 67.7858 69.2752 68.7516 69.058 69.7154L68.9906 70.0109C68.82 70.3304 68.6933 70.6743 68.601 71.0296C68.9853 71.4159 69.4839 71.6926 70.0329 71.8238C70.2098 71.8661 70.3567 71.9576 70.4729 72.0789C70.9147 71.3396 71.301 70.5593 71.5257 69.7321L71.5339 69.6938C72.3833 68.2991 73.3059 66.9478 74.2948 65.6427C77.0229 62.0391 80.0271 58.7548 83.6385 56.022C86.3771 53.9508 89.4382 52.3276 92.6933 51.273C91.8966 50.6286 90.9917 50.1188 90.0129 49.7424Z" fill="black"/>
<path fill-rule="evenodd" clip-rule="evenodd" d="M123.152 128.274C121.731 127.695 120.464 126.728 119.538 125.493C119.216 125.063 119.132 124.61 119.2 124.195C119.276 123.729 119.552 123.306 119.928 123.023C120.305 122.739 120.777 122.598 121.233 122.67C121.629 122.732 122.024 122.949 122.336 123.399L122.401 123.489C122.952 124.235 123.67 124.846 124.488 125.241C125.276 125.621 126.157 125.798 127.07 125.695C128.807 125.499 130.005 124.559 131.278 123.282C131.435 123.121 131.593 122.955 131.752 122.786C131.852 122.633 131.991 122.534 132.145 122.483C132.317 122.425 132.511 122.429 132.688 122.491C132.859 122.55 133.013 122.664 133.115 122.815C133.213 122.958 133.268 123.135 133.25 123.339C133.134 124.661 132.442 125.842 131.46 126.769C130.37 127.799 128.924 128.511 127.563 128.761C126.063 129.036 124.535 128.839 123.152 128.274V128.274ZM128.27 107.866C129.866 108.836 132.296 111.098 130.58 113.503C128.56 115.624 125.651 113.193 124.218 112.093C122.889 111.241 121.396 113.433 122.629 114.428C132.986 122.099 137.189 108.12 129.077 106.726C128.184 106.572 127.852 107.566 128.27 107.866ZM109.71 98.9429C109.886 96.7541 113.219 96.257 113.55 98.423C113.847 100.363 113.498 102.145 112.624 103.892C111.789 105.561 109.691 104.783 109.533 103.263C109.32 101.226 109.601 100.304 109.71 98.9429ZM135.076 97.9739C135.54 97.3652 136.211 96.9497 137.015 97.1845C139.526 97.9185 138.786 101.485 137.904 103.22C137.425 104.163 135.876 104.402 135.176 103.572C134.035 102.219 133.489 99.5157 134.939 98.1825C134.978 98.1136 135.022 98.044 135.076 97.9739ZM112.589 89.3654L112.985 89.2959C114.212 89.0836 115.738 88.8796 116.606 89.8665C117.066 90.3898 117.225 91.3624 116.606 91.8633C115.517 92.7446 114.314 92.4031 113.01 92.4777C111.935 92.5394 110.902 92.7174 109.866 93.0135C107.595 93.6629 105.744 94.8486 103.804 96.1505C103.549 96.3213 103.289 95.9956 103.411 95.7574C104.531 93.563 106.701 91.7604 108.875 90.6616C110.035 90.0751 111.305 89.5885 112.589 89.3654ZM132.787 88.3823L133.09 88.4445C136.394 89.1353 140.686 90.5153 142.251 93.7615C142.31 94.2205 142.247 94.3189 142.196 94.3832L142.179 94.4046C142.137 94.4595 142.103 94.5351 141.904 94.5976C141.849 94.5844 141.793 94.5705 141.737 94.5557C141.02 94.3677 140.453 94.1087 139.903 93.84L139.308 93.5465C138.617 93.2076 137.92 92.881 137.181 92.6399C135.604 92.1255 133.983 91.7631 132.336 91.5696C131.979 91.5277 131.636 91.4072 131.364 91.2006C131.107 91.0046 130.91 90.7332 130.821 90.3724C130.705 89.9056 130.738 89.5521 130.988 89.1309C131.177 88.8146 131.446 88.5953 131.755 88.4694C132.071 88.3411 132.43 88.3108 132.787 88.3823Z" fill="black"/>
<path fill-rule="evenodd" clip-rule="evenodd" d="M132.745 131.525C130.777 129.772 128.572 126.247 125.745 129.036C125.046 129.824 124.763 131.591 123.694 131.938C122.274 132.398 120.867 130.896 120.383 129.742C118.404 123.33 126.587 121.571 131.249 122.607C133.526 123.543 135.204 127.309 135.305 129.275C135.371 130.596 134.253 132.538 132.745 131.525M147.588 121.643C147.569 121.558 147.542 121.481 147.51 121.411C146.64 121.082 145.951 121.417 145.526 122.044C145.54 122.2 145.586 122.358 145.615 122.512C145.287 123.204 144.991 124.06 144.546 124.658C144.458 124.665 144.367 124.656 144.28 124.63C136.904 125.401 140.505 117.681 133.024 115.763C127.24 114.808 116.788 115.902 114.06 121.923C111.909 131.542 100.969 124.84 97.3766 119.838C93.5439 115.285 91.0658 109.723 88.6763 104.325C88.1714 103.182 86.5956 103.999 86.7669 105.095C84.5583 109.527 84.6318 114.851 84.0849 119.707C83.1544 129.394 82.2479 142.979 91.2451 148.894C102.968 162.15 132.241 166.827 145.761 154.648C150.442 144.581 149.865 132.3 147.588 121.643" fill="black"/>
<path fill-rule="evenodd" clip-rule="evenodd" d="M146.085 109.758C144.663 111.67 142.026 112.279 139.593 112.068C134.347 111.563 132.696 105.603 132.524 100.97C136.042 101.96 132.227 94.9489 144.252 94.1779C148.491 93.8246 147.322 96.3857 149.195 98.257C149.157 102.184 148.503 106.452 146.085 109.758M121.098 105.245C118.001 119.755 101.041 116.304 99.2595 103.224C100.905 102.063 100.471 99.1943 102.515 98.1551C105.754 96.0847 109.803 96.1733 113.482 96.2219C118.184 96.5451 119.523 98.4935 121.939 100.619C121.822 102.039 121.487 103.722 121.098 105.245M152.804 91.7749C152.63 91.7459 152.456 91.7187 152.282 91.6931C152.146 91.616 151.986 91.5566 151.801 91.5208C151.377 91.4133 150.957 91.3408 150.537 91.3017C144.509 89.9446 130.564 91.8715 129.988 97.0174C128.069 97.6585 126.408 97.0844 124.183 97.1415C122.489 90.0602 93.2111 91.0597 91.803 95.329C91.7977 95.3275 91.7924 95.3262 91.7869 95.3245C90.434 94.9056 88.4394 95.0066 86.8908 94.9403C83.5843 94.871 80.2739 95.1658 77.0388 95.8635C70.9807 96.8266 62.7127 97.9541 66.926 105.522C66.9269 105.523 66.9275 105.525 66.9286 105.526L66.9292 105.526C67.6553 106.27 68.8876 105.671 68.9335 104.663C67.5169 101.077 70.7164 100.647 73.1781 99.6164C79.3033 97.415 85.5395 97.1098 91.8746 97.7908C92.3512 98.3521 93.0744 98.8416 93.8388 99.0978C98.0745 99.8011 95.8422 102.944 98.5196 103.401C98.0278 114.358 111.325 120.339 119.03 113.136C122.106 110.128 122.839 105.671 123.553 101.653C123.93 101.568 124.17 101.362 124.31 101.089C125.217 100.183 125.786 99.3465 127.58 99.0978C129.373 98.8492 130.754 99.3482 130.941 99.501C130.988 99.5959 131.038 99.691 131.097 99.7861C131.179 99.9279 131.291 100.041 131.417 100.13C129.646 111.041 138.113 117.941 146.661 112.282C150.375 108.787 151.16 103.436 151.315 98.6598C151.818 98.3559 152.137 97.7669 151.963 97.0263C151.723 96.0055 152.286 95.1216 153.183 94.6778C154.349 94.1014 154.142 91.9966 152.804 91.7749" fill="black"/>
</g>
<defs>
<clipPath id="clip0_2016_14094">
<rect width="200" height="267" fill="white"/>
</clipPath>
</defs>
</svg>
