<svg width="200" height="267" viewBox="0 0 200 267" fill="none" xmlns="http://www.w3.org/2000/svg">
<g clip-path="url(#clip0_2016_14087)">
<rect width="200" height="267" fill="white"/>
<path fill-rule="evenodd" clip-rule="evenodd" d="M31.5013 284.886C44.4376 285.249 56.6579 285.648 69.5693 284.886C90.2304 283.608 150.864 285.912 164.192 284.886C165.197 284.809 168.656 285.912 168.728 284.886C169.314 277.741 169.694 205.452 167.954 200.478C166.213 195.504 157.621 171.593 146.673 160.443C143.621 157.431 138.975 156.264 136.409 152.783C134.197 148.987 134.369 146.76 132.184 144.763C131.236 143.896 128.999 143.545 127.338 142.342C125.667 140.681 127.249 137.024 126.563 134.711C125.15 128.936 119.943 125.231 114.251 124.358C106.341 122.464 97.9902 124.255 94.2012 130.471C92.7908 132.784 93.5414 135.597 91.8068 139.304C91.9306 142.106 88.6608 142.783 86.7064 143.893L82.825 147.818C70.8673 154.548 56.8004 158.183 46.323 167.226C37.4151 176.266 28.5549 186.714 24.6026 198.945C23.7843 202.278 23.5173 205.723 23.1782 209.128C22.2102 219.08 19.5146 228.739 17.1949 238.433C14.5498 250.647 12.0842 263.613 15.6491 275.942C16.6769 278.551 29.1615 284.764 31.5013 284.886Z" fill="#FDC6A0"/>
<path fill-rule="evenodd" clip-rule="evenodd" d="M91.7533 139.278L92.7636 139.386V147.168L105.974 160.916L108.389 163.677C106.95 168.811 108.399 171.378 112.736 171.378C119.243 171.378 114.213 169.486 115.436 166.926L115.488 166.821C116.375 165.069 119.41 161.352 124.594 155.67L130.54 145.727V143.912L130.741 143.994C131.303 144.228 131.787 144.467 132.116 144.767C134.301 146.764 134.129 148.992 136.342 152.788C138.908 156.269 143.553 157.436 146.606 160.448C157.553 171.597 166.145 195.508 167.886 200.482C169.626 205.456 169.246 277.746 168.661 284.891C168.589 285.917 165.13 284.814 164.124 284.891C150.796 285.917 90.1625 283.613 69.5014 284.891C56.59 285.653 44.3698 285.253 31.4334 284.891C29.0936 284.769 16.609 278.556 15.5812 275.947C12.0163 263.617 14.4819 250.652 17.127 238.438L17.3563 237.485C19.5832 228.269 22.0876 219.076 23.0613 209.622L23.1103 209.133C23.4494 205.727 23.7164 202.283 24.5347 198.95C28.4871 186.719 37.3472 176.27 46.2551 167.23C56.6277 158.278 70.5184 154.626 82.3978 148.023L82.7572 147.822L86.6385 143.898L86.7573 143.832C88.7224 142.76 91.8602 142.055 91.7389 139.309L91.7533 139.278V139.278Z" fill="#FDEA6B"/>
<path fill-rule="evenodd" clip-rule="evenodd" d="M93.516 131.466C93.6195 131.127 94.0655 131.222 94.0993 131.544C94.4352 134.731 94.0127 138.062 93.607 141.228C93.4127 142.756 93.3005 144.345 93.0047 145.852C92.9667 146.013 92.9308 146.175 92.897 146.336C92.9941 146.509 93.2817 146.704 93.4188 146.837L94.0152 147.417L95.2103 148.575C97.5493 150.84 99.8878 153.108 102.227 155.374L105.66 158.702C106.837 159.844 108.174 160.936 109.207 162.209C109.767 162.9 109.893 163.747 109.342 164.487C109.069 164.853 108.58 165.119 108.083 165.174C108.277 165.444 108.427 165.751 108.522 166.091C108.717 166.784 108.015 167.636 107.27 167.346C106.423 167.021 105.723 166.438 104.861 166.159C103.991 165.875 103.044 165.821 102.142 165.973C101.728 166.042 101.322 166.146 100.927 166.277C105.155 168.224 109.729 169.342 114.393 169.502C115.344 169.534 116.293 169.521 117.237 169.458C118.826 169.354 120.404 169.114 121.955 168.725C123.174 168.418 124.38 168.033 125.551 167.568C126.125 167.34 126.693 167.089 127.243 166.803L127.291 166.775C127.415 166.697 129.711 165.395 129.751 165.199C129.791 165.004 129.791 164.935 129.716 164.765C129.641 164.595 129.434 164.477 129.434 164.477C128.725 164.174 127.99 163.892 127.215 163.887C125.432 163.876 123.486 165.195 122.012 166.093C120.392 167.08 118.902 168.234 117.343 169.304C117.307 169.329 117.267 169.34 117.229 169.34C117.064 169.34 116.912 169.137 117.017 168.978C118.135 167.332 119.643 165.962 121.221 164.765L121.857 164.288C123.302 163.21 124.992 162.016 126.749 161.756C128.901 161.439 131.149 162.781 133.07 163.568L136.471 164.96C137.077 165.208 137.737 165.419 138.347 165.7L136.922 161.239C136.209 159.008 135.499 156.776 134.796 154.543L134.659 154.106C133.959 151.839 133.315 149.481 132.148 147.41C131.869 146.913 131.55 146.446 131.236 145.975C130.908 145.487 130.786 144.948 130.374 144.512C129.558 143.648 128.39 143.141 127.274 142.809C127.002 142.729 127.082 142.369 127.338 142.342C128.483 142.221 129.574 142.488 130.609 142.971L131.039 143.176C132.017 143.639 132.971 144.07 133.697 144.901C135.353 146.799 136.213 149.189 137.003 151.547L137.215 152.18C137.51 152.083 139.52 152.696 139.771 152.841C147.303 156.027 153.104 161.957 157.346 168.906C161.994 176.521 164.525 185.222 166.615 193.833C167.259 196.49 167.876 199.156 168.468 201.827C165.829 202.843 163.024 203.375 160.553 204.806C159.612 205.351 160.462 206.813 161.406 206.266C163.72 204.926 166.356 204.431 168.833 203.489C170.176 209.674 171.371 215.893 172.372 222.137C175.446 241.302 177.387 260.78 177.265 280.207C177.262 280.637 177.136 281.116 176.901 281.528C177.039 281.461 177.146 281.38 177.208 281.283C177.987 280.06 179.941 281.195 179.158 282.425L179.043 282.603C178.455 283.51 177.906 284.203 176.872 284.716C175.83 285.232 174.702 285.318 173.553 285.348C169.646 285.451 165.737 285.518 161.827 285.566C161.291 281.382 161.073 277.157 160.334 272.997C160.144 271.928 158.515 272.381 158.704 273.447C159.418 277.464 159.646 281.542 160.144 285.586C151.784 285.676 143.42 285.677 135.066 285.701C123.745 285.734 112.426 285.71 101.106 285.704L96.2542 285.703C83.1767 285.703 70.0991 285.66 57.0218 285.574L53.9117 285.552C52.6746 278.256 51.8325 270.897 51.8168 263.483C51.8145 262.395 50.1244 262.393 50.1267 263.483C50.1423 270.889 50.9751 278.248 52.2009 285.542C49.1046 285.529 46.0097 285.54 42.9132 285.65L41.3371 285.706C38.1837 285.814 35.024 285.88 31.8765 285.629C28.3822 285.348 24.8479 284.705 21.7148 283.059C20.3037 282.316 19.0613 281.366 17.9994 280.25C19.0788 279.622 20.1736 279.019 21.2191 278.335C22.1257 277.741 21.28 276.277 20.366 276.875C19.2394 277.613 18.055 278.255 16.8949 278.937C16.0549 277.816 15.3655 276.571 14.842 275.228C14.016 273.108 13.697 270.828 13.4202 268.583C13.0929 265.939 12.9575 263.274 12.9575 260.611C12.9575 255.011 13.547 249.427 14.369 243.894C15.1551 238.593 16.1942 233.335 17.2926 228.093L17.4427 227.378C18.5265 222.226 19.5596 217.058 20.8019 211.941C21.9505 207.21 23.2779 202.501 24.8599 197.882C26.268 198.753 27.7416 199.515 29.1277 200.423C30.0406 201.02 30.8884 199.557 29.9808 198.963C28.502 197.995 26.9246 197.19 25.4322 196.244C27.2012 191.299 29.2775 186.469 31.7669 181.843C36.7526 172.58 43.4711 164.292 52.076 158.176C56.3836 155.116 61.1096 152.611 66.0725 150.789C71.1324 148.93 76.3758 147.911 81.7378 147.492C81.8909 147.48 81.9768 147.622 81.9706 147.753L81.9683 147.778L82.1796 147.812C82.2577 147.281 82.4183 146.767 82.7246 146.296C83.4218 145.223 84.7441 144.534 85.8005 143.874L86.0509 143.718C87.3077 142.939 88.6341 142.171 90.0958 141.898C90.1465 141.889 90.1779 141.942 90.1441 141.983C89.1802 143.088 87.9476 143.933 86.8179 144.868L86.5583 145.085C85.6221 145.855 84.3163 146.73 84.2815 148.018C84.2415 149.536 84.5519 151.115 84.6641 152.628C84.776 154.137 84.854 155.644 84.8941 157.157C85.0401 162.579 84.8648 168.002 84.385 173.402L86.506 171.981C89.8068 169.771 93.1185 167.567 96.4991 165.497C98.5444 164.244 100.843 163.172 103.293 163.221C103.98 163.234 104.755 163.333 105.499 163.544C104.699 162.786 103.932 161.978 103.148 161.215C101.857 159.958 100.566 158.7 99.2753 157.445L95.5534 153.818L91.8301 150.191C90.6767 149.065 89.3244 148.027 89.447 146.252C89.5465 144.836 90.2667 143.426 90.7589 142.061C90.8287 141.864 90.892 141.67 90.9512 141.477C91.9444 138.176 92.5082 134.754 93.516 131.466ZM141.62 273.111C140.85 272.341 139.654 273.536 140.425 274.307L140.832 274.713C141.512 275.392 142.187 276.091 142.657 276.931L142.727 277.058C143.234 278.02 144.693 277.167 144.186 276.204C143.559 275.014 142.561 274.053 141.62 273.111ZM108.634 272.894C106.183 272.426 103.821 272.426 101.37 272.894C100.303 273.098 100.755 274.728 101.819 274.524C103.963 274.115 106.041 274.115 108.185 274.524C109.248 274.727 109.703 273.098 108.634 272.894ZM75.5344 255.851C74.4797 255.583 74.0297 257.214 75.0852 257.481L75.6048 257.611C77.3713 258.048 79.0537 258.374 80.8887 257.968C81.9364 257.736 81.5127 256.146 80.481 256.329L80.4394 256.338C78.7414 256.713 77.1772 256.267 75.5344 255.851ZM134.319 244.868C133.538 244.109 132.342 245.304 133.123 246.064C134.099 247.013 135.248 247.734 136.641 247.772C137.713 247.802 137.728 246.162 136.689 246.084L136.641 246.081C135.708 246.055 134.964 245.496 134.319 244.868ZM34.8484 240.353C35.8215 239.866 34.9665 238.407 33.9955 238.893L28.1544 241.814V241.814C27.1813 242.301 28.0363 243.76 29.0073 243.274L34.8484 240.353V240.353ZM150.271 240.725C149.183 240.695 149.184 242.385 150.271 242.416C151.293 242.444 152.341 242.832 153.251 243.274C154.226 243.748 155.084 242.29 154.105 241.814C152.914 241.236 151.607 240.762 150.271 240.725ZM95.6935 232.562C96.588 231.953 95.7434 230.488 94.8404 231.102C93.6083 231.939 92.492 232.929 91.2795 233.791L90.9463 234.023C90.0518 234.631 90.8965 236.097 91.7994 235.483C93.1433 234.57 94.3496 233.475 95.6935 232.562ZM158.546 220.273C157.458 220.273 157.456 221.963 158.546 221.964L158.752 221.963C159.65 221.958 160.596 221.933 161.431 222.292L161.526 222.335C162.505 222.797 163.364 221.339 162.379 220.876C161.156 220.299 159.876 220.274 158.546 220.273ZM64.6837 219.065L64.8256 219.012C65.8418 218.647 65.4036 217.012 64.3763 217.382C62.8281 217.938 61.6236 218.989 60.2806 219.901C59.3857 220.51 60.2303 221.975 61.1335 221.362C62.2907 220.575 63.3673 219.58 64.6837 219.065V219.065ZM128.078 214.666L128.306 214.544C129.274 214.046 128.42 212.587 127.453 213.084C126.686 213.479 126 214.005 125.247 214.423L125.019 214.545C124.052 215.043 124.906 216.503 125.872 216.005C126.64 215.61 127.326 215.085 128.078 214.666V214.666ZM102.366 198.289L102.192 198.121C101.414 197.359 100.218 198.554 100.997 199.317C102.942 201.221 105.241 202.667 107.561 204.065L107.983 204.318C108.918 204.88 109.769 203.418 108.836 202.858L108.217 202.486C106.155 201.242 104.116 199.958 102.366 198.289V198.289ZM55.5955 196.711C56.2509 195.859 54.8257 195.026 54.1596 195.828L54.1361 195.857C53.4539 196.743 52.6444 197.545 51.7984 198.277L51.6394 198.414C51.1357 198.842 50.219 199.761 49.5115 199.821C48.4357 199.913 48.426 201.604 49.5115 201.512C50.6063 201.419 51.5483 200.648 52.3754 199.988C53.5792 199.027 54.656 197.931 55.5955 196.711ZM145.514 190.551C146.299 189.813 145.139 188.639 144.347 189.331L144.319 189.356C142.851 190.735 140.74 191.105 138.851 191.573C137.795 191.835 138.242 193.466 139.3 193.204L140.161 192.991C142.091 192.509 144.029 191.948 145.514 190.551ZM112.041 179.886C110.987 179.618 110.537 181.249 111.592 181.517C113.385 181.973 115.083 182.562 116.744 183.379C117.717 183.858 118.574 182.401 117.598 181.919C115.81 181.039 113.972 180.377 112.041 179.886ZM129.307 144.244C129.281 144.168 129.362 144.081 129.44 144.108C131.337 144.816 130.328 147.301 129.739 148.789L129.632 149.061C128.709 151.445 127.418 153.765 126.011 155.9C124.539 158.134 122.903 160.273 121.133 162.281C120.365 163.152 119.568 163.999 118.745 164.82L118.435 165.127C117.603 165.945 116.53 167.383 115.238 167.224C113.848 167.057 113.073 165.571 114.087 164.443C114.803 163.644 115.796 163.007 116.597 162.281C117.392 161.562 118.161 160.82 118.91 160.057C120.444 158.491 121.898 156.836 123.227 155.093C124.512 153.406 125.742 151.674 126.86 149.872L127.082 149.511C127.934 148.11 129.899 146.049 129.307 144.244ZM62.107 161.955C61.2066 161.339 60.3603 162.803 61.2539 163.414C62.8972 164.538 64.3429 165.899 66.1215 166.823C67.0739 167.318 67.9208 165.9 67.0084 165.382L66.9746 165.363C65.1972 164.44 63.7494 163.077 62.107 161.955Z" fill="black"/>
<path fill-rule="evenodd" clip-rule="evenodd" d="M119.183 145.719C114.504 145.747 110.527 144.416 107.493 142.214C103.706 140.86 99.1381 138.772 96.3637 136.58C95.2815 136.857 93.9866 135.705 93.1585 135.097C88.0092 131.242 83.9673 125.599 82.7696 119.947C80.9207 122.287 78.2897 122.384 75.7693 121.221C70.4861 118.218 70.6836 111.893 72.5857 107.168C68.587 98.1733 65.8158 74.4289 71.9197 64.8461C73.1682 63.4123 75.0004 62.5546 76.3196 61.0843C77.4934 59.8001 78.6099 58.4865 79.9756 57.4704C84.1427 54.2908 91.3199 52.5979 95.8138 51.8017C114.573 47.7358 128.987 55.0439 145.979 61.2083C145.001 63.66 143.648 65.8959 142.098 67.9806C146.317 69.5592 144.379 73.1084 141.106 74.9076L139.158 73.9582C142.195 84.8525 149.185 111.944 146.169 120.644C143.764 134.217 133.209 145.818 119.183 145.719" fill="#FDC6A0"/>
<path fill-rule="evenodd" clip-rule="evenodd" d="M128.304 54.8096C118.021 51.3622 107.777 49.2911 95.7445 51.8989C91.2506 52.6951 84.0734 54.388 79.9063 57.5675C78.7309 58.4421 77.7401 59.5369 76.7385 60.6437C76.5763 60.8229 76.4138 61.0025 76.2502 61.1814C75.5959 61.9108 74.8152 62.4894 74.0422 63.0624C73.2569 63.6445 72.4795 64.2207 71.8504 64.9432C65.8171 74.4151 68.4547 97.7225 72.378 106.947H72.5697H72.9724L73.1941 106.612L73.1941 106.612L73.1944 106.612L73.1946 106.611L128.304 54.8096ZM139.687 76.2294C139.541 75.6917 139.4 75.179 139.266 74.694L139.118 76.2294H139.687ZM139.316 74.1665L140.736 59.3788C142.438 60.024 144.16 60.6708 145.91 61.3055C144.932 63.7571 143.579 65.993 142.029 68.0778C146.247 69.6564 144.31 73.2056 141.037 75.0048L139.316 74.1665Z" fill="#ECDCBF"/>
<path fill-rule="evenodd" clip-rule="evenodd" d="M121.894 146.888C115.818 147.513 108.6 146.073 104.55 141.125C104.429 140.977 104.376 140.81 104.373 140.648C104.369 140.468 104.429 140.294 104.534 140.158C104.643 140.016 104.799 139.917 104.978 139.885C105.128 139.858 105.3 139.875 105.476 139.975L105.849 140.182C108.615 141.714 111.488 143.02 114.623 143.579C117.851 144.155 121.138 144.091 124.337 143.36C130.164 142.029 134.88 138.633 138.351 134.156C142.225 129.16 144.551 122.818 145.144 116.475C145.862 108.789 144.196 101.149 142.471 93.7064C140.659 85.8862 138.679 78.1059 136.378 70.4159C136.309 70.1844 136.29 69.9677 136.31 69.7682C135.632 69.5017 134.91 69.5757 134.191 69.819C132.877 70.2635 131.569 71.2659 130.478 72.0934C130.083 72.3931 129.715 72.6717 129.385 72.8983C128.032 73.8265 126.553 74.4943 124.899 74.5993C123.179 74.7083 121.492 74.1724 119.93 73.5017C119.136 73.1609 118.355 72.8075 117.578 72.4554C115.363 71.4529 113.174 70.4604 110.783 69.8153C107.578 68.9507 104.27 68.5248 100.951 68.5553C95.0275 68.6096 89.0862 70.1381 85.456 75.1602C83.9855 77.1945 83.0267 79.5327 83.7744 82.0435C84.1812 83.4093 84.9488 84.6492 85.7866 85.7896L86.0741 86.178C86.5337 86.8039 86.9328 87.4274 87.0532 88.0912C87.154 88.6472 87.0754 89.2355 86.6793 89.8803C86.4301 90.2861 86.1128 90.6501 85.7937 91.0129C85.5636 91.2746 85.3328 91.5358 85.1343 91.817C84.7342 92.384 84.3799 92.9947 84.102 93.6316C83.5579 94.8783 83.3271 96.2194 83.2789 97.572C83.2204 99.2038 83.4493 100.8 83.6763 102.399C83.8372 103.532 83.9979 104.667 84.0627 105.815C84.074 106.016 84.0129 106.165 83.9273 106.276C83.8226 106.411 83.6697 106.496 83.4957 106.52C83.4429 106.527 83.3882 106.528 83.3333 106.523C83.3603 106.633 83.3841 106.744 83.4048 106.856C83.2948 106.714 83.1778 106.577 83.0544 106.444C83.0465 106.44 83.0387 106.436 83.0309 106.431C82.9036 106.361 82.7958 106.254 82.7278 106.117C82.5529 105.954 82.3678 105.799 82.1736 105.654C81.1629 104.898 79.9827 104.45 78.7988 104.435C77.6575 104.421 76.5134 104.81 75.6337 105.633C73.8853 107.269 73.3732 109.938 73.3549 112.23C73.3364 114.57 73.8765 117.378 75.9113 118.83C76.7276 119.413 77.7245 119.763 78.7288 119.773C79.5613 119.782 80.3579 119.486 81.1422 119.205C81.3841 119.118 81.6248 119.032 81.865 118.954C82.1378 118.865 82.3865 118.87 82.6032 118.935C82.8475 119.009 83.0548 119.16 83.2097 119.362C83.364 119.563 83.4651 119.815 83.4964 120.079C83.5268 120.335 83.4919 120.6 83.384 120.839C83.3569 120.899 83.3283 120.958 83.2986 121.015L83.7462 121.752C85.4599 124.57 87.2035 127.336 89.49 129.758C90.8025 131.148 92.1936 132.46 93.7196 133.608L93.9397 133.772C94.0713 133.869 94.2174 133.988 94.3732 134.116C94.8183 134.481 95.3517 134.971 95.8498 134.99C95.9976 134.996 96.1266 134.977 96.2439 134.962C96.5275 134.924 96.7654 134.913 96.9992 135.009C97.1873 135.086 97.3824 135.23 97.5828 135.526C97.7184 135.727 97.7879 135.979 97.7879 136.234C97.7879 136.491 97.7175 136.747 97.5922 136.95C97.333 137.37 97.0193 137.63 96.6791 137.778C96.2997 137.943 95.8804 137.968 95.4446 137.887C94.371 137.686 93.1825 136.794 92.4263 136.213L92.28 136.1C90.6042 134.819 89.016 133.401 87.6199 131.815C85.2422 129.115 83.1068 125.933 82.0099 122.456C81.2369 122.965 80.2817 123.207 79.2831 123.245C77.8282 123.3 76.2883 122.925 75.1536 122.385C72.6529 121.197 71.134 118.948 70.4222 116.362C69.5955 113.359 69.8642 109.907 70.9107 107.209C70.941 107.131 70.9727 107.053 71.0052 106.974C67.7835 98.7906 66.7929 89.7041 67.0688 80.9715C67.1979 76.8839 67.4756 72.5953 68.4375 68.6088C68.8686 66.822 69.6177 65.1204 70.8138 63.7137C71.4958 62.9115 72.3325 62.287 73.173 61.6643C73.9011 61.1249 74.6319 60.5866 75.2468 59.9132L75.5376 59.5934C75.6006 59.5238 75.6635 59.4544 75.7262 59.385C76.7881 58.2117 77.822 57.0731 79.1106 56.1108C80.6051 54.9951 82.2543 54.1218 83.968 53.3965C87.6596 51.8346 91.633 50.8981 95.5636 50.1736C104.067 48.6064 112.797 48.5291 121.196 50.732C125.101 51.7561 128.891 53.1579 132.675 54.558C133.026 54.688 133.377 54.8179 133.729 54.9476C136.669 56.0329 139.611 57.1136 142.553 58.1943C143.92 58.6966 145.287 59.1988 146.654 59.7016C146.951 59.8107 147.241 60.0457 147.406 60.3377C147.568 60.6227 147.616 60.9549 147.486 61.2858C146.647 63.4165 145.588 65.4154 144.3 67.2821C144.748 67.5874 145.129 67.9934 145.417 68.4686C145.781 69.0696 145.997 69.7811 146.012 70.5359C146.061 73.0639 143.766 74.7776 141.863 76.017C141.685 76.1327 141.509 76.2009 141.34 76.2323C143.184 83.3035 144.95 90.3986 146.451 97.5499L146.554 98.0457C148.1 105.53 149.097 113.168 147.635 120.752C146.376 127.282 143.452 133.585 138.883 138.45C134.405 143.217 128.396 146.219 121.894 146.888ZM81.8868 103.834C81.0912 101.303 80.6696 98.5489 80.974 95.9832C81.1656 94.3705 81.6493 92.8179 82.4368 91.3964C82.8879 90.5822 83.4376 89.8286 84.0376 89.1187L84.2445 88.8803C84.3493 88.7585 84.4535 88.6466 84.4858 88.5063C84.5046 88.4248 84.4855 88.3356 84.4361 88.2291C84.3265 87.9931 84.123 87.7657 83.9324 87.5438C83.8113 87.4027 83.6931 87.2642 83.5937 87.1295C81.8501 84.7633 80.5498 81.9462 80.9724 78.9456C81.3848 76.0181 83.2986 73.2892 85.3361 71.2327C89.8225 66.7042 96.7781 65.6636 102.871 65.9134C106.418 66.0587 109.96 66.6854 113.338 67.7801C115.003 68.3201 116.632 68.9776 118.215 69.7313L118.565 69.9C118.754 69.9918 118.943 70.0847 119.132 70.1776C120.369 70.7858 121.611 71.4 122.954 71.7306C125.577 72.3762 127.356 71.0165 129.225 69.6451C129.866 69.1752 130.517 68.6987 131.209 68.2806L131.351 68.1962C132.598 67.4712 134.091 66.9832 135.524 67.0051C136.769 67.0241 137.971 67.4227 138.949 68.3646C139.15 68.5581 139.265 68.7693 139.319 68.9794C139.428 69.1315 139.515 69.3129 139.572 69.5271C139.922 70.8451 140.271 72.1639 140.619 73.4832L140.903 73.2996C141.745 72.7513 142.66 72.1247 143.074 71.2075C143.233 70.8544 143.21 70.2663 143.01 69.8338C142.94 69.6827 142.847 69.5484 142.719 69.4645C142.626 69.4035 142.514 69.3749 142.383 69.3854C142.066 69.4264 141.774 69.3799 141.527 69.2752C141.242 69.1545 141.015 68.9558 140.868 68.7164C140.717 68.4713 140.648 68.1832 140.685 67.8843C140.716 67.6273 140.827 67.359 141.045 67.1068C142.482 65.447 143.691 63.6159 144.611 61.6285L138.529 59.3729C136.361 58.569 134.192 57.7662 132.022 56.9664L130.834 56.5289C126.889 55.0781 122.921 53.6604 118.818 52.7263C110.664 50.8703 102.161 51.3065 94.0292 53.0536L93.538 53.16C90.1258 53.906 86.6677 54.8084 83.5357 56.3772C81.9984 57.1471 80.5371 58.0834 79.2822 59.2663C78.728 59.7887 78.2269 60.3606 77.7257 60.9318C77.0233 61.7323 76.32 62.5306 75.4848 63.2048L74.7096 63.8272C73.5563 64.7588 72.5161 65.6664 71.8654 67.1112C71.185 68.6217 70.8602 70.2904 70.5952 71.9162C69.9269 76.0118 69.6631 80.1731 69.6883 84.3216C69.7308 91.2873 70.7865 98.1112 72.1201 104.911C73.19 103.376 74.6931 102.186 76.6222 101.932C77.8799 101.767 79.1268 102.002 80.208 102.559C80.8329 102.881 81.4025 103.311 81.8868 103.834V103.834ZM79.8656 112.105C78.4569 111.558 76.9778 111.379 75.4874 111.64C75.3313 111.668 75.1824 111.635 75.0572 111.562C74.9303 111.488 74.8303 111.371 74.776 111.242C74.7132 111.093 74.71 110.932 74.7654 110.788C74.8135 110.664 74.9051 110.543 75.0735 110.462C76.6873 109.69 78.4811 109.349 80.2615 109.592L80.4374 109.617C81.3476 109.752 82.6276 110.037 83.5874 110.598C84.3415 111.038 84.8935 111.645 85.0308 112.438C85.1024 112.852 85 113.283 84.7624 113.596C84.5326 113.898 84.1814 114.1 83.7267 114.087C82.9248 114.064 82.45 113.724 81.8787 113.284C81.8094 113.231 81.7383 113.176 81.6644 113.121C81.1124 112.707 80.5092 112.355 79.8656 112.105Z" fill="black"/>
<path fill-rule="evenodd" clip-rule="evenodd" d="M123.152 128.274C121.732 127.695 120.465 126.728 119.538 125.493C119.216 125.063 119.133 124.61 119.2 124.195C119.276 123.729 119.552 123.306 119.928 123.023C120.305 122.739 120.777 122.598 121.233 122.67C121.63 122.732 122.024 122.949 122.337 123.399L122.402 123.489C122.953 124.235 123.67 124.846 124.488 125.241C125.276 125.621 126.158 125.798 127.07 125.695C128.808 125.499 130.005 124.559 131.278 123.282C131.436 123.121 131.594 122.955 131.752 122.786C131.852 122.633 131.991 122.534 132.146 122.483C132.317 122.425 132.511 122.429 132.689 122.491C132.86 122.55 133.013 122.664 133.116 122.815C133.213 122.958 133.269 123.135 133.251 123.339C133.134 124.661 132.443 125.842 131.461 126.769C130.37 127.799 128.924 128.511 127.563 128.761C126.064 129.036 124.536 128.839 123.152 128.274V128.274ZM128.271 107.866C129.866 108.836 132.297 111.098 130.581 113.503C128.56 115.624 125.652 113.193 124.219 112.093C122.89 111.241 121.396 113.433 122.629 114.428C132.987 122.099 137.19 108.12 129.078 106.726C128.184 106.572 127.853 107.566 128.271 107.866ZM109.711 98.9429C109.887 96.7541 113.219 96.257 113.551 98.423C113.847 100.363 113.498 102.145 112.624 103.892C111.79 105.561 109.692 104.783 109.533 103.263C109.32 101.226 109.601 100.304 109.711 98.9429ZM135.076 97.9739C135.541 97.3652 136.212 96.9497 137.015 97.1845C139.526 97.9185 138.786 101.485 137.904 103.22C137.425 104.163 135.876 104.402 135.176 103.572C134.036 102.219 133.489 99.5157 134.94 98.1825C134.979 98.1136 135.023 98.044 135.076 97.9739ZM112.589 89.3654L112.986 89.2959C114.213 89.0836 115.738 88.8796 116.606 89.8665C117.067 90.3898 117.225 91.3624 116.606 91.8633C115.518 92.7446 114.314 92.4031 113.01 92.4777C111.935 92.5394 110.902 92.7174 109.867 93.0135C107.595 93.6629 105.744 94.8486 103.804 96.1505C103.55 96.3213 103.29 95.9956 103.411 95.7574C104.531 93.563 106.701 91.7604 108.875 90.6616C110.036 90.0751 111.305 89.5885 112.589 89.3654ZM132.787 88.3823L133.091 88.4445C136.395 89.1353 140.687 90.5153 142.251 93.7615C142.311 94.2205 142.248 94.3189 142.197 94.3832L142.18 94.4046C142.137 94.4595 142.104 94.5351 141.905 94.5976C141.85 94.5844 141.794 94.5705 141.737 94.5557C141.02 94.3677 140.453 94.1087 139.904 93.84L139.308 93.5465C138.617 93.2076 137.92 92.881 137.181 92.6399C135.605 92.1255 133.983 91.7631 132.337 91.5696C131.98 91.5277 131.636 91.4072 131.365 91.2006C131.108 91.0046 130.911 90.7332 130.821 90.3724C130.705 89.9056 130.739 89.5521 130.989 89.1309C131.177 88.8146 131.447 88.5953 131.756 88.4694C132.071 88.3411 132.43 88.3108 132.787 88.3823Z" fill="black"/>
<path fill-rule="evenodd" clip-rule="evenodd" d="M82.1328 106.046C83.626 106.046 84.2376 109.524 84.2376 109.524C88.0353 116.075 91.6909 122.607 98.2134 127.114C105.454 130.017 112.576 134.96 120.826 135.502C124.545 135.112 125.636 131.706 130.229 132.905C133.159 133.617 136.45 135.022 139.159 132.992C141.449 131.495 143.061 129.226 145.036 127.392C145.137 127.061 145.793 130.554 145.594 131.734L145.441 132.404C144.218 137.809 142.981 144.169 137.508 147.14C135.841 148.019 133.502 148.867 131.651 148.372C121.874 149.931 111.269 148.79 102.704 143.911C99.6882 143.127 97.4451 140.722 95.0705 138.904C89.2625 133.815 82.6065 127.369 81.9863 119.637C81.366 111.906 81.6422 106.046 82.1328 106.046ZM111.674 121.312C115.001 115.966 121.613 116.834 126.757 119.27C129.599 117.34 133.349 117.695 136.432 119.055L136.431 119.057C139.272 120.611 141.423 123.163 143.4 125.605C143.881 126.253 144.073 127.125 143.396 127.444C140.209 130.072 133.587 128.53 130.581 126.576C128.413 126.401 128.889 123.322 126.386 125.477C124.716 127.047 122.618 128.021 120.339 128.598C115.244 130.348 110.553 130.057 106.116 127.33C105.545 127.274 103.207 125.951 104.038 125.48C104.941 125.725 109.948 122.85 111.674 121.312Z" fill="#E8E1E1"/>
<path fill-rule="evenodd" clip-rule="evenodd" d="M81.355 111.793C81.389 111.512 81.8253 111.498 81.8351 111.793C82.0373 117.979 84.0507 124.76 87.4559 130.056C95.6393 143.423 112.342 150.12 128.419 147.819C140.167 147.659 141.422 141 144.342 131.701C145.858 130.456 146.603 130.902 146.132 132.361C142.512 143.582 141.272 150.018 126.95 149.896C103.952 153.18 79.0116 134.369 81.355 111.793ZM113.846 116.781C117.598 115.105 122.063 115.342 125.197 117.659L125.418 117.709C125.967 117.832 126.493 117.925 127.11 117.863C135.403 113.495 140.94 121.112 145.192 126.815C145.513 126.826 145.774 127.078 145.687 127.373L145.823 127.518C145.288 128.955 144.32 130.343 142.997 131.214C138.658 136.994 135.418 135.187 129.765 132.808C123.952 131.937 123.717 138.792 115.608 135.652L115.302 135.552C112.634 134.67 109.571 133.333 107.632 131.401C107.568 131.338 107.63 131.216 107.727 131.248C112.227 132.605 118.013 137.036 122.594 134.051C123.751 133.273 124.792 132.33 126.086 131.744C133.475 129.271 136.072 139.039 142.538 128.898C137.273 129.816 131.339 128.903 127.403 125.317C121.52 132.405 110.069 131.27 102.788 126.867C101.792 127.01 100.319 126.025 101.236 125.087C102.239 124.289 103.826 124.602 105.059 124.169C108.995 122.769 109.924 118.304 113.846 116.781ZM127 119.745C122.841 116.786 116.622 116.288 112.642 119.779C110.156 122.276 108.544 125.859 104.537 126.52C111.418 130.482 121.305 130.549 126.603 124.244C126.77 123.699 127.632 123.934 127.736 124.408C131.53 127.056 136.382 128.463 141.108 127.651C141.87 127.526 142.622 127.348 143.355 127.12L142.658 126.161C138.949 121.085 134.179 115.174 127.106 119.349C126.946 119.43 126.878 119.223 126.858 119.117L126.771 119.18C126.834 119.311 127.355 119.743 127 119.745ZM144.028 128.559C144.063 128.59 144.092 128.624 144.116 128.66C144.232 128.599 144.353 128.538 144.477 128.479L144.443 128.454C144.31 128.492 144.171 128.527 144.028 128.559ZM81.8905 104.118L81.8889 103.915C81.8891 101.873 82.4375 104.447 82.6838 104.954C83.7426 106.861 84.6278 108.748 85.7494 110.607C90.2469 118.701 90.9433 122.21 100.006 126.821C100.679 127.397 99.9718 128.432 99.1354 128.22C97.8844 127.901 96.7046 127.104 95.6149 126.461C89.4438 123.277 87.1419 116.782 84.3732 111.129C83.5601 108.887 81.6845 106.496 81.8905 104.118Z" fill="black"/>
<path fill-rule="evenodd" clip-rule="evenodd" d="M150.723 102.353C148.709 115.983 134.648 117.49 132.15 103.959C132.551 103.784 132.839 103.438 132.779 102.767C132.765 99.8178 133.68 96.7012 136.339 95.0614C139.087 93.3693 142.302 93.2015 145.482 93.2442C151.55 93.0996 151.423 98.1735 150.723 102.353M129.949 96.4254C128.044 96.3451 125.635 96.4123 123.929 97.5731C123.46 96.3096 122.242 94.9606 121.01 94.2392C125.587 94.3732 130.298 93.9226 134.908 93.5728C133.805 94.3255 132.778 95.4562 132.111 96.7634C131.491 96.433 130.604 96.4639 129.949 96.4254M121.555 103.798C116.274 121.982 103.093 114.056 101.656 111.726C99.0638 107.87 98.5762 98.4954 100.834 95.989C104.066 93.7225 108.641 94.3058 112.459 94.2502C119.474 94.3449 124.455 96.444 121.555 103.798M156.958 95.4348C155.524 95.2472 153.99 95.2093 152.657 95.8413C152.246 94.0949 150.956 92.6349 149.501 91.9924C149.324 91.7713 149.351 91.6525 148.749 91.6857C145.053 90.5744 140.917 91.1624 137.365 92.302C131.755 92.7746 125.87 93.1472 120.213 93.7984C114.914 91.4177 98.9229 91.0688 97.9291 96.9365C96.679 96.7494 94.5501 95.7652 93.4997 97.1003C85.7945 95.7935 77.8329 97.6096 70.0944 98.4185C68.1465 98.7773 67.1432 102.645 69.3543 102.592C70.5974 102.254 69.3161 100.184 70.99 100.028C78.4564 99.2121 85.7595 98.0547 93.3024 97.9193C93.04 99.2222 98.2912 99.307 98.3688 98.5461C98.38 98.5518 98.3918 98.5556 98.4032 98.5607C97.1056 103.399 98.2769 110.361 100.622 113.361C103.908 117.289 112.157 118.416 115.814 115.888C120.532 113.556 125.441 101.847 124.062 97.9565C126.564 97.1631 129.038 97.4012 131.635 97.8053C131.04 99.4854 130.014 103.621 131.491 103.98C131.22 112.191 138.689 117.314 145.575 113.946C151.536 111.147 153.62 102.287 152.891 96.9101C153.633 98.3443 159.862 96.7828 156.958 95.4348" fill="black"/>
</g>
<defs>
<clipPath id="clip0_2016_14087">
<rect width="200" height="267" fill="white"/>
</clipPath>
</defs>
</svg>
