<svg width="200" height="267" viewBox="0 0 200 267" fill="none" xmlns="http://www.w3.org/2000/svg">
<g clip-path="url(#clip0_2017_16742)">
<rect width="200" height="267" fill="white"/>
<path fill-rule="evenodd" clip-rule="evenodd" d="M178.116 286.283C182.198 286.086 180.556 278.941 180.263 276.317C177.031 266.734 177.791 256.278 176.519 246.233C175.727 236.856 174.709 227.508 173.853 218.138C172.172 199.117 160.099 160.397 146.321 154.17C144.585 146.552 137.417 139.44 128.347 139.44C122.161 132.115 114.716 126.96 105.166 128.001C101.219 128.18 97.3919 132.367 93.6104 133.176C91.4931 133.468 72.7029 132.716 68.939 134.953C66.3171 136.299 63.9503 138.788 64.7212 141.956C65.9512 145.795 62.1288 141.642 54.1549 145.739C37.895 155.508 47.6112 168.577 48.0418 168.982C37.895 183.105 29.0263 194.563 24.9228 211.825C22.2634 224.641 22.5628 237.872 20.3345 250.753C19.5478 255.22 18.3408 259.534 17.0347 263.872C15.6192 269.548 14.931 283.697 14.1508 283.823C12.7296 284.176 14.9721 287.096 16.478 287.098C58.2296 294.026 100.639 287.385 142.615 286.3C154.444 285.888 166.287 285.793 178.116 286.283Z" fill="#FDC6A0"/>
<path fill-rule="evenodd" clip-rule="evenodd" d="M93.6629 145.612C93.6629 150.057 109.092 166.575 114.416 165.485C117.966 164.759 123.33 160.021 130.507 151.272V145.612L128.957 139.451C137.737 139.76 144.624 146.723 146.321 154.17C159.961 160.335 171.93 198.346 173.8 217.561L173.853 218.138C174.709 227.508 175.727 236.856 176.519 246.233C177.791 256.278 177.031 266.734 180.263 276.317L180.282 276.48C180.62 279.224 182.117 286.09 178.116 286.283C166.287 285.793 154.444 285.888 142.615 286.3C100.639 287.385 58.2296 294.026 16.478 287.098C14.9721 287.096 12.7296 284.176 14.1508 283.823C14.931 283.697 15.6192 269.548 17.0347 263.872L17.3034 262.974C18.5053 258.938 19.602 254.912 20.3345 250.753C22.5628 237.872 22.2634 224.641 24.9228 211.825C29.0263 194.563 37.895 183.105 48.0418 168.982C47.6112 168.577 37.895 155.508 54.1549 145.739C62.1288 141.642 65.9512 145.795 64.7212 141.956C63.9503 138.788 66.3171 136.299 68.939 134.953C72.7029 132.716 91.4931 133.468 93.6104 133.176C94.594 132.966 95.5807 132.527 96.5718 131.989L96.3999 132.562C94.5752 138.68 93.6629 143.03 93.6629 145.612Z" fill="#9FD8E5"/>
<path fill-rule="evenodd" clip-rule="evenodd" d="M114.835 170.229C114.854 170.037 115.112 170.038 115.132 170.229L115.426 173.075C115.785 176.552 116.13 180.022 116.381 183.515C116.693 187.871 116.902 192.225 117.002 196.591C117.353 211.795 117.422 227.007 117.452 242.214C119.508 242.072 121.564 241.935 123.621 241.802C125.017 241.712 126.412 241.625 127.808 241.54L131.368 241.324V241.324L132.833 241.234C133.823 241.173 134.948 240.923 135.641 241.801C135.918 242.152 136.057 242.609 135.798 243.026C135.202 243.988 134.287 243.954 133.252 243.996C132.275 244.035 131.298 244.074 130.321 244.112C128.227 244.193 126.134 244.27 124.04 244.328C121.842 244.39 119.646 244.44 117.449 244.478C117.427 250.898 117.161 257.31 116.874 263.723L116.744 266.609C116.393 274.413 116.015 282.224 115.478 290.018C115.434 290.656 114.532 290.655 114.488 290.018C113.883 281.241 113.484 272.445 113.089 263.656C112.802 257.283 112.635 250.909 112.556 244.534C112.265 244.536 111.975 244.54 111.685 244.541C103.44 244.577 95.1965 244.613 86.9514 244.536C86.9651 244.552 86.9786 244.568 86.9877 244.59C87.5843 245.999 87.6412 247.797 87.6266 249.309C87.6099 251.044 87.3764 252.757 86.9771 254.444C85.5466 260.486 81.8566 265.897 77.654 270.372L77.5168 270.517C76.5255 271.565 75.3883 272.618 74.7796 273.952C74.1579 275.315 73.9421 276.909 73.6353 278.374L73.5995 278.542L72.3999 284.085C72.0188 285.845 71.9106 288.413 70.5175 289.683C69.2178 290.869 67.496 290.249 66.8843 288.724C66.4067 287.533 66.8824 286.225 67.1653 285.034L69.3818 275.714C69.7459 274.194 70.1439 272.664 70.9299 271.298C71.735 269.9 72.9154 268.886 74.1198 267.849C76.4005 265.884 78.4941 263.636 80.2648 261.201C82.0348 258.767 83.5474 256.084 84.6082 253.263C85.1393 251.851 85.5745 250.384 85.8748 248.905C86.1602 247.501 86.1576 246.047 86.4629 244.659C86.4838 244.563 86.5648 244.497 86.6575 244.468C86.6355 244.406 86.6691 244.322 86.7557 244.317L93.4989 243.883C99.4929 243.496 105.487 243.1 111.475 242.646L112.534 242.57V242.57C112.451 234.064 112.521 225.557 112.675 217.048C112.815 209.245 112.818 201.44 113.05 193.638C113.166 189.766 113.414 185.903 113.691 182.039C113.974 178.087 114.427 174.169 114.835 170.229ZM51.5195 215.471C51.4476 215.038 51.9925 214.77 52.2437 215.166C55.115 219.693 56.4995 224.611 57.083 229.91C57.5985 234.586 57.4466 239.329 57.1899 244.018C56.9161 249.018 56.5966 254.018 56.2736 259.015L55.7773 266.68V266.68L54.5319 285.893C54.4428 287.268 54.1309 288.517 52.948 289.156C52.7983 289.281 52.6421 289.394 52.4602 289.491C51.8211 289.833 50.9735 289.66 50.604 289.004L50.7522 289.101C50.8812 289.183 50.7363 289.069 50.3173 288.761L49.9618 288.301V288.301C49.7034 287.912 49.5384 287.53 49.4721 287.069C49.369 286.351 49.5025 285.564 49.5494 284.843L50.3657 272.244V272.244C51.0006 262.449 51.7419 252.657 52.3007 242.858C52.561 238.291 52.7433 233.719 52.6199 229.143C52.497 224.594 52.2652 219.966 51.5195 215.471ZM76.359 131.131L76.5183 131.104C82.2215 130.156 88.423 130.334 93.6352 133.084C93.6783 133.107 93.6587 133.178 93.6103 133.176L91.9326 133.109C86.6216 132.901 81.327 132.778 76.1049 134.026L75.5703 134.155C73.6896 134.614 71.7257 135.176 70.2152 136.418C68.7713 137.606 68.0524 139.438 67.3611 141.125L67.2687 141.348C66.5673 143.014 65.6796 144.593 64.1423 145.635C62.1511 146.984 59.7564 146.819 57.4732 147.002C53.4532 147.325 50.1665 150.24 48.5313 153.806C47.5411 155.966 47.1187 158.387 47.0351 160.749C46.9922 161.951 46.9861 163.201 47.1462 164.395C47.1973 164.777 47.6693 166.168 47.9099 166.135C48.4447 166.061 48.9335 166.34 49.1002 166.767C50.4211 165.491 51.7799 164.251 53.1825 163.056C56.6788 160.077 60.4447 157.377 64.4106 155.058C67.4374 153.287 70.6301 151.533 73.9362 150.207C73.6742 150.201 73.4159 150.253 73.1659 150.383C73.0565 150.44 72.9477 150.303 73.0341 150.212C74.0754 149.116 75.3228 148.96 76.5802 149.252C76.8485 149.167 77.1171 149.084 77.3866 149.006C77.5208 148.967 77.5876 149.152 77.4781 149.223L77.1692 149.42V149.42C78.541 149.88 79.8878 150.784 80.9541 151.497C84.0171 153.545 86.713 156.048 89.446 158.505L89.9429 158.95C92.3485 161.099 94.8154 163.187 97.5485 164.911C98.9792 165.813 100.482 166.647 102.058 167.268C103.41 167.801 105.611 168.136 106.245 169.566C106.807 170.25 106.572 171.123 105.913 171.583C104.801 172.807 102.578 172.016 101.253 171.506C99.6559 170.892 98.1088 170.153 96.6333 169.287C93.7687 167.604 91.1275 165.513 88.6671 163.288C86.0974 160.964 83.6735 158.495 81.1742 156.098C80.0913 155.059 79.0334 153.996 77.9489 152.959L77.4042 152.443C76.8506 151.924 76.062 151.114 75.2188 150.625C73.6303 151.572 72.0173 152.481 70.4431 153.454C68.2457 154.811 66.113 156.266 64.0132 157.769C59.9708 160.663 56.1401 163.904 52.5838 167.377C46.0616 173.748 40.5048 181.023 35.6505 188.726L35.2819 189.313C32.5234 193.721 29.9148 198.273 28.0652 203.144C26.03 208.505 25.0402 214.142 24.5025 219.833C23.9689 225.483 23.7889 231.161 23.1925 236.806C22.5809 242.595 21.3758 248.256 20.0051 253.907L19.6782 255.246C18.4379 260.307 17.1578 265.368 16.5202 270.548C16.1799 273.315 15.9752 276.12 16.0214 278.909C16.0679 281.715 16.5086 284.458 16.8642 287.234C17.0004 288.298 15.9542 289.186 15.0181 289.327C13.9415 289.488 13.0166 288.801 12.6819 287.801C11.6387 284.682 11.4492 281.234 11.4819 277.96C11.5149 274.637 11.9389 271.335 12.5355 268.069C13.7089 261.644 15.5197 255.353 17.0344 249.005C18.3694 243.41 19.2654 237.805 19.7484 232.074C20.2497 226.127 20.5499 220.161 21.4645 214.257C22.3673 208.429 24.0659 202.862 26.6275 197.548C28.9599 192.709 31.8673 188.155 34.9155 183.74C38.6171 178.38 42.6825 173.279 47.2269 168.631C46.8187 168.613 46.3996 168.482 46.0147 168.241C44.8371 167.507 44.2886 166.069 44.12 164.757C43.7254 161.686 43.8206 158.481 44.6099 155.479C45.8833 150.637 49.1879 146.334 53.9773 144.589C55.2101 144.139 56.5206 143.975 57.8271 143.943C59.0668 143.912 60.4208 144.074 61.617 143.681C63.521 143.055 64.3371 140.811 65.052 139.111L65.0849 139.033C66.0016 136.866 67.1019 135.008 69.0874 133.655C71.2057 132.211 73.8598 131.555 76.359 131.131V131.131ZM130.549 139.701C132.262 139.106 134.405 139.646 136.081 140.165C137.948 140.744 139.674 141.811 141.153 143.077C142.714 144.413 144.003 146.062 144.915 147.905L145.002 148.083C145.834 149.792 146.782 152.138 146.362 154.016C146.35 154.069 146.336 154.12 146.321 154.17C149.721 155.845 152.861 157.942 155.596 160.6C158.78 163.696 161.477 167.218 163.758 171.023C172.82 186.136 174.415 204.287 175.486 221.522L175.752 225.892C176.334 235.329 177.014 244.743 178.78 254.049L178.909 254.721C180.798 264.465 183.501 274.283 183.227 284.279C183.145 287.274 178.721 287.253 178.592 284.279C178.109 273.083 175.498 262.273 173.729 251.252C170.617 231.863 172.177 211.873 167.767 192.678C166.037 185.145 163.357 177.838 159.529 171.114C157.639 167.792 155.475 164.582 152.942 161.717C150.761 159.251 148.496 156.878 145.948 154.805C145.134 155.621 143.507 155.205 143.082 154.016C142.79 153.198 142.875 152.243 142.688 151.387C142.514 150.592 142.274 149.805 141.955 149.056C141.318 147.565 140.383 146.133 139.304 144.927C138.139 143.622 136.799 142.538 135.3 141.644C133.791 140.743 132.14 140.474 130.549 139.815C130.495 139.793 130.49 139.721 130.549 139.701ZM137.207 243.325C137.21 243.246 137.302 243.209 137.359 243.261C137.96 243.814 138.323 244.608 138.766 245.289C139.276 246.073 139.811 246.842 140.373 247.59C141.498 249.09 142.75 250.503 144.013 251.888C145.187 253.176 146.439 254.41 147.737 255.573C149.144 256.833 150.72 257.957 151.998 259.353C154.664 262.264 155.095 266.26 155.658 270.013L155.72 270.418C156.063 272.645 156.37 274.878 156.647 277.114C156.782 278.201 156.916 279.29 157.026 280.38L157.06 280.726C157.158 281.793 157.184 282.876 156.571 283.809C155.915 284.807 154.424 285.156 153.537 284.2C152.014 282.556 152.3 279.636 152.101 277.522C151.938 275.773 151.752 274.027 151.544 272.283L151.438 271.412C151.193 269.428 150.994 267.405 150.541 265.455C150.141 263.739 149.379 262.443 148.128 261.2C146.869 259.947 145.56 258.777 144.397 257.428C143.164 255.998 142.052 254.463 141.05 252.862C140.192 251.493 139.505 250.002 138.876 248.514L138.771 248.266C138.163 246.814 137.159 244.924 137.207 243.325ZM159.203 180.967C159.216 180.764 159.515 180.761 159.519 180.967C159.557 182.708 159.594 184.45 159.63 186.192C159.92 200.226 159.741 214.293 161.149 228.279C161.813 234.873 163.035 241.371 164.449 247.841C165.173 251.152 165.933 254.455 166.654 257.766C167.357 260.993 168.111 264.236 168.669 267.493C169.217 270.694 169.708 273.92 169.928 277.162L169.955 277.585C170.05 279.156 170.503 281.466 169.638 282.858C168.702 284.366 166.908 284.393 165.904 282.953C164.962 281.602 165.196 279.198 165.03 277.585C164.861 275.942 164.682 274.298 164.478 272.659C164.082 269.462 163.559 266.272 163.016 263.097C161.884 256.484 160.243 249.955 159.031 243.353C157.789 236.587 156.907 229.774 156.869 222.886C156.832 215.94 157.567 209.007 157.938 202.075C158.315 195.036 158.744 188.001 159.203 180.967ZM92.9321 137.316C93.3088 136.047 94.6381 135.254 95.9348 135.61C97.1232 135.937 98.1043 137.38 97.6398 138.614C97.1327 139.962 96.2467 141.11 95.4996 142.335C94.8096 143.466 93.8031 144.357 93.1003 145.468L93.8748 146.303C94.2623 146.72 94.651 147.134 95.0439 147.541L96.3949 148.941C97.447 150.029 98.5058 151.111 99.5944 152.162C102.796 155.251 106.047 158.238 109.632 160.883C110.448 161.485 111.271 162.084 112.116 162.644L112.432 162.853C113.012 163.233 113.659 163.607 114.36 163.542C116.062 163.386 117.601 161.577 118.771 160.451L118.832 160.392C121.732 157.632 124.417 154.615 126.764 151.37C127.285 150.649 127.79 149.916 128.282 149.174C127.147 147.848 127.418 145.259 127.355 143.651C127.311 142.52 127.308 141.389 127.302 140.257L127.298 140.029C127.285 139.296 127.252 138.593 127.727 137.991C127.754 137.956 127.812 137.957 127.847 137.975C128.498 138.316 128.698 138.888 128.976 139.529L129.005 139.595C129.343 140.364 129.667 141.14 129.994 141.914C130.337 142.724 130.652 143.546 130.97 144.365C131.118 144.747 131.26 145.129 131.398 145.514C131.483 145.76 131.57 146.004 131.66 146.249L131.681 146.267C131.799 146.368 131.899 146.474 131.986 146.583C132.349 146.765 132.638 147.096 132.773 147.583C133.068 148.642 132.458 149.505 131.914 150.346C129.704 153.761 127.185 157.016 124.385 159.968C122.994 161.435 121.531 162.836 120.007 164.165L119.741 164.395C118.373 165.572 116.887 166.686 115.06 166.961C112.921 167.283 111.181 166.219 109.543 164.994L109.38 164.871C107.828 163.695 106.307 162.479 104.834 161.206C101.83 158.612 98.9722 155.826 96.436 152.77C93.9688 149.797 91.5301 146.473 90.0094 142.896C89.9167 142.678 90.1605 142.45 90.3515 142.632C91.0943 143.339 91.809 144.085 92.5153 144.84C92.5349 143.728 92.3298 142.607 92.4438 141.488C92.5831 140.128 92.5429 138.625 92.9321 137.316Z" fill="black"/>
<path fill-rule="evenodd" clip-rule="evenodd" d="M146.805 109.396C145.483 99.8335 142.459 90.5493 142.025 80.8437C141.766 76.6904 141.508 72.537 141.25 68.3833C141.152 65.7892 137.791 64.914 136.507 67.2122C133.588 63.9676 128.363 64.4454 124.376 64.5439C100.905 65.3777 78.6017 81.286 70.5449 103.467C70.3512 103.996 70.4098 104.559 70.6288 105.062C66.8735 117.617 80.1542 125.7 89.2119 131.298C92.8863 135.191 97.2055 138.425 102.082 140.64C107.693 143.285 113.938 144.761 120.136 144.902C121.497 144.933 122.314 143.83 122.412 142.689C124.39 142.227 127.774 142.76 128.819 140.729C140.745 135.536 148.515 122.375 146.805 109.396V109.396Z" fill="#FDC6A0"/>
<path fill-rule="evenodd" clip-rule="evenodd" d="M141.225 75.4847C141.191 75.1747 141.638 75.1651 141.729 75.4162C142.485 77.4805 143.269 79.5306 143.868 81.647C144.445 83.6868 144.861 85.7728 145.282 87.85C145.98 91.2971 146.58 94.7696 147.077 98.2533C148.138 97.4222 149.527 97.3466 150.834 97.9933C151.448 98.2966 151.682 99.0987 151.535 99.7209C151.417 100.22 151.273 100.717 151.099 101.203C151.47 101.532 151.785 101.937 152.013 102.403C152.615 103.629 152.421 104.915 151.881 106.085C151.922 106.154 151.963 106.225 152.001 106.299C152.783 107.82 152.365 109.183 151.794 110.668C151.366 111.778 151.605 113.029 150.682 113.868C150.362 114.9 149.881 115.861 149.18 116.728C149.021 117.02 148.783 117.255 148.5 117.428C148.429 119.057 148.258 120.682 147.935 122.292C146.682 128.543 142.704 134.113 137.78 138.042C132.961 141.886 127.302 144.183 121.196 144.926C118.231 145.287 115.261 145.173 112.321 144.658L111.954 144.593C109.241 144.099 105.957 143.282 104.081 141.23C103.094 140.151 103.671 137.776 105.415 138C106.34 138.119 107.144 138.267 108.014 138.609C108.693 138.876 109.373 139.133 110.07 139.351C111.404 139.767 112.784 140.092 114.17 140.272C117.057 140.646 120.057 140.547 122.911 139.982C128.1 138.956 133.141 136.589 137.079 133.025C141.657 128.882 144.34 123.519 144.735 117.335C145.175 110.447 144.381 103.394 143.723 96.5415C143.38 92.9771 142.945 89.4199 142.422 85.8776C141.91 82.4166 141.603 78.9604 141.225 75.4847ZM100.714 53.2433L100.936 53.2092C109.748 51.8648 119.02 51.9601 127.303 55.6059C128.891 56.3052 130.444 57.1485 131.907 58.1271C132.955 58.0174 134.01 57.9284 135.045 57.9138C136.347 57.8967 137.619 58.5751 137.779 59.8961C138.999 60.0483 140.123 60.4984 140.842 61.399C141.122 61.7496 141.31 62.1554 141.405 62.5781C142.155 62.7559 142.891 63.0283 143.589 63.3876C144.437 63.8251 144.926 65.0425 144.626 65.943C144.557 66.1474 144.479 66.3466 144.391 66.5414L144.323 66.6868L144.363 66.7417C145.04 67.8323 144.569 69.2631 143.532 69.9141C142.754 70.4023 141.886 70.7912 140.992 70.9793C141.066 71.3386 141.133 71.7 141.188 72.0656C141.209 72.2138 141.019 72.3195 140.935 72.1734C140.935 72.1734 141.255 73.1731 141.738 74.2745C141.928 74.7075 141.321 75.0922 141.089 74.6547C140.473 73.488 140.092 72.2918 139.533 71.0892C139.017 71.0554 138.502 70.937 138.006 70.7109C137.682 70.5629 137.435 70.3135 137.258 70.0155C137.248 70.0282 137.241 70.043 137.231 70.0578C135.567 72.203 132.316 72.9554 129.803 73.6338C127.105 74.3632 124.343 74.8132 121.571 75.145C116.73 75.722 111.852 75.8298 106.988 76.054C106.666 76.0686 106.345 76.0849 106.023 76.1005C104.048 77.8378 101.503 78.9174 98.8933 79.2456C97.5709 79.4117 96.0066 79.3695 94.5236 79.0309C93.9869 79.5804 93.3087 79.9875 92.5683 80.1965C92.435 82.965 90.8952 85.5861 88.5673 87.114L88.6086 87.2785C89.187 89.6426 89.1796 92.2267 87.1059 93.8698C86.8248 94.0921 86.5181 94.2828 86.1955 94.4409L86.2664 94.6041C87.3375 97.1138 87.6796 99.8859 85.6662 101.968C84.8498 102.812 83.4164 102.612 82.8042 101.644L82.7743 101.595C82.7404 101.537 82.7037 101.482 82.6685 101.425C82.6139 101.537 82.5304 101.631 82.4064 101.684C81.6412 102.014 81.3355 101.771 80.6376 101.431C79.9925 101.114 79.3116 100.877 78.6161 100.693C78.0488 100.545 77.4837 100.439 76.9145 100.378C73.3179 101.756 70.9947 105.983 71.547 109.95C71.8464 112.11 73.0293 114.249 75.0909 115.145C75.9932 115.538 77.0537 115.703 78.0298 115.57C79.3516 115.39 80.3678 114.556 81.736 115.033C82.2757 115.221 82.6133 115.646 82.6426 116.227C82.6913 117.14 82.3685 117.825 81.8246 118.332C82.7838 119.135 83.5575 120.251 84.3903 121.141C85.4319 122.255 86.488 123.369 87.6137 124.396C88.6763 125.37 89.8065 126.275 91.0038 127.078L91.1296 127.161C92.6298 128.141 94.5202 129.01 94.5919 131.058C94.6151 131.675 94.242 132.241 93.736 132.556C91.8451 133.731 89.7873 132.188 88.3052 131.058C87.7086 130.603 87.1289 130.132 86.5702 129.644C86.197 129.673 85.7901 129.612 85.3664 129.424C85.0944 129.306 84.8288 129.166 84.5674 129.018C83.7178 129.232 82.9166 129.044 82.2568 128.598C81.3059 128.832 80.2982 128.86 79.4423 128.672C78.6603 128.498 77.9623 128.128 77.3868 127.632C76.1851 128.016 74.8506 127.945 73.6658 127.215C72.9553 126.778 72.4008 126.154 72.0994 125.425C71.9459 125.184 71.8477 124.903 71.8402 124.594L71.84 124.476C70.807 124.5 69.7719 124.144 68.9729 123.325C68.2392 122.572 67.881 121.634 67.8408 120.68C66.8014 120.385 65.8506 119.778 65.1275 118.842C63.93 117.29 63.77 115.373 64.3856 113.661C64.3453 113.571 64.3095 113.478 64.2779 113.385C63.3228 112.034 62.6925 110.405 62.7431 108.771C62.7494 108.517 62.7831 108.268 62.8337 108.021C61.8935 107.52 61.202 106.64 61.1282 105.522C61.0713 104.645 61.3854 103.787 61.9525 103.138C61.6763 102.477 61.554 101.758 61.6384 101.04C61.7248 100.302 61.9841 99.6616 62.3638 99.1271C62.3552 98.9327 62.3657 98.7359 62.3973 98.5351C62.3594 98.3386 62.3278 98.1357 62.3111 97.9288C62.1317 95.6629 63.6918 93.6804 65.5913 92.6342C66.0909 92.3595 66.6306 92.1355 67.1703 91.9452C67.5625 91.8057 68.1528 91.7592 68.4985 91.5035C68.4838 91.4929 68.6271 91.3072 68.6524 91.2076C68.6798 91.085 68.7093 90.9646 68.7243 90.8399C68.781 90.3157 68.7389 89.7768 68.7283 89.2505C68.6819 86.8623 68.7557 84.4634 69.0066 82.0879C69.4725 77.6833 70.6217 73.3739 72.8604 69.5252C74.7388 66.3 77.3109 63.5757 80.2603 61.3164C86.135 56.8182 93.4661 54.3725 100.714 53.2433ZM73.4884 108.019C72.7237 106.176 76.3239 106.158 77.2758 106.245L77.3039 106.248C79.4464 106.462 82.7962 107.495 83.6728 109.662C84.0356 110.559 82.9615 111.532 82.102 111.237C81.2606 110.948 80.7887 110.328 80.1135 109.785C79.9364 109.643 79.7517 109.51 79.5637 109.382C79.6627 109.698 79.8212 109.99 80.0412 110.208L80.093 110.257C81.1299 111.191 79.2757 112.658 78.5875 111.422C78.2211 110.764 78.0744 110.042 78.1887 109.295C78.2226 109.074 78.2816 108.873 78.3675 108.68C78.2991 108.646 78.2319 108.609 78.1627 108.576L78.0393 108.518C77.2141 108.143 73.6928 106.669 73.7214 107.987C73.7245 108.133 73.5358 108.133 73.4884 108.019Z" fill="black"/>
<path fill-rule="evenodd" clip-rule="evenodd" d="M123.152 128.274C121.732 127.695 120.465 126.728 119.538 125.493C119.216 125.063 119.133 124.61 119.2 124.195C119.276 123.729 119.552 123.306 119.928 123.023C120.305 122.739 120.777 122.598 121.233 122.67C121.63 122.732 122.024 122.949 122.337 123.399L122.402 123.489C122.953 124.235 123.67 124.846 124.488 125.241C125.276 125.621 126.158 125.798 127.07 125.695C128.808 125.499 130.005 124.559 131.278 123.282C131.436 123.121 131.594 122.955 131.752 122.786C131.852 122.633 131.991 122.534 132.146 122.483C132.317 122.425 132.511 122.429 132.689 122.491C132.86 122.55 133.013 122.664 133.116 122.815C133.213 122.958 133.269 123.135 133.251 123.339C133.134 124.661 132.443 125.842 131.461 126.769C130.37 127.799 128.924 128.511 127.563 128.761C126.064 129.036 124.536 128.839 123.152 128.274V128.274ZM128.271 107.866C129.866 108.836 132.297 111.098 130.581 113.503C128.56 115.624 125.652 113.193 124.219 112.093C122.89 111.241 121.396 113.433 122.629 114.428C132.987 122.099 137.19 108.12 129.078 106.726C128.184 106.572 127.853 107.566 128.271 107.866ZM109.711 98.9429C109.887 96.7541 113.219 96.257 113.551 98.423C113.847 100.363 113.498 102.145 112.624 103.892C111.79 105.561 109.692 104.783 109.533 103.263C109.32 101.226 109.601 100.304 109.711 98.9429ZM135.076 97.9739C135.541 97.3652 136.212 96.9497 137.015 97.1845C139.526 97.9185 138.786 101.485 137.904 103.22C137.425 104.163 135.876 104.402 135.176 103.572C134.036 102.219 133.489 99.5157 134.94 98.1825C134.979 98.1136 135.023 98.044 135.076 97.9739ZM112.589 89.3654L112.986 89.2959C114.213 89.0836 115.738 88.8796 116.606 89.8665C117.067 90.3898 117.225 91.3624 116.606 91.8633C115.518 92.7446 114.314 92.4031 113.01 92.4777C111.935 92.5394 110.902 92.7174 109.867 93.0135C107.595 93.6629 105.744 94.8486 103.804 96.1505C103.55 96.3213 103.29 95.9956 103.411 95.7574C104.531 93.563 106.701 91.7604 108.875 90.6616C110.036 90.0751 111.305 89.5885 112.589 89.3654ZM132.787 88.3823L133.091 88.4445C136.395 89.1353 140.687 90.5153 142.251 93.7615C142.311 94.2205 142.248 94.3189 142.197 94.3832L142.18 94.4046C142.137 94.4595 142.104 94.5351 141.905 94.5976C141.85 94.5844 141.794 94.5705 141.737 94.5557C141.02 94.3677 140.453 94.1087 139.904 93.84L139.308 93.5465C138.617 93.2076 137.92 92.881 137.181 92.6399C135.605 92.1255 133.983 91.7631 132.337 91.5696C131.98 91.5277 131.636 91.4072 131.365 91.2006C131.108 91.0046 130.911 90.7332 130.821 90.3724C130.705 89.9056 130.739 89.5521 130.989 89.1309C131.177 88.8146 131.447 88.5953 131.756 88.4694C132.071 88.3411 132.43 88.3108 132.787 88.3823Z" fill="black"/>
<path fill-rule="evenodd" clip-rule="evenodd" d="M128.851 138.659C128.851 138.659 119.473 140.038 115.275 138.089C111.09 136.147 107.019 134.268 103.222 131.695C99.3327 129.059 96.0327 125.929 93.677 121.923C91.4862 118.195 89.6651 114.239 87.8313 110.314C87.7241 110.085 86.6714 107.804 86.2996 107.039C85.727 105.854 84.0538 106.226 84.0538 108.067C84.0538 109.907 83.9714 123.846 87.1869 129.329C90.0876 134.281 95.0038 137.742 99.8883 140.762C105.293 144.101 112.471 147.711 118.919 148.665C124.755 149.527 131.414 147.105 135.639 143.113C140.057 138.938 141.307 133.265 143.587 127.833C144.096 126.619 142.291 125.886 141.762 127.08C140.764 129.329 128.851 138.659 128.851 138.659Z" fill="black"/>
<path fill-rule="evenodd" clip-rule="evenodd" d="M146.075 104.71C145.478 106.336 144.568 108.03 143.456 109.399C138.958 113.21 134.586 111.1 132.367 105.934C131.523 102.284 133.763 98.3521 136.135 95.6669C139.562 92.231 145.155 94.0342 146.73 98.1188C146.826 98.648 146.884 99.176 146.912 99.7022C146.879 101.412 146.673 102.874 146.075 104.498M102.833 101.429C108.759 94.3773 119.847 94.0002 119.564 104.854C118.291 118.593 96.8531 115.221 102.833 101.429ZM147.939 95.5465C147.731 95.1946 147.501 94.8541 147.249 94.5284C147.156 94.473 147.103 93.9818 146.761 93.9455C142.192 88.9029 134.165 91.7639 131.265 96.7886C130.735 97.4239 130.303 98.1676 129.985 98.9534C127.127 98.4291 123.796 98.5309 121.138 99.6107C118.503 92.7266 110.524 92.112 105.266 95.0534C101.996 96.6624 99.8755 100.032 96.6951 101.883C89.2186 102.421 81.1944 100.745 73.8529 102.622C68.0629 103.826 72.903 106.759 73.874 104.801C80.7958 102.756 88.9961 104.484 96.1828 104.024C96.93 105.288 98.3631 106.323 99.7912 106.279C101.334 119.957 121.274 117.689 121.962 105.53C122.742 104.296 123.712 103.114 125.101 102.346C125.633 102.235 126.147 102.092 126.616 101.871C127.418 101.758 128.655 102.098 129.393 102.766C131.922 117.945 146.49 116.177 149.093 102.88C149.145 102.827 149.29 102.629 149.401 102.311C150.292 101.132 152.473 100.694 152.125 98.704C151.814 96.7137 149.302 96.7374 147.939 95.5465Z" fill="black"/>
</g>
<defs>
<clipPath id="clip0_2017_16742">
<rect width="200" height="267" fill="white"/>
</clipPath>
</defs>
</svg>
