<svg width="200" height="267" viewBox="0 0 200 267" fill="none" xmlns="http://www.w3.org/2000/svg">
<g clip-path="url(#clip0_2016_14100)">
<rect width="200" height="267" fill="white"/>
<path fill-rule="evenodd" clip-rule="evenodd" d="M161.079 176.597C159.237 169.454 157.544 166.425 154.272 163.942C151.213 161.62 146.746 159.669 140.229 158.244C133.441 157.057 133.249 153.528 131.547 147.857C131.05 146.152 128.59 145.698 127.528 146.927C127.378 146.766 127.222 146.618 127.06 146.484C127.205 145.671 126.021 143.34 126.061 142.562C126.474 134.444 123.819 130.367 117.192 128.852C115.751 128.522 105.963 128.328 104.557 128.716C98.4147 130.415 92.3676 135.808 93.293 142.305C91.3648 144.826 89.4776 146.364 86.5027 147.176C81.8701 147.765 84.1973 213.41 92.2432 252.739C95.6953 269.613 178.24 240.892 174.51 232.441C175.039 230.892 174.075 229.189 174.51 227.59C174.825 226.432 175.631 225.953 176.037 224.807C176.608 223.194 175.987 221.029 175.344 219.383C175.08 218.563 175.829 217.68 176.037 216.843C177.023 212.894 174.764 213.242 173.136 210.602C173.16 210.594 173.584 208.71 173.582 208.719C173.831 207.374 173.206 205.65 172.662 204.527C172.293 203.768 171.504 203.293 170.721 203.38C171.51 200.7 172.508 198.47 173.582 195.887C175.48 191.336 177.286 186.574 180.012 182.455C181.128 180.768 180.226 179.216 178.42 179.101C172.572 178.729 166.789 177.887 161.079 176.597Z" fill="#FDC6A0"/>
<path fill-rule="evenodd" clip-rule="evenodd" d="M151.95 177.149L138.603 199.744C138.603 199.744 141.769 200.061 143.051 200.676C144.332 201.292 150.216 208.774 150.216 208.774L151.151 212.894L148.935 216.216L149.799 218.301C149.799 218.301 150.416 216.888 151.95 215.791C153.485 214.695 156.869 212.894 156.869 212.894C156.869 212.894 155.745 212.292 155.745 211.586C155.745 210.879 154.754 207.865 156.869 206.726C158.984 205.587 169.915 202.923 169.915 202.923L180.993 179.549L151.95 177.149Z" fill="#EC7495"/>
<path fill-rule="evenodd" clip-rule="evenodd" d="M92.4066 147.33L134.79 154.77L154.273 163.942L157.453 166.393L138.603 199.744L109.496 205.056L102.081 224.323L103.594 246.04L150.945 240.393L171.37 237.966L176.171 257.354L175.304 265.33L174.042 269.375L123.408 283.049C123.408 283.049 97.6239 280.549 93.0533 280.549C88.4827 280.549 54.9717 283.878 54.9717 283.878L47.2182 283.049C47.2182 283.049 30.0636 264.964 27.4029 258.527C24.7423 252.091 18.9888 212.965 18.9888 212.965L19.6223 206.953L34.4435 168.801C34.4435 168.801 36.4227 167.003 38.9179 163.942C41.4131 160.881 92.4066 147.33 92.4066 147.33Z" fill="#9DDADB"/>
<path fill-rule="evenodd" clip-rule="evenodd" d="M169.116 202.441C165.286 202.636 161.451 203.547 157.986 205.197C156.569 205.873 155.284 206.85 154.908 208.456C154.718 209.276 154.765 210.124 154.866 210.952C154.942 211.58 154.961 212.381 155.506 212.806C155.599 212.877 155.698 212.932 155.802 212.973C154.524 213.55 153.307 214.243 152.225 214.957C151.236 215.61 150.22 216.616 149.764 217.751C149.726 217.622 149.688 217.502 149.65 217.388C148.872 215.088 147.675 213.205 145.788 211.939C145.574 211.158 143.274 207.797 141.139 207.924C138.8 208.061 136.919 208.232 134.804 209.308C134.033 209.291 133.264 209.301 132.503 209.335C132.372 209.339 132.379 209.517 132.503 209.532C133.12 209.61 133.737 209.697 134.354 209.798C135.82 210.033 137.282 210.331 138.712 210.701C140.428 211.145 142.203 211.59 143.806 212.366C146.916 213.873 148.841 217.813 148.446 221.241C148.38 221.803 148.163 223.502 147.383 223.327C146.724 223.179 146.462 221.803 146.232 221.293C145.615 219.941 144.503 219.057 143.17 218.459C141.605 217.755 139.929 217.28 138.307 216.726C137.388 216.411 136.469 216.096 135.548 215.784C134.605 215.46 133.71 215.014 132.706 215.24C132.1 215.378 132.03 216.101 132.37 216.515C132.888 217.147 133.657 217.333 134.403 217.593C135.387 217.935 136.37 218.278 137.352 218.62C138.871 219.148 140.462 219.594 141.943 220.241L141.896 220.347C141.776 220.313 141.634 220.433 141.658 220.581C141.879 221.949 142.188 223.53 141.845 224.899C141.575 225.985 140.622 227.188 139.384 226.869C139.579 226.691 139.651 226.385 139.52 226.102C139.029 225.053 132.607 220.915 132.034 222.452C132.015 222.507 132.074 222.547 132.121 222.539C132.609 222.437 133.427 223.27 133.817 223.534C134.381 223.914 134.954 224.286 135.512 224.677C136.122 225.104 136.718 225.552 137.299 226.015C137.755 226.379 138.1 226.757 138.624 226.941C138.349 227.072 138.131 227.315 138.039 227.625C137.802 228.435 137.346 229.122 136.553 229.479C135.723 229.851 134.787 229.616 133.913 229.708C132.721 229.828 131.682 230.394 130.813 231.204C128.99 232.907 128.075 235.909 125.525 236.714C124.002 237.194 122.312 236.891 120.77 236.673C119.048 236.43 117.37 236.238 115.636 236.492C113.975 236.735 112.405 237.31 110.889 238.011C109.467 238.669 107.895 239.413 106.634 240.393C106.374 239.592 106.112 238.8 105.913 237.982C105.444 236.048 105.191 234.078 105.129 232.091C105.072 230.2 105.178 228.3 105.34 226.417C105.421 225.476 105.548 224.54 105.628 223.599C105.649 223.363 105.691 223.109 105.723 222.856C107.975 221.526 110.341 220.507 112.726 219.459C112.733 219.457 112.739 219.453 112.746 219.451C112.82 219.417 112.891 219.385 112.965 219.353C112.963 219.349 112.961 219.345 112.957 219.341C113.229 219.174 113.42 218.952 113.534 218.702C116.971 216.422 119.844 213.309 121.986 209.678C122.884 208.156 123.748 206.577 124.923 205.244C126.174 203.821 127.659 202.976 129.497 202.536C131.646 202.021 133.86 201.712 136.061 201.536C137.263 201.442 138.607 201.293 139.917 201.3C140.829 201.306 141.723 201.384 142.543 201.61C143.758 201.944 144.467 202.868 145.23 203.802C145.959 204.698 146.684 205.597 147.364 206.531C148.008 207.416 148.617 208.331 149.145 209.291C149.462 209.866 149.755 210.458 150.003 211.068C150.089 211.284 150.203 211.529 150.256 211.753C150.309 211.979 150.212 212.218 150.465 212.218C149.42 212.233 148.725 214.842 149.764 214.78C151.225 214.695 151.96 212.942 151.674 211.387C151.163 208.613 148.404 205.262 147.858 204.552C146.652 202.984 145.408 200.938 143.477 200.209C143.449 200.199 143.42 200.188 143.392 200.18C143.954 199.647 144.398 199.009 144.822 198.36C145.26 197.692 145.781 196.927 145.925 196.134C146.016 195.629 145.389 195.342 145.091 195.783C144.658 196.428 144.448 197.244 144.125 197.952C143.796 198.671 143.394 199.349 143.077 200.074C142.315 199.839 141.491 199.732 140.652 199.696C141.71 198.263 143.519 195.498 143.736 195.143C144.738 193.499 145.691 191.804 146.601 190.107C147.586 188.268 148.429 186.353 149.371 184.493C149.905 183.439 150.444 182.375 151.038 181.352C151.243 181.002 151.463 180.651 151.712 180.332C151.76 180.268 151.822 180.216 151.879 180.156C151.944 180.12 152.012 180.08 152.05 180.059C152.392 179.863 152.513 179.406 152.753 179.116C153.138 178.65 153.59 178.595 154.169 178.588C155.402 178.575 156.641 178.624 157.872 178.658C159.683 178.708 161.491 178.78 163.3 178.875C163.847 178.905 164.392 178.935 164.939 178.968C167.57 179.125 170.198 179.33 172.82 179.582C175.139 179.803 177.459 180.165 179.781 180.338C176.637 187.809 173.151 195.145 169.205 202.226C169.165 202.297 169.135 202.369 169.116 202.441ZM151.674 221.689C151.167 221.921 150.675 222.211 150.216 222.541C150.292 222.027 150.311 221.486 150.29 220.943C150.668 221.348 151.152 221.581 151.674 221.689ZM173.318 208.837C173.282 208.841 173.248 208.86 173.232 208.896C172.53 210.343 172.824 211.96 173.969 213.095C174.569 213.687 175.877 214.355 175.834 215.327C175.798 216.113 174.943 216.773 174.577 217.422C174.237 218.026 174.11 218.69 174.383 219.345C174.732 220.184 175.705 220.518 176.039 221.342C176.462 222.388 175.775 223.65 175.294 224.561C174.846 225.404 174.267 226.247 173.882 227.139C171.307 228.473 165.463 230.895 164.76 231.031C163.902 231.197 163.042 231.356 162.18 231.504C160.526 231.791 158.867 232.058 157.205 232.292C156.258 232.425 155.31 232.556 154.361 232.66C153.533 232.749 152.599 232.869 151.932 232.246C150.586 230.986 151.34 228.875 152.191 227.602C152.208 227.577 152.208 227.554 152.202 227.533C153.005 227.344 153.805 227.125 154.604 226.97C156.14 226.674 157.686 226.425 159.235 226.203C162.417 225.749 165.62 225.449 168.818 225.147C169.61 225.07 169.619 223.824 168.818 223.897C164.223 224.318 159.605 224.717 155.071 225.603C153.934 225.823 152.806 226.072 151.684 226.353C151.154 226.484 150.586 226.689 150.03 226.696C149.996 226.696 149.962 226.696 149.929 226.693C148.841 226.66 148.682 225.728 149.28 224.952C149.354 224.857 149.43 224.762 149.508 224.671C150.565 223.411 151.881 222.57 153.237 221.699C154.756 221.492 156.271 221.031 157.758 220.693C161.43 219.856 165.102 219.019 168.776 218.184C169.496 218.02 169.19 216.912 168.47 217.075C165.681 217.707 162.892 218.339 160.103 218.971L156.022 219.897C155.206 220.08 154.188 220.45 153.229 220.584C152.755 220.649 152.297 220.657 151.883 220.56C150.546 220.243 150.478 218.571 151.055 217.578C151.701 216.462 152.922 215.765 154.006 215.133C155.884 214.036 157.883 213.247 159.835 212.339C160.182 212.262 160.528 212.186 160.875 212.11C162.89 211.666 165.193 211.449 167.09 210.635C167.658 210.394 167.348 209.498 166.786 209.511C165.313 209.543 163.773 210.067 162.334 210.377C160.777 210.715 159.218 211.051 157.661 211.387C157.505 211.421 156.579 211.717 156.44 211.652C156.351 211.609 156.32 211.301 156.29 211.098C156.195 210.43 156.125 209.729 156.229 209.058C156.457 207.556 157.71 206.85 158.977 206.273C161.8 204.99 164.895 204.187 167.975 203.865C168.685 203.792 169.395 203.745 170.109 203.722C170.948 203.696 171.639 203.548 172.063 204.375C172.731 205.677 173.098 207.351 173.318 208.837ZM169.398 256.04C168.783 253.913 168.951 251.641 168.529 249.47C168.312 248.351 168.015 247.24 167.691 246.147C167.43 245.264 166.993 244.324 166.944 243.403C166.941 243.341 167.013 243.306 167.063 243.334C167.931 243.831 168.597 244.906 169.092 245.749C169.684 246.758 170.137 247.815 170.502 248.926C171.229 251.14 171.826 253.81 170.888 256.04C170.609 256.705 169.629 256.837 169.398 256.04ZM145.397 272.149C144.48 271.509 143.812 270.615 143.035 269.825C142.271 269.049 143.466 267.853 144.23 268.63C144.893 269.303 145.469 270.144 146.249 270.689C146.625 270.951 146.799 271.424 146.553 271.845C146.335 272.217 145.771 272.41 145.397 272.149ZM140.286 247.559C141.959 246.835 143.604 246.047 145.355 245.526C146.401 245.214 146.844 246.846 145.804 247.156C144.192 247.636 142.679 248.352 141.139 249.019C140.15 249.446 139.29 247.989 140.286 247.559ZM122.617 247.052C122.208 246.043 123.844 245.607 124.247 246.603C124.711 247.749 125.243 248.866 125.707 250.011C126.116 251.021 124.481 251.457 124.078 250.461C123.613 249.315 123.081 248.199 122.617 247.052ZM105.178 267.219C104.906 267.583 104.451 267.78 104.022 267.523C103.662 267.307 103.443 266.734 103.719 266.366C104.524 265.292 105.34 264.231 106.285 263.273C107.05 262.497 108.245 263.693 107.48 264.469C106.637 265.324 105.898 266.26 105.178 267.219ZM102.685 154.064C103.46 154.594 104.14 155.238 104.803 155.901C105.573 156.671 104.378 157.867 103.607 157.096C103.049 156.538 102.486 155.971 101.832 155.524C101.454 155.266 101.284 154.786 101.528 154.367C101.747 153.993 102.308 153.807 102.685 154.064ZM128.056 181.273C127.617 182.151 127.223 183.013 127.198 184.011C127.171 185.099 125.481 185.1 125.508 184.011C125.54 182.704 126.022 181.571 126.597 180.419C127.083 179.444 128.54 180.302 128.056 181.273ZM137.365 159.421C138.274 158.815 139.119 160.28 138.218 160.881C137.488 161.367 136.758 161.855 136.028 162.342C135.119 162.947 134.274 161.482 135.174 160.881C135.905 160.395 136.635 159.908 137.365 159.421ZM96.9884 197.627C96.8334 198.702 95.2049 198.242 95.3585 197.178C95.5962 195.533 95.8863 193.91 96.3322 192.308C96.6242 191.26 98.2541 191.708 97.962 192.758C97.516 194.36 97.2259 195.983 96.9884 197.627ZM91.0626 216.995C89.9748 216.972 89.9746 215.281 91.0626 215.304C92.0471 215.325 93.0149 215.584 93.9646 215.822C95.0209 216.086 94.5705 217.716 93.5152 217.452C92.7124 217.251 91.895 217.013 91.0626 216.995ZM88.8751 256.01C88.5014 256.192 88.1179 256.356 87.7402 256.529C86.9837 256.875 86.2275 257.222 85.4716 257.569C83.8968 258.292 82.3229 259.018 80.7504 259.746C77.6025 261.203 74.4303 262.61 71.2748 264.052C68.057 265.522 64.8477 267.012 61.6423 268.51C60.1322 269.215 58.6106 269.895 57.092 270.581C55.7936 271.169 54.1886 272.195 52.7632 272.292C52.6898 272.297 52.6653 272.204 52.7072 272.156C53.2457 271.544 54.1047 271.187 54.8125 270.789C55.5354 270.382 56.2719 269.999 57.005 269.611C58.5333 268.801 60.0635 267.997 61.6066 267.216C64.6932 265.653 67.7858 264.102 70.8789 262.553C74.0336 260.972 77.1842 259.382 80.3665 257.857C81.8649 257.14 83.3646 256.424 84.8653 255.711C85.6782 255.325 86.4916 254.939 87.305 254.554C87.6563 254.388 88.0041 254.208 88.3632 254.059C88.8405 253.862 89.2032 253.902 89.6955 253.78C90.4983 253.582 90.8458 254.603 90.2296 255.048C89.7221 255.414 89.4551 255.727 88.8751 256.01ZM77.592 273.348C77.4185 272.926 77.7817 272.413 78.1822 272.308C78.662 272.181 79.0468 272.473 79.2219 272.898C79.6852 274.026 80.3452 275.06 81.1947 275.934C81.954 276.715 80.7595 277.911 79.9996 277.13C78.935 276.034 78.1702 274.754 77.592 273.348ZM69.291 246.208C68.5206 245.437 69.7159 244.242 70.4862 245.013L72.6766 247.204C73.4471 247.975 72.2515 249.17 71.4815 248.399L69.291 246.208ZM46.8185 242.636C45.2437 243.098 43.407 243.522 42.3333 244.866C42.2809 244.932 42.1928 244.848 42.2243 244.782C43.5988 241.932 47.5406 240.932 50.2698 239.933C52.2001 239.227 54.1808 238.641 56.1781 238.117C55.9784 235.838 56.529 233.395 56.7204 231.127C56.9247 228.705 57.091 226.277 57.1763 223.848C57.2636 221.37 57.2847 218.875 57.2032 216.396C57.122 213.927 56.8015 211.487 56.6613 209.026C56.6477 208.788 56.979 208.776 57.0504 208.973C57.8798 211.257 58.2341 213.787 58.5041 216.196C58.7822 218.677 58.8745 221.151 58.839 223.646C58.8022 226.212 58.6531 228.771 58.4484 231.329C58.3514 232.541 58.2388 233.752 58.1325 234.963C58.0514 235.888 58.0138 236.805 57.8253 237.7C59.03 237.404 60.2374 237.124 61.441 236.852C65.2789 235.986 69.1328 235.182 72.9546 234.245C74.8307 233.786 76.6799 233.235 78.5475 232.746C80.3061 232.285 82.1623 231.727 83.9678 231.521C84.6122 231.448 84.6942 232.33 84.2676 232.629C82.8001 233.66 80.8512 234.377 79.1562 234.954C77.4551 235.533 75.6868 235.95 73.9432 236.379C70.307 237.273 66.6365 238.005 62.9714 238.767C59.3114 239.528 55.6444 240.283 52.0256 241.222C50.2829 241.674 48.546 242.128 46.8185 242.636ZM38.1889 197.402C37.2479 197.954 36.3984 196.493 37.336 195.942C38.5628 195.221 39.8703 194.68 41.1884 194.152C42.2 193.747 42.6352 195.383 41.6378 195.783C40.4532 196.257 39.2913 196.755 38.1889 197.402ZM34.7815 260.218C33.838 260.766 32.9879 259.304 33.9286 258.758C35.2499 257.992 36.6969 257.481 38.0661 256.811C39.0403 256.333 39.8959 257.792 38.919 258.271C37.55 258.941 36.1028 259.452 34.7815 260.218ZM33.249 224.561C34.1613 225.428 35.3788 225.836 36.5268 226.291C37.5278 226.688 37.0888 228.323 36.0775 227.922C34.6472 227.354 33.1903 226.836 32.0539 225.756C31.2633 225.005 32.4605 223.811 33.249 224.561ZM43.3415 176.135C44.3444 176.529 43.9051 178.163 42.8921 177.766C41.7686 177.325 40.6083 176.989 39.4848 176.548C38.4821 176.155 38.9211 174.52 39.9341 174.918C41.0577 175.359 42.2179 175.694 43.3415 176.135ZM61.1456 156.901C62.2113 156.721 62.6651 158.35 61.595 158.531C60.2674 158.755 58.9601 159.018 57.7009 159.505C56.6841 159.899 56.2478 158.263 57.2515 157.875C58.5109 157.387 59.8182 157.125 61.1456 156.901ZM67.0284 203.732C66.0513 203.252 66.9086 201.794 67.8813 202.272C68.9063 202.776 69.9684 203.166 71.0868 203.404C72.1518 203.631 71.6982 205.261 70.6375 205.035C69.3787 204.766 68.181 204.299 67.0284 203.732ZM72.5845 177.352C73.6366 177.064 74.0815 178.696 73.0339 178.983C71.1906 179.488 69.2927 179.751 67.4359 180.2C66.3777 180.457 65.93 178.826 66.9865 178.57C68.8434 178.12 70.7414 177.858 72.5845 177.352ZM96.1548 169.074C97.2246 169.272 96.7687 170.902 95.7056 170.705C94.5739 170.495 93.4269 170.492 92.2795 170.491C91.1902 170.491 91.1921 168.8 92.2795 168.801C93.583 168.801 94.8699 168.837 96.1548 169.074ZM173.027 177.908C170.265 177.643 167.5 177.432 164.73 177.274C164.601 177.267 164.475 177.259 164.345 177.252C164.331 177.223 164.312 177.195 164.293 177.166C163.389 175.838 162.723 174.511 162.146 173.01C161.595 171.582 161.06 170.109 160.211 168.82C159.242 167.351 157.935 166.201 156.501 165.205C155.632 165.79 154.825 166.475 154.087 167.201C153.31 167.964 152.115 166.769 152.892 166.005C153.548 165.36 154.248 164.764 154.988 164.226C154.134 163.706 153.262 163.218 152.411 162.733C149.223 160.913 145.959 159.23 142.627 157.692C141.079 156.975 139.511 156.339 137.933 155.695C137.083 155.348 136.245 154.902 135.396 154.501C135.457 153.9 135.277 153.228 134.817 152.833C134.477 152.543 134.213 152.436 133.807 152.231C133.716 152.199 133.661 152.18 133.636 152.169C133.655 152.173 133.71 152.19 133.8 152.22C134.016 152.319 134.033 152.29 133.851 152.133C133.841 151.791 133.167 151.068 133.013 150.715C132.476 149.504 132.309 148.223 131.517 147.12C130.425 145.6 128.591 145.026 126.881 145.541C126.704 143.713 126.658 141.805 125.969 140.173C125.95 140.129 125.889 140.11 125.861 140.158C125.143 141.382 125.082 142.745 125.027 144.157C124.974 145.482 125.024 146.837 125.198 148.154C125.088 148.238 124.976 148.319 124.86 148.397C124.315 148.756 123.727 149.033 123.11 149.238C121.936 149.627 120.704 149.796 119.472 149.855C116.293 150.007 113.016 149.686 109.889 149.141C106.727 148.589 101.878 147.76 99.0639 146.177C97.2067 145.134 95.4935 143.859 93.7567 142.625C94.3865 140.596 94.547 138.415 93.9132 136.7C93.8372 136.495 93.5161 136.457 93.4548 136.7C93.0576 138.336 92.9414 139.981 92.4132 141.597C92.4048 141.621 92.3963 141.646 92.3879 141.669C92.2231 141.558 92.0583 141.447 91.8935 141.338C91.5132 141.086 90.9956 141.274 90.7675 141.633C87.1187 147.384 81.3407 147.714 75.2731 148.741C68.6327 149.865 61.959 151.079 55.5745 153.279C49.4689 155.384 43.6336 158.449 39.0111 163.026C37.9647 164.063 36.9861 165.167 36.0625 166.32C36.9561 166.433 37.8424 166.608 38.7172 166.883C39.7531 167.209 39.3079 168.841 38.2679 168.514C37.1435 168.16 36.0067 167.985 34.8582 167.898C31.7173 172.197 29.2683 177.071 27.1506 181.868C23.0885 191.066 20.4445 200.862 19.2278 210.835C19.8958 210.434 20.5759 210.053 21.2729 209.698C22.2413 209.205 23.0955 210.665 22.126 211.158C21.0494 211.706 20.0036 212.31 18.9903 212.965C18.5477 217.33 18.3762 221.724 18.4801 226.11C18.7273 236.568 20.1386 247.332 23.3308 257.31C24.8963 262.207 26.971 267.064 30.0618 271.202C31.4604 273.076 33.0491 274.767 34.921 276.177C35.8273 276.862 36.7865 277.473 37.7984 277.988C39.102 278.656 40.8006 278.876 41.9245 279.821C42.2942 280.131 42.5794 280.541 42.7949 281.004C42.6703 281.883 42.6555 282.765 42.8963 283.644C42.9724 283.919 43.1794 284.143 43.4351 284.25C43.4393 284.327 43.4393 284.401 43.4393 284.472C43.4393 284.506 43.49 284.515 43.4963 284.481C43.5069 284.415 43.5175 284.35 43.528 284.282C43.6104 284.31 43.697 284.323 43.7858 284.323C46.9949 284.335 50.2081 284.256 53.4215 284.147C53.173 283.386 52.9039 282.631 52.6455 281.869C52.2946 280.835 53.9275 280.395 54.2752 281.42C54.5775 282.31 54.8936 283.193 55.1748 284.086C58.6178 283.958 62.0598 283.804 65.4956 283.691C72.8034 283.447 80.109 283.367 87.4187 283.213C98.7703 282.972 110.204 282.479 121.574 282.961C121.967 282.127 122.407 281.311 122.824 280.488C123.316 279.516 124.774 280.372 124.284 281.341C123.994 281.913 123.693 282.478 123.408 283.049C125.71 283.169 128.011 283.327 130.306 283.543C134.223 283.91 138.102 284.563 142.015 284.969C145.993 285.383 149.884 285.31 153.831 284.652C154.541 284.534 154.959 284.105 155.132 283.572C155.138 283.57 155.143 283.566 155.147 283.559C155.35 283.323 155.54 283.126 155.736 282.955C155.971 282.803 156.225 282.674 156.522 282.56C157.078 282.348 157.657 282.219 158.244 282.133C158.891 282.036 159.546 282.027 160.192 281.947C160.737 281.877 161.27 281.773 161.802 281.647C162.759 281.419 163.667 281.121 164.572 280.725C165.36 280.381 166.071 279.886 166.744 279.347C168.134 278.331 169.338 277.033 170.39 275.684C171.003 274.896 171.579 274.078 172.103 273.227C173.016 271.751 173.794 270.219 174.579 268.674C174.865 268.216 175.125 267.747 175.363 267.269C173.827 266.816 172.276 266.447 170.648 266.421C169.56 266.403 169.56 264.712 170.648 264.73C172.515 264.76 174.282 265.196 176.037 265.716C176.122 265.489 176.204 265.26 176.28 265.028C176.489 264.544 176.663 264.047 176.806 263.544C176.89 263.316 176.975 263.088 177.06 262.86C177.25 262.069 177.44 261.277 177.632 260.484C178.015 259.216 178.317 257.929 178.539 256.625C178.725 255.767 178.868 254.902 178.965 254.027C179.261 251.908 179.502 249.792 179.519 247.649C179.494 246.328 179.409 245.009 179.265 243.697C179.204 242.805 179.101 241.917 178.961 241.036C178.779 239.725 178.6 238.428 178.298 237.134C178.072 236.259 177.846 235.384 177.62 234.509C177.055 232.685 176.39 230.897 175.623 229.149C175.581 229.04 175.367 228.798 175.239 228.796C175.141 228.794 175.006 228.883 175.05 229.002C175.055 229.012 175.059 229.025 175.063 229.035C175.019 228.936 174.977 228.834 174.932 228.735C174.894 228.642 174.746 228.456 174.632 228.458C174.626 228.458 174.619 228.458 174.611 228.46C174.641 228.439 174.668 228.412 174.696 228.38C175.454 227.482 175.946 226.3 176.489 225.26C176.939 224.402 177.364 223.498 177.486 222.528C177.594 221.676 177.448 220.837 176.914 220.148C176.305 219.364 175.16 218.996 175.796 217.863C176.519 216.574 177.582 215.456 176.523 213.991C175.984 213.245 175.131 212.835 174.497 212.186C173.768 211.436 173.421 210.432 173.441 209.407C173.485 209.432 173.544 209.42 173.565 209.356C174.178 207.505 173.734 205.472 173.107 203.669C172.765 202.691 172.04 202.422 171.197 202.374C174.848 195.241 178.264 187.993 181.308 180.579C181.41 180.336 181.509 180.093 181.608 179.85C181.756 179.486 181.444 179.002 181.082 178.922C178.45 178.345 175.708 178.161 173.027 177.908Z" fill="black"/>
<path fill-rule="evenodd" clip-rule="evenodd" d="M144.715 96.1526C143.268 78.4679 138.862 62.8047 118.158 62.1369C108.815 62.2206 99.2777 64.2104 90.6859 67.8922C69.8027 78.3891 63.1768 116.745 81.5754 132.185C81.466 132.247 81.4396 132.428 81.5689 132.515C85.37 135.079 89.5951 137.188 93.8267 138.96C105.098 143.738 118.368 145.813 129.863 140.63C147.406 133.147 147.67 112.324 144.715 96.1526V96.1526Z" fill="#FDC6A0"/>
<path fill-rule="evenodd" clip-rule="evenodd" d="M179.246 87.9098C179.967 87.2588 180.505 86.405 180.777 85.4476C181.026 84.5747 181.042 83.6215 180.779 82.7507C180.496 81.8166 179.887 81.0726 180.024 80.1004C180.039 80.0053 180.058 79.9059 180.087 79.8066C180.614 77.9763 181.911 76.6554 181.447 74.6264C181.316 74.0537 181.07 73.538 180.726 73.1322C180.764 72.6926 180.798 72.2487 180.825 71.8049C181.586 70.019 181.559 67.897 180.747 66.1386C180.648 65.2382 180.498 64.3463 180.288 63.4692C180.385 62.6936 180.25 61.8397 180.001 61.1613C179.564 59.9676 179.024 58.7912 178.438 57.6343C178.507 57.3179 178.476 56.9835 178.301 56.6862C177.985 56.1457 177.566 55.6706 177.139 55.2063C176.836 54.6646 176.531 54.1273 176.229 53.5971C176.089 53.3534 175.935 53.0831 175.764 52.7967C176.229 51.9331 176.477 51.0915 175.986 50.076C175.801 49.6945 175.294 49.4132 174.876 49.4381C174.42 49.4654 173.959 49.4859 173.496 49.5034C172.63 48.4556 171.649 47.5148 170.598 46.9734C169.534 46.0688 168.454 45.1811 167.404 44.2744C167.107 44.0166 166.808 43.7587 166.51 43.5009C166.508 43.4945 166.506 43.4861 166.504 43.4797C166.285 42.6787 166.038 41.8883 165.792 41.0936C165.638 40.6011 165.591 40.0854 165.113 39.817C164.113 39.257 162.576 39.1682 161.43 39.0731C161.316 38.9716 161.202 38.8723 161.088 38.7708C161.609 37.3802 161.516 35.9028 160.86 34.51C160.637 34.0366 159.861 33.8231 159.435 34.1359C158.453 34.8588 157.287 35.1145 156.134 35.0088C154.439 33.7027 147.602 27.7963 146.545 27.1728C146.532 27.1504 146.522 27.128 146.508 27.1058C145.914 26.1551 145.193 25.3917 144.382 24.7797C144.266 24.6586 144.15 24.5373 144.035 24.4159C144.137 23.6912 144.404 22.9914 144.836 22.406C144.882 22.3384 144.935 22.2728 144.988 22.2094C145.742 21.3091 144.821 20.1509 143.767 20.6222C143.691 20.656 143.615 20.6898 143.539 20.7258C142.729 21.088 141.832 21.4818 140.899 21.814C140.557 21.6857 140.208 21.5695 139.891 21.4414L136.489 20.0704C135.929 19.8446 135.337 19.6534 134.795 19.3881C134.607 18.1287 133.347 17.3027 132.04 17.3458C132.115 17.1041 132.228 16.8693 132.387 16.6467C132.433 16.5812 132.484 16.5178 132.536 16.4565C133.209 15.6724 132.311 14.2183 131.35 14.9157C131.282 14.9644 131.213 15.013 131.145 15.0616C130.878 15.2495 130.604 15.4257 130.328 15.5965C129.886 15.4029 129.387 15.3587 128.866 15.5635C127.711 16.0169 126.646 16.4778 125.629 17.1884C125.588 17.2173 125.545 17.2417 125.503 17.2689C124.999 16.6577 124.197 16.2489 123.476 16.2534C123.461 16.2534 123.45 16.2532 123.437 16.253C122.897 15.4289 121.908 14.95 120.953 15.0664C121.018 13.8839 119.837 12.8287 118.762 12.7004C117.506 12.5507 116.374 13.2818 115.997 14.5102C115.892 14.8521 115.787 15.1943 115.682 15.5365C114.707 15.043 113.677 14.6649 112.602 14.4761C110.154 14.0462 107.76 14.504 105.401 15.1854C105.165 15.2535 104.93 15.3234 104.694 15.3932C104.358 15.0024 104.042 14.6023 103.74 14.2289C103.22 13.5842 101.969 14.0999 102.054 14.9284C102.112 15.5001 101.881 15.9114 101.508 16.2037C101.098 16.2637 100.702 16.2819 100.105 16.2699C99.316 16.2538 98.957 16.2291 98.1318 15.9066C97.7473 15.7565 97.2685 15.3619 97.0444 15.0077C96.1853 13.6493 94.0031 13.2835 92.9637 14.5786C91.87 14.0987 90.4891 14.7606 89.8819 15.6939C89.5642 16.1819 88.9014 16.4548 88.067 16.6894C87.4406 16.8652 86.8001 16.9984 86.1567 17.1148C85.87 16.7249 85.2662 16.4635 84.8233 16.7904C84.5233 17.0126 84.2319 17.2406 83.9445 17.4744C81.7288 17.7804 79.5247 17.7914 77.412 16.9253C75.6234 16.1919 73.9811 18.1948 74.2763 19.8763C73.7583 20.1467 73.1962 20.3265 72.6846 20.6097C71.5682 21.2281 70.6516 22.2056 70.0929 23.3541C69.9928 23.5598 69.9023 23.7686 69.8161 23.9784C69.3989 24.3189 68.9863 24.6685 68.5836 25.0373C67.9132 24.6928 67.2449 24.3483 66.5745 24.0038C66.0728 23.746 65.2274 23.9256 65.1283 24.5935C64.9659 25.6925 64.5717 26.6034 64.0088 27.3664C62.1789 28.3301 60.4185 29.4123 58.734 30.6148C56.7966 31.2235 54.7369 31.5786 53.044 31.9781C52.4642 32.1154 52.148 32.8742 52.4747 33.3793C52.8205 33.914 53.1662 34.4487 53.5099 34.9835C52.5464 35.9261 51.642 36.911 50.7882 37.9297C48.4122 40.7618 46.4242 43.8665 44.6448 47.1551C43.9407 47.4404 43.2365 47.7236 42.5324 48.009C41.8535 48.2837 41.5478 49.0742 42.0981 49.6554C42.3595 49.9323 42.5935 50.2239 42.7938 50.5304C41.7966 52.1852 40.6223 53.6943 38.98 54.6834C38.4804 54.9835 38.1051 55.4548 37.9048 55.9896C37.7341 56.1037 37.5654 56.2263 37.3989 56.351C36.9351 56.7018 36.6547 57.4669 37.1986 57.9213C37.5802 58.2425 37.9386 58.623 38.2422 59.0436C38.3075 59.2824 38.375 59.5233 38.4424 59.7622C36.9161 61.1697 35.6469 62.8056 34.694 64.6401C34.4684 64.6042 34.2365 64.6274 34.0489 64.7669C32.3455 66.0287 32.2949 68.0386 32.98 69.8351C32.5668 72.5425 32.8325 75.3175 33.6294 77.9404C32.5816 78.9887 31.9512 80.502 31.694 81.9603C31.2408 84.5218 31.2091 88.4614 31.0911 91.0758C29.9484 92.1812 29.1346 93.612 28.6814 95.1506C28.2998 95.3409 27.9182 95.5311 27.5366 95.7213C27.1972 95.8904 26.9484 96.3363 26.9695 96.7125C27.0665 98.5322 27.8149 99.9694 28.8079 101.271C29.1599 102.275 29.6807 103.201 30.3637 104.089C30.836 104.697 31.2977 105.281 31.7046 105.938C31.7467 106.003 31.772 106.065 31.791 106.107C31.6308 106.28 31.498 106.568 31.382 106.773C30.408 108.493 30.3933 110.509 31.7762 112.008C31.2555 112.435 31.2387 113.297 31.6982 113.826C34.6898 117.252 37.1838 121.417 41.3349 123.237C41.3539 123.269 41.3708 123.3 41.3855 123.332C40.5443 125.361 40.4305 126.416 41.1178 128.512C41.122 128.531 41.1283 128.548 41.1346 128.567C41.5015 129.666 42.1761 131.427 43.3925 131.769C43.7762 131.877 44.1536 131.926 44.5268 131.923C45.4923 132.856 46.4558 133.79 47.4192 134.724C47.5036 135.187 47.5563 135.654 47.5731 136.125C47.6005 136.913 48.3405 137.552 49.1374 137.319C49.4178 137.237 50.9695 135.726 51.2541 135.734C51.3974 135.878 51.5366 136.022 51.6757 136.167C52.188 136.706 52.8985 137.556 52.9575 138.12C53.0714 139.183 53.7671 140.401 54.8908 140.616C55.3124 141.045 55.987 141.174 56.5035 140.614C56.5373 140.578 56.571 140.542 56.6068 140.511C56.6617 140.504 56.7144 140.498 56.7692 140.492C57.018 141.236 57.2667 141.98 57.5176 142.721C58.0088 144.184 59.8851 145.124 61.2175 144.271C61.4326 144.399 61.6434 144.537 61.8542 144.674C62.1747 144.879 62.4993 145.088 62.8324 145.285C62.8514 145.34 62.8704 145.395 62.8872 145.448C63.1023 146.105 63.9962 146.458 64.5464 146.08C64.7172 146.135 64.8921 146.179 65.0692 146.215C65.999 146.399 66.935 146.348 67.8331 146.037C68.4761 145.818 69.0896 145.397 69.7811 145.34C69.8243 145.336 69.8688 145.339 69.9127 145.338C70.4768 146.497 71.766 147.495 72.7819 147.834C74.1127 148.279 75.4746 148.12 76.6864 147.576C77.0134 148.231 77.424 148.852 77.9146 149.425C78.1866 149.742 78.6778 149.675 78.9582 149.425C79.4907 148.952 80.0199 148.477 80.5482 148C80.9306 147.853 81.3167 147.675 81.7193 147.511C82.9788 146.995 84.3594 146.781 85.5242 146.036C86.0772 145.682 86.5973 145.231 87.0257 144.708C87.8327 144.241 88.5742 143.659 89.2421 142.992C89.5752 142.994 89.923 142.916 90.2603 142.745C91.6707 142.026 92.4128 140.563 92.4782 139.067C93.6208 136.372 94.2955 133.498 94.481 130.556C94.54 129.59 94.5506 128.616 94.4768 127.65C94.4262 126.969 94.2554 126.515 93.9982 125.9C93.9118 125.699 93.8338 125.515 93.7726 125.312C93.7874 124.661 93.7958 124.011 93.8043 123.362C93.9792 122.814 94.2913 122.305 94.7256 121.876C95.3981 121.212 95.7059 119.834 95.0945 119.014C94.696 118.484 94.2997 117.953 93.9012 117.423C94.013 115.146 94.5569 111.524 93.351 111.144C93.3995 110.805 93.5028 110.471 93.5618 110.135C93.8443 108.521 93.6757 107.077 92.8197 105.665C92.6405 105.372 92.4887 105.112 92.3644 104.858C92.2864 104.393 92.2083 103.928 92.1303 103.463C92.0102 102.747 91.8921 102.024 91.7909 101.297C91.7382 100.371 91.6897 99.4453 91.637 98.5175C91.5885 97.6636 91.5337 96.8097 91.4768 95.9538C91.5 95.5712 91.5337 95.1887 91.5822 94.8061C91.871 92.5257 92.8008 91.6824 94.4114 90.0973C94.6644 90.0571 94.9153 90.0127 95.162 89.962C96.3109 89.7232 97.5126 89.3533 98.6953 89.4865C99.9792 89.6302 101.128 90.186 102.376 89.4759C102.743 89.2645 103.551 88.6812 103.62 88.2184C103.624 88.1888 103.631 88.1634 103.639 88.1444C103.726 88.1317 103.837 88.1211 103.907 88.119C104.898 88.0852 105.844 88.4762 106.844 88.3684C108.026 88.2416 109.085 87.7153 109.78 86.9355C110.672 87.1553 111.583 87.2546 112.508 87.132C113.284 87.0306 113.98 86.7769 114.667 86.4007C115.167 86.1302 115.009 86.052 115.553 86.2718C116.79 86.7748 117.91 87.4385 119.303 87.094C120.026 86.9164 120.65 86.5254 121.175 85.9992C121.3 85.8766 121.51 85.6927 121.652 85.5194C122.314 85.8555 123.979 86.6142 124.253 86.6818C125.029 86.8721 125.851 86.8425 126.606 86.5888C127.161 86.4029 127.839 85.8956 128.326 85.7921C128.957 85.6568 130.357 86.536 131.109 86.8382C132.429 87.3687 133.827 87.4998 135.163 86.9524C135.623 86.7643 136.517 86.014 136.86 86.0203C137.419 86.7114 138.979 90.4925 139.447 91.8726C141.343 97.4522 141.834 114.874 140.959 119.319C140.925 119.45 140.889 119.579 140.853 119.71C139.778 123.575 138.659 127.506 136.86 131.108C135.163 134.502 132.817 137.558 129.45 139.412C125.959 141.335 121.86 141.84 117.935 141.58C115.407 141.415 112.922 140.906 110.476 140.268C109.198 139.936 107.931 139.566 106.671 139.181C106.12 139.014 105.562 138.858 105.022 138.663C104.069 138.319 103.57 138.291 102.657 138.733C101.826 139.135 101.613 140.32 102.045 141.066C102.749 142.284 104.04 142.368 105.286 142.723C106.555 143.085 107.828 143.431 109.11 143.742C111.566 144.334 114.062 144.788 116.579 144.998C121.087 145.376 125.731 144.793 129.834 142.821C130.298 142.597 130.744 142.358 131.177 142.1C131.016 142.324 130.854 142.548 130.69 142.77C130.234 143.385 130.572 144.431 131.21 144.767C131.413 144.873 131.615 144.974 131.82 145.074C131.847 145.139 131.877 145.205 131.91 145.27C132.494 146.445 133.717 147.139 134.963 147.439C136.443 147.794 138.1 147.542 139.605 147.498C141.001 147.456 142.397 147.413 143.79 147.371C144.119 147.363 144.448 147.352 144.777 147.341C146.434 147.291 148.089 147.242 149.744 147.191C151.219 147.147 151.15 147.261 152.535 146.669C153.153 146.403 153.659 146.027 154.085 145.526C154.35 145.408 154.607 145.272 154.854 145.118C155.647 144.624 156.351 143.96 157 143.229C158.103 143.577 159.648 143.254 159.863 141.865C160.209 139.644 163.089 138.695 164.434 137.089C165.52 135.793 166.295 134.096 166.255 132.467C168.992 131.139 170.48 127.642 170.828 124.674C170.99 123.298 170.965 121.825 171.199 120.426C171.302 120.314 171.395 120.196 171.473 120.069C172.16 118.955 172.759 117.807 173.286 116.632C174.003 116.114 174.865 115.795 175.768 115.742C177.985 115.614 178.403 112.615 176.288 111.892C176.278 111.887 176.269 111.885 176.259 111.881C176.832 110.444 176.784 108.743 176.088 107.381C176.118 107.234 176.145 107.088 176.172 106.94C177.359 105.661 178.04 103.884 177.964 102.153C178.506 101.77 179.113 101.474 179.777 101.29C180.804 101.007 180.81 99.7517 180.052 99.1895C179.746 98.9634 179.493 98.6992 179.282 98.4076C179.807 96.8267 179.6 94.9985 178.527 93.7008C179.208 92.8258 179.889 91.9508 180.57 91.0758C181.021 90.4967 181.26 89.5139 180.57 88.9644C180.13 88.6115 179.689 88.2606 179.246 87.9098Z" fill="black"/>
<path fill-rule="evenodd" clip-rule="evenodd" d="M129.69 120.752C130.415 119.473 132.578 119.681 132.909 121.173C133.58 124.198 129.974 126.992 127.235 127.062C124.513 127.131 121.459 124.813 121.853 121.886C121.95 121.162 122.917 121.25 123.247 121.704L123.375 121.878C124.27 123.081 125.451 124.326 127.112 124.033C127.801 123.912 128.426 123.481 128.842 122.927C129.344 122.259 129.289 121.461 129.69 120.752ZM112.384 98.6195C112.753 98.5179 113.125 98.5572 113.452 98.6963C114.181 98.83 114.791 99.4387 115.005 100.134C115.022 100.194 115.041 100.253 115.062 100.312L115.094 100.4L115.007 100.177C115.047 100.396 115.226 100.627 115.29 100.847C115.369 101.118 115.388 101.425 115.361 101.723C115.593 101.726 115.825 101.734 116.057 101.754L116.281 101.774C117.532 101.89 118.906 102.103 119.648 103.185C120.064 103.793 119.673 104.887 118.908 105.004C117.73 105.185 116.715 104.532 115.54 104.402C114.43 104.278 113.269 104.349 112.173 104.55C109.911 104.963 107.833 105.881 105.628 106.456L105.328 106.532V106.532L105.329 106.531C104.951 106.622 104.522 106.097 104.896 105.789C106.662 104.338 108.923 103.162 111.15 102.446C110.826 101.929 110.725 101.249 110.947 100.695C110.981 100.58 111.024 100.468 111.069 100.357L111.163 100.128V100.128C111.172 100.02 111.193 99.913 111.223 99.8084L111.227 99.7765V99.7765L111.23 99.7784V99.7784C111.396 99.2392 111.829 98.7725 112.384 98.6195ZM134.914 98.703C135.397 98.2196 136.076 98.291 136.58 98.6715L136.647 98.7239V98.7239C137.122 98.935 137.515 99.3964 137.773 99.824C138.041 100.268 138.22 100.72 138.227 101.209C139.396 101.213 140.516 101.564 141.374 102.508C141.651 102.813 141.84 103.283 141.688 103.696L141.597 103.942V103.942C141.309 104.722 140.013 105.172 139.573 104.254L139.552 104.209C139.084 103.119 137.288 103.234 136.333 103.345C135.668 103.423 135.01 103.589 134.368 103.774C134.141 103.839 133.917 103.91 133.693 103.982L133.469 104.055C133.349 104.094 132.726 104.432 133.114 104.352C133.218 104.331 133.296 104.482 133.19 104.533C132.728 104.754 132.235 104.314 132.266 103.818C132.32 102.957 133.687 102.484 134.345 102.187L134.384 102.169C134.637 102.053 134.901 101.941 135.174 101.837C135.02 101.609 134.894 101.355 134.788 101.083C134.688 100.826 134.622 100.576 134.585 100.303C134.549 100.169 134.549 100.036 134.585 99.902L134.591 99.8637V99.8637C134.572 99.7754 134.563 99.6841 134.565 99.5921L134.561 99.5564H134.565C134.578 99.2345 134.705 98.912 134.914 98.703ZM127.197 107.877C129.053 108.45 132.114 110.013 131.147 112.424C129.797 114.639 126.216 113.012 124.481 112.296C122.922 111.779 122.11 113.965 123.618 114.624C136.074 119.553 136.028 106.543 127.649 106.734C126.726 106.755 126.697 107.686 127.197 107.877ZM110.717 90.9121L111.034 90.8197C112.678 90.3431 114.357 89.5201 115.818 90.8043C116.391 91.3085 116.509 92.3564 116.099 92.9854C115.164 94.4186 113.778 94.1996 112.269 94.3218C111.119 94.4148 109.987 94.7525 108.914 95.1746C108.037 95.5197 107.224 96.0056 106.457 96.5475C105.702 97.0803 105.187 97.9132 104.413 98.3928C104.13 98.5686 103.802 98.3877 103.701 98.1026C103.34 97.0913 103.949 95.8314 104.465 94.9698C105.095 93.9185 106.052 93.0587 107.08 92.4082C108.207 91.6957 109.452 91.2843 110.717 90.9121V90.9121ZM134.683 89.8239C137.463 89.8231 140.138 91.3699 141.693 93.6375C142.221 94.4079 141.834 95.5492 141.076 95.9928C140.225 96.4907 139.315 96.1322 138.754 95.4187L138.721 95.3755C137.829 94.1875 136.68 93.2518 135.317 92.6427C134.652 92.3453 133.917 92.1042 133.198 91.9818L132.965 91.942C132.64 91.8874 132.262 91.8352 131.967 91.8863C131.809 91.907 131.664 91.9592 131.531 92.0387C131.595 92.179 131.429 92.3481 131.276 92.264C130.585 91.8844 130.67 91.2072 131.241 90.6809C132.048 89.9364 133.64 89.8241 134.683 89.8239Z" fill="black"/>
<path fill-rule="evenodd" clip-rule="evenodd" d="M128.503 116.101C126.153 115.042 121.934 115.966 120.403 116.333C116.842 117.187 113.26 119.034 112.153 121.926C110.905 125.185 113.394 126.212 113.76 126.044C116.225 126.218 119.161 124.667 121.744 124.267C123.841 123.94 126.053 123.654 128.018 122.539C129.453 123.329 132.693 123.755 135.307 124.446C137.534 125.033 138.499 126.307 140.564 126.036C143.038 125.712 142.025 120.506 139.268 118.396C136.25 116.088 131.145 115.152 128.503 116.101ZM133.155 138.361C131.099 138.862 130.961 134.355 130.731 132.763C130.551 131.519 129.537 128.311 126.964 128.449C124.392 128.588 123.425 131.276 123.555 132.947C123.64 134.031 124.639 139.523 121.451 140.217C119.419 140.21 117.068 140.073 114.931 139.679C112.416 139.109 109.146 137.114 108.282 141.043C107.971 142.457 119.05 146.658 123.966 147.038C128.951 148.049 134.784 146.494 138.334 142.679C139.142 141.811 141.416 138.208 141.578 137.325C141.918 135.471 141.13 134.277 138.836 134.931C137.216 135.797 134.477 138.039 133.155 138.361Z" fill="black"/>
<path fill-rule="evenodd" clip-rule="evenodd" d="M147.178 109.153C144.613 111.805 140.331 112.566 136.919 111.144C128.156 107.481 132.445 96.0578 139.203 92.99C140.047 92.7795 141.175 92.2801 142.203 92.1668C142.296 92.1212 142.498 92.2533 142.743 92.1284C150.195 92.9607 151.892 104.533 147.178 109.153M118.915 109.832C116.038 113.649 110.69 114.827 106.32 113.052C97.6872 109.651 100.749 99.5216 106.656 95.5503C119.132 90.8603 124.285 102.794 118.915 109.832M100.201 101.374C100.193 101.371 100.185 101.369 100.177 101.365C100.222 101.345 100.268 101.325 100.313 101.304C100.299 101.343 100.283 101.381 100.268 101.42C100.246 101.404 100.226 101.386 100.201 101.374M153.117 97.2481C152.413 97.2496 151.395 97.3654 150.812 97.8543C149.374 93.0031 144.067 88.5134 139.451 91.7872C135.816 92.9566 133.119 95.5501 131.586 98.9981C128.822 97.3534 124.476 98.0557 122.079 100.231C120.509 95.0418 116.646 93.2248 112.048 92.9566C107.029 92.1343 102.027 97.0103 100.466 100.922C99.168 100.774 97.2287 100.361 96.0078 101.162C88.0838 99.0835 74.2299 97.9373 72.619 99.0924C71.471 99.533 70.841 102.244 72.4445 102.39C73.8418 102.192 72.2814 100.404 73.6899 100.209C81.1948 99.7433 88.4804 101.255 95.9058 101.89C96.5687 102.782 98.7108 103.08 99.8535 102.722C98.0537 109.357 101.939 113.872 107.76 115.224C116.775 117.296 124.617 109.229 122.26 100.838C124.991 99.4791 128.131 99.5375 131.106 100.253C126.135 118.554 155.598 117.733 150.997 98.4813C154.059 100.005 154.724 97.5556 153.117 97.2481" fill="black"/>
</g>
<defs>
<clipPath id="clip0_2016_14100">
<rect width="200" height="267" fill="white"/>
</clipPath>
</defs>
</svg>
