<svg width="200" height="267" viewBox="0 0 200 267" fill="none" xmlns="http://www.w3.org/2000/svg">
<g clip-path="url(#clip0_2016_14128)">
<rect width="200" height="267" fill="white"/>
<path fill-rule="evenodd" clip-rule="evenodd" d="M225.861 194.94C228.025 193.81 230.138 192.583 232.217 191.305C233.682 190.428 232.385 188.221 230.883 189.018C230.115 189.426 229.35 189.838 228.583 190.244C229.187 189.723 229.747 189.156 230.249 188.539L230.215 188.504C232.151 186.769 229.664 183.495 227.462 184.92C225.52 186.328 223.561 187.765 221.332 188.692C216.715 190.65 211.623 190.975 206.668 191.031C204.855 190.895 203.123 191.209 201.363 191.559C202.053 188.791 203.779 186.7 204.695 184.019C205.371 181.312 201.465 179.468 200.08 182.07C199.741 182.709 199.417 183.356 199.1 184.005C196.108 186.728 191.112 186.488 188.095 189.411C186.376 190.937 185.535 193.008 185.202 195.086C184.977 196.497 185.327 197.912 184.474 199.162C180.351 204.997 173.835 214.22 170.526 220.641C168.183 205.382 161.927 186.509 155.464 172.556C153.327 168.094 150.882 163.734 147.672 159.951C148.036 158.69 146.752 156.451 145.935 157.14C143.422 154.069 138.979 153.273 135.406 151.746C130.584 149.683 126.583 145.395 124.616 140.522C122.089 131.241 115.867 130.062 107.239 130.472C98.9823 130.462 92.873 133.995 91.0714 142.404C87.4111 148.786 78.769 147.731 72.5516 149.42C67.995 150.461 63.573 152.071 59.3704 154.115C54.6953 149.679 37.9513 168.298 36.4293 173.09C37.3253 173.263 38.2158 173.472 39.0983 173.727C39.8842 173.955 39.5542 175.142 38.7615 174.952C37.7751 174.715 36.7823 174.552 35.7849 174.439C35.7545 174.534 35.7279 174.629 35.708 174.723C35.5961 174.715 35.4843 174.705 35.3723 174.698C35.6206 174.827 35.8595 174.977 36.0923 175.171C36.6552 175.638 35.9225 176.54 35.3244 176.168C34.7609 175.746 34.023 175.813 33.3471 175.671C33.307 177.062 28.3479 175.506 27.5776 175.045C24.154 174.617 20.632 175.077 17.4359 173.425C13.1833 172.529 8.89881 171.538 4.69396 170.397C3.58079 170.831 2.53459 172.385 3.41874 173.525C3.91607 174.044 3.27677 174.891 2.65057 174.522C0.550363 173.285 -1.07386 171.355 -2.4509 169.275C-3.09907 168.621 -4.24964 168.762 -5.12048 168.49C-5.23689 168.699 -5.30555 168.933 -5.3045 169.172C-8.99851 169.78 -6.36337 173.816 -4.50633 175.074C-5.49147 175.716 -5.52886 176.972 -5.44267 178.022C-5.6514 178.395 -5.72112 178.859 -5.53943 179.278C-4.84478 180.879 -3.34245 182.227 -2.20013 183.525C-0.938862 184.958 0.185715 186.398 1.72036 187.56C7.56994 192.021 14.629 194.515 21.8709 195.49C24.4422 195.885 28.1409 196.49 29.733 198.665C29.3423 201.246 28.6251 203.722 27.9744 206.239C27.0644 209.581 27.1263 213.079 27.1143 216.485C26.9871 216.383 26.7429 216.404 26.7066 216.599C26.4949 218.011 26.3375 219.455 25.4795 220.641C24.7274 222.848 24.2269 225.201 23.9457 227.519C22.8192 238.508 22.5503 249.822 25.0902 260.64C26.0702 264.653 27.6642 268.467 29.8361 271.979C30.4836 273.027 31.5247 273.334 32.4596 273.128C35.5885 274.754 39.5301 275.275 42.9025 274.862C54.3999 271.606 50.3939 279.447 66.5142 277.046C94.3397 273.5 122.46 280.468 150.227 276.377C150.91 281.661 159.863 280.145 162.972 277.911C172.296 270.977 176.926 249.023 181.605 237.886C184.822 229.108 190.208 213.56 197.262 207.669C199.377 206.015 201.933 205.143 204.491 204.44C214.038 201.979 223.622 199.652 233.186 197.259C234.809 196.859 234.517 194.092 232.782 194.269C230.481 194.505 228.171 194.718 225.861 194.94Z" fill="#FDC6A0"/>
<path fill-rule="evenodd" clip-rule="evenodd" d="M13.3368 193.294C12.6904 193.214 12.0566 192.984 11.427 192.802C10.4657 192.521 9.52346 192.193 8.59599 191.819C6.68191 191.052 4.82487 190.145 3.08402 189.036C0.272048 187.241 -2.21246 184.942 -4.0864 182.173L-4.21506 181.98C-5.28488 180.35 -7.25829 176.73 -5.04556 175.492C-6.47168 174.3 -7.81957 172.159 -7.74351 170.507C-7.63576 168.169 -4.77097 168.201 -3.28999 169.192C-2.32027 169.841 -1.59351 170.75 -0.864635 171.644C-0.0575927 172.637 0.804379 173.584 1.70015 174.495C1.93783 174.736 2.17788 174.972 2.42209 175.204L2.66774 175.435C2.62973 175.344 2.59593 175.251 2.56635 175.156C2.07198 173.616 2.66142 171.61 4.20156 170.904C5.14407 170.472 6.1229 170.736 7.03623 171.103L7.17621 171.16C8.40579 171.669 9.65015 172.119 10.9304 172.481C16.1487 173.954 21.5952 174.199 26.9424 174.934C29.0023 175.22 31.1002 175.579 33.1495 176.107C33.9311 172.787 35.8473 169.604 37.9262 166.986C47.8811 154.459 64.2987 150.319 79.3177 147.639C80.6867 147.396 81.8213 149.209 82.6178 148.78C84.1284 147.968 85.4572 146.818 86.6234 145.569C89.1101 142.904 90.8741 139.77 92.9467 136.8C93.9713 135.334 96.3291 136.646 95.3784 138.221L94.9126 138.99C92.995 142.142 90.8715 145.391 88.1213 147.835C86.6594 149.133 85.0368 150.158 83.1819 150.798C81.777 151.282 79.8058 151.69 78.2678 151.221L78.0832 150.952C78.1443 151.042 78.2058 151.131 78.2678 151.221C82.2818 157.039 87.3184 161.964 92.6255 166.611C97.9823 171.3 103.761 175.498 109.575 179.604L110.059 179.945C119.53 173.035 127.531 164.02 133.144 153.721C131.968 153.58 130.804 152.825 129.798 152.263C128.588 151.582 127.449 150.771 126.561 149.689C124.628 147.332 124.88 144.295 124.531 141.435C124.51 141.258 124.745 141.213 124.852 141.302C125.9 142.173 126.268 143.6 126.705 144.832C127.187 146.187 127.732 147.303 128.837 148.256C129.866 149.144 131.121 149.796 132.34 150.378C132.968 150.676 136.089 151.442 136.445 152.077C141.836 150.811 147.088 152.998 151.083 156.689C154.943 160.254 157.776 164.889 160.278 169.465C162.946 174.347 165.133 179.436 167.017 184.667C168.927 189.976 170.391 195.402 171.196 200.99C171.875 205.701 172.292 210.486 172.562 215.25L172.595 215.846C176.583 209.583 180.671 203.386 184.844 197.245C183.895 194.71 184.945 192.124 186.722 190.166C188.691 188 191.414 186.994 194.019 185.823L194.362 185.668C195.617 185.095 196.868 184.464 197.953 183.606C198.997 182.778 199.764 181.636 200.862 180.873C202.459 179.762 205.358 179.998 205.432 182.427C205.47 183.761 204.897 185.223 204.373 186.421C203.78 187.776 202.979 189.004 202.028 190.133C201.984 190.185 201.936 190.227 201.888 190.26L201.851 190.283C203.165 190.5 204.49 190.676 205.84 190.737C208.563 190.862 211.316 190.661 213.982 190.086C216.711 189.499 219.357 188.543 221.811 187.212C223.909 186.075 225.853 184.604 228.236 184.257C228.456 184.223 228.678 184.202 228.906 184.189C229.286 184.168 229.666 184.616 229.516 184.992C229.434 185.2 229.347 185.405 229.252 185.612C228.428 187.427 227.165 189.188 225.588 190.525L225.466 190.627C226.022 190.435 226.569 190.219 227.108 189.976C230.275 188.55 233.148 186.394 236.543 185.527C236.704 185.485 236.866 185.447 237.029 185.411C238.079 185.185 238.633 186.326 238.016 187.108C237.916 187.235 237.817 187.36 237.714 187.484C236.199 189.365 234.528 191.111 232.685 192.679C232.054 193.216 231.403 193.736 230.74 194.233C230.46 194.443 230.179 194.649 229.895 194.852L229.755 194.951C230.087 194.717 230.414 194.478 230.74 194.233C232.818 193.603 234.868 192.857 236.873 192.031C237.669 191.703 238.288 192.51 238.373 193.174C238.656 195.397 236.188 197.006 234.583 198.075C232.973 199.149 231.2 199.965 229.385 200.62C225.896 201.881 222.231 202.454 218.572 202.967L216.795 203.215C209.76 204.199 202.413 205.376 197.366 210.851C194.537 213.92 192.623 217.733 190.871 221.484C189.122 225.232 187.586 229.078 186.128 232.946C184.618 236.949 183.302 241.026 181.903 245.069C180.618 248.781 179.084 252.446 177.565 256.074L177.325 256.647C174.099 264.357 170.245 271.619 164.875 278.056C163.99 279.119 162.559 277.611 163.377 276.558C168.995 269.313 172.903 260.764 176.129 252.236C177.597 248.356 178.827 244.382 180.238 240.48L181.078 238.163C182.199 235.073 183.33 231.987 184.51 228.922C186.004 225.043 187.645 221.212 189.523 217.504L189.723 217.114C191.561 213.538 193.746 210.013 196.753 207.307C202.165 202.433 209.367 201.264 216.33 200.338L218.52 200.049C221.464 199.658 224.416 199.226 227.279 198.439C228.931 197.987 230.545 197.407 232.062 196.608C232.666 196.291 233.256 195.943 233.826 195.562C232.199 196.04 230.549 196.431 228.87 196.737C228.048 196.887 227.235 197 226.423 197.078C224.334 197.285 222.261 197.276 220.121 197.164C219.94 197.154 219.881 196.868 220.075 196.832C221.565 196.567 223.057 196.236 224.543 195.876L224.989 195.767C224.997 195.52 225.095 195.258 225.297 195.009C226.037 194.108 227.442 193.647 228.416 193.011C229.436 192.345 230.425 191.627 231.367 190.857C232.229 190.154 233.057 189.41 233.854 188.632L234.093 188.397C234.013 188.476 233.934 188.554 233.854 188.632C231.703 189.626 229.664 190.9 227.419 191.686C225.633 192.314 223.761 192.736 221.873 192.887L221.755 192.896L221.638 192.903C219.667 193.045 217.683 192.988 215.742 193.415C215.524 193.464 215.457 193.172 215.651 193.089C217.347 192.384 219.111 192.111 220.895 191.781C220.933 191.642 221.03 191.517 221.199 191.437L221.655 191.219C223.014 190.566 224.28 189.907 225.409 188.848C226.406 187.911 227.237 186.817 227.86 185.603C225.365 186.151 223.174 188.042 220.905 189.105C218.433 190.266 215.818 191.098 213.13 191.572L212.824 191.625C207.802 192.463 201.763 192.356 197.264 189.744C197.121 189.659 197.224 189.467 197.372 189.49C198.648 189.699 199.911 189.947 201.175 190.166C200.928 189.94 200.818 189.534 201.103 189.209C202.238 187.908 203.135 186.421 203.709 184.794L203.818 184.476C204.083 183.721 204.529 182.55 204.073 181.869C203.638 181.22 202.614 181.309 202.001 181.583C200.727 182.158 199.88 183.594 198.806 184.46C197.636 185.407 196.305 186.108 194.942 186.736L194.655 186.867C192.298 187.928 189.779 188.82 187.926 190.693C186.929 191.699 186.071 192.956 185.784 194.366C185.653 195.013 185.653 195.678 185.826 196.319C185.964 196.82 186.251 197.128 186.086 197.638C185.871 198.295 185.108 199.081 184.715 199.667C184.259 200.343 183.804 201.021 183.35 201.7C182.444 203.057 181.542 204.418 180.64 205.777C178.835 208.499 177.05 211.234 175.28 213.977C174.704 214.87 174.129 215.765 173.557 216.66L172.7 218.003L172.247 218.712L171.475 219.926C171.502 220.039 171.5 220.157 171.464 220.26C171.333 220.636 171.086 220.892 170.78 221.078L170.725 221.11C166.216 228.239 161.78 235.414 157.299 242.56C157.06 244.741 156.836 246.924 156.642 249.108C156.2 254.049 155.898 259.003 155.801 263.964C155.754 266.365 155.947 268.78 156.05 271.179C156.101 272.324 156.17 273.467 156.261 274.611L156.327 275.421C156.417 276.534 156.467 277.64 156.067 278.701C155.712 279.633 154.63 279.842 153.99 279.132C145.639 278.796 137.281 278.54 128.923 278.382C113.964 278.094 98.9973 278.139 84.0354 278.428C76.5206 278.574 69.0037 278.779 61.491 279.033C57.7896 279.155 54.0861 279.329 50.3825 279.379C48.3872 279.407 45.2468 278.68 45.0858 276.434L45.0818 276.366C44.8326 276.433 44.5748 276.488 44.3107 276.528C44.1932 276.546 44.0802 276.541 43.9759 276.517L43.9241 276.503C40.9497 277.41 37.1873 276.116 34.361 275.362L34.1277 275.3C31.4298 274.597 29.2622 273.59 27.4939 271.354C24.3988 267.438 23.3425 262.18 22.7932 257.333C22.2777 252.773 22.2481 248.127 22.8755 243.575C22.5058 239.866 22.8671 236.038 23.2875 232.35C23.4945 230.526 23.7375 228.704 24.0291 226.891C24.1917 225.878 24.4051 224.876 24.6227 223.877C24.7096 223.477 24.7819 223.047 24.8921 222.631L24.9417 222.454C24.6037 222.499 24.234 222.425 23.8769 222.228C23.0276 221.761 22.7804 220.816 22.7656 219.912C22.7192 217.185 23.0445 214.381 23.3318 211.671C23.6213 208.966 24.0185 206.25 24.5382 203.579L24.6727 202.89C25.0665 200.891 25.5171 198.828 26.3107 196.951C23.3298 196.444 20.3573 195.905 17.465 194.987C16.0537 194.537 14.6636 193.977 13.3368 193.294ZM168.927 221.668C168.88 221.679 168.836 221.691 168.792 221.704C167.6 222.038 166.396 222.321 165.196 222.626C163.121 223.148 161.093 223.731 159.164 224.638C158.76 229.74 158.161 234.825 157.592 239.913L157.478 240.931C158.353 239.307 159.249 237.697 160.185 236.106C163.035 231.255 165.95 226.443 168.927 221.668ZM25.6685 222.173C25.6748 222.78 25.5481 223.41 25.4805 223.993C25.3706 224.94 25.2819 225.891 25.1699 226.838C24.9417 228.74 24.7474 230.644 24.6058 232.555C24.515 233.774 24.4558 234.998 24.403 236.222C25.6009 231.743 27.1875 227.362 28.696 222.974C28.4438 222.948 28.1861 222.886 27.9202 222.815L27.4726 222.695C27.2087 222.627 26.3525 222.416 25.6685 222.173ZM172.7 218.003L172.709 218.204C172.74 218.916 172.314 219.318 171.796 219.422C172.096 218.948 172.398 218.475 172.7 218.003ZM35.6297 184.247C36.891 184.358 38.1269 184.627 39.3058 185.092L39.4195 185.136C40.2915 185.473 41.5664 185.896 41.8516 186.827C41.9318 187.091 41.7164 187.309 41.4692 187.33C40.5227 187.406 39.4072 186.392 38.5304 186.049C37.5544 185.669 36.5318 185.386 35.4966 185.236C33.1706 184.895 30.7452 185.153 28.5565 186.001C28.4276 186.052 28.3473 185.846 28.4635 185.785C30.6692 184.585 33.122 184.025 35.6297 184.247ZM8.90233 190.291C8.75647 190.162 8.6107 190.027 8.46703 189.892C7.33434 188.82 6.3313 187.569 5.58862 186.194L5.39316 185.822C4.78827 184.65 4.04548 182.981 5.46703 182.137C6.31633 181.632 7.33887 181.759 8.28534 182.065C8.34661 182.084 8.40788 182.106 8.46915 182.127C8.89168 182.275 9.29943 182.452 9.66281 182.621C11.241 183.346 12.6332 184.401 14.091 185.331C15.6705 186.339 17.2301 186.984 19.0531 187.361L19.2248 187.396C20.9361 187.734 22.791 187.951 23.9846 189.359C24.2846 189.714 24.01 190.38 23.4924 190.204C20.1924 189.091 16.7001 188.845 13.6706 187.017C12.4156 186.261 11.2283 185.392 9.94591 184.675C9.26563 184.295 8.56326 183.962 7.81476 183.734L7.40585 183.613C7.16634 183.543 6.88041 183.474 6.68816 183.543C6.32219 183.67 6.43899 183.866 6.55222 184.208L6.56351 184.242C7.45295 186.994 9.98816 189.298 12.3375 190.822C12.8762 191.172 13.4276 191.494 13.9896 191.792C17.7935 193.82 22.0499 194.764 26.2303 195.885C26.2303 195.885 28.6474 196.56 29.4481 196.813C30.3396 196.739 31.3558 197.054 32.0277 197.431C32.6805 197.796 33.2065 198.287 33.6037 198.864C33.6037 198.864 33.9861 199.183 34.0558 199.677C34.2565 200.136 34.3917 200.63 34.4594 201.146C34.4974 201.448 34.4213 201.681 34.2777 201.846C34.7098 208.48 32.9183 215.078 30.8986 221.383L30.6985 222.005L30.5699 222.399C28.3917 229.084 25.8925 235.721 24.777 242.691C24.0312 247.347 24.0544 252.166 24.6016 256.843L24.6402 257.166C25.1793 261.588 26.2166 266.549 29.0277 270.108C30.4615 271.924 32.1602 272.731 34.332 273.316L34.4509 273.348C36.4157 273.865 38.4439 274.599 40.4699 274.821C42.3502 275.026 43.9263 274.326 45.6185 273.671L45.6206 273.669C49.1847 270.513 50.803 265.919 51.9988 261.281C55.0981 249.281 54.7136 236.824 52.9558 224.648C52.0389 218.287 50.7924 211.98 49.5502 205.675C48.9291 202.524 48.2593 199.379 47.7037 196.217L47.3737 194.357C47.1916 193.323 47.0155 192.288 46.865 191.249C46.6622 189.852 46.6009 188.478 46.5312 187.072C44.8241 184.242 42.346 181.911 39.4748 180.239C37.4192 179.041 35.2431 178.21 32.9974 177.608C26.5769 175.877 19.5776 176 13.1171 174.668C10.9467 174.221 8.88651 173.558 6.82742 172.763L6.54663 172.654C5.60227 172.286 4.63889 172.081 4.16987 173.195C3.83607 173.988 4.03466 174.812 4.53537 175.478C5.76283 177.109 8.23044 177.866 10.0875 178.453C11.2051 178.808 12.3459 179.09 13.4994 179.299C14.653 179.508 15.8107 179.561 16.9178 179.969C17.3445 180.125 17.429 180.804 16.9178 180.924C15.5149 181.252 14.1037 180.971 12.7093 180.698C11.1776 180.396 9.66917 179.967 8.20297 179.424C7.93255 179.324 7.65266 179.219 7.36764 179.107L7.15297 179.022C7.3748 179.183 7.59663 179.341 7.82058 179.5C7.87973 179.542 7.84382 179.654 7.76565 179.626C4.31817 178.34 1.18139 176.018 -1.24865 173.272L-1.36956 173.134C-2.2252 172.153 -4.1752 169.186 -5.81886 170.012C-7.3623 170.787 -4.73128 173.775 -3.73141 174.996L-3.6153 175.14C-2.47868 175.169 -1.37797 175.877 -0.456846 176.448C1.14245 177.439 2.81358 178.293 4.51639 179.092C7.9009 180.683 11.4946 181.806 14.8432 183.477C14.8875 183.501 14.8537 183.557 14.8115 183.551C12.6798 183.211 10.5713 182.668 8.51146 181.994L8.41956 181.965L8.32766 181.934C7.04104 181.512 5.77132 181.034 4.52273 180.525C3.1347 179.958 1.77837 179.322 0.462168 178.601C-0.729381 177.95 -2.05192 176.777 -3.43361 176.604C-3.58149 176.585 -3.71248 176.583 -3.82656 176.594C-5.41316 176.727 -4.10119 179.356 -3.65753 180.142C-2.93288 181.433 -2.05823 182.625 -1.05471 183.714C0.979795 185.925 3.44529 187.677 6.1136 189.04C7.02416 189.505 7.95585 189.915 8.90233 190.291Z" fill="black"/>
<path fill-rule="evenodd" clip-rule="evenodd" d="M109.619 53.9492C121.59 53.9492 139.111 61.9628 140.429 69.6728C141.982 78.7587 145.43 112.924 143.553 124.104C141.675 135.285 134.354 143.546 118.163 143.546C101.972 143.546 89.8874 134.694 87.1127 131.655C84.3379 128.616 80.9757 119.158 80.9757 119.158C80.9757 119.158 72.1112 117.651 72.0701 110.567C72.029 103.483 76.5232 101.294 76.5232 101.294C76.5232 101.294 74.0977 71.9058 79.1958 64.627C84.2938 57.3483 97.6486 53.9492 109.619 53.9492Z" fill="#FDC6A0"/>
<path fill-rule="evenodd" clip-rule="evenodd" d="M145.761 91.3744C146.416 98.5159 146.663 105.719 146.79 112.888C146.912 119.681 146.315 126.765 142.455 132.573C139.08 137.654 133.94 141.342 128.216 143.333C124.959 144.468 121.352 144.888 117.911 144.992C116.134 145.045 114.353 144.969 112.586 144.785C112.363 144.761 112.14 144.741 111.917 144.722C110.42 144.588 108.936 144.455 107.846 143.322C107.503 142.965 107.507 142.232 108.015 141.999C108.983 141.557 109.638 141.511 110.699 141.657C111.578 141.777 112.459 141.872 113.345 141.934C115.242 142.067 117.152 142.071 119.05 141.925C122.537 141.657 126.104 140.67 129.27 139.173C134.235 136.823 138.5 132.972 140.802 127.919C143.441 122.133 143.309 115.442 143.185 109.212L143.18 108.957C143.043 102.045 142.788 95.1555 142.189 88.2676C141.962 85.6618 141.639 83.0703 141.316 80.4778C141.225 79.7479 141.134 79.018 141.045 78.2876C140.832 76.5207 140.551 74.7621 140.208 73.0165C140.104 72.4894 139.983 71.9665 139.862 71.4442C139.771 71.0512 139.68 70.6586 139.596 70.2648C139.455 70.2878 139.312 70.3007 139.164 70.3068C138.283 70.3366 137.319 70.121 136.666 69.4933C136.415 69.6645 136.097 69.7723 135.713 69.7913C133.369 69.9074 131.002 69.8556 128.64 69.804C127.349 69.7759 126.06 69.7477 124.778 69.7469C121.135 69.7448 117.49 69.7469 113.844 69.7575C113.289 69.7591 112.733 69.7612 112.177 69.7634C109.089 69.7752 105.997 69.7871 102.913 69.7047C102.26 69.6871 101.602 69.6758 100.942 69.6643C98.1804 69.6165 95.3786 69.5679 92.68 69.0664C91.5564 73.0694 91.5962 77.4676 93.9387 81.0436C94.6004 82.0518 94.0628 83.2395 93.2008 83.8694C92.3193 84.5121 90.735 85.4976 89.3794 85.5989C89.3268 85.7172 89.2737 85.8353 89.2206 85.9532C89.1411 86.1299 89.0618 86.3061 88.985 86.4821C88.338 87.9601 87.755 89.4473 87.3471 91.0122C87.1369 91.8187 86.956 92.6385 86.8038 93.4634C86.8162 93.6078 86.8291 93.7519 86.8445 93.8958C86.8445 93.9088 86.8461 93.9217 86.848 93.9361L86.8487 93.9421C86.8571 94.0015 86.8677 94.0691 86.874 94.1072C86.8931 94.2087 86.9121 94.3102 86.9311 94.4117C86.9895 94.7243 87.0479 95.0367 87.1101 95.3478C87.3062 96.3517 87.4578 97.3641 87.5655 98.3805C87.7616 100.241 87.7426 102.658 85.9337 103.76C84.9661 104.349 83.8066 104.288 82.7839 103.892C82.2137 103.672 81.7146 103.375 81.1998 103.069C81.0942 103.006 80.988 102.943 80.8803 102.88C80.714 102.783 80.5443 102.693 80.3749 102.604C80.1623 102.492 79.9501 102.38 79.7459 102.253C79.6449 102.189 79.548 102.113 79.4573 102.033C78.7721 102.179 78.1036 102.451 77.7286 102.637C76.7227 103.138 75.8396 103.863 75.0889 104.696C73.4931 106.469 73.0146 108.967 73.2381 111.286C73.4466 113.444 74.2922 115.923 75.9933 117.358C76.7333 117.983 77.6569 118.349 78.633 118.338C79.1134 118.334 79.5564 118.233 80.0202 118.11C80.218 118.058 80.436 118.035 80.6538 118.012C80.9395 117.982 81.225 117.953 81.4643 117.857C82.0903 117.605 82.8621 118.372 82.607 119.002C82.5502 119.142 82.5007 119.277 82.4528 119.408C82.3388 119.719 82.2344 120.003 82.065 120.264C83.8108 123.121 85.7229 125.89 87.7571 128.547C89.0471 130.229 90.4977 131.724 91.9548 133.225C92.5695 133.858 93.1854 134.493 93.7909 135.143C94.6913 136.111 95.0666 138.017 93.4369 138.431C92.0035 138.799 90.8898 137.481 90.006 136.436C89.8876 136.296 89.7733 136.16 89.663 136.035C85.7946 131.624 82.8705 126.56 81.5021 120.843C80.8846 121.283 80.176 121.521 79.4297 121.625C77.9434 121.83 76.4404 121.536 75.1376 120.782C70.2041 117.926 69.0109 110.21 71.3215 105.374C71.8787 104.21 72.7017 103.171 73.705 102.363C73.626 102.212 73.5948 102.034 73.6456 101.843C73.7347 101.509 73.8328 101.179 73.9357 100.85C73.8233 100.8 73.7411 100.697 73.7567 100.543C73.8352 99.7382 73.912 98.9335 73.9888 98.1289L74.0307 97.6896C74.0211 97.2534 74.0079 96.8174 73.9948 96.3813C73.9646 95.3804 73.9345 94.3786 73.9462 93.3717C73.9581 92.3003 73.9945 91.2293 74.031 90.1584C74.0729 88.9267 74.1148 87.695 74.1193 86.4626C74.1329 82.4716 74.2203 78.4826 74.3077 74.4936C74.3963 70.4513 74.4849 66.409 74.4967 62.3645C74.5091 58.4353 74.5175 54.5001 74.4142 50.5732C74.4131 50.5454 74.4126 50.5182 74.4121 50.4909C74.4116 50.4664 74.4111 50.4418 74.4102 50.4169C74.3973 49.9349 74.3668 49.428 74.3355 48.9077C74.1626 46.0353 73.9653 42.7564 76.5606 41.0348C77.0645 40.7011 77.6927 40.6969 78.2409 40.9124C79.8178 39.8113 81.7953 39.2806 83.6864 38.9741C86.474 38.523 89.2805 38.2525 92.0884 37.9819C92.9097 37.9027 93.7311 37.8235 94.5521 37.7398C96.4451 37.5475 98.4374 37.4738 100.343 37.516C101.335 37.5378 102.333 37.5019 103.333 37.466C104.276 37.4321 105.22 37.3981 106.162 37.4125C108.363 37.4484 110.581 37.5308 112.79 37.7126C112.842 37.7073 112.894 37.7026 112.946 37.6979C112.998 37.6931 113.05 37.6883 113.102 37.683C116.449 37.3613 119.792 37.5314 123.136 37.7016C123.946 37.7428 124.756 37.784 125.566 37.8183C129.525 37.9852 133.706 38.3952 137.26 40.2951C137.718 40.539 138.105 40.8163 138.435 41.1253C138.898 41.1906 139.34 41.3222 139.737 41.5435C140.881 41.3117 142.159 41.8257 142.43 43.157C142.824 45.1077 142.974 47.0752 142.737 49.0536C142.734 49.0785 142.731 49.1041 142.728 49.1303C142.726 49.1529 142.723 49.176 142.721 49.1995C143.198 51.0348 143.167 53.0393 142.769 54.8495C142.937 57.1367 143.032 59.4305 143.046 61.7205C143.048 62.067 143.053 62.4149 143.058 62.7636C143.075 64.0086 143.093 65.2629 142.978 66.4968C142.849 67.8854 142.279 68.9842 141.382 70.0388C141.213 70.2375 140.927 70.2705 140.689 70.2223C140.628 70.2098 140.574 70.1929 140.526 70.1728C140.968 71.1241 141.335 72.1228 141.694 73.0997C141.774 73.3163 141.853 73.5319 141.932 73.7457C142.628 75.6183 143.303 77.5225 143.781 79.4627C144.751 83.3746 145.39 87.3609 145.761 91.3744ZM78.5787 109.079C78.3786 108.94 78.1768 108.8 77.9583 108.697C77.9309 108.684 76.7756 108.308 76.9991 108.804C77.0749 108.969 76.8768 109.153 76.7355 109.007C76.335 108.599 76.5584 108.109 76.94 107.746C77.6292 107.088 78.6582 107.24 79.5036 107.397C80.68 107.615 81.8227 108.13 82.8135 108.792C83.8803 109.504 85.1979 110.491 85.4087 111.842C85.6006 113.082 84.3694 114.45 83.1023 113.619C82.4168 113.169 81.9367 112.499 81.455 111.828C81.1115 111.349 80.7672 110.869 80.3469 110.466C79.8513 109.992 79.3158 109.576 78.7489 109.195C78.6921 109.157 78.6355 109.118 78.5787 109.079Z" fill="black"/>
<path fill-rule="evenodd" clip-rule="evenodd" d="M127.453 124.137C127.777 123.573 128.523 123.051 129.206 123.131C132.265 123.49 132.26 127.2 131.079 129.366C130.031 131.287 127.864 132.414 125.695 132.249C123.416 132.076 121.474 130.736 120.619 128.603C120.054 127.192 119.793 124.588 121.297 123.64C121.324 123.622 121.371 123.627 121.393 123.652C122.114 124.491 122.142 125.75 122.773 126.684C123.36 127.553 124.272 128.27 125.34 128.381C126.138 128.464 126.945 128.176 127.257 127.46C127.425 127.072 127.406 126.862 127.343 126.595L127.285 126.363C127.085 125.551 126.996 124.933 127.453 124.137ZM128.271 107.866C129.866 108.836 132.297 111.098 130.581 113.503C128.561 115.624 125.652 113.193 124.219 112.093C122.89 111.241 121.396 113.433 122.629 114.428C132.987 122.099 137.19 108.12 129.078 106.726C128.185 106.572 127.853 107.566 128.271 107.866ZM111.424 101.214C112.403 99.7444 114.638 99.9608 115.178 101.705C115.47 102.65 115.066 103.499 115.087 104.442C115.105 105.239 115.052 106.127 114.808 106.899C114.251 108.659 112.669 109.902 110.797 109.851C108.931 109.8 107.288 108.618 106.506 106.954C105.722 105.284 105.888 103.555 106.46 101.857C106.488 101.775 106.595 101.736 106.659 101.804C107.336 102.524 107.831 103.283 108.344 104.089L108.869 104.915C109.271 105.537 109.854 106.331 110.604 106.281L110.717 106.27C110.925 106.252 110.893 106.293 111.054 106.009C111.128 105.878 111.114 105.634 111.15 105.479L111.163 105.426V105.426L111.156 105.398C111.14 105.323 111.124 105.181 111.112 104.935L111.109 104.881C111.055 103.732 110.73 102.255 111.424 101.214ZM136.246 102.193C136.07 100.313 138.712 99.8954 139.59 101.286C140.048 102.012 140.182 102.923 140.283 103.786L140.33 104.196C140.434 105.082 140.476 106.005 140.091 106.832C139.485 108.134 138.167 108.823 136.746 108.714C135.388 108.609 134.15 107.822 133.497 106.627C132.915 105.56 132.336 103.478 133.043 102.366C133.086 102.298 133.171 102.29 133.23 102.342C133.898 102.935 134.007 104.017 134.404 104.79C134.814 105.587 135.435 106.364 136.377 106.485C137.277 106.601 137.622 106.109 137.392 105.25C137.095 104.141 136.357 103.386 136.246 102.193ZM112.137 90.0386L112.569 89.8731C114.049 89.3137 116.082 88.6671 117.285 89.8712C118.027 90.6137 118.169 91.7074 117.639 92.6135C116.997 93.711 115.845 93.7381 114.733 93.8997C113.468 94.0836 112.182 94.4332 111.004 94.9316C109.678 95.4931 108.447 96.1931 107.241 96.9749C106.094 97.7178 104.952 98.932 103.58 99.1609C103.524 99.1702 103.46 99.1461 103.446 99.0846C103.134 97.7425 104 96.4218 104.773 95.3748C105.708 94.1071 106.841 93.0666 108.107 92.1337C109.329 91.2331 110.726 90.5824 112.137 90.0386ZM139.025 94.8102L139.157 94.787C140.054 94.6375 140.868 94.672 141.544 95.3831C142.06 95.9257 142.259 96.6288 142.013 97.3462C141.786 98.0079 141.278 98.6802 140.541 98.8188C138.053 99.2872 135.296 99.2098 132.795 98.8552C131.651 98.6928 130.497 98.4942 129.382 98.181L128.869 98.0323C127.939 97.7664 126.874 97.4886 126.198 96.804C125.955 96.558 126.095 96.2059 126.385 96.092C127.565 95.63 129.181 95.8758 130.439 95.8396C131.901 95.7978 133.367 95.6881 134.822 95.537C136.245 95.389 137.622 95.0676 139.025 94.8102Z" fill="black"/>
<path fill-rule="evenodd" clip-rule="evenodd" d="M149.071 112.228C148.371 111.288 147.112 110.054 145.839 110.12C145.676 110.128 145.615 110.305 145.713 110.424C146.13 110.933 146.699 111.295 147.116 111.814C147.61 112.429 147.966 113.17 148.198 113.92C148.534 115.009 148.627 116.241 148.327 117.349C147.798 119.301 146.126 120.732 144.301 121.462C142.494 122.185 140.321 122.433 138.613 121.373C136.091 119.808 133.952 117.553 130.783 117.509C130.042 117.498 129.519 117.838 129.208 118.323C128.895 117.855 128.38 117.525 127.657 117.516C124.104 117.476 121.452 119.923 118.47 121.449C116.455 122.479 113.847 122.16 111.768 121.478C109.807 120.836 107.678 119.546 106.938 117.509C106.53 116.385 106.621 115.071 107.04 113.962C107.316 113.233 107.742 112.529 108.269 111.956C108.815 111.362 109.533 110.988 110.092 110.424C110.206 110.309 110.116 110.13 109.966 110.12C107.59 109.959 105.445 112.797 104.996 114.856C104.554 116.883 105.213 118.906 106.546 120.453C109.258 123.599 114.278 124.636 118.185 123.712C121.347 122.964 124.351 121.241 127.657 121.488C128.381 121.543 128.902 121.24 129.216 120.782C129.53 121.254 130.053 121.562 130.783 121.491C133.864 121.193 136.614 123.376 139.605 123.909C141.986 124.333 144.558 123.761 146.599 122.477C148.732 121.136 150.233 118.984 150.332 116.419C150.389 114.943 149.956 113.416 149.071 112.228" fill="black"/>
<path fill-rule="evenodd" clip-rule="evenodd" d="M143.095 111.465C139.925 112.993 135.501 110.74 133.369 108.379C132.593 107.52 131.995 105.061 132.293 103.502C133.102 99.2791 136.14 96.7446 139.347 95.8791C143.793 94.6791 148.267 97.7192 147.745 101.307C147.251 104.707 146.502 109.638 143.095 111.465M121.514 103.353C121.26 107.955 117.566 111.983 113.15 113.177C106.036 115.163 102.52 110.16 100.928 104.77C100.769 104.235 100.397 102.6 101.395 101.198C105.321 95.6828 114.873 96.6229 119.644 98.137C121.041 99.4729 121.612 101.401 121.514 103.353M146.54 95.4154C146.538 95.4182 146.536 95.4205 146.534 95.4233C146.517 95.4133 146.501 95.4032 146.485 95.3935C146.503 95.4011 146.522 95.4076 146.54 95.4154M152.493 95.9474C152.079 91.2618 137.383 93.0559 135.665 93.4399C130.975 94.8196 126.925 98.5732 121.682 96.9232C116.25 90.8653 97.9567 92.6026 94.1217 95.6885C93.3958 95.4036 92.5131 95.5564 91.5779 95.8252C86.7749 95.6517 64.8487 97.3081 69.3335 103.44C70.0142 103.913 70.6943 103.432 70.7131 102.459C94.0926 94.0163 91.8263 101.924 94.599 101.001C95.0224 101.123 95.4641 101.2 95.8505 101.281C97.9966 101.972 98.7253 101.758 99.0079 104.168C100.95 122.778 125.722 116.355 123.691 101.09C125.702 100.98 127.462 100.11 129.589 100.959C131.066 115.339 142.633 115.919 146.114 110.934C148.739 107.475 147.698 102.253 151.307 99.5317C152.731 100.724 152.823 96.6996 152.493 95.9474" fill="black"/>
</g>
<defs>
<clipPath id="clip0_2016_14128">
<rect width="200" height="267" fill="white"/>
</clipPath>
</defs>
</svg>
