<svg width="200" height="267" viewBox="0 0 200 267" fill="none" xmlns="http://www.w3.org/2000/svg">
<g clip-path="url(#clip0_2016_14105)">
<rect width="200" height="267" fill="white"/>
<path fill-rule="evenodd" clip-rule="evenodd" d="M174.636 251.934C173.785 247.123 173.004 242.299 172.295 237.465C171.958 235.169 171.629 232.872 171.334 230.571C171.127 228.959 170.812 227.115 171.909 225.921C173.452 224.241 174.853 222.802 175.042 220.395C175.22 218.13 174.454 215.66 173.975 213.462C172.971 208.851 171.722 204.297 170.341 199.787C168.938 195.204 167.399 190.664 165.838 186.133C164.379 181.897 162.977 177.622 161.076 173.558C157.47 165.845 151.369 160.133 143.828 156.318C141.953 155.37 138.127 151.984 136.168 151.226C134.367 150.528 134.373 152.564 132.601 151.797C131.183 151.184 129.864 150.367 129.07 148.998C128.209 147.512 126.048 145.433 125.719 143.703C125.022 140.036 125.777 136.914 123.161 134.154C120.838 131.703 117.716 130.024 114.486 129.123C107.38 127.14 97.9028 128.526 93.6153 135.132C91.5675 138.287 90.852 142.1 88.0888 144.674C85.6759 146.922 86.2159 148.459 83.0908 149.618C82.9138 149.683 78.1164 148.654 77.9394 148.72C74.5206 147.988 71.2531 150.037 68.1166 151.226C63.4406 152.998 58.9888 155.304 54.8063 158.046C46.3727 163.574 39.1495 170.752 33.1945 178.874C27.1903 187.064 22.5316 196.244 19.2145 205.838C18.4089 208.168 17.6853 210.527 17.0471 212.908C16.6898 214.241 16.3081 215.624 16.7431 216.989C17.0989 218.105 17.8903 218.936 18.8196 219.606C20.0794 220.514 22.6064 221.104 22.5572 222.931C22.5196 224.32 22.0487 225.781 21.8188 227.153C21.5452 228.788 21.3204 230.431 21.0956 232.073C20.0731 239.544 19.2772 247.057 18.9253 254.592C18.5788 262.011 18.2913 269.581 18.8057 276.998C18.8397 277.487 18.9855 277.936 19.2206 278.315C19.0011 278.399 18.9842 278.809 19.2574 278.867C19.4488 278.907 19.6398 278.948 19.8312 278.988C20.2288 279.289 20.7246 279.474 21.2953 279.492C21.6821 279.504 22.0687 279.521 22.4551 279.541C26.5328 280.394 30.6099 281.199 34.7408 281.809C39.7622 282.551 44.7984 283.155 49.8502 283.647C60.2308 284.656 70.5297 284.321 80.9241 283.777C91.3024 283.234 101.675 283.107 112.064 283.377C122.462 283.648 132.856 284.1 143.257 284.285C154.876 284.492 166.478 284.174 178.064 283.25C179.652 283.124 180.635 281.86 180.322 280.281C178.445 270.825 176.318 261.431 174.636 251.934Z" fill="#FDC6A0"/>
<path fill-rule="evenodd" clip-rule="evenodd" d="M68.1166 151.226L68.3436 151.138C71.4106 149.939 74.603 148.005 77.9394 148.72C78.0574 148.676 80.2283 149.119 81.7153 149.399L80.3039 150.873L77.8131 151.352C86.406 165.54 96.569 172.634 108.302 172.634C120.035 172.634 128.938 165.54 135.011 151.352L135.84 151.123C135.943 151.147 136.052 151.18 136.168 151.226C138.127 151.984 141.953 155.37 143.828 156.318C151.369 160.132 157.47 165.845 161.076 173.558C162.913 177.487 164.285 181.612 165.693 185.709L165.838 186.133C167.399 190.664 168.938 195.204 170.341 199.786C171.662 204.101 172.863 208.455 173.843 212.86L173.975 213.462C174.454 215.66 175.22 218.129 175.042 220.395C174.975 221.252 174.754 221.987 174.427 222.653L157.431 228.771L165.528 284.017C158.111 284.335 150.688 284.417 143.257 284.285C132.856 284.1 122.462 283.648 112.064 283.377C101.989 283.115 91.931 283.226 81.8675 283.729L79.3119 283.86C69.4641 284.352 59.6939 284.604 49.8502 283.646L49.1794 283.581V283.581L49.1793 275.499L52.6371 230.501L35.1136 227.201L17.9118 218.843C17.3921 218.323 16.975 217.716 16.7431 216.988C16.3402 215.725 16.6379 214.445 16.9679 213.204L17.0471 212.908C17.6853 210.527 18.4089 208.168 19.2145 205.838C22.5316 196.244 27.1903 187.064 33.1945 178.874C39.1495 170.752 46.3727 163.573 54.8063 158.046C58.9888 155.304 63.4406 152.998 68.1166 151.226Z" fill="#EC7495"/>
<path fill-rule="evenodd" clip-rule="evenodd" d="M74.6975 148.487C75.772 148.44 76.8676 148.614 77.9396 148.72C78.033 148.729 78.0685 148.873 77.9633 148.895C76.0448 149.296 74.1473 149.844 72.2632 150.401L71.4564 150.64C69.3317 151.269 67.2693 151.918 65.2124 152.756C61.113 154.428 57.2195 156.684 53.6362 159.275C39.8379 169.256 29.8513 184.366 23.5492 200.01C21.8377 204.259 20.3876 208.613 19.2129 213.041C18.9273 214.118 18.6585 215.199 18.4038 216.284C18.329 216.602 18.003 217.417 18.1817 217.742C18.3397 218.03 18.9541 218.208 19.2395 218.357L20.2031 218.857C22.0828 219.826 25.2137 221.419 25.5277 221.575L26.0174 221.816C34.0267 225.744 42.5845 229.075 51.5975 229.305L51.668 228.535V228.535C52.0699 224.278 52.5972 219.999 53.7482 215.873C53.8101 215.651 54.0921 215.726 54.1179 215.923C54.7591 220.808 54.5542 225.73 54.3304 230.637C53.9343 239.328 53.4083 248.015 52.9407 256.702C52.7066 261.048 52.4041 265.391 52.1309 269.735C51.8573 274.087 51.7688 278.544 51.1441 282.861C51.0049 283.823 49.8784 284.346 49.0253 284.245C48.0814 284.132 47.3552 283.301 47.3508 282.347C47.3394 279.833 47.6552 277.288 47.8308 274.78C47.9975 272.397 48.1764 270.015 48.3598 267.633C49.0299 258.94 49.8009 250.257 50.5139 241.568C50.7666 238.486 51.0395 235.407 51.3205 232.328C41.7727 232.02 32.8528 228.482 24.3433 224.349C24.2202 227.146 23.9227 229.939 23.6347 232.725C22.8309 240.499 22.1221 248.271 21.5916 256.07C21.3237 260.009 21.1287 263.953 20.9588 267.897C20.8754 269.836 20.8073 271.774 20.7552 273.714C20.7377 274.36 20.7219 275.007 20.708 275.654L20.6789 277.135C20.6552 278.073 20.5598 278.943 19.7704 279.626C18.9687 280.32 17.8857 280.357 17.0922 279.626C16.0299 278.647 16.2178 277.314 16.2492 276C16.2754 274.891 16.3069 273.783 16.3435 272.675C16.4168 270.459 16.5104 268.243 16.6242 266.028C17.0227 258.285 17.8189 250.573 18.8594 242.892L19.2656 239.927C20.0241 234.415 20.8568 228.777 22.5524 223.468C21.8922 223.139 21.2339 222.808 20.5781 222.476C19.4149 221.887 18.2121 221.334 17.0814 220.684C16.1844 220.168 15.4107 219.46 15.161 218.416C14.8825 217.252 15.3084 215.98 15.5913 214.845L15.6159 214.745C15.8933 213.602 16.192 212.464 16.5072 211.331C17.7854 206.737 19.3659 202.232 21.2155 197.837C24.919 189.038 29.6994 180.679 35.5386 173.121C40.7947 166.317 47.0039 160.147 54.2812 155.52C57.839 153.258 61.6304 151.4 65.64 150.087C67.5142 149.473 69.5533 148.939 71.5156 148.72C72.574 148.601 73.634 148.533 74.6975 148.487ZM93.7356 134.544C95.0125 133.173 97.5494 134.592 96.9363 136.408C95.4942 140.682 93.1977 144.58 89.6137 147.388C86.2449 150.027 82.2276 151.742 77.9013 151.376C77.8679 151.373 77.839 151.364 77.8134 151.352L78.1862 151.858C81.1133 155.819 84.2012 159.725 87.923 162.963C95.506 169.559 105.831 173.117 115.8 170.586C123.644 168.595 130.555 162.39 132.587 154.482C132.296 154.613 131.95 154.658 131.57 154.575C129.943 154.222 128.334 152.511 127.285 151.284C126.15 149.957 125.264 148.524 124.615 146.904C123.426 143.94 123.045 140.123 124.668 137.252C124.868 136.898 125.33 137.096 125.37 137.442L125.431 137.981C125.744 140.672 126.134 143.275 127.402 145.729C128.023 146.929 128.767 148.101 129.673 149.106C130.157 149.644 130.683 150.158 131.25 150.609C131.803 151.049 132.472 151.366 132.967 151.871L133.058 151.967L133.061 151.95C133.186 150.885 133.933 150.415 134.664 150.445C135.371 150.473 136.201 150.784 136.523 150.934L136.554 150.948C141.487 153.317 146.031 156.405 150.307 159.831C159.15 166.917 165.775 176.179 168.986 187.086C170.561 192.44 171.465 197.956 172.42 203.446L173.007 206.81C173.898 211.878 174.893 217.047 176.904 221.762C177.424 222.981 177.023 224.125 175.748 224.605C174.155 225.204 172.557 225.784 170.956 226.356C171.742 229.73 172.221 233.221 172.81 236.611C174.062 243.818 175.596 250.979 176.911 258.176C177.584 261.856 178.191 265.549 178.862 269.229C179.186 271.001 179.524 272.771 179.852 274.543C180.029 275.498 180.189 276.456 180.358 277.413L180.387 277.572C180.484 278.076 180.605 278.598 180.467 279.103C180.308 279.679 179.859 280.086 179.458 280.499C179.128 280.839 178.65 280.841 178.246 280.656L178.113 280.594C177.39 280.256 176.824 279.919 176.568 279.103C176.405 278.587 176.347 278.005 176.241 277.473C176.037 276.454 175.845 275.433 175.662 274.409C175.298 272.36 174.942 270.31 174.595 268.258L174.271 266.337C173.157 259.715 172.1 253.054 171.565 246.362C171.328 243.394 171.077 240.428 170.823 237.461L170.633 235.236C170.392 232.42 170.098 229.533 170.056 226.678L169.099 227.018V227.018L164.427 228.67V228.67C163.269 229.08 161.795 229.919 160.548 229.766C159.938 229.691 159.473 229.499 159.114 229.15C159.544 235.223 160.126 241.285 160.902 247.316C161.608 252.804 162.391 258.285 163.315 263.74C163.773 266.442 164.244 269.141 164.755 271.832C165.01 273.179 165.274 274.523 165.545 275.866C165.681 276.536 165.842 277.206 165.948 277.882C166.069 278.655 165.856 279.131 165.424 279.768C165.069 280.29 164.359 280.559 163.784 280.198C163.022 279.72 162.625 279.305 162.401 278.434C162.197 277.643 162.073 276.817 161.915 276.016C161.625 274.537 161.343 273.056 161.072 271.574C160.504 268.473 159.981 265.364 159.514 262.246C157.867 251.263 156.822 240.187 156.294 229.093C156.034 223.62 155.953 218.142 155.999 212.663C156.023 209.854 156.115 207.038 156.313 204.236C156.514 201.401 156.933 198.622 157.306 195.813C157.319 195.714 157.459 195.709 157.465 195.813C157.641 198.962 157.919 202.107 158.055 205.264C158.184 208.276 158.241 211.293 158.344 214.307C158.48 218.268 158.667 222.231 158.916 226.192C159.366 225.7 160.045 225.415 160.724 225.526C161.708 225.32 162.766 224.804 163.704 224.49L167.24 223.309V223.309C169.098 222.688 170.957 222.071 172.822 221.473C171.154 215.861 170.012 210.165 169.037 204.386L168.602 201.788C167.74 196.672 166.812 191.554 165.252 186.6C163.613 181.392 161.159 176.55 157.904 172.165C154.696 167.844 150.792 164.039 146.773 160.48C143.332 157.433 139.651 154.682 136.141 151.719C136.178 151.915 136.186 152.131 136.154 152.369C135.407 157.832 132.559 162.92 128.588 166.704C120.612 174.307 108.805 175.884 98.5958 172.319C88.7205 168.871 79.9894 160.704 76.9047 150.597C76.8519 150.425 77.0835 150.356 77.1764 150.483C77.3475 150.718 77.5195 150.952 77.6917 151.187C77.6801 151.094 77.7285 150.992 77.8434 150.948C81.4425 149.557 84.9768 147.586 87.6747 144.797C88.9897 143.437 90.1373 141.897 91.0432 140.235C91.4771 139.44 91.8669 138.616 92.1779 137.764L92.2569 137.544C92.6338 136.477 92.9488 135.389 93.7356 134.544Z" fill="black"/>
<path fill-rule="evenodd" clip-rule="evenodd" d="M72.9219 59.6854C74.0152 58.5093 75.4136 57.633 76.9422 57.353C75.5449 58.0528 74.179 58.7821 72.9219 59.6854ZM70.7803 69.8269C70.587 68.9305 70.4571 68.0255 70.4162 67.1207C70.6606 67.4931 71.0508 67.7419 71.4891 67.8704C71.206 68.5059 70.9652 69.1607 70.7803 69.8269ZM143.94 83.8803C142.678 78.614 136.79 68.4846 135.398 66.535C133.887 61.7075 142.129 57.8361 137.647 54.0612C135.617 52.3579 132.935 51.7552 130.419 51.1511C112.999 46.9571 94.2828 49.0723 78.1262 56.7847C75.6687 56.2662 73.1082 57.2794 71.3211 59.059C62.9251 67.5189 74.3673 82.7831 76.8693 92.3205C81.162 102.955 72.3193 104.744 73.2676 113.742C74.0044 118.39 78.7009 119.619 82.6642 120.321C83.2994 120.47 84.1485 120.493 84.3535 121.166C84.9956 125.095 87.197 128.839 90.1525 131.381C89.8941 132.148 90.0914 133.08 91.0028 133.754C99.2603 139.906 109.672 142.985 119.971 142.431C132.245 141.772 138.592 134.719 140.124 132.904C148.592 121.438 147.58 106.311 145.853 92.6476C144.649 83.1293 146.175 93.2093 143.94 83.8803Z" fill="#FDC6A0"/>
<path fill-rule="evenodd" clip-rule="evenodd" d="M106.095 40.0597C106.481 38.8507 107.573 38.1237 108.823 38.2738C109.93 38.4048 111.114 39.5059 110.98 40.7212C110.954 40.9558 110.92 41.1756 110.88 41.3827L110.886 41.3846V41.3846L110.891 41.3848L110.864 41.4651C110.781 41.8519 110.667 42.1985 110.499 42.5261C110.284 43.1538 110.077 43.7837 109.873 44.4156C110.168 44.4029 110.469 44.4198 110.775 44.4769C111.091 43.6653 111.41 42.8558 111.726 42.0421C112.065 41.1735 112.303 40.0575 112.974 39.3855C113.832 38.5274 115.32 38.3498 116.366 38.9628C117.471 39.6095 117.865 40.7592 117.625 41.9914C117.502 42.6199 117.084 43.0573 116.565 43.3321L116.509 43.361L116.111 44.3078C116.233 44.255 116.36 44.2064 116.497 44.1662C116.712 44.1028 116.923 44.0626 117.129 44.0457C117.698 43.0122 118.325 42.0083 118.972 41.0234C119.716 39.8906 121.171 39.4087 122.391 40.1252C123.483 40.7656 124.069 42.4479 123.287 43.5533C122.693 44.3923 122.13 45.2483 121.575 46.1127C121.67 46.1296 121.765 46.1508 121.856 46.1783C121.898 46.1212 121.942 46.0641 121.989 46.0071C122.594 45.2547 123.298 44.6903 124.021 44.0647C124.698 43.4772 125.01 42.5536 125.899 42.1076C127.019 41.5476 128.368 41.816 129.034 42.9319C130.464 45.3223 128.065 47.068 126.53 48.5158C127.864 47.681 129.254 46.918 130.679 46.2586C131.48 45.8887 132.294 45.5315 133.12 45.2229C134.345 44.7664 135.336 44.9125 136.341 45.7619C136.79 46.1423 137.014 46.9731 136.807 47.5267C136.407 48.5876 135.774 49.2323 134.665 49.5387C133.885 49.7543 133.086 49.9001 132.306 50.1263C130.999 50.5025 129.73 50.9611 128.499 51.5339C128.587 51.5888 128.672 51.648 128.75 51.7156C129.669 51.4176 130.605 51.1598 131.545 50.94C133.105 50.5734 134.692 50.3257 136.286 50.1708L136.816 50.1214C138.727 49.9375 141.025 49.5982 142.198 51.4324C142.584 52.0369 142.626 53.0345 142.198 53.6326C141.38 54.7823 140.566 55.0106 139.213 55.0317C140.545 55.1733 141.875 55.3487 143.199 55.5538C144.112 55.6932 145.025 55.8514 145.933 56.0268L146.387 56.1159C147.494 56.3379 148.729 56.4668 149.68 57.1093C151.755 58.5127 150.781 61.2454 148.483 61.5371C147.372 61.6766 146.138 61.2053 145.048 60.9855C143.99 60.772 142.927 60.5839 141.861 60.419C141.308 60.3324 140.756 60.2563 140.202 60.1865C141.329 60.3493 142.449 60.5797 143.539 60.9051L143.842 60.9967C145.949 61.6405 148.793 62.6659 149.45 64.9229C149.849 66.2946 148.759 67.4908 147.439 67.5711C146.212 67.6451 145.19 66.9117 144.148 66.3707C143.389 65.9775 142.618 65.6838 141.8 65.4323C140.954 65.1723 140.092 64.9567 139.223 64.7813C139.957 65.1867 140.672 65.6323 141.358 66.1308L141.674 66.3644C143.498 67.7268 146.279 69.8361 145.637 72.3899C145.434 73.1952 144.538 73.9645 143.678 73.882C141.439 73.6728 140.204 71.2824 138.515 70.0017C138.074 69.6677 137.592 69.338 137.086 69.0168C139.645 72.0771 141.681 75.6151 143.231 79.2694C146.637 87.3087 147.681 94.7537 147.706 103.398L147.707 103.666C147.711 108.434 147.603 113.288 147.14 118.035C146.71 122.421 145.921 126.749 143.937 130.721C140.613 137.38 134.134 142.567 126.989 144.541C119.039 146.739 110.153 145.02 103.641 139.948C101.98 138.655 104.183 135.846 105.88 137.04C112.658 141.806 121.424 143.315 129.203 140.09C135.374 137.532 140.343 132.031 142.449 125.697C143.789 121.667 144.18 117.37 144.658 113.171L144.69 112.891C145.196 108.499 145.489 104.078 145.485 99.6562C145.478 91.4453 144.302 84.6863 140.699 77.2383C139.004 73.7299 136.805 70.4859 134.178 67.6388C133.381 67.8015 132.534 67.5732 131.729 67.4866C131.317 67.4422 130.906 67.3999 130.495 67.3619C130.915 67.6341 131.327 67.9171 131.732 68.2068L132.263 68.5907C133.925 69.7836 136.033 71.1424 135.606 73.4488C135.49 74.0723 134.87 74.645 134.269 74.7866C132.091 75.3065 130.594 73.1846 129.123 71.9249C127.843 70.8301 126.504 69.8495 125.14 68.8667C124.831 68.6448 124.518 68.4229 124.204 68.2031C124.5 68.548 124.787 68.8983 125.067 69.2519L125.481 69.778C126.733 71.3494 128.539 73.392 127.424 75.4291C127.107 76.004 126.433 76.3865 125.779 76.3739C123.532 76.3274 122.638 73.77 121.584 72.1553C120.677 70.771 119.693 69.4669 118.675 68.1629C118.394 67.8057 118.112 67.4485 117.825 67.0914C113.105 67.3365 108.401 67.9621 103.78 68.9618C100.605 69.6487 97.4827 70.5387 94.3836 71.5128L94.1261 71.5949C92.4489 72.1363 90.7208 72.8292 89.5115 74.0173C89.3389 74.8359 89.4714 75.6992 89.6365 76.5168L89.7652 77.1425C90.2955 79.7592 90.6568 82.3274 90.3864 85.0139C90.106 87.7847 89.2733 90.2765 88.2571 92.8507C87.7764 94.0639 87.2789 93.8441 87.1081 95.146C86.9773 96.1377 87.0582 97.1614 87.1476 98.1614L87.2223 99.0091C87.4097 101.23 87.5038 103.651 86.0519 105.483C85.8263 105.764 85.3436 105.652 85.1833 105.371C85.1201 105.259 85.0526 105.151 84.9788 105.048C84.2789 104.031 83.2058 103.452 81.9788 103.228C81.8228 103.201 81.884 102.991 82.0147 102.974C83.0519 102.852 84.0344 103.112 84.8692 103.649C84.4733 102.276 81.4083 102.944 80.4008 103.21L80.3661 103.22C79.1096 103.558 77.9205 104.107 76.8727 104.885C74.7645 106.449 73.546 108.888 73.6071 111.515C73.6682 114.098 74.9985 116.484 77.2838 117.72C78.3864 118.316 79.6408 118.604 80.8889 118.591C82.1918 118.578 83.3513 118.006 84.6563 118.086C85.411 118.132 85.9887 118.944 85.5523 119.652C85.2613 120.125 84.8819 120.497 84.4434 120.783C85.5122 123.253 86.8762 125.61 88.449 127.785C89.3197 128.992 90.3063 130.105 91.392 131.122C92.2395 131.917 94.0758 132.836 93.9725 134.161C93.9367 134.639 93.69 134.931 93.2557 135.108C91.9055 135.661 90.2637 133.756 89.3606 132.837L89.288 132.764C88.1622 131.64 87.1355 130.397 86.2417 129.078C84.6563 126.737 83.6717 124.097 83.2649 121.324C81.0997 121.977 78.2325 121.364 76.4659 120.563C70.9128 118.048 69.0976 110.551 72.4729 105.559C73.1264 104.593 73.9444 103.767 74.8763 103.099C74.6718 102.987 74.4799 102.843 74.3091 102.662C73.3645 101.656 72.6966 100.343 72.0338 99.133L71.9543 98.9883C71.3658 97.9231 70.8107 96.8412 70.2904 95.7426L70.0969 95.3299C68.9353 92.8254 67.917 91.7306 67.0885 89.0972C66.2916 86.5567 65.6633 83.9677 65.2565 81.3343L65.1483 80.6372C64.913 79.1091 64.6905 77.4751 64.8622 75.9237C63.6795 76.3105 62.4905 76.5493 61.3204 75.9681C60.5488 75.5855 60.1229 74.4696 60.3865 73.6686C60.5783 73.0789 60.8988 72.6161 61.3056 72.2525C61.0632 72.13 60.8355 71.9736 60.6352 71.8002L60.4603 71.6483V71.6483C59.7519 71.0309 59.7013 69.8579 60.1314 69.0844C60.1735 69.0104 60.2157 68.9343 60.2558 68.8604C60.6647 68.127 61.5101 67.6472 62.345 67.6599C62.4799 67.662 62.6149 67.662 62.7519 67.6599C62.3619 67.5732 61.9803 67.4401 61.6177 67.2161C59.9817 66.2079 60.1883 63.4752 62.1679 62.9933C62.9985 62.7925 63.9156 62.8749 64.8306 63.0905C64.7969 63.0715 64.7631 63.0525 64.7294 63.0313C64.0379 62.6065 63.4581 61.7759 63.5235 60.9242C63.5952 59.9815 63.8988 59.3094 64.7294 58.8149C65.4504 58.388 66.4708 58.3478 67.1876 58.8149C67.8095 59.2228 68.4188 59.673 69.0049 60.157C68.4167 59.432 67.9065 58.6437 67.6999 57.8067C67.4448 56.7648 67.8706 55.6298 68.8067 55.0803C69.553 54.6428 70.3415 54.6914 71.0456 55.0296C71.0077 54.4822 71.1405 53.9242 71.5031 53.4297C72.2452 52.4154 73.5945 51.8319 74.7687 52.5716C74.9226 52.6688 75.1292 52.8358 75.3295 53.0408C74.9395 51.7959 75.2916 50.4898 76.6219 49.9276C77.4335 49.5831 78.5319 49.7564 79.2361 50.3503C78.7891 47.9261 82.3583 46.1444 83.7455 48.6489C84.0604 49.2163 84.3719 49.8137 84.6504 50.4249L84.7533 50.6547L84.7638 50.6504L84.6929 50.4824V50.4824L84.6204 50.3144C84.2346 49.4161 83.7434 48.482 83.6085 47.5076C83.4103 46.0662 84.0512 44.6988 85.6155 44.4874C86.423 44.3775 87.3211 44.7453 87.8629 45.388C87.5698 43.1517 90.0618 41.5264 91.8558 43.1961C92.7055 43.9865 93.1587 45.1426 93.6984 46.1571C94.0041 46.7299 94.3161 47.3005 94.6218 47.8754C94.6998 47.7824 94.7842 47.6894 94.8727 47.5985C94.4194 46.2374 94.0674 44.8425 93.7701 43.4392C93.4876 42.1161 94.1475 40.7423 95.5094 40.3684C96.7469 40.0258 98.2965 40.7911 98.5726 42.1121C98.7666 43.0418 98.9964 43.9614 99.2494 44.8763C99.4222 44.8341 99.593 44.8045 99.7617 44.7833C99.7757 44.6114 99.7917 44.4386 99.8095 44.2667L99.8758 43.6553C100.023 42.2584 100.172 40.6638 100.9 39.4763C102.142 37.4474 105.325 38.2885 105.359 40.6874C105.378 41.928 104.874 43.1581 104.699 44.386C104.623 44.9207 104.579 45.4618 104.554 46.0028C104.893 44.2064 105.359 42.4331 105.899 40.6874C105.962 40.4781 106.029 40.2689 106.095 40.0597ZM78.6289 109.336C81.4223 108.903 83.9753 110.465 85.6303 112.652C85.9317 113.052 85.7336 113.616 85.4616 113.952C85.2655 114.199 85.002 114.229 84.7048 114.267C84.3632 114.311 83.931 114.034 83.7814 113.736C82.7167 111.606 80.8172 110.26 78.6289 109.431C78.5888 109.416 78.5762 109.345 78.6289 109.336ZM82.5012 71.1653L82.5858 71.0743C83.151 70.4865 82.2578 69.5887 81.6913 70.1777C81.0949 70.7978 80.6985 71.5511 80.3174 72.3145C79.9541 73.0424 81.0449 73.6853 81.4096 72.9546L81.5757 72.6226C81.8364 72.1062 82.1143 71.596 82.5012 71.1653V71.1653ZM74.6564 69.959C75.4575 69.8237 75.1179 68.6015 74.3201 68.7363C73.2867 68.9109 72.2572 69.1093 71.2236 69.2841C70.4226 69.4194 70.7623 70.6416 71.56 70.507C72.5935 70.3322 73.6229 70.1337 74.6564 69.959ZM122.38 61.6146C121.606 61.3557 121.274 62.5801 122.043 62.8375C123.107 63.1932 124.162 63.5578 125.171 64.0517C125.9 64.4085 126.542 63.3152 125.809 62.9567C124.702 62.4146 123.547 62.0052 122.38 61.6146ZM74.4742 59.9712C73.7184 59.6681 73.3902 60.8941 74.138 61.1941L76.8702 62.2895V62.2895C77.626 62.5926 77.9543 61.3667 77.2065 61.0668L74.4742 59.9712V59.9712ZM131.92 56.9938L131.821 56.9307C131.135 56.4856 130.501 57.5829 131.182 58.0257C131.582 58.2855 132.068 58.4617 132.435 58.7712L132.511 58.8396C133.103 59.3997 133.999 58.5048 133.406 57.9429C132.972 57.5321 132.422 57.3034 131.92 56.9938V56.9938Z" fill="black"/>
<path fill-rule="evenodd" clip-rule="evenodd" d="M112.007 124.857C113.697 121.475 129.202 122.995 129.202 122.995L130.512 133.744C130.512 133.744 123.031 136.15 118.577 135.646C114.124 135.142 110.316 128.238 112.007 124.857Z" fill="white"/>
<path fill-rule="evenodd" clip-rule="evenodd" d="M113.099 130.503C112.564 129.356 123.648 126.23 127.08 128.366C130.512 130.503 129.439 133.416 129.439 133.416C129.439 133.416 115.004 136.71 113.099 130.503Z" fill="#FF8181"/>
<path fill-rule="evenodd" clip-rule="evenodd" d="M111.045 122.856C113.633 119.848 117.99 119.639 121.599 120.391C123.916 120.873 126.171 121.677 128.524 121.975C129.623 122.115 130.733 122.156 131.84 122.136C132.927 122.116 134.016 121.897 135.099 121.937C135.266 121.944 135.329 122.162 135.185 122.251C133.698 123.165 131.696 123.457 129.94 123.636C129.946 123.766 129.954 123.893 129.972 124C130.02 124.287 130.063 124.572 130.099 124.861C130.178 125.512 130.268 126.161 130.356 126.811C130.532 128.09 130.587 129.409 130.895 130.666L130.949 130.875C131.02 131.139 131.037 131.378 131.013 131.592L131.084 131.56L131.31 131.451L131.458 131.381C131.997 131.131 132.512 130.948 133.146 131.009C133.629 131.055 134.035 131.385 134.038 131.901C134.05 134.216 130.931 134.961 129.147 135.404L128.623 135.533C126.352 136.087 124.034 136.573 121.698 136.689C117.95 136.875 113.738 135.841 111.286 132.799C108.998 129.961 108.578 125.723 111.045 122.856ZM128.067 132.584C127.674 129.098 123.392 128.906 122.16 131.117C121.614 128.035 113.527 130.85 114.159 131.463C116.556 133.785 120.193 133.994 123.32 133.564C124.912 133.346 126.505 132.99 128.067 132.584ZM123.315 123.447L122.239 123.292L121.815 123.234C119.146 122.876 116.144 122.692 113.95 124.403C113.149 125.028 112.698 125.843 112.53 126.718C114.606 126.411 116.69 126.176 118.78 125.98L119.35 125.928C120.658 125.81 121.965 125.686 123.271 125.555L124.2 125.461L125.128 125.365C125.455 125.33 127.656 125.218 128.07 125.293C128.114 124.921 128.172 124.116 128.265 123.754C126.701 123.808 125.144 123.691 123.589 123.485L123.315 123.447ZM128.271 107.866C129.866 108.836 132.297 111.098 130.581 113.503C128.56 115.624 125.652 113.193 124.219 112.093C122.89 111.241 121.396 113.433 122.629 114.428C132.987 122.099 137.19 108.12 129.078 106.726C128.184 106.572 127.853 107.566 128.271 107.866ZM131.126 111.953L131.202 111.911L131.228 111.896C131.273 111.867 131.245 111.87 131.143 111.905L131.066 111.933V111.987C131.086 111.975 131.107 111.966 131.126 111.953ZM110.694 103.334L110.694 103.287C110.697 101.939 111.481 98.8617 113.421 98.8617C114.632 98.8617 115.368 100.956 115.495 103.115L115.5 103.203C115.556 104.545 115.188 107.479 113.421 107.479C111.635 107.479 110.712 104.7 110.694 103.334V103.334ZM139.248 102.912L139.248 102.864C139.245 101.516 138.46 98.439 136.521 98.439C135.34 98.439 134.611 100.43 134.457 102.53L134.446 102.692C134.37 103.989 134.714 107.056 136.521 107.056C138.307 107.056 139.229 104.277 139.248 102.912V102.912ZM111.8 89.6727C113.383 89.432 115.479 89.8893 116.217 91.4994C116.546 92.2167 116.157 93.0099 115.328 93.0497C113.325 93.1456 111.528 92.6997 109.77 94.0026C109.014 94.5635 108.377 95.34 107.844 96.1146L107.642 96.4094L107.474 96.6522C107.112 97.1854 106.769 97.7646 106.822 98.4078C106.838 98.5982 106.643 98.779 106.459 98.7713C105.306 98.724 105.182 97.2788 105.334 96.4108C105.616 94.7999 106.395 93.2877 107.475 92.0696C108.61 90.7905 110.107 89.9304 111.8 89.6727ZM133.601 91.6278C134.692 90.9259 136.088 90.6562 137.367 90.7596C139.888 90.9627 144.117 93.1066 143.561 96.1871C143.389 97.1371 142.068 97.6384 141.29 97.1113C140.453 96.5447 140.249 95.664 139.627 94.9234C139.13 94.3318 138.5 93.9038 137.825 93.5393C137.161 93.1797 136.392 92.9617 135.637 92.8823L135.512 92.8703C135.058 92.8317 132.765 92.842 133.102 93.6982C133.168 93.8658 132.918 93.9985 132.804 93.8717C132.101 93.0939 132.897 92.0805 133.601 91.6278Z" fill="black"/>
</g>
<defs>
<clipPath id="clip0_2016_14105">
<rect width="200" height="267" fill="white"/>
</clipPath>
</defs>
</svg>
