<svg width="200" height="267" viewBox="0 0 200 267" fill="none" xmlns="http://www.w3.org/2000/svg">
<g clip-path="url(#clip0_2016_14110)">
<rect width="200" height="267" fill="white"/>
<path fill-rule="evenodd" clip-rule="evenodd" d="M92.7068 140.051L90.122 146.444L91.5462 166.706L92.6059 166.871C103.798 168.607 111.403 169.483 115.421 169.501L115.545 169.501C119.592 169.501 124.441 168.597 130.092 166.789L130.35 166.706L131.002 151.534H129.463L126.681 145.007L126.683 145.005C126.714 145.057 126.746 145.108 126.779 145.157C127.939 146.874 128.612 145.487 131.337 146.095C134.601 146.822 136.05 150.121 138.923 152.587C140.257 153.732 143.057 154.272 144.397 155.059L145.805 155.887C150.215 158.489 155.284 161.65 157.946 165.768C161.066 170.596 163.216 175.177 165.202 180.548C169.483 192.123 172.454 203.935 174.577 216.083C176.729 228.395 178.022 240.859 179.01 253.314C179.468 259.086 179.856 264.862 180.178 270.643L180.257 272.088C180.426 275.234 180.279 278.311 177.42 280.248C175.372 281.636 172.654 281.847 170.251 281.989L170.12 281.997C152.354 283.039 134.587 284.074 116.821 285.111L90.1713 286.67C85.737 286.93 81.3028 287.188 76.8685 287.444L66.0447 288.069C60.9433 288.36 55.8358 288.611 50.7276 288.581C44.3008 288.544 37.9013 288.069 31.5337 287.212L30.972 287.136C26.9659 286.582 21.1573 285.182 20.4377 280.376C20.3344 279.686 20.9416 279.255 21.4514 279.354C21.2836 278.572 21.1795 277.788 21.08 277.108C20.653 274.199 20.3849 271.273 20.2525 268.337C19.9867 262.462 20.2106 256.559 20.7977 250.71C21.769 241.032 23.1306 231.372 24.5374 221.745L24.8507 219.606C26.3471 209.407 28.1287 199.225 30.9166 189.29C33.492 180.112 37.5096 170.565 43.0378 164.761C48.566 158.958 56.448 153.916 64.547 150.828C65.2484 150.56 79.1836 147.508 80.1224 147.952L80.291 147.82C83.0693 145.626 87.0327 141.772 91.1133 142.985L91.1227 142.97C91.2189 142.793 91.5958 141.609 92.1166 140.051L92.7068 140.051Z" fill="#8FA7DF"/>
<path fill-rule="evenodd" clip-rule="evenodd" d="M95.654 131.543C99.0292 127.262 102.587 125.902 107.844 126.221C111.409 126.093 114.965 127.019 117.984 129.064C120.75 130.51 123.202 132.5 124.953 135.062C126.451 137.252 125.313 142.665 126.681 145.007C126.667 145.262 126.66 145.494 126.66 145.704C126.66 147.731 128.07 149.992 130.89 152.489L131.002 152.587V167.314C126.261 168.772 120.392 169.501 113.395 169.501C106.501 169.501 99.3313 168.344 91.8848 166.028L91.5462 165.922L90.1221 149.916L91.5462 145.487L91.546 141.778L92.0963 140.118C93.0707 137.201 94.5624 132.928 95.654 131.543Z" fill="#FDC6A0"/>
<path fill-rule="evenodd" clip-rule="evenodd" d="M91.5459 165.922C91.5459 165.922 104.062 169.568 112.607 169.568C121.152 169.568 130.349 165.922 130.349 165.922L128.857 285.95L104.842 286.244L91.5459 165.922Z" fill="#9FD8E5"/>
<path fill-rule="evenodd" clip-rule="evenodd" d="M50.3435 218.33C50.251 218.157 50.4656 218.001 50.608 218.126C53.8432 220.966 55.5369 225.527 55.892 229.743C56.2683 234.214 55.7349 238.843 55.531 243.311C55.3041 248.289 55.1002 253.269 54.8232 258.244C54.542 263.292 54.2391 268.338 53.9794 273.387L53.3953 284.745V284.745C53.3332 285.955 53.4677 287.444 53.0034 288.573C52.2838 290.325 50.1464 290.053 49.6971 288.59L49.6831 288.542L49.6421 288.573C49.2458 287.254 49.5424 285.688 49.6096 284.324L50.2216 271.915V271.915C50.654 263.144 51.0397 254.373 51.5041 245.603L51.662 242.68C51.8792 238.745 52.0457 234.82 52.1794 230.887L52.2227 229.575C52.3497 225.625 52.2489 221.896 50.3435 218.33ZM128.768 145.517C130.57 145.346 131.931 145.944 133.568 146.574C134.281 146.848 134.956 147.164 135.639 147.492C136.496 147.903 137.046 148.629 137.573 149.397L137.855 149.811C140.05 153.028 141.527 156.74 143.193 160.243C145.143 164.341 147.111 168.43 149.019 172.548L149.96 174.576C150.431 175.59 150.9 176.605 151.362 177.623L152.161 179.395C152.963 181.193 153.682 183.094 152.539 184.948C151.476 186.672 149.59 188.006 148.098 189.339C146.853 190.451 145.607 191.563 144.361 192.674C146.937 195.254 148.665 198.502 149.682 201.986C151.125 201.384 152.887 201.269 154.38 201.008C156.47 200.644 156.726 203.809 154.754 203.77C153.297 203.741 151.589 203.89 150.095 203.583C150.354 204.728 150.543 205.89 150.662 207.055C151.29 213.162 149.918 219.305 148.487 225.213L148.37 225.699C146.816 232.094 145.342 238.506 144.024 244.955C142.703 251.417 141.515 257.906 140.46 264.418C139.386 271.045 138.627 277.709 137.81 284.371C137.687 285.379 137.052 286.244 135.939 286.244C135.011 286.244 133.95 285.377 134.067 284.371C134.909 277.116 136.104 269.899 137.291 262.693C139.336 250.284 141.909 237.983 144.87 225.763L145.387 223.635C146.719 218.115 147.928 212.428 147.26 206.735C146.715 202.099 144.778 197.157 140.948 194.277L140.832 194.191C139.937 193.534 139.593 192.279 140.474 191.415C141.035 190.865 141.596 190.316 142.158 189.767L145.529 186.474L146.208 185.809C146.775 185.256 147.344 184.706 147.931 184.173C148.286 183.85 149.248 183.235 149.318 182.704C149.364 182.358 148.954 181.75 148.788 181.431L148.027 179.895V179.895C147.595 179.019 147.177 178.136 146.755 177.255C145.88 175.43 144.993 173.61 144.138 171.776L139 160.762V160.762C137.551 157.655 136.259 154.374 134.364 151.502L133.991 150.942C133.679 150.47 133.403 150.017 133.206 149.44C133.017 148.885 132.779 148.276 132.428 147.803C131.608 146.691 130.039 146.061 128.726 145.828C128.536 145.795 128.605 145.533 128.768 145.517ZM89.2498 142.624C89.3639 142.624 89.3812 142.787 89.276 142.819C87.6923 143.295 86.179 144.064 84.9444 145.173C84.3537 145.704 83.7589 146.307 83.3943 147.022C83.2547 147.295 83.1775 147.584 83.1209 147.884L83.1027 147.984C83.0087 148.525 82.874 148.826 82.5991 149.26L82.552 149.333C80.9829 151.757 79.8832 154.45 78.8778 157.145L76.6883 163.023V163.023L74.5001 168.902C73.7951 170.796 73.0897 172.69 72.3845 174.585C71.9949 175.63 71.5944 176.672 71.194 177.713C71.0208 178.164 70.8344 178.612 70.676 179.069C70.6542 179.131 70.5849 179.507 70.533 179.599L70.5507 179.63V179.63C70.992 180.372 72.169 180.993 72.8362 181.532L75.1335 183.39V183.39C76.7715 184.715 78.4515 186.003 80.0402 187.387C81.0382 188.256 80.4173 189.813 79.3044 190.176C77.4393 190.783 75.612 191.511 73.7749 192.199C73.0327 192.476 72.26 192.718 71.5265 193.024L71.08 193.217C70.9056 193.296 70.9895 193.295 70.9965 193.617C71.0034 193.955 71.0991 194.307 71.1541 194.639C71.7729 198.382 72.4289 202.118 73.1212 205.848C75.5702 219.039 78.4961 232.133 81.833 245.127C83.5185 251.689 85.3261 258.218 87.0486 264.77C88.7668 271.305 91.0276 277.745 93.1863 284.145C93.7954 285.95 90.9346 286.727 90.3406 284.93C87.8527 277.403 85.5767 269.81 83.2263 262.241C79.0504 248.79 75.7597 235.048 72.8493 221.272C71.4068 214.445 70.0874 207.591 68.8925 200.716C68.6662 199.414 68.4443 198.112 68.227 196.809L67.9103 194.892C67.6932 193.526 67.5696 192.103 68.6311 191.021C69.6677 189.966 71.4471 189.592 72.8111 189.097L72.9101 189.061C73.778 188.737 74.6522 188.425 75.5231 188.103C74.2403 187.092 72.9733 186.06 71.6937 185.05C70.6614 184.236 69.6129 183.438 68.5954 182.604C67.7565 181.917 67.0724 181.035 66.9849 179.917C66.8957 178.775 67.385 177.715 67.7797 176.667L67.8175 176.566C68.205 175.52 68.5935 174.475 68.992 173.433L71.4575 166.982V166.982C73.0242 162.884 74.5249 158.752 76.1727 154.685C76.8247 153.076 77.5352 151.492 78.3748 149.97C78.7796 149.237 79.2137 148.519 79.6855 147.826C80.2141 147.05 80.6939 146.671 81.513 146.243C82.8226 145.558 83.8504 144.409 85.1656 143.703C86.4564 143.01 87.7844 142.64 89.2498 142.624ZM93.5014 135.312C93.5515 135.226 93.6842 135.264 93.6859 135.362C93.7201 137.399 93.2363 139.48 92.9386 141.495C92.6397 143.516 92.5437 145.65 92.1113 147.649C92.1023 147.742 92.0843 147.834 92.0589 147.924L92.0382 147.993V147.993C91.8556 148.553 91.3809 149.028 90.7985 149.177C90.9816 150.192 91.1542 151.209 91.2994 152.231C91.5487 153.989 91.7762 155.749 92 157.51L92.2678 159.623C92.5207 161.614 92.7666 163.606 93.0098 165.599C93.6282 165.857 94.2592 166.071 94.9055 166.256C96.3939 166.682 97.9184 166.855 99.4543 167.006C102.582 167.313 105.734 167.455 108.873 167.629L109.546 167.667C113.075 167.869 116.623 167.905 120.143 167.543C121.888 167.363 123.62 167.062 125.322 166.635C126.187 166.418 127.028 166.094 127.891 165.881C128.177 165.811 128.433 165.649 128.72 165.475C128.848 165.314 129.026 165.192 129.259 165.145L129.322 165.134V165.134L129.385 165.125L129.406 165.116L129.404 165.122C129.581 165.098 129.749 165.099 129.907 165.12C129.97 163.567 130.038 162.013 130.124 160.46C130.353 156.289 130.987 151.938 130.141 147.803C130.113 147.664 130.302 147.615 130.351 147.745C132.012 152.122 131.825 156.909 131.909 161.516C131.991 166.021 131.941 170.53 131.919 175.036C132.242 175.173 132.529 175.36 132.757 175.621C133.213 176.143 133.344 177.05 132.757 177.554C132.497 177.778 132.21 177.933 131.905 178.04C131.889 181.955 131.861 185.871 131.822 189.786C132.566 190.361 132.635 191.726 131.793 192.294C131.653 204.972 131.423 217.651 131.232 230.328L130.832 256.924V256.924C130.779 260.467 130.69 264.01 130.659 267.553L130.684 267.563V267.563L130.772 267.604C130.922 267.674 131.143 267.788 131.189 267.904C131.201 267.934 131.205 267.955 131.203 267.97C131.447 268.005 131.689 268.12 131.899 268.319C132.415 268.81 132.31 269.55 131.899 270.051L131.789 270.184V270.184C131.532 270.496 131.045 270.616 130.646 270.553C130.651 272.764 130.665 274.976 130.658 277.187C130.655 277.863 130.645 278.538 130.634 279.213L130.606 280.833C130.587 281.757 130.505 282.932 129.559 283.347C128.492 283.816 127.534 283.432 127.102 282.347C126.985 282.053 127.01 281.78 127.053 281.489C127.04 281.053 126.971 280.547 126.98 280.142L127.015 278.454V278.454C127.021 278.193 127.031 277.933 127.038 277.673L127.008 277.676V277.676C123.214 277.86 119.395 277.77 115.595 277.768L113.905 277.77C112.496 277.772 111.083 277.764 109.675 277.71L109.147 277.688C108.093 277.638 106.985 277.622 105.892 277.528C106.031 278.65 106.161 279.773 106.277 280.897C106.387 281.963 105.287 282.868 104.306 282.868C103.142 282.868 102.475 281.952 102.336 280.897C101.677 275.918 101.408 270.893 100.779 265.912C100.216 261.45 99.7273 256.977 99.2309 252.507L99.0649 251.017C97.248 234.748 95.4839 218.473 93.7966 202.19L93.0109 194.578C92.2175 186.906 91.4194 179.234 90.7463 171.55C90.3614 167.158 90.0066 162.764 89.6728 158.367C89.428 155.137 89.2742 151.925 89.174 148.701C88.7792 148.294 88.5812 147.701 88.7561 147.088C88.8584 146.73 88.9773 146.374 89.1028 146.019C89.095 145.67 89.0868 145.322 89.08 144.972C89.0737 144.642 89.4092 144.472 89.6777 144.526C90.1657 143.344 90.7032 142.172 91.1517 141.002C91.8776 139.107 92.4759 137.065 93.5014 135.312ZM52.9602 155.792C60.5487 151.034 69.5817 147.611 78.6288 147.98C78.8346 147.988 78.8925 148.302 78.6789 148.349C73.8531 149.427 68.9743 150.74 64.4056 152.651C59.8237 154.567 55.4669 157.148 51.5865 160.249C44.4271 165.971 38.8623 173.413 35.1981 181.802C33.0518 186.716 31.5474 191.905 30.2337 197.095C28.8436 202.588 27.6979 208.14 26.7453 213.725C24.8637 224.758 23.7683 235.912 23.1854 247.085C22.5924 258.451 22.8368 269.825 22.4139 281.193C22.3408 283.163 19.5267 283.124 19.3836 281.193C18.4253 268.269 18.9563 255.138 19.8425 242.223C20.6394 230.613 22.031 219.027 24.272 207.603L24.4672 206.613C26.5621 196.044 29.0889 185.219 34.1534 175.648C38.4772 167.476 45.1524 160.687 52.9602 155.792ZM158.338 206.304C158.378 206.191 158.527 206.192 158.567 206.304C159.432 208.727 159.463 211.46 159.693 214.014L159.711 214.21C159.932 216.539 160.098 218.871 160.252 221.205L160.31 222.08C160.929 231.602 161.704 241.112 162.871 250.584C164.034 260.019 165.607 269.389 167.307 278.74C167.497 279.781 167.036 280.842 165.944 281.142C164.982 281.406 163.747 280.813 163.544 279.778C162.488 274.411 161.634 269.036 160.873 263.622C159.532 254.089 158.531 244.511 157.888 234.906C157.565 230.081 157.366 225.259 157.287 220.424C157.251 218.18 157.309 215.932 157.429 213.691L157.457 213.174C157.589 210.884 157.576 208.488 158.338 206.304ZM76.3396 266.949C76.441 266.894 76.5665 267.007 76.5022 267.112C75.0329 269.501 73.0451 271.561 71.1238 273.591C69.1153 275.713 67.1564 277.899 65.1073 279.98C63.6267 281.483 61.2451 279.058 62.8077 277.679C65.0046 275.741 67.3009 273.899 69.537 272.003L70.5148 271.174C72.3482 269.625 74.236 268.089 76.3396 266.949ZM146.13 265.753C146.02 265.544 146.271 265.374 146.441 265.513C147.626 266.477 148.689 267.627 149.833 268.645C150.967 269.653 152.142 270.593 153.35 271.509C154.563 272.43 155.802 273.314 157.075 274.15C158.131 274.844 159.219 275.4 160.324 275.976C160.836 276.041 161.31 276.293 161.69 276.769C162.29 277.523 162.353 278.944 161.521 279.598L161.372 279.716V279.716C160.401 280.479 159.248 280.572 158.292 279.716C157.224 278.76 156.215 277.707 155.19 276.697L154.882 276.395C153.781 275.324 152.706 274.218 151.693 273.062L150.775 272.019C149.074 270.077 147.302 267.985 146.13 265.753ZM140.67 153.836C140.473 153.705 140.595 153.353 140.838 153.437L141.284 153.592C143.15 154.24 145.069 154.959 146.762 155.957C148.582 157.03 150.262 158.308 151.868 159.679C155.19 162.516 158.017 166.005 160.419 169.642C165.239 176.94 168.22 185.297 170.627 193.66C173.194 202.576 175.169 211.684 176.783 220.819C178.422 230.101 179.686 239.468 180.518 248.858C180.927 253.483 181.202 258.112 181.34 262.753C181.411 265.141 181.409 267.527 181.389 269.916C181.384 270.53 181.388 271.144 181.395 271.758L181.418 273.601C181.431 274.765 181.57 275.989 181.294 277.127C180.848 278.959 177.821 278.617 177.92 276.745C177.829 276.122 177.825 275.478 177.849 274.833C177.835 274.75 177.819 274.666 177.802 274.579C177.752 274.332 177.794 274.103 177.891 273.906C177.907 273.596 177.921 273.289 177.926 272.986C177.946 271.757 177.945 270.532 177.911 269.302C177.839 266.71 177.736 264.117 177.632 261.526C177.424 256.348 177.134 251.168 176.715 246.002C175.255 228.023 172.172 209.941 166.994 192.643C164.59 184.611 161.274 176.725 156.52 169.784C154.409 166.703 152.028 163.856 149.388 161.215C146.732 158.557 143.804 155.912 140.67 153.836ZM104.842 269.74L105.201 272.337C105.38 273.635 105.558 274.934 105.726 276.234C106.872 276.077 108.043 276.011 109.147 275.913C111.079 275.742 113.024 275.659 114.962 275.579C118.969 275.414 122.996 275.127 127.008 275.147C127.049 275.147 127.088 275.15 127.127 275.153L127.326 270.03V270.03L124.507 270.026V270.026C122.12 270.022 119.732 270.002 117.344 269.981C115.194 269.963 113.043 269.96 110.893 269.915L109.971 269.893C108.341 269.849 106.54 269.94 104.842 269.74ZM127.562 262.304C127.447 262.318 127.33 262.329 127.206 262.335C126.647 262.358 126.085 262.342 125.526 262.346C124.337 262.357 123.148 262.365 121.958 262.365C119.579 262.364 117.2 262.379 114.822 262.407C112.373 262.437 109.926 262.48 107.478 262.484C106.291 262.487 105.108 262.455 103.922 262.422C104.114 264.108 104.315 265.793 104.536 267.474C106.378 267.225 108.359 267.35 110.159 267.333L110.393 267.33C112.85 267.288 115.308 267.319 117.766 267.322C120.294 267.325 122.822 267.333 125.35 267.354L127.427 267.371V267.371L127.431 267.266V267.266C127.492 265.614 127.531 263.96 127.562 262.304ZM103.009 254.238C103.239 256.228 103.455 258.222 103.675 260.215C103.822 260.192 103.97 260.173 104.121 260.157C105.309 260.033 106.495 259.926 107.687 259.852C110.064 259.705 112.441 259.627 114.822 259.563C117.27 259.498 119.719 259.447 122.168 259.413C123.358 259.396 124.546 259.398 125.736 259.406C126.294 259.41 126.858 259.392 127.415 259.43C127.482 259.434 127.545 259.441 127.608 259.448L127.65 256.456C127.657 255.957 127.665 255.459 127.673 254.96C125.834 255.074 123.964 255.03 122.127 255.031L121.703 255.032C119.394 255.042 117.085 255.011 114.776 254.963C112.394 254.913 110.018 254.835 107.64 254.683C106.677 254.621 105.721 254.539 104.763 254.433L104.284 254.378C103.867 254.329 103.438 254.289 103.009 254.238ZM127.863 245.794C123.434 246.145 119.029 246.292 114.588 246.336L113.922 246.342C109.998 246.371 106.041 246.533 102.108 246.429C102.343 248.469 102.577 250.509 102.814 252.548C103.377 252.522 103.943 252.522 104.494 252.502C105.614 252.462 106.73 252.451 107.85 252.449C110.159 252.444 112.467 252.464 114.776 252.459C117.155 252.454 119.534 252.414 121.913 252.369C123.842 252.333 125.791 252.188 127.725 252.193L127.863 245.794V245.794ZM128.05 237.091C127.537 237.262 126.931 237.273 126.267 237.303L124.552 237.389C123.758 237.428 122.963 237.464 122.168 237.493C119.518 237.59 116.869 237.681 114.219 237.765C111.503 237.852 108.775 237.902 106.059 237.816C104.729 237.774 103.409 237.704 102.083 237.593C101.755 237.566 101.421 237.548 101.086 237.524C101.395 240.227 101.705 242.929 102.016 245.631C105.93 245.15 109.875 244.851 113.785 244.354L117.32 243.903C120.854 243.451 124.384 243.009 127.931 242.636L128.05 237.091V237.091ZM128.239 228.293C127.486 228.479 126.627 228.47 125.904 228.516L125.77 228.525C124.4 228.629 123.027 228.681 121.653 228.715C118.962 228.781 116.269 228.814 113.576 228.831L111.957 228.841C109.799 228.853 107.642 228.859 105.483 228.808C104.098 228.776 102.716 228.708 101.332 228.639C100.918 228.618 100.494 228.605 100.069 228.583C100.358 231.142 100.651 233.7 100.942 236.258C101.397 236.186 101.853 236.131 102.289 236.057C103.404 235.869 104.517 235.718 105.641 235.584C108.074 235.292 110.519 235.082 112.964 234.905C115.473 234.723 117.985 234.569 120.494 234.393L122.272 234.268C122.865 234.226 123.457 234.187 124.05 234.15C125.062 234.088 126.239 234.158 127.243 233.938C127.515 233.825 127.817 233.799 128.119 233.863L128.239 228.293V228.293ZM128.467 217.995C128.206 218.326 127.817 218.499 127.353 218.559C124.936 218.873 122.457 218.923 120.02 219.071L119.591 219.098C117.074 219.264 114.556 219.394 112.038 219.528C109.451 219.665 106.865 219.777 104.275 219.868C103.176 219.906 102.072 219.91 100.971 219.896L100.499 219.889C100.047 219.882 99.5737 219.883 99.0992 219.867C99.3618 222.26 99.6269 224.652 99.8959 227.044C100.38 226.991 100.863 226.951 101.332 226.901C102.715 226.755 104.097 226.61 105.483 226.501C108.109 226.294 110.738 226.17 113.369 226.039C116.061 225.906 118.755 225.817 121.447 225.691C122.753 225.63 124.058 225.555 125.36 225.434C126.272 225.351 127.355 225.04 128.307 225.154C128.359 222.767 128.413 220.381 128.467 217.995ZM128.679 208.769C128.638 208.833 128.59 208.895 128.531 208.952C127.467 210.004 126.156 209.923 124.746 210.033L124.659 210.04C123.277 210.156 121.895 210.267 120.512 210.367C117.746 210.566 114.976 210.706 112.206 210.831C109.372 210.958 106.52 211.046 103.683 210.988C101.866 210.951 99.9635 210.957 98.1104 210.78C98.395 213.415 98.6813 216.05 98.9697 218.684C99.4906 218.586 100.015 218.511 100.512 218.432C101.763 218.235 103.016 218.037 104.275 217.892C106.791 217.603 109.308 217.332 111.828 217.087C113.984 216.878 116.139 216.666 118.296 216.475L119.591 216.363C122.165 216.146 124.771 215.789 127.353 215.736C127.779 215.728 128.26 215.959 128.504 216.325C128.561 213.806 128.62 211.288 128.679 208.769ZM128.858 201.301C128.2 201.381 127.492 201.335 126.886 201.355C125.352 201.405 123.818 201.452 122.285 201.497L113.081 201.769V201.769C109.948 201.861 106.804 201.93 103.669 201.886C102.29 201.867 100.906 201.864 99.5271 201.789L99.0679 201.762C98.5006 201.724 97.8045 201.718 97.1247 201.649L97.9273 209.086V209.086C99.7713 208.82 101.672 208.72 103.5 208.564L103.891 208.529C106.587 208.283 109.297 208.121 111.998 207.938C114.77 207.75 117.537 207.522 120.304 207.289C121.687 207.173 123.07 207.057 124.452 206.93L124.623 206.913C125.929 206.776 127.156 206.486 128.313 207.256C128.482 207.369 128.614 207.519 128.705 207.688C128.755 205.559 128.805 203.43 128.858 201.301ZM129.072 192.622C123.467 192.847 117.862 193.019 112.253 193.094C109.096 193.136 105.943 193.106 102.786 193.04C101.417 193.012 100.037 192.946 98.669 192.841L98.1567 192.8C97.5064 192.745 96.8232 192.706 96.1429 192.64C96.4241 195.197 96.703 197.754 96.9797 200.312C97.6489 200.188 98.3483 200.13 98.9347 200.055L99.0679 200.038C100.525 199.837 101.996 199.72 103.46 199.591C106.311 199.34 109.177 199.178 112.036 199.04C114.963 198.899 117.892 198.78 120.82 198.65L123.748 198.519C124.236 198.497 124.724 198.476 125.212 198.455C125.91 198.426 126.607 198.398 127.304 198.369C127.648 198.355 128.006 198.308 128.35 198.326L128.448 198.312C128.493 198.307 128.533 198.302 128.57 198.298C128.663 198.227 128.764 198.168 128.871 198.123L128.936 198.098L129.072 192.622ZM95.2239 184.397C95.4842 186.699 95.7415 189.001 95.9954 191.304C96.7949 191.212 97.6038 191.162 98.3671 191.093C99.9062 190.955 101.452 190.834 102.996 190.763L106.081 190.62C108.138 190.525 110.195 190.433 112.253 190.358C117.886 190.152 123.518 189.916 129.148 189.629C129.187 188.067 129.228 186.505 129.27 184.944C129 185.233 128.61 185.424 128.097 185.422C122.187 185.407 116.272 185.441 110.363 185.344C107.405 185.295 104.45 185.223 101.496 185.071C100.05 184.997 98.5961 184.846 97.1614 184.647C96.5496 184.562 95.8801 184.502 95.2239 184.397ZM94.278 176.194C94.5559 178.552 94.8284 180.911 95.0965 183.27C95.8304 183.139 96.5887 183.069 97.2734 182.976C98.7447 182.776 100.225 182.617 101.707 182.533C104.59 182.37 107.475 182.288 110.363 182.226C116.272 182.101 122.186 182.102 128.097 182.055C128.652 182.05 129.064 182.27 129.335 182.598C129.376 181.126 129.419 179.653 129.464 178.181C128.893 178.12 128.327 178.035 127.803 177.998C126.193 177.886 124.583 177.783 122.972 177.691C119.611 177.498 116.246 177.333 112.882 177.187C109.517 177.04 106.151 176.897 102.785 176.773L101.313 176.719C98.9722 176.632 96.5917 176.522 94.278 176.194ZM93.2196 167.314C93.5088 169.702 93.7936 172.091 94.0778 174.48L94.1642 175.219V175.219C96.9793 174.672 99.9461 174.511 102.785 174.39C106.151 174.247 109.512 174.173 112.882 174.184C116.248 174.194 119.609 174.274 122.972 174.413C124.653 174.482 126.333 174.562 128.013 174.654C128.475 174.678 129.016 174.665 129.573 174.673C129.586 174.298 129.596 173.922 129.609 173.547C129.66 172.027 129.71 170.506 129.762 168.986C128.626 169.57 127.149 169.805 126.007 170.054L125.877 170.083C123.992 170.506 122.067 170.781 120.143 170.949C116.364 171.278 112.546 171.155 108.771 170.836L108.11 170.779C104.795 170.492 101.358 170.127 98.144 169.307C96.6132 168.916 95.0306 168.369 93.6588 167.576C93.5162 167.494 93.369 167.406 93.2196 167.314ZM125.139 138.935C125.172 138.806 125.366 138.776 125.429 138.897C125.876 139.745 126.042 140.764 126.352 141.673C126.685 142.65 126.996 143.635 127.364 144.6C128.133 146.617 129.04 148.555 130.121 150.424C131.192 152.274 128.194 153.595 127.406 151.569C126.592 149.479 125.923 147.318 125.519 145.109C125.321 144.031 125.145 142.939 125.088 141.844C125.039 140.903 124.907 139.852 125.139 138.935Z" fill="black"/>
<path fill-rule="evenodd" clip-rule="evenodd" d="M143.356 85.4321C141.448 77.3684 137.276 69.8641 130.598 63.7994C110.5 43.8805 73.5932 54.6921 73.7604 84.7085C73.0396 88.2144 72.7469 91.8192 72.9856 95.3946C73.0843 96.9201 73.7429 99.049 72.8581 100.422C70.8622 102.991 69.7023 104.884 70.3815 108.3C70.9491 111.284 72.9742 113.397 75.7073 114.521C77.3465 114.992 78.9017 116.019 79.5089 117.585C83.1573 124.282 85.8603 129.851 91.6121 134.415C93.0963 135.59 108.319 142.637 113.335 142.637C128.019 142.637 146.526 137.304 146.833 120.861C146.886 117.25 146.254 113.596 145.857 110.013C144.892 101.837 145.232 93.3637 143.356 85.4321Z" fill="#FDC6A0"/>
<path fill-rule="evenodd" clip-rule="evenodd" d="M143.026 81.3988C143.031 81.299 143.173 81.2766 143.201 81.3751C143.747 83.3164 144.056 85.294 144.483 87.2655C144.894 89.1644 145.282 91.0689 145.605 92.9846C146.215 96.6001 146.728 100.225 147.206 103.859L147.325 104.768C148.155 111.163 149.526 117.825 148.327 124.257C147.304 129.746 143.874 134.169 139.453 137.412C135.267 140.483 130.192 142.454 125.153 143.574C119.744 144.777 113.334 145.136 108.933 141.16C107.172 139.568 109.573 136.409 111.484 137.846C115.972 141.218 121.68 140.224 126.744 138.882L126.897 138.841C131.342 137.655 135.816 135.856 139.344 132.821C143.245 129.466 145.174 124.81 145.396 119.702C145.521 116.833 145.255 113.967 144.967 111.115L144.935 110.798C144.604 107.536 144.258 104.275 143.938 101.012C143.646 98.0364 143.394 95.0435 143.261 92.0545L143.199 90.5469C143.07 87.5075 142.896 84.4236 143.026 81.3988ZM90.396 56.1442C97.6985 52.3329 106.091 50.9688 114.218 52.2479C122.03 53.4775 129.2 57.519 134.56 63.314C137.176 66.1433 139.499 69.4161 140.983 72.9915C141.72 74.7677 142.297 76.6206 142.605 78.5236C142.763 79.5019 142.918 80.5156 142.948 81.5075C142.975 82.4258 142.706 83.287 142.738 84.2206C142.743 84.3666 142.52 84.3947 142.486 84.2548C142.232 83.2139 141.62 82.4268 141.237 81.4381C140.95 80.6999 140.624 79.9792 140.293 79.2606L140.009 78.6449C139.183 76.8554 138.195 75.1395 137.219 73.4296C135.252 69.9859 132.728 66.8562 129.774 64.2154C124.585 59.5788 117.93 56.5859 110.983 56.0469C103.772 55.4873 96.459 57.2102 90.3014 61.0268C84.1441 64.8431 79.4883 70.7757 77.071 77.6063C75.8514 81.0533 75.1778 84.6447 75.0212 88.2964C74.9419 90.1449 75.0159 92.0088 75.1452 93.8537L75.2094 94.7334C75.2846 95.7885 75.3361 96.8394 75.1789 97.8689C76.2895 97.5217 77.4537 97.3777 78.622 97.5496C80.3582 97.8049 81.3954 98.5184 82.1742 100.074C82.2149 100.155 82.1333 100.236 82.0525 100.195C81.0429 99.6903 79.4095 99.9562 78.3402 100.221C77.2275 100.497 76.2252 100.976 75.2797 101.624C73.5305 102.822 72.1593 104.679 71.8228 106.809C71.4975 108.867 72.3402 110.95 73.7556 112.425C74.4842 113.185 75.3551 113.841 76.3302 114.25C77.5135 114.747 78.6849 114.732 79.7318 115.552C80.379 116.059 80.2226 116.927 79.7837 117.49C81.9924 119.918 83.9512 122.574 86.1598 125.012C87.1835 126.141 88.1991 127.273 89.18 128.439L89.5462 128.878C90.5257 130.063 92.0841 131.315 92.5316 132.805C92.8101 133.732 91.8197 134.945 90.8185 134.523C89.2827 133.874 88.1864 132.188 87.1487 130.894L87.0811 130.81C85.9928 129.47 85.0266 128.054 84.1433 126.571L83.8528 126.083C82.2555 123.39 80.6719 120.597 79.6534 117.638C79.5861 117.707 79.5149 117.771 79.4398 117.824C77.9725 118.87 75.8394 118.066 74.374 117.386C72.9906 116.745 71.7223 115.781 70.7337 114.618C68.5838 112.09 67.5927 108.816 68.3107 105.535C68.919 102.755 70.8406 100.052 73.3599 98.6456C72.197 97.3036 71.7155 95.4944 71.3951 93.7256C70.9861 91.4678 70.9045 89.1539 71.0156 86.8643C71.2372 82.304 72.4079 77.8088 74.2175 73.633C77.4553 66.1611 83.1796 59.911 90.396 56.1442ZM75.0268 106.004C76.5595 105.716 77.9878 105.647 79.4661 106.297C81.0696 107.002 82.1981 108.167 83.2472 109.532C84.4408 111.085 81.3817 112.781 80.6103 110.72L80.5877 110.656C80.3811 110.046 80.0111 109.456 79.5424 108.913C79.4018 109.129 79.2138 109.319 78.9928 109.428C78.7253 109.56 78.3167 109.469 78.2524 109.126C78.1811 108.746 78.26 108.285 78.4788 107.963L78.5088 107.919V107.919C77.4454 107.062 76.1663 106.435 75.0268 106.233C74.913 106.213 74.9143 106.025 75.0268 106.004Z" fill="black"/>
<path fill-rule="evenodd" clip-rule="evenodd" d="M112.253 111.804C117.853 111.804 122.393 107.83 122.393 102.928C122.393 98.0251 117.853 94.0509 112.253 94.0509C106.652 94.0509 100.591 97.8639 100.591 102.766C100.591 104.847 102.229 108.482 103.598 109.995C105.455 112.048 109.028 111.804 112.253 111.804Z" fill="white"/>
<path fill-rule="evenodd" clip-rule="evenodd" d="M136.391 110.105C140.678 110.105 144.154 106.511 144.154 102.078C144.154 97.6448 140.678 94.0509 136.391 94.0509C132.104 94.0509 127.464 97.499 127.464 101.932C127.464 103.813 128.718 107.101 129.766 108.469C131.188 110.326 133.923 110.105 136.391 110.105Z" fill="white"/>
<path fill-rule="evenodd" clip-rule="evenodd" d="M112.111 117.319C112.156 117.278 112.226 117.263 112.279 117.297C113.193 117.875 113.302 119.82 113.312 120.943C113.69 121.041 114.064 121.153 114.417 121.232C115.167 121.398 115.921 121.542 116.674 121.695L117.238 121.811C119.124 122.209 121.045 122.503 122.967 122.651C124.832 122.793 126.751 122.846 128.611 122.605C129.409 122.502 130.203 122.329 130.975 122.099C131.887 121.827 132.614 121.376 133.462 120.981C135.586 119.991 137.366 122.891 135.322 124.164C133.567 125.256 131.173 125.65 129.148 125.819C127.077 125.992 125.015 125.802 122.969 125.474C120.758 125.12 118.592 124.576 116.495 123.787C115.608 123.453 114.75 123.048 113.912 122.606L113.684 122.485C113.545 122.41 113.4 122.334 113.254 122.257C113.097 123.658 112.644 125.01 112.098 126.311L112.085 126.288C111.786 127.314 110.706 127.949 109.631 127.496C108.37 126.964 108.274 125.569 109.008 124.578L109.043 124.532C109.906 123.422 110.447 122.044 110.917 120.731C111.158 120.058 111.381 119.368 111.574 118.68C111.714 118.182 111.719 117.681 112.111 117.319ZM144.611 106.165C143.863 108.425 142.233 110.166 139.962 110.931C137.711 111.689 135.208 111.413 132.907 111.003C132.404 110.913 131.893 110.814 131.384 110.699C131.801 110.957 132.169 111.32 132.521 111.705C133.042 112.273 133.515 112.872 133.658 113.583C133.8 114.289 133.576 114.826 133.167 115.231C132.539 115.854 131.525 116.19 130.667 116.376C128.744 116.791 126.817 116.727 124.904 116.3C124.415 116.192 124.084 115.93 123.898 115.588C123.672 115.173 123.654 114.656 123.783 114.186C123.913 113.716 124.193 113.282 124.599 113.043C124.934 112.845 125.352 112.791 125.827 112.949C126.779 113.266 127.726 113.476 128.732 113.501C129.158 113.51 129.587 113.498 130.012 113.459C130.253 113.437 130.493 113.406 130.731 113.368C130.591 113.181 130.454 112.99 130.321 112.797C130.163 112.569 130.01 112.339 129.863 112.104C129.439 111.425 129.086 110.727 128.776 109.99C128.677 109.754 128.584 109.517 128.496 109.279C128.483 109.245 128.47 109.211 128.458 109.176C128.43 109.154 128.403 109.131 128.376 109.107C127.77 108.582 127.261 107.936 126.902 107.135C125.928 104.965 126.086 102.272 126.677 100.019C127.151 98.213 128.196 96.5427 129.577 95.408C129.818 95.0111 129.978 94.7703 130.173 94.5675C130.966 93.7414 132.074 93.1842 133.155 92.8453C135.569 92.088 138.198 92.6313 140.244 94.0732C142.134 95.4045 143.613 97.4011 144.412 99.6218C145.169 101.725 145.317 104.032 144.611 106.165ZM111.729 92.4301C114.6 92.4055 117.521 93.2535 119.851 94.9504C122.08 96.5742 123.829 98.9716 123.827 101.827C123.825 104.607 122.34 107.341 120.692 109.494C118.842 111.91 116.426 113.075 113.387 113.102C111.807 113.116 110.216 112.976 108.648 112.784L107.806 112.678C106.648 112.529 105.477 112.352 104.379 111.953C99.1511 110.056 98.9892 103.211 100.925 98.8357C102.42 95.4574 106.204 92.1629 109.977 92.5584C110.545 92.4787 111.129 92.4353 111.729 92.4301ZM116.578 95.6491C112.983 94.0348 108.615 94.5182 105.127 96.2409C103.746 97.7487 102.736 99.6489 102.328 101.393C101.891 103.256 101.955 105.262 102.611 107.066C103.412 109.27 105.384 109.816 107.512 110.154L108.338 110.284L108.684 110.336C110.775 110.648 113.06 110.891 115.069 110.501C117.308 110.065 118.73 108.256 119.849 106.4L119.901 106.313C121.063 104.37 122.036 102.006 121.061 99.7785C120.233 97.8854 118.422 96.4772 116.578 95.6491ZM137.798 96.2116C136.564 95.5277 135.157 95.4034 133.825 95.8612C133.251 96.0581 132.756 96.3773 132.276 96.7351L132.084 96.8801C131.494 97.3336 130.942 97.5633 130.499 98.1758L130.442 98.2579C130.219 98.5919 129.827 98.7254 129.471 98.681C129.056 99.8259 128.885 101.064 128.881 102.283L128.882 102.444L128.884 102.609C128.91 104.05 129.162 105.812 130.295 106.778C131.328 107.658 132.893 107.87 134.29 107.992L135.367 108.082L135.653 108.104C137.126 108.206 138.74 108.171 139.974 107.299C141.049 106.54 141.556 105.25 141.687 103.977C141.998 100.97 140.477 97.6964 137.798 96.2116ZM110.942 96.4894C112.922 95.4783 115.3 95.7318 116.977 96.999C116.828 97.0282 116.681 97.0654 116.535 97.1387C116.155 97.3296 115.919 97.7117 115.829 98.1183C115.727 98.578 115.965 99.0132 116.419 99.1582C116.814 99.2841 117.281 99.3418 117.648 99.1019C117.84 98.9764 117.974 98.8109 118.062 98.6025L118.075 98.5719L118.09 98.5494L118.096 98.5389C118.097 98.5349 118.091 98.5425 118.08 98.5596C118.091 98.5336 118.101 98.5076 118.112 98.4812C118.127 98.4497 118.142 98.418 118.154 98.3853C118.175 98.3669 118.195 98.3464 118.214 98.3259C118.519 98.7949 118.758 99.3245 118.91 99.9137C119.885 103.696 115.888 107.621 112.316 108.014C110.967 108.162 109.736 107.84 108.715 107.207C108.724 107.194 108.735 107.183 108.743 107.17C109.153 107.244 109.643 107.06 109.792 106.602C110.172 105.435 109.782 104.069 108.51 103.687C107.692 103.442 106.855 103.713 106.27 104.273C105.827 103.189 105.669 101.97 105.878 100.749C106.174 99.0254 107.213 97.4726 108.83 96.7557C109.617 96.4064 110.296 96.333 110.942 96.4894ZM131.791 98.8229L131.852 98.7279C132.463 97.7861 133.633 96.6308 134.845 96.9485C135.015 96.9931 135.182 97.0649 135.332 97.1581C135.998 97.0677 136.695 97.219 137.268 97.5713L137.252 97.6108C137.25 97.6174 137.248 97.6241 137.246 97.6311C137.194 97.8602 137.224 98.072 137.331 98.2825C137.447 98.5105 137.613 98.7268 137.836 98.8576C137.99 98.9472 138.171 98.9943 138.348 98.9907C138.607 98.9861 138.836 98.8717 139.024 98.6972C139.126 98.6025 139.197 98.4636 139.236 98.3208C139.329 98.4095 139.418 98.5084 139.504 98.6207C140.909 100.469 140.715 103.439 139.066 105.087C139 105.153 138.929 105.214 138.859 105.275C138.19 106.197 137.158 106.822 135.919 106.949C134.772 107.066 133.625 106.727 132.745 106.031C132.816 105.993 132.882 105.944 132.939 105.88C133.089 105.71 133.213 105.542 133.304 105.334C133.327 105.282 133.349 105.229 133.37 105.176L133.401 105.096C133.406 105.081 133.453 104.946 133.44 104.97L133.438 104.975L133.454 104.936C133.612 104.543 133.548 104.094 133.174 103.847L133.133 103.821C133.011 103.75 132.86 103.717 132.706 103.716C132.325 103.249 131.757 103.142 131.224 103.278L131.205 103.127C131.202 103.102 131.2 103.077 131.198 103.052C130.785 101.682 130.984 100.125 131.791 98.8229ZM113.454 85.0323L113.591 85.011C114.628 84.861 115.333 85.0337 116.007 85.9202C116.329 86.3427 116.23 86.9808 116.007 87.4125C115.289 88.8077 113.315 88.5192 111.984 88.7963C110.686 89.0666 109.39 89.4345 108.175 89.9701C106.935 90.5166 105.771 91.1632 104.636 91.9014C103.61 92.5695 102.679 93.5736 101.506 93.9623C101.453 93.9798 101.39 93.9325 101.393 93.8765C101.476 92.5422 102.59 91.3175 103.453 90.3672C104.451 89.2684 105.665 88.2928 106.929 87.5172C108.233 86.717 109.643 86.0582 111.103 85.5987C111.872 85.3567 112.659 85.1644 113.454 85.0323ZM129.252 86.844C130.557 84.934 133.803 85.3003 135.718 85.8107C138.12 86.4502 140.721 87.7439 142.405 89.6165C143.914 91.294 141.657 93.4734 139.961 92.0618L139.508 91.6863L139.219 91.4483C137.917 90.3844 136.627 89.4216 135.04 88.7123C133.18 87.8811 131.295 87.4761 129.329 87.0331C129.251 87.0158 129.206 86.911 129.252 86.844Z" fill="black"/>
<path fill-rule="evenodd" clip-rule="evenodd" d="M109.449 129.598C111.159 125.59 114.892 122.644 119.19 121.566C122.347 120.777 125.659 120.803 128.877 121.116C130.563 121.279 132.371 121.412 133.96 122.038C135.316 122.573 136.422 123.585 137.253 124.772C138.243 126.179 138.916 127.789 139.388 129.439C139.455 129.674 139.518 129.91 139.577 130.148C139.372 131.393 138.936 132.453 137.783 133.235C136.658 134 135.315 134.313 133.977 134.424C133.846 134.361 133.719 134.296 133.603 134.229C131.518 133.035 130.05 130.213 127.418 130.595C125.07 130.936 123.524 133.893 122.127 135.626C117.643 136.149 113.163 134.801 109.515 132.236C109.33 131.359 109.319 130.473 109.449 129.598M142.625 126.557C142.266 125.551 141.814 124.575 141.279 123.657C139.509 120.619 136.791 118.198 133.565 116.814C125.934 113.546 116.059 115.85 109.896 121.211C107.791 123.044 105.663 125.737 105.019 128.634C104.827 128.672 104.645 128.772 104.496 128.913C100.043 126.108 95.4578 123.41 91.8697 119.523C89.2641 116.698 87.4517 113.355 86.3419 109.682C86.2512 109.38 85.7638 109.424 85.7785 109.759C85.7828 109.837 85.787 109.915 85.7912 109.993C85.7448 109.849 85.5254 109.923 85.5085 110.063C84.9114 114.525 84.1645 119.256 84.8523 123.741C85.2637 126.418 86.479 128.377 88.1036 130.493C89.8443 132.761 91.8149 134.87 93.8298 136.893C95.1084 138.177 96.4439 139.658 98.0095 140.6C99.8303 141.694 101.896 142.525 103.839 143.369C105.816 144.23 107.822 145.026 109.867 145.716C113.954 147.099 118.178 148.056 122.476 148.475C125.917 148.809 129.85 149.173 133.147 147.878C135.675 146.886 137.715 145.092 139.333 142.933C141.095 140.583 142.488 137.905 143.258 135.082C144.058 132.149 142.793 127.03 142.625 126.557" fill="black"/>
</g>
<defs>
<clipPath id="clip0_2016_14110">
<rect width="200" height="267" fill="white"/>
</clipPath>
</defs>
</svg>
