<svg width="200" height="267" viewBox="0 0 200 267" fill="none" xmlns="http://www.w3.org/2000/svg">
<g clip-path="url(#clip0_2016_14129)">
<rect width="200" height="267" fill="white"/>
<path fill-rule="evenodd" clip-rule="evenodd" d="M97.4974 128.86C108.833 128.047 124.375 130.295 127.653 143.226C128.67 147.931 130.674 149.996 134.04 153.073C155.405 180.43 80.8617 185.028 77.0297 158.352C68.9568 161.293 60.1689 161.916 52.0911 164.889C47.71 166.508 43.7374 169.063 39.9305 171.734C24.4068 182.764 9.10278 194.109 -6.3656 205.218C-0.379756 207.975 11.0008 218.504 6.36348 225.578C5.28323 226.956 3.67971 227.906 2.26125 228.914L1.51327 229.448C-0.0958718 230.602 -2.80466 232.568 -4.30257 233.636L-4.57882 233.838C-4.68714 233.916 -4.80933 234.004 -4.91969 234.083C5.88243 249.882 18.5245 264.46 32.5476 277.475C33.7417 278.586 33.2526 281.069 31.5244 281.358L29.4655 281.66C22.8177 282.629 16.0435 283.5 9.34426 282.974C2.81968 282.264 -1.11201 276.487 -5.57229 272.301C-14.4791 263.194 -22.7703 253.479 -30.3223 243.216L-30.4795 242.999C-32.83 239.786 -35.9497 236.502 -36.178 232.353C-36.5944 231.106 -35.4986 229.318 -34.4456 228.468L-34.0861 227.949C-28.4386 219.824 -22.0471 211.988 -14.0393 206.103C-14.0691 205.227 -13.6638 204.305 -12.8614 203.724L20.605 179.496V179.496C29.24 173.551 37.2658 166.564 46.6254 161.764C56.1958 157.154 66.996 156.973 76.8037 153.126C77.0116 150.353 82.839 149.645 82.655 150.073C88.8035 146.361 91.9687 141.944 92.945 137.884C93.921 133.824 92.7079 130.121 97.4974 128.86ZM180.257 215.845C190.606 200.268 200.47 217.503 204.778 227.89C209.868 242.105 199.327 259.591 192.517 271.845C190.009 275.248 186.71 282.427 182.289 282.947C171.151 282.902 159.998 282.117 148.853 281.883C141.657 280.097 151.753 269.279 158.728 273.231C160.841 274.021 161.897 276.421 163.957 277.191C164.708 277.352 164.76 277.017 165.065 276.269L165.108 276.164C165.653 274.87 166.181 273.569 166.717 272.271C171.254 261.093 176.051 250.013 180.821 238.938C181.84 236.534 180.411 234.553 178.553 233.122C177.13 231.951 171.016 229.091 176.777 230.35C174.558 225.198 177.224 219.97 180.257 215.845ZM154.565 194.522C155.562 194.397 156.841 195.402 156.995 196.375C158.266 204.441 156.85 212.416 155.152 220.307L154.84 221.751C154.213 224.629 153.514 227.564 151.952 230.086C150.359 232.661 147.948 234.601 145.18 235.78C136.302 239.32 125.26 235.819 118.729 229.202C114.55 223.476 118.224 216.284 118.925 210.009C118.262 208.318 118.018 206.362 117.634 204.618L117.588 204.41L116.098 197.907C115.77 196.472 116.815 194.509 118.532 194.706C130.505 196.08 142.607 196.018 154.565 194.522Z" fill="#FDC6A0"/>
<rect x="115.422" y="194.865" width="42.0423" height="42.2701" fill="#FDEA6B"/>
<path fill-rule="evenodd" clip-rule="evenodd" d="M196.38 213.807C196.344 213.647 196.536 213.524 196.661 213.644C198.767 215.675 200.254 218.271 201.887 220.676C203.442 222.967 205.135 225.169 206.294 227.697C207.372 230.047 208.067 232.431 208.274 235.014C208.481 237.578 208.213 240.148 207.761 242.673C206.871 247.648 204.97 252.359 202.882 256.935C200.853 261.384 198.56 265.705 196.138 269.949L195.271 271.463C194.212 273.308 193.142 275.149 191.996 276.935C190.57 279.159 189.268 281.454 187.388 283.31C186.053 284.631 183.537 283.31 184.145 281.422C184.409 280.6 184.616 279.826 185.026 279.064C185.337 278.482 185.687 277.918 186.017 277.345C186.676 276.2 187.329 275.05 187.988 273.905C189.372 271.497 190.83 269.134 192.201 266.719C194.58 262.53 196.825 258.262 198.811 253.871L199.045 253.352C200.872 249.286 202.604 245.073 203.406 240.674C204.251 236.039 203.495 231.671 201.849 227.314C200.998 225.061 200.041 222.859 199.046 220.665L198.855 220.246C197.894 218.152 196.875 216.07 196.38 213.807ZM94.0944 133.637C94.1134 133.555 94.2528 133.549 94.2655 133.637C94.857 137.573 93.5409 141.737 91.3965 145.01C90.2261 146.798 88.7831 148.413 87.0824 149.711L86.95 149.811C85.2126 151.11 82.8651 152.365 80.7085 151.522C80.6409 151.497 80.5775 151.467 80.5183 151.434C80.7613 151.81 80.9852 152.205 81.2134 152.6C81.8916 153.777 82.5 154.997 83.1613 156.185C84.3444 158.309 85.7535 160.209 87.5345 161.872C94.6562 168.522 104.656 170.102 114.047 170.027L114.711 170.02C118.836 169.991 124.231 170.202 127.416 167.215C129.127 165.611 130.069 163.33 130.92 161.189C131.757 159.091 132.33 156.924 133.025 154.79C131.573 153.794 130.242 152.579 129.196 151.159C128.106 149.679 127.282 148.014 126.807 146.236L126.737 145.971C126.369 144.553 126 142.678 126.592 141.339C126.659 141.185 126.913 141.196 126.985 141.339C127.304 141.98 127.365 142.703 127.561 143.387C127.789 144.184 128.047 144.977 128.387 145.731C129.044 147.194 129.913 148.584 130.954 149.802C131.814 150.81 132.746 151.736 133.811 152.513C134.438 151.429 135.894 151.283 137.113 151.641C138.747 152.118 140.358 152.731 141.934 153.379L142.249 153.509C143.806 154.156 145.566 154.749 147.023 155.631C147.908 156.054 148.758 156.478 149.556 156.855C153.536 158.725 157.456 160.709 161.358 162.731L162.194 163.165C163.83 164.017 165.45 164.877 166.872 166.065C168.319 167.274 169.443 168.927 170.499 170.476C172.914 174.018 175.189 177.662 177.577 181.223C182.398 188.409 187.219 195.595 192.068 202.764C193.24 204.499 194.563 206.192 195.615 208.001C196.623 209.73 196.595 211.505 196.399 213.435L196.362 213.79C195.985 217.329 195.337 220.729 193.352 223.764C190.227 228.536 185.305 231.508 180.097 233.553C180.733 234.027 181.331 234.538 182.089 234.864C183.256 235.363 184.5 235.621 185.761 235.724C187.107 235.832 188.624 235.496 189.714 236.411C190.151 236.776 190.164 237.656 189.714 238.021C188.666 238.877 187.311 238.632 186.034 238.489L185.958 238.48C184.773 238.349 183.604 238.129 182.491 237.694C182.216 237.586 181.944 237.466 181.68 237.332C181.688 237.356 181.692 237.383 181.688 237.413C181.498 238.869 181.086 240.246 180.65 241.637L180.374 242.519C179.812 244.32 179.246 246.116 178.663 247.913C177.553 251.333 176.344 254.72 175.131 258.104L174.085 261.023C173.009 264.018 171.92 267.009 170.717 269.954C169.973 271.772 169.225 273.59 168.48 275.405C167.751 277.178 167.144 279.093 166.24 280.782C165.496 282.173 163.468 281.177 163.794 279.748C164.22 277.874 165.025 276.014 165.64 274.19C166.266 272.338 166.878 270.485 167.514 268.637C168.62 265.429 169.845 262.262 171.076 259.099L172.296 255.963C173.493 252.891 174.704 249.821 175.999 246.789L176.14 246.456C177.485 243.284 178.873 239.717 181.316 237.259C181.348 237.225 181.392 237.208 181.437 237.204C180.837 236.878 180.275 236.483 179.78 236.016L179.756 235.991C179.561 235.784 178.754 234.765 178.494 234.154C178.156 234.274 177.818 234.39 177.48 234.504C176.89 234.703 176.402 234.56 176.058 234.245L175.402 234.651C174.701 235.079 173.946 235.486 173.172 235.506C172.196 235.532 171.429 234.993 170.907 234.198C170.438 233.488 170.159 232.721 169.566 232.085C168.982 231.459 168.306 230.932 167.616 230.428L166.802 229.835C165.31 228.746 163.863 227.644 162.661 226.205C162.057 225.478 161.248 224.616 160.88 223.742C160.808 223.574 160.764 223.415 160.756 223.261C160.675 223.806 160.593 224.353 160.511 224.899C159.357 232.573 158.425 240.3 158.127 248.061C157.982 251.888 157.916 255.72 158.087 259.549C158.172 261.462 158.311 263.373 158.504 265.279C158.599 266.235 158.698 267.188 158.814 268.139L158.841 268.359C158.875 268.651 158.896 268.933 158.871 269.2C159.801 269.658 160.335 270.817 160.707 271.721C160.99 272.41 160.77 273.08 160.314 273.564C160.859 274.061 161.345 274.644 161.753 275.312C161.835 275.447 161.658 275.553 161.552 275.469C160.882 274.936 160.162 274.498 159.41 274.162C159.015 274.312 158.584 274.353 158.187 274.243C157.756 274.124 157.384 273.837 157.115 273.471C154.98 273.12 152.759 273.549 150.837 274.887C150.437 275.166 150.076 275.481 149.732 275.823C149.673 275.883 149.611 275.959 149.55 276.033L149.969 276.194C150.143 276.26 150.286 276.312 150.34 276.322C150.706 276.397 151.078 276.437 151.45 276.469L152.007 276.515C154.147 276.692 156.281 276.751 158.271 277.648C158.689 277.836 158.544 278.48 158.149 278.588C156.695 278.982 155.253 278.952 153.774 278.846L153.456 278.823C152.081 278.717 150.604 278.723 149.263 278.343C149.584 279.222 149.146 280.37 147.805 280.549C143.776 281.086 139.722 280.833 135.689 280.478C131.615 280.118 127.544 279.778 123.461 279.565C110.251 278.869 97.0207 279.003 83.7991 279.192L76.3275 279.3C70.3689 279.384 64.4094 279.449 58.451 279.404L55.6621 279.378C54.4833 279.366 53.304 279.352 52.1266 279.317L51.4204 279.294C50.0176 279.243 48.1606 279.455 46.9416 278.624C45.9359 277.939 45.712 276.684 46.3183 275.672C46.4937 275.38 46.7345 275.12 46.9859 274.866C47.5014 270.46 47.7908 266.032 48.0866 261.606C49.1134 246.119 48.5134 230.711 46.1451 215.38C39.7901 217.322 33.5324 219.759 27.4352 222.373C24.1373 223.787 20.8563 225.254 17.6134 226.792C14.6535 228.198 11.681 229.954 8.51831 230.867C8.23081 231.122 7.82883 231.244 7.47229 231.131L7.42606 231.115H7.42395C7.09859 231.191 6.73732 231.144 6.3824 230.931C6.31056 230.887 6.23873 230.843 6.1669 230.798L6.05916 230.73C4.94578 230.028 3.82606 229.164 3.03803 228.107C2.08099 228.995 1.05211 229.809 0.0401404 230.633C-1.05845 231.529 -2.15282 232.429 -3.23873 233.338C-3.66972 233.699 -4.14507 234.044 -4.52535 234.46L-4.58059 234.521C-4.58944 234.531 -4.59789 234.541 -4.60563 234.551C-2.95986 235.616 -1.51901 237.233 -0.228167 238.639C1.15796 240.147 2.49617 241.704 3.82343 243.266L5.10832 244.782C14.1942 255.515 23.373 266.637 35.1359 274.526C36.9951 275.773 35.2225 278.81 33.3761 277.536C29.8817 275.128 26.5754 272.455 23.4 269.641C17.8352 264.715 12.8282 259.188 8.14014 253.429C5.76761 250.514 3.46479 247.528 1.20845 244.523L0.44265 243.503C-0.577857 242.143 -1.59296 240.78 -2.56479 239.385L-2.76812 239.092C-3.62056 237.862 -4.52707 236.479 -5.07676 235.063C-5.28803 235.276 -5.52676 235.455 -5.87535 235.591C-6.47113 235.823 -7.20211 235.335 -7.34789 234.754C-7.70282 233.344 -6.47746 232.505 -5.48028 231.757C-4.26972 230.852 -3.03591 229.98 -1.8 229.111L-1.35853 228.799C0.187008 227.702 1.74066 226.577 3.42465 225.71C3.47535 225.643 3.53662 225.579 3.60634 225.524C3.68662 225.461 3.76479 225.4 3.84507 225.338C1.8338 222.075 -0.37183 218.939 -2.8331 215.975C-4.6838 213.746 -6.64859 211.617 -8.72747 209.601L-9.66135 208.697C-11.074 207.332 -12.5428 205.948 -14.1106 204.761L-14.6014 205.318C-15.2567 206.059 -15.9186 206.795 -16.6183 207.492C-17.9958 208.861 -19.3542 210.259 -20.7063 211.656C-22.9518 213.98 -25.1212 216.375 -27.2838 218.775L-28.3648 219.974C-30.6169 222.474 -33.0296 224.928 -35.0768 227.6L-35.179 227.735C-36.0728 228.934 -36.709 230.261 -36.2937 231.785C-35.8929 233.253 -34.9402 234.555 -34.119 235.824L-34.0373 235.95C-30.6845 241.175 -27.093 246.266 -23.2458 251.138C-15.5408 260.896 -6.75211 270.145 3.73521 276.929C5.18873 277.869 3.83028 280.207 2.37465 279.256C-3.75 275.251 -9.37606 270.441 -14.5521 265.275C-19.3035 260.535 -23.6092 255.314 -27.6444 249.956C-29.6113 247.342 -31.4958 244.673 -33.3021 241.944C-35.0535 239.296 -37.0796 236.572 -38.3493 233.651C-39.0147 232.114 -39.2599 230.451 -38.7148 228.832C-38.2149 227.344 -37.2263 226.109 -36.1979 224.946L-36.1014 224.837C-33.7373 222.181 -31.331 219.556 -28.9035 216.956C-26.4676 214.348 -23.9197 211.833 -21.319 209.392C-19.2761 207.471 -17.1465 205.778 -14.869 204.21C-15.0739 204.064 -15.2789 203.924 -15.488 203.789C-16.1239 203.375 -16.2845 202.489 -15.7268 201.927C-14.2035 200.388 -12.4479 199.05 -10.7958 197.65C-9.24296 196.333 -7.69014 195.014 -6.13732 193.695C-2.97676 191.015 0.183802 188.333 3.34437 185.651C9.02113 180.834 14.6662 175.984 20.3239 171.146C22.6831 169.129 25.0643 167.138 27.4393 165.14L31.659 161.588V161.588L33.7228 159.855C34.7803 158.969 35.8602 158.092 37.0627 157.417C39.8921 155.827 43.2936 155.139 46.4109 154.297L46.6183 154.24C50.1148 153.283 53.6303 152.382 57.1648 151.579C60.7035 150.776 64.257 150.045 67.8254 149.383C71.0324 148.787 74.3155 148.276 77.5859 148.2C78.3972 147.891 79.4155 147.783 80.2141 148.113C80.5437 148.25 80.888 148.451 81.1944 148.705C82.7937 148.143 84.3718 147.874 85.8655 146.923C87.357 145.974 88.6775 144.727 89.7887 143.353C92.0852 140.509 93.2873 137.148 94.0944 133.637ZM130.857 229.969C129.589 229.88 128.449 230.404 127.316 230.962C127.954 231.239 128.592 231.514 129.23 231.787L133.477 233.6V233.6C134.88 234.198 136.365 234.718 137.698 235.455C137.793 235.508 137.869 235.572 137.926 235.646C139.312 234.758 140.778 233.966 142.183 233.122C142.504 232.93 142.827 232.738 143.151 232.545C141.477 233.105 139.762 233.387 137.945 232.86C135.522 232.161 133.418 230.149 130.857 229.969ZM134.33 225.717L134.103 225.562C132.873 224.718 131.406 223.634 129.913 224.392C129.209 224.749 128.632 225.326 127.939 225.71C127.242 226.099 126.475 226.397 125.698 226.577C124.407 226.875 122.928 226.919 121.54 226.632L121.561 228.509V228.509C122.611 228.942 123.655 229.386 124.699 229.834C125.376 229.602 126.028 229.324 126.714 229.018L127.177 228.811C128.497 228.217 129.83 227.82 131.29 228.008C134.039 228.361 136.115 230.404 138.744 231.085C141.965 231.922 144.873 229.517 147.917 228.923C148.419 228.824 148.936 228.766 149.451 228.757L149.622 228.756L149.698 228.712C150.353 228.327 151.333 227.959 151.789 227.312C152.286 226.611 152.328 225.436 152.491 224.611C152.508 224.529 152.525 224.444 152.539 224.362C152.252 224.362 151.961 224.377 151.665 224.432C150.735 224.603 149.861 224.933 148.994 225.301C147.357 225.996 145.756 226.788 144.032 227.251C142.344 227.705 140.58 227.921 138.841 227.67C137.144 227.424 135.735 226.659 134.33 225.717ZM134.595 219.118L134.34 218.954C133.669 218.525 132.899 218.081 132.076 218.239C131.341 218.381 130.709 218.966 130.069 219.328C128.664 220.12 127.088 220.553 125.48 220.663C124.143 220.754 122.755 220.591 121.468 220.194L121.513 224.349V224.349C121.984 224.499 122.472 224.607 122.985 224.645C124.544 224.761 126.065 224.387 127.373 223.527L128.035 223.088C129.167 222.344 130.229 221.753 131.727 222.025C133.211 222.295 134.455 223.246 135.668 224.074L135.866 224.208C137.259 225.128 138.671 225.722 140.379 225.736C142.223 225.75 144.046 225.237 145.764 224.605C147.469 223.98 149.089 223.229 150.913 222.999C151.47 222.929 152.151 222.908 152.791 223.018C152.875 222.546 152.956 222.077 153.032 221.606C153.196 220.594 153.338 219.583 153.461 218.571C150.226 217.7 147.239 220.517 144.235 221.386C142.492 221.889 140.594 221.883 138.851 221.397C137.239 220.946 135.971 220.012 134.595 219.118ZM134.603 212.121C133.912 211.987 133.23 212.307 132.642 212.634C131.144 213.465 129.851 214.621 128.155 215.058C125.973 215.62 123.585 215.136 121.418 214.217C121.426 215.5 121.437 216.783 121.447 218.066C121.855 218.22 122.273 218.345 122.7 218.444C124.217 218.791 125.825 218.744 127.318 218.307C128.842 217.861 130.01 216.656 131.537 216.28C133.099 215.894 134.572 216.645 135.83 217.498L136.209 217.757C137.648 218.734 139.043 219.582 140.844 219.748C142.747 219.924 144.401 219.328 146.102 218.537L146.498 218.354C148.651 217.365 151.446 216.238 153.596 217.364C153.765 215.766 153.887 214.169 153.97 212.569C153.674 212.459 153.368 212.378 153.015 212.376C152.172 212.372 151.287 212.638 150.501 212.915C148.783 213.522 147.184 214.426 145.483 215.075C143.871 215.692 142.086 216.014 140.366 215.737C138.773 215.481 137.577 214.648 136.477 213.507L136.317 213.338C135.834 212.825 135.318 212.259 134.603 212.121ZM135.864 206.188C135.068 205.768 134.098 205.376 133.177 205.499C132.298 205.615 131.712 206.211 131.171 206.849L130.878 207.198C129.91 208.344 128.957 209.307 127.464 209.779C125.918 210.265 124.278 210.075 122.839 209.362C122.328 209.109 121.853 208.794 121.375 208.483L121.401 211.854V211.854C122.356 212.33 123.327 212.759 124.394 213.019C126.363 213.499 128.037 213.143 129.72 212.057L129.897 211.942C131.165 211.109 132.466 210.117 134.032 210.024C135.561 209.932 136.708 210.78 137.715 211.818L137.833 211.941C139.103 213.281 140.385 213.934 142.274 213.78C144.105 213.63 145.819 212.821 147.496 212.124L147.649 212.061C149.182 211.431 150.951 210.783 152.635 211.024C153.038 211.081 153.56 211.205 154.025 211.423C154.092 209.846 154.124 208.268 154.13 206.687C153.173 205.856 151.684 205.719 150.486 206.059C148.61 206.592 147.074 207.965 145.282 208.711C143.694 209.373 142.037 209.521 140.417 208.895C138.744 208.249 137.432 207.016 135.864 206.188ZM154.025 199.547C151.221 199.645 148.479 201.468 145.802 202.164C142.812 202.94 140.372 201.882 137.708 200.707L137.364 200.556C135.997 199.955 134.529 199.416 133.014 199.661C131.537 199.903 130.232 200.72 128.962 201.46L128.719 201.6C126.406 202.917 124.05 203.819 121.35 203.594C121.365 204.442 121.358 205.288 121.361 206.116C121.804 206.37 122.231 206.657 122.637 206.919L122.782 207.011C124.07 207.817 125.397 208.346 126.932 207.849C128.415 207.367 129.112 206.076 130.13 205.013C131.066 204.036 132.287 203.443 133.656 203.5C135.129 203.559 136.521 204.208 137.738 205C138.955 205.793 140.132 206.818 141.556 207.215C144.75 208.103 147.486 204.723 150.507 204.197C151.775 203.975 153.173 204.256 154.13 205.021C154.12 203.199 154.08 201.373 154.025 199.547ZM129.894 198.782C129.499 198.797 129.104 198.814 128.708 198.831C127.246 198.894 125.785 198.966 124.323 199.049C123.311 199.103 122.066 199.414 121.073 199.106C121.048 199.207 121.014 199.304 120.97 199.399C121.12 200.148 121.213 200.921 121.27 201.703C122.187 201.802 123.118 201.769 124.023 201.58C126.192 201.13 127.954 199.761 129.894 198.782ZM153.982 198.154C148.644 198.522 143.264 198.396 137.917 198.511L137.275 198.526C137.25 198.526 137.225 198.529 137.199 198.529C137.813 198.767 138.421 199.039 139.027 199.316L139.633 199.594C141.066 200.253 142.523 200.792 144.127 200.676C145.844 200.551 147.463 199.85 149.068 199.283C150.6 198.742 152.364 198.379 153.997 198.615C153.993 198.461 153.989 198.309 153.982 198.154Z" fill="black"/>
<path fill-rule="evenodd" clip-rule="evenodd" d="M109.619 53.9492C121.59 53.9492 139.111 61.9628 140.429 69.6728C141.982 78.7587 145.43 112.924 143.553 124.104C141.675 135.285 134.354 143.546 118.163 143.546C101.972 143.546 89.8874 134.694 87.1127 131.655C84.3379 128.616 80.9757 119.158 80.9757 119.158C80.9757 119.158 72.1112 117.651 72.0701 110.567C72.029 103.483 76.5232 101.294 76.5232 101.294C76.5232 101.294 74.0977 71.9058 79.1958 64.627C84.2938 57.3483 97.6486 53.9492 109.619 53.9492Z" fill="#FDC6A0"/>
<path fill-rule="evenodd" clip-rule="evenodd" d="M145.761 91.3744C146.416 98.5159 146.663 105.719 146.79 112.888C146.912 119.681 146.315 126.765 142.455 132.573C139.08 137.654 133.94 141.342 128.216 143.333C124.959 144.468 121.352 144.888 117.911 144.992C116.134 145.045 114.353 144.969 112.586 144.785C112.363 144.761 112.14 144.741 111.917 144.722C110.42 144.588 108.936 144.455 107.846 143.322C107.503 142.965 107.507 142.232 108.015 141.999C108.983 141.557 109.638 141.511 110.699 141.657C111.578 141.777 112.459 141.872 113.345 141.934C115.242 142.067 117.152 142.071 119.05 141.925C122.537 141.657 126.104 140.67 129.27 139.173C134.235 136.823 138.5 132.972 140.802 127.919C143.441 122.133 143.309 115.442 143.185 109.212L143.18 108.957C143.043 102.045 142.788 95.1555 142.189 88.2676C141.962 85.6618 141.639 83.0703 141.316 80.4778C141.225 79.7479 141.134 79.018 141.045 78.2876C140.832 76.5207 140.551 74.7621 140.208 73.0165C140.104 72.4894 139.983 71.9665 139.862 71.4442C139.771 71.0512 139.68 70.6586 139.596 70.2648C139.455 70.2878 139.312 70.3007 139.164 70.3068C138.283 70.3366 137.319 70.121 136.666 69.4933C136.415 69.6645 136.097 69.7723 135.713 69.7913C133.369 69.9074 131.002 69.8556 128.64 69.804C127.349 69.7759 126.06 69.7477 124.778 69.7469C121.135 69.7448 117.49 69.7469 113.844 69.7575C113.289 69.7591 112.733 69.7612 112.177 69.7634C109.089 69.7752 105.997 69.7871 102.913 69.7047C102.26 69.6871 101.602 69.6758 100.942 69.6643C98.1804 69.6165 95.3786 69.5679 92.68 69.0664C91.5564 73.0694 91.5962 77.4676 93.9387 81.0436C94.6004 82.0518 94.0628 83.2395 93.2008 83.8694C92.3193 84.5121 90.735 85.4976 89.3794 85.5989C89.3268 85.7172 89.2737 85.8353 89.2206 85.9532C89.1411 86.1299 89.0618 86.3061 88.985 86.4821C88.338 87.9601 87.755 89.4473 87.3471 91.0122C87.1369 91.8187 86.956 92.6385 86.8038 93.4634C86.8162 93.6078 86.8291 93.7519 86.8445 93.8958C86.8445 93.9088 86.8461 93.9217 86.848 93.9361L86.8487 93.9421C86.8571 94.0015 86.8677 94.0691 86.874 94.1072C86.8931 94.2087 86.9121 94.3102 86.9311 94.4117C86.9895 94.7243 87.0479 95.0367 87.1101 95.3478C87.3062 96.3517 87.4578 97.3641 87.5655 98.3805C87.7616 100.241 87.7426 102.658 85.9337 103.76C84.9661 104.349 83.8066 104.288 82.7839 103.892C82.2137 103.672 81.7146 103.375 81.1998 103.069C81.0942 103.006 80.988 102.943 80.8803 102.88C80.714 102.783 80.5443 102.693 80.3749 102.604C80.1623 102.492 79.9501 102.38 79.7459 102.253C79.6449 102.189 79.548 102.113 79.4573 102.033C78.7721 102.179 78.1036 102.451 77.7286 102.637C76.7227 103.138 75.8396 103.863 75.0889 104.696C73.4931 106.469 73.0146 108.967 73.2381 111.286C73.4466 113.444 74.2922 115.923 75.9933 117.358C76.7333 117.983 77.6569 118.349 78.633 118.338C79.1134 118.334 79.5564 118.233 80.0202 118.11C80.218 118.058 80.436 118.035 80.6538 118.012C80.9395 117.982 81.225 117.953 81.4643 117.857C82.0903 117.605 82.8621 118.372 82.607 119.002C82.5502 119.142 82.5007 119.277 82.4528 119.408C82.3388 119.719 82.2344 120.003 82.065 120.264C83.8108 123.121 85.7229 125.89 87.7571 128.547C89.0471 130.229 90.4977 131.724 91.9548 133.225C92.5695 133.858 93.1854 134.493 93.7909 135.143C94.6913 136.111 95.0666 138.017 93.4369 138.431C92.0035 138.799 90.8898 137.481 90.006 136.436C89.8876 136.296 89.7733 136.16 89.663 136.035C85.7946 131.624 82.8705 126.56 81.5021 120.843C80.8846 121.283 80.176 121.521 79.4297 121.625C77.9434 121.83 76.4404 121.536 75.1376 120.782C70.2041 117.926 69.0109 110.21 71.3215 105.374C71.8787 104.21 72.7017 103.171 73.705 102.363C73.626 102.212 73.5948 102.034 73.6456 101.843C73.7347 101.509 73.8328 101.179 73.9357 100.85C73.8233 100.8 73.7411 100.697 73.7567 100.543C73.8352 99.7382 73.912 98.9335 73.9888 98.1289L74.0307 97.6896C74.0211 97.2534 74.0079 96.8174 73.9948 96.3813C73.9646 95.3804 73.9345 94.3786 73.9462 93.3717C73.9581 92.3003 73.9945 91.2293 74.031 90.1584C74.0729 88.9267 74.1148 87.695 74.1193 86.4626C74.1329 82.4716 74.2203 78.4826 74.3077 74.4936C74.3963 70.4513 74.4849 66.409 74.4967 62.3645C74.5091 58.4353 74.5175 54.5001 74.4142 50.5732C74.4131 50.5454 74.4126 50.5182 74.4121 50.4909C74.4116 50.4664 74.4111 50.4418 74.4102 50.4169C74.3973 49.9349 74.3668 49.428 74.3355 48.9077C74.1626 46.0353 73.9653 42.7564 76.5606 41.0348C77.0645 40.7011 77.6927 40.6969 78.2409 40.9124C79.8178 39.8113 81.7953 39.2806 83.6864 38.9741C86.474 38.523 89.2805 38.2525 92.0884 37.9819C92.9097 37.9027 93.7311 37.8235 94.5521 37.7398C96.4451 37.5475 98.4374 37.4738 100.343 37.516C101.335 37.5378 102.333 37.5019 103.333 37.466C104.276 37.4321 105.22 37.3981 106.162 37.4125C108.363 37.4484 110.581 37.5308 112.79 37.7126C112.842 37.7073 112.894 37.7026 112.946 37.6979C112.998 37.6931 113.05 37.6883 113.102 37.683C116.449 37.3613 119.792 37.5314 123.136 37.7016C123.946 37.7428 124.756 37.784 125.566 37.8183C129.525 37.9852 133.706 38.3952 137.26 40.2951C137.718 40.539 138.105 40.8163 138.435 41.1253C138.898 41.1906 139.34 41.3222 139.737 41.5435C140.881 41.3117 142.159 41.8257 142.43 43.157C142.824 45.1077 142.974 47.0752 142.737 49.0536C142.734 49.0785 142.731 49.1041 142.728 49.1303C142.726 49.1529 142.723 49.176 142.721 49.1995C143.198 51.0348 143.167 53.0393 142.769 54.8495C142.937 57.1367 143.032 59.4305 143.046 61.7205C143.048 62.067 143.053 62.4149 143.058 62.7636C143.075 64.0086 143.093 65.2629 142.978 66.4968C142.849 67.8854 142.279 68.9842 141.382 70.0388C141.213 70.2375 140.927 70.2705 140.689 70.2223C140.628 70.2098 140.574 70.1929 140.526 70.1728C140.968 71.1241 141.335 72.1228 141.694 73.0997C141.774 73.3163 141.853 73.5319 141.932 73.7457C142.628 75.6183 143.303 77.5225 143.781 79.4627C144.751 83.3746 145.39 87.3609 145.761 91.3744ZM78.5787 109.079C78.3786 108.94 78.1768 108.8 77.9583 108.697C77.9309 108.684 76.7756 108.308 76.9991 108.804C77.0749 108.969 76.8768 109.153 76.7355 109.007C76.335 108.599 76.5584 108.109 76.94 107.746C77.6292 107.088 78.6582 107.24 79.5036 107.397C80.68 107.615 81.8227 108.13 82.8135 108.792C83.8803 109.504 85.1979 110.491 85.4087 111.842C85.6006 113.082 84.3694 114.45 83.1023 113.619C82.4168 113.169 81.9367 112.499 81.455 111.828C81.1115 111.349 80.7672 110.869 80.3469 110.466C79.8513 109.992 79.3158 109.576 78.7489 109.195C78.6921 109.157 78.6355 109.118 78.5787 109.079Z" fill="black"/>
<path fill-rule="evenodd" clip-rule="evenodd" d="M123.152 128.274C121.732 127.695 120.465 126.728 119.538 125.493C119.216 125.063 119.133 124.61 119.2 124.195C119.276 123.729 119.552 123.306 119.928 123.023C120.305 122.739 120.777 122.598 121.233 122.67C121.63 122.732 122.024 122.949 122.337 123.399L122.402 123.489C122.953 124.235 123.67 124.846 124.488 125.241C125.276 125.621 126.158 125.798 127.07 125.695C128.808 125.499 130.005 124.559 131.278 123.282C131.436 123.121 131.594 122.955 131.752 122.786C131.852 122.633 131.991 122.534 132.146 122.483C132.317 122.425 132.511 122.429 132.689 122.491C132.86 122.55 133.013 122.664 133.116 122.815C133.213 122.958 133.269 123.135 133.251 123.339C133.134 124.661 132.443 125.842 131.461 126.769C130.37 127.799 128.924 128.511 127.563 128.761C126.064 129.036 124.536 128.839 123.152 128.274V128.274ZM128.271 107.866C129.866 108.836 132.297 111.098 130.581 113.503C128.56 115.624 125.652 113.193 124.219 112.093C122.89 111.241 121.396 113.433 122.629 114.428C132.987 122.099 137.19 108.12 129.078 106.726C128.184 106.572 127.853 107.566 128.271 107.866ZM109.711 98.9429C109.887 96.7541 113.219 96.257 113.551 98.423C113.847 100.363 113.498 102.145 112.624 103.892C111.79 105.561 109.692 104.783 109.533 103.263C109.32 101.226 109.601 100.304 109.711 98.9429ZM135.076 97.9739C135.541 97.3652 136.212 96.9497 137.015 97.1845C139.526 97.9185 138.786 101.485 137.904 103.22C137.425 104.163 135.876 104.402 135.176 103.572C134.036 102.219 133.489 99.5157 134.94 98.1825C134.979 98.1136 135.023 98.044 135.076 97.9739ZM112.589 89.3654L112.986 89.2959C114.213 89.0836 115.738 88.8796 116.606 89.8665C117.067 90.3898 117.225 91.3624 116.606 91.8633C115.518 92.7446 114.314 92.4031 113.01 92.4777C111.935 92.5394 110.902 92.7174 109.867 93.0135C107.595 93.6629 105.744 94.8486 103.804 96.1505C103.55 96.3213 103.29 95.9956 103.411 95.7574C104.531 93.563 106.701 91.7604 108.875 90.6616C110.036 90.0751 111.305 89.5885 112.589 89.3654ZM132.787 88.3823L133.091 88.4445C136.395 89.1353 140.687 90.5153 142.251 93.7615C142.311 94.2205 142.248 94.3189 142.197 94.3832L142.18 94.4046C142.137 94.4595 142.104 94.5351 141.905 94.5976C141.85 94.5844 141.794 94.5705 141.737 94.5557C141.02 94.3677 140.453 94.1087 139.904 93.84L139.308 93.5465C138.617 93.2076 137.92 92.881 137.181 92.6399C135.605 92.1255 133.983 91.7631 132.337 91.5696C131.98 91.5277 131.636 91.4072 131.365 91.2006C131.108 91.0046 130.911 90.7332 130.821 90.3724C130.705 89.9056 130.739 89.5521 130.989 89.1309C131.177 88.8146 131.447 88.5953 131.756 88.4694C132.071 88.3411 132.43 88.3108 132.787 88.3823Z" fill="black"/>
</g>
<defs>
<clipPath id="clip0_2016_14129">
<rect width="200" height="267" fill="white"/>
</clipPath>
</defs>
</svg>
