<svg width="200" height="267" viewBox="0 0 200 267" fill="none" xmlns="http://www.w3.org/2000/svg">
<g clip-path="url(#clip0_2016_14102)">
<rect width="200" height="267" fill="white"/>
<path fill-rule="evenodd" clip-rule="evenodd" d="M221.496 179.325C218.479 179.621 215.462 179.917 212.446 180.213C197.997 181.318 183.555 183.624 169.217 185.008C168.86 184.427 168.162 184.523 167.737 184.926C166.307 184.801 164.703 183.707 163.407 184.845C163.365 184.839 163.323 184.832 163.281 184.828C160.973 180.398 159.378 175.672 157.83 170.94C156.842 168.031 155.513 165.215 153.056 163.261C148.864 160.35 139.258 154.446 134.335 154.695C134.253 153.813 133.843 152.904 133.168 152.317C134.655 149.781 128.709 148.126 128.29 148.42C128.559 139.948 124.575 132.59 115.791 130.902C107.921 129.262 96.7272 128.986 92.4946 137.214C92.0294 137.162 87.2735 137.137 86.8133 137.188C86.0979 136.282 78.2409 144.872 81.4612 147.862C52.6712 160.603 36.3012 159.082 28.3326 194.9C27.2553 198.264 27.1768 201.946 26.0393 205.236C21.9921 214.69 18.7095 224.757 17.8926 235.044C15.9195 235.549 15.6925 239.03 17.978 239.533C18.851 239.726 19.581 239.989 20.2176 240.487C19.72 248.917 21.758 268.174 23.0421 268.115C25.6605 276.451 37.3397 278.804 45.6082 275.874C44.1828 278.557 45.6082 280.243 45.6082 281.677C75.3604 282.803 107.891 282.154 137.635 283.699C141.44 283.645 145.442 284.634 149.195 284.064C151.483 283.515 151.487 279.916 149.166 279.47L159.309 277.266C159.082 277.181 163.49 274.248 166.822 268.767C169.923 262.636 167.812 255.235 169.217 248.565C180.192 247.667 191.347 247.283 202.201 245.424C203.681 249.854 210.088 244.556 212.124 242.425C212.121 242.422 212.119 242.419 212.116 242.415C213.102 242.146 213.892 241.222 213.919 240.128C214.61 239.14 214.755 237.747 214.092 236.793C217.13 219.257 221.761 201.353 223.435 183.653C224.026 183.522 224.584 183.263 225.056 182.863L225.018 182.825C225.818 181.932 225.974 180.391 224.639 179.632C223.563 179.02 222.664 179.21 221.496 179.325Z" fill="#FDC6A0"/>
<path fill-rule="evenodd" clip-rule="evenodd" d="M106.76 244.955L109.084 246.434L128.098 252.564L139.718 254.043L149.225 252.564V268.838L151.127 284.055C150.282 285.605 142.253 285.605 127.042 284.055C117.345 283.067 81.9061 282.587 73.8373 282.377L73.3801 282.364C63.8985 282.09 54.5323 282.09 45.2815 282.364V276.658L71.69 263.554L95.352 250.239L106.76 244.955ZM93.2877 135.884L95.034 137.188L91.2212 143.455L109.794 158.484V170.489L115.674 176.052L119.036 170.489L123.771 164.188L127.137 153.975L125.991 147.246L128.296 147.029C128.307 147.489 128.305 147.953 128.29 148.42C128.71 148.126 134.655 149.781 133.168 152.317C133.843 152.904 134.254 153.813 134.335 154.695C139.258 154.446 148.864 160.35 153.056 163.261C155.513 165.215 156.842 168.031 157.83 170.94L158.063 171.65L158.303 172.378L158.545 173.106C159.882 177.108 161.326 181.074 163.281 184.828C163.323 184.832 163.365 184.839 163.407 184.845C164.703 183.707 166.307 184.801 167.738 184.926C168.152 184.532 168.828 184.431 169.192 184.969L169.218 185.008L151.393 188.521L139.633 229.786L129.393 221.47L123.896 222.288L109.38 227.525L92.4968 231.912L53.9552 242.542H49.0471L20.487 235.643L17.9131 234.793C18.763 224.593 22.0251 214.613 26.0393 205.236C27.1769 201.946 27.2554 198.264 28.3327 194.9C36.3013 159.082 52.6713 160.603 81.4613 147.862C78.241 144.872 86.098 136.282 86.8134 137.188L86.8585 137.184L86.956 137.179L87.0816 137.175C88.2048 137.142 92.0772 137.167 92.4947 137.214C92.7369 136.743 93.0019 136.3 93.2877 135.884Z" fill="#FFCF77"/>
<path fill-rule="evenodd" clip-rule="evenodd" d="M224.345 180.578L223.814 183.538C223.688 183.579 223.559 183.614 223.429 183.643C223.263 185.407 223.066 187.174 222.845 188.942L219.553 207.295C218.986 210.542 218.447 213.796 217.912 217.051L217.203 220.548L216.764 222.721C215.816 227.427 214.895 232.118 214.087 236.782C214.209 236.958 214.303 237.148 214.372 237.348L214.31 237.611L214.267 237.787L214.223 237.96C213.585 240.412 212.476 242.789 209.861 243.511C207.889 244.055 205.726 244.104 203.689 244.319L203.464 244.343L167.831 248.352C163.526 248.836 159.222 249.335 154.919 249.839L151.189 250.277C145.99 250.879 140.761 251.353 135.638 252.443C135.45 252.484 135.294 252.559 135.166 252.658C136.198 248.751 137.185 244.85 138.08 240.904C139.088 236.463 140.044 232.013 141.121 227.588C143.292 218.673 145.725 209.817 148.389 201.037C148.948 199.194 149.519 197.355 150.104 195.52L150.514 194.238L150.83 193.216C151.318 191.657 151.922 190.056 153.355 189.196C155.031 188.19 157.316 188.023 159.217 187.675L160.505 187.433C162.431 187.074 164.359 186.728 166.29 186.396C175.534 184.805 184.831 183.529 194.162 182.571C203.871 181.573 213.614 180.925 223.369 180.608L224.345 180.578ZM135.905 241.773L135.996 241.78L134.665 252.424C134.452 252.275 134.182 252.184 133.852 252.185C129.486 252.198 125.301 250.802 121.253 249.267L120.637 249.032L118.918 248.371C117.171 247.702 115.415 247.047 113.626 246.504L112.903 246.286L112.535 246.177C111.181 245.781 109.756 245.422 108.347 245.332L108.155 245.322L108.565 245.106C108.625 245.075 108.678 245.04 108.724 245.002C109.5 245.059 110.277 245.043 111.095 244.896C112.633 244.619 114.129 244.083 115.503 243.338L116.117 243.005L116.368 242.872L116.534 242.786L116.699 242.703C117.878 242.114 119.007 241.746 120.496 242.059C122.187 242.415 123.669 243.327 125.193 244.097L125.464 244.232L125.646 244.32L125.831 244.407L126.019 244.493C128.08 245.421 131.361 246.422 132.151 243.619C132.469 242.492 132.22 241.437 131.669 240.513C132.696 240.424 134.53 241.635 135.905 241.773ZM187.217 206.704L187.242 206.832C187.533 208.401 186.802 209.903 185.696 210.998C184.789 211.896 183.183 212.395 182.728 213.686C182.469 214.421 182.744 215.118 183.276 215.604L183.154 215.664L183.034 215.726L182.917 215.787L182.803 215.85L182.692 215.913C180.885 216.951 179.413 218.64 181.043 220.68C182.892 222.995 186.756 223.07 189.478 222.889L189.661 222.876C192.3 222.678 195.427 221.791 196.858 219.353C197.515 218.234 197.442 216.882 196.527 215.925C195.975 215.347 194.991 214.754 194.088 214.684C194.127 214.175 194.066 213.683 193.888 213.269C193.5 212.372 192.471 211.768 191.477 211.746C191.558 209.842 190.033 207.962 188.911 206.44L188.796 206.284L188.685 206.13C188.17 205.414 187.068 205.815 187.217 206.704ZM188.723 208.731L189.746 212.563L189.728 212.595C189.368 213.279 190.312 214.056 190.873 213.481L190.929 213.42C191.594 212.733 192.614 213.657 192.627 214.388C192.645 215.417 191.975 216.213 191.177 216.738L191.122 216.774L190.975 216.866C190.32 217.299 190.815 218.204 191.535 218.094C192.426 217.957 193.156 217.251 193.606 216.368C194.087 216.506 194.634 216.489 195.14 216.773C196.416 217.487 195.683 218.736 194.852 219.491L194.818 219.521L194.75 219.58C193.226 220.881 191.15 221.332 189.193 221.429L189.081 221.434C187.104 221.519 184.529 221.547 182.835 220.384C181.781 219.661 181.476 218.634 182.368 217.662C182.872 217.113 183.382 216.559 183.906 216.023C184.691 216.398 185.392 216.246 186.195 215.891C186.298 215.846 186.241 215.688 186.14 215.688C185.697 215.688 184.072 214.866 183.993 214.34C183.92 213.854 184.819 213.444 185.256 213.209L185.319 213.174L185.374 213.142C185.831 212.865 186.262 212.543 186.655 212.18C187.654 211.261 188.379 210.108 188.695 208.846L188.723 208.731Z" fill="white"/>
<path fill-rule="evenodd" clip-rule="evenodd" d="M93.0432 135.303C93.9396 133.049 96.9698 133.925 96.632 136.293C96.4298 137.711 95.6534 139.209 94.956 140.452C94.3882 141.464 93.7404 142.451 92.8622 143.209C94.4256 144.669 96.0483 146.075 97.7122 147.409C99.5279 148.866 101.437 150.208 103.411 151.442C105.141 152.524 106.95 153.483 108.581 154.718C110.098 155.866 111.479 157.246 112.182 159.048C112.931 160.967 112.606 162.949 112.054 164.867L111.991 165.084C111.428 166.984 110.452 169.274 111.805 171.065C112.493 171.976 113.494 172.621 114.358 173.35C115.127 173.997 115.848 174.702 116.509 175.458C117.951 177.107 119.124 178.963 119.864 181.03L119.93 181.218C120.564 183.048 121.028 185.29 120.171 187.087C119.925 187.602 119.132 187.435 118.994 186.933C118.682 185.797 118.699 184.607 118.438 183.455C118.166 182.256 117.714 181.119 117.123 180.043C115.981 177.961 114.434 176.182 112.605 174.679L112.058 174.233C110.632 173.063 109.322 171.821 109.032 169.883C108.723 167.81 109.553 165.835 110.087 163.873C110.459 162.505 110.58 161.195 110.178 159.959C109.687 160.761 109.017 161.522 108.487 162.201C107.431 163.554 106.366 164.899 105.303 166.246C104.213 167.627 103.15 169.03 102.138 170.47C101.685 171.114 101.237 171.762 100.791 172.41C100.455 172.897 99.987 173.384 99.621 173.881C99.71 174.147 99.7032 174.454 99.542 174.671C97.6015 177.294 94.8409 171.822 94.1209 170.439C92.6547 167.623 91.5635 164.632 90.0925 161.817C88.5682 158.898 86.8324 156.058 84.8978 153.393C83.7276 151.782 82.416 150.268 81.3455 148.605C78.8236 150.893 75.5051 152.427 72.4569 153.817C69.1078 155.345 65.6284 156.593 62.1946 157.918L61.1803 158.313C55.2638 160.623 49.2027 163.16 44.285 167.263C38.5062 172.085 35.0875 178.805 32.5423 185.764C29.6125 193.775 27.1886 202.002 24.9291 210.225C23.7728 214.432 22.6757 218.658 21.6443 222.897C20.7354 226.632 19.982 230.404 18.9299 234.101C21.0637 234.025 23.4973 234.852 25.3191 235.09C33.6217 236.177 41.8125 237.91 49.6512 240.911C50.6194 241.282 50.8996 242.249 50.6887 243.033C51.2471 242.876 51.8051 242.716 52.3634 242.559C51.7517 241.621 52.0437 239.945 52.0918 238.905L52.0947 238.834C52.1441 237.449 52.2944 236.062 52.3917 234.68C52.5772 232.045 52.8187 229.429 53.1397 226.808L53.2216 226.153C53.5854 223.303 53.8544 220.435 54.2513 217.589L54.2982 217.264C54.1079 216.536 53.8863 215.816 53.6537 215.1C53.0338 213.193 52.1589 211.397 51.3922 209.55C51.3018 209.333 51.6115 209.208 51.7563 209.338C53.0547 210.507 54.0861 211.989 54.9147 213.539C54.9291 213.466 54.9418 213.393 54.9568 213.32L55.0513 212.854C55.2845 211.719 55.5681 210.524 56.2643 209.603C56.3384 209.506 56.4851 209.485 56.5552 209.603C57.2215 210.731 57.2961 212.16 57.3986 213.443C57.5146 214.895 57.5291 216.366 57.5087 217.822C57.4687 220.667 57.2682 223.521 57.1085 226.361C56.9518 229.153 56.6441 231.909 56.2476 234.673L56.1722 235.192C55.9783 236.507 55.8196 237.839 55.5639 239.146L55.4917 239.502C55.355 240.15 55.2709 241.063 54.9988 241.822C61.9998 239.869 69.0115 237.96 76.0366 236.085C81.114 234.729 86.1967 233.394 91.2772 232.05C91.5453 231.567 91.8791 231.115 92.2958 230.712C93.6684 229.382 95.4874 228.789 97.1558 229.812C97.2914 229.896 97.3028 230.108 97.1558 230.189C96.8361 230.364 96.5158 230.543 96.2013 230.73L99.252 229.903C101.532 229.285 103.84 228.512 106.174 228.081C110.472 225.959 115.096 224.423 119.624 222.905L120.157 222.724C122.476 221.934 124.874 221.048 127.27 220.61C129.024 220.289 131.082 220.676 131.787 222.474C132.68 223.062 133.52 223.754 134.331 224.434C134.917 224.926 135.479 225.449 136.05 225.958L136.155 226.05C136.622 226.455 136.992 226.727 137.107 227.372C137.166 227.705 136.954 228.156 136.543 228.112C135.286 227.977 134.264 226.519 133.411 225.649C132.752 224.976 132.088 224.28 131.487 223.541C131.137 223.731 130.656 223.697 130.433 223.274C129.276 221.083 126.107 222.602 124.354 223.121L121.842 223.865C120.586 224.237 119.33 224.612 118.077 224.993C114.632 226.039 111.205 227.21 107.729 228.171C108.04 228.513 107.997 229.121 107.406 229.353C104.686 230.421 101.701 230.973 98.8744 231.706C97.0898 232.169 95.3063 232.635 93.5234 233.103C93.2177 233.598 92.9978 234.159 92.9053 234.811C92.565 237.21 93.2212 239.978 93.8604 242.298L93.9567 242.645C94.4821 244.51 95.2552 246.797 96.864 247.975C97.2567 248.262 97.7568 248.462 98.2609 248.507C101.41 246.885 104.559 245.264 107.71 243.645C108.294 243.346 108.834 243.752 108.965 244.234C110.076 244.052 111.184 243.764 112.194 243.422C113.89 242.845 115.215 241.746 116.805 240.986C119.883 239.515 123.025 241.322 125.781 242.695L126.416 243.007C127.651 243.607 130.222 244.759 130.814 243.119C131.388 241.532 129.575 239.836 128.404 239.122C127.009 238.27 125.383 237.815 123.806 237.435C122.905 237.218 121.994 237.041 121.077 236.912C120.036 236.766 118.962 236.788 117.96 236.45C117.463 236.283 117.386 235.492 117.96 235.361C119.502 235.01 121.342 235.393 122.951 235.785L123.792 235.992C125.413 236.39 127.05 236.889 128.527 237.683C129.6 238.26 130.734 239.138 131.474 240.211C132.117 239.614 132.917 239.634 133.75 239.856L134.203 239.981C134.95 240.188 135.555 240.331 136.282 240.188C136.379 239.659 136.478 239.129 136.583 238.6C137.619 233.398 138.755 228.216 140.008 223.061C142.171 214.17 144.672 205.377 147.493 196.673L147.776 195.803C148.426 193.812 148.95 191.644 149.999 189.815C150.991 188.085 152.58 187.089 154.468 186.562C156.61 185.963 158.862 185.65 161.048 185.246C161.535 185.156 162.024 185.07 162.512 184.982C162.1 184.237 161.792 183.391 161.515 182.742L161.466 182.63C160.87 181.271 160.335 179.888 159.818 178.497L159.432 177.452C158.499 174.934 157.536 172.458 156.224 170.104C154.843 167.626 153.011 165.6 150.728 163.924C146.072 160.505 140.46 158.761 135.944 155.107C135.759 154.958 135.996 154.702 136.184 154.797C139.233 156.329 142.525 157.371 145.696 158.619L146.322 158.866C148.829 159.86 151.375 160.943 153.544 162.552C155.963 164.347 157.869 166.576 159.301 169.226C160.712 171.839 161.615 174.763 162.61 177.554L162.877 178.298C163.278 179.413 163.693 180.524 164.168 181.609C164.546 182.471 165.25 183.454 165.57 184.438C166.446 184.286 167.321 184.134 168.198 183.988C187.184 180.816 206.382 178.953 225.623 178.408C226.375 178.387 226.765 179.105 226.654 179.762C224.807 190.685 223.166 201.645 221.366 212.576C220.58 217.347 219.778 222.114 218.958 226.879C218.543 229.293 218.062 231.698 217.669 234.116C217.351 236.068 217.12 238.036 216.575 239.943C216.085 241.653 215.334 243.302 214.101 244.607C212.772 246.013 210.917 246.694 209.049 247.015C204.308 247.832 199.445 248.165 194.665 248.709L169.219 251.605C169.591 254.986 169.619 258.315 169.448 261.736L169.351 263.603C169.271 265.105 169.176 266.609 168.961 268.096C168.69 269.96 167.837 271.539 166.581 272.932C165.428 274.211 164.027 275.303 162.664 276.349C161.249 277.434 159.788 278.483 158.124 279.154L157.909 279.24C156.449 279.81 153.712 280.692 151.718 280.37C151.978 281.676 152.483 283.082 152.035 284.375C151.828 284.975 151.043 285.274 150.562 284.764C149.61 283.751 149.535 282.414 149.31 281.093C149.075 279.718 148.873 278.339 148.693 276.956C148.345 274.282 148.074 271.584 147.992 268.887C147.907 266.118 147.94 263.345 148.089 260.579C148.165 259.159 148.261 257.739 148.441 256.328C148.518 255.726 148.596 255.123 148.686 254.523C148.719 254.304 148.755 254.086 148.794 253.868L146.51 254.126C143.008 254.517 139.504 254.871 135.977 254.925C135.56 254.932 135.238 254.742 135.028 254.464C134.805 254.829 134.415 255.09 133.857 255.088C128.932 255.069 124.345 253.458 119.866 251.559C117.608 250.602 115.385 249.566 113.123 248.616C111.012 247.73 108.756 247.098 106.696 246.1L101.283 248.94C101.244 249.08 101.193 249.212 101.139 249.323C100.786 250.042 100.091 250.433 99.3817 250.727C98.7006 251.01 97.9951 251.097 97.3079 251.026C93.2029 253.178 89.097 255.328 84.9883 257.473L80.8787 259.616C72.6908 263.881 64.5352 268.216 56.2958 272.38L55.6892 272.686C52.8432 274.113 49.7873 275.56 46.629 276.64C46.5728 277.44 46.6083 278.218 46.6753 279.064L46.6914 279.249C46.7856 280.249 46.9875 281.502 46.1853 282.214C45.7681 282.585 45.0227 282.586 44.739 282.028C44.2241 281.015 44.6864 279.419 44.8495 278.319C44.9074 277.928 44.9779 277.525 45.0823 277.135C41.4616 278.213 37.7313 278.736 34.0467 278.131C30.4594 277.542 27.681 275.281 25.4412 272.516C23.0773 269.598 21.3975 266.197 20.4963 262.551C19.4706 258.403 19.4036 254.119 19.4277 249.87C19.4532 245.345 19.6206 240.798 20.1707 236.303C19.5679 236.161 18.8995 236.039 18.2904 236.081C17.9887 236.564 17.4035 236.767 16.8747 236.704C15.7248 237.973 18.6415 239.27 19.5737 239.594C19.8973 239.707 19.8627 240.233 19.4894 240.217L19.2542 240.206C17.8139 240.13 16.3259 239.884 15.4791 238.545C14.8005 237.471 15.0044 236.2 15.8133 235.325C16.3476 230.271 17.6249 225.349 18.8137 220.42C19.9803 215.581 21.2777 210.773 22.6529 205.989L23.2694 203.848C25.4345 196.348 27.6976 188.787 30.6842 181.584C32.1756 177.988 33.8936 174.458 36.2224 171.322C38.3932 168.399 40.956 165.897 43.902 163.761C49.3939 159.778 55.838 157.371 62.1697 155.079L62.4532 154.976C65.7344 153.789 69.0075 152.587 72.2513 151.301C75.1201 150.163 77.8685 148.72 80.7238 147.566C80.631 147.397 80.5415 147.227 80.4553 147.055L80.4025 147.099C80.3935 147.106 80.3842 147.113 80.3746 147.12C80.0875 147.319 79.6647 147.221 79.4281 146.997C78.76 146.367 78.9862 145.667 79.4321 145.013L79.4902 144.929C80.0357 144.165 80.5222 143.357 81.0257 142.565L81.341 142.069C82.186 140.746 83.0741 139.414 84.2008 138.32C84.7227 137.813 85.2939 137.434 85.8992 137.151C85.8475 137.042 86.3013 136.818 86.4299 136.931C88.3476 136.229 90.5539 136.376 92.6446 136.569M167.988 251.745L165.321 252.048C162.388 252.382 159.454 252.705 156.519 253.025L150.145 253.718C150.128 254.081 150.084 254.437 150.076 254.711C150.035 256.127 150.004 257.543 149.974 258.958C149.915 261.796 149.98 264.637 150.167 267.47C150.348 270.214 150.586 272.959 150.957 275.685L151.032 276.23L151.076 276.517C151.379 276.546 151.676 276.69 151.923 276.985C152.462 277.629 154.414 277.003 155.177 276.732C156.43 276.285 157.611 275.531 158.701 274.775C159.765 274.037 160.723 273.176 161.643 272.269L162.397 271.523C163.146 270.778 163.896 269.985 164.355 269.048C164.978 267.777 165.058 266.217 165.241 264.834C165.466 263.131 165.733 261.429 166.016 259.736M90.5887 233.877L90.3122 233.95C80.2662 236.62 70.2352 239.369 60.1584 241.922C55.1716 243.185 50.1612 244.357 45.1683 245.596L44.3599 245.798C40.4211 246.794 36.4349 247.993 33.4187 250.851C33.3073 250.956 33.1457 250.794 33.2505 250.682C36.5013 247.22 41.1246 245.755 45.5638 244.485C46.3844 244.25 47.206 244.02 48.0268 243.787C41.9896 241.634 35.8571 239.761 29.5831 238.425C27.9675 238.081 26.3332 237.828 24.7189 237.483C23.593 237.242 22.4936 236.893 21.3796 236.604L20.5034 236.384L20.4918 239.154C20.4772 243.078 20.4842 246.998 20.6843 250.922L20.7222 251.648C20.9556 256.014 21.32 260.471 22.8688 264.588C24.1273 267.933 26.1333 271.084 28.7566 273.521C30.084 274.754 31.5111 275.713 33.2752 276.187C34.9132 276.627 36.6293 276.679 38.3131 276.561C46.3896 275.998 53.5791 271.609 60.5949 267.975C72.0703 262.031 83.547 256.09 95.034 250.169C94.7234 249.957 94.431 249.712 94.1651 249.437C92.6247 247.845 91.8122 245.667 91.2785 243.557C90.7104 241.311 90.3707 238.904 90.3312 236.585M105.205 252.463C105.306 252.409 105.424 252.477 105.428 252.592C105.464 253.469 104.979 254.335 104.617 255.126L104.578 255.21C104.138 256.19 103.656 257.156 103.158 258.107C102.162 260.007 101.127 261.887 100.046 263.74C97.8737 267.469 95.4593 271.04 92.6055 274.287C91.9609 275.02 90.9008 274.08 91.3145 273.29C93.3088 269.484 95.6338 265.89 98.0271 262.327C99.2252 260.543 100.422 258.758 101.632 256.982C102.137 256.241 102.648 255.503 103.173 254.775L103.49 254.341M224.35 180.588C214.269 180.893 204.2 181.551 194.167 182.581C184.836 183.54 175.539 184.816 166.295 186.406C164.364 186.738 162.436 187.084 160.51 187.444L159.355 187.661C157.428 188.026 155.075 188.177 153.36 189.206C151.552 190.292 151.063 192.56 150.461 194.43C149.754 196.63 149.065 198.836 148.394 201.048C145.73 209.828 143.297 218.684 141.126 227.599C140.049 232.024 139.093 236.473 138.086 240.915C137.191 244.86 136.203 248.762 135.172 252.668C135.299 252.569 135.455 252.494 135.643 252.454C140.766 251.364 145.995 250.89 151.194 250.287L151.697 250.229C157.076 249.596 162.455 248.968 167.837 248.362L203.469 244.354C205.57 244.117 207.822 244.085 209.867 243.521C213.344 242.562 214.159 238.673 214.742 235.576L214.76 235.482C216.518 226.125 217.918 216.687 219.559 207.306M136.001 241.791C134.618 241.7 132.724 240.432 131.675 240.523C132.226 241.448 132.474 242.503 132.157 243.629C131.273 246.764 127.276 245.142 125.351 244.184C123.773 243.399 122.249 242.438 120.501 242.07C118.522 241.653 117.181 242.441 115.508 243.348C114.135 244.094 112.639 244.629 111.1 244.906C110.282 245.054 109.505 245.07 108.73 245.012C108.683 245.05 108.63 245.085 108.57 245.117L108.16 245.332C110.015 245.417 111.905 245.99 113.631 246.514C115.42 247.057 117.177 247.712 118.924 248.382L120.642 249.043C124.881 250.667 129.269 252.209 133.857 252.195C134.187 252.194 134.457 252.286 134.67 252.435M128.261 231.969C129.628 231.801 130.889 231.981 131.981 232.871C133.298 233.944 134.183 235.724 136.076 235.841C136.628 235.875 136.757 236.651 136.208 236.814C134.799 237.231 133.658 236.468 132.697 235.478L132.052 234.803C131.103 233.82 130.228 233.06 128.618 233.119C126.893 233.182 125.166 233.581 123.453 233.783C121.512 234.013 119.572 234.208 117.625 234.377C117.534 234.385 117.519 234.243 117.604 234.222L119.784 233.679M126.942 226.379L127.167 226.357C129.152 226.164 130.967 226.156 132.739 227.224L133.079 227.43C134.677 228.402 136.416 229.546 137.416 231.12C137.579 231.377 137.309 231.68 137.035 231.614C135.115 231.153 133.711 229.744 132.096 228.689C130.283 227.505 128.41 227.7 126.344 227.884C124.343 228.062 122.342 228.307 120.361 228.64C118.499 228.954 116.631 229.448 114.751 229.606L114.751 229.602C114.536 229.602 114.414 229.279 114.633 229.169C116.541 228.216 118.752 227.765 120.828 227.329M187.23 206.756C187.038 205.838 188.167 205.413 188.69 206.141L188.801 206.294C189.931 207.843 191.566 209.787 191.482 211.757C192.476 211.778 193.506 212.382 193.893 213.279C194.072 213.694 194.132 214.186 194.093 214.694C194.996 214.765 195.981 215.358 196.533 215.935C197.448 216.892 197.52 218.245 196.863 219.363C195.432 221.801 192.306 222.688 189.666 222.886L189.572 222.893C186.846 223.082 182.918 223.031 181.048 220.691C179.245 218.434 181.238 216.607 183.282 215.614C182.75 215.128 182.474 214.432 182.733 213.697C183.188 212.405 184.794 211.906 185.701 211.008C186.808 209.914 187.538 208.412 187.247 206.842M188.728 208.741C188.428 210.048 187.689 211.244 186.661 212.191C186.267 212.553 185.837 212.876 185.38 213.153L185.325 213.185C184.919 213.412 183.922 213.839 183.998 214.351C184.077 214.876 185.702 215.698 186.145 215.699C186.246 215.699 186.303 215.856 186.2 215.902C185.397 216.257 184.696 216.409 183.911 216.034C183.387 216.569 182.878 217.124 182.373 217.673C181.481 218.645 181.786 219.671 182.841 220.395C184.535 221.558 187.109 221.529 189.086 221.445C191.075 221.36 193.202 220.916 194.755 219.59L194.823 219.531C195.668 218.78 196.439 217.507 195.146 216.783C194.639 216.5 194.092 216.517 193.611 216.379C193.161 217.261 192.431 217.968 191.541 218.104C190.821 218.214 190.325 217.309 190.98 216.876L191.127 216.785C191.949 216.26 192.651 215.451 192.632 214.398C192.62 213.667 191.599 212.744 190.934 213.431L190.904 213.464C190.348 214.091 189.368 213.3 189.734 212.605L189.751 212.574M58.9849 172.393C58.9824 172.236 59.2032 172.177 59.2803 172.313C60.5715 174.586 61.2465 177.372 61.9344 179.876C62.6549 182.499 63.2365 185.148 63.7589 187.817C64.8172 193.221 65.3811 198.595 65.4193 204.103C65.4246 204.889 64.1439 205.099 64.0186 204.293C63.1868 198.935 62.3899 193.571 61.5518 188.215C61.1301 185.521 60.6394 182.837 60.1697 180.151M71.7683 176.352C71.6732 176.038 72.1292 175.933 72.2458 176.22C74.8372 182.584 75.7148 189.795 74.0511 196.509C73.7965 197.536 72.2929 197.091 72.4849 196.077M105.195 170.697C105.181 170.463 105.486 170.426 105.601 170.587C106.828 172.318 107.338 174.636 109.492 175.53C110.568 175.977 111.778 175.899 112.728 176.653C113.364 177.158 113.851 177.954 113.374 178.718C113.22 178.965 112.79 179.089 112.581 178.821C112.276 178.43 112.115 177.962 111.701 177.669C111.117 177.256 110.33 177.23 109.661 177.036C108.795 176.785 108.032 176.345 107.407 175.693M125.708 141.83C125.835 141.766 125.956 141.807 126.037 141.917C126.153 142.072 126.139 142.224 125.997 142.331C126.186 142.718 126.409 143.686 126.441 143.827C126.571 144.399 126.708 144.967 126.852 145.534C127.142 146.679 127.397 147.833 127.687 148.978C127.995 150.192 128.362 151.393 128.771 152.577C128.797 152.654 128.826 152.732 128.856 152.812L128.903 152.931L128.914 152.913C128.997 152.782 129.17 152.874 129.15 153.012C129.131 153.139 129.105 153.265 129.083 153.391L129.126 153.504C129.393 154.223 129.576 154.981 129.086 155.616C128.903 155.853 128.701 155.993 128.45 156.035C128.047 157.365 127.541 158.669 126.999 159.922L126.841 160.288C126.044 162.116 125.195 163.921 123.926 165.477C122.542 167.176 120.637 168.337 119.431 170.199C118.87 171.065 118.479 171.975 118.163 172.954L118.043 173.325C117.818 174.017 117.559 174.687 116.91 175.093C116.703 175.222 116.393 175.181 116.226 175.005C114.896 173.597 116.288 170.968 117.091 169.605C118.206 167.71 119.82 166.497 121.436 165.067C123.177 163.526 124.289 161.464 125.363 159.433C126.022 158.188 126.657 156.917 127.326 155.667C126.627 155.049 126.403 153.821 126.166 152.968L126.145 152.891C125.753 151.525 125.442 150.123 125.246 148.714C125.057 147.36 124.978 146.026 125.028 144.664L125.042 144.317M128.307 148.275C128.153 148.063 128.409 147.823 128.62 147.867C129.909 148.134 131.168 148.914 132.325 149.545L132.448 149.612C133.371 150.11 134.3 150.72 134.785 151.687C135.312 152.738 135.268 153.949 135.196 155.092L135.19 155.199C135.101 156.569 135.087 157.993 134.797 159.338C134.649 160.027 134.026 160.221 133.493 160.058C132.858 162.061 131.077 163.537 129.775 165.118C128.116 167.134 128.428 169.855 128.602 172.282C128.672 173.265 127.45 173.544 126.821 173.02L125.37 171.815C125.129 171.614 124.887 171.412 124.647 171.21C124.441 171.036 124.237 170.862 124.034 170.685L123.732 170.417C123.598 170.297 123.006 169.636 122.833 169.609C122.414 169.542 121.418 170.647 121.077 170.993L121.034 171.037C120.393 171.666 119.813 172.343 119.273 173.061C119.174 173.193 118.98 173.083 119.051 172.931C119.535 171.894 120.097 170.903 120.765 169.976L120.9 169.791C121.344 169.192 121.94 168.135 122.725 167.958C123.682 167.742 124.638 168.703 125.335 169.236L125.379 169.269C125.711 169.518 126.038 169.771 126.365 170.026C126.331 168.219 126.559 166.393 127.492 164.835C128.15 163.737 129.135 162.923 129.978 161.98C130.917 160.928 131.407 159.637 132.257 158.542C132.366 158.401 132.517 158.325 132.68 158.301C132.713 157.421 132.843 156.533 132.943 155.662L132.972 155.402C133.073 154.456 133.312 153.301 132.849 152.415C132.412 151.578 131.409 150.988 130.666 150.42L130.059 149.949M86.4944 138.274C86.1065 138.498 85.7439 138.778 85.415 139.127C84.3796 140.225 83.6393 141.593 82.9189 142.908C82.531 143.617 82.157 144.333 81.766 145.04C81.5959 145.347 81.421 145.651 81.2442 145.955C81.1624 146.095 80.9194 146.373 80.799 146.545C80.9328 146.732 81.0712 146.917 81.2123 147.099C81.2661 147.169 84.9804 151.217 86.2751 152.801C88.2576 155.227 90.0297 157.791 91.5447 160.534C93.0282 163.22 94.1577 166.065 95.532 168.803C96.2199 170.174 96.988 171.535 97.9673 172.722C98.0051 172.768 98.045 172.812 98.0837 172.858C98.4574 171.848 99.415 170.766 99.8853 170.145L99.9293 170.087C100.996 168.648 102.122 167.253 103.273 165.882C104.325 164.629 105.403 163.404 106.507 162.199L106.922 161.748C107.691 160.917 108.668 159.673 109.794 159.079C109.674 158.864 109.534 158.651 109.374 158.441C108.319 157.062 106.827 156.061 105.355 155.158L104.401 154.577C100.804 152.384 97.2622 150.089 94.1391 147.239C92.4868 145.732 90.8573 144.152 89.4684 142.394L88.9772 141.772M92.4969 137.188C90.8122 137.33 88.993 137.296 87.4362 137.845C88.8202 139.154 90.1358 140.567 91.4872 141.898C91.6075 140.998 91.8534 140.109 92.0617 139.231" fill="black"/>
<path fill-rule="evenodd" clip-rule="evenodd" d="M109.619 53.9492C121.59 53.9492 133.972 63.2511 138.359 69.187C142.049 74.1775 144.035 96.7446 144.035 111.996C144.035 115.185 145.791 121.198 145.278 124.249C143.401 135.429 135.22 144.806 119.03 144.806C102.839 144.806 91.2302 138.372 79.1959 121.098C73.3569 121.098 70.527 116.609 70.4859 109.525C70.4448 102.44 76.1221 99.863 76.1221 99.863C76.1221 99.863 74.0979 71.9057 79.1959 64.627C84.294 57.3483 97.6488 53.9492 109.619 53.9492Z" fill="#FDC6A0"/>
<path fill-rule="evenodd" clip-rule="evenodd" d="M104.582 49.9962C112.14 49.229 119.546 49.8736 126.994 51.2074C127.563 51.3108 127.886 51.6851 128.006 52.135C131.514 52.2957 135.027 52.5537 138.53 52.7461C139.802 52.8158 140.522 54.0752 139.943 55.2125C139.827 55.4384 139.707 55.6582 139.584 55.8781L139.738 55.8273C140.792 55.4883 141.93 55.3212 142.957 55.8592C144.265 56.544 144.777 58.055 144.488 59.4456C144.414 59.8007 144.29 60.141 144.149 60.473C144.435 60.454 144.724 60.4603 145.011 60.4984C146.537 60.7013 147.672 61.8743 147.752 63.4362C147.87 65.7946 146.354 68.1873 144.568 69.8758C144.827 70.4107 144.927 71.0405 144.819 71.6788C144.604 72.9406 143.677 73.6961 142.602 74.189C143.05 75.6158 143.262 77.1076 143.137 78.632C143.095 79.141 142.651 79.5613 142.183 79.6645C143.93 84.4862 144.814 89.663 145.45 94.7073C145.903 98.2963 146.126 101.906 146.153 105.522C146.167 107.155 146.14 108.789 146.072 110.422L146.044 111.034C145.96 112.799 145.956 114.652 145.639 116.398C146.719 118.239 147.153 120.524 147.336 122.587C147.564 125.14 147.204 127.773 146.4 130.202C143.369 139.378 134.219 145.169 125.029 146.674C116.523 148.067 106.679 146.192 101.708 138.446C101.63 138.324 101.797 138.222 101.894 138.303C105.45 141.202 109.576 142.496 114.058 143.126C121.808 144.212 130.519 142.369 136.738 137.483C139.723 135.137 141.876 131.721 142.823 128.046C143.305 126.167 143.472 124.208 143.282 122.274C143.088 120.313 142.222 118.639 141.676 116.785C141.492 116.159 141.686 115.578 142.068 115.164C142.175 113.659 142.428 112.142 142.525 110.641C142.633 108.935 142.698 107.23 142.722 105.522C142.766 101.98 142.618 98.4313 142.321 94.9041C141.777 88.445 140.333 82.1428 139.485 75.7386C139.172 76.0208 138.722 76.1366 138.25 75.8901L138.201 75.8633L137.944 75.7156C137.93 75.7156 137.913 75.7177 137.898 75.7196C136.138 75.891 134.312 75.6459 132.625 75.1194C130.86 74.5701 129.223 73.7247 127.759 72.5982C127.481 74.0119 127.365 75.4406 127.363 76.882C127.361 77.7824 126.41 78.2497 125.655 77.865C122.31 76.1613 119.114 74.1981 116.08 71.9916C115.726 73.8113 115.372 75.6309 115.015 77.4527C114.878 78.1546 113.986 78.4378 113.415 78.1039C111.143 76.7785 109.18 75.0435 107.582 72.9805C107.263 73.5922 106.943 74.2037 106.621 74.8139L106.135 75.7281C105.657 76.6263 105.016 77.6199 103.968 77.9071C102.859 78.2114 101.934 77.4909 101.561 76.4847C101.447 76.1721 101.341 75.8507 101.244 75.5273C100.3 77.6896 99.2332 79.8031 98.0273 81.8194C96.2184 84.8436 94.0467 87.5383 91.8818 90.3028C91.2241 91.1421 90.0983 90.3408 90.0076 89.5252C89.9549 89.0455 89.9106 88.5636 89.8725 88.0836C88.6109 90.6359 87.2945 93.1643 85.8603 95.6193L86.0657 96.426V96.426C86.6574 98.8096 87.1489 101.21 87.6831 103.606C87.8555 104.38 87.4457 105.485 86.5446 105.617C85.4682 105.774 84.4497 106.325 83.3471 105.946C82.1448 105.532 81.9072 104.49 81.3397 103.503C81.2265 103.306 81.0947 103.125 80.953 102.954L80.917 103.001V103.001C80.8284 103.117 80.6176 102.99 80.6703 102.857L80.7321 102.703V102.703C80.2444 102.184 79.6609 101.752 79.1244 101.286C77.8493 101.071 76.4151 101.307 75.5366 101.826C73.5359 103.009 72.6169 105.448 72.5979 107.691C72.5747 110.316 73.3862 113.266 74.7565 115.511C75.3597 116.498 76.1861 117.389 77.278 117.827C78.3618 118.262 79.5361 118.127 80.6387 118.537C81.3681 118.81 81.8172 119.622 81.3766 120.357C81.347 120.408 81.3133 120.454 81.2815 120.503L81.6094 120.939C81.835 121.241 82.0702 121.565 82.2894 121.902C82.8502 122.549 83.4405 123.172 84.0118 123.808C85.0678 124.981 86.0926 126.186 87.1318 127.376C88.1123 128.498 89.1496 129.553 90.2184 130.59C91.2283 131.573 92.489 132.4 93.4166 133.448C94.3187 134.471 94.5635 136.257 93.0791 136.849C91.4369 137.505 89.9832 135.967 88.8777 134.941L88.8312 134.898C86.8048 133.028 84.9749 130.892 83.5217 128.54C82.0822 129.522 80.0001 129.616 78.5667 128.634C77.8124 128.117 77.2337 127.249 76.9525 126.304C76.6872 126.364 76.4222 126.398 76.1638 126.394C76.0308 126.472 75.8973 126.547 75.7624 126.617C74.6933 127.175 73.3801 126.926 72.891 125.74C72.4456 124.663 72.9045 123.441 73.3057 122.403L73.3885 122.189C73.6162 121.598 73.8671 120.953 74.1791 120.346C73.3105 119.691 72.5682 118.877 71.9402 117.952C69.8298 114.834 68.7757 110.275 69.2417 106.556C69.522 104.311 70.5738 101.986 72.2963 100.473L72.2332 100.308V100.308C71.7504 99.0804 71.3117 97.848 71.0273 96.5505C70.6942 95.033 70.5317 93.4606 70.3843 91.9156C70.0723 88.6524 70.1566 85.3151 70.5719 82.0646C71.352 75.946 73.3295 69.9394 76.8397 64.848C75.8444 63.6536 75.0561 62.2482 75.467 60.6315C75.6549 59.8895 76.0826 59.1859 76.7279 58.7609C77.084 58.5265 77.508 58.4906 77.8643 58.2961L77.9714 58.237C78.1279 58.1454 78.0082 58.1551 77.9149 57.7297C77.5459 56.0302 77.8516 54.3882 79.7174 53.8239C81.4735 53.2935 83.1348 54.4199 84.1742 55.762C86.8938 53.828 90.4777 52.8158 93.6295 51.9556C97.2135 50.9811 100.89 50.3726 104.582 49.9962ZM75.2059 106.997C75.193 105.613 76.5022 104.759 77.7906 104.986C78.6556 105.136 79.3773 105.654 80.0549 106.189L80.3853 106.451C81.2105 107.101 82.1579 107.801 82.6498 108.72C83.3708 110.077 81.8468 111.903 80.4237 110.952C79.4476 110.296 78.8218 109.245 78.1815 108.269L78.1152 108.168C77.8243 107.731 77.5692 107.266 77.1705 106.915L77.0844 106.839C76.9534 106.727 76.8127 106.625 76.6435 106.577C76.317 106.483 75.7124 106.614 75.5685 107.004L75.5556 107.044C75.5029 107.241 75.208 107.198 75.2059 106.997Z" fill="black"/>
<path fill-rule="evenodd" clip-rule="evenodd" d="M129.973 126.159C128.539 126.723 126.845 126.856 125.365 126.375C123.95 125.916 122.665 124.893 121.887 123.607C121.195 122.461 120.906 121.102 121.315 119.747C121.335 119.682 121.398 119.64 121.459 119.624C121.794 119.929 122.001 120.232 122.208 120.534C122.556 121.042 122.905 121.545 123.385 121.979C124.082 122.611 125.022 123.125 125.955 123.294C126.868 123.46 127.803 123.313 128.621 122.876C129.118 122.61 129.52 122.255 129.918 121.898C130.352 121.509 130.778 121.115 131.375 120.895C131.854 120.719 132.356 120.868 132.743 121.162C133.158 121.478 133.456 121.973 133.439 122.491C133.414 123.293 133.063 123.962 132.554 124.513C131.866 125.259 130.892 125.797 129.973 126.159ZM128.271 106.175C129.866 107.146 132.297 109.408 130.581 111.813C128.561 113.933 125.652 111.502 124.219 110.402C122.89 109.55 121.396 111.742 122.629 112.737C132.987 120.408 137.19 106.429 129.078 105.035C128.184 104.881 127.853 105.875 128.271 106.175ZM111.491 92.7338C113.665 92.6298 115.581 93.6067 117.653 94.0505C119.568 94.461 121.455 94.2145 123.317 93.6925C126.339 92.8452 127.589 97.4738 124.608 98.3758C122.437 99.0327 120.151 99.0783 117.923 98.7398C115.944 98.4388 114.285 97.475 112.398 96.9139C110.779 96.4326 108.874 96.6326 107.164 96.8592L106.5 96.9486C105.514 97.0815 104.522 97.2149 103.545 97.4078C102.697 97.5754 101.851 97.8821 100.986 97.9176C100.888 97.9218 100.805 97.7942 100.867 97.709C101.871 96.3288 103.808 95.2397 105.349 94.5133L105.454 94.4644C107.355 93.5773 109.373 92.8348 111.491 92.7338ZM110.694 102.912L110.694 102.864C110.697 101.516 111.481 98.439 113.421 98.439C114.632 98.439 115.368 100.533 115.495 102.692L115.5 102.78C115.556 104.122 115.188 107.056 113.421 107.056C111.635 107.056 110.712 104.277 110.694 102.912V102.912ZM139.248 102.912L139.248 102.864C139.245 101.516 138.46 98.439 136.521 98.439C135.34 98.439 134.611 100.43 134.457 102.53L134.446 102.692C134.37 103.989 134.714 107.056 136.521 107.056C138.307 107.056 139.229 104.277 139.248 102.912V102.912ZM139.218 91.0923L139.357 91.0954C141.623 91.174 143.955 92.5171 144.56 94.7733C144.591 94.8904 144.447 94.9692 144.361 94.8889C142.498 93.1434 139.991 94.8113 138.125 95.6855L137.44 96.0023C135.034 97.122 132.298 98.4383 129.626 97.6039C128.358 97.2076 127.552 95.9036 127.914 94.5865C128.236 93.4145 129.65 92.4296 130.875 92.8526L130.93 92.8728C131.925 93.2536 133.149 92.8678 134.176 92.4874L135.021 92.1703C136.378 91.655 137.742 91.0785 139.218 91.0923V91.0923Z" fill="black"/>
</g>
<defs>
<clipPath id="clip0_2016_14102">
<rect width="200" height="267" fill="white"/>
</clipPath>
</defs>
</svg>
