<svg width="200" height="267" viewBox="0 0 200 267" fill="none" xmlns="http://www.w3.org/2000/svg">
<g clip-path="url(#clip0_2016_14130)">
<rect width="200" height="267" fill="white"/>
<path fill-rule="evenodd" clip-rule="evenodd" d="M174.636 251.934C173.785 247.123 173.004 242.299 172.295 237.465C171.958 235.169 171.629 232.872 171.334 230.571C171.127 228.959 170.812 227.115 171.909 225.921C173.452 224.241 174.853 222.802 175.042 220.395C175.22 218.13 174.454 215.66 173.975 213.462C172.971 208.851 171.722 204.297 170.341 199.787C168.938 195.204 167.399 190.664 165.838 186.133C164.379 181.897 162.977 177.622 161.076 173.558C157.47 165.845 151.369 160.133 143.828 156.318C141.953 155.37 138.127 151.984 136.168 151.226C134.367 150.528 134.373 152.564 132.601 151.797C131.183 151.184 129.864 150.367 129.07 148.998C128.209 147.512 126.048 145.433 125.719 143.703C125.022 140.036 125.777 136.914 123.161 134.154C120.838 131.703 117.716 130.024 114.486 129.123C107.38 127.14 97.9028 128.526 93.6153 135.132C91.5675 138.287 90.852 142.1 88.0888 144.674C85.6759 146.922 86.2159 148.459 83.0908 149.618C82.9138 149.683 78.1164 148.654 77.9394 148.72C74.5206 147.988 71.2531 150.037 68.1166 151.226C63.4406 152.998 58.9888 155.304 54.8063 158.046C46.3727 163.574 39.1495 170.752 33.1945 178.874C27.1903 187.064 22.5316 196.244 19.2145 205.838C18.4089 208.168 17.6853 210.527 17.0471 212.908C16.6898 214.241 16.3081 215.624 16.7431 216.989C17.0989 218.105 17.8903 218.936 18.8196 219.606C20.0794 220.514 22.6064 221.104 22.5572 222.931C22.5196 224.32 22.0487 225.781 21.8188 227.153C21.5452 228.788 21.3204 230.431 21.0956 232.073C20.0731 239.544 19.2772 247.057 18.9253 254.592C18.5788 262.011 18.2913 269.581 18.8057 276.998C18.8397 277.487 18.9855 277.936 19.2206 278.315C19.0011 278.399 18.9842 278.809 19.2574 278.867C19.4488 278.907 19.6398 278.948 19.8312 278.988C20.2288 279.289 20.7246 279.474 21.2953 279.492C21.6821 279.504 22.0687 279.521 22.4551 279.541C26.5328 280.394 30.6099 281.199 34.7408 281.809C39.7622 282.551 44.7984 283.155 49.8502 283.647C60.2308 284.656 70.5297 284.321 80.9241 283.777C91.3024 283.234 101.675 283.107 112.064 283.377C122.462 283.648 132.856 284.1 143.257 284.285C154.876 284.492 166.478 284.174 178.064 283.25C179.652 283.124 180.635 281.86 180.322 280.281C178.445 270.825 176.318 261.431 174.636 251.934Z" fill="#FDC6A0"/>
<path fill-rule="evenodd" clip-rule="evenodd" d="M68.1166 151.226L68.3436 151.138C71.4106 149.939 74.603 148.005 77.9394 148.72C78.0574 148.676 80.2283 149.119 81.7153 149.399L80.3039 150.873L77.8131 151.352C86.406 165.54 96.569 172.634 108.302 172.634C120.035 172.634 128.938 165.54 135.011 151.352L135.84 151.123C135.943 151.147 136.052 151.18 136.168 151.226C138.127 151.984 141.953 155.37 143.828 156.318C151.369 160.132 157.47 165.845 161.076 173.558C162.913 177.487 164.285 181.612 165.693 185.709L165.838 186.133C167.399 190.664 168.938 195.204 170.341 199.786C171.662 204.101 172.863 208.455 173.843 212.86L173.975 213.462C174.454 215.66 175.22 218.129 175.042 220.395C174.975 221.252 174.754 221.987 174.427 222.653L157.431 228.771L165.528 284.017C158.111 284.335 150.688 284.417 143.257 284.285C132.856 284.1 122.462 283.648 112.064 283.377C101.989 283.115 91.931 283.226 81.8675 283.729L79.3119 283.86C69.4641 284.352 59.6939 284.604 49.8502 283.646L49.1794 283.581V283.581L49.1793 275.499L52.6371 230.501L35.1136 227.201L17.9118 218.843C17.3921 218.323 16.975 217.716 16.7431 216.988C16.3402 215.725 16.6379 214.445 16.9679 213.204L17.0471 212.908C17.6853 210.527 18.4089 208.168 19.2145 205.838C22.5316 196.244 27.1903 187.064 33.1945 178.874C39.1495 170.752 46.3727 163.573 54.8063 158.046C58.9888 155.304 63.4406 152.998 68.1166 151.226Z" fill="#EC7495"/>
<path fill-rule="evenodd" clip-rule="evenodd" d="M74.6975 148.487C75.772 148.44 76.8676 148.614 77.9396 148.72C78.033 148.729 78.0685 148.873 77.9633 148.895C76.0448 149.296 74.1473 149.844 72.2632 150.401L71.4564 150.64C69.3317 151.269 67.2693 151.918 65.2124 152.756C61.113 154.428 57.2195 156.684 53.6362 159.275C39.8379 169.256 29.8513 184.366 23.5492 200.01C21.8377 204.259 20.3876 208.613 19.2129 213.041C18.9273 214.118 18.6585 215.199 18.4038 216.284C18.329 216.602 18.003 217.417 18.1817 217.742C18.3397 218.03 18.9541 218.208 19.2395 218.357L20.2031 218.857C22.0828 219.826 25.2137 221.419 25.5277 221.575L26.0174 221.816C34.0267 225.744 42.5845 229.075 51.5975 229.305L51.668 228.535V228.535C52.0699 224.278 52.5972 219.999 53.7482 215.873C53.8101 215.651 54.0921 215.726 54.1179 215.923C54.7591 220.808 54.5542 225.73 54.3304 230.637C53.9343 239.328 53.4083 248.015 52.9407 256.702C52.7066 261.048 52.4041 265.391 52.1309 269.735C51.8573 274.087 51.7688 278.544 51.1441 282.861C51.0049 283.823 49.8784 284.346 49.0253 284.245C48.0814 284.132 47.3552 283.301 47.3508 282.347C47.3394 279.833 47.6552 277.288 47.8308 274.78C47.9975 272.397 48.1764 270.015 48.3598 267.633C49.0299 258.94 49.8009 250.257 50.5139 241.568C50.7666 238.486 51.0395 235.407 51.3205 232.328C41.7727 232.02 32.8528 228.482 24.3433 224.349C24.2202 227.146 23.9227 229.939 23.6347 232.725C22.8309 240.499 22.1221 248.271 21.5916 256.07C21.3237 260.009 21.1287 263.953 20.9588 267.897C20.8754 269.836 20.8073 271.774 20.7552 273.714C20.7377 274.36 20.7219 275.007 20.708 275.654L20.6789 277.135C20.6552 278.073 20.5598 278.943 19.7704 279.626C18.9687 280.32 17.8857 280.357 17.0922 279.626C16.0299 278.647 16.2178 277.314 16.2492 276C16.2754 274.891 16.3069 273.783 16.3435 272.675C16.4168 270.459 16.5104 268.243 16.6242 266.028C17.0227 258.285 17.8189 250.573 18.8594 242.892L19.2656 239.927C20.0241 234.415 20.8568 228.777 22.5524 223.468C21.8922 223.139 21.2339 222.808 20.5781 222.476C19.4149 221.887 18.2121 221.334 17.0814 220.684C16.1844 220.168 15.4107 219.46 15.161 218.416C14.8825 217.252 15.3084 215.98 15.5913 214.845L15.6159 214.745C15.8933 213.602 16.192 212.464 16.5072 211.331C17.7854 206.737 19.3659 202.232 21.2155 197.837C24.919 189.038 29.6994 180.679 35.5386 173.121C40.7947 166.317 47.0039 160.147 54.2812 155.52C57.839 153.258 61.6304 151.4 65.64 150.087C67.5142 149.473 69.5533 148.939 71.5156 148.72C72.574 148.601 73.634 148.533 74.6975 148.487ZM93.7356 134.544C95.0125 133.173 97.5494 134.592 96.9363 136.408C95.4942 140.682 93.1977 144.58 89.6137 147.388C86.2449 150.027 82.2276 151.742 77.9013 151.376C77.8679 151.373 77.839 151.364 77.8134 151.352L78.1862 151.858C81.1133 155.819 84.2012 159.725 87.923 162.963C95.506 169.559 105.831 173.117 115.8 170.586C123.644 168.595 130.555 162.39 132.587 154.482C132.296 154.613 131.95 154.658 131.57 154.575C129.943 154.222 128.334 152.511 127.285 151.284C126.15 149.957 125.264 148.524 124.615 146.904C123.426 143.94 123.045 140.123 124.668 137.252C124.868 136.898 125.33 137.096 125.37 137.442L125.431 137.981C125.744 140.672 126.134 143.275 127.402 145.729C128.023 146.929 128.767 148.101 129.673 149.106C130.157 149.644 130.683 150.158 131.25 150.609C131.803 151.049 132.472 151.366 132.967 151.871L133.058 151.967L133.061 151.95C133.186 150.885 133.933 150.415 134.664 150.445C135.371 150.473 136.201 150.785 136.523 150.934L136.554 150.948C141.487 153.317 146.031 156.405 150.307 159.831C159.15 166.917 165.775 176.179 168.986 187.086C170.561 192.44 171.465 197.956 172.42 203.446L173.007 206.81C173.898 211.878 174.893 217.047 176.904 221.762C177.424 222.981 177.023 224.125 175.748 224.605C174.155 225.204 172.557 225.784 170.956 226.356C171.742 229.73 172.221 233.221 172.81 236.611C174.062 243.818 175.596 250.979 176.911 258.176C177.584 261.856 178.191 265.549 178.862 269.229C179.186 271.001 179.524 272.771 179.852 274.543C180.029 275.498 180.189 276.456 180.358 277.413L180.387 277.572C180.484 278.076 180.605 278.598 180.467 279.103C180.308 279.679 179.859 280.086 179.458 280.499C179.128 280.839 178.65 280.841 178.246 280.656L178.113 280.594C177.39 280.256 176.824 279.919 176.568 279.103C176.405 278.587 176.347 278.005 176.241 277.473C176.037 276.454 175.845 275.433 175.662 274.409C175.298 272.36 174.942 270.31 174.595 268.258L174.271 266.337C173.157 259.715 172.1 253.054 171.565 246.362C171.328 243.394 171.077 240.428 170.823 237.461L170.633 235.236C170.392 232.42 170.098 229.533 170.056 226.678L169.099 227.018V227.018L164.427 228.67V228.67C163.269 229.08 161.795 229.919 160.548 229.766C159.938 229.691 159.473 229.499 159.114 229.15C159.544 235.223 160.126 241.285 160.902 247.316C161.608 252.804 162.391 258.285 163.315 263.74C163.773 266.442 164.244 269.141 164.755 271.832C165.01 273.179 165.274 274.523 165.545 275.866C165.681 276.536 165.842 277.206 165.948 277.882C166.069 278.655 165.856 279.131 165.424 279.768C165.069 280.29 164.359 280.559 163.784 280.198C163.022 279.72 162.625 279.305 162.401 278.434C162.197 277.643 162.073 276.817 161.915 276.016C161.625 274.537 161.343 273.056 161.072 271.574C160.504 268.473 159.981 265.364 159.514 262.246C157.867 251.263 156.822 240.187 156.294 229.093C156.034 223.62 155.953 218.142 155.999 212.663C156.023 209.854 156.115 207.038 156.313 204.236C156.514 201.401 156.933 198.622 157.306 195.813C157.319 195.714 157.459 195.709 157.465 195.813C157.641 198.962 157.919 202.107 158.055 205.264C158.184 208.276 158.241 211.293 158.344 214.307C158.48 218.268 158.667 222.231 158.916 226.192C159.366 225.7 160.045 225.415 160.724 225.526C161.708 225.32 162.766 224.804 163.704 224.49L167.24 223.309V223.309C169.098 222.688 170.957 222.071 172.822 221.473C171.154 215.861 170.012 210.165 169.037 204.386L168.602 201.788C167.74 196.672 166.812 191.554 165.252 186.6C163.613 181.392 161.159 176.55 157.904 172.165C154.696 167.844 150.792 164.039 146.773 160.48C143.332 157.433 139.651 154.682 136.141 151.719C136.178 151.915 136.186 152.131 136.154 152.369C135.407 157.832 132.559 162.92 128.588 166.704C120.612 174.307 108.805 175.884 98.5958 172.319C88.7205 168.871 79.9894 160.704 76.9047 150.597C76.8519 150.425 77.0835 150.356 77.1764 150.483C77.3475 150.718 77.5195 150.952 77.6917 151.187C77.6801 151.094 77.7285 150.992 77.8434 150.948C81.4425 149.557 84.9768 147.586 87.6747 144.797C88.9897 143.437 90.1373 141.897 91.0432 140.235C91.4771 139.44 91.8669 138.616 92.1779 137.764L92.2569 137.544C92.6338 136.477 92.9488 135.389 93.7356 134.544Z" fill="black"/>
<path fill-rule="evenodd" clip-rule="evenodd" d="M144.623 91.3171C143.84 85.0567 141.382 78.4099 138.796 72.5734C132.983 60.2335 119.675 58.5346 107.744 55.9903C95.9709 54.2721 83.504 52.7205 71.9084 56.1489C65.3895 57.7498 62.8434 65.533 63.8723 71.6751C64.4594 75.5024 66.1972 79.1248 67.6791 82.6718C70.6245 89.9562 72.4932 97.7549 72.4963 105.642C72.2942 110.796 71.5685 116.678 77.4766 118.861C83.0986 121.664 83.5736 129.262 90.6131 133.572C93.4596 139.353 101.213 139.861 106.794 141.202C110.321 141.879 113.888 142.377 117.465 142.699C127.822 144.029 136.107 141.021 141.529 131.771C145.157 126.143 147.859 119.643 147.191 112.821C146.526 105.637 145.419 98.4912 144.623 91.3171Z" fill="#FDC6A0"/>
<path fill-rule="evenodd" clip-rule="evenodd" d="M107.833 40.9933C108.425 40.3216 109.335 40.552 109.888 41.0831C110.248 41.1894 110.597 41.3475 110.926 41.5567C111.67 41.461 112.45 41.461 113.18 41.4878C113.357 41.3883 113.547 41.2997 113.754 41.2236C115.229 40.6828 116.536 40.9576 117.614 41.6816C118.134 41.1892 118.789 40.8802 119.626 40.9269C120.373 40.9688 120.906 41.3213 121.362 41.7856C121.817 41.1277 122.553 40.6583 123.47 40.593C124.751 40.5017 125.983 41.0167 127.003 41.8142C127.598 41.1302 128.409 40.7371 129.313 40.7333C129.907 40.6251 130.534 40.6678 131.101 40.8394C131.924 41.0886 132.647 41.5555 133.223 42.1614C134.133 41.2873 135.248 40.6583 136.533 40.75C138.196 40.8705 139.575 42.0965 140.216 43.6056C141.342 44.0576 142.381 44.7025 143.25 45.6218C143.296 45.6702 143.34 45.721 143.387 45.7719C143.855 45.945 144.295 46.1904 144.683 46.5135C145.912 47.5388 146.187 49.0225 145.78 50.4763C145.837 50.709 145.885 50.9458 145.929 51.1823C147.08 51.3577 148.126 52.0236 148.721 53.1079C149.534 54.5958 149.374 56.5569 148.493 57.9774C148.114 58.5884 147.633 59.1032 147.093 59.5534C147.704 60.9441 147.411 62.6036 146.426 63.7284C146.186 64.1163 145.892 64.4663 145.56 64.7831C145.926 66.2209 145.275 67.7044 143.977 68.4726L143.866 68.7513C143.847 68.7976 143.828 68.8437 143.808 68.8894C143.794 68.9486 143.776 69.0058 143.759 69.0635C143.728 69.5737 143.56 70.0744 143.228 70.5462C142.547 71.5129 141.702 72.1434 141.255 73.272L141.21 73.3905C141.017 73.9246 140.396 74.3014 139.866 74.1366C142.807 80.1899 144.348 86.9254 145.407 93.5263C145.934 96.8194 146.341 100.124 146.672 103.441L146.996 106.744C147.281 109.68 147.534 112.626 147.536 115.572C147.54 122.236 145.638 128.646 141.557 133.949C137.697 138.962 132.234 142.595 126.064 144.026C119.693 145.502 112.219 144.92 106.506 141.543C104.821 140.55 106.297 138.161 108.011 138.96C111.255 140.474 114.553 141.598 118.149 141.85C121.655 142.097 125.17 141.657 128.494 140.507C133.995 138.603 138.675 134.615 141.683 129.648C143.165 127.201 144.239 124.544 144.81 121.737C145.521 118.239 145.414 114.623 145.153 111.08L145.135 110.838C144.618 104.011 143.937 97.1425 142.837 90.3837C141.864 84.4069 140.368 78.5513 138.426 72.8252C137.666 72.1539 136.815 71.5985 135.904 71.1766C129.236 70.8974 122.557 70.979 115.898 71.4402C110.219 71.8361 104.567 72.5058 98.9582 73.4819L98.3574 73.5877C97.1156 73.8094 95.7369 73.9362 94.5668 74.4373C93.5633 74.8685 93.1564 75.697 92.9034 76.7155C92.2667 79.2918 92.1698 82.1115 92.0622 84.7533C91.9568 87.3358 92.1951 89.9399 91.9885 92.5139C91.8135 94.6676 91.2632 96.872 89.6715 98.4298C88.8388 99.2454 87.8142 99.6914 86.8528 100.311C86.2309 100.71 85.9674 101.122 86.0475 101.862C86.2204 103.481 87.5211 105.52 86.0601 106.907C85.8029 107.15 85.3581 107.182 85.1051 106.907C84.5022 106.25 83.6694 105.749 82.9547 105.218C82.6554 104.999 82.9041 104.572 83.2436 104.724C83.6905 104.925 84.1459 105.161 84.6118 105.368C83.583 104.519 82.1199 104.102 80.9013 103.855C80.2878 103.732 79.6427 103.696 79.0039 103.754C78.5317 103.98 78.0489 104.189 77.5661 104.394C76.9526 104.652 76.3328 104.886 75.7088 105.108C73.5436 106.877 72.5106 109.754 72.9618 112.567C73.2084 114.12 73.9231 115.809 75.2703 116.716C76.8662 117.79 79.0039 117.329 80.7285 118.126C82.3434 118.871 83.3258 120.379 84.0615 121.938L84.3683 122.588C85.0512 124.025 85.7532 125.425 86.6863 126.734C87.7657 128.249 89.0875 129.61 90.5296 130.779C91.2291 131.345 91.9748 131.854 92.7454 132.317L92.9561 132.442C93.7362 132.901 94.2948 133.338 94.3475 134.308C94.3644 134.647 94.1515 134.955 93.8774 135.131C92.6968 135.881 91.5225 134.942 90.5401 134.287C89.4797 133.581 88.4656 132.787 87.5275 131.92C85.7439 130.276 84.2007 128.323 83.0138 126.203C82.1093 124.589 81.5949 122.317 80.1656 121.065C79.2928 120.302 78.0594 120.296 76.9695 120.156C75.9554 120.026 74.9962 119.814 74.0939 119.313C70.4235 117.27 69.3862 112.322 70.2569 108.499C70.4045 107.854 70.6111 107.226 70.8662 106.622C69.5001 106.85 67.9653 105.434 68.5198 104.005C68.5619 103.897 68.6104 103.796 68.6568 103.692C67.7566 103.098 67.0461 102.198 66.7088 101.021C66.5359 100.412 66.5106 99.797 66.6013 99.2031C66.1649 98.9096 65.8044 98.5057 65.5725 98.009C64.8472 97.673 64.2042 97.1702 63.8205 96.4516C63.2893 95.4601 63.3567 94.5471 63.7615 93.725C63.7046 93.6216 63.6498 93.5159 63.5971 93.4079C62.1108 92.4634 61.0735 90.8358 61.1916 89.0309C61.2295 88.4327 61.3771 87.8938 61.6048 87.4079C61.5858 87.3466 61.5669 87.283 61.55 87.2217C60.3061 86.5877 59.2773 85.5459 58.9105 84.1552C58.5437 82.7559 58.9758 81.361 59.8402 80.2873C58.5753 79.3597 57.8142 78.0641 58.2759 76.1047C58.4636 75.3081 58.8409 74.583 59.3511 73.9722C59.349 73.9533 59.3448 73.9343 59.3406 73.9151L59.2222 73.8231C57.6607 72.5877 56.763 71.0135 57.7215 69.0773C58.1515 68.2067 58.765 67.5999 59.486 67.2005L59.5219 67.0864V67.0864C59.0054 65.9768 58.8304 64.7446 59.1867 63.449C59.4776 62.3819 60.167 61.5321 61.0482 60.968C60.9892 60.4901 60.9976 59.981 61.0925 59.4291C61.2506 58.4973 61.7123 57.6836 62.3869 57.1066C62.4122 56.9838 62.4439 56.8636 62.4797 56.7429C62.7074 56.0055 63.1333 55.2045 63.6266 54.6104C64.0335 54.1179 64.4888 53.9383 65.0454 53.9192C65.0117 53.465 65.0349 53.0041 65.1276 52.537C65.4122 51.0958 66.3272 49.7408 67.6828 49.1258C68.2394 48.8743 68.8254 48.8005 69.3905 48.8616C69.8711 47.8471 70.8093 47.1119 71.9625 46.9533C72.4115 46.8899 72.829 46.894 73.2127 46.9512C73.4298 46.8496 73.6554 46.7589 73.8915 46.6763C74.0475 46.6213 74.2056 46.5706 74.3637 46.5201C74.8971 45.8564 75.5992 45.3257 76.4193 45.0068C77.3658 44.6369 78.3293 44.6748 79.1831 44.9855L79.4551 44.9284V44.9284C79.881 44.1887 80.5598 43.6159 81.6034 43.356C82.7882 43.0622 84.0046 43.4722 84.9365 44.2185C84.9407 44.2185 84.9449 44.2185 84.9512 44.2162C85.4382 43.1235 86.271 42.3626 87.6687 42.4154C88.5394 42.4493 89.3258 42.8827 89.9329 43.4999C90.2703 43.4574 90.6076 43.4194 90.947 43.3815C91.3054 42.9607 91.7038 42.5678 92.1445 42.2149C92.8655 41.6356 93.8036 41.6823 94.3349 42.4979C94.4509 42.6754 94.5584 42.8551 94.6659 43.0347L95.1529 43.0009V43.0009C95.7263 42.2252 96.5085 41.7011 97.5794 41.659C98.5619 41.6187 99.2618 42.1007 99.7952 42.7747C100.229 42.7642 100.666 42.7559 101.102 42.7494C101.61 42.1597 102.209 41.6398 102.892 41.2086C103.415 40.8789 104.187 40.9912 104.61 41.4308C104.897 41.7296 105.163 42.0416 105.411 42.3645C106.049 41.6468 106.912 41.174 107.833 40.9933ZM76.8051 108.107C77.7896 107.545 79.1136 108.154 80.0665 108.632C81.2281 109.213 82.3813 110.09 83.0918 111.189C84.0594 112.685 81.7847 113.894 80.7664 112.552C80.1403 111.726 79.6406 110.893 78.8817 110.17C78.188 109.507 77.1824 109.063 76.784 108.188C76.7692 108.158 76.7734 108.124 76.8051 108.107ZM77.4967 71.7867L77.5151 71.734C77.7951 70.9661 76.5732 70.6352 76.2955 71.3966C75.8747 72.5508 76.3598 73.8056 77.497 74.304C77.8122 74.4422 78.1722 74.3942 78.3622 74.0766C78.5218 73.8092 78.4478 73.3459 78.1353 73.2092C77.4955 72.9287 77.2812 72.4336 77.4967 71.7867V71.7867ZM66.97 69.6397C67.5816 69.0986 66.6841 68.2044 66.0755 68.7431C65.5075 69.2457 65.0863 69.9284 65.1957 70.7136C65.3073 71.5137 65.9091 72.0787 66.568 72.4779C67.2662 72.9012 67.9027 71.8052 67.2063 71.3829L67.1281 71.3349C66.8358 71.1529 66.4937 70.9027 66.4442 70.5447C66.3917 70.1643 66.7128 69.8673 66.97 69.6397ZM70.4417 60.0926L70.485 60.0607C71.142 59.5906 70.511 58.4903 69.8465 58.9657C69.2372 59.4017 68.7485 59.9681 68.6971 60.7492C68.6471 61.5084 69.0325 62.1666 69.5363 62.7006C70.0969 63.2947 70.9904 62.3969 70.4309 61.8041C69.8857 61.2263 69.7791 60.5958 70.4417 60.0926V60.0926Z" fill="black"/>
<path fill-rule="evenodd" clip-rule="evenodd" d="M123.152 128.274C121.732 127.695 120.465 126.728 119.538 125.493C119.216 125.063 119.133 124.61 119.2 124.195C119.276 123.729 119.552 123.306 119.928 123.023C120.305 122.739 120.777 122.598 121.233 122.67C121.63 122.732 122.024 122.949 122.337 123.399L122.402 123.489C122.953 124.235 123.67 124.846 124.488 125.241C125.276 125.621 126.158 125.798 127.07 125.695C128.808 125.499 130.005 124.559 131.278 123.282C131.436 123.121 131.594 122.955 131.752 122.786C131.852 122.633 131.991 122.534 132.146 122.483C132.317 122.425 132.511 122.429 132.689 122.491C132.86 122.55 133.013 122.664 133.116 122.815C133.213 122.958 133.269 123.135 133.251 123.339C133.134 124.661 132.443 125.842 131.461 126.769C130.37 127.799 128.924 128.511 127.563 128.761C126.064 129.036 124.536 128.839 123.152 128.274V128.274ZM128.271 107.866C129.866 108.836 132.297 111.098 130.581 113.503C128.56 115.624 125.652 113.193 124.219 112.093C122.89 111.241 121.396 113.433 122.629 114.428C132.987 122.099 137.19 108.12 129.078 106.726C128.184 106.572 127.853 107.566 128.271 107.866ZM109.711 98.9429C109.887 96.7541 113.219 96.257 113.551 98.423C113.847 100.363 113.498 102.145 112.624 103.892C111.79 105.561 109.692 104.783 109.533 103.263C109.32 101.226 109.601 100.304 109.711 98.9429ZM135.076 97.9739C135.541 97.3652 136.212 96.9497 137.015 97.1845C139.526 97.9185 138.786 101.485 137.904 103.22C137.425 104.163 135.876 104.402 135.176 103.572C134.036 102.219 133.489 99.5157 134.94 98.1825C134.979 98.1136 135.023 98.044 135.076 97.9739ZM112.589 89.3654L112.986 89.2959C114.213 89.0836 115.738 88.8796 116.606 89.8665C117.067 90.3898 117.225 91.3624 116.606 91.8633C115.518 92.7446 114.314 92.4031 113.01 92.4777C111.935 92.5394 110.902 92.7174 109.867 93.0135C107.595 93.6629 105.744 94.8486 103.804 96.1505C103.55 96.3213 103.29 95.9956 103.411 95.7574C104.531 93.563 106.701 91.7604 108.875 90.6616C110.036 90.0751 111.305 89.5885 112.589 89.3654ZM132.787 88.3823L133.091 88.4445C136.395 89.1353 140.687 90.5153 142.251 93.7615C142.311 94.2205 142.248 94.3189 142.197 94.3832L142.18 94.4046C142.137 94.4595 142.104 94.5351 141.905 94.5976C141.85 94.5844 141.794 94.5705 141.737 94.5557C141.02 94.3677 140.453 94.1087 139.904 93.84L139.308 93.5465C138.617 93.2076 137.92 92.881 137.181 92.6399C135.605 92.1255 133.983 91.7631 132.337 91.5696C131.98 91.5277 131.636 91.4072 131.365 91.2006C131.108 91.0046 130.911 90.7332 130.821 90.3724C130.705 89.9056 130.739 89.5521 130.989 89.1309C131.177 88.8146 131.447 88.5953 131.756 88.4694C132.071 88.3411 132.43 88.3108 132.787 88.3823Z" fill="black"/>
<path fill-rule="evenodd" clip-rule="evenodd" d="M146.773 116.395C146.491 115.554 145.042 115.627 145.131 116.618C145.234 117.749 144.846 119.012 143.762 119.561C142.628 120.136 141.351 119.619 140.658 118.632C140.056 117.774 139.641 116.841 138.884 116.093C138.18 115.397 137.323 114.861 136.386 114.542C135.657 114.294 134.9 114.228 134.165 114.31C132.336 113.896 130.216 114.837 129.076 116.264C129.002 116.356 128.934 116.45 128.868 116.546C128.755 116.392 128.637 116.239 128.511 116.089C128.188 115.702 127.787 115.619 127.425 115.724C125.363 114.19 122.473 113.987 120.131 115.371C118.255 116.481 116.702 118.116 114.395 118.243C112.567 118.344 110.577 117.3 110.448 115.291C110.38 114.242 108.951 113.367 108.149 114.339C106.464 116.381 106.127 119.094 107.059 121.564C108.043 124.17 110.048 126.005 112.587 127.085C115.328 128.251 118.541 128.656 121.506 128.564C124.463 128.472 127.151 127.334 128.933 124.915C129.146 124.626 129.333 124.333 129.497 124.036C131.227 126.24 133.939 127.167 136.702 127.233C139.592 127.302 143.008 126.795 145.052 124.55C147.021 122.385 147.701 119.167 146.773 116.395" fill="black"/>
</g>
<defs>
<clipPath id="clip0_2016_14130">
<rect width="200" height="267" fill="white"/>
</clipPath>
</defs>
</svg>
