<svg width="200" height="267" viewBox="0 0 200 267" fill="none" xmlns="http://www.w3.org/2000/svg">
<g clip-path="url(#clip0_2016_14095)">
<rect width="200" height="267" fill="white"/>
<path fill-rule="evenodd" clip-rule="evenodd" d="M168.18 197.386C167.516 195.563 168.485 193.744 169.023 191.981C170.933 185.864 165.708 170.436 162.055 170.211C160.718 166.752 157.152 165.317 154.345 163.326C151.16 161.337 148.061 159.052 144.749 157.309C144.564 155.661 142.568 155.253 141.346 156.432C137.993 154.344 133.971 154.732 130.375 153.365C127.644 148.947 127.439 144.302 126.715 140.041C126.4 138.183 126.735 136.391 125.466 134.735C121.204 128.738 104.363 126.137 98.1531 129.691C94.8107 127.606 94.7302 131.383 94.1993 133.714C93.6092 134.88 93.29 136.201 93.3886 137.592C91.8062 140.899 90.4646 145.034 87.1391 147.504C82.9194 150.637 76.4275 151.828 72.3135 153.365C71.3907 152.476 71.1086 151.192 71.1086 151.192C64.7325 152.579 58.5443 155.016 53.2022 158.822C47.1329 160.598 42.8585 165.536 39.7676 170.831C39.4271 171.389 39.3468 171.958 39.4463 172.481C29.9416 186.419 25.4052 203.105 24.7681 219.958C18.6559 223.627 27.6732 256.593 29.7724 263.437C29.7745 263.436 29.7766 263.435 29.7787 263.434C31.1405 265.846 32.6868 272.729 36.095 272.196C38.4329 274.841 42.1586 274.321 45.3312 274.524C44.8144 276.507 45.0683 278.776 45.6833 280.735C46.4107 283.068 49.9803 283.147 50.4865 280.604C82.0803 286.744 114.497 281.845 146.446 282.766C155.683 282.832 164.92 283.118 174.135 283.776C175.433 283.869 176.749 282.542 176.66 281.25C174.679 260.163 172.818 232.423 170.603 211.543C170.077 206.781 169.662 201.967 168.18 197.386Z" fill="#FDC6A0"/>
<path fill-rule="evenodd" clip-rule="evenodd" d="M71.1415 151.332C71.1299 151.286 71.1189 151.239 71.1086 151.192C64.7325 152.579 58.5443 155.016 53.2021 158.822C47.1329 160.598 42.8585 165.536 39.7676 170.831L39.7264 170.901C39.4207 171.437 39.3509 171.98 39.4463 172.481C29.9416 186.419 25.4052 203.105 24.7681 219.958C18.6559 223.627 27.6732 256.593 29.7724 263.437L29.7787 263.434C30.118 264.035 30.4688 264.914 30.8571 265.886C32.0268 268.816 33.5361 272.596 36.095 272.196C37.9957 274.346 40.8136 274.405 43.5059 274.46C44.1252 274.473 44.7379 274.486 45.3312 274.524C44.8144 276.507 45.0683 280.044 45.6833 282.003C46.4107 284.336 147.325 286.236 174.135 283.776C175.43 283.657 176.748 282.542 176.66 281.25C175.828 272.394 175.017 262.365 174.193 252.163C173.053 238.073 171.888 223.654 170.603 211.543C170.552 211.087 170.503 210.631 170.454 210.175C169.988 205.862 169.52 201.529 168.18 197.386C167.65 195.93 168.161 194.477 168.662 193.053C168.789 192.693 168.915 192.336 169.023 191.981C170.933 185.864 166.066 170.473 162.577 170.244L162.055 170.211C161.028 167.554 158.686 166.092 156.383 164.653C155.757 164.262 155.133 163.873 154.54 163.462L154.345 163.326C153.259 162.648 152.184 161.935 151.106 161.222C149.022 159.842 146.932 158.458 144.749 157.309C144.564 155.661 142.567 155.253 141.346 156.432C140.813 156.1 140.262 155.83 139.699 155.606L139.476 158.674C135.669 172.87 125.075 180.769 107.695 182.371C81.624 184.773 69.8726 158.635 69.8726 155.993C69.8726 154.835 70.2554 153.372 71.0208 151.606L71.1415 151.332ZM128.622 199.007C132.506 198.058 137.114 197.057 140.914 196.427C142.817 196.111 144.498 195.891 145.779 195.814C146.421 195.775 146.94 195.774 147.325 195.809C147.678 195.841 147.822 195.896 147.854 195.908C147.861 195.911 147.862 195.912 147.859 195.909C148.439 196.359 148.93 197.013 149.285 197.588C149.459 197.87 149.594 198.122 149.684 198.302L149.697 198.328C149.683 198.366 149.668 198.407 149.651 198.452C149.557 198.692 149.416 199.006 149.228 199.314C148.824 199.974 148.343 200.383 147.801 200.383C147.249 200.383 145.925 200.571 144.344 200.826C142.727 201.087 140.755 201.434 138.846 201.781C136.936 202.128 135.086 202.475 133.714 202.735C133.028 202.865 132.461 202.973 132.066 203.049L131.608 203.137L131.488 203.16L131.457 203.166L131.449 203.168L131.447 203.168L131.446 203.168C131.446 203.168 131.446 203.168 131.589 203.904L131.446 203.168L131.352 203.186L131.265 203.228L127.038 205.253L127.425 206.677L127.362 205.93L127.425 206.677L127.426 206.677L127.427 206.677L127.433 206.676L127.457 206.674L127.549 206.666L127.906 206.637C128.217 206.611 128.665 206.575 129.22 206.531C130.328 206.444 131.858 206.327 133.543 206.211C136.92 205.977 140.892 205.746 143.348 205.746L143.885 205.745C146.351 205.744 149.743 205.743 152.596 205.903C154.134 205.989 155.48 206.12 156.428 206.314C156.831 206.396 157.126 206.483 157.322 206.566C157.208 206.682 157.032 206.823 156.785 206.98C156.227 207.338 155.429 207.71 154.524 208.058C152.713 208.755 150.632 209.3 149.544 209.449C148.352 209.613 145.032 210.279 142.047 210.895C140.546 211.205 139.118 211.505 138.065 211.727C137.539 211.838 137.106 211.93 136.805 211.994L136.457 212.068L136.366 212.087L136.342 212.092L136.337 212.094L136.335 212.094L136.335 212.094C136.335 212.094 136.335 212.094 136.491 212.828L136.335 212.094L136.465 213.577L154.265 214.2C154.292 214.23 154.321 214.262 154.352 214.297C154.515 214.483 154.685 214.708 154.789 214.92C154.872 215.091 154.875 215.174 154.875 215.197C154.846 215.228 154.739 215.311 154.424 215.382C153.259 215.642 150.866 216.163 148.761 216.62C147.71 216.848 146.731 217.06 146.015 217.215L145.162 217.399L144.928 217.45L144.867 217.463L144.852 217.467L144.848 217.467L144.847 217.468L144.846 217.468L145.005 218.201L144.846 217.468L144.414 217.561L144.287 217.984L144.287 217.984L144.286 217.984L144.286 217.985L144.286 217.985L144.285 217.99L144.276 218.019C144.271 218.034 144.264 218.055 144.255 218.081C144.249 218.099 144.242 218.119 144.234 218.141C144.196 218.249 144.138 218.409 144.057 218.606C143.894 219 143.646 219.535 143.302 220.099C142.602 221.245 141.571 222.406 140.166 222.851C138.968 223.23 137.643 223.485 136.344 223.735C135.898 223.821 135.455 223.906 135.021 223.996C134.193 224.167 133.395 224.355 132.723 224.596C132.07 224.831 131.428 225.152 131.012 225.651C130.702 226.024 130.351 226.556 129.991 227.101L129.97 227.132C129.592 227.705 129.184 228.323 128.74 228.911C128.295 229.499 127.831 230.033 127.353 230.44C126.872 230.85 126.417 231.098 125.988 231.179C124.746 231.414 121.026 232.386 117.659 233.285C115.966 233.738 114.348 234.176 113.155 234.501C112.558 234.663 112.066 234.797 111.724 234.891L111.702 234.897C111.606 234.754 111.489 234.578 111.357 234.372C110.965 233.763 110.436 232.898 109.892 231.875C108.794 229.812 107.669 227.179 107.416 224.739C107.151 222.174 107.018 219.727 106.951 217.92C106.918 217.016 106.901 216.274 106.893 215.758C106.891 215.606 106.889 215.474 106.888 215.363L108.855 214.091L108.937 214.038L109.003 213.966L118.137 203.936L118.156 203.918C118.174 203.899 118.205 203.869 118.249 203.828C118.336 203.747 118.474 203.624 118.665 203.468C119.047 203.156 119.645 202.712 120.483 202.206C122.158 201.197 124.801 199.94 128.622 199.007ZM151.226 198.48C151.226 198.479 151.226 198.479 150.503 198.278L151.226 198.479L151.297 198.224L151.192 197.981L150.503 198.278C151.192 197.981 151.192 197.981 151.192 197.981L151.192 197.981L151.192 197.98L151.191 197.978L151.188 197.971L151.179 197.951C151.171 197.933 151.16 197.909 151.146 197.879C151.118 197.818 151.077 197.732 151.024 197.627C150.918 197.416 150.762 197.126 150.561 196.8C150.165 196.159 149.563 195.333 148.779 194.724C148.422 194.447 147.907 194.355 147.46 194.315C146.968 194.271 146.365 194.276 145.688 194.317C144.331 194.398 142.59 194.628 140.668 194.947C136.819 195.586 132.172 196.595 128.266 197.549C124.296 198.519 121.512 199.835 119.709 200.922C118.807 201.465 118.152 201.95 117.716 202.306C117.499 202.483 117.336 202.628 117.225 202.732C117.17 202.783 117.128 202.825 117.098 202.854C117.083 202.869 117.071 202.881 117.062 202.89L117.051 202.901L117.048 202.905L117.046 202.907L117.046 202.907C117.045 202.908 117.045 202.908 117.588 203.421L117.045 202.908L117.036 202.918L107.959 212.884L105.728 214.327L105.385 214.549V214.957H106.135C105.385 214.957 105.385 214.957 105.385 214.957V214.958V214.958V214.961L105.385 214.972L105.385 215.014C105.385 215.032 105.385 215.055 105.385 215.082C105.385 215.109 105.386 215.14 105.386 215.174C105.387 215.315 105.389 215.52 105.393 215.782C105.402 216.307 105.419 217.06 105.452 217.975C105.52 219.804 105.654 222.286 105.924 224.893C106.207 227.624 107.441 230.463 108.568 232.58C109.136 233.647 109.686 234.549 110.096 235.184C110.3 235.502 110.47 235.754 110.589 235.927C110.649 236.014 110.696 236.081 110.728 236.127L110.766 236.181L110.776 236.195L110.779 236.199L110.78 236.2L110.78 236.201C110.781 236.201 110.781 236.201 110.861 236.143L110.781 236.201L111.086 236.622L111.587 236.484L111.388 235.761C111.587 236.484 111.587 236.484 111.587 236.484L111.587 236.484L111.589 236.483L111.596 236.482L111.622 236.474L111.725 236.446L112.12 236.338C112.462 236.244 112.952 236.11 113.548 235.948C114.741 235.623 116.356 235.186 118.046 234.734C121.445 233.826 125.094 232.875 126.267 232.653C127.045 232.506 127.734 232.087 128.326 231.582C128.921 231.074 129.459 230.446 129.936 229.815C130.411 229.187 130.843 228.533 131.216 227.967L131.216 227.967L131.222 227.958C131.608 227.373 131.915 226.912 132.165 226.61C132.317 226.428 132.644 226.218 133.23 226.008C133.797 225.805 134.508 225.634 135.324 225.465C135.714 225.385 136.128 225.305 136.557 225.222L136.557 225.222C137.877 224.968 139.33 224.689 140.618 224.281C142.529 223.676 143.805 222.153 144.582 220.88C144.977 220.234 145.259 219.625 145.444 219.177C145.494 219.054 145.538 218.942 145.574 218.845L146.332 218.681C147.048 218.526 148.027 218.314 149.079 218.086C151.183 217.63 153.581 217.107 154.751 216.845C155.444 216.69 156.026 216.363 156.268 215.758C156.497 215.187 156.314 214.625 156.137 214.262C155.949 213.877 155.681 213.537 155.479 213.307C155.375 213.189 155.282 213.092 155.213 213.023C155.179 212.989 155.151 212.961 155.13 212.942L155.105 212.918L155.097 212.911L155.095 212.909L155.094 212.908L155.093 212.907C155.093 212.907 155.093 212.907 154.587 213.461L155.093 212.907L154.889 212.721L154.614 212.711L142.69 212.294C145.603 211.694 148.661 211.085 149.748 210.935C150.98 210.766 153.176 210.184 155.063 209.458C156.006 209.095 156.912 208.681 157.594 208.244C157.934 208.026 158.25 207.783 158.489 207.514C158.72 207.253 158.95 206.887 158.95 206.437C158.95 205.787 158.421 205.436 158.105 205.276C157.735 205.088 157.252 204.951 156.729 204.844C155.669 204.627 154.234 204.492 152.68 204.405C149.783 204.243 146.35 204.244 143.89 204.245L143.348 204.246C140.833 204.246 136.812 204.481 133.439 204.714C132.694 204.766 131.979 204.817 131.317 204.867L131.826 204.623L131.892 204.61L132.349 204.522C132.743 204.446 133.309 204.338 133.993 204.208C135.363 203.949 137.209 203.603 139.114 203.257C141.019 202.911 142.98 202.565 144.583 202.307C146.219 202.043 147.399 201.883 147.801 201.883C149.166 201.883 150.037 200.865 150.507 200.097C150.756 199.691 150.933 199.292 151.048 198.996C151.106 198.848 151.149 198.723 151.179 198.633C151.193 198.588 151.204 198.552 151.212 198.526L151.221 198.495L151.224 198.485L151.225 198.481L151.226 198.48L151.226 198.48ZM157.541 206.685C157.541 206.685 157.535 206.681 157.528 206.673C157.538 206.68 157.542 206.684 157.541 206.685ZM154.883 215.187C154.884 215.186 154.884 215.186 154.884 215.185C154.884 215.185 154.883 215.186 154.883 215.187C154.882 215.187 154.881 215.189 154.88 215.191C154.882 215.189 154.883 215.188 154.883 215.187Z" fill="#FFCF77"/>
<path fill-rule="evenodd" clip-rule="evenodd" d="M136.612 195.668L145.898 174.626C145.898 174.626 147.301 171.051 149.684 171.051C152.066 171.051 173.671 171.727 173.671 171.727C173.671 171.727 178.092 172.292 176.664 174.626C175.237 176.96 154.008 220.395 154.008 220.395H145.005V218.201L155.028 215.397C155.028 215.397 156.853 213.461 154.008 213.461C151.164 213.461 134.615 212.828 134.615 212.828L150.395 210.511L158.2 207.508L157.052 205.93L150.395 204.978L128.714 205.93L134.615 203.933L147.801 201.133C147.801 201.133 150.395 199.306 150.395 197.515C150.395 195.723 143.447 195.034 143.447 195.034L136.612 195.668Z" fill="white"/>
<path fill-rule="evenodd" clip-rule="evenodd" d="M94.7202 130.993C94.8108 130.745 95.1801 130.778 95.1871 131.056C95.3327 136.985 93.8572 144.23 89.1146 148.235C86.6802 150.291 83.4615 151.232 80.5057 152.313L80.1723 152.436L74.9502 154.382C73.5651 154.898 72.071 155.692 70.8476 154.963C71.8376 157.419 72.6687 159.942 73.8744 162.309C75.3753 165.256 77.1898 167.952 79.4107 170.403C88.2091 180.117 102.134 183.08 114.63 180.234C121.064 178.768 127.326 175.99 131.715 170.924C135.052 167.074 136.969 161.905 137.42 156.807C137.288 156.828 137.15 156.828 137.008 156.796C135.427 156.451 133.831 155.603 132.439 154.772L132.305 154.692C130.967 153.886 129.572 152.962 128.611 151.709C127.657 150.466 126.656 146.408 126.656 146.408C126.383 144.883 126.127 141.846 126.171 140.304C126.175 140.159 126.82 140.073 126.889 140.224C127.485 141.533 127.677 144.408 128.137 145.77L128.23 146.042C128.721 147.464 129.143 149.195 130.161 150.345C132.073 152.504 134.958 153.418 137.534 154.501C137.718 152.061 141.614 152.117 141.565 154.662C141.562 154.8 141.556 154.938 141.551 155.075C141.858 155.244 142.154 155.437 142.43 155.624L142.699 155.807C143.719 156.501 144.747 157.161 145.833 157.749C147.936 158.89 150.162 159.794 152.317 160.829C154.496 161.876 156.535 163.123 158.438 164.617C159.332 165.318 160.189 166.065 161.002 166.858L161.223 167.076C161.997 167.847 163.004 168.709 163.445 169.722C163.542 169.945 164.029 170.465 164.293 170.482C168.386 170.751 172.471 171.13 176.539 171.698C177.592 171.845 178.009 172.388 177.619 173.267C176.282 176.284 171.044 188.336 169.652 191.57C169.814 193.946 169.595 196.743 169.741 199.12C169.956 202.588 170.237 206.055 170.573 209.514C171.777 221.885 173.603 234.197 175.252 246.515C176.078 252.679 176.831 258.853 177.574 265.028C177.949 268.149 178.267 271.272 178.513 274.406C178.615 275.712 178.707 277.019 178.789 278.326L178.859 279.486C178.957 280.945 179.18 282.339 178.277 283.591C177.868 284.159 176.933 284.479 176.395 283.834C175.719 283.022 175.467 282.416 175.402 281.35C175.353 280.534 175.341 279.715 175.304 278.898C175.224 277.128 175.123 275.359 175.004 273.59C174.768 270.055 174.499 266.521 174.187 262.992C173.093 250.616 171.015 238.334 169.631 225.99C168.934 219.766 168.439 213.531 168.177 207.273C168.046 204.148 167.998 201.023 168.029 197.896C168.041 196.727 168.096 195.564 168.176 194.404C166.104 199.113 163.926 203.777 161.648 208.379L161.108 209.468C159.665 212.377 158.183 215.296 156.448 218.039L156.15 218.506C155.447 219.62 154.487 221.376 153.206 221.727C152.313 221.972 151.222 221.8 150.307 221.782C149.399 221.765 148.49 221.761 147.582 221.724C146.564 221.683 145.593 221.55 144.609 221.284C144.445 221.24 144.291 221.192 144.15 221.132C143.158 222.754 141.474 223.99 139.752 224.71C138.373 225.287 136.927 225.682 135.479 226.048L134.968 226.177C133.416 226.564 131.64 226.748 130.764 228.247L130.561 228.595C129.91 229.701 129.285 230.673 128.208 231.466C127.048 232.32 125.674 232.857 124.306 233.275C122.905 233.703 121.471 234.03 120.048 234.381L119.66 234.478C118.721 234.713 117.773 234.929 116.839 235.185C116.441 235.294 116.035 235.406 115.645 235.541C115.187 235.698 114.854 235.943 114.493 236.211C114.169 237.345 112.782 237.961 111.641 237.881C111.043 237.84 110.505 237.637 110.016 237.339C109.163 238.065 108.224 238.716 107.354 239.389C106.136 240.332 104.913 241.268 103.683 242.196C101.148 244.107 98.5938 245.994 96.0127 247.843C91.4314 251.125 86.751 254.257 81.9905 257.273C80.0056 258.53 78.0074 259.786 75.9896 261.011L76.205 261.091L76.6321 261.253C77.6417 261.63 78.7667 262.239 78.9624 263.417C79.1174 264.352 78.5956 264.996 77.6732 265.11C76.577 265.246 75.7239 264.471 75.0412 263.731C74.74 263.405 74.4028 263.102 74.1142 262.766C73.9965 262.629 73.9061 262.471 73.8265 262.305C71.8351 263.479 69.8226 264.613 67.7782 265.674L67.2664 265.938C62.1966 268.531 57.262 271.373 52.1491 273.892C50.8154 274.55 49.1893 275.261 47.4943 275.746C47.9441 277.49 47.9371 279.405 47.9485 281.175C47.9593 282.9 45.2189 282.892 45.2768 281.175L45.3047 280.346C45.3546 278.952 45.4361 277.504 45.7667 276.148C40.7727 276.976 35.7837 275.176 34.8548 274.635C33.8295 274.039 32.8989 273.084 32.1243 272.199C30.467 270.304 29.3168 268.032 28.2964 265.747C26.1106 260.853 24.562 255.621 23.4298 250.39C19.2558 231.101 21.0512 210.455 27.8297 191.965C29.5232 187.345 31.5227 182.827 33.8139 178.473L34.0984 177.934C36.3847 173.628 38.9258 169.339 42.1536 165.674C45.5158 161.857 49.6632 158.889 54.1788 156.585C56.3825 155.46 58.65 154.486 60.9677 153.622C61.3399 153.483 61.7147 153.359 62.0903 153.24C64.5055 151.7 67.4367 150.226 70.3689 150.284C70.5681 150.288 70.7295 150.364 70.8499 150.478C70.9912 150.502 71.1326 150.532 71.2741 150.574C71.5866 150.664 71.9166 151.007 71.8718 151.359L71.8566 151.476C71.8483 151.533 71.8379 151.588 71.8201 151.642C71.9248 151.658 72.0277 151.683 72.1285 151.717C74.9339 150.925 77.6941 149.712 80.4317 148.735L81.0552 148.515C83.3481 147.711 85.7004 146.923 87.5813 145.332C89.4524 143.749 90.8595 141.7 91.8767 139.484C93.13 136.753 93.6911 133.796 94.7202 130.993ZM150.888 274.99C151.443 274.577 152.1 275.056 152.308 275.568C152.99 277.247 152.653 279.857 151.691 281.341C150.694 282.88 148.308 282.272 148.251 280.409C148.191 278.466 149.32 276.158 150.888 274.99ZM156.625 228.623C156.675 228.404 157.014 228.406 157.065 228.623C157.527 230.593 157.516 232.715 157.652 234.735L157.668 234.959C157.831 237.187 157.968 239.421 158.065 241.652C158.257 246.043 158.486 250.434 158.743 254.822C158.87 256.997 159.006 259.173 159.152 261.348C159.608 261.093 160.078 260.87 160.564 260.673C161.294 260.378 162.004 260.344 162.787 260.353C163.742 260.362 164.46 261.202 164.334 262.137C164.196 263.156 163.3 263.592 162.369 263.447C161.338 263.285 160.302 263.035 159.261 262.932C159.377 264.613 159.497 266.294 159.624 267.974C159.793 270.199 160.012 272.42 160.166 274.646C160.181 274.858 160.197 275.071 160.213 275.284C160.834 274.961 161.493 274.796 162.24 274.592L162.435 274.538C163.519 274.226 164.679 273.795 165.683 274.525C166.358 275.015 166.493 275.823 165.934 276.469C165.086 277.451 163.832 277.261 162.661 277.211L162.032 277.188C161.438 277.164 160.89 277.126 160.342 276.976C160.442 278.426 160.496 279.881 160.318 281.31C160.222 282.082 159.206 282.285 158.937 281.497C158.234 279.438 158.089 277.218 157.832 275.063C157.592 273.049 157.446 271.021 157.289 268.998L157.241 268.391C156.887 263.942 156.605 259.49 156.398 255.031C156.191 250.572 156.067 246.115 156.017 241.652C155.995 239.626 156.029 237.593 156.108 235.567L156.133 234.959C156.224 232.875 156.161 230.664 156.625 228.623ZM63.7893 275.319C63.8163 275.034 64.0443 274.68 64.3834 274.724C64.6959 274.765 65.0178 274.745 65.3269 274.797C65.7349 274.865 66.0632 275.106 66.4426 275.257C67.0593 275.504 67.7316 275.632 68.3643 275.833C69.5514 276.212 70.1983 277.462 69.7067 278.63C69.1897 279.857 67.8906 280.136 66.7682 279.621C65.8834 279.215 65.2239 278.566 64.629 277.815L64.4605 277.601C64.2041 277.278 63.9131 276.919 63.8056 276.528C63.701 276.147 63.7525 275.706 63.7893 275.319ZM121.465 269.549C122.943 269.34 124.206 269.846 125.575 270.323L125.686 270.361C127.078 270.842 129.11 271.175 129.824 272.601C130.254 273.461 129.92 274.602 128.906 274.857C127.302 275.259 125.863 274.086 124.536 273.296L124.466 273.255C123.186 272.504 121.864 271.874 121.046 270.579C120.828 270.234 121.017 269.612 121.465 269.549ZM69.8481 151.913C69.2557 152.045 68.6633 152.163 68.0715 152.276C65.8205 153.483 63.6355 154.735 61.3114 155.81C58.8455 156.951 56.3886 158.13 54.0463 159.51C49.3141 162.299 45.4131 165.925 42.1896 170.369C36.6214 178.047 32.4795 186.9 29.5152 195.884C28.7536 198.192 28.072 200.526 27.4691 202.879C28.5351 201.893 29.7972 201.287 31.2125 200.767C31.8123 200.547 32.5589 200.92 32.8629 201.439C32.9996 201.673 33.0767 201.903 33.0626 202.177C33.0311 202.781 32.6381 203.467 31.9896 203.587C30.4775 203.866 29.0073 204.408 27.5493 204.886C27.3284 204.959 27.1384 204.931 26.9867 204.846C25.5393 210.979 24.6339 217.238 24.3131 223.535C24.0419 228.867 24.2092 234.239 24.7995 239.563C25.2531 239.359 25.6967 239.168 26.1941 239.052C26.8391 238.902 27.4735 238.719 28.1027 238.513C29.9183 237.917 30.7465 240.916 28.8907 241.373C28.2 241.543 27.5052 241.684 26.8015 241.788C26.1881 241.878 25.6456 241.838 25.0674 241.744C25.5091 245.065 26.1125 248.362 26.8811 251.613L27.0507 252.324C28.0491 256.475 29.2127 260.666 30.8954 264.589C31.7208 266.513 32.8137 268.341 34.1631 269.946C34.826 270.735 35.5619 271.411 36.3643 272.052C37.0323 272.585 39.3031 273.743 41.9924 273.743C44.6818 273.743 45.4098 273.488 46.7667 273.021C49.45 272.097 51.9977 270.622 54.5141 269.308L54.7743 269.173C55.8871 268.597 56.9956 268.013 58.1012 267.423C57.9615 266.295 58.206 265.348 58.7933 264.307C59.4281 263.18 61.0012 263.741 61.1181 264.894L61.1219 264.938C61.1396 265.197 61.1831 265.462 61.2372 265.726C68.6297 261.675 75.8656 257.34 82.9864 252.824C87.5732 249.914 92.1112 246.917 96.5829 243.833C98.8184 242.291 101.034 240.722 103.228 239.121C104.378 238.283 105.522 237.438 106.66 236.585C107.135 236.23 107.6 235.858 108.075 235.501C107.96 235.356 107.847 235.212 107.738 235.069C105.963 232.744 104.811 229.973 104.238 227.114C103.891 225.389 103.724 223.598 103.673 221.839L103.65 221.074C103.615 219.786 103.606 218.437 103.844 217.189C103.521 217.367 103.191 217.541 102.862 217.727C101.681 218.396 100.5 219.063 99.3165 219.728C96.947 221.057 94.5704 222.372 92.1636 223.633C87.8648 225.886 83.5236 228.029 79.0653 229.95L76.8959 230.886C73.1309 232.506 69.3351 234.097 65.4205 235.301C63.2126 235.98 59.9019 236.82 57.6623 237.339C57.6623 237.339 60.3614 239.883 58.4081 240.758C56.4547 241.633 54.8364 238.276 54.7719 237.972C53.7403 238.188 50.794 238.71 50.794 238.71C47.9942 239.251 45.2797 240.321 42.7771 241.691C41.9071 242.167 41.6648 241.242 42.5865 240.597C45.2818 238.712 48.4257 237.646 51.6695 236.751L51.8289 236.707C53.0189 236.381 54.2069 236.041 55.3923 235.689C55.262 235.217 55.1867 234.727 55.2017 234.188C55.2351 232.985 55.3414 231.779 55.4052 230.577C55.5391 228.055 55.71 225.542 55.9103 223.024C55.9872 222.055 56.0734 221.082 56.1721 220.111C55.5364 219.77 54.9882 219.317 54.2794 219.095L54.1598 219.06C53.4017 218.855 53.6576 217.878 54.3309 217.795C54.9408 217.719 55.5478 217.754 56.1491 217.883C56.2422 217.903 56.3303 217.926 56.4144 217.951C56.5249 217.051 56.6474 216.154 56.7867 215.261C57.1549 212.903 57.4154 210.418 58.1819 208.153C58.2387 207.985 58.4878 207.925 58.5801 208.101C59.6952 210.223 59.734 212.826 59.8596 215.189L59.8752 215.471C60.0233 218.049 60.0317 220.652 59.984 223.234C59.935 225.895 59.8439 228.548 59.7246 231.206C59.6766 232.277 59.6785 233.387 59.4962 234.411C66.1317 232.253 72.6499 229.67 78.8977 226.611C83.305 224.454 87.6742 222.21 91.9936 219.882C94.1578 218.716 96.3322 217.569 98.4941 216.398C99.2515 215.988 100.008 215.576 100.765 215.164L101.9 214.545C102.962 213.965 103.848 213.389 105.085 213.348C105.453 213.336 105.784 213.509 106.019 213.77C106.683 213.298 107.451 213.009 108.258 213.016C109.471 211.339 110.703 209.676 111.984 208.049L112.931 206.844C114.569 204.766 116.304 202.656 118.393 201.074C119.325 200.369 120.351 199.839 121.42 199.402C121.169 199.34 120.922 199.217 120.703 199.013C119.681 198.065 119.541 196.305 119.333 194.983C119.118 193.612 119.201 192.385 119.414 191.019C119.496 190.487 120.376 190.377 120.59 190.865C121.043 191.893 121.522 192.879 121.933 193.919L122.055 194.233C122.496 195.404 123.437 196.635 123.375 197.906C123.358 198.254 123.242 198.557 123.062 198.801C123.959 198.503 124.87 198.237 125.767 197.96C128.589 197.087 131.421 196.24 134.297 195.563C135.063 195.383 135.832 195.216 136.605 195.062C137.01 193.14 137.6 191.253 138.295 189.4C137.637 189.062 137.21 188.497 136.643 187.993C136.113 187.522 135.748 186.948 135.295 186.407C134.883 185.915 135.115 185.026 135.855 185.054L136.065 185.063C136.832 185.099 137.576 185.178 138.272 185.536L138.519 185.664C138.859 185.841 139.232 186.043 139.563 186.282C139.996 185.285 140.447 184.297 140.902 183.319L141.493 182.055C143.025 178.764 144.553 175.347 146.477 172.283C147.332 170.92 148.47 170.07 150.104 169.938C151.786 169.802 153.535 169.977 155.219 170.038C157.172 170.108 159.124 170.19 161.075 170.293C160.575 169.769 160.119 169.186 159.616 168.683C158.783 167.849 157.902 167.059 156.976 166.328C155.144 164.882 153.129 163.691 151.037 162.665C148.943 161.639 146.789 160.744 144.824 159.476C143.581 158.674 142.47 157.665 141.456 156.573C140.818 163.461 137.493 169.86 132.498 174.668C127.31 179.661 120.141 182.404 113.128 183.571C105.974 184.761 98.5082 184.324 91.665 181.837C88.1367 180.554 84.7526 178.722 81.7346 176.424C81.7015 176.623 81.6615 176.821 81.5831 177.007C81.478 177.257 81.3493 177.469 81.2018 177.688L80.9387 178.073C80.7727 178.315 80.6036 178.555 80.4153 178.779C79.9591 179.323 79.3129 179.561 78.6167 179.558C77.2839 179.554 76.2744 178.246 76.6331 176.953C76.8586 176.141 77.3409 175.652 78.0939 175.334C78.3318 175.233 78.5744 175.149 78.8183 175.066L79.0015 175.004C79.248 174.919 79.4927 174.839 79.7464 174.792C78.3174 173.53 76.9915 172.158 75.8041 170.678C72.0801 166.034 68.407 159.531 69.652 153.364C69.6736 153.258 69.7689 153.191 69.8715 153.174C69.9438 152.741 70.1741 152.323 70.4895 152.041C70.2772 151.985 70.0631 151.942 69.8481 151.913ZM108.518 258.538C109.256 258.128 110.018 259.102 109.418 259.705L108.523 260.6C107.693 261.435 106.885 262.279 106.174 263.231L106.001 263.463C105.042 264.769 104.019 266.282 102.446 266.77C100.544 267.361 98.7167 265.043 99.818 263.35C100.78 261.871 102.633 261.313 104.23 260.701C105.741 260.122 107.106 259.323 108.518 258.538ZM47.1659 251.711C47.5993 251.143 48.7291 251.442 48.4331 252.245C47.4716 254.853 47.0797 258.408 44.6514 260.141C43.8681 260.699 42.6374 260.443 41.9924 259.798C41.2595 259.064 41.2302 258.032 41.6493 257.138C42.1605 256.046 43.4179 255.255 44.2992 254.424L44.3783 254.349C45.3264 253.427 46.3519 252.777 47.1659 251.711ZM148.656 254.712C149.43 254.378 151.445 253.73 152.043 254.497C152.071 254.525 152.095 254.556 152.114 254.59C152.26 254.845 152.282 255.204 152.114 255.457C151.418 256.503 150.693 257.284 149.703 258.029L149.592 258.112C148.514 258.904 147.502 259.835 146.189 260.192C144.37 260.688 143.099 258.409 144.377 257.078C145.406 256.006 146.978 255.449 148.342 254.851L148.656 254.712ZM75.5821 239.812C75.2777 239.262 75.8997 238.586 76.4629 238.931C78.0696 239.913 79.9412 240.65 81.7458 241.179C82.4762 241.394 83.1351 242.134 83.0808 242.933L83.0723 243.054C83.0508 243.337 83.0119 243.617 82.8326 243.852C82.2041 244.674 81.3049 244.991 80.3447 244.504C78.2048 243.419 76.7401 241.905 75.5821 239.812ZM122.542 238.145C122.503 237.914 122.672 237.735 122.907 237.78C124.265 238.037 125.519 238.693 126.685 239.447C127.311 239.852 127.914 240.296 128.538 240.705C129.308 241.209 129.597 241.625 129.711 242.551C129.786 243.162 129.216 243.72 128.693 243.889C127.268 244.348 125.635 242.84 124.669 241.86L124.626 241.815C123.615 240.785 122.782 239.566 122.542 238.145ZM163.323 236.544C163.014 235.708 164.081 235.015 164.778 235.425C165.435 235.812 166.148 236.133 166.767 236.576C167.337 236.983 167.856 237.465 168.402 237.907L168.672 238.12C169.673 238.926 171.326 240.918 169.894 242.073C168.531 243.173 166.725 241.768 165.81 240.741L165.746 240.669C165.22 240.061 164.571 239.4 164.189 238.69C163.83 238.021 163.586 237.254 163.323 236.544ZM149.884 171.819C148.178 172.15 147.482 174.258 146.763 175.631C145.067 178.874 143.507 182.175 141.94 185.481C141.458 186.498 140.988 187.522 140.514 188.545C140.485 188.625 140.448 188.704 140.404 188.782C139.434 190.873 138.434 192.95 137.265 194.935C138.335 194.734 139.41 194.564 140.489 194.429C140.434 193.413 141.13 192.053 141.474 191.197L141.503 191.125C141.932 190.029 142.382 188.301 143.486 187.732C143.854 187.543 144.248 187.78 144.276 188.186C144.36 189.393 143.18 190.774 142.603 191.798C142.254 192.418 141.914 193.04 141.583 193.669C141.459 193.905 141.355 194.136 141.228 194.344C141.784 194.283 142.341 194.23 142.9 194.191L143.264 194.166C145.335 194.029 147.534 193.99 149.405 195.012C151.141 195.959 152.028 197.982 151.075 199.824C149.887 202.119 147.27 202.423 144.97 202.609C142.096 202.841 139.216 203.259 136.362 203.668C133.411 204.09 130.632 205.178 127.724 205.738C127.454 205.79 127.285 205.436 127.533 205.285C129.827 203.888 132.615 203.12 135.179 202.337L135.386 202.274C136.777 201.846 138.137 201.358 139.575 201.116C140.972 200.88 142.377 200.69 143.786 200.545L143.923 200.532C145.474 200.402 149.431 200.446 149.264 198.149C149.153 196.629 146.682 196.366 145.555 196.348C140.384 196.265 135.176 197.638 130.262 199.109L129.165 199.438C127.153 200.044 125.138 200.667 123.164 201.377C120.927 202.181 119.164 203.436 117.535 205.152C115.728 207.056 113.978 209.003 112.103 210.842C110.922 212.002 109.725 213.141 108.518 214.27C108.246 214.623 108.028 215.007 107.877 215.505C107.622 216.347 107.68 217.129 107.777 217.994C108.02 220.177 108.073 222.382 108.378 224.559C108.66 226.575 109.055 228.665 109.892 230.535C110.223 231.276 110.654 232.003 111.145 232.654L111.542 233.169C111.714 233.393 111.908 233.638 112.111 233.869C112.409 233.505 112.84 233.269 113.34 233.328C114.405 233.453 115.242 233.423 116.286 233.178C117.094 232.989 117.896 232.767 118.701 232.562C120.281 232.159 121.876 231.792 123.44 231.329L123.709 231.248C124.875 230.89 126.04 230.442 127.011 229.69C128.138 228.815 128.484 227.553 129.319 226.462C131.102 224.131 134.954 224.18 137.563 223.542C139.779 223 141.912 222.144 143.446 220.535L143.536 220.439C143.468 220.152 143.578 219.828 143.845 219.679L143.903 219.647C144.007 219.589 144.119 219.565 144.229 219.567C144.371 219.358 144.508 219.142 144.633 218.912C144.736 218.722 144.993 218.862 144.959 219.049C144.939 219.161 144.911 219.27 144.885 219.379C146.371 218.997 148.002 219.07 149.511 219.071L151.469 219.064C151.808 219.06 152.313 219.043 152.358 219.022L152.404 219.002C152.526 218.949 152.353 219.037 152.438 218.923C152.532 218.798 152.624 218.672 152.715 218.545C153.039 218.09 153.346 217.622 153.647 217.15C150.368 217.986 146.972 218.506 143.624 218.939C140.033 219.405 136.394 219.728 132.77 219.731C131.771 219.732 131.781 218.224 132.77 218.186C136.607 218.039 140.424 217.836 144.236 217.344C146.207 217.089 148.169 216.77 150.121 216.396C150.874 216.253 151.626 216.1 152.376 215.938L152.938 215.815C153.291 215.737 154.287 215.625 154.773 215.299C154.868 215.135 154.964 214.971 155.058 214.807C155.012 214.231 153.548 214.308 153.205 214.307C152.232 214.305 151.259 214.313 150.286 214.316C148.34 214.321 146.394 214.304 144.448 214.289C140.56 214.257 136.657 214.121 132.772 214.288C131.829 214.328 131.333 212.815 132.266 212.417C136.381 210.659 140.949 210.277 145.343 209.737C147.653 209.453 149.965 209.125 152.224 208.55L152.783 208.408C154.202 208.044 155.769 207.6 156.963 206.733C155.167 206.006 152.935 206.09 151.073 205.987L150.931 205.978C148.324 205.818 145.713 205.736 143.101 205.732C137.757 205.725 132.412 205.914 127.074 206.168C126.94 206.174 126.912 205.963 127.042 205.934C132.529 204.737 138.105 204.16 143.719 204.071C146.334 204.03 148.95 204.066 151.563 204.182L152.522 204.226C154.749 204.322 157.221 204.348 159.085 205.694C159.369 205.899 159.518 206.161 159.542 206.438C162.041 201.454 164.35 196.365 166.668 191.311C168.47 187.38 170.204 183.417 172.072 179.518L172.677 178.256C173.486 176.573 174.316 174.889 175.237 173.267C171.793 172.806 168.33 172.486 164.864 172.242C161.707 172.018 151.405 171.524 149.884 171.819ZM148.359 225.839C148.752 225.62 149.354 225.798 149.451 226.283C149.523 226.644 149.646 227.044 149.646 227.413C149.646 227.855 149.488 228.336 149.403 228.768C149.21 229.763 148.971 230.571 148.466 231.457C148.149 232.011 147.511 232.388 146.869 232.373C146.36 232.361 145.91 232.225 145.561 231.831C145.143 231.36 144.856 230.666 145.086 230.031C145.686 228.368 146.79 226.711 148.359 225.839ZM65.0573 224.179C65.9763 222.569 68.1547 221.13 70.0557 221.272C72.9101 221.486 73.4926 225.331 70.729 226.249C69.0771 226.797 66.8045 226.234 65.3594 225.331C64.9698 225.088 64.827 224.583 65.0573 224.179ZM35.7209 218.678C35.5121 218.375 35.8571 218.028 36.1681 218.096C36.8579 218.247 37.6016 218.314 38.2772 218.519C38.9691 218.73 39.6388 219.079 40.3242 219.319C41.76 219.822 43.2936 220.075 44.6831 220.682C45.2385 220.925 45.6754 221.73 45.624 222.323L45.611 222.462C45.5802 222.756 45.5292 223.013 45.3646 223.282C44.9224 224.005 44.0463 224.378 43.2194 224.156C41.6854 223.743 40.1864 222.684 38.8785 221.805L38.6368 221.644C38.0653 221.267 37.4509 220.873 36.9904 220.389C36.5098 219.882 36.1147 219.251 35.7209 218.678ZM88.4527 212.822C88.2761 212.185 89.0673 211.765 89.5285 212.195C90.4501 213.054 91.4137 213.85 92.3162 214.731L92.3768 214.791C93.0231 215.441 93.9634 216.693 93.1228 217.533C92.0458 218.611 90.546 217.012 89.9682 216.179C89.2353 215.122 88.7956 214.057 88.4527 212.822ZM158.975 207.562C157.608 209.01 155.501 209.676 153.647 210.228C151.448 210.882 149.182 211.272 146.914 211.594C144.723 211.904 142.548 212.181 140.392 212.538C142.023 212.558 143.654 212.57 145.282 212.599C147.159 212.633 149.035 212.674 150.912 212.728C152.278 212.768 153.882 212.581 155.181 213.089C155.415 213.18 155.633 213.307 155.824 213.461C156.916 211.519 157.963 209.55 158.975 207.562ZM74.6494 194.016C76.0763 193.562 77.418 192.96 78.9307 193.117C79.3328 193.158 79.6207 193.549 79.4012 193.936C78.6843 195.198 77.5187 195.911 76.3712 196.755L76.27 196.83C75.014 197.764 73.6655 198.616 72.2997 199.383C69.948 200.703 67.8407 196.925 70.2155 195.816C71.6445 195.149 73.1456 194.494 74.6494 194.016ZM100.339 190.735C102.522 190.879 104.704 190.977 106.89 191.065C109.422 191.167 108.571 195.065 106.456 194.276C104.366 193.497 102.277 192.727 100.168 192C99.5266 191.779 99.5782 190.724 100.299 190.734L100.339 190.735ZM44.348 183.801C44.9137 183.762 45.4844 183.885 46.051 183.94L46.6539 183.999C47.8968 184.122 49.0621 184.275 50.2474 184.781C52.4344 185.715 51.2598 189.232 49.0643 189.151C47.4415 189.091 46.0539 188.394 44.6837 187.583C43.4858 186.873 42.7514 185.985 41.9425 184.871C41.6746 184.502 42.0479 184.089 42.4127 184.052C43.0554 183.986 43.7051 183.846 44.348 183.801ZM153.978 176.619C153.617 178.878 152.718 180.995 151.365 182.839C150.684 183.765 149.49 183.8 148.816 182.839C147.862 181.479 148.45 179.92 149.169 178.614L149.381 178.232C149.703 177.658 150.197 176.822 150.762 176.244L150.771 176.185C151.074 173.819 154.351 174.292 153.978 176.619ZM65.6824 162.121C66.2266 161.63 67.2289 161.778 67.4055 162.576C67.6527 163.693 67.8031 164.953 67.6413 166.087C67.5536 166.702 67.5206 167.392 67.2789 167.965C67.0191 168.581 66.5192 169.055 66.0483 169.519C65.1082 170.443 63.1263 170.138 62.8744 168.68L62.8424 168.502C62.7158 167.812 62.5538 167.075 62.7413 166.392C62.8829 165.876 63.1993 165.35 63.4611 164.872L63.5163 164.77C64.0406 163.793 64.858 162.863 65.6824 162.121ZM142.181 164.498L142.377 164.501C143.896 164.531 146.674 164.901 146.688 166.778C146.692 167.221 146.364 167.68 145.925 167.781C145.017 167.992 144.43 167.455 143.783 166.913C143.254 166.47 142.637 166.116 141.996 165.861C141.304 165.585 141.349 164.497 142.181 164.498Z" fill="black"/>
<path fill-rule="evenodd" clip-rule="evenodd" d="M99.7856 55.5158C131.74 53.9405 146.159 76.4954 147.092 86.5695C147.74 93.5626 143.618 101.623 143.618 107.872C143.618 111.061 147.514 117.909 145.7 122.558C141.664 132.906 133.117 144.389 122.226 144.389C111.335 144.389 97.1606 147.409 85.1264 130.135C83.9972 128.514 69.7154 119.302 68.3279 110.549C64.8717 88.745 76.9849 56.6399 99.7856 55.5158Z" fill="#FDC6A0"/>
<path fill-rule="evenodd" clip-rule="evenodd" d="M98.2791 41.479C99.4218 40.1687 101.351 39.6445 103.065 39.746C105.555 39.8939 107.72 41.4346 110.197 41.5488C112.794 41.6692 115.301 40.7668 117.905 41.1853C119.5 41.4431 121.082 42.1849 122.104 43.4361C125.646 42.4195 129.491 43.7658 131.747 46.7057C134.53 46.2725 137.557 48.1199 138.409 50.808C141.945 50.9222 145.282 53.769 145.676 57.3366C147.089 57.7107 148.316 58.6874 149.068 59.9785C149.943 61.4749 150.089 63.191 149.93 64.8776C151.594 65.7294 152.439 67.5597 152.661 69.4956C154.181 70.6327 154.841 72.6764 154.531 74.6061C155.694 75.2634 156.295 76.7935 156.289 78.1589C156.283 79.4333 155.945 80.5621 156.42 81.792C156.842 82.8874 156.994 83.8003 156.762 84.9477L156.738 85.0595C156.697 85.2465 156.662 85.4259 156.631 85.6028C156.946 85.8797 157.212 86.2267 157.412 86.6304C158.141 88.1056 158.033 89.7882 157.477 91.2844C157.72 92.2371 157.689 93.2436 157.329 94.1594C158.003 95.1326 158.358 96.3263 158.254 97.5648C158.137 98.9515 157.505 100.193 156.547 101.111C156.802 103.005 156.034 105.052 154.645 106.386C154.842 107.519 154.672 108.708 154.053 109.783C153.612 110.549 153.019 111.12 152.334 111.517C152.356 112.15 152.271 112.797 152.061 113.445C151.769 114.345 151.276 115.173 150.626 115.841C151.013 118.326 149.529 121.083 146.917 121.781C146.698 121.839 146.488 121.866 146.288 121.87C146.028 124.26 145.461 126.617 144.584 128.856C142.354 134.556 138.297 139.539 133.008 142.648C130.391 144.185 127.453 145.237 124.453 145.677C122.294 145.994 120.217 145.916 118.05 145.7C115.33 145.427 112.598 145.02 109.954 144.318L109.529 144.205C108.433 143.91 107.278 143.571 106.328 142.978C105.266 142.314 104.714 141.291 104.469 140.087C104.333 139.416 104.756 138.695 105.488 138.681L105.536 138.681C105.696 138.685 105.855 138.678 106.016 138.668L106.137 138.66H106.143C106.151 138.658 106.156 138.658 106.164 138.658C106.236 138.647 106.305 138.626 106.375 138.616C107.18 138.48 107.885 138.614 108.641 138.867L108.736 138.899C110.009 139.338 111.272 139.746 112.588 140.049C113.947 140.359 115.324 140.607 116.705 140.801L116.842 140.818L116.884 140.824L116.905 140.826V140.826C116.909 140.826 116.914 140.826 116.918 140.828L117.325 140.879V140.879C117.645 140.917 117.966 140.951 118.286 140.985C118.876 141.044 119.467 141.091 120.057 141.124C130.246 141.699 138.803 133.657 141.386 124.016C142.322 120.526 142.383 117.045 142.107 113.562C142.018 113.309 141.966 113.027 141.968 112.719C141.968 112.558 141.976 112.4 141.987 112.239C141.643 108.87 141.047 105.499 140.673 102.118C140.237 98.1674 139.994 94.1942 140.083 90.2185C140.127 88.2551 140.336 86.3107 140.61 84.3664L140.709 83.6679V83.6679C139.471 83.4255 138.319 82.8367 137.402 81.9843C135.412 83.1362 132.837 83.2383 130.873 82.0219C128.672 83.4056 125.597 83.5312 123.381 82.1783C122.041 83.137 120.353 83.5506 118.697 83.1867C117.951 83.0231 117.21 82.6691 116.576 82.179C116.123 82.2591 115.664 82.2901 115.207 82.2663L115.113 82.3191V82.3191C114.061 82.8749 112.896 83.2408 111.696 83.2C110.808 83.17 109.893 82.9944 109.047 82.6621C108.142 83.2095 107.152 83.5832 106.093 83.7172C104.546 83.9127 102.877 83.5696 101.59 82.69C99.2394 84.0325 96.3478 84.2392 93.8103 83.3372C93.2906 84.2196 92.5715 84.9804 91.7295 85.5669C91.8802 86.1084 91.9283 86.6858 91.8764 87.241C91.7913 88.1549 91.5627 88.9743 91.189 89.7102C91.583 90.532 91.7015 91.5409 91.4809 92.5537C91.1666 93.9981 90.3284 95.2546 89.2431 96.2331C89.1474 98.5381 87.8864 100.699 85.8343 101.9C85.7304 101.961 85.6271 102.01 85.524 102.055C85.4333 102.179 85.3249 102.288 85.2012 102.38C83.8962 103.589 81.831 103.493 80.1952 102.81C80.1636 102.812 80.1322 102.814 80.1001 102.815C79.516 102.83 79.1177 102.602 78.8814 102.265C78.6434 102.278 78.407 102.304 78.169 102.348C77.3002 102.511 76.3473 102.823 75.5609 103.229C73.5202 104.282 72.5757 106.142 72.2932 108.378C71.9856 110.817 72.6853 113.302 74.5682 114.953C75.4829 115.756 76.653 116.259 77.842 116.47C79.1555 116.705 80.5595 116.128 81.5293 117.259C81.7233 117.483 81.8561 117.796 81.7507 118.098C81.4218 119.04 80.88 119.402 80.0325 119.533C81.2573 120.989 82.5138 122.397 83.9053 123.705C85.4105 125.123 86.9664 126.497 88.3243 128.061C89.7598 129.716 91.0563 131.47 91.9566 133.478C92.471 134.632 92.8842 135.822 93.3292 137.003L93.4087 137.209C93.9049 138.464 94.5649 139.674 93.8012 140.985C93.4977 141.501 92.8104 141.999 92.1779 141.917C90.3967 141.689 89.8001 140.482 89.2517 138.909C88.8385 137.722 88.5223 136.5 88.0776 135.323C87.9944 135.105 87.9037 134.889 87.8086 134.675C86.7815 134.962 85.6521 134.734 84.7355 134.147C83.756 134.582 82.6709 134.799 81.6229 134.78C80.2197 134.756 78.9377 134.365 77.8355 133.66C77.7478 133.637 77.6597 133.614 77.5722 133.589C75.8955 134.233 73.9319 134.118 72.4138 133.075C71.4307 132.399 70.7586 131.497 70.3766 130.493C69.1064 130.469 67.8499 130.017 66.9398 129.114C66.1041 128.285 65.6156 127.215 65.4706 126.103C64.3773 125.886 63.3522 125.356 62.5484 124.463C61.8771 123.718 61.4692 122.768 61.3313 121.783C59.9998 121.402 58.7989 120.53 58.143 119.315C57.5327 118.184 57.4446 116.956 57.7431 115.84L57.6657 115.728V115.728C56.2941 115.009 55.2474 113.831 55.1399 112.148C55.1095 111.669 55.161 111.189 55.2906 110.736C55.2438 110.229 55.2738 109.722 55.4064 109.232C53.5617 107.433 52.8934 104.544 53.8948 102.156C52.0922 100.211 51.6158 97.136 52.9376 94.8283C52.0311 93.729 51.5652 92.3278 51.6432 90.8314C51.7402 88.9633 52.594 87.3315 53.6165 85.8203C52.8575 84.9791 52.4528 83.8062 52.4825 82.6733C52.5244 81.0311 53.3951 79.6172 54.4853 78.4463C53.5343 75.555 54.5968 72.4186 56.9306 70.5883C56.4584 69.8084 56.2834 68.8425 56.4375 67.864C56.7071 66.1542 57.9868 64.9896 59.3677 64.0681C59.0789 63.1257 59.1548 62.1089 59.6144 61.1346C60.2279 59.8348 61.3853 59.0105 62.5933 58.3131C62.9053 55.4303 66.1182 52.968 68.8125 54.4559C68.1442 52.3107 70.0692 49.9943 72.2829 49.7492C73.3663 46.4563 77.1042 44.3809 80.4647 45.1988C82.1829 42.8444 85.381 41.9379 88.0964 42.9479C91.0819 40.6548 94.7858 40.3145 98.2791 41.479ZM77.0135 106.133C79.1112 106.019 80.6839 107.735 81.7888 109.306C82.8259 110.779 80.1653 112.334 79.3895 110.711C79.1112 110.132 78.7949 109.519 78.3712 109.012C78.3 109.112 78.2372 109.215 78.1746 109.321L78.1119 109.428C78.0655 109.506 78.017 109.587 77.977 109.669C77.9812 109.684 77.9179 109.878 77.9158 109.887C77.7429 110.413 77.3656 110.751 76.8514 110.933C76.1871 111.166 75.5588 110.665 75.3459 110.077C75.0067 109.139 75.795 108.321 76.615 107.949C75.8097 107.818 75.017 108.093 74.4352 108.714C74.3552 108.801 74.2201 108.731 74.2161 108.623C74.1484 107.15 75.6853 106.205 77.0135 106.133Z" fill="black"/>
<path fill-rule="evenodd" clip-rule="evenodd" d="M133.707 116.647C134.02 116.239 134.78 118.017 134.936 118.234L134.943 118.244C135.62 119.064 136.173 120.318 136.251 121.37C136.253 121.402 136.253 121.432 136.253 121.463C137.338 121.314 138.423 121.162 139.508 120.996C139.928 120.68 140.515 120.778 141.083 121.065C142.35 121.705 141.733 123.737 140.368 123.705C136.677 123.617 132.908 124.091 129.248 124.518C127.365 124.737 125.486 124.97 123.614 125.268C121.864 125.546 120.075 125.939 118.305 126.015C118.208 126.019 118.168 125.875 118.255 125.83C119.816 125.028 121.599 124.543 123.284 124.073C125.108 123.564 126.946 123.087 128.796 122.684C130.456 122.323 132.125 122.052 133.798 121.809C133.785 121.776 133.773 121.742 133.762 121.707C133.55 120.995 133.556 120.178 133.51 119.428L133.484 119.03C133.443 118.343 133.402 117.047 133.707 116.647ZM128.271 107.866C129.866 108.836 132.297 111.098 130.581 113.503C128.56 115.624 125.652 113.193 124.219 112.093C122.89 111.241 121.396 113.433 122.629 114.428C132.987 122.099 137.19 108.12 129.078 106.726C128.184 106.572 127.853 107.566 128.271 107.866ZM102.62 99.3277C105.275 98.9225 107.994 98.876 110.676 99.01C112.071 99.0796 113.464 99.1831 114.853 99.3209C115.579 99.393 116.304 99.4737 117.027 99.5644C117.546 99.6295 118.347 99.9266 118.84 99.7914C120.347 99.3786 121.777 100.805 121.362 102.314C120.95 103.812 119.183 104.207 118.047 103.307C117.508 103.117 116.966 102.937 116.421 102.769C116.38 102.941 116.319 103.111 116.233 103.275C116.136 103.459 116.043 103.644 115.954 103.832C115.973 103.802 115.827 104.152 115.823 104.162L115.707 104.467C115.503 104.993 115.275 105.492 114.723 105.764C113.963 106.139 112.772 105.932 112.465 105.039C111.985 104.099 112.303 102.786 112.577 101.813L112.599 101.738C109.286 100.95 105.918 100.359 102.62 99.557C102.512 99.5308 102.501 99.3459 102.62 99.3277ZM142.02 95.7925C142.192 95.4474 142.583 95.4459 142.816 95.7701C143.333 96.4899 142.175 97.5207 141.692 97.9997L141.644 98.0481C140.557 99.1505 139.233 100.039 137.919 100.842C137.644 101.011 137.364 101.171 137.084 101.33C137.135 101.434 137.183 101.541 137.221 101.65C137.42 102.212 137.424 102.883 137.245 103.45C136.872 104.634 135.879 105.58 134.592 105.579C133.913 105.578 133.109 104.936 133.201 104.187C133.233 103.921 133.26 103.637 133.301 103.354C132.395 103.655 131.284 103.302 130.708 102.555C129.907 101.517 130.127 99.816 131.353 99.1714C132.255 98.6975 133.25 98.5779 134.227 98.3275C135.196 98.0793 136.159 97.7942 137.108 97.4757C138.043 97.1617 138.975 96.8252 139.904 96.4927C140.364 96.3281 140.819 96.1763 141.288 96.0369C141.497 95.9747 141.798 95.8113 142.02 95.7925Z" fill="black"/>
<path fill-rule="evenodd" clip-rule="evenodd" d="M137 133.092C136.262 132.851 135.538 132.57 134.81 132.299C131.09 130.43 126.596 130.091 122.695 131.665C120.78 132.438 118.994 133.826 117.073 134.736C116.617 134.906 116.156 135.061 115.691 135.191C115.406 135.092 115.121 134.986 114.838 134.88C112.8 134.112 110.883 133.164 109.021 132.121C108.823 131.841 108.617 131.57 108.395 131.309C109.742 131.117 111.061 130.799 112.254 130.471C115.917 129.467 119.369 127.832 123.02 126.783C126.419 125.805 130.108 125.27 133.522 126.485C135.143 127.062 136.569 128.073 138.145 128.753C138.96 129.104 139.938 129.448 140.891 129.499C140.276 130.972 139.499 132.348 138.436 133.494C137.95 133.39 137.469 133.244 137 133.092ZM144.927 121.554C144.6 121.825 143.254 122.7 142.818 123.222C142.705 123.179 142.593 123.135 142.481 123.09C142.289 122.854 142.006 122.75 141.718 122.757C139.705 121.82 137.912 120.496 136.313 118.837C135.176 117.659 134.012 116.427 132.493 115.745C130.704 114.937 128.944 115.309 127.064 115.432C125.063 115.565 123.088 114.996 121.089 115.269C119.627 115.47 118.258 116.089 117.075 116.962C114.66 118.744 112.995 121.246 110.955 123.404C108.639 125.851 105.791 127.415 102.624 128.214C102.586 128.189 102.546 128.163 102.506 128.14C100.171 126.027 98.063 123.641 96.1975 121.098C94.3764 118.615 89.5743 107.436 88.4144 106.456C87.9327 106.048 87.4046 105.872 86.8996 105.887C85.9849 105.908 85.1398 106.544 84.7616 107.546C84.1194 109.25 84.4405 111.452 84.4912 113.234C84.5546 115.415 84.6982 117.594 84.9264 119.764C85.1525 121.91 85.4525 124.048 85.8264 126.173C86.0144 127.246 86.2236 128.318 86.4539 129.385C86.5257 129.721 86.6166 130.021 86.7264 130.3C86.8384 130.826 86.9588 131.351 87.0877 131.871C87.9285 135.275 89.2553 138.684 91.7884 141.197C94.425 143.816 98.0081 145.555 101.336 147.111C104.505 148.593 107.826 149.909 111.233 150.941C114.193 152.283 117.362 153.344 120.544 153.902C124.047 154.517 127.729 154.555 131.112 153.337C132.774 152.739 134.346 151.904 135.772 150.865C137.794 149.814 139.613 148.371 141.102 146.46C143.77 143.036 145.043 138.881 145.601 134.596C145.743 133.499 146.279 129.296 146.322 128.642C146.458 126.528 146.594 124.415 146.73 122.301C146.794 121.304 145.571 121.019 144.927 121.554Z" fill="black"/>
</g>
<defs>
<clipPath id="clip0_2016_14095">
<rect width="200" height="267" fill="white"/>
</clipPath>
</defs>
</svg>
