<svg width="200" height="267" viewBox="0 0 200 267" fill="none" xmlns="http://www.w3.org/2000/svg">
<g clip-path="url(#clip0_2016_14099)">
<rect width="200" height="267" fill="white"/>
<path fill-rule="evenodd" clip-rule="evenodd" d="M96.7955 128.018C101.428 124.786 116.467 127.221 122.666 128.018C125.923 128.437 127.846 132.664 129.557 139.092C138.484 136.903 150.198 134.829 158.613 140.763C161.212 143.027 161.698 146.885 158.7 149.038C157.723 149.696 155.841 150.256 155.543 150.827C154.337 153.897 152.992 157.954 153.206 161.219C157.038 195.5 164.72 229.875 170.124 263.937L170.267 265.226C170.9 271.021 171.413 277.859 167.477 282.473C164.831 284.716 161.068 284.407 157.834 285.054C127.351 289.139 96.5713 285.234 65.9644 286.48C60.7488 286.774 55.5054 287.154 50.2774 287.193L50.2751 287.132C50.8387 287.128 51.4025 287.12 51.9668 287.108C51.3888 270.078 50.1961 253.072 49.8112 236.035C49.6897 230.665 49.6542 225.293 49.7602 219.922C49.7818 218.834 48.0917 218.834 48.0701 219.922C48.0348 221.705 48.0192 223.486 48.0118 225.268C46.7459 224.275 45.3382 223.488 43.9874 222.601C43.0751 222.003 42.2275 223.466 43.1343 224.061C44.7365 225.112 46.4419 225.995 47.831 227.338C47.8871 227.392 47.9459 227.434 48.0057 227.469C48.0367 244.586 49.2082 261.691 49.9521 278.786C50.0621 281.316 50.162 283.846 50.2498 286.377L50.2772 287.193C44.6178 287.235 38.9765 286.877 33.408 285.579C32.4672 286.891 30.276 287.151 29.162 285.458C28.6046 284.819 28.4924 283.732 27.6298 283.488C27.3979 283.307 27.756 283.178 27.9199 283.264C20.3018 261.426 27.2538 220.73 33.396 198.358C36.0831 186.823 42.542 176.144 43.2144 164.203C43.2852 158.575 39.2508 151.795 44.3658 147.273C43.6114 143.14 47.5177 139.695 51.4617 139.423C56.316 121.888 77.8025 142.338 89.4364 142.545C91.0316 139.891 94.5794 129.564 96.7955 128.018ZM162.202 242.809C162.201 241.721 160.511 241.719 160.512 242.809C160.523 254.38 161.517 268.232 162.945 279.708C163.078 280.773 164.77 280.786 164.636 279.708C163.207 268.232 162.213 254.38 162.202 242.809ZM82.928 257.661C83.8874 257.147 83.0347 255.687 82.0751 256.201C75.0312 259.974 68.4488 264.484 62.1179 269.348C61.2671 270.002 62.108 271.471 62.971 270.808C69.3019 265.944 75.8841 261.434 82.928 257.661ZM144.053 255.501C143.387 254.701 141.96 255.532 142.617 256.384C144.146 258.366 146.047 259.927 148.274 261.069C149.229 261.559 150.076 260.141 149.161 259.628L149.127 259.609C147.226 258.635 145.513 257.343 144.181 255.664L144.053 255.501ZM59.4652 206.026C59.7012 204.965 58.0721 204.513 57.8355 205.576C57.338 207.811 57.6996 210.188 58.217 212.403L58.2517 212.55L58.3223 212.843C58.4152 213.224 58.771 213.436 59.1371 213.464C65.3543 213.924 71.5033 211.81 77.4638 210.251L77.9049 210.137L78.3454 210.025C79.3994 209.759 78.953 208.128 77.896 208.394L77.4254 208.514C71.695 209.991 65.7935 212.074 59.8138 211.812L59.751 211.536C59.3589 209.785 59.0817 207.912 59.436 206.163L59.4652 206.026ZM154.9 201.905C154.908 200.817 153.218 200.816 153.21 201.905L153.208 202.119C153.188 203.834 153.047 206.271 151.366 207.18C149.872 207.989 147.887 207.382 146.304 206.763L145.982 206.636L145.518 206.447C144.512 206.035 144.074 207.67 145.069 208.077L145.318 208.178C147.47 209.038 150.236 209.858 152.361 208.558C154.438 207.286 154.839 204.592 154.894 202.329L154.897 202.155L154.9 201.905Z" fill="#FDC6A0"/>
<path fill-rule="evenodd" clip-rule="evenodd" d="M150.207 136.699L150.38 136.73L155.163 137.62L150.312 137.986C150.087 138.003 149.862 138.024 149.635 138.049C149.17 138.1 148.712 138.164 148.263 138.242L147.971 138.294L148.096 138.288C149.868 138.205 151.641 138.35 153.39 138.717C155.114 139.079 156.644 139.571 158.013 140.241L158.176 140.322L158.387 140.43L158.489 140.479L158.57 140.516C158.945 140.69 159.097 140.779 159.256 140.994C159.57 141.42 159.436 141.901 159.031 142.267C158.727 142.541 158.335 142.676 157.821 142.754C157.745 142.766 157.667 142.776 157.583 142.785L157.128 142.83C156.28 142.918 155.72 143.378 155.636 144.09C155.553 144.788 155.962 145.496 156.548 145.669L156.592 145.681L156.646 145.694C156.722 145.711 156.789 145.73 156.854 145.753L156.903 145.772L157.009 145.815L157.014 145.816L157.017 145.819L157.118 145.86L157.144 145.911L157.16 145.923C157.22 145.972 157.245 146.007 157.285 146.081L157.319 146.148L157.347 146.245L157.355 146.276L157.359 146.302L157.36 146.309L157.388 146.486L157.395 146.546L157.398 146.585L157.398 149.296L156.703 147.905L156.679 147.925C156.342 148.196 155.911 148.419 155.362 148.636L155.25 148.679L154.961 148.786L154.389 148.99L154.257 149.039L154.14 149.085C154.047 149.121 153.968 149.155 153.895 149.188C153.786 149.238 153.69 149.295 153.606 149.358L153.558 149.396L153.282 149.624L152.604 149.387C152.525 149.359 152.452 149.333 152.383 149.308L151.725 149.063L151.162 148.856C150.431 148.589 149.774 148.356 149.135 148.14L148.359 147.882L147.794 147.697C147.597 147.634 147.39 147.567 147.161 147.494L143.963 146.484L143.348 146.286C143.002 146.175 142.691 146.072 142.369 145.965L141.772 145.764L141.193 145.565C139.31 144.911 137.509 144.21 134.3 142.914L134.996 143.31L135.513 143.603C136.132 143.952 136.811 144.33 137.57 144.75L141.022 146.658L141.714 147.045L143.26 147.914L144.077 148.37C145.54 149.183 146.579 149.732 147.686 150.272C148.541 150.69 149.421 151.091 150.337 151.482L150.682 151.628L151.211 151.849L151.629 152.03L151.911 152.154L152.097 152.233C153.096 152.652 153.682 152.76 154.333 152.59L154.379 152.577L154.423 152.561L155.691 152.075L155.25 153.359C155.199 153.506 155.15 153.654 155.1 153.803L155.011 154.076L154.939 154.219C154.514 155.063 154.095 155.933 153.673 156.845L153.446 157.337L153.316 157.433C153.268 157.469 153.224 157.521 153.188 157.591C153.02 157.92 152.857 158.246 152.7 158.573L152.534 158.921L152.364 159.288C151.617 160.895 150.94 162.545 150.061 164.846L148.904 167.914L148.731 168.372C147.309 172.123 145.969 175.884 144.713 179.651C142.227 187.085 140.029 194.628 138.124 202.26C134.3 217.591 131.748 233.152 130.498 248.815C130.261 251.767 130.091 254.705 129.987 257.633L129.962 258.393L129.881 259.066C129.818 259.596 129.758 260.111 129.703 260.615L129.67 260.916C129.263 264.645 129.068 267.578 129.088 270.387C129.099 271.781 129.141 273.079 129.22 274.33L129.239 274.618L129.553 279.217L128.009 274.873C127.9 274.566 127.794 274.254 127.675 273.89L127.525 273.425L127.453 273.192C127.388 272.978 127.326 272.757 127.248 272.467L126.975 271.434L126.907 271.186C126.836 270.93 126.778 270.733 126.709 270.523L126.628 270.277L126.568 270.106C126.458 269.799 126.329 269.472 126.125 268.977L125.811 268.215L125.748 268.06V267.936L125.759 267.526C125.78 266.548 125.775 265.518 125.746 264.362L125.72 263.457L125.692 262.681C125.689 262.601 125.686 262.519 125.683 262.434L125.538 258.943L125.258 251.192L125.214 249.883C125.183 248.91 125.157 248.029 125.135 247.169L125.116 246.384L125.11 246.117C124.94 238.427 125.004 230.516 125.287 222.287L125.315 221.49L125.344 220.705C125.821 207.923 126.645 197.043 128.599 175.625L128.924 172.081L129.411 166.836L129.523 165.605C129.749 163.098 129.911 161.143 130.048 159.228L130.108 158.375C130.338 154.992 130.478 151.478 130.545 147.619L130.556 146.925L130.252 147.985L129.988 144.46C129.908 143.392 129.773 142.406 129.575 141.486L129.531 141.29L129.445 140.916L129.378 140.667C129.265 140.247 129.976 138.316 129.976 138.316L130.378 138.22L130.865 138.105C138.617 136.295 144.655 135.701 150.207 136.699ZM73.7915 133.561L74.0252 133.625L74.1731 133.667C75.3589 134.008 76.6181 134.49 78.0706 135.135L78.4865 135.321C78.6721 135.405 79.7452 135.83 80.1717 136.012L80.2447 136.043C81.8197 136.735 82.7587 137.462 82.9658 138.532L82.9786 138.604C83.4383 139.045 83.9708 139.469 84.577 139.875L84.7301 139.976L84.875 140.07C85.5267 140.485 86.1438 140.851 86.7245 141.167L86.8819 141.252L86.9905 141.309L88.0362 141.668L89.329 142.117L89.5883 142.205C90.9357 142.664 91.7305 142.905 92.6825 143.139L93.2162 143.27C95.2416 143.761 97.0359 144.145 98.7651 144.445C100.526 144.749 102.333 145.016 104.202 145.249L104.834 145.326C105.456 145.4 106.066 145.455 107.016 145.529L108.554 145.649L109.593 145.733L109.04 146.617C107.591 148.933 106.473 151.514 105.222 155.164L105.082 155.574C103.948 158.928 103.15 161.95 101.775 167.75C99.6951 176.549 97.9813 185.432 96.6411 194.364C95.7175 200.52 94.9688 206.661 94.3978 212.783L94.3174 213.657L93.0548 213.656C92.8889 211.775 92.6825 209.838 92.4339 207.802C91.6535 201.459 90.5301 195.232 89.0621 189.155L88.9235 188.586L88.8633 188.34L88.9881 188.121C89.0631 187.989 89.0928 187.841 89.0717 187.711C88.9175 186.753 88.6362 185.879 88.0987 184.56L87.5508 183.235L87.4279 182.931L87.4189 182.9C86.8378 180.86 86.2186 178.844 85.5609 176.853L85.3402 176.19L85.3307 176.159C84.3759 172.744 83.4377 169.926 82.3354 167.284C81.4717 165.221 80.4903 163.198 79.3966 161.223L79.1902 160.853L79.1713 160.817C77.7859 157.936 76.3119 155.211 74.7468 152.658L74.4957 152.251L74.4726 152.184C74.4191 152.03 74.3385 151.893 74.2318 151.777L74.1906 151.734L74.138 151.683L74.0231 151.502L73.107 151.273C70.5289 150.628 67.8457 150.571 64.8506 151.018L64.6505 151.049L64.4494 151.081C62.2504 151.438 60.3612 151.925 56.9294 152.969L53.5535 154.003L53.0732 154.146L52.6193 154.28C50.974 154.759 49.5329 155.121 48.1337 155.393L47.9431 155.43L47.4254 155.527L47.1692 155.573C45.6276 155.848 44.5482 155.922 43.5276 155.727L43.4349 155.709L43.3215 155.683L43.2201 155.658C42.0287 155.34 41.5884 154.477 42.1368 153.273C42.5904 152.277 43.5743 151.571 45.0205 150.952L45.2302 150.864L45.2823 150.842L45.3373 150.831C45.6816 150.756 46.0112 150.625 46.3251 150.435C46.9578 150.051 47.2224 149.257 46.9357 148.601C46.6401 147.929 45.8312 147.487 45.2681 147.714L44.8431 147.883L44.3782 148.066L44.0916 147.657C44.0756 147.634 44.0605 147.61 44.0458 147.584L44.024 147.544L44.01 147.515L43.975 147.484L43.9401 147.449C43.8527 147.354 43.8059 147.251 43.7824 147.146C43.7736 147.106 43.7689 147.069 43.7668 147.033L43.7654 146.997C43.7642 146.922 43.7697 146.862 43.7929 146.652C43.8953 145.739 44.4922 145.002 45.5259 144.155L45.6927 144.02L45.7425 143.981C47.7205 142.413 50.2292 141.606 52.3608 142.101C52.4651 142.125 52.5674 142.151 52.6717 142.182L52.7769 142.214L52.9013 142.255C53.5568 142.483 54.069 142.203 54.3076 141.579C54.5479 140.951 54.3864 140.257 53.8777 139.883L53.832 139.851L53.6766 139.747L53.4953 139.623L53.2947 139.481L53.2026 139.414L53.0698 139.315C52.0488 138.543 51.4881 137.822 51.6521 136.97L51.6635 136.915L51.6781 136.851L51.7054 136.791L51.7915 136.607L51.8807 136.424L51.9058 136.374L51.9393 136.329C52.2906 135.855 52.8791 135.496 53.7221 135.147L53.8205 135.107C54.1725 134.965 55.1561 134.62 55.3031 134.563L55.3141 134.559C58.2269 133.377 61.391 132.695 64.5734 132.556C67.6974 132.42 70.8273 132.758 73.7915 133.561Z" fill="white"/>
<path d="M128.345 166.131L128.307 166.419L128.271 166.706C127.236 174.949 126.363 185.322 125.603 193.592C124.086 210.079 123.156 226.635 123.285 243.196C123.319 247.478 123.474 251.748 123.671 256.024L123.714 256.94C123.936 261.6 124.276 266.525 125.573 271.02C125.717 271.517 126.036 271.802 126.403 271.906C126.419 272.43 126.449 272.955 126.484 273.476L126.511 273.865C126.661 275.968 127.09 280.337 128.007 282.243C128.901 284.103 130.39 285.578 132.289 286.39C132.822 286.617 133.363 286.779 133.912 286.893C122.379 287.129 107.231 286.757 95.6769 286.478C96.8779 286.289 97.5587 285.339 97.7175 284.128C98.0344 281.697 97.4386 279.185 96.0907 277.141C95.9513 276.93 95.7865 276.741 95.6027 276.581L95.6348 275.236C95.6574 274.227 95.6682 273.218 95.6111 272.21C95.4886 269.987 95.3048 267.763 95.1442 265.542C94.8189 261.093 94.5675 256.636 94.4682 252.176C94.2654 243.257 94.4133 234.33 94.9182 225.423C95.9302 207.63 98.2858 187.837 102.141 170.432C102.422 169.164 102.706 167.896 102.999 166.63C105.997 168.188 111.334 168.748 114.61 168.769C118.717 168.794 124.635 167.849 128.345 166.131Z" fill="#E86BBB"/>
<path fill-rule="evenodd" clip-rule="evenodd" d="M162.916 279.768C161.487 268.293 160.494 254.441 160.482 242.87C160.481 241.78 162.171 241.782 162.172 242.87C162.184 254.441 163.177 268.293 164.606 279.768C164.74 280.847 163.049 280.834 162.916 279.768M152.331 208.618C150.124 209.969 147.225 209.032 145.04 208.138C144.045 207.731 144.483 206.096 145.489 206.507C147.152 207.188 149.582 208.19 151.337 207.241C153.089 206.293 153.168 203.687 153.181 201.966C153.189 200.877 154.879 200.878 154.871 201.966C154.853 204.307 154.54 207.267 152.331 208.618M148.245 261.13C146.018 259.988 144.117 258.427 142.587 256.444C141.923 255.583 143.391 254.742 144.047 255.591C145.393 257.336 147.147 258.67 149.098 259.67C150.067 260.167 149.211 261.626 148.245 261.13M137.539 202.121C133.717 217.442 131.152 233.037 129.895 248.778C129.639 251.974 129.46 255.165 129.358 258.359C129.257 259.192 129.16 260.026 129.069 260.861C128.725 264.019 128.461 267.227 128.484 270.406C128.494 271.832 128.539 273.253 128.636 274.675C128.467 274.199 128.311 273.722 128.158 273.246C127.848 272.272 127.643 271.262 127.326 270.294C127.064 269.493 126.726 268.726 126.411 267.95V267.948C126.506 264.771 126.291 261.565 126.181 258.403C126.039 254.307 125.864 250.216 125.773 246.117C125.592 237.921 125.682 229.719 125.978 221.527C126.572 205.02 128.072 188.592 129.585 172.153C130.005 167.582 130.457 163.012 130.77 158.432C131.085 153.804 131.211 149.167 131.247 144.526C131.249 144.192 130.742 144.103 130.649 144.426C130.567 143.325 130.421 142.226 130.178 141.163C133.823 143.488 137.665 145.498 141.432 147.611C143.416 148.725 145.392 149.858 147.437 150.856C148.561 151.405 149.695 151.91 150.853 152.388C152.053 152.882 153.2 153.563 154.52 153.218C154.635 153.189 154.742 153.147 154.846 153.092C154.696 153.377 154.546 153.66 154.402 153.948C153.904 154.939 153.428 155.934 152.968 156.938C152.845 157.029 152.737 157.154 152.653 157.317C152.429 157.754 152.211 158.196 152 158.644C151.958 158.604 151.916 158.564 151.873 158.523C151.696 158.356 151.451 158.608 151.607 158.79C151.679 158.872 151.749 158.952 151.818 159.035C150.441 162 149.321 165.118 148.168 168.161C146.75 171.902 145.406 175.67 144.141 179.464C141.646 186.927 139.444 194.487 137.539 202.121M82.8986 257.722C75.8547 261.495 69.2725 266.005 62.9416 270.869C62.0786 271.532 61.2378 270.063 62.0885 269.409C68.4194 264.545 75.0018 260.035 82.0457 256.261C83.0053 255.748 83.858 257.208 82.8986 257.722M59.1078 213.525C58.7416 213.497 58.3859 213.285 58.2929 212.904C57.7223 210.567 57.2754 208.021 57.8061 205.637C58.0428 204.574 59.6718 205.026 59.4359 206.086C59.0173 207.966 59.3499 209.998 59.7844 211.873C65.9279 212.142 71.989 209.936 77.8666 208.455C78.9236 208.189 79.37 209.82 78.316 210.086C72.0811 211.656 65.6319 214.008 59.1078 213.525M181.411 275.865C181.417 275.85 181.423 275.833 181.427 275.819C181.789 274.724 181.797 273.451 181.837 272.304C181.907 270.262 181.833 268.216 181.649 266.181C181.261 261.897 180.424 257.683 179.425 253.504C177.445 245.228 174.648 237.175 173.129 228.787C170.148 212.32 170.856 195.176 165.006 179.293C162.574 172.69 159.101 166.343 154.381 161.098C154.725 160.049 155.061 158.999 155.389 157.944C155.961 156.11 156.546 154.216 156.899 152.327C156.908 152.276 156.918 152.223 156.925 152.17C158.934 151.304 160.761 149.67 161.074 147.497C161.209 146.559 161.053 145.519 160.647 144.612C161.475 143.847 162.008 142.854 161.881 141.522C161.644 139.016 158.718 138.371 156.682 137.881C154.366 137.325 151.964 137.171 149.596 137.433C148.4 137.564 147.217 137.784 146.061 138.113C145.058 138.399 143.966 138.692 143.161 139.381C143.066 139.462 143.144 139.618 143.258 139.618C144.887 139.612 146.509 139.014 148.155 138.935C149.879 138.855 151.599 138.997 153.289 139.352C154.941 139.698 156.589 140.206 158.091 140.99C158.513 141.212 159.132 141.362 158.636 141.81C158.273 142.137 157.558 142.165 157.092 142.213C156.058 142.321 155.167 142.926 155.036 144.029C154.92 145.003 155.501 146.107 156.536 146.326C156.593 146.339 156.646 146.354 156.692 146.373C156.72 146.426 156.762 146.47 156.758 146.398C156.758 146.398 156.76 146.396 156.76 146.398C156.785 146.552 156.794 146.614 156.794 146.624C156.787 146.612 156.777 146.559 156.768 146.517C156.775 146.555 156.787 146.616 156.804 146.707C156.781 146.607 156.8 146.851 156.781 146.889C156.232 147.903 154.607 148.189 153.661 148.626C153.477 148.71 153.318 148.81 153.183 148.922C152.959 148.844 152.731 148.765 152.501 148.679C151.366 148.254 150.234 147.842 149.085 147.459C146.866 146.717 144.62 146.056 142.402 145.312C138.202 143.904 134.142 142.127 130.02 140.516C129.889 140.03 129.737 139.555 129.557 139.092C129.521 138.995 129.348 138.963 129.329 139.092C129.265 139.502 129.215 139.914 129.173 140.328C129.156 140.366 129.151 140.409 129.16 140.449C128.921 142.858 128.985 145.325 128.862 147.732C128.71 150.733 128.285 153.713 128.165 156.716V156.771C127.721 159.335 127.32 161.907 126.956 164.488C126.549 164.361 126.082 164.386 125.604 164.642C122.228 166.445 118.434 167.449 114.616 167.673C112.694 167.785 110.79 167.722 108.878 167.499C107.621 167.356 106.383 167.094 105.143 166.844C105.796 164.107 106.497 161.383 107.289 158.686C107.942 156.469 108.669 154.263 109.567 152.13C110.473 149.976 111.601 147.92 112.651 145.832C113.135 144.866 112.565 143.389 111.308 143.49C110.936 143.52 110.564 143.543 110.19 143.56C106.552 143.733 102.768 143.328 99.1768 142.966C95.0887 142.552 90.9458 142.122 86.8937 141.448C86.5937 141.4 86.4711 141.808 86.7669 141.907C88.6894 142.554 90.5887 143.285 92.5599 143.769C94.588 144.27 96.6289 144.726 98.6866 145.084C100.658 145.424 102.637 145.709 104.623 145.95C105.918 146.109 107.228 146.189 108.532 146.295C106.776 149.101 105.566 152.267 104.511 155.385C103.157 159.388 102.162 163.507 101.188 167.618C99.1049 176.429 97.3873 185.329 96.0437 194.284C95.0803 200.705 94.3007 207.151 93.7155 213.614C93.5423 211.65 93.331 209.693 93.0923 207.738C92.2937 201.248 91.1275 194.8 89.5683 188.448C89.7078 188.203 89.7732 187.91 89.7268 187.624C89.4458 185.878 88.7063 184.359 88.0578 182.74C87.4134 180.478 86.7183 178.232 85.9704 176.002C85.1211 172.965 84.1683 169.974 82.9493 167.053C82.0176 164.828 80.9549 162.659 79.7718 160.557C78.3585 157.617 76.8056 154.74 75.1007 151.991C75.012 151.735 74.8683 151.496 74.6634 151.295C74.3528 150.805 74.038 150.321 73.7169 149.841C73.5078 149.528 72.9078 149.719 73.0662 150.116C73.1401 150.302 73.2141 150.488 73.2901 150.672C66.3458 148.934 59.5366 151.591 52.9218 153.552C51.2528 154.049 49.5669 154.497 47.8556 154.821C46.5099 155.074 44.9423 155.383 43.6007 155.104C42.7028 154.918 42.3056 154.51 42.743 153.55C43.1951 152.557 44.4289 151.904 45.5 151.464C45.9035 151.378 46.3007 151.223 46.6831 150.991C47.5747 150.45 47.9655 149.321 47.5451 148.36C47.1627 147.491 46.0472 146.743 45.0606 147.14C44.919 147.197 44.7796 147.252 44.6401 147.307C44.6254 147.286 44.6085 147.256 44.5937 147.214C44.4521 146.827 44.3909 147.29 44.4521 146.736C44.5535 145.832 45.5106 145.01 46.1655 144.492C47.7944 143.2 50.1479 142.245 52.25 142.733C52.4085 142.769 52.5669 142.814 52.7232 142.869C54.8887 143.619 55.943 140.499 54.2127 139.337C54.107 139.267 53.9739 139.178 53.8282 139.075C53.1078 138.574 52.0535 137.731 52.3409 136.97C52.6958 136.025 54.7894 135.482 55.5817 135.161C58.4465 133.998 61.5416 133.339 64.6303 133.204C67.738 133.068 70.8859 133.411 73.8838 134.25C75.3542 134.66 76.8648 135.283 78.2549 135.913C79.5035 136.477 82.2204 137.223 82.3937 138.804C82.4317 139.153 82.9282 139.271 83.0359 138.891C83.8873 135.856 80.5831 133.897 78.4028 132.644C76.9725 131.819 75.35 131.306 73.7803 130.801C72.2761 130.314 70.7402 129.957 69.1725 129.741C65.8071 129.281 62.4014 129.34 59.0634 129.987C56.0232 130.577 52.6409 131.583 50.1838 133.54C48.6754 134.74 47.993 136.651 48.5993 138.515C48.6204 138.576 48.6416 138.64 48.6627 138.701C45.9479 139.187 43.3789 140.742 41.6613 142.911C40.25 144.693 39.5106 147.172 40.7739 149.245C40.7211 149.283 40.6683 149.323 40.6176 149.366C39.4134 150.329 38.5176 151.729 38.2514 153.259C37.7296 156.277 39.5528 158.388 42.1028 159.195C41.4711 159.813 40.8648 160.468 40.2711 161.123C38.9423 162.592 37.6725 164.192 36.5528 165.823C34.2838 169.129 32.3444 172.728 30.6479 176.355C27.1599 183.803 24.9606 191.819 23.7944 199.948C23.207 204.044 22.8141 208.161 22.6641 212.295C22.4908 217.008 22.6662 221.723 22.5754 226.439C22.4866 230.97 21.9859 235.391 20.9739 239.809C20.0042 244.034 18.7113 248.174 17.5408 252.344C16.2204 257.04 14.7669 261.715 14.0697 266.557C13.7169 269.021 13.4634 271.492 13.6599 273.984C13.8585 276.522 14.7796 278.693 15.6289 281.054C15.8444 281.656 16.5014 281.899 17.0275 281.77C17.1458 282.901 17.5725 284.004 18.2085 284.959C19.5585 286.984 21.6373 288.276 24.0183 288.745C26.7014 289.271 29.4669 289.146 32.1838 289.049C35.131 288.943 38.0803 288.848 41.0275 288.726C44.113 288.598 47.1984 288.467 50.2839 288.336C50.1819 285.172 50.0602 282.009 49.9227 278.847C49.1788 261.752 48.0073 244.647 47.9763 227.53C47.9165 227.495 47.8578 227.453 47.8016 227.399C46.4125 226.055 44.7071 225.173 43.1049 224.122C42.1981 223.527 43.0457 222.064 43.958 222.662C45.3088 223.548 46.7165 224.336 47.9824 225.329C47.9898 223.547 48.0054 221.766 48.0407 219.983C48.0623 218.895 49.7524 218.895 49.7309 219.983C49.6248 225.354 49.6603 230.726 49.7818 236.096C50.1749 253.498 51.4108 270.868 51.9737 288.263C60.2554 287.909 68.5375 287.553 76.8204 287.25C83.5578 287.005 90.2951 286.76 97.0324 286.515C98.4458 286.464 99.2401 285.454 99.4134 284.133C99.7303 281.702 99.1345 279.19 97.7866 277.146C97.6472 276.934 97.4824 276.746 97.2986 276.586C97.3303 275.13 97.3894 273.671 97.3071 272.215C97.1845 269.992 97.0007 267.768 96.8402 265.547C96.5148 261.098 96.2634 256.641 96.1641 252.181C95.9613 243.262 96.1092 234.335 96.6141 225.428C97.6261 207.635 99.9817 189.955 103.837 172.551C104.118 171.283 104.401 170.014 104.695 168.749C107.693 170.306 111.339 170.866 114.616 170.887C118.723 170.913 122.739 169.968 126.449 168.25C126.424 168.442 126.399 168.632 126.375 168.825C125.34 177.067 124.468 185.327 123.707 193.597C122.19 210.084 121.261 226.639 121.389 243.201C121.425 247.789 121.601 252.363 121.818 256.945C122.04 261.605 122.38 266.53 123.677 271.025C123.821 271.522 124.14 271.807 124.508 271.911C124.527 272.566 124.569 273.223 124.615 273.87C124.765 275.973 125.194 280.341 126.111 282.248C127.005 284.108 128.494 285.583 130.394 286.395C132.806 287.424 135.415 287.128 137.963 286.963C149.042 286.24 160.113 285.272 171.185 284.423C172.727 284.304 174.27 284.188 175.81 284.068C177.181 283.962 178.599 283.869 179.816 283.157C181.199 282.347 182.279 278.372 181.801 276.727C181.715 276.427 181.584 276.131 181.411 275.865" fill="black"/>
<path fill-rule="evenodd" clip-rule="evenodd" d="M149.33 68.4448C149.26 65.9175 145.593 64.8681 144.533 67.3711C144.468 67.4381 144.396 67.5026 144.329 67.5603C144.661 67.2752 143.967 67.7469 143.855 67.8053C143.758 67.8551 143.659 67.9001 143.561 67.9466C142.879 61.544 140.566 54.6417 134.589 51.4279C126.252 47.3751 116.619 46.584 107.473 46.9866C102.84 47.2622 97.4897 48.0049 93.3734 45.6551C92.0908 44.923 91.0626 43.7705 89.6132 43.318C85.0377 42.0772 82.9624 46.7873 83.5856 50.6607C81.634 50.6762 79.698 51.7593 78.8558 53.5427C78.3612 54.5982 78.3699 55.7371 77.9434 56.7964C76.6348 59.4827 74.7625 61.4136 75.821 64.6705C73.9593 66.7944 75.0208 70.0096 76.5231 72.043C77.265 73.1006 78.1485 74.116 78.692 75.2997C79.2195 76.4332 78.4232 77.7774 77.9801 78.8519C74.7039 86.6399 74.8911 95.2167 76.654 103.34C73.1164 104.879 72.0547 109.689 74.3615 112.718C75.1553 113.789 76.1236 114.186 77.2217 114.845C78.6115 115.612 77.4764 118.683 77.9215 120.166C78.5261 123.788 81.8149 126.017 85.0668 123.666C87.1304 123.353 88.7948 129.372 90.2933 130.883C91.2165 132.1 92.2415 133.193 93.3559 134.202C96.6764 142.767 113.691 147.11 122.103 146.614C130.912 145.69 136.855 138.19 141.804 131.533C144.345 127.987 145.997 124.017 146.598 119.688C147.202 115.336 146.938 110.977 146.53 106.621C145.672 97.3645 144.32 84.0291 143.446 74.6729C146.603 74.4123 149.426 71.7182 149.33 68.4448V68.4448Z" fill="#FDC6A0"/>
<path fill-rule="evenodd" clip-rule="evenodd" d="M86.401 44.5499C87.0141 43.9436 88.0185 44.5657 88.6829 45.0529L88.8299 45.1623L89.251 45.4832C90.2057 46.2211 91.0992 47.023 92.1305 47.6612C93.256 48.3582 94.4784 48.9124 95.7199 49.3668C98.1275 50.2479 100.717 50.6434 103.27 50.7683C113.713 51.2793 125.868 45.7785 135.346 52.3473C137.593 53.9043 139.144 56.181 139.944 58.7848C140.846 61.7211 140.537 64.762 141.275 67.7084C141.596 68.9873 143.803 69.1648 144.05 67.7593L144.066 67.6504L144.259 67.529L144.336 67.4834C144.414 67.4381 144.45 67.4252 144.382 67.4888L144.367 67.5023L144.397 67.4763C144.42 67.4557 144.443 67.4345 144.466 67.4129L144.533 67.3469C145.004 66.2351 145.989 65.8242 146.944 65.9323L146.917 65.9984L146.633 66.7336L146.542 66.9643C146.207 67.8064 145.839 68.6035 145.203 69.3251C144.302 70.3461 143.181 71.1782 141.919 71.6905C141.66 71.7958 141.699 72.1485 141.985 72.1771C144.805 72.4584 147.981 70.7412 149.307 68.1385C149.319 68.2302 149.327 68.3243 149.33 68.4206C149.339 68.7376 149.321 69.0493 149.278 69.3538C149.121 69.4123 148.969 69.4991 148.828 69.6166C147.912 70.3794 147.463 71.6261 146.602 72.4772C145.699 73.3691 144.592 74.1961 143.389 74.6104C143.37 74.6169 143.355 74.6264 143.341 74.637C143.25 74.2921 143.154 73.9491 143.045 73.6113C143.002 73.4786 142.825 73.5118 142.812 73.643C142.788 73.8773 139.48 71.5184 136.933 71.8995C132.144 72.616 131.038 75.419 124.157 75.0051C120.799 74.8031 113.706 71.6493 107.502 71.4122C101.873 71.1971 91.8143 74.4175 89.1604 76.2732C87.7808 77.238 91.6767 80.4236 90.971 81.8719C88.9693 85.9802 89.7802 91.415 87.6872 94.6636L87.6064 94.786C86.266 96.7604 87.1027 102.014 86.5807 103.634C85.6381 106.558 84.0773 105.277 84.313 105.669C84.3876 105.793 84.5871 105.713 84.5478 105.57C83.9044 103.224 82.1434 101.453 79.9045 100.807C80.0015 100.251 79.8252 99.5528 79.4803 99.0967L79.339 98.4367L79.2089 97.8188C78.909 96.3776 78.6405 94.9377 78.496 93.457C78.2795 91.2366 78.2719 88.9996 78.4142 86.7737C78.6008 83.8489 79.2017 81.0311 79.8625 78.2151L79.9335 77.9134L80.453 75.7239C81.7517 76.0942 83.0841 76.3281 84.3792 76.4442C85.887 76.579 87.3798 76.5665 88.861 76.4471C90.1738 80.0221 90.1239 84.0929 88.5016 87.5844C86.6036 91.6688 81.9516 95.5701 83.2285 100.523C83.7854 102.682 87.043 102.241 87.1202 100.061L87.1216 99.9947C87.1337 97.8405 87.8642 96.0666 88.8292 94.2151L88.9622 93.9621L89.1826 93.5494C90.3379 91.3836 91.316 89.2464 91.6412 86.7826C92.1134 83.2034 91.3734 79.5075 89.6052 76.3782C95.9036 75.7197 101.999 73.22 108.149 71.8771L108.431 71.8166L108.715 71.7582C113.258 70.8397 118.265 70.7313 122.384 73.1291C122.462 73.1748 122.524 73.0604 122.453 73.0093C116.475 68.687 108.733 69.3005 101.878 70.8237L101.483 70.9125L101.096 71.0015C94.7551 72.4695 88.1125 74.6258 81.6313 72.7263C79.9467 72.2326 78.3117 71.4216 76.9928 70.2472L76.8825 70.1482C76.325 69.6436 75.6883 68.9905 75.581 68.2245C75.5432 67.9549 75.555 67.7701 75.7138 67.5567C75.8791 67.3343 76.1679 67.3354 76.0018 67.2551C77.943 68.1931 79.6072 65.4978 77.7839 64.33L77.655 64.2504C75.3221 62.7687 76.4876 59.3967 79.1639 59.4125L79.3007 59.4149C80.8164 59.4195 81.2809 57.6247 80.4657 56.5742L80.3875 56.4761C78.8789 54.5284 81.4181 52.1791 83.3938 53.2802L83.5019 53.3425C84.4397 53.8624 85.4257 53.2836 85.7805 52.3654C86.5417 50.3954 86.1522 48.3613 86.1072 46.3224L86.1048 46.1894L86.1015 45.9676L86.101 45.7924L86.1026 45.6763C86.1125 45.2466 86.168 44.7804 86.401 44.5499ZM143.412 74.9175L143.431 74.9217L143.472 74.9235L143.509 75.3203L143.462 75.1187L143.412 74.9175ZM78.6474 75.1811L78.6018 75.088L78.7494 75.1475L78.6783 75.2474L78.6474 75.1811ZM120.001 63.8442C119.844 63.7994 119.731 64.0443 119.887 64.1158C123.765 65.8941 126.706 68.7321 129.002 72.2883C129.22 72.625 129.548 72.7237 129.926 72.6649C130.111 72.6361 130.215 72.5459 130.314 72.4221L130.339 72.3905L130.415 72.2883C130.578 72.063 130.557 71.6883 130.415 71.4606C128.084 67.7297 124.184 65.0417 120.001 63.8442ZM129.232 62.6794C129.062 62.68 128.971 62.9416 129.101 63.0528C130.215 64.0031 131.302 65.0562 132.093 66.2994C132.477 66.9028 132.798 67.5461 133.03 68.2237C133.284 68.963 133.366 69.7294 133.727 70.4285C134.333 71.6003 135.957 70.9457 136.038 69.8008C136.162 68.0739 134.723 66.132 133.583 64.9552C132.426 63.7609 131.007 62.9373 129.37 62.6967L129.255 62.6809L129.232 62.6794ZM86.4863 61.3275C86.0109 61.2071 85.6221 61.8153 85.9959 62.1721C88.0489 64.1327 90.8235 65.0421 93.5861 65.4392L93.7265 65.459C96.3131 65.8145 100.075 66.0161 102.025 63.9071C102.438 63.4605 102.309 62.6045 101.646 62.4665C100.738 62.2774 99.8065 62.3471 98.8857 62.4608L98.623 62.4943L97.9699 62.5813C96.6801 62.7501 95.3855 62.853 94.0834 62.8148C91.4766 62.7379 88.9936 61.9639 86.4863 61.3275ZM131.664 55.0888C131.39 54.9829 131.101 55.3596 131.273 55.5982C132.06 56.6917 133.002 57.6481 133.808 58.7249C134.616 59.8051 135.291 60.9403 136.247 61.9013C136.761 62.417 137.634 61.8924 137.453 61.1977C136.767 58.5679 134.155 56.0543 131.664 55.0888ZM90.7352 56.2758C90.4481 56.1739 90.247 56.5725 90.4468 56.7726C93.0939 59.4221 97.8564 60.8099 101.363 59.2795C102.152 58.935 101.668 57.8279 100.959 57.7842C99.2039 57.6757 97.4419 57.8791 95.6963 57.6115C93.992 57.3501 92.3575 56.8517 90.7352 56.2758ZM95.1852 52.7243C94.8059 52.566 94.6474 53.1333 94.9261 53.34C96.4238 54.45 98.2621 54.9312 100.095 54.5316C100.692 54.4014 100.563 53.4366 99.9504 53.4613C98.2925 53.5277 96.7301 53.3691 95.1852 52.7243ZM107.473 46.9624C109.742 46.8625 112.042 46.8361 114.344 46.9147L113.322 47.0507L112.641 47.1398C110.03 47.4774 107.415 47.763 104.778 47.7515C102.996 47.7436 101.217 47.5997 99.4769 47.2476C102.142 47.4087 104.917 47.1144 107.473 46.9624Z" fill="#ECDCBF"/>
<path fill-rule="evenodd" clip-rule="evenodd" d="M80.521 62.8797C80.518 62.8928 80.5225 62.9028 80.5254 62.9167C80.526 62.9127 80.5267 62.9106 80.5277 62.9057C80.5252 62.8952 80.5233 62.8882 80.521 62.8797" fill="#4F66AF"/>
<path fill-rule="evenodd" clip-rule="evenodd" d="M80.5202 63.0143C80.5086 63.002 80.4921 62.9929 80.4757 62.9807C80.4753 62.9811 80.475 62.9815 80.4748 62.982C80.4902 62.9921 80.505 63.0037 80.5202 63.0143" fill="#4F66AF"/>
<path fill-rule="evenodd" clip-rule="evenodd" d="M148.829 69.6409C149.865 68.7773 151.499 69.5724 151.147 70.9941C150.765 72.5425 149.11 73.6005 147.743 74.2367C146.337 74.8912 144.967 75.0174 143.432 74.946L143.413 74.9417V74.9417C143.839 76.6543 144.081 78.4345 144.407 80.1574C144.82 82.3432 145.227 84.5301 145.628 86.718C146.016 88.8327 146.506 90.9502 146.804 93.0756C147.104 95.221 147.392 97.3679 147.688 99.5139C148.18 103.098 148.578 106.699 148.997 110.294L149.197 111.995C149.617 115.596 149.955 119.202 149.159 122.786C148.413 126.145 146.733 129.278 144.785 132.082C142.877 134.827 140.745 137.467 138.405 139.855C133.892 144.46 128.326 148.149 121.8 148.833C118.99 149.128 115.989 148.8 113.347 147.776L113.171 147.707C110.497 146.649 107.222 144.836 106.526 141.862C106.099 140.038 107.974 138.614 109.618 139.479C110.38 139.881 110.953 140.339 111.578 140.914L111.689 141.016C112.2 141.492 112.397 141.638 112.987 142.011C114.196 142.773 115.103 143.134 116.476 143.481C119.009 144.12 121.743 144.019 124.314 143.263C129.773 141.66 134.008 137.475 137.636 133.279C139.606 131 141.476 128.61 142.918 125.954C144.431 123.168 145.129 120.243 145.087 117.073C145.04 113.496 144.547 109.905 144.223 106.344C143.893 102.715 143.589 99.0866 143.32 95.452C143.068 92.0435 143.044 88.6197 142.956 85.2007L142.939 84.5596C142.887 82.7446 142.851 80.9289 142.81 79.1134C142.77 77.3031 142.627 75.4699 142.813 73.6673C142.826 73.536 143.002 73.5029 143.045 73.6356C143.155 73.9733 143.251 74.3163 143.342 74.6613C143.355 74.6507 143.371 74.6412 143.39 74.6346C144.593 74.2204 145.7 73.3934 146.602 72.5015C147.463 71.6504 147.913 70.4036 148.829 69.6409ZM83.036 44.2793C83.7913 41.1691 87.1906 40.4744 89.7043 41.9722C90.9133 42.6925 91.8814 43.7313 93.0108 44.5568C94.1336 45.3777 95.3745 46.0369 96.6839 46.5025C99.2853 47.4274 102.029 47.7637 104.779 47.7757C111.47 47.8051 118.025 45.9198 124.726 46.1301C129.912 46.2929 135.415 47.8292 139.177 51.587C141.203 53.6113 142.508 56.2139 143.209 58.9769C143.536 60.2682 143.78 61.5908 143.973 62.9104L144.02 63.2402C144.127 64.0114 144.3 64.8279 144.316 65.6073C144.331 66.3073 144.154 67.0399 144.058 67.7327C143.857 69.1931 141.6 69.0268 141.276 67.7327C140.538 64.7862 140.847 61.7453 139.944 58.809C139.144 56.2052 137.594 53.9285 135.347 52.3715C125.869 45.8028 113.714 51.3036 103.27 50.7925C100.718 50.6676 98.1281 50.2722 95.7205 49.3911C94.479 48.9367 93.2566 48.3825 92.131 47.6855C91.0997 47.0473 90.2063 46.2454 89.2516 45.5075L88.8304 45.1866C88.176 44.693 87.0618 43.9212 86.4015 44.5742C86.1142 44.8584 86.0968 45.5011 86.1021 45.9918L86.1053 46.2136C86.1353 48.2971 86.5588 50.3768 85.7811 52.3897C85.4263 53.3078 84.4403 53.8867 83.5025 53.3668L83.454 53.3389C81.4704 52.1558 78.8642 54.533 80.388 56.5004L80.4355 56.5599C81.2928 57.6044 80.8357 59.4438 79.3013 59.4392L79.246 59.4382C76.5121 59.3527 75.2991 62.778 77.6556 64.2746L77.7281 64.3194C79.6413 65.4672 77.9632 68.2268 76.0023 67.2793C76.1684 67.3596 75.8796 67.3586 75.7143 67.5809C75.5556 67.7944 75.5438 67.9791 75.5815 68.2488C75.696 69.0659 76.4128 69.7544 76.9934 70.2714C78.3123 71.4459 79.9472 72.2568 81.6319 72.7506C88.3803 74.7284 95.3037 72.309 101.879 70.848C108.734 69.3248 116.476 68.7112 122.454 73.0335C122.525 73.0847 122.463 73.199 122.384 73.1534C118.094 70.6556 112.839 70.8774 108.15 71.9013C102 73.2443 95.9041 75.7439 89.6058 76.4025C91.374 79.5317 92.114 83.2276 91.6417 86.8068C91.3165 89.2707 90.3384 91.4078 89.1832 93.5736L88.9627 93.9864C87.9327 95.9304 87.1348 97.7669 87.1221 100.019C87.1097 102.257 83.7916 102.728 83.2291 100.547C81.9521 95.5943 86.6041 91.693 88.5022 87.6087C90.1244 84.1172 90.1744 80.0464 88.8616 76.4714C87.3804 76.5908 85.8875 76.6033 84.3797 76.4684C83.0847 76.3524 81.7523 76.1184 80.4536 75.7481L79.9341 77.9377C79.2458 80.8542 78.608 83.7687 78.4148 86.7979C78.2724 89.0239 78.28 91.2608 78.4965 93.4813C78.6838 95.3991 79.0788 97.2486 79.4809 99.1209C79.8258 99.577 80.002 100.275 79.9051 100.831C82.144 101.477 83.905 103.249 84.5484 105.594C84.5876 105.737 84.3882 105.818 84.3135 105.694C82.787 103.155 78.856 102.22 76.3694 103.898C73.9947 105.499 73.058 108.733 74.4022 111.293C75.1092 112.639 76.1575 113.585 77.5092 114.236L77.781 114.364C78.4894 114.7 79.1396 115.066 79.5951 115.741C80.1861 116.617 80.206 117.542 80.1502 118.542L80.126 118.948C80.0887 119.618 80.0802 120.308 80.2795 120.953L80.3247 121.097C80.3773 121.258 80.4325 121.4 80.5285 121.553C80.5571 121.599 80.8261 121.863 80.9138 121.959L81.0243 121.993V121.993L81.1478 121.998V121.998C81.2849 122 81.465 121.94 81.4059 121.982L81.422 121.972C81.474 121.94 81.5218 121.906 81.5621 121.875L81.6386 121.815C81.8176 121.556 82.0419 121.341 82.3171 121.178L82.58 121.061V121.061C83.2628 120.338 84.4329 120.718 84.9224 121.438C85.2747 121.956 85.4642 122.482 85.4798 123.001C85.5348 122.913 85.6571 122.864 85.7349 122.964L86.1991 123.557C87.9749 125.831 89.7201 128.12 91.7381 130.194C92.8497 131.336 94.0455 132.41 95.2955 133.399C96.3627 134.243 98.387 135.056 98.418 136.594C98.4276 137.093 98.0741 137.446 97.6415 137.616C96.2335 138.167 94.4937 136.292 93.4767 135.379L93.3936 135.305C92.149 134.212 91.013 133.013 89.9648 131.73C87.9289 129.238 86.2265 126.37 85.4762 123.214C85.441 123.765 85.2053 124.305 84.7466 124.814C84.1358 125.491 83.2999 125.966 82.4071 126.162C80.3842 126.605 78.4093 125.876 77.2057 124.186C76.1884 122.757 75.8889 120.871 76.0201 119.145L76.0363 118.938C76.0547 118.661 76.0782 118.153 76.1497 117.937L75.5128 117.587V117.587C74.7319 117.17 74.0082 116.624 73.3586 116.024C70.748 113.611 69.4382 109.69 70.6316 106.258C71.3781 104.112 72.9469 102.244 74.9556 101.274C74.6198 100.496 74.5076 99.5719 74.3809 98.7546L74.3596 98.6194C74.1448 97.2786 73.9649 95.9209 73.8964 94.564C73.7682 92.0299 73.924 89.4722 74.3212 86.9675C74.9663 82.8992 76.3019 78.5847 78.75 75.1718C76.8823 74.4282 75.1632 73.3518 73.8363 71.8572C72.4498 70.2953 71.5658 68.0592 72.638 66.0757C72.9112 65.5701 73.2673 65.1451 73.6765 64.8076C72.9669 63.4642 72.7373 61.8766 73.1752 60.3591C73.6985 58.5449 75.1192 57.1299 76.8355 56.4692C76.4187 54.7503 76.7594 52.9014 78.033 51.4688C79.2962 50.0477 81.2579 49.5301 83.0735 49.855C83.1719 48.0268 82.5979 46.0824 83.036 44.2793ZM77.9436 108.466C79.6082 107.65 81.5811 107.779 83.2438 108.553L83.3565 108.607C85.1719 109.49 87.5762 111.552 86.9992 113.744C86.6615 115.027 85.2401 115.465 84.1379 114.911C83.2173 114.449 83.0073 113.622 82.5454 112.791C82.2188 112.203 81.8151 111.744 81.341 111.272C80.3415 110.276 79.2188 109.537 77.9436 108.946C77.7597 108.86 77.7661 108.554 77.9436 108.466ZM119.888 64.14C119.732 64.0686 119.845 63.8236 120.002 63.8685C124.185 65.066 128.085 67.7539 130.415 71.4849C130.557 71.7125 130.579 72.0872 130.415 72.3125L130.34 72.4148C130.233 72.5547 130.127 72.6579 129.926 72.6892C129.549 72.7479 129.22 72.6492 129.003 72.3125C126.707 68.7563 123.766 65.9183 119.888 64.14ZM147.89 64.8442C148.244 64.2425 149.184 64.3636 149.371 65.0382L149.398 65.0969C149.499 65.3269 149.453 65.374 149.265 65.2439C149.731 65.629 149.942 66.2026 149.8 66.8193C149.03 70.1502 145.266 72.5287 141.986 72.2013C141.699 72.1728 141.66 71.82 141.92 71.7148C143.182 71.2025 144.302 70.3704 145.203 69.3494C146.079 68.3569 146.447 67.2213 146.918 66.0227C147.095 65.5727 147.369 65.2487 147.757 65.0718C147.808 65.0008 147.853 64.9252 147.89 64.8442ZM129.233 62.7037L129.256 62.7051C130.941 62.9234 132.4 63.7574 133.583 64.9795C134.723 66.1563 136.162 68.0981 136.039 69.8251C135.957 70.97 134.334 71.6245 133.728 70.4528C133.366 69.7536 133.284 68.9873 133.031 68.248C132.799 67.5704 132.478 66.927 132.094 66.3236C131.303 65.0805 130.215 64.0273 129.102 63.0771C128.972 62.9659 129.062 62.7043 129.233 62.7037V62.7037ZM85.9965 62.1963C85.6227 61.8396 86.0114 61.2313 86.4868 61.3518C88.9941 61.9882 91.4772 62.7621 94.084 62.839C95.386 62.8773 96.6807 62.7744 97.9705 62.6055L98.6235 62.5186C99.6293 62.387 100.652 62.2836 101.647 62.4907C102.309 62.6288 102.439 63.4847 102.026 63.9313C100.076 66.0404 96.3137 65.8387 93.7271 65.4833C90.9183 65.0969 88.0842 64.1902 85.9965 62.1963ZM131.274 55.6224C131.102 55.3838 131.391 55.0072 131.664 55.1131C134.156 56.0785 136.767 58.5921 137.454 61.2219C137.635 61.9167 136.761 62.4412 136.248 61.9255C135.292 60.9645 134.617 59.8294 133.808 58.7491C133.003 57.6723 132.06 56.716 131.274 55.6224ZM90.4474 56.7969C90.2475 56.5968 90.4487 56.1981 90.7358 56.3C92.3581 56.8759 93.9926 57.3743 95.6969 57.6358C97.4425 57.9033 99.2045 57.7 100.959 57.8084C101.669 57.8522 102.152 58.9592 101.363 59.3037C97.8569 60.8341 93.0945 59.4464 90.4474 56.7969ZM94.9267 53.3642C94.648 53.1575 94.8065 52.5903 95.1858 52.7486C96.7307 53.3934 98.2931 53.5519 99.951 53.4856C100.563 53.4608 100.692 54.4256 100.095 54.5558C98.2627 54.9555 96.4243 54.4742 94.9267 53.3642Z" fill="black"/>
<path fill-rule="evenodd" clip-rule="evenodd" d="M119.18 129.49C119.18 129.49 122.174 131.801 127.756 131.801C133.338 131.801 136.58 129.733 136.58 129.733C136.58 129.733 131.687 126.76 127.756 126.519C123.824 126.278 119.18 129.49 119.18 129.49Z" fill="#FF6C6C"/>
<path fill-rule="evenodd" clip-rule="evenodd" d="M112.525 123.612C112.547 121.284 114.564 120.882 116.48 121.193C119.724 121.718 122.98 122.087 126.268 122.154L126.835 122.164C126.926 122.03 127.079 121.929 127.286 121.907C129.109 121.71 130.97 121.742 132.803 121.688C134.402 121.641 136.044 121.481 137.643 121.607L137.77 121.618C139.724 121.807 141.785 122.805 141.549 125.098C141.332 127.222 139.303 129.102 137.682 130.282C137.355 130.519 137.02 130.741 136.675 130.943C136.567 131.081 136.409 131.177 136.227 131.197C134.631 132.059 132.87 132.569 131.047 132.739C127.182 133.099 122.69 132.709 118.978 131.034C117.771 130.489 116.646 129.809 115.651 128.974C114.116 127.685 112.508 125.731 112.525 123.612ZM127.963 127.807C126.413 127.76 124.867 127.977 123.391 128.455C122.391 128.778 121.48 129.399 120.522 129.83C123.751 131.062 127.502 131.331 130.815 131.107C132.268 131.008 133.677 130.673 134.99 130.096C134.785 129.949 134.578 129.798 134.361 129.667C133.707 129.271 133.022 128.933 132.307 128.665C130.916 128.142 129.448 127.854 127.963 127.807ZM128.271 107.866C127.853 107.566 128.184 106.572 129.077 106.726C137.19 108.12 132.986 122.099 122.629 114.428C121.396 113.433 122.889 111.241 124.218 112.093L124.69 112.457C126.225 113.633 128.762 115.412 130.581 113.503C132.297 111.098 129.866 108.836 128.271 107.866ZM133.762 97.2865C135.487 95.8146 137.65 96.8994 138.919 98.3901L139.143 98.6567C139.397 98.9608 139.678 99.3151 139.847 99.6938C141.254 98.4954 143.162 97.6521 144.987 98.1995C146.758 98.7324 147.767 100.423 147.463 102.238C147.118 104.303 145.557 105.69 143.879 106.763L143.404 107.065C141.388 108.351 139.501 109.646 137.842 111.413C137.571 111.701 136.986 111.663 136.809 111.28L136.666 110.973L136.522 110.665C135.345 108.154 134.084 105.66 133.048 103.09C132.281 101.186 132.032 98.7617 133.762 97.2865ZM114.368 98.3159C115.631 96.8449 117.772 95.86 119.46 97.2866C121.257 98.8062 120.905 101.319 120.104 103.257C119.14 105.595 118.014 107.881 116.932 110.174L116.7 110.665C116.603 110.87 116.508 111.075 116.413 111.28C116.236 111.663 115.649 111.701 115.38 111.413C113.772 109.701 111.954 108.435 110.011 107.19L109.425 106.816C107.719 105.734 106.107 104.337 105.757 102.239C105.457 100.427 106.46 98.7259 108.233 98.1994C110.062 97.6565 111.966 98.4934 113.375 99.6939C113.543 99.3055 113.832 98.9398 114.105 98.6198L114.368 98.3159ZM116.417 88.0666C117.034 88.8681 116.375 90.1778 115.474 90.3849C114.358 90.6417 113.231 90.4855 112.135 90.804C111.131 91.0959 110.17 91.6807 109.309 92.2636C108.328 92.9281 107.424 93.6699 106.593 94.5151C106.1 95.0179 105.477 96.2091 104.715 96.2313C103.958 96.2535 104.975 93.884 105.059 93.679C105.656 92.2196 106.495 90.8767 107.544 89.7003C109.615 87.3791 114 84.9297 116.417 88.0666ZM139.541 87.4251L140.057 87.5688C141.337 87.9245 142.702 88.3616 143.799 89.1286L143.885 89.1896L144.018 89.2868C145.396 90.3142 147.344 92.3643 146.369 94.1528C146.301 94.276 146.158 94.2883 146.044 94.238C144.746 93.6692 143.783 92.5334 142.403 92.0583L142.148 91.9715C140.811 91.521 139.157 91.0472 137.717 91.0903C136.705 91.4194 135.339 91.1468 135.075 89.9145L135.063 89.8541L135.041 89.7265C134.889 88.8845 135.114 87.811 135.985 87.4052C137.177 86.8493 138.34 87.0967 139.541 87.4251Z" fill="black"/>
<path fill-rule="evenodd" clip-rule="evenodd" d="M109.449 129.598C111.16 125.59 114.893 122.644 119.191 121.566C122.347 120.777 125.66 120.803 128.877 121.116C130.563 121.279 132.371 121.412 133.96 122.038C135.317 122.573 136.422 123.585 137.254 124.772C138.243 126.179 138.916 127.789 139.389 129.439C139.456 129.674 139.519 129.91 139.578 130.148C139.372 131.393 138.936 132.453 137.783 133.235C136.658 134 135.316 134.313 133.978 134.424C133.847 134.361 133.72 134.296 133.604 134.229C131.518 133.035 130.051 130.213 127.419 130.595C125.07 130.936 123.524 133.893 122.127 135.626C117.644 136.149 113.164 134.801 109.516 132.236C109.33 131.359 109.32 130.473 109.449 129.598M142.625 126.557C142.266 125.551 141.815 124.575 141.279 123.657C139.509 120.619 136.792 118.198 133.566 116.814C125.934 113.546 116.06 115.85 109.897 121.211C107.792 123.044 105.663 125.737 105.019 128.634C104.827 128.672 104.646 128.772 104.496 128.913C100.044 126.108 95.4583 123.41 91.8702 119.523C89.2645 116.698 87.4522 113.355 86.3424 109.682C86.2516 109.38 85.7643 109.424 85.779 109.759C85.7833 109.837 85.7875 109.915 85.7917 109.993C85.7453 109.849 85.5258 109.923 85.509 110.063C84.9119 114.525 84.165 119.256 84.8528 123.741C85.2642 126.418 86.4795 128.377 88.1041 130.493C89.8448 132.761 91.8154 134.87 93.8303 136.893C95.1089 138.177 96.4444 139.658 98.01 140.6C99.8308 141.694 101.896 142.525 103.84 143.369C105.816 144.23 107.823 145.026 109.867 145.716C113.954 147.099 118.178 148.056 122.476 148.475C125.917 148.809 129.85 149.173 133.148 147.878C135.675 146.886 137.716 145.092 139.334 142.933C141.096 140.583 142.488 137.905 143.258 135.082C144.058 132.149 142.794 127.03 142.625 126.557" fill="black"/>
</g>
<defs>
<clipPath id="clip0_2016_14099">
<rect width="200" height="267" fill="white"/>
</clipPath>
</defs>
</svg>
