<svg width="200" height="267" viewBox="0 0 200 267" fill="none" xmlns="http://www.w3.org/2000/svg">
<g clip-path="url(#clip0_2016_14092)">
<rect width="200" height="267" fill="white"/>
<path fill-rule="evenodd" clip-rule="evenodd" d="M161.079 176.597C159.238 169.454 157.544 166.425 154.273 163.942C151.213 161.62 146.747 159.669 140.23 158.244C133.442 157.057 133.249 153.528 131.547 147.857C131.051 146.152 128.59 145.698 127.528 146.927C127.379 146.766 127.223 146.618 127.061 146.484C127.206 145.671 126.022 143.34 126.061 142.562C126.474 134.444 123.819 130.367 117.193 128.852C115.752 128.522 105.963 128.328 104.558 128.716C98.4152 130.415 92.3681 135.808 93.2935 142.305C91.3652 144.826 89.4781 146.364 86.5032 147.176C81.8705 147.765 84.1977 213.41 92.2437 252.739C95.6958 269.613 178.24 240.892 174.51 232.441C175.039 230.892 174.075 229.189 174.51 227.59C174.825 226.432 175.631 225.953 176.037 224.807C176.608 223.194 175.987 221.029 175.344 219.383C175.081 218.563 175.829 217.68 176.037 216.843C177.024 212.894 174.765 213.242 173.136 210.602C173.161 210.594 173.584 208.71 173.582 208.719C173.832 207.374 173.207 205.65 172.662 204.527C172.294 203.768 171.505 203.293 170.721 203.38C171.511 200.7 172.509 198.47 173.582 195.887C175.481 191.336 177.286 186.574 180.012 182.455C181.128 180.768 180.227 179.216 178.42 179.101C172.573 178.729 166.789 177.887 161.079 176.597Z" fill="#FDC6A0"/>
<path fill-rule="evenodd" clip-rule="evenodd" d="M151.951 177.149L138.604 199.744C138.604 199.744 141.77 200.061 143.051 200.676C144.333 201.292 150.217 208.774 150.217 208.774L151.152 212.894L148.936 216.216L149.8 218.301C149.8 218.301 150.417 216.888 151.951 215.791C153.486 214.695 156.87 212.894 156.87 212.894C156.87 212.894 155.745 212.292 155.745 211.586C155.745 210.879 154.755 207.865 156.87 206.726C158.985 205.588 169.916 202.923 169.916 202.923L180.994 179.549L151.951 177.149Z" fill="#EC7495"/>
<path fill-rule="evenodd" clip-rule="evenodd" d="M92.4071 147.33L134.79 154.77L154.273 163.942L157.454 166.393L138.603 199.744L109.497 205.056L102.081 224.323L103.595 246.04L150.945 240.393L171.37 237.966L176.172 257.354L175.304 265.33L174.043 269.375L123.408 283.049C123.408 283.049 97.6243 280.549 93.0537 280.549C88.4831 280.549 54.9722 283.878 54.9722 283.878L47.2187 283.049C47.2187 283.049 30.0641 264.964 27.4034 258.527C24.7427 252.091 18.9893 212.965 18.9893 212.965L19.6228 206.953L34.444 168.801C34.444 168.801 36.4231 167.003 38.9184 163.942C41.4136 160.881 92.4071 147.33 92.4071 147.33Z" fill="#9DDADB"/>
<path fill-rule="evenodd" clip-rule="evenodd" d="M169.117 202.441C165.286 202.636 161.452 203.547 157.987 205.197C156.569 205.873 155.285 206.85 154.909 208.456C154.719 209.276 154.765 210.124 154.866 210.952C154.943 211.58 154.962 212.381 155.507 212.806C155.6 212.877 155.699 212.932 155.802 212.973C154.524 213.55 153.307 214.243 152.225 214.957C151.237 215.61 150.221 216.616 149.764 217.751C149.726 217.622 149.688 217.502 149.65 217.388C148.873 215.088 147.675 213.205 145.788 211.939C145.574 211.158 143.275 207.797 141.139 207.924C138.8 208.061 136.919 208.232 134.804 209.308C134.033 209.291 133.264 209.301 132.504 209.335C132.373 209.339 132.379 209.517 132.504 209.532C133.121 209.61 133.738 209.697 134.355 209.798C135.821 210.033 137.283 210.331 138.713 210.701C140.429 211.145 142.203 211.59 143.807 212.366C146.916 213.873 148.841 217.813 148.446 221.241C148.381 221.803 148.163 223.502 147.383 223.327C146.724 223.179 146.462 221.803 146.232 221.293C145.615 219.941 144.504 219.057 143.171 218.459C141.605 217.755 139.93 217.28 138.307 216.726C137.388 216.411 136.469 216.096 135.548 215.784C134.606 215.46 133.71 215.014 132.707 215.24C132.1 215.378 132.031 216.101 132.371 216.515C132.888 217.147 133.657 217.333 134.403 217.593C135.388 217.935 136.37 218.278 137.352 218.62C138.871 219.148 140.462 219.594 141.943 220.241L141.897 220.347C141.776 220.313 141.635 220.433 141.658 220.581C141.88 221.949 142.188 223.53 141.846 224.899C141.576 225.985 140.623 227.188 139.385 226.869C139.579 226.691 139.651 226.385 139.52 226.102C139.03 225.053 132.607 220.915 132.035 222.452C132.016 222.507 132.075 222.547 132.121 222.539C132.609 222.437 133.427 223.27 133.818 223.534C134.382 223.914 134.954 224.286 135.512 224.677C136.123 225.104 136.719 225.552 137.3 226.015C137.756 226.379 138.1 226.757 138.624 226.941C138.35 227.072 138.132 227.315 138.039 227.625C137.802 228.435 137.346 229.122 136.554 229.479C135.724 229.851 134.788 229.616 133.913 229.708C132.721 229.828 131.682 230.394 130.814 231.204C128.99 232.907 128.076 235.909 125.526 236.714C124.002 237.194 122.312 236.891 120.77 236.673C119.048 236.43 117.371 236.238 115.636 236.492C113.976 236.735 112.406 237.31 110.889 238.011C109.467 238.669 107.895 239.413 106.634 240.393C106.374 239.592 106.112 238.8 105.914 237.982C105.445 236.048 105.191 234.078 105.13 232.091C105.073 230.2 105.179 228.3 105.341 226.417C105.421 225.476 105.548 224.54 105.629 223.599C105.649 223.363 105.692 223.109 105.724 222.856C107.976 221.526 110.342 220.507 112.727 219.459C112.733 219.457 112.74 219.453 112.746 219.451C112.82 219.417 112.892 219.385 112.966 219.353C112.964 219.349 112.962 219.345 112.957 219.341C113.23 219.174 113.42 218.952 113.534 218.702C116.971 216.422 119.845 213.309 121.987 209.678C122.885 208.156 123.749 206.577 124.924 205.244C126.174 203.821 127.659 202.976 129.498 202.536C131.646 202.021 133.86 201.712 136.062 201.536C137.264 201.442 138.607 201.293 139.917 201.3C140.83 201.306 141.723 201.384 142.543 201.61C143.758 201.944 144.468 202.868 145.231 203.802C145.959 204.698 146.684 205.597 147.364 206.531C148.009 207.416 148.617 208.331 149.145 209.291C149.462 209.866 149.756 210.458 150.003 211.068C150.09 211.284 150.204 211.529 150.257 211.753C150.309 211.979 150.212 212.218 150.466 212.218C149.42 212.233 148.725 214.842 149.764 214.78C151.226 214.695 151.961 212.942 151.674 211.387C151.163 208.613 148.404 205.262 147.859 204.552C146.652 202.984 145.408 200.938 143.477 200.209C143.45 200.199 143.42 200.188 143.393 200.18C143.955 199.647 144.398 199.009 144.823 198.36C145.26 197.692 145.782 196.927 145.926 196.134C146.017 195.629 145.389 195.342 145.091 195.783C144.658 196.428 144.449 197.244 144.126 197.952C143.796 198.671 143.395 199.349 143.078 200.074C142.315 199.839 141.491 199.732 140.652 199.696C141.711 198.263 143.519 195.498 143.737 195.143C144.738 193.499 145.691 191.804 146.602 190.107C147.586 188.268 148.429 186.353 149.371 184.493C149.906 183.439 150.445 182.375 151.038 181.352C151.243 181.002 151.463 180.651 151.712 180.332C151.761 180.268 151.822 180.216 151.879 180.156C151.945 180.12 152.012 180.08 152.05 180.059C152.392 179.863 152.513 179.406 152.754 179.116C153.138 178.65 153.59 178.595 154.169 178.588C155.403 178.575 156.641 178.624 157.873 178.658C159.683 178.708 161.492 178.78 163.3 178.875C163.848 178.905 164.393 178.935 164.94 178.968C167.57 179.125 170.198 179.33 172.82 179.582C175.14 179.803 177.459 180.165 179.781 180.338C176.638 187.809 173.152 195.145 169.205 202.226C169.165 202.297 169.135 202.369 169.117 202.441ZM151.674 221.689C151.167 221.921 150.675 222.211 150.217 222.541C150.293 222.027 150.312 221.486 150.29 220.943C150.669 221.348 151.152 221.581 151.674 221.689ZM173.319 208.837C173.283 208.841 173.249 208.86 173.232 208.896C172.531 210.343 172.824 211.96 173.969 213.095C174.569 213.687 175.877 214.355 175.835 215.327C175.799 216.113 174.943 216.773 174.578 217.422C174.238 218.026 174.111 218.69 174.383 219.345C174.732 220.184 175.706 220.518 176.04 221.342C176.462 222.388 175.776 223.65 175.294 224.561C174.846 225.404 174.267 226.247 173.883 227.139C171.307 228.473 165.464 230.895 164.76 231.031C163.902 231.197 163.043 231.356 162.18 231.504C160.526 231.791 158.868 232.058 157.205 232.292C156.259 232.425 155.31 232.556 154.362 232.66C153.533 232.749 152.6 232.869 151.932 232.246C150.586 230.986 151.34 228.875 152.192 227.602C152.209 227.577 152.209 227.554 152.202 227.533C153.005 227.344 153.806 227.125 154.605 226.97C156.14 226.674 157.687 226.425 159.236 226.203C162.417 225.749 165.62 225.449 168.818 225.147C169.611 225.07 169.619 223.824 168.818 223.897C164.223 224.318 159.605 224.717 155.071 225.603C153.935 225.823 152.806 226.072 151.685 226.353C151.155 226.484 150.586 226.689 150.031 226.696C149.997 226.696 149.963 226.696 149.929 226.693C148.841 226.66 148.683 225.728 149.281 224.952C149.355 224.857 149.431 224.762 149.509 224.671C150.565 223.411 151.881 222.57 153.237 221.699C154.757 221.492 156.271 221.031 157.759 220.693C161.431 219.856 165.102 219.019 168.776 218.184C169.497 218.02 169.19 216.912 168.47 217.075C165.681 217.707 162.893 218.339 160.104 218.971L156.022 219.897C155.207 220.08 154.188 220.45 153.229 220.584C152.756 220.649 152.298 220.657 151.883 220.56C150.546 220.243 150.479 218.571 151.055 217.578C151.702 216.462 152.923 215.765 154.007 215.133C155.885 214.036 157.883 213.247 159.836 212.339C160.182 212.262 160.529 212.186 160.875 212.11C162.89 211.666 165.193 211.449 167.09 210.635C167.659 210.394 167.348 209.498 166.786 209.511C165.314 209.543 163.774 210.067 162.335 210.377C160.778 210.715 159.219 211.051 157.662 211.387C157.505 211.421 156.58 211.717 156.44 211.652C156.352 211.609 156.32 211.301 156.29 211.098C156.195 210.43 156.126 209.729 156.229 209.058C156.457 207.556 157.71 206.85 158.978 206.273C161.8 204.99 164.895 204.187 167.976 203.865C168.686 203.792 169.395 203.745 170.11 203.722C170.948 203.696 171.639 203.548 172.064 204.375C172.731 205.677 173.099 207.351 173.319 208.837ZM169.399 256.04C168.784 253.913 168.951 251.641 168.53 249.47C168.312 248.351 168.016 247.24 167.692 246.147C167.43 245.264 166.994 244.324 166.944 243.403C166.941 243.341 167.014 243.306 167.064 243.334C167.931 243.831 168.598 244.906 169.092 245.749C169.685 246.758 170.137 247.815 170.502 248.926C171.229 251.14 171.826 253.81 170.888 256.04C170.609 256.705 169.629 256.837 169.399 256.04ZM145.397 272.149C144.481 271.509 143.813 270.615 143.036 269.825C142.271 269.049 143.466 267.853 144.231 268.63C144.894 269.303 145.47 270.144 146.25 270.689C146.626 270.951 146.799 271.424 146.553 271.845C146.336 272.217 145.772 272.41 145.397 272.149ZM140.286 247.559C141.959 246.835 143.604 246.047 145.355 245.526C146.402 245.214 146.845 246.846 145.805 247.156C144.192 247.636 142.68 248.352 141.139 249.019C140.15 249.446 139.29 247.989 140.286 247.559ZM122.618 247.052C122.209 246.043 123.844 245.607 124.248 246.603C124.712 247.749 125.244 248.866 125.708 250.011C126.117 251.021 124.481 251.457 124.078 250.461C123.614 249.315 123.082 248.199 122.618 247.052ZM105.179 267.219C104.906 267.583 104.452 267.78 104.022 267.523C103.663 267.307 103.443 266.734 103.719 266.366C104.525 265.292 105.341 264.231 106.285 263.273C107.051 262.497 108.245 263.693 107.48 264.469C106.637 265.324 105.898 266.26 105.179 267.219ZM102.685 154.064C103.461 154.594 104.141 155.238 104.803 155.901C105.574 156.671 104.378 157.867 103.608 157.096C103.05 156.538 102.486 155.971 101.832 155.524C101.454 155.266 101.284 154.786 101.529 154.367C101.748 153.993 102.308 153.807 102.685 154.064ZM128.056 181.273C127.618 182.151 127.223 183.013 127.198 184.011C127.171 185.099 125.481 185.1 125.508 184.011C125.54 182.704 126.022 181.571 126.597 180.419C127.083 179.444 128.541 180.302 128.056 181.273ZM137.365 159.421C138.274 158.815 139.119 160.28 138.219 160.881C137.489 161.367 136.758 161.855 136.028 162.342C135.12 162.947 134.274 161.482 135.175 160.881C135.905 160.395 136.635 159.908 137.365 159.421ZM96.9889 197.627C96.8339 198.702 95.2054 198.242 95.359 197.178C95.5967 195.533 95.8867 193.91 96.3327 192.308C96.6247 191.26 98.2546 191.708 97.9625 192.758C97.5165 194.36 97.2264 195.983 96.9889 197.627ZM91.0631 216.995C89.9753 216.972 89.9751 215.281 91.0631 215.304C92.0476 215.325 93.0154 215.584 93.9651 215.822C95.0214 216.086 94.571 217.716 93.5157 217.452C92.7129 217.251 91.8955 217.013 91.0631 216.995ZM88.8756 256.01C88.5019 256.192 88.1184 256.356 87.7407 256.529C86.9841 256.875 86.228 257.222 85.4721 257.569C83.8973 258.292 82.3234 259.018 80.7509 259.746C77.603 261.203 74.4308 262.61 71.2753 264.052C68.0575 265.522 64.8482 267.012 61.6428 268.51C60.1327 269.215 58.6111 269.895 57.0925 270.581C55.7941 271.169 54.1891 272.195 52.7636 272.292C52.6903 272.297 52.6658 272.204 52.7077 272.156C53.2462 271.544 54.1052 271.187 54.8129 270.789C55.5359 270.382 56.2724 269.999 57.0055 269.611C58.5338 268.801 60.064 267.997 61.6071 267.216C64.6937 265.653 67.7863 264.102 70.8794 262.553C74.0341 260.972 77.1847 259.382 80.367 257.857C81.8653 257.14 83.3651 256.424 84.8658 255.711C85.6787 255.325 86.4921 254.939 87.3055 254.554C87.6568 254.388 88.0046 254.208 88.3637 254.059C88.841 253.862 89.2037 253.902 89.696 253.78C90.4988 253.582 90.8463 254.603 90.2301 255.048C89.7226 255.414 89.4555 255.727 88.8756 256.01ZM77.5925 273.348C77.419 272.926 77.7822 272.413 78.1827 272.308C78.6625 272.181 79.0472 272.473 79.2224 272.898C79.6857 274.026 80.3457 275.06 81.1952 275.934C81.9545 276.715 80.76 277.911 80.0001 277.13C78.9355 276.034 78.1707 274.754 77.5925 273.348ZM69.2915 246.208C68.521 245.437 69.7164 244.242 70.4867 245.013L72.6771 247.204C73.4476 247.975 72.252 249.17 71.482 248.399L69.2915 246.208ZM46.819 242.636C45.2442 243.098 43.4074 243.522 42.3338 244.866C42.2814 244.932 42.1933 244.848 42.2248 244.782C43.5993 241.932 47.5411 240.932 50.2703 239.933C52.2006 239.227 54.1813 238.641 56.1786 238.117C55.9789 235.838 56.5295 233.395 56.7209 231.127C56.9252 228.705 57.0915 226.277 57.1768 223.848C57.2641 221.37 57.2852 218.875 57.2036 216.396C57.1225 213.927 56.802 211.487 56.6617 209.026C56.6482 208.788 56.9795 208.776 57.0509 208.973C57.8803 211.257 58.2346 213.787 58.5046 216.196C58.7827 218.677 58.875 221.151 58.8395 223.646C58.8027 226.212 58.6536 228.771 58.4489 231.329C58.3519 232.541 58.2393 233.752 58.133 234.963C58.0519 235.888 58.0143 236.805 57.8258 237.7C59.0305 237.404 60.2379 237.124 61.4415 236.852C65.2794 235.986 69.1333 235.182 72.9551 234.245C74.8312 233.786 76.6804 233.235 78.548 232.746C80.3066 232.285 82.1628 231.727 83.9683 231.521C84.6127 231.448 84.6946 232.33 84.2681 232.629C82.8006 233.66 80.8517 234.377 79.1567 234.954C77.4556 235.533 75.6872 235.95 73.9437 236.379C70.3075 237.273 66.637 238.005 62.9719 238.767C59.3119 239.528 55.6449 240.283 52.0261 241.222C50.2834 241.674 48.5465 242.128 46.819 242.636ZM38.1893 197.402C37.2484 197.954 36.3989 196.493 37.3365 195.942C38.5633 195.221 39.8708 194.68 41.1889 194.152C42.2005 193.747 42.6357 195.383 41.6383 195.783C40.4537 196.257 39.2917 196.755 38.1893 197.402ZM34.782 260.218C33.8385 260.766 32.9884 259.304 33.9291 258.758C35.2504 257.992 36.6974 257.481 38.0666 256.811C39.0408 256.333 39.8964 257.792 38.9195 258.271C37.5505 258.941 36.1033 259.452 34.782 260.218ZM33.2495 224.561C34.1617 225.428 35.3793 225.836 36.5273 226.291C37.5283 226.688 37.0893 228.323 36.0779 227.922C34.6477 227.354 33.1908 226.836 32.0543 225.756C31.2638 225.005 32.461 223.811 33.2495 224.561ZM43.342 176.135C44.3448 176.529 43.9056 178.163 42.8926 177.766C41.7691 177.325 40.6088 176.989 39.4853 176.548C38.4826 176.155 38.9216 174.52 39.9346 174.918C41.0581 175.359 42.2184 175.694 43.342 176.135ZM61.1461 156.901C62.2117 156.721 62.6655 158.35 61.5955 158.531C60.2679 158.755 58.9605 159.018 57.7014 159.505C56.6846 159.899 56.2483 158.263 57.252 157.875C58.5114 157.387 59.8187 157.125 61.1461 156.901ZM67.0289 203.732C66.0517 203.252 66.9091 201.794 67.8817 202.272C68.9068 202.776 69.9689 203.166 71.0873 203.404C72.1523 203.631 71.6987 205.261 70.6379 205.035C69.3792 204.766 68.1815 204.299 67.0289 203.732ZM72.585 177.352C73.6371 177.064 74.082 178.696 73.0344 178.983C71.191 179.488 69.2932 179.751 67.4364 180.2C66.3782 180.457 65.9305 178.826 66.987 178.57C68.8439 178.12 70.7419 177.858 72.585 177.352ZM96.1553 169.074C97.2251 169.272 96.7692 170.902 95.7061 170.705C94.5744 170.495 93.4274 170.492 92.28 170.491C91.1907 170.491 91.1926 168.8 92.28 168.801C93.5835 168.801 94.8703 168.837 96.1553 169.074ZM173.027 177.908C170.266 177.643 167.5 177.432 164.731 177.274C164.602 177.267 164.475 177.259 164.346 177.252C164.331 177.223 164.312 177.195 164.293 177.166C163.389 175.838 162.724 174.511 162.147 173.01C161.595 171.582 161.061 170.109 160.212 168.82C159.243 167.351 157.935 166.201 156.502 165.205C155.633 165.79 154.826 166.475 154.088 167.201C153.311 167.964 152.115 166.769 152.892 166.005C153.548 165.36 154.249 164.764 154.989 164.226C154.134 163.706 153.262 163.218 152.412 162.733C149.223 160.913 145.959 159.23 142.628 157.692C141.079 156.975 139.512 156.339 137.933 155.695C137.084 155.348 136.245 154.902 135.396 154.501C135.457 153.9 135.278 153.228 134.817 152.833C134.477 152.543 134.213 152.436 133.807 152.231C133.717 152.199 133.662 152.18 133.636 152.169C133.655 152.173 133.71 152.19 133.801 152.22C134.017 152.319 134.033 152.29 133.852 152.133C133.841 151.791 133.167 151.068 133.013 150.715C132.476 149.504 132.31 148.223 131.517 147.12C130.425 145.6 128.591 145.026 126.882 145.541C126.705 143.713 126.658 141.805 125.969 140.173C125.95 140.129 125.889 140.11 125.862 140.158C125.143 141.382 125.082 142.745 125.027 144.157C124.974 145.482 125.025 146.837 125.198 148.154C125.088 148.238 124.976 148.319 124.86 148.397C124.315 148.756 123.728 149.033 123.111 149.238C121.936 149.627 120.705 149.796 119.473 149.855C116.293 150.007 113.017 149.686 109.89 149.141C106.727 148.589 101.879 147.76 99.0644 146.177C97.2072 145.134 95.494 143.859 93.7572 142.625C94.387 140.596 94.5475 138.415 93.9137 136.7C93.8377 136.495 93.5165 136.457 93.4553 136.7C93.0581 138.336 92.9419 139.981 92.4137 141.597C92.4053 141.621 92.3968 141.646 92.3884 141.669C92.2236 141.558 92.0588 141.447 91.894 141.338C91.5137 141.086 90.9961 141.274 90.7679 141.633C87.1191 147.384 81.3412 147.714 75.2736 148.741C68.6332 149.865 61.9595 151.079 55.575 153.279C49.4693 155.384 43.6341 158.449 39.0116 163.026C37.9652 164.063 36.9866 165.167 36.0629 166.32C36.9566 166.433 37.8429 166.608 38.7177 166.883C39.7536 167.209 39.3084 168.841 38.2684 168.514C37.144 168.16 36.0072 167.985 34.8587 167.898C31.7178 172.197 29.2688 177.071 27.151 181.868C23.089 191.066 20.445 200.862 19.2283 210.835C19.8963 210.434 20.5764 210.053 21.2734 209.698C22.2418 209.205 23.096 210.665 22.1265 211.158C21.0498 211.706 20.0041 212.31 18.9908 212.965C18.5482 217.33 18.3767 221.724 18.4806 226.11C18.7278 236.568 20.1391 247.332 23.3313 257.31C24.8968 262.207 26.9715 267.064 30.0623 271.202C31.4609 273.076 33.0496 274.767 34.9215 276.177C35.8278 276.862 36.787 277.473 37.7989 277.988C39.1024 278.656 40.801 278.876 41.925 279.821C42.2947 280.131 42.5799 280.541 42.7954 281.004C42.6708 281.883 42.656 282.765 42.8968 283.644C42.9729 283.919 43.1799 284.143 43.4355 284.25C43.4398 284.327 43.4398 284.401 43.4398 284.472C43.4398 284.506 43.4905 284.515 43.4968 284.481C43.5074 284.415 43.5179 284.35 43.5285 284.282C43.6109 284.31 43.6975 284.323 43.7863 284.323C46.9954 284.335 50.2086 284.256 53.422 284.147C53.1735 283.386 52.9043 282.631 52.646 281.869C52.2951 280.835 53.9279 280.395 54.2757 281.42C54.578 282.31 54.8941 283.193 55.1753 284.086C58.6183 283.958 62.0603 283.804 65.4961 283.691C72.8039 283.447 80.1095 283.367 87.4191 283.213C98.7708 282.972 110.205 282.479 121.574 282.961C121.967 282.127 122.407 281.311 122.825 280.488C123.317 279.516 124.775 280.372 124.284 281.341C123.994 281.913 123.694 282.478 123.408 283.049C125.711 283.169 128.011 283.327 130.306 283.543C134.223 283.91 138.102 284.563 142.015 284.969C145.993 285.383 149.885 285.31 153.831 284.652C154.541 284.534 154.959 284.105 155.133 283.572C155.139 283.57 155.143 283.566 155.147 283.559C155.35 283.323 155.54 283.126 155.737 282.955C155.971 282.803 156.225 282.674 156.523 282.56C157.079 282.348 157.657 282.219 158.245 282.133C158.891 282.036 159.546 282.027 160.193 281.947C160.737 281.877 161.27 281.773 161.802 281.647C162.76 281.419 163.668 281.121 164.572 280.725C165.36 280.381 166.072 279.886 166.744 279.347C168.134 278.331 169.338 277.033 170.39 275.684C171.003 274.896 171.58 274.078 172.104 273.227C173.017 271.751 173.794 270.219 174.58 268.674C174.865 268.216 175.125 267.747 175.363 267.269C173.827 266.816 172.277 266.447 170.648 266.421C169.56 266.403 169.56 264.712 170.648 264.73C172.516 264.76 174.282 265.196 176.037 265.716C176.123 265.489 176.205 265.26 176.281 265.028C176.49 264.544 176.663 264.047 176.807 263.544C176.891 263.316 176.976 263.088 177.06 262.86C177.25 262.069 177.44 261.277 177.633 260.484C178.015 259.216 178.317 257.929 178.539 256.625C178.725 255.767 178.869 254.902 178.966 254.027C179.262 251.908 179.502 249.792 179.519 247.649C179.494 246.328 179.41 245.009 179.266 243.697C179.205 242.805 179.101 241.917 178.962 241.036C178.78 239.725 178.6 238.428 178.298 237.134C178.072 236.259 177.846 235.384 177.62 234.509C177.056 232.685 176.39 230.897 175.623 229.149C175.581 229.04 175.368 228.798 175.239 228.796C175.142 228.794 175.006 228.883 175.051 229.002C175.055 229.012 175.059 229.025 175.064 229.035C175.019 228.936 174.977 228.834 174.933 228.735C174.895 228.642 174.747 228.456 174.633 228.458C174.626 228.458 174.62 228.458 174.612 228.46C174.641 228.439 174.669 228.412 174.696 228.38C175.455 227.482 175.947 226.3 176.49 225.26C176.94 224.402 177.364 223.498 177.487 222.528C177.594 221.676 177.449 220.837 176.914 220.148C176.306 219.364 175.161 218.996 175.797 217.863C176.519 216.574 177.582 215.456 176.524 213.991C175.985 213.245 175.131 212.835 174.498 212.186C173.769 211.436 173.422 210.432 173.441 209.407C173.486 209.432 173.545 209.42 173.566 209.356C174.179 207.505 173.735 205.472 173.107 203.669C172.765 202.691 172.04 202.422 171.198 202.374C174.848 195.241 178.264 187.993 181.309 180.579C181.41 180.336 181.51 180.093 181.609 179.85C181.757 179.486 181.444 179.002 181.083 178.922C178.45 178.345 175.708 178.161 173.027 177.908Z" fill="black"/>
<path fill-rule="evenodd" clip-rule="evenodd" d="M143.356 85.4321C141.448 77.3683 137.276 69.8641 130.598 63.7993C110.5 43.8804 73.5932 54.692 73.7604 84.7084C73.0396 88.2143 72.7469 91.8191 72.9856 95.3945C73.0843 96.92 73.7429 99.049 72.8581 100.422C70.8622 102.99 69.7023 104.884 70.3815 108.3C70.9491 111.284 72.9742 113.397 75.7073 114.521C77.3465 114.992 78.9017 116.019 79.5089 117.585C83.1573 124.281 85.8603 129.851 91.6121 134.415C93.0963 135.59 108.319 142.637 113.335 142.637C128.019 142.637 146.526 137.304 146.833 120.861C146.886 117.25 146.254 113.596 145.857 110.013C144.892 101.836 145.232 93.3636 143.356 85.4321Z" fill="#FDC6A0"/>
<path fill-rule="evenodd" clip-rule="evenodd" d="M143.026 81.3988C143.031 81.299 143.173 81.2766 143.201 81.3751C143.747 83.3163 144.056 85.294 144.483 87.2654C144.894 89.1644 145.282 91.0689 145.605 92.9846C146.215 96.6 146.728 100.225 147.206 103.859L147.325 104.768C148.155 111.163 149.526 117.825 148.327 124.257C147.304 129.746 143.874 134.169 139.453 137.412C135.267 140.483 130.192 142.454 125.153 143.574C119.744 144.777 113.334 145.136 108.933 141.16C107.172 139.568 109.573 136.409 111.484 137.846C115.972 141.218 121.68 140.224 126.744 138.882L126.897 138.841C131.342 137.655 135.816 135.856 139.344 132.821C143.245 129.466 145.174 124.809 145.396 119.702C145.521 116.833 145.255 113.967 144.967 111.115L144.935 110.798C144.604 107.536 144.258 104.275 143.938 101.012C143.646 98.0364 143.394 95.0434 143.261 92.0544L143.199 90.5469C143.07 87.5075 142.896 84.4236 143.026 81.3988ZM90.396 56.1441C97.6985 52.3328 106.091 50.9688 114.218 52.2479C122.03 53.4775 129.2 57.519 134.56 63.314C137.176 66.1433 139.499 69.4161 140.983 72.9915C141.72 74.7677 142.297 76.6206 142.605 78.5236C142.763 79.5019 142.918 80.5156 142.948 81.5074C142.975 82.4257 142.706 83.287 142.738 84.2205C142.743 84.3666 142.52 84.3947 142.486 84.2548C142.232 83.2139 141.62 82.4268 141.237 81.4381C140.95 80.6999 140.624 79.9791 140.293 79.2606L140.009 78.6449C139.183 76.8554 138.195 75.1394 137.219 73.4296C135.252 69.9859 132.728 66.8562 129.774 64.2154C124.585 59.5788 117.93 56.5858 110.983 56.0469C103.772 55.4872 96.459 57.2102 90.3014 61.0267C84.1441 64.8431 79.4883 70.7757 77.071 77.6063C75.8514 81.0532 75.1778 84.6447 75.0212 88.2964C74.9419 90.1449 75.0159 92.0088 75.1452 93.8537L75.2094 94.7334C75.2846 95.7884 75.3361 96.8394 75.1789 97.8689C76.2895 97.5216 77.4537 97.3777 78.622 97.5495C80.3582 97.8049 81.3954 98.5184 82.1742 100.073C82.2149 100.155 82.1333 100.236 82.0525 100.195C81.0429 99.6903 79.4095 99.9562 78.3402 100.221C77.2275 100.497 76.2252 100.976 75.2797 101.624C73.5305 102.822 72.1593 104.679 71.8228 106.809C71.4975 108.867 72.3402 110.95 73.7556 112.425C74.4842 113.185 75.3551 113.841 76.3302 114.25C77.5135 114.747 78.6849 114.732 79.7318 115.552C80.379 116.059 80.2226 116.927 79.7837 117.49C81.9924 119.918 83.9512 122.574 86.1598 125.012C87.1835 126.141 88.1991 127.273 89.18 128.439L89.5462 128.878C90.5257 130.063 92.0841 131.315 92.5316 132.805C92.8101 133.732 91.8197 134.945 90.8185 134.523C89.2827 133.874 88.1864 132.188 87.1487 130.894L87.0811 130.81C85.9928 129.47 85.0266 128.054 84.1433 126.571L83.8528 126.083C82.2555 123.39 80.6719 120.597 79.6534 117.638C79.5861 117.707 79.5149 117.77 79.4398 117.824C77.9725 118.87 75.8394 118.066 74.374 117.386C72.9906 116.745 71.7223 115.781 70.7337 114.618C68.5838 112.09 67.5927 108.816 68.3107 105.535C68.919 102.755 70.8406 100.052 73.3599 98.6456C72.197 97.3035 71.7155 95.4944 71.3951 93.7256C70.9861 91.4677 70.9045 89.1539 71.0156 86.8643C71.2372 82.304 72.4079 77.8088 74.2175 73.6329C77.4553 66.1611 83.1796 59.911 90.396 56.1441ZM75.0268 106.004C76.5595 105.716 77.9878 105.647 79.4661 106.297C81.0696 107.002 82.1981 108.167 83.2472 109.532C84.4408 111.085 81.3817 112.781 80.6103 110.72L80.5877 110.656C80.3811 110.046 80.0111 109.456 79.5424 108.913C79.4018 109.129 79.2138 109.319 78.9928 109.428C78.7253 109.56 78.3167 109.469 78.2524 109.126C78.1811 108.746 78.26 108.285 78.4788 107.963L78.5088 107.919V107.919C77.4454 107.062 76.1663 106.435 75.0268 106.233C74.913 106.213 74.9143 106.025 75.0268 106.004Z" fill="black"/>
<path fill-rule="evenodd" clip-rule="evenodd" d="M112.253 111.804C117.853 111.804 122.393 107.83 122.393 102.928C122.393 98.0251 117.853 94.0508 112.253 94.0508C106.652 94.0508 100.591 97.8639 100.591 102.766C100.591 104.847 102.229 108.481 103.598 109.995C105.455 112.048 109.028 111.804 112.253 111.804Z" fill="white"/>
<path fill-rule="evenodd" clip-rule="evenodd" d="M136.391 110.105C140.678 110.105 144.154 106.511 144.154 102.078C144.154 97.6448 140.678 94.0508 136.391 94.0508C132.104 94.0508 127.464 97.499 127.464 101.932C127.464 103.813 128.718 107.101 129.766 108.469C131.188 110.326 133.923 110.105 136.391 110.105Z" fill="white"/>
<path fill-rule="evenodd" clip-rule="evenodd" d="M112.111 117.319C112.156 117.278 112.226 117.263 112.279 117.297C113.193 117.875 113.302 119.82 113.312 120.943C113.69 121.041 114.064 121.153 114.417 121.232C115.167 121.398 115.921 121.542 116.674 121.695L117.238 121.811C119.124 122.209 121.045 122.503 122.967 122.651C124.832 122.793 126.751 122.846 128.611 122.605C129.409 122.502 130.203 122.329 130.975 122.099C131.887 121.827 132.614 121.376 133.462 120.981C135.586 119.991 137.366 122.891 135.322 124.164C133.567 125.256 131.173 125.65 129.148 125.819C127.077 125.992 125.015 125.802 122.969 125.474C120.758 125.12 118.592 124.576 116.495 123.787C115.608 123.453 114.75 123.048 113.912 122.606L113.684 122.485C113.545 122.41 113.4 122.334 113.254 122.257C113.097 123.658 112.644 125.01 112.098 126.311L112.085 126.288C111.786 127.314 110.706 127.949 109.631 127.495C108.37 126.964 108.274 125.569 109.008 124.578L109.043 124.532C109.906 123.422 110.447 122.044 110.917 120.731C111.158 120.058 111.381 119.368 111.574 118.68C111.714 118.182 111.719 117.681 112.111 117.319ZM144.611 106.165C143.863 108.425 142.233 110.166 139.962 110.931C137.711 111.689 135.208 111.413 132.907 111.003C132.404 110.913 131.893 110.814 131.384 110.698C131.801 110.957 132.169 111.32 132.521 111.705C133.042 112.273 133.515 112.872 133.658 113.583C133.8 114.289 133.576 114.826 133.167 115.231C132.539 115.854 131.525 116.19 130.667 116.376C128.744 116.791 126.817 116.727 124.904 116.3C124.415 116.192 124.084 115.93 123.898 115.588C123.672 115.172 123.654 114.656 123.783 114.186C123.913 113.716 124.193 113.282 124.599 113.043C124.934 112.845 125.352 112.791 125.827 112.949C126.779 113.266 127.726 113.476 128.732 113.501C129.158 113.51 129.587 113.498 130.012 113.459C130.253 113.437 130.493 113.406 130.731 113.368C130.591 113.181 130.454 112.99 130.321 112.797C130.163 112.569 130.01 112.339 129.863 112.104C129.439 111.425 129.086 110.727 128.776 109.99C128.677 109.754 128.584 109.517 128.496 109.279C128.483 109.245 128.47 109.211 128.458 109.176C128.43 109.154 128.403 109.131 128.376 109.107C127.77 108.582 127.261 107.936 126.902 107.135C125.928 104.965 126.086 102.272 126.677 100.019C127.151 98.2129 128.196 96.5427 129.577 95.408C129.818 95.011 129.978 94.7703 130.173 94.5675C130.966 93.7414 132.074 93.1842 133.155 92.8453C135.569 92.088 138.198 92.6313 140.244 94.0732C142.134 95.4045 143.613 97.4011 144.412 99.6218C145.169 101.725 145.317 104.032 144.611 106.165ZM111.729 92.43C114.6 92.4055 117.521 93.2535 119.851 94.9504C122.08 96.5742 123.829 98.9715 123.827 101.827C123.825 104.607 122.34 107.341 120.692 109.494C118.842 111.91 116.426 113.075 113.387 113.102C111.807 113.116 110.216 112.976 108.648 112.784L107.806 112.678C106.648 112.529 105.477 112.352 104.379 111.953C99.1511 110.056 98.9892 103.211 100.925 98.8356C102.42 95.4574 106.204 92.1629 109.977 92.5583C110.545 92.4786 111.129 92.4353 111.729 92.43ZM116.578 95.6491C112.983 94.0348 108.615 94.5182 105.127 96.2409C103.746 97.7487 102.736 99.6489 102.328 101.393C101.891 103.256 101.955 105.262 102.611 107.066C103.412 109.27 105.384 109.815 107.512 110.154L108.338 110.284L108.684 110.336C110.775 110.648 113.06 110.891 115.069 110.5C117.308 110.065 118.73 108.256 119.849 106.4L119.901 106.313C121.063 104.37 122.036 102.006 121.061 99.7785C120.233 97.8854 118.422 96.4772 116.578 95.6491ZM137.798 96.2116C136.564 95.5277 135.157 95.4034 133.825 95.8612C133.251 96.0581 132.756 96.3773 132.276 96.7351L132.084 96.8801C131.494 97.3336 130.942 97.5633 130.499 98.1758L130.442 98.2579C130.219 98.5918 129.827 98.7254 129.471 98.681C129.056 99.8259 128.885 101.064 128.881 102.283L128.882 102.444L128.884 102.609C128.91 104.05 129.162 105.812 130.295 106.778C131.328 107.658 132.893 107.87 134.29 107.992L135.367 108.082L135.653 108.104C137.126 108.206 138.74 108.171 139.974 107.299C141.049 106.54 141.556 105.25 141.687 103.977C141.998 100.97 140.477 97.6963 137.798 96.2116ZM110.942 96.4894C112.922 95.4783 115.3 95.7317 116.977 96.999C116.828 97.0281 116.681 97.0653 116.535 97.1387C116.155 97.3295 115.919 97.7117 115.829 98.1183C115.727 98.578 115.965 99.0132 116.419 99.1581C116.814 99.2841 117.281 99.3418 117.648 99.1019C117.84 98.9764 117.974 98.8109 118.062 98.6025L118.075 98.5719L118.09 98.5494L118.096 98.5388C118.097 98.5348 118.091 98.5425 118.08 98.5596C118.091 98.5336 118.101 98.5076 118.112 98.4812C118.127 98.4497 118.142 98.418 118.154 98.3852C118.175 98.3668 118.195 98.3463 118.214 98.3258C118.519 98.7948 118.758 99.3245 118.91 99.9137C119.885 103.696 115.888 107.621 112.316 108.014C110.967 108.162 109.736 107.84 108.715 107.207C108.724 107.194 108.735 107.183 108.743 107.17C109.153 107.244 109.643 107.06 109.792 106.602C110.172 105.435 109.782 104.069 108.51 103.687C107.692 103.442 106.855 103.713 106.27 104.273C105.827 103.189 105.669 101.97 105.878 100.749C106.174 99.0254 107.213 97.4726 108.83 96.7557C109.617 96.4064 110.296 96.333 110.942 96.4894ZM131.791 98.8229L131.852 98.7279C132.463 97.7861 133.633 96.6308 134.845 96.9484C135.015 96.993 135.182 97.0649 135.332 97.1581C135.998 97.0676 136.695 97.219 137.268 97.5713L137.252 97.6108C137.25 97.6174 137.248 97.6241 137.246 97.6311C137.194 97.8602 137.224 98.072 137.331 98.2825C137.447 98.5105 137.613 98.7267 137.836 98.8576C137.99 98.9472 138.171 98.9943 138.348 98.9907C138.607 98.9861 138.836 98.8717 139.024 98.6971C139.126 98.6025 139.197 98.4636 139.236 98.3207C139.329 98.4095 139.418 98.5084 139.504 98.6206C140.909 100.469 140.715 103.439 139.066 105.087C139 105.153 138.929 105.213 138.859 105.275C138.19 106.196 137.158 106.822 135.919 106.949C134.772 107.066 133.625 106.727 132.745 106.031C132.816 105.993 132.882 105.944 132.939 105.88C133.089 105.71 133.213 105.542 133.304 105.334C133.327 105.282 133.349 105.229 133.37 105.176L133.401 105.096C133.406 105.081 133.453 104.946 133.44 104.97L133.438 104.975L133.454 104.936C133.612 104.543 133.548 104.094 133.174 103.847L133.133 103.821C133.011 103.75 132.86 103.716 132.706 103.716C132.325 103.249 131.757 103.142 131.224 103.278L131.205 103.127C131.202 103.102 131.2 103.077 131.198 103.052C130.785 101.682 130.984 100.125 131.791 98.8229ZM113.454 85.0323L113.591 85.0109C114.628 84.861 115.333 85.0336 116.007 85.9202C116.329 86.3427 116.23 86.9807 116.007 87.4125C115.289 88.8076 113.315 88.5191 111.984 88.7962C110.686 89.0665 109.39 89.4345 108.175 89.9701C106.935 90.5166 105.771 91.1631 104.636 91.9014C103.61 92.5695 102.679 93.5736 101.506 93.9623C101.453 93.9798 101.39 93.9325 101.393 93.8765C101.476 92.5422 102.59 91.3174 103.453 90.3672C104.451 89.2684 105.665 88.2928 106.929 87.5171C108.233 86.717 109.643 86.0582 111.103 85.5987C111.872 85.3567 112.659 85.1644 113.454 85.0323ZM129.252 86.8439C130.557 84.934 133.803 85.3002 135.718 85.8106C138.12 86.4502 140.721 87.7439 142.405 89.6164C143.914 91.2939 141.657 93.4734 139.961 92.0618L139.508 91.6863L139.219 91.4483C137.917 90.3844 136.627 89.4216 135.04 88.7123C133.18 87.881 131.295 87.4761 129.329 87.0331C129.251 87.0158 129.206 86.9109 129.252 86.8439Z" fill="black"/>
<path fill-rule="evenodd" clip-rule="evenodd" d="M109.449 129.598C111.159 125.59 114.892 122.644 119.19 121.566C122.347 120.777 125.659 120.803 128.877 121.116C130.563 121.279 132.371 121.412 133.96 122.038C135.316 122.573 136.422 123.585 137.253 124.772C138.243 126.179 138.916 127.789 139.388 129.439C139.455 129.674 139.518 129.91 139.577 130.148C139.372 131.393 138.936 132.453 137.783 133.235C136.658 134 135.315 134.313 133.977 134.424C133.846 134.361 133.719 134.296 133.603 134.229C131.518 133.035 130.05 130.213 127.418 130.595C125.07 130.936 123.524 133.893 122.127 135.626C117.643 136.149 113.163 134.801 109.515 132.236C109.33 131.359 109.319 130.473 109.449 129.598M142.625 126.557C142.266 125.551 141.814 124.575 141.279 123.657C139.509 120.619 136.791 118.198 133.565 116.814C125.934 113.546 116.059 115.85 109.896 121.211C107.791 123.044 105.663 125.737 105.019 128.634C104.827 128.672 104.645 128.772 104.496 128.913C100.043 126.108 95.4578 123.41 91.8697 119.523C89.2641 116.698 87.4517 113.355 86.3419 109.682C86.2512 109.38 85.7638 109.424 85.7785 109.759C85.7828 109.837 85.787 109.915 85.7912 109.993C85.7448 109.849 85.5254 109.923 85.5085 110.063C84.9114 114.525 84.1645 119.256 84.8523 123.741C85.2637 126.418 86.479 128.377 88.1036 130.493C89.8443 132.761 91.8149 134.87 93.8298 136.893C95.1084 138.177 96.4439 139.658 98.0095 140.6C99.8303 141.694 101.896 142.525 103.839 143.369C105.816 144.23 107.822 145.026 109.867 145.716C113.954 147.099 118.178 148.056 122.476 148.475C125.917 148.809 129.85 149.173 133.147 147.878C135.675 146.886 137.715 145.092 139.333 142.933C141.095 140.583 142.488 137.905 143.258 135.082C144.058 132.149 142.793 127.03 142.625 126.557" fill="black"/>
</g>
<defs>
<clipPath id="clip0_2016_14092">
<rect width="200" height="267" fill="white"/>
</clipPath>
</defs>
</svg>
