<svg width="200" height="267" viewBox="0 0 200 267" fill="none" xmlns="http://www.w3.org/2000/svg">
<g clip-path="url(#clip0_2016_14084)">
<rect width="200" height="267" fill="white"/>
<path fill-rule="evenodd" clip-rule="evenodd" d="M169.444 219.877C168.032 215.534 169.714 210.519 168.614 205.838C168.238 203.987 167.521 197.108 166.802 193.086C166.4 190.836 168.807 190.137 169.177 189.239C171.78 181.172 152.79 162.193 151.63 161.494C149.893 160.49 148.356 159.625 146.659 158.599C141.708 156.859 135.77 152.019 131.282 155.128C123.505 143.546 126.581 129.277 122.361 127.581C118.141 125.885 105.679 122.457 98.554 126.834C94.2834 129.995 94.5982 135.437 92.6497 139.924C91.506 142.037 90.944 145.097 89.6126 146.475C85.0887 151.156 79.4473 151.963 73.1405 152.758C72.6601 152.818 72.1548 151.511 71.688 151.673C61.0494 155.351 48.6704 156.424 36.6222 177.021C34.9206 179.967 30.3304 184.693 31.8653 188.097C21.7523 211.623 11.8015 264.573 39.5505 277.778C40.4375 278.346 46.4548 275.303 47.4353 275.331C49.0697 275.378 45.9381 279.348 47.4353 278.64C58.4273 279.475 118.911 277.322 142.095 279.475C158.038 279.355 168.135 282.152 171.817 279.355C170.345 275.797 170.413 271.987 170.879 268.225C174.267 265.703 170.078 247.928 170.433 242.723C173.604 238.919 171.079 224.655 169.444 219.877Z" fill="#FDC6A0"/>
<path fill-rule="evenodd" clip-rule="evenodd" d="M72.5188 152.723L72.4168 152.789C72.3999 152.8 72.3833 152.811 72.3674 152.823C72.2588 152.905 72.2759 153.052 72.4039 153.102C72.5742 153.168 72.7531 153.219 72.9374 153.258C73.4968 154.07 73.9339 155.074 74.2392 155.582C75.1162 157.044 82.6443 166.231 83.7695 167.412C85.5976 169.33 94.6003 176.543 94.7224 176.399C96.1705 177.264 97.6709 178.041 99.2294 178.703C108.453 182.624 120.282 182.98 128.209 176.467C128.799 176.629 134.403 168.557 135.269 165.666C135.692 165.783 136.215 162.684 135.923 162.731C136.178 160.98 133.108 154.687 132.817 154.386C132.861 154.372 132.905 154.359 132.949 154.347C132.974 154.402 133.033 154.444 133.101 154.426C133.687 154.273 134.28 154.192 134.873 154.205C135.324 154.214 138.542 155.681 138.667 155.741C138.744 155.778 138.821 155.815 138.898 155.852C164.648 168.235 168.617 188.359 169.507 188.313C169.132 188.788 158.958 203.179 158.411 204.451C158.297 201.701 160.177 275.014 160.309 276.545C160.363 277.176 160.367 278.666 160.456 279.266C159.809 279.302 137.166 277.755 95.0598 278.009C81.6142 278.09 48.3817 279.553 48.3817 279.553L48.3708 279.462C48.2755 278.564 48.3584 276.823 48.3452 275.928C49.6214 275.191 50.8741 274.407 52.1121 273.637C54.9309 271.883 72.3239 255.945 85.1067 241.685C92.6847 233.232 102.138 227.543 102.65 226.989C102.66 226.978 102.665 226.966 102.672 226.954C102.699 226.974 102.732 226.993 102.774 226.987C108.662 226.145 117.447 227.956 123.915 224.607C126.802 223.112 136.6 212.932 139.487 210.119C139.574 210.035 139.636 209.945 139.68 209.854C141.605 208.681 149.109 202.731 149.64 201.996L149.798 201.775C150.384 200.944 151.266 200.068 150.244 199.27C149.167 198.429 147.102 199.44 145.966 199.924L145.808 199.99C145.255 200.217 144.713 200.464 144.179 200.727C143.505 198.837 141.861 198.798 140.089 199.059C138.826 199.245 137.6 199.677 136.369 200.006C134.807 200.424 133.237 200.817 131.662 201.186C128.826 201.85 125.548 203.065 122.679 203.568C122.603 203.48 122.498 203.41 122.357 203.375C121.375 203.13 120.291 203.318 119.283 203.336C118.42 203.352 117.556 203.354 116.693 203.342L116.175 203.333C114.324 203.295 111.841 202.434 109.99 202.402L109.88 202.334L109.77 202.265C109.293 201.956 108.775 201.544 108.634 201.025C108.616 200.96 110.508 196.604 110.536 193.079C110.551 191.119 109.879 189.285 109.718 188.313C109.327 185.94 108.451 187.468 107.183 189.793C105.915 192.117 104.225 194.231 102.958 195.922C101.324 198.101 99.7214 198.76 98.8884 200.023C98.7473 200.237 98.6085 200.458 98.4731 200.684C98.1473 200.359 95.4006 206.832 95.8808 208.079C95.5464 207.968 82.0422 225.299 52.676 237.769C52.8632 236.603 57.9577 205.855 56.6901 200.783C55.4225 195.71 38.6586 176.963 36.9154 176.547C37.0899 176.263 30.2817 180.916 42.5352 168.869C54.7887 156.822 62.954 154.782 69.0542 152.543C69.3957 152.437 69.7355 152.33 70.0736 152.221C69.9882 152.373 70.1819 152.539 70.3307 152.417C71.1741 151.719 71.9062 152.046 72.5188 152.723Z" fill="#9DDADB"/>
<path fill-rule="evenodd" clip-rule="evenodd" d="M164.39 193.84C162.869 196.053 161.471 198.331 160.208 200.701C159.557 201.923 158.949 203.17 158.402 204.442C158.289 201.692 158.264 198.909 157.942 196.186C157.919 195.989 157.592 195.894 157.557 196.134C157.202 198.603 157.144 201.136 157.01 203.631C156.855 203.584 156.684 203.557 156.496 203.557C154.671 203.557 152.873 203.706 151.054 203.854C150.239 203.92 149.387 203.97 148.555 204.1C149.224 203.361 149.848 202.58 150.423 201.766C151.01 200.935 151.68 199.636 150.658 198.838C149.529 197.957 147.314 199.11 146.222 199.558C145.669 199.785 145.126 200.032 144.593 200.295C143.918 198.405 141.852 198.155 140.081 198.416C138.818 198.602 137.592 199.034 136.361 199.363C134.798 199.781 133.229 200.174 131.654 200.543C128.817 201.207 125.962 201.788 123.093 202.291C123.017 202.202 122.911 202.133 122.771 202.098C121.789 201.852 120.705 202.04 119.697 202.059C118.661 202.078 117.624 202.077 116.588 202.055C114.738 202.018 112.888 202.002 111.038 201.97C110.512 201.651 109.845 201.193 109.682 200.593C109.478 199.844 110.115 199.014 110.41 198.376C111.545 195.927 111.942 193.186 111.497 190.519C111.417 190.043 111.254 189.523 111.018 189.036C113.045 189.253 115.046 189.4 117.085 189.467C121.155 189.599 125.226 189.738 129.298 189.769C137.441 189.829 145.583 189.83 153.726 189.77C158.33 189.736 162.923 189.694 167.521 189.459C167.146 189.934 166.782 190.42 166.426 190.912C166.353 190.89 166.257 190.93 166.268 191.021C166.271 191.053 166.275 191.085 166.279 191.117C165.63 192.024 165.005 192.945 164.39 193.84M155.336 278.057C153.443 277.996 151.552 277.936 149.659 277.876C145.945 277.757 142.231 277.639 138.517 277.521C131.16 277.287 123.802 277.061 116.443 276.858C109.102 276.655 101.757 276.441 94.414 276.67C87.054 276.9 79.7129 277.494 72.3667 277.971C68.2827 278.236 64.1957 278.465 60.1041 278.575C56.2073 278.679 52.276 278.521 48.3853 278.799C48.2545 277.837 48.3507 276.878 48.3365 275.919C49.6128 275.182 50.8654 274.398 52.1034 273.628C56.6169 270.819 60.8833 267.642 64.9075 264.169C65.5261 263.635 66.1326 263.09 66.7331 262.539C66.3152 263.452 66.6496 264.63 67.8473 265.017C69.3078 265.488 70.8031 265.321 72.32 265.285C73.8604 265.249 75.4007 265.214 76.9413 265.182C79.9521 265.118 82.9631 265.061 85.9741 265.01C91.8562 264.912 97.7385 264.839 103.621 264.791C115.456 264.695 127.283 264.857 139.117 265.07C142.444 265.13 145.768 265.205 149.096 265.129C150.76 265.092 152.432 265.08 154.095 264.99C155.427 264.918 156.767 264.73 158.099 264.56C158.267 266.881 158.443 269.201 158.638 271.52C158.768 273.051 158.901 274.582 159.032 276.113C159.086 276.744 159.09 277.389 159.179 277.989C157.901 278.059 156.63 278.098 155.336 278.057M156.637 212.522C156.59 214.298 156.566 216.076 156.553 217.854C156.399 217.765 156.226 217.701 156.031 217.672C153.962 217.356 151.748 217.595 149.654 217.631C147.63 217.664 145.6 217.653 143.578 217.749C141.552 217.844 139.527 217.959 137.502 218.063C136.551 218.113 135.611 218.156 134.668 218.284C134.022 218.372 133.196 218.366 132.506 218.55C135.401 215.745 138.281 212.923 141.169 210.11C141.255 210.025 141.318 209.936 141.361 209.845C143.287 208.672 145.135 207.351 146.809 205.838C148.136 206.35 149.647 206.415 151.054 206.529C152.874 206.677 154.67 206.826 156.496 206.826C156.62 206.826 156.735 206.814 156.844 206.793C156.755 208.701 156.687 210.61 156.637 212.522M81.458 247.032C85.8784 248.444 90.6676 248.429 95.2662 248.711C100.169 249.013 105.064 249.264 109.972 249.455C119.775 249.836 129.571 250.354 139.372 250.766C144.97 251.001 150.567 251.26 156.163 251.542C156.56 251.562 156.939 251.46 157.273 251.274C157.461 254.96 157.681 258.645 157.937 262.328C157.969 262.789 158.005 263.249 158.037 263.709C155.404 263.379 152.79 263.063 150.136 262.838C147.157 262.587 144.178 262.374 141.194 262.176C135.38 261.791 129.556 261.274 123.73 261.086C111.855 260.702 99.9543 260.833 88.0749 260.917C84.7136 260.941 81.3526 260.974 77.9915 261.014C76.3111 261.035 74.6307 261.057 72.9503 261.082C71.2614 261.106 69.4464 260.931 67.8473 261.52C67.8321 261.526 67.8192 261.534 67.8042 261.54C72.6285 256.967 76.9504 251.913 81.458 247.032M96.9972 232.413C104.385 233.758 111.888 233.666 119.376 233.799C127.038 233.936 134.71 233.845 142.374 233.861C146.727 233.87 151.117 234.062 155.455 233.674C155.967 233.628 156.365 233.434 156.648 233.158C156.727 237.773 156.872 242.387 157.071 246.998C156.79 246.878 156.483 246.805 156.163 246.787C146.371 246.21 136.578 245.687 126.774 245.368C116.978 245.049 107.169 244.67 97.3673 244.789C92.584 244.846 87.5258 244.54 82.8082 245.583C84.601 243.677 86.4323 241.807 88.3479 240.016C91.1406 237.405 94.1207 234.96 96.9972 232.413M102.641 226.98C102.651 226.969 102.656 226.957 102.663 226.945C102.69 226.965 102.723 226.978 102.765 226.977C109.68 226.821 117.438 229.004 123.906 225.654C126.793 224.159 129.185 221.796 131.506 219.525C131.507 219.541 131.509 219.558 131.51 219.575C131.525 219.76 131.603 219.981 131.79 220.063C132.553 220.398 133.446 220.42 134.265 220.539C135.207 220.676 136.132 220.757 137.083 220.814C139.178 220.94 141.273 221.073 143.369 221.191C145.46 221.31 147.56 221.319 149.654 221.372C151.754 221.424 153.953 221.678 156.031 221.378C156.222 221.351 156.392 221.291 156.543 221.208C156.546 223.897 156.57 226.586 156.595 229.274C156.6 229.712 156.608 230.15 156.613 230.588C156.333 230.331 155.947 230.151 155.455 230.108C151.601 229.768 147.718 229.919 143.85 229.932C140.053 229.945 136.255 229.957 132.457 229.97C124.789 229.996 117.127 230.071 109.459 230.217C105.731 230.288 102.019 230.601 98.3448 231.205C99.8324 229.849 101.278 228.454 102.641 226.98M42.5558 275.879C41.1401 276.312 39.7348 276.125 38.3163 276.421C38.2291 276.439 38.1486 276.473 38.0748 276.518C33.8271 274.702 30.9957 271.059 29.0579 266.977C27.0154 262.673 25.6075 258.073 24.6644 253.41C22.7199 243.796 22.7165 233.828 23.723 224.102C24.7119 214.547 26.67 205.044 29.4642 195.854C31.3827 189.545 33.8277 183.17 37.2226 177.417C41.1426 180.045 44.1828 183.828 47.0467 187.525C50.4691 191.945 53.5531 196.621 56.3138 201.48C56.0283 202.312 55.984 203.356 55.8471 204.1C55.5832 205.535 55.3449 206.987 55.1575 208.434C54.7572 211.527 54.3731 214.621 53.9638 217.713C53.1545 223.826 52.1881 229.922 51.1206 235.995C51.0342 236.488 51.1724 236.904 51.4265 237.216C49.3092 238.332 47.2195 239.498 45.1836 240.762C40.7074 243.541 36.5241 246.778 33.2398 250.929C33.1544 251.037 33.2881 251.181 33.3938 251.083C40.437 244.573 49.1873 240.485 57.7785 236.446C62.1688 234.381 66.5376 232.284 70.7499 229.87C75.1548 227.346 79.3557 224.494 83.382 221.404C87.9796 217.875 92.3074 214.016 96.3644 209.877C96.8423 209.389 96.7265 208.778 96.3669 208.392C96.4884 208.354 96.5864 208.249 96.5928 208.072C96.6902 205.369 97.5017 203.066 99.0904 200.878C100.564 198.848 102.443 197.175 104.137 195.338C104.89 194.522 105.609 193.672 106.252 192.765C106.913 191.831 107.316 190.801 107.892 189.825C108.564 188.686 109.137 189.268 109.448 190.3C109.802 191.469 109.78 192.839 109.638 194.041C109.488 195.313 109.1 196.554 108.543 197.704C108.019 198.784 107.415 199.883 107.767 201.121C108.347 203.155 110.831 204.334 112.713 204.792C114.809 205.302 117.001 205.203 119.124 204.938C121.781 204.607 124.426 204.122 127.054 203.605C130.096 203.008 133.121 202.318 136.121 201.539C137.532 201.173 138.933 200.691 140.357 200.388C140.865 200.28 141.805 200.118 142.402 200.382C134.73 204.958 126.365 208.006 117.87 210.662C116.814 210.991 117.247 212.586 118.328 212.322C127.454 210.09 136.04 205.947 144.212 201.409C144.337 201.339 144.443 201.232 144.521 201.104C145.343 200.815 146.179 200.564 147.031 200.356C147.412 200.264 149.371 199.617 149.616 199.866C149.963 200.217 148.762 201.36 148.462 201.692C146.327 204.059 143.787 205.991 141.037 207.587C138.248 209.207 135.281 210.498 132.3 211.716C128.96 213.081 125.43 214.154 122.183 215.723C120.894 216.346 121.799 218.463 123.157 218.034C124.908 217.48 126.61 216.667 128.311 215.976C129.757 215.389 131.202 214.803 132.64 214.196C133.642 213.773 134.637 213.335 135.623 212.878C134.146 214.268 132.67 215.658 131.194 217.049C128.637 219.456 126.208 222.199 123.083 223.888C119.996 225.556 116.473 225.75 113.037 225.714C111.311 225.696 109.594 225.641 107.868 225.711C106.052 225.784 104.44 226.063 102.719 226.635C102.687 226.645 102.664 226.664 102.645 226.686C102.585 226.613 102.483 226.576 102.377 226.638C97.7011 229.404 93.4388 232.992 89.3395 236.538C85.1146 240.193 81.1392 244.079 77.3514 248.185C73.7258 252.114 70.1292 256.058 66.184 259.674C62.3319 263.204 58.2154 266.409 53.9169 269.376C51.5748 270.992 49.1748 272.549 46.6916 273.94C45.3646 274.684 44.0169 275.433 42.5558 275.879M42.949 169.486C44.6235 167.604 46.4258 165.86 48.3329 164.247C49.1744 164.496 50.0577 164.566 50.9478 164.575C52.306 164.588 53.6672 164.645 55.0255 164.631C57.6407 164.604 60.255 164.522 62.8709 164.508C68.2195 164.478 73.5699 164.477 78.9186 164.523C79.6193 164.53 80.1249 164.23 80.4369 163.794C81.5197 165.022 82.6356 166.222 83.7608 167.403C85.5889 169.321 87.5379 171.151 89.6125 172.819C89.2086 172.821 88.8048 172.825 88.4032 172.822C86.5531 172.81 84.7029 172.798 82.853 172.788C79.1404 172.768 75.4278 172.753 71.7152 172.743C64.3343 172.723 56.9305 172.785 49.5591 173.163C47.5132 173.268 45.4512 173.31 43.4125 173.51C42.3067 173.618 41.2022 173.744 40.0975 173.862C39.8714 173.886 39.6547 173.916 39.4419 173.95C40.5238 172.395 41.6892 170.902 42.949 169.486M72.5102 152.714C72.4603 152.748 72.4064 152.778 72.3587 152.814C72.2501 152.896 72.2672 153.043 72.3953 153.093C72.5655 153.159 72.7445 153.21 72.9287 153.249C73.4881 154.061 73.9253 155.065 74.2305 155.573C75.1075 157.034 76.1159 158.426 77.1418 159.785C77.348 160.058 77.5582 160.328 77.7693 160.597C72.8013 160.586 67.8359 160.611 62.8709 160.799C60.2569 160.898 57.634 160.981 55.0255 161.177C53.9529 161.258 52.8809 161.393 51.8117 161.527C57.3764 157.503 63.6346 154.43 70.1178 152.149C70.1089 152.159 70.0998 152.166 70.091 152.176C69.9481 152.335 70.1613 152.54 70.3221 152.408C71.1655 151.71 71.8975 152.037 72.5102 152.714M97.6122 200.014C97.471 200.228 97.3322 200.448 97.1968 200.675C96.871 200.35 96.416 200.133 95.8297 200.115C89.3216 199.911 82.8167 199.734 76.305 199.729C73.0937 199.727 69.8533 199.619 66.646 199.778C65.0355 199.858 63.4257 199.953 61.816 200.044C60.6906 200.108 59.495 200.188 58.396 200.514C55.8631 196.082 53.0514 191.821 49.9808 187.746C56.9476 188.601 64.0337 188.51 71.04 188.748C78.9779 189.017 86.9203 189.074 94.861 189.263C97.0392 189.314 99.2174 189.371 101.395 189.432C102.519 189.463 103.643 189.496 104.767 189.53C105.119 189.54 105.482 189.55 105.846 189.54C105.819 189.597 105.791 189.654 105.764 189.71C105.151 190.977 104.38 192.142 103.482 193.224C101.573 195.524 99.2662 197.505 97.6122 200.014M89.0742 213.666C88.8331 212.995 88.2458 212.48 87.3101 212.522C81.9777 212.765 76.6354 212.933 71.3091 213.284C68.7145 213.455 66.1094 213.57 63.5191 213.797C62.183 213.914 60.8493 214.132 59.5189 214.305C58.6069 214.424 57.6519 214.562 56.7771 214.887C56.9467 213.013 57.0963 211.138 57.2262 209.26C57.3304 207.751 57.3621 206.229 57.3541 204.717C57.35 203.951 57.3241 203.181 57.2871 202.416C57.3657 202.432 57.4445 202.44 57.5218 202.43C57.6583 202.413 57.7857 202.397 57.904 202.365C59.13 202.845 60.5176 202.951 61.816 203.044C63.3562 203.154 64.8959 203.271 66.436 203.381C69.713 203.615 73.0208 203.599 76.305 203.706C82.77 203.917 89.2362 204.04 95.7025 204.213C95.4025 205.501 95.3919 206.823 95.8722 208.07C95.5377 207.959 95.1526 208.01 94.8238 208.335C92.9613 210.176 91.0432 211.951 89.0742 213.666M70.2642 227.358C70.1326 226.994 69.8841 226.659 69.59 226.433C68.4593 225.561 66.3952 226.063 65.0381 226.129C63.4314 226.208 61.8245 226.286 60.2178 226.365C59.7302 226.389 57.2414 226.516 55.4136 226.906C55.7913 224.052 56.134 221.194 56.4403 218.331C56.5045 217.73 56.5641 217.128 56.6231 216.527C57.4842 216.804 58.4201 216.906 59.3083 216.948C60.6393 217.011 61.9764 217.119 63.3086 217.14C65.9704 217.182 68.6469 217.05 71.3091 217.006C76.1032 216.926 80.8979 216.697 85.6899 216.508C80.8787 220.415 75.795 223.979 70.4922 227.222C70.4165 227.268 70.3398 227.312 70.2642 227.358M55.1222 229.051C55.5272 229.105 55.9288 229.123 56.236 229.154C57.7783 229.31 59.2964 229.451 60.8465 229.473C62.3835 229.496 63.9202 229.518 65.4572 229.541C65.7841 229.545 66.1109 229.55 66.4377 229.555C62.3907 231.767 58.2194 233.747 54.1071 235.833C54.4694 233.576 54.8076 231.315 55.1222 229.051M99.2207 178.694C108.444 182.615 120.274 182.971 128.2 176.458C128.988 176.673 129.859 176.745 130.554 176.815C132.117 176.972 133.665 177.116 135.235 177.165C138.295 177.261 141.358 177.404 144.42 177.442C150.613 177.518 156.807 177.554 163 177.609C163.527 177.614 163.949 177.453 164.269 177.195C164.896 178.259 165.48 179.35 166.012 180.468C166.789 182.099 167.447 183.784 167.988 185.508C167.872 185.488 167.752 185.474 167.623 185.471C159.483 185.331 151.338 185.565 143.197 185.599C135.054 185.633 126.912 185.598 118.769 185.656C116.516 185.672 114.279 185.673 112.032 185.84C110.862 185.927 109.678 185.965 108.519 186.154C108.39 186.175 108.258 186.193 108.125 186.212C106.573 185.304 104.645 185.494 102.871 185.46C100.833 185.422 98.7955 185.388 96.758 185.357C92.7532 185.298 88.748 185.255 84.7428 185.227C76.7938 185.173 68.8643 185.376 60.9205 185.653C56.9681 185.791 53.0307 186.024 49.1292 186.633C48.8672 186.294 48.6078 185.953 48.3424 185.616C45.578 182.111 42.3008 177.624 37.7518 176.538C37.9263 176.254 38.1033 175.971 38.2831 175.69C41.4348 176.521 44.9117 176.479 48.1318 176.653C51.8436 176.854 55.5475 176.993 59.2637 177.084C66.6507 177.265 74.0362 177.379 81.4246 177.492C83.4752 177.523 85.5257 177.556 87.5763 177.59C88.6823 177.608 89.7885 177.63 90.8947 177.647C91.5126 177.656 92.0651 177.654 92.6539 177.449C93.1992 177.259 93.7307 176.974 94.2581 176.738C94.4421 176.656 94.5917 176.534 94.7138 176.39C96.1618 177.255 97.6622 178.032 99.2207 178.694M135.261 165.656C136.421 165.979 137.618 166.032 138.844 166.125C140.454 166.247 142.06 166.267 143.674 166.277C146.248 166.294 148.822 166.276 151.395 166.205C152.5 166.175 153.145 165.435 153.337 164.587C153.364 164.609 153.391 164.63 153.418 164.652C156.549 167.233 159.386 170.184 161.79 173.452C156 173.47 150.21 173.474 144.42 173.513C141.358 173.533 138.295 173.659 135.235 173.738C133.734 173.776 132.254 173.901 130.759 174.043C130.73 174.046 130.699 174.048 130.668 174.051C130.827 173.868 130.984 173.683 131.138 173.492C132.924 171.277 134.394 168.548 135.261 165.656M172.906 281.939C173.417 280.533 173.218 279.025 173.189 277.547C173.16 276.03 173.144 274.513 173.138 272.996C173.129 270.03 173.108 267.065 173.076 264.099C173.009 258.099 172.94 252.094 172.704 246.098C172.238 234.245 171.339 222.42 169.872 210.646C169.16 204.922 168.275 199.21 167.074 193.567C167.091 193.545 167.108 193.521 167.124 193.498C168.32 191.9 169.68 190.423 170.854 188.814C170.959 188.671 171.002 188.488 171.001 188.303C171.044 188.282 171.087 188.26 171.131 188.235C172.105 187.68 171.225 186.167 170.251 186.73C170.363 186.665 168.746 182.511 168.574 182.093C167.958 180.59 167.266 179.122 166.485 177.698C166.014 176.839 165.51 175.998 164.981 175.173C164.889 174.557 164.556 173.986 163.985 173.68C162.982 172.242 161.898 170.861 160.743 169.544C156.015 164.155 150.109 159.804 143.656 156.705C142.724 156.257 141.764 155.884 140.807 155.493C139.789 155.077 138.845 154.532 137.841 154.095C136.208 153.384 134.596 153.425 132.992 154.178C132.855 154.242 132.953 154.453 133.093 154.417C134.125 154.147 135.183 154.102 136.218 154.395C137.233 154.681 138.004 155.314 138.89 155.843C140.468 156.784 142.232 157.398 143.85 158.277C145.989 159.44 148.08 160.717 150.079 162.118C148.007 162.228 145.934 162.307 143.86 162.362C142.32 162.403 140.78 162.41 139.242 162.5C138.147 162.563 137.008 162.545 135.914 162.722C136.178 160.908 136.178 159.077 135.849 157.31C135.849 157.309 135.848 157.308 135.848 157.308C135.769 156.882 135.672 156.459 135.553 156.041C135.301 155.152 134.49 155.019 133.902 155.355C133.844 155.312 133.785 155.27 133.729 155.224C133.024 154.652 132.39 153.967 131.838 153.247C130.693 151.752 129.767 150.021 129.065 148.276C128.355 146.51 127.852 144.661 127.359 142.824C127.112 141.903 126.844 140.987 126.593 140.067C126.374 139.267 126.214 138.383 125.812 137.654C125.737 137.518 125.51 137.544 125.474 137.699C125.261 138.612 125.374 139.653 125.413 140.584C125.456 141.617 125.515 142.641 125.653 143.667C125.938 145.795 126.397 147.886 127.134 149.907C127.84 151.844 128.772 153.653 130.038 155.285C130.879 156.369 132.074 157.805 133.458 158.39C133.638 160.426 133.618 162.463 133.137 164.479C132.508 167.117 131.304 169.625 129.65 171.773C126.181 176.278 120.815 178.823 115.217 179.347C109.425 179.89 103.497 178.594 98.2929 176.046C92.5039 173.211 87.7016 168.838 83.3881 164.118C80.9015 161.397 78.3232 158.719 76.0187 155.841C75.6103 155.33 74.9567 154.295 74.1813 153.362C74.9704 153.354 75.7802 153.236 76.4786 153.147C77.9237 152.961 79.336 152.674 80.7481 152.315C83.3884 151.643 86.1724 150.708 88.4795 149.23C93.3612 146.101 95.2669 142.133 95.9178 136.665C96.1236 134.937 93.136 134.517 92.8578 136.251C92.4304 138.916 91.7837 140.213 90.9333 142.773C90.1155 145.234 88.931 146.15 86.6668 147.507C84.5412 148.78 82.1256 149.52 79.7839 150.285C78.4863 150.708 77.1733 151.094 75.8647 151.484C75.0317 151.732 74.0427 151.948 73.1976 152.331C72.7567 151.944 72.2968 151.652 71.8337 151.541C71.8677 151.484 71.8236 151.395 71.7382 151.412C71.6022 151.439 71.4665 151.469 71.3305 151.497C71.1938 151.507 71.0577 151.534 70.9219 151.583C62.7657 153.35 54.9331 157.113 48.2913 162.238C47.9564 162.378 47.6326 162.549 47.3243 162.766C47.1657 162.877 47.0605 163.054 47.0303 163.238C46.0318 164.053 45.0629 164.899 44.1268 165.775C36.5875 172.829 31.8105 182.213 28.4664 191.865C25.1721 201.374 22.9421 211.345 21.716 221.329C20.4659 231.505 20.3218 241.893 22.1349 252.012C23.1084 257.446 24.6845 262.785 27.0107 267.797C29.0998 272.298 32.5001 277.425 37.841 277.973C37.8581 277.99 37.8741 278.008 37.8933 278.024C39.9889 279.751 43.1089 278.558 45.2998 277.527C45.6471 277.363 45.9917 277.191 46.3348 277.015C46.1535 277.713 46.0717 278.444 46.0339 279.129C45.9551 280.552 47.9602 280.632 48.3399 279.452C51.5902 280.023 54.9467 280.031 58.2342 280.013C61.9075 279.993 65.5795 279.866 69.2486 279.693C76.5285 279.349 83.7997 278.824 91.0844 278.586C105.835 278.103 120.625 279.135 135.364 279.655C139.498 279.801 143.633 279.947 147.767 280.093C151.992 280.242 156.212 280.27 160.402 280.842C161.943 281.052 162.533 279.541 162.098 278.6C162.207 277.968 162.099 277.275 162.039 276.53C161.929 275.139 161.824 273.747 161.726 272.355C161.535 269.64 161.35 266.925 161.175 264.209C160.819 258.706 160.513 253.198 160.216 247.691C159.625 236.742 159.172 225.785 158.839 214.825C158.758 212.154 158.652 209.482 158.518 206.812C158.677 206.559 158.836 206.306 158.99 206.049C159.502 205.195 160.004 204.335 160.523 203.484C161.563 201.779 162.61 200.085 163.704 198.413C164.649 196.97 165.624 195.549 166.642 194.157C167.906 204.837 169.03 215.528 169.546 226.276C170.114 238.115 170.415 249.972 170.579 261.822C170.625 265.133 170.656 268.444 170.691 271.755C170.71 273.479 170.728 275.202 170.714 276.926C170.7 278.575 170.451 280.379 171.036 281.939C171.377 282.85 172.569 282.866 172.906 281.939Z" fill="black"/>
<path fill-rule="evenodd" clip-rule="evenodd" d="M130.99 69.0519C117.124 57.754 94.904 54.0856 80.0615 65.4839C68.5287 76.181 63.7561 106.579 65.7971 121.853C66.3646 131.65 73.8309 142.755 84.7909 139.656C86.652 139.473 88.4592 138.758 90.3374 138.608C92.5841 138.348 94.8479 138.344 97.0902 138.662C101.976 139.354 106.308 141.955 111.05 143.171C119.849 145.427 129.667 143.909 137.242 138.828C162.272 122.33 150.934 85.0194 130.99 69.0519V69.0519Z" fill="#FDC6A0"/>
<path fill-rule="evenodd" clip-rule="evenodd" d="M129.143 143.442C129.4 143.353 129.657 143.261 129.913 143.166C129.929 143.225 129.957 143.282 129.989 143.337C130.024 143.426 130.06 143.512 130.1 143.599C129.78 143.601 129.459 143.544 129.143 143.442M128.629 33.9586C128.515 33.703 128.384 33.4579 128.236 33.221C128.595 33.3374 128.953 33.498 129.278 33.7052C129.059 33.7791 128.844 33.8637 128.629 33.9586M73.8594 67.3859C73.8447 67.3834 73.8301 67.3813 73.8156 67.3788C74.0036 66.8768 74.3386 66.403 74.7086 66.0608C74.775 65.9993 74.8469 65.9424 74.9165 65.8837C74.5237 66.3526 74.1674 66.8529 73.8594 67.3859M174.073 119.875C173.888 118.112 173.652 116.356 173.346 114.61C173.053 112.938 172.806 111.15 171.957 109.667C171.113 108.189 170.268 106.754 169.265 105.454C169.408 104.791 169.598 104.167 169.762 103.664C170.711 100.769 171.645 97.0912 169.674 94.4007C169.216 93.7773 168.658 93.2996 168.019 92.8684C167.747 92.6846 167.296 92.5176 167.087 92.264C166.939 92.0843 166.99 92.1816 166.983 92.0928C166.948 91.6151 168.065 90.607 168.326 90.2287C168.816 89.5289 169.18 88.7408 169.458 87.9355C170.559 84.7484 169.811 81.2378 169.149 78.0441C168.799 76.3514 168.413 74.6543 168.286 72.9254C168.168 71.3023 168.39 69.7171 168.52 68.1024C168.647 66.5086 168.613 64.8645 167.932 63.3891C167.599 62.6705 167.095 62.0365 166.482 61.5419C165.883 61.0581 165.137 60.777 164.553 60.2951C163.971 59.8152 164.137 59.1665 164.289 58.5029C164.498 57.6025 164.761 56.7085 164.787 55.7786C164.833 54.1575 164.173 52.5785 163.142 51.3529C162.08 50.0869 160.562 49.2307 158.922 49.0384C158.171 48.9496 157.433 49.0999 156.687 49.0471C155.949 48.9964 155.789 48.6265 155.65 47.9502C155.329 46.401 155.46 44.8708 154.699 43.4252C154.024 42.1401 152.825 41.2692 151.499 40.7558C149.068 39.8132 146.241 40.0076 143.677 40.5633C142.164 36.0998 137.439 33.1726 132.79 33.1366C132.065 31.9023 130.836 30.9809 129.434 30.4396C127.115 29.5413 124.659 30.0657 122.243 30.0657H122.232C121.99 30.0507 121.747 30.0446 121.505 30.0467C121.277 30.0338 121.05 30.0148 120.822 29.9896C118.073 29.6639 115.353 28.5353 112.629 29.6409C111.415 30.1333 110.449 30.8921 109.838 31.8601C108.917 32.1114 108.008 32.399 107.117 32.7329C103.252 32.8342 99.4235 34.9118 97.4694 38.2788C94.7181 37.966 91.7329 38.4965 89.9133 40.7495C89.4394 41.3358 89.0723 42.0245 88.829 42.7558C86.9738 43.3573 85.2571 44.4291 84.1336 46.0434C83.1084 47.5165 82.9115 49.4212 83.6049 51.0025C81.9486 52.2053 80.6544 53.9272 80.031 55.9603C79.6522 57.1957 79.5959 58.472 79.8396 59.6879C78.1439 60.065 76.5221 60.7639 75.0851 61.8128C73.5792 62.9117 71.6985 64.6606 71.5994 66.6735C71.592 66.8212 71.5977 66.9689 71.6095 67.1163C68.2943 66.8827 64.914 67.4458 62.6732 70.1102C60.9906 72.1094 60.2593 74.6839 60.7083 77.0277C56.7639 77.8309 53.0342 79.8979 50.4327 82.954C48.5418 85.1753 46.8616 87.9989 46.9625 91.0231C46.9942 91.9343 47.2073 92.8515 47.5762 93.6991V93.701C47.4181 93.9992 47.2556 94.331 47.0996 94.6839C44.6562 96.3978 42.881 99.0843 41.8817 102.045C41.0745 104.444 40.5664 107.559 41.4285 110.001C41.5594 110.372 41.7259 110.723 41.9199 111.049C41.7574 111.222 41.6037 111.395 41.454 111.571C39.8072 113.5 38.1396 115.931 38.2537 118.587C38.3001 119.657 38.6962 120.733 39.3437 121.616C37.0666 123.931 35.2326 126.851 35.4137 130.113C35.5697 132.951 37.1237 135.834 39.5585 137.197C39.1518 139.385 39.6957 141.692 41.3947 143.4C42.2425 144.254 43.2415 144.816 44.3001 145.116C44.5362 147.693 46.8171 149.766 49.2394 150.362C49.6908 150.474 50.1419 150.542 50.5908 150.573C52.7707 151.645 55.3701 151.522 57.5943 150.539C58.2499 151.374 59.1038 152.055 60.0989 152.543C60.5015 152.742 60.9276 152.907 61.3722 153.04C64.5135 153.972 67.735 152.708 70.4818 151.233C70.5704 151.186 70.7327 151.127 70.8761 151.062C71.2556 151.486 71.947 151.907 72.3076 152.114C73.5305 152.818 75.0253 153.145 76.4293 153.053C78.0758 152.943 79.5282 152.397 80.8732 151.622C81.0695 151.656 81.2675 151.675 81.4659 151.685C82.7308 151.753 83.8585 151.351 84.8727 150.717C85.543 150.806 86.2302 150.797 86.9259 150.675C88.4588 151.066 89.9514 150.444 91.1508 149.457C91.6823 149.02 92.1311 148.506 92.612 148.016C93.1115 147.507 93.4911 147.388 94.0749 147.046C95.456 146.237 95.6223 144.184 95.0236 142.7C95.1375 142.441 95.203 142.151 95.203 141.83C95.1986 139.027 93.9107 136.457 92.3295 134.215C91.6231 133.215 90.8559 132.236 90.0145 131.349C89.3377 130.637 88.3871 129.481 87.3857 129.191C87.3246 129.147 87.2612 129.102 87.1979 129.06C87.3921 128.379 87.5057 127.686 87.4574 126.978C87.4066 126.251 87.1726 125.562 86.7976 124.975C88.0559 122.529 88.5874 119.847 88.3344 117.049C89.3588 115.593 90.1349 113.984 90.5352 112.222C90.7819 111.131 90.9233 109.984 90.9041 108.865C90.8957 108.329 90.6997 107.65 90.6957 107.094C90.7252 107.27 90.9528 106.615 91.0414 106.452C92.0573 104.56 93.3623 103.085 93.5797 100.855C93.706 99.5511 93.3982 98.1099 92.6181 97.0405C93.1178 95.0665 93.1115 92.9464 92.3251 91.0635C92.1143 90.5605 91.872 90.0681 91.5937 89.601C91.7221 89.2079 91.8404 88.8105 91.992 88.4531C92.0512 88.3115 92.1101 88.168 92.1691 88.0243C92.7404 87.519 93.2719 86.9675 93.7188 86.4263C94.7095 85.2281 95.4665 83.8544 95.5614 82.2711C95.6078 81.4786 95.4223 80.7198 95.1925 79.9676C95.0911 79.6274 95.0299 79.249 94.9098 78.9172C94.8425 78.7331 94.68 78.5452 94.6233 78.3719C94.6104 78.3339 94.5999 78.3022 94.5914 78.2768C94.5999 78.2515 94.6064 78.1986 94.6064 78.0991C94.6083 77.3403 94.7074 76.5985 94.7118 75.8674C95.4054 76.5691 96.2403 77.093 97.189 77.3997C99.1009 78.0147 101.095 77.7358 102.788 76.7868C104.61 78.038 106.657 79.1706 108.803 79.6252C110.078 79.8956 111.356 79.7838 112.636 79.9507C113.907 80.1177 115.136 80.6735 116.333 81.1068C118.998 82.0727 121.657 83.0637 124.33 84.0044C126.489 84.7632 128.825 85.3655 131.085 84.9386C131.719 85.919 132.544 86.7477 133.6 87.3564C134.357 87.7897 135.187 88.0833 136.045 88.2293C136.804 88.3582 137.694 88.3075 138.31 88.8295C138.91 89.3368 139.286 90.0932 139.825 90.6641C140.426 91.3023 141.168 91.8561 141.946 92.2534C142.57 92.5726 143.207 92.8027 143.854 92.953C143.797 94.3965 143.742 95.8379 143.726 97.2836C143.694 100.424 143.707 103.565 143.665 106.706C143.622 109.835 143.523 112.966 143.359 116.092C143.203 119.025 142.983 121.969 142.286 124.831C139.971 134.327 131.3 141.126 121.593 141.473C118.712 141.576 115.859 141.17 113.104 140.321C110.249 139.439 107.7 137.626 104.774 137.068C104.009 136.924 103.288 137.696 103.726 138.437C104.481 139.712 105.398 140.49 106.653 141.257C107.966 142.058 109.429 142.652 110.873 143.172C113.53 144.127 116.34 144.681 119.159 144.835C121.309 144.953 123.468 144.806 125.574 144.4C125.722 144.854 125.983 145.296 126.181 145.717C126.21 145.778 126.31 145.736 126.291 145.672C126.259 145.567 126.238 145.474 126.23 145.397C126.938 146.323 128.032 146.963 129.156 147.274C129.948 147.494 130.79 147.561 131.606 147.469C131.869 147.439 132.12 147.395 132.369 147.34C133.199 148.069 134.262 148.555 135.329 148.798C135.145 149.914 135.695 151.131 136.971 151.448C137.506 151.582 138.021 151.584 138.535 151.535C138.951 151.73 139.398 151.882 139.872 151.985C140.489 152.121 141.227 151.947 141.693 151.499C141.948 151.679 142.187 151.803 142.423 152.089C143.395 153.264 145.49 152.328 145.583 150.969C145.891 150.969 146.201 150.973 146.511 150.983C146.584 151.017 146.658 151.051 146.734 151.087C148.09 151.719 149.494 152.271 150.993 151.774C151.269 151.683 151.522 151.567 151.752 151.432C152.808 151.527 153.849 151.529 154.92 151.182C155.553 150.977 156.147 150.652 156.643 150.225C158.295 150.711 160.039 150.931 161.684 150.328C162.915 149.878 163.906 149.168 164.603 148.231C165.67 148.27 166.754 148.012 167.73 147.502C169.399 146.636 170.57 144.989 171.385 143.339C173.182 139.697 174.244 135.785 174.662 131.751C175.073 127.777 174.487 123.825 174.073 119.875" fill="black"/>
<path fill-rule="evenodd" clip-rule="evenodd" d="M129.373 128.003C128.022 128.014 126.504 127.507 125.489 127.11L125.224 127.005C124.346 126.653 123.443 126.249 122.77 125.571C122.555 125.351 122.326 125.101 122.21 124.839C122.142 124.685 122.113 124.526 122.179 124.368C122.422 124.344 122.653 124.313 122.872 124.273C122.976 124.254 123.075 124.234 123.152 124.234C123.433 124.232 123.712 124.268 123.99 124.303C124.03 124.308 124.071 124.313 124.111 124.318C124.328 124.345 124.543 124.374 124.758 124.403C125.385 124.487 126.007 124.571 126.642 124.601C127.101 124.623 127.582 124.597 128.067 124.571C129.325 124.502 130.626 124.409 131.595 125.29C131.849 125.521 131.956 125.812 131.956 126.108C131.956 126.468 131.804 126.835 131.573 127.123C131.05 127.773 130.244 127.996 129.373 128.003ZM136.736 116.649C136.148 117.531 135.17 118.098 133.829 118.036C131.163 117.914 127.982 116.908 125.749 115.454C125.168 115.075 124.791 114.469 124.724 113.821L124.603 112.667L123.953 113.628C123.886 113.728 123.817 113.828 123.749 113.928C123.561 114.203 123.373 114.478 123.195 114.76C122.514 115.842 121.89 116.936 121.323 118.082C120.922 118.894 120.628 119.802 120.334 120.719C119.837 122.266 119.357 123.787 118.296 124.874C118.135 125.039 117.888 125.098 117.663 125.069C117.464 125.043 117.269 124.945 117.173 124.751C115.905 122.171 117.61 119.062 118.994 116.9L119.141 116.674C120.424 114.721 122.519 112.136 124.919 111.785L125.194 112.223L125.594 111.956C126.247 111.52 127.109 111.541 127.864 111.882L128.62 112.223C130.025 112.854 131.412 113.436 132.932 113.755C133.043 113.778 133.154 113.8 133.265 113.82C133.369 113.839 133.474 113.857 133.579 113.873C133.557 113.77 133.532 113.666 133.508 113.563C133.482 113.454 133.456 113.345 133.428 113.236C133.4 113.124 133.369 113.012 133.338 112.901C133.217 112.457 133.079 112.017 132.916 111.587C132.302 109.968 131.321 108.454 130.367 107.01L130.255 106.84C130.118 106.633 129.969 106.417 129.814 106.194C129.07 105.123 128.245 103.96 128.186 102.792C129.174 102.854 130 103.468 130.727 104.002C131.726 104.735 132.651 105.573 133.49 106.483C135.117 108.25 136.578 110.507 137.219 112.841C137.586 114.178 137.424 115.616 136.736 116.649V116.649ZM110.694 103.334L110.694 103.287C110.697 101.939 111.481 98.8617 113.421 98.8617C114.632 98.8617 115.368 100.956 115.495 103.115L115.5 103.203C115.556 104.545 115.188 107.479 113.421 107.479C111.635 107.479 110.712 104.7 110.694 103.334V103.334ZM139.248 102.911L139.248 102.864C139.245 101.516 138.461 98.4389 136.521 98.4389C135.34 98.4389 134.611 100.43 134.457 102.53L134.447 102.692C134.37 103.989 134.714 107.056 136.521 107.056C138.307 107.056 139.23 104.277 139.248 102.911V102.911ZM117.226 94.2132C116.969 94.2433 116.713 94.2828 116.457 94.3234C115.712 94.4423 114.97 94.585 114.233 94.7512C112.834 95.0672 111.446 95.4662 110.085 95.9171C108.811 96.3391 107.557 96.8161 106.303 97.293C106.236 97.3185 106.169 97.3439 106.102 97.3694C105.659 97.5378 105.218 97.7264 104.776 97.9157C104.102 98.2039 103.425 98.4939 102.735 98.7125C104.554 96.1961 107.357 94.3316 110.055 92.9974C111.594 92.2362 113.226 91.6223 114.869 91.1193L115.783 90.8444C117.13 90.4469 118.602 90.0798 119.868 90.8723C120.368 91.1858 120.687 91.6731 120.788 92.1998C120.886 92.7165 120.774 93.2704 120.417 93.7326C120.107 94.1353 119.719 94.3647 119.307 94.4433C118.853 94.53 118.371 94.4347 117.932 94.2003C117.58 94.1741 117.477 94.1836 117.373 94.1952L117.226 94.2132ZM137.486 94.4692C136.584 94.2732 135.692 94.1945 134.767 94.2227C134.349 94.2353 133.944 94.2999 133.541 94.3649C132.914 94.4659 132.29 94.5703 131.615 94.4477C131.262 94.3837 130.962 94.1776 130.731 93.9086C130.46 93.594 130.281 93.192 130.223 92.8098C130.164 92.4149 130.223 92.0696 130.369 91.7647C130.541 91.4045 130.832 91.1009 131.183 90.8349C132.246 90.03 134.07 90.2236 135.324 90.3863C136.564 90.5475 137.797 90.932 138.892 91.5428C139.973 92.1456 140.913 92.9576 141.647 93.9502C142.265 94.7869 142.556 95.7498 142.857 96.7302C141.442 95.5432 139.278 94.8583 137.486 94.4692Z" fill="black"/>
</g>
<defs>
<clipPath id="clip0_2016_14084">
<rect width="200" height="267" fill="white"/>
</clipPath>
</defs>
</svg>
