<svg width="200" height="267" viewBox="0 0 200 267" fill="none" xmlns="http://www.w3.org/2000/svg">
<g clip-path="url(#clip0_2016_14090)">
<rect width="200" height="267" fill="white"/>
<path fill-rule="evenodd" clip-rule="evenodd" d="M178.116 286.283C182.198 286.086 180.556 278.941 180.263 276.317C177.031 266.734 177.791 256.278 176.519 246.233C175.727 236.856 174.709 227.508 173.853 218.138C172.172 199.117 160.099 160.397 146.321 154.17C144.585 146.552 137.417 139.44 128.347 139.44C122.161 132.115 114.716 126.96 105.166 128.001C101.219 128.18 97.3919 132.367 93.6104 133.176C91.4931 133.468 72.7029 132.716 68.939 134.953C66.3171 136.299 63.9503 138.788 64.7212 141.956C65.9512 145.795 62.1288 141.642 54.1549 145.739C37.895 155.508 47.6112 168.577 48.0418 168.982C37.895 183.105 29.0263 194.563 24.9228 211.825C22.2634 224.641 22.5628 237.872 20.3345 250.753C19.5478 255.22 18.3408 259.534 17.0347 263.872C15.6192 269.548 14.931 283.697 14.1508 283.823C12.7296 284.176 14.9721 287.096 16.478 287.098C58.2296 294.026 100.639 287.385 142.615 286.3C154.444 285.888 166.287 285.793 178.116 286.283Z" fill="#FDC6A0"/>
<path fill-rule="evenodd" clip-rule="evenodd" d="M93.6629 145.612C93.6629 150.057 109.092 166.575 114.416 165.485C117.966 164.759 123.33 160.021 130.507 151.272V145.612L128.957 139.451C137.737 139.761 144.624 146.723 146.321 154.17C159.961 160.335 171.93 198.346 173.8 217.561L173.853 218.138C174.709 227.508 175.727 236.856 176.519 246.233C177.791 256.278 177.031 266.734 180.263 276.317L180.282 276.48C180.62 279.224 182.117 286.09 178.116 286.283C166.287 285.793 154.444 285.888 142.615 286.3C100.639 287.385 58.2296 294.026 16.478 287.098C14.9721 287.096 12.7296 284.176 14.1508 283.823C14.931 283.697 15.6192 269.548 17.0347 263.872L17.3034 262.974C18.5053 258.938 19.602 254.912 20.3345 250.753C22.5628 237.872 22.2634 224.641 24.9228 211.825C29.0263 194.563 37.895 183.105 48.0418 168.982C47.6112 168.577 37.895 155.508 54.1549 145.739C62.1288 141.642 65.9512 145.795 64.7212 141.956C63.9503 138.788 66.3171 136.299 68.939 134.953C72.7029 132.716 91.4931 133.468 93.6104 133.176C94.594 132.966 95.5807 132.527 96.5718 131.989L96.3999 132.562C94.5752 138.68 93.6629 143.03 93.6629 145.612Z" fill="#9FD8E5"/>
<path fill-rule="evenodd" clip-rule="evenodd" d="M114.835 170.229C114.854 170.037 115.112 170.038 115.132 170.229L115.426 173.075C115.785 176.552 116.13 180.022 116.381 183.515C116.693 187.871 116.902 192.225 117.002 196.591C117.353 211.795 117.422 227.007 117.452 242.214C119.508 242.072 121.564 241.935 123.621 241.802C125.017 241.712 126.412 241.625 127.808 241.54L131.368 241.324V241.324L132.833 241.234C133.823 241.173 134.948 240.924 135.641 241.801C135.918 242.152 136.057 242.609 135.798 243.026C135.202 243.988 134.287 243.954 133.252 243.996C132.275 244.035 131.298 244.074 130.321 244.112C128.227 244.193 126.134 244.27 124.04 244.328C121.842 244.39 119.646 244.44 117.449 244.478C117.427 250.898 117.161 257.31 116.874 263.723L116.744 266.609C116.393 274.413 116.015 282.224 115.478 290.018C115.434 290.656 114.532 290.655 114.488 290.018C113.883 281.241 113.484 272.445 113.089 263.656C112.802 257.284 112.635 250.909 112.556 244.534C112.265 244.536 111.975 244.54 111.685 244.541C103.44 244.577 95.1965 244.613 86.9514 244.536C86.9651 244.552 86.9786 244.568 86.9877 244.59C87.5843 245.999 87.6412 247.797 87.6266 249.309C87.6099 251.044 87.3764 252.757 86.9771 254.444C85.5466 260.486 81.8566 265.897 77.654 270.372L77.5168 270.517C76.5255 271.565 75.3883 272.618 74.7796 273.952C74.1579 275.315 73.9421 276.909 73.6353 278.374L73.5995 278.542L72.3999 284.085C72.0188 285.845 71.9106 288.413 70.5175 289.683C69.2178 290.869 67.496 290.25 66.8843 288.724C66.4067 287.533 66.8824 286.225 67.1653 285.034L69.3818 275.714C69.7459 274.194 70.1439 272.664 70.9299 271.298C71.735 269.9 72.9154 268.886 74.1198 267.849C76.4005 265.884 78.4941 263.636 80.2648 261.201C82.0348 258.767 83.5474 256.084 84.6082 253.263C85.1393 251.851 85.5745 250.384 85.8748 248.905C86.1602 247.501 86.1576 246.047 86.4629 244.659C86.4838 244.563 86.5648 244.497 86.6575 244.468C86.6355 244.406 86.6691 244.322 86.7557 244.317L93.4989 243.883C99.4929 243.496 105.487 243.1 111.475 242.646L112.534 242.57V242.57C112.451 234.064 112.521 225.557 112.675 217.048C112.815 209.245 112.818 201.44 113.05 193.638C113.166 189.766 113.414 185.903 113.691 182.039C113.974 178.087 114.427 174.169 114.835 170.229ZM51.5195 215.471C51.4476 215.038 51.9925 214.77 52.2437 215.166C55.115 219.693 56.4995 224.611 57.083 229.91C57.5985 234.586 57.4466 239.329 57.1899 244.018C56.9161 249.018 56.5966 254.018 56.2736 259.015L55.7773 266.68V266.68L54.5319 285.893C54.4428 287.268 54.1309 288.517 52.948 289.156C52.7983 289.281 52.6421 289.394 52.4602 289.491C51.8211 289.833 50.9735 289.66 50.604 289.004L50.7522 289.101C50.8812 289.183 50.7363 289.069 50.3173 288.761L49.9618 288.301V288.301C49.7034 287.912 49.5384 287.53 49.4721 287.069C49.369 286.351 49.5025 285.564 49.5494 284.843L50.3657 272.244V272.244C51.0006 262.449 51.7419 252.657 52.3007 242.858C52.561 238.291 52.7433 233.719 52.6199 229.143C52.497 224.594 52.2652 219.966 51.5195 215.471ZM76.359 131.131L76.5183 131.104C82.2215 130.156 88.423 130.334 93.6352 133.084C93.6783 133.107 93.6587 133.178 93.6103 133.176L91.9326 133.109C86.6216 132.901 81.327 132.778 76.1049 134.026L75.5703 134.155C73.6896 134.614 71.7257 135.176 70.2152 136.418C68.7713 137.606 68.0524 139.438 67.3611 141.125L67.2687 141.348C66.5673 143.014 65.6796 144.593 64.1423 145.635C62.1511 146.984 59.7564 146.819 57.4732 147.002C53.4532 147.325 50.1665 150.24 48.5313 153.806C47.5411 155.966 47.1187 158.387 47.0351 160.749C46.9922 161.951 46.9861 163.201 47.1462 164.395C47.1973 164.777 47.6693 166.168 47.9099 166.135C48.4447 166.061 48.9335 166.34 49.1002 166.767C50.4211 165.491 51.7799 164.251 53.1825 163.056C56.6788 160.077 60.4447 157.377 64.4106 155.058C67.4374 153.287 70.6301 151.533 73.9362 150.207C73.6742 150.201 73.4159 150.253 73.1659 150.383C73.0565 150.44 72.9477 150.303 73.0341 150.212C74.0754 149.116 75.3228 148.96 76.5802 149.252C76.8485 149.167 77.1171 149.084 77.3866 149.006C77.5208 148.967 77.5876 149.152 77.4781 149.223L77.1692 149.42V149.42C78.541 149.88 79.8878 150.784 80.9541 151.497C84.0171 153.545 86.713 156.048 89.446 158.505L89.9429 158.95C92.3485 161.099 94.8154 163.187 97.5485 164.911C98.9792 165.813 100.482 166.647 102.058 167.268C103.41 167.801 105.611 168.136 106.245 169.566C106.807 170.25 106.572 171.123 105.913 171.583C104.801 172.807 102.578 172.016 101.253 171.506C99.6559 170.892 98.1088 170.153 96.6333 169.287C93.7687 167.604 91.1275 165.513 88.6671 163.288C86.0974 160.964 83.6735 158.495 81.1742 156.098C80.0913 155.059 79.0334 153.996 77.9489 152.959L77.4042 152.443C76.8506 151.924 76.062 151.114 75.2188 150.625C73.6303 151.572 72.0173 152.481 70.4431 153.454C68.2457 154.811 66.113 156.266 64.0132 157.769C59.9708 160.663 56.1401 163.904 52.5838 167.377C46.0616 173.748 40.5048 181.023 35.6505 188.726L35.2819 189.313C32.5234 193.721 29.9148 198.273 28.0652 203.144C26.03 208.505 25.0402 214.143 24.5025 219.833C23.9689 225.483 23.7889 231.161 23.1925 236.806C22.5809 242.595 21.3758 248.256 20.0051 253.907L19.6782 255.246C18.4379 260.307 17.1578 265.368 16.5202 270.548C16.1799 273.315 15.9752 276.12 16.0214 278.909C16.0679 281.715 16.5086 284.458 16.8642 287.234C17.0004 288.298 15.9542 289.186 15.0181 289.327C13.9415 289.488 13.0166 288.801 12.6819 287.801C11.6387 284.682 11.4492 281.234 11.4819 277.96C11.5149 274.637 11.9389 271.335 12.5355 268.069C13.7089 261.644 15.5197 255.353 17.0344 249.005C18.3694 243.41 19.2654 237.805 19.7484 232.074C20.2497 226.127 20.5499 220.161 21.4645 214.257C22.3673 208.429 24.0659 202.862 26.6275 197.548C28.9599 192.709 31.8673 188.155 34.9155 183.74C38.6171 178.38 42.6825 173.279 47.2269 168.631C46.8187 168.613 46.3996 168.482 46.0147 168.241C44.8371 167.507 44.2886 166.069 44.12 164.757C43.7254 161.686 43.8206 158.481 44.6099 155.479C45.8833 150.637 49.1879 146.334 53.9773 144.589C55.2101 144.139 56.5206 143.975 57.8271 143.943C59.0668 143.912 60.4208 144.074 61.617 143.681C63.521 143.055 64.3371 140.811 65.052 139.111L65.0849 139.033C66.0016 136.866 67.1019 135.008 69.0874 133.655C71.2057 132.211 73.8598 131.555 76.359 131.131V131.131ZM130.549 139.701C132.262 139.106 134.405 139.646 136.081 140.165C137.948 140.744 139.674 141.811 141.153 143.077C142.714 144.413 144.003 146.062 144.915 147.905L145.002 148.083C145.834 149.792 146.782 152.138 146.362 154.016C146.35 154.069 146.336 154.12 146.321 154.17C149.721 155.845 152.861 157.942 155.596 160.6C158.78 163.696 161.477 167.218 163.758 171.023C172.82 186.136 174.415 204.287 175.486 221.522L175.752 225.892C176.334 235.329 177.014 244.743 178.78 254.049L178.909 254.721C180.798 264.465 183.501 274.283 183.227 284.279C183.145 287.274 178.721 287.253 178.592 284.279C178.109 273.083 175.498 262.273 173.729 251.252C170.617 231.863 172.177 211.873 167.767 192.678C166.037 185.145 163.357 177.838 159.529 171.114C157.639 167.792 155.475 164.582 152.942 161.717C150.761 159.251 148.496 156.878 145.948 154.805C145.134 155.621 143.507 155.205 143.082 154.016C142.79 153.198 142.875 152.243 142.688 151.387C142.514 150.592 142.274 149.805 141.955 149.056C141.318 147.565 140.383 146.133 139.304 144.927C138.139 143.622 136.799 142.538 135.3 141.644C133.791 140.743 132.14 140.474 130.549 139.815C130.495 139.793 130.49 139.721 130.549 139.701ZM137.207 243.325C137.21 243.246 137.302 243.209 137.359 243.261C137.96 243.814 138.323 244.608 138.766 245.289C139.276 246.073 139.811 246.842 140.373 247.59C141.498 249.09 142.75 250.504 144.013 251.888C145.187 253.176 146.439 254.41 147.737 255.573C149.144 256.833 150.72 257.957 151.998 259.353C154.664 262.264 155.095 266.26 155.658 270.013L155.72 270.418C156.063 272.645 156.37 274.878 156.647 277.114C156.782 278.201 156.916 279.29 157.026 280.38L157.06 280.726C157.158 281.793 157.184 282.876 156.571 283.809C155.915 284.807 154.424 285.156 153.537 284.2C152.014 282.556 152.3 279.636 152.101 277.522C151.938 275.773 151.752 274.027 151.544 272.283L151.438 271.412C151.193 269.428 150.994 267.405 150.541 265.455C150.141 263.739 149.379 262.443 148.128 261.2C146.869 259.947 145.56 258.777 144.397 257.428C143.164 255.998 142.052 254.463 141.05 252.862C140.192 251.493 139.505 250.002 138.876 248.514L138.771 248.266C138.163 246.814 137.159 244.924 137.207 243.325ZM159.203 180.967C159.216 180.764 159.515 180.761 159.519 180.967C159.557 182.708 159.594 184.45 159.63 186.192C159.92 200.226 159.741 214.293 161.149 228.279C161.813 234.873 163.035 241.371 164.449 247.841C165.173 251.152 165.933 254.455 166.654 257.766C167.357 260.993 168.111 264.236 168.669 267.493C169.217 270.694 169.708 273.92 169.928 277.162L169.955 277.585C170.05 279.156 170.503 281.466 169.638 282.858C168.702 284.366 166.908 284.393 165.904 282.953C164.962 281.602 165.196 279.198 165.03 277.585C164.861 275.942 164.682 274.298 164.478 272.659C164.082 269.462 163.559 266.272 163.016 263.097C161.884 256.484 160.243 249.955 159.031 243.353C157.789 236.587 156.907 229.774 156.869 222.886C156.832 215.94 157.567 209.007 157.938 202.075C158.315 195.036 158.744 188.001 159.203 180.967ZM92.9321 137.316C93.3088 136.047 94.6381 135.254 95.9348 135.61C97.1232 135.937 98.1043 137.38 97.6398 138.614C97.1327 139.962 96.2467 141.11 95.4996 142.335C94.8096 143.466 93.8031 144.357 93.1003 145.468L93.8748 146.303C94.2623 146.72 94.651 147.134 95.0439 147.541L96.3949 148.941C97.447 150.029 98.5058 151.111 99.5944 152.162C102.796 155.251 106.047 158.238 109.632 160.883C110.448 161.485 111.271 162.084 112.116 162.644L112.432 162.853C113.012 163.233 113.659 163.607 114.36 163.542C116.062 163.386 117.601 161.577 118.771 160.451L118.832 160.392C121.732 157.632 124.417 154.615 126.764 151.37C127.285 150.649 127.79 149.916 128.282 149.174C127.147 147.848 127.418 145.259 127.355 143.651C127.311 142.52 127.308 141.389 127.302 140.257L127.298 140.029C127.285 139.296 127.252 138.593 127.727 137.991C127.754 137.956 127.812 137.957 127.847 137.975C128.498 138.316 128.698 138.888 128.976 139.529L129.005 139.595C129.343 140.364 129.667 141.14 129.994 141.914C130.337 142.724 130.652 143.546 130.97 144.365C131.118 144.747 131.26 145.129 131.398 145.514C131.483 145.76 131.57 146.004 131.66 146.249L131.681 146.267C131.799 146.368 131.899 146.474 131.986 146.583C132.349 146.765 132.638 147.096 132.773 147.583C133.068 148.642 132.458 149.506 131.914 150.346C129.704 153.761 127.185 157.016 124.385 159.968C122.994 161.435 121.531 162.836 120.007 164.165L119.741 164.395C118.373 165.572 116.887 166.686 115.06 166.961C112.921 167.283 111.181 166.219 109.543 164.994L109.38 164.871C107.828 163.695 106.307 162.479 104.834 161.206C101.83 158.612 98.9722 155.826 96.436 152.77C93.9688 149.797 91.5301 146.473 90.0094 142.896C89.9167 142.678 90.1605 142.45 90.3515 142.632C91.0943 143.339 91.809 144.085 92.5153 144.84C92.5349 143.728 92.3298 142.607 92.4438 141.488C92.5831 140.128 92.5429 138.625 92.9321 137.316Z" fill="black"/>
<path fill-rule="evenodd" clip-rule="evenodd" d="M142.394 89.561C141.893 83.0633 142.669 76.2527 140.17 70.0766C135.813 59.8293 123.594 56.4126 114.122 52.5113C110.327 51.3872 97.5579 51.2301 93.1146 49.7423C83.0583 46.3751 80.6557 42.3632 72.665 48.7744C71.3162 49.8697 70.4723 51.06 69.8567 52.6863L69.882 52.6933C69.7062 53.3713 69.8946 54.0478 70.2908 54.5646C66.8261 58.1149 65.3763 63.4375 67.1539 68.1635C72.9551 80.4618 72.6823 87.1115 70.8132 100.333C68.3723 112.676 73.95 117.184 83.1874 123.9C82.8113 124.631 82.7333 125.603 83.2236 126.248C93.9053 141.296 114.046 148.48 131.302 140.843C138.307 137.717 141.434 130.239 143.218 123.491C145.297 115.936 145.936 107.974 144.244 100.278C143.561 96.718 142.672 93.1842 142.394 89.561Z" fill="#FDC6A0"/>
<path fill-rule="evenodd" clip-rule="evenodd" d="M65.8872 71.1284L72.2386 75.3701L94.9735 51.3423L87.4078 45.3727C87.4078 45.3727 73.6819 55.5425 70.9831 58.2266C68.2843 60.9106 65.8872 71.1284 65.8872 71.1284Z" fill="#9FD8E5"/>
<path fill-rule="evenodd" clip-rule="evenodd" d="M80.7797 17.571C82.0763 17.3759 83.0555 18.1823 83.5212 19.319L83.5457 19.3802C83.6954 19.767 83.8619 20.1432 84.0411 20.513C87.2857 18.9174 91.9153 19.3274 93.9687 22.5589C95.434 24.8669 94.5401 27.606 93.9877 30.0534L93.6251 31.666C94.326 32.1132 94.8546 32.9139 94.8298 33.7431L94.8268 33.807L94.6792 36.0557C95.1472 35.5802 95.5752 35.0624 95.9568 34.5108C96.2203 34.0268 96.5049 33.5512 96.8106 33.0905C98.6089 30.3789 102.646 32.7354 101.162 35.6394C100.877 36.1995 100.557 36.73 100.213 37.2414C99.8254 37.9959 99.507 38.7716 99.2625 39.5684C99.9645 39.8748 100.504 40.5554 100.561 41.5826C100.694 43.9814 99.4375 45.9829 97.4389 47.2404C96.8507 47.6103 96.2435 47.6821 95.6933 47.5447C95.5963 47.6758 95.4993 47.8068 95.4065 47.94C96.2035 48.5888 96.9224 49.3285 97.5401 50.1486C99.3995 49.8696 101.27 49.7386 103.139 49.7343C105.425 48.6121 108.161 48.6353 110.617 49.0559C112.199 49.3264 113.716 49.8527 115.272 50.231C116.912 50.6283 118.578 50.6431 120.237 50.9137C122.329 51.2539 124.163 52.2219 125.316 53.7669C126.583 53.8049 127.915 54.3249 129.02 55.0308C131.592 56.6751 134.149 58.3426 136.715 59.9975C137.7 60.6328 138.068 61.6471 137.887 62.7784L137.875 62.8507L137.788 63.3199L137.991 63.6087C138.776 64.7203 139.631 65.8846 140.139 67.1116C141.079 68.4705 141.929 69.895 142.681 71.3639C143.695 73.3379 144.532 75.4303 145.099 77.5776C145.241 78.1208 145.382 78.6682 145.475 79.2219C145.607 80.0039 145.403 80.6105 145.291 81.3608C145.152 82.3119 145.101 83.2756 144.954 84.2288C144.855 84.8608 144.319 85.1714 143.759 85.1883C143.969 86.7967 144.121 88.4157 144.267 90.0219C144.471 92.3172 144.61 94.6188 144.73 96.9204C145.35 97.8229 146.617 98.5372 147.532 98.7845C148.799 99.1248 150.127 98.7549 151.325 98.3217C152.078 98.049 152.695 98.998 152.328 99.632C151.175 101.623 148.709 101.614 146.841 100.733C146.05 100.361 145.357 99.8222 144.842 99.1206C144.874 99.7884 144.908 100.456 144.941 101.126L144.973 101.733C145.352 108.82 146.172 116.151 144.844 123.168C142.544 135.323 132.511 144.578 120.254 145.296C113.822 145.674 108.466 143.769 105.803 142.707C103.139 141.644 104.175 139.478 106.024 140.097C109.209 141.164 115.06 142.753 120.296 142.067C132.638 140.45 143.103 134.266 142.028 107.632C141.875 103.855 141.406 100.076 141.305 96.299C141.208 92.6067 141.243 88.9123 141.081 85.2222L141.027 83.9631C140.964 82.4919 140.896 81.0139 140.786 79.5411C140.653 78.9704 140.544 78.3913 140.381 77.8312C139.941 76.3074 139.365 74.8258 138.65 73.4119C138.492 73.5324 138.315 73.619 138.123 73.6529C136.667 73.9149 135.3 73.8409 133.936 73.2323C133.3 72.9512 132.739 72.5771 132.216 72.1142C131.967 71.8965 131.801 71.6852 131.67 71.4654C131.01 71.4759 130.35 71.2773 129.937 70.8017C129.466 70.2597 129.387 69.6999 129.572 69.1816L129.591 69.13L129.545 69.113C128.988 70.5566 127.879 71.8268 126.663 72.6849C124.74 74.046 122.335 74.4391 120.028 74.475C117.482 74.513 114.796 74.1199 112.283 73.7184C111.619 73.6127 110.959 73.4922 110.312 73.3295C110.286 73.3548 110.261 73.3844 110.234 73.4098C108.077 75.4789 105.043 76.0115 102.307 74.8301C100.726 74.1474 99.3995 73.0484 98.2273 71.7887C98.2105 72.4482 98.1767 73.1076 98.1198 73.7606L98.0963 74.02C97.9795 75.2363 97.755 76.5265 96.838 77.4043C95.356 78.8267 93.2056 78.2561 91.4958 77.3303C91.4979 77.3747 91.4979 77.4212 91.4979 77.4677C91.9596 79.0402 92.4234 80.6147 92.8872 82.1893L92.9871 82.5247C93.3244 83.6427 93.6943 84.7622 93.7959 85.9323C93.9898 88.1684 92.5056 90.377 90.0264 89.6267C88.7259 89.2346 87.6841 88.1384 86.6844 87.2604L86.0545 86.7143C87.6841 92.0551 88.8141 97.5862 88.9196 103.159C88.9259 103.462 88.6666 103.69 88.3799 103.701C87.7094 103.728 86.9884 103.595 86.3138 103.326C86.2759 103.324 86.2379 103.322 86.1978 103.316C85.0468 103.149 83.9779 102.733 83.0355 102.118C83.2527 102.809 83.3496 103.55 83.2927 104.326C83.278 104.514 82.9849 104.58 82.9428 104.373C82.3988 101.691 79.2681 99.6637 76.5696 100.177C73.6729 100.729 71.5394 103.227 71.0166 106.07C70.4558 109.124 71.5289 112.655 73.5169 115.012C74.4319 116.098 75.6357 117.005 77.065 117.233C77.7186 117.337 78.3974 117.301 79.032 117.115C79.3019 117.035 79.5549 116.923 79.8121 116.817C80.1873 116.665 80.6258 116.641 80.98 116.481C81.7832 116.119 82.5907 116.861 82.1838 117.688C81.8296 118.408 81.5113 118.894 80.9231 119.266C81.3995 119.85 81.8317 120.661 81.992 120.879C82.8099 121.987 83.6406 123.033 84.5724 124.045C85.5211 125.072 86.5562 126.011 87.6504 126.879L88.1103 127.244C89.1642 128.082 90.082 128.858 90.8254 130.06C91.4115 131.009 90.6525 132.296 89.5541 132.281C86.1177 132.233 83.6195 129.206 81.8402 126.562C81.5872 126.184 81.3489 125.785 81.1276 125.374C81.0475 125.503 80.9589 125.624 80.8598 125.734L81.0559 126.262C81.6378 127.818 79.1311 128.834 78.4038 127.382C77.8746 126.33 77.2611 125.328 76.578 124.381C76.1754 124.324 75.7811 124.079 75.5619 123.762C75.0074 122.957 74.3855 122.143 73.8606 121.285C73.5696 121.008 73.2703 120.742 72.9646 120.482C72.876 120.56 72.7854 120.638 72.6989 120.721C72.3152 121.598 71.8409 122.399 71.2527 123.153L71.1266 123.314C69.9998 124.738 68.532 126.195 66.7158 126.543C66.1613 126.649 65.628 125.958 66.1192 125.516C67.3904 124.371 68.8936 123.591 70.0658 122.312C70.6433 121.682 71.1735 120.988 71.6295 120.261L71.7334 120.093C71.8093 119.968 71.8873 119.843 71.9674 119.717C71.4382 119.355 70.909 118.992 70.3799 118.628C68.9232 119.876 67.0262 120.447 65.4149 121.48L65.2548 121.585C63.798 122.561 62.2632 120.401 63.4312 119.216C64.7187 117.914 65.7935 116.361 66.934 114.913C66.3977 113.923 66.1438 112.752 66.0488 111.568C66.0112 111.233 65.9819 110.898 65.9526 110.563C65.1346 110.576 64.3124 110.295 63.6167 109.811L63.3532 109.623C62.5078 109.893 61.6202 110.024 60.7706 110.001C58.772 109.942 57.954 107.653 59.2042 106.205C60.4797 104.726 62.7123 104.402 64.4811 105.121C64.538 105.091 64.597 105.06 64.654 105.028C64.5696 104.639 64.5884 104.286 64.6843 103.976L64.6565 103.787C64.2675 103.189 64.0118 102.506 63.9148 101.784C63.8381 101.213 63.8537 100.646 63.9857 100.081C64.0295 99.8935 64.1208 99.6988 64.1906 99.5029C64.0468 99.1389 63.9623 98.7627 63.9361 98.3844C63.8958 98.3365 63.8558 98.2872 63.8178 98.2339C62.9402 96.9986 63.1175 95.5101 63.9528 94.5104C63.9566 94.4468 63.9625 94.3831 63.9711 94.3199C63.9222 94.2096 63.8773 94.0982 63.8364 93.9856C63.0203 93.1603 62.4211 92.1671 62.5329 90.9364C62.5984 90.2124 62.8953 89.5606 63.3445 89.0734C63.2649 88.8371 63.2573 88.5634 63.3538 88.3349C62.6368 86.4231 62.7275 84.1204 63.2436 81.9822C63.1297 81.6567 63.0707 81.3037 63.0833 80.9296C63.1424 79.3424 64.5127 77.8841 66.136 77.9031C66.3315 77.9048 66.5145 77.9304 66.6903 77.9678L66.6926 77.9299C66.7548 77.4536 66.8855 77.0133 67.0763 76.6183C66.9825 76.5843 66.8956 76.5355 66.8195 76.4706C65.7793 77.0268 64.6786 77.4521 63.5246 77.7418C62.676 77.9549 61.8068 76.988 62.3343 76.1895C62.5791 75.819 62.8491 75.4863 63.14 75.1824C62.7264 75.1847 62.3065 75.2128 61.8817 75.2676C61.1185 75.3669 60.2668 74.8449 59.7713 74.139C59.1557 74.7392 58.538 75.3373 57.9203 75.9354C56.356 77.455 53.9927 76.337 53.746 74.3334C53.2801 74.2087 52.8458 73.9973 52.4642 73.6951C49.9976 74.7688 47.3434 75.3584 44.6301 75.4705C42.6821 75.5508 41.5437 73.2766 42.4544 71.6704C43.0658 70.5925 43.8248 69.6245 44.6997 68.7833C43.342 69.1997 41.94 69.4998 40.5085 69.6921C39.7348 69.7957 38.6406 69.1532 38.3307 68.441C37.1459 65.7019 37.2471 62.8465 38.6111 60.1814C38.6638 60.0757 38.7229 59.9743 38.7798 59.8728C38.921 59.5199 39.0749 59.1711 39.2415 58.8287C37.5633 57.0745 37.4179 54.4665 38.3223 52.2832C37.9597 51.6936 37.8205 50.9834 38.0672 50.3409C38.7692 48.4916 39.7812 46.7839 41.0588 45.3171C40.9365 45.0804 40.829 44.8289 40.7383 44.5584C40.0194 42.3709 40.8522 39.7311 42.5324 38.2073C43.5886 37.2478 44.803 36.6729 46.0995 36.3051C46.6456 35.3372 47.3476 34.4643 48.1656 33.7288C48.1972 33.659 48.2288 33.5893 48.2647 33.5195C49.538 31.1144 51.8571 29.8251 54.3427 29.5271C54.4396 28.5866 55.0721 27.6884 55.9913 27.3967C56.2443 26.583 56.6216 25.8053 57.1403 25.0993C57.9561 23.9876 59.3117 23.4635 60.5893 24.1927C61.2892 24.5921 61.9597 25.0507 62.5879 25.558C62.8701 25.4253 63.19 25.3395 63.5509 25.3121L63.642 25.3065L65.7207 25.2008C66.5914 24.814 67.46 24.4082 68.3307 24.013C68.8535 23.5797 69.4375 23.2183 70.0742 22.9499C70.7952 22.6477 71.5331 22.4765 72.2731 22.4194C72.8739 22.2229 73.479 22.0496 74.0946 21.9143C75.5408 21.5973 77.0545 21.4197 78.5556 21.4345C78.5863 21.045 78.6015 20.6509 78.5986 20.2521L78.5956 20.0523C78.5619 18.7736 79.5801 17.7528 80.7797 17.571ZM79.323 119.875C79.1163 119.92 78.9076 119.955 78.6989 119.981C78.7622 120.137 78.8254 120.294 78.8865 120.45C79.0552 120.545 79.226 120.636 79.3967 120.721C79.3461 120.433 79.3166 120.144 79.323 119.875ZM68.4916 116.648L68.3514 116.907C68.3287 116.95 68.3063 116.991 68.2843 117.032C68.5816 117.009 68.8809 117.016 69.1761 117.049L69.1753 117.018C69.1373 117.005 69.0994 116.993 69.0631 116.975C68.8594 116.877 68.6701 116.767 68.4916 116.648ZM74.3454 104.844C76.2106 104.953 77.7909 105.24 79.4872 106.058L79.6329 106.129C81.1318 106.875 83.6111 108.253 83.4024 110.229C83.3433 110.791 82.9364 111.383 82.2955 111.339C80.5394 111.218 79.5359 109.443 78.3468 108.335C77.1473 107.22 75.6736 106.072 74.2211 105.305C74.0157 105.197 74.0966 104.855 74.32 104.844L74.3454 104.844ZM65.8873 78.8077C65.4403 78.8225 65.59 79.2578 65.8198 78.8943C65.8388 78.8647 65.862 78.8352 65.8873 78.8077ZM90.0129 49.7424C85.78 49.854 81.5199 52.3595 78.349 54.8921C75.5903 57.0955 73.2083 59.7162 71.099 62.5409C70.5563 63.9476 70.0904 65.3838 69.6968 66.8305C69.4375 67.7858 69.2752 68.7516 69.058 69.7154L68.9906 70.0109C68.82 70.3304 68.6933 70.6743 68.601 71.0296C68.9853 71.4159 69.4839 71.6926 70.0329 71.8238C70.2098 71.8661 70.3567 71.9576 70.4729 72.0789C70.9147 71.3396 71.301 70.5593 71.5257 69.7321L71.5339 69.6938C72.3833 68.2991 73.3059 66.9478 74.2948 65.6427C77.0229 62.0391 80.0271 58.7548 83.6385 56.022C86.3771 53.9508 89.4382 52.3276 92.6933 51.273C91.8966 50.6286 90.9917 50.1188 90.0129 49.7424Z" fill="black"/>
<path fill-rule="evenodd" clip-rule="evenodd" d="M123.152 128.274C121.732 127.695 120.465 126.728 119.538 125.493C119.216 125.063 119.133 124.61 119.2 124.195C119.276 123.729 119.552 123.306 119.928 123.023C120.305 122.739 120.777 122.598 121.233 122.67C121.63 122.732 122.024 122.949 122.337 123.399L122.402 123.489C122.953 124.235 123.67 124.846 124.488 125.241C125.276 125.621 126.158 125.798 127.07 125.695C128.808 125.499 130.005 124.559 131.278 123.282C131.436 123.121 131.594 122.955 131.752 122.786C131.852 122.633 131.991 122.534 132.146 122.483C132.317 122.425 132.511 122.429 132.689 122.491C132.86 122.55 133.013 122.664 133.116 122.815C133.213 122.958 133.269 123.135 133.251 123.339C133.134 124.661 132.443 125.842 131.461 126.769C130.37 127.799 128.924 128.511 127.563 128.761C126.064 129.036 124.536 128.839 123.152 128.274V128.274ZM128.271 107.866C129.866 108.836 132.297 111.098 130.581 113.503C128.56 115.624 125.652 113.193 124.219 112.093C122.89 111.241 121.396 113.433 122.629 114.428C132.987 122.099 137.19 108.12 129.078 106.726C128.184 106.572 127.853 107.566 128.271 107.866ZM109.711 98.9429C109.887 96.7541 113.219 96.257 113.551 98.423C113.847 100.363 113.498 102.145 112.624 103.892C111.79 105.561 109.692 104.783 109.533 103.263C109.32 101.226 109.601 100.304 109.711 98.9429ZM135.076 97.9739C135.541 97.3652 136.212 96.9497 137.015 97.1845C139.526 97.9185 138.786 101.485 137.904 103.22C137.425 104.163 135.876 104.402 135.176 103.572C134.036 102.219 133.489 99.5157 134.94 98.1825C134.979 98.1136 135.023 98.044 135.076 97.9739ZM112.589 89.3654L112.986 89.2959C114.213 89.0836 115.738 88.8796 116.606 89.8665C117.067 90.3898 117.225 91.3624 116.606 91.8633C115.518 92.7446 114.314 92.4031 113.01 92.4777C111.935 92.5394 110.902 92.7174 109.867 93.0135C107.595 93.6629 105.744 94.8486 103.804 96.1505C103.55 96.3213 103.29 95.9956 103.411 95.7574C104.531 93.563 106.701 91.7604 108.875 90.6616C110.036 90.0751 111.305 89.5885 112.589 89.3654ZM132.787 88.3823L133.091 88.4445C136.395 89.1353 140.687 90.5153 142.251 93.7615C142.311 94.2205 142.248 94.3189 142.197 94.3832L142.18 94.4046C142.137 94.4595 142.104 94.5351 141.905 94.5976C141.85 94.5844 141.794 94.5705 141.737 94.5557C141.02 94.3677 140.453 94.1087 139.904 93.84L139.308 93.5465C138.617 93.2076 137.92 92.881 137.181 92.6399C135.605 92.1255 133.983 91.7631 132.337 91.5696C131.98 91.5277 131.636 91.4072 131.365 91.2006C131.108 91.0046 130.911 90.7332 130.821 90.3724C130.705 89.9056 130.739 89.5521 130.989 89.1309C131.177 88.8146 131.447 88.5953 131.756 88.4694C132.071 88.3411 132.43 88.3108 132.787 88.3823Z" fill="black"/>
<path fill-rule="evenodd" clip-rule="evenodd" d="M109.449 129.598C111.16 125.59 114.893 122.644 119.191 121.566C122.347 120.777 125.66 120.803 128.877 121.116C130.563 121.279 132.371 121.412 133.96 122.038C135.317 122.573 136.422 123.585 137.254 124.772C138.243 126.179 138.916 127.789 139.389 129.439C139.456 129.674 139.519 129.91 139.578 130.148C139.372 131.393 138.936 132.453 137.783 133.235C136.658 134 135.316 134.313 133.978 134.424C133.847 134.361 133.72 134.296 133.604 134.229C131.518 133.035 130.051 130.213 127.419 130.595C125.07 130.936 123.524 133.893 122.127 135.626C117.644 136.149 113.164 134.801 109.516 132.236C109.33 131.359 109.32 130.473 109.449 129.598M142.625 126.557C142.266 125.551 141.815 124.575 141.279 123.657C139.509 120.619 136.792 118.198 133.566 116.814C125.934 113.546 116.06 115.85 109.897 121.211C107.792 123.044 105.663 125.737 105.019 128.634C104.827 128.672 104.646 128.772 104.496 128.913C100.044 126.108 95.4583 123.41 91.8702 119.523C89.2645 116.698 87.4522 113.355 86.3424 109.682C86.2516 109.38 85.7643 109.424 85.779 109.759C85.7833 109.837 85.7875 109.915 85.7917 109.993C85.7453 109.849 85.5258 109.923 85.509 110.063C84.9119 114.525 84.165 119.256 84.8528 123.741C85.2642 126.418 86.4795 128.377 88.1041 130.493C89.8448 132.761 91.8154 134.87 93.8303 136.893C95.1089 138.177 96.4444 139.658 98.01 140.6C99.8308 141.694 101.896 142.525 103.84 143.369C105.816 144.23 107.823 145.026 109.867 145.716C113.954 147.099 118.178 148.056 122.476 148.475C125.917 148.809 129.85 149.173 133.148 147.878C135.675 146.886 137.716 145.092 139.334 142.933C141.096 140.583 142.488 137.905 143.258 135.082C144.058 132.149 142.794 127.03 142.625 126.557" fill="black"/>
</g>
<defs>
<clipPath id="clip0_2016_14090">
<rect width="200" height="267" fill="white"/>
</clipPath>
</defs>
</svg>
