<svg width="200" height="267" viewBox="0 0 200 267" fill="none" xmlns="http://www.w3.org/2000/svg">
<g clip-path="url(#clip0_2016_14098)">
<rect width="200" height="267" fill="white"/>
<path fill-rule="evenodd" clip-rule="evenodd" d="M169.444 219.877C168.032 215.534 169.714 210.519 168.614 205.838C168.238 203.987 167.521 197.108 166.802 193.085C166.4 190.836 168.807 190.137 169.177 189.239C171.78 181.172 152.79 162.193 151.63 161.494C149.893 160.489 148.356 159.625 146.659 158.599C141.708 156.859 135.77 152.019 131.282 155.128C123.505 143.546 126.581 129.277 122.361 127.581C118.141 125.885 105.679 122.457 98.554 126.834C94.2834 129.995 94.5982 135.437 92.6497 139.924C91.506 142.037 90.944 145.097 89.6126 146.475C85.0887 151.156 79.4473 151.963 73.1405 152.758C72.6601 152.818 72.1548 151.511 71.688 151.673C61.0494 155.351 48.6704 156.424 36.6222 177.021C34.9206 179.967 30.3304 184.693 31.8653 188.097C21.7523 211.623 11.8015 264.573 39.5505 277.778C40.4375 278.346 46.4548 275.302 47.4353 275.331C49.0697 275.378 45.9381 279.348 47.4353 278.64C58.4273 279.475 118.911 277.322 142.095 279.475C158.038 279.355 168.135 282.152 171.817 279.355C170.345 275.797 170.413 271.987 170.879 268.225C174.267 265.703 170.078 247.928 170.433 242.723C173.604 238.919 171.079 224.655 169.444 219.877Z" fill="#FDC6A0"/>
<path fill-rule="evenodd" clip-rule="evenodd" d="M72.5188 152.723L72.4168 152.789C72.3999 152.8 72.3833 152.811 72.3674 152.823C72.2588 152.905 72.2759 153.052 72.4039 153.102C72.5742 153.168 72.7531 153.219 72.9374 153.258C73.4968 154.07 73.9339 155.074 74.2392 155.582C75.1162 157.044 82.6443 166.231 83.7695 167.412C85.5976 169.33 94.6003 176.543 94.7224 176.399C96.1705 177.264 97.6709 178.041 99.2294 178.703C108.453 182.624 120.282 182.98 128.209 176.467C128.799 176.629 134.403 168.557 135.269 165.666C135.692 165.783 136.215 162.684 135.923 162.731C136.178 160.98 133.108 154.687 132.817 154.386C132.861 154.372 132.905 154.359 132.949 154.347C132.974 154.402 133.033 154.444 133.101 154.426C133.687 154.273 134.28 154.192 134.873 154.205C135.324 154.214 138.542 155.681 138.667 155.741C138.744 155.778 138.821 155.815 138.898 155.852C164.648 168.235 168.617 188.359 169.507 188.313C169.132 188.788 158.958 203.179 158.411 204.451C158.297 201.701 160.177 275.014 160.309 276.545C160.363 277.176 160.367 278.666 160.456 279.266C159.809 279.302 137.166 277.755 95.0598 278.009C81.6142 278.09 48.3817 279.553 48.3817 279.553L48.3708 279.462C48.2755 278.564 48.3584 276.823 48.3452 275.928C49.6214 275.191 50.8741 274.407 52.1121 273.637C54.9309 271.883 72.3239 255.945 85.1067 241.685C92.6847 233.232 102.138 227.543 102.65 226.989C102.66 226.978 102.665 226.966 102.672 226.954C102.699 226.974 102.732 226.993 102.774 226.987C108.662 226.145 117.447 227.956 123.915 224.607C126.802 223.112 136.6 212.932 139.487 210.119C139.574 210.035 139.636 209.945 139.68 209.854C141.605 208.681 149.109 202.731 149.64 201.996L149.798 201.775C150.384 200.944 151.266 200.068 150.244 199.27C149.167 198.429 147.102 199.44 145.966 199.924L145.808 199.99C145.255 200.217 144.713 200.464 144.179 200.727C143.505 198.837 141.861 198.798 140.089 199.059C138.826 199.245 137.6 199.677 136.369 200.006C134.807 200.424 133.237 200.817 131.662 201.186C128.826 201.85 125.548 203.065 122.679 203.568C122.603 203.48 122.498 203.41 122.357 203.375C121.375 203.13 120.291 203.318 119.283 203.336C118.42 203.352 117.556 203.354 116.693 203.342L116.175 203.333C114.324 203.295 111.841 202.434 109.99 202.402L109.88 202.334L109.77 202.265C109.293 201.956 108.775 201.544 108.634 201.025C108.616 200.96 110.508 196.604 110.536 193.079C110.551 191.119 109.879 189.285 109.718 188.313C109.327 185.94 108.451 187.468 107.183 189.793C105.915 192.117 104.225 194.231 102.958 195.922C101.324 198.101 99.7214 198.76 98.8884 200.023C98.7473 200.237 98.6085 200.458 98.4731 200.684C98.1473 200.359 95.4006 206.832 95.8808 208.079C95.5464 207.968 82.0422 225.299 52.676 237.769C52.8632 236.603 57.9577 205.855 56.6901 200.783C55.4225 195.71 38.6586 176.963 36.9154 176.547C37.0899 176.263 30.2817 180.916 42.5352 168.869C54.7887 156.822 62.954 154.782 69.0542 152.543C69.3957 152.437 69.7355 152.33 70.0736 152.221C69.9882 152.373 70.1819 152.539 70.3307 152.417C71.1741 151.719 71.9062 152.046 72.5188 152.723Z" fill="#9DDADB"/>
<path fill-rule="evenodd" clip-rule="evenodd" d="M164.39 193.84C162.869 196.053 161.471 198.331 160.208 200.701C159.557 201.923 158.949 203.17 158.402 204.442C158.289 201.692 158.264 198.909 157.942 196.186C157.919 195.989 157.592 195.894 157.557 196.134C157.202 198.603 157.144 201.136 157.01 203.631C156.855 203.584 156.684 203.557 156.496 203.557C154.671 203.557 152.873 203.706 151.054 203.854C150.239 203.92 149.387 203.97 148.555 204.1C149.224 203.361 149.848 202.58 150.423 201.766C151.01 200.935 151.68 199.636 150.658 198.838C149.529 197.957 147.314 199.11 146.222 199.558C145.669 199.785 145.126 200.032 144.593 200.295C143.918 198.405 141.852 198.155 140.081 198.416C138.818 198.602 137.592 199.034 136.361 199.363C134.798 199.781 133.229 200.174 131.654 200.543C128.817 201.207 125.962 201.788 123.093 202.291C123.017 202.202 122.911 202.133 122.771 202.098C121.789 201.852 120.705 202.04 119.697 202.059C118.661 202.078 117.624 202.077 116.588 202.055C114.738 202.018 112.888 202.002 111.038 201.97C110.512 201.651 109.845 201.193 109.682 200.593C109.478 199.844 110.115 199.014 110.41 198.376C111.545 195.927 111.942 193.186 111.497 190.519C111.417 190.043 111.254 189.523 111.018 189.036C113.045 189.253 115.046 189.4 117.085 189.467C121.155 189.599 125.226 189.738 129.298 189.768C137.441 189.829 145.583 189.83 153.726 189.77C158.33 189.736 162.923 189.694 167.521 189.459C167.146 189.934 166.782 190.419 166.426 190.912C166.353 190.89 166.257 190.93 166.268 191.021C166.271 191.053 166.275 191.085 166.279 191.116C165.63 192.024 165.005 192.945 164.39 193.84M155.336 278.056C153.443 277.996 151.552 277.936 149.659 277.876C145.945 277.757 142.231 277.639 138.517 277.521C131.16 277.287 123.802 277.061 116.443 276.857C109.102 276.655 101.757 276.441 94.414 276.67C87.054 276.9 79.7129 277.494 72.3667 277.971C68.2827 278.235 64.1957 278.465 60.1041 278.575C56.2073 278.679 52.276 278.521 48.3853 278.799C48.2545 277.837 48.3507 276.878 48.3365 275.919C49.6128 275.182 50.8654 274.398 52.1034 273.628C56.6169 270.819 60.8833 267.642 64.9075 264.169C65.5261 263.635 66.1326 263.09 66.7331 262.539C66.3152 263.452 66.6496 264.63 67.8473 265.017C69.3078 265.488 70.8031 265.321 72.32 265.285C73.8604 265.249 75.4007 265.214 76.9413 265.182C79.9521 265.118 82.9631 265.061 85.9741 265.01C91.8562 264.912 97.7385 264.839 103.621 264.791C115.456 264.695 127.283 264.857 139.117 265.07C142.444 265.13 145.768 265.205 149.096 265.129C150.76 265.092 152.432 265.08 154.095 264.99C155.427 264.918 156.767 264.73 158.099 264.56C158.267 266.881 158.443 269.201 158.638 271.52C158.768 273.051 158.901 274.582 159.032 276.113C159.086 276.744 159.09 277.389 159.179 277.989C157.901 278.059 156.63 278.097 155.336 278.056M156.637 212.522C156.59 214.298 156.566 216.076 156.553 217.854C156.399 217.765 156.226 217.701 156.031 217.672C153.962 217.356 151.748 217.595 149.654 217.631C147.63 217.664 145.6 217.653 143.578 217.749C141.552 217.844 139.527 217.959 137.502 218.063C136.551 218.113 135.611 218.156 134.668 218.284C134.022 218.372 133.196 218.366 132.506 218.55C135.401 215.745 138.281 212.923 141.169 210.11C141.255 210.025 141.318 209.936 141.361 209.845C143.287 208.672 145.135 207.351 146.809 205.838C148.136 206.35 149.647 206.415 151.054 206.529C152.874 206.677 154.67 206.826 156.496 206.826C156.62 206.826 156.735 206.814 156.844 206.793C156.755 208.701 156.687 210.61 156.637 212.522M81.458 247.032C85.8784 248.444 90.6676 248.429 95.2662 248.711C100.169 249.013 105.064 249.264 109.972 249.455C119.775 249.836 129.571 250.354 139.372 250.765C144.97 251.001 150.567 251.26 156.163 251.542C156.56 251.562 156.939 251.46 157.273 251.274C157.461 254.96 157.681 258.645 157.937 262.328C157.969 262.789 158.005 263.249 158.037 263.709C155.404 263.379 152.79 263.062 150.136 262.838C147.157 262.586 144.178 262.374 141.194 262.176C135.38 261.791 129.556 261.274 123.73 261.086C111.855 260.702 99.9543 260.833 88.0749 260.917C84.7136 260.941 81.3526 260.974 77.9915 261.014C76.3111 261.035 74.6307 261.057 72.9503 261.081C71.2614 261.106 69.4464 260.931 67.8473 261.52C67.8321 261.526 67.8192 261.534 67.8042 261.54C72.6285 256.967 76.9504 251.913 81.458 247.032M96.9972 232.413C104.385 233.758 111.888 233.666 119.376 233.799C127.038 233.936 134.71 233.845 142.374 233.861C146.727 233.87 151.117 234.062 155.455 233.674C155.967 233.628 156.365 233.434 156.648 233.158C156.727 237.773 156.872 242.386 157.071 246.998C156.79 246.878 156.483 246.805 156.163 246.787C146.371 246.21 136.578 245.687 126.774 245.368C116.978 245.049 107.169 244.67 97.3673 244.788C92.584 244.846 87.5258 244.54 82.8082 245.583C84.601 243.677 86.4323 241.807 88.3479 240.016C91.1406 237.405 94.1207 234.96 96.9972 232.413M102.641 226.98C102.651 226.969 102.656 226.957 102.663 226.945C102.69 226.965 102.723 226.978 102.765 226.977C109.68 226.821 117.438 229.004 123.906 225.654C126.793 224.159 129.185 221.796 131.506 219.525C131.507 219.541 131.509 219.558 131.51 219.575C131.525 219.76 131.603 219.981 131.79 220.063C132.553 220.398 133.446 220.42 134.265 220.539C135.207 220.676 136.132 220.757 137.083 220.814C139.178 220.939 141.273 221.073 143.369 221.191C145.46 221.31 147.56 221.319 149.654 221.371C151.754 221.424 153.953 221.678 156.031 221.378C156.222 221.351 156.392 221.291 156.543 221.208C156.546 223.897 156.57 226.586 156.595 229.274C156.6 229.712 156.608 230.15 156.613 230.588C156.333 230.331 155.947 230.151 155.455 230.108C151.601 229.768 147.718 229.919 143.85 229.932C140.053 229.945 136.255 229.957 132.457 229.97C124.789 229.996 117.127 230.07 109.459 230.216C105.731 230.288 102.019 230.601 98.3448 231.205C99.8324 229.849 101.278 228.454 102.641 226.98M42.5558 275.879C41.1401 276.312 39.7348 276.125 38.3163 276.421C38.2291 276.439 38.1486 276.473 38.0748 276.518C33.8271 274.702 30.9957 271.059 29.0579 266.977C27.0154 262.673 25.6075 258.073 24.6644 253.41C22.7199 243.796 22.7165 233.828 23.723 224.102C24.7119 214.547 26.67 205.044 29.4642 195.854C31.3827 189.545 33.8277 183.17 37.2226 177.417C41.1426 180.044 44.1828 183.828 47.0467 187.525C50.4691 191.945 53.5531 196.621 56.3138 201.48C56.0283 202.312 55.984 203.356 55.8471 204.1C55.5832 205.535 55.3449 206.987 55.1575 208.434C54.7572 211.527 54.3731 214.621 53.9638 217.713C53.1545 223.826 52.1881 229.922 51.1206 235.995C51.0342 236.488 51.1724 236.904 51.4265 237.216C49.3092 238.332 47.2195 239.498 45.1836 240.762C40.7074 243.541 36.5241 246.777 33.2398 250.929C33.1544 251.037 33.2881 251.181 33.3938 251.083C40.437 244.573 49.1873 240.485 57.7785 236.446C62.1688 234.381 66.5376 232.283 70.7499 229.87C75.1548 227.346 79.3557 224.494 83.382 221.404C87.9796 217.874 92.3074 214.016 96.3644 209.877C96.8423 209.389 96.7265 208.778 96.3669 208.392C96.4884 208.354 96.5864 208.249 96.5928 208.072C96.6902 205.369 97.5017 203.066 99.0904 200.878C100.564 198.848 102.443 197.175 104.137 195.338C104.89 194.522 105.609 193.672 106.252 192.765C106.913 191.831 107.316 190.801 107.892 189.825C108.564 188.686 109.137 189.268 109.448 190.3C109.802 191.469 109.78 192.839 109.638 194.041C109.488 195.313 109.1 196.554 108.543 197.704C108.019 198.784 107.415 199.883 107.767 201.121C108.347 203.155 110.831 204.334 112.713 204.792C114.809 205.302 117.001 205.203 119.124 204.938C121.781 204.607 124.426 204.122 127.054 203.605C130.096 203.008 133.121 202.318 136.121 201.539C137.532 201.173 138.933 200.691 140.357 200.388C140.865 200.28 141.805 200.117 142.402 200.382C134.73 204.958 126.365 208.006 117.87 210.662C116.814 210.991 117.247 212.586 118.328 212.322C127.454 210.09 136.04 205.947 144.212 201.409C144.337 201.339 144.443 201.231 144.521 201.104C145.343 200.815 146.179 200.564 147.031 200.356C147.412 200.264 149.371 199.617 149.616 199.866C149.963 200.217 148.762 201.36 148.462 201.692C146.327 204.059 143.787 205.99 141.037 207.587C138.248 209.207 135.281 210.498 132.3 211.716C128.96 213.081 125.43 214.154 122.183 215.723C120.894 216.346 121.799 218.463 123.157 218.034C124.908 217.48 126.61 216.667 128.311 215.976C129.757 215.389 131.202 214.803 132.64 214.196C133.642 213.773 134.637 213.335 135.623 212.878C134.146 214.268 132.67 215.658 131.194 217.049C128.637 219.456 126.208 222.199 123.083 223.888C119.996 225.556 116.473 225.75 113.037 225.714C111.311 225.696 109.594 225.641 107.868 225.711C106.052 225.784 104.44 226.063 102.719 226.635C102.687 226.645 102.664 226.664 102.645 226.686C102.585 226.613 102.483 226.576 102.377 226.638C97.7011 229.404 93.4388 232.992 89.3395 236.538C85.1146 240.193 81.1392 244.079 77.3514 248.185C73.7258 252.114 70.1292 256.058 66.184 259.674C62.3319 263.204 58.2154 266.409 53.9169 269.375C51.5748 270.992 49.1748 272.548 46.6916 273.94C45.3646 274.684 44.0169 275.433 42.5558 275.879M42.949 169.486C44.6235 167.604 46.4258 165.86 48.3329 164.247C49.1744 164.496 50.0577 164.566 50.9478 164.575C52.306 164.588 53.6672 164.645 55.0255 164.631C57.6407 164.604 60.255 164.522 62.8709 164.507C68.2195 164.478 73.5699 164.477 78.9186 164.523C79.6193 164.529 80.1249 164.23 80.4369 163.794C81.5197 165.022 82.6356 166.222 83.7608 167.403C85.5889 169.321 87.5379 171.151 89.6125 172.819C89.2086 172.821 88.8048 172.825 88.4032 172.822C86.5531 172.81 84.7029 172.798 82.853 172.788C79.1404 172.768 75.4278 172.752 71.7152 172.743C64.3343 172.723 56.9305 172.785 49.5591 173.163C47.5132 173.268 45.4512 173.31 43.4125 173.51C42.3067 173.618 41.2022 173.744 40.0975 173.862C39.8714 173.886 39.6547 173.916 39.4419 173.95C40.5238 172.395 41.6892 170.901 42.949 169.486M72.5102 152.714C72.4603 152.748 72.4064 152.778 72.3587 152.814C72.2501 152.896 72.2672 153.043 72.3953 153.093C72.5655 153.159 72.7445 153.21 72.9287 153.249C73.4881 154.061 73.9253 155.065 74.2305 155.573C75.1075 157.034 76.1159 158.426 77.1418 159.785C77.348 160.058 77.5582 160.328 77.7693 160.597C72.8013 160.585 67.8359 160.611 62.8709 160.799C60.2569 160.898 57.634 160.981 55.0255 161.177C53.9529 161.258 52.8809 161.393 51.8117 161.527C57.3764 157.503 63.6346 154.43 70.1178 152.149C70.1089 152.159 70.0998 152.166 70.091 152.176C69.9481 152.335 70.1613 152.54 70.3221 152.407C71.1655 151.71 71.8975 152.037 72.5102 152.714M97.6122 200.013C97.471 200.228 97.3322 200.448 97.1968 200.675C96.871 200.35 96.416 200.133 95.8297 200.115C89.3216 199.911 82.8167 199.734 76.305 199.729C73.0937 199.727 69.8533 199.619 66.646 199.778C65.0355 199.858 63.4257 199.953 61.816 200.044C60.6906 200.108 59.495 200.188 58.396 200.514C55.8631 196.082 53.0514 191.82 49.9808 187.746C56.9476 188.601 64.0337 188.51 71.04 188.747C78.9779 189.017 86.9203 189.074 94.861 189.263C97.0392 189.314 99.2174 189.371 101.395 189.432C102.519 189.463 103.643 189.496 104.767 189.53C105.119 189.54 105.482 189.55 105.846 189.54C105.819 189.597 105.791 189.654 105.764 189.71C105.151 190.977 104.38 192.142 103.482 193.224C101.573 195.524 99.2662 197.505 97.6122 200.013M89.0742 213.666C88.8331 212.995 88.2458 212.48 87.3101 212.522C81.9777 212.764 76.6354 212.932 71.3091 213.284C68.7145 213.455 66.1094 213.57 63.5191 213.797C62.183 213.914 60.8493 214.132 59.5189 214.305C58.6069 214.424 57.6519 214.562 56.7771 214.887C56.9467 213.013 57.0963 211.138 57.2262 209.26C57.3304 207.751 57.3621 206.229 57.3541 204.717C57.35 203.951 57.3241 203.181 57.2871 202.416C57.3657 202.432 57.4445 202.44 57.5218 202.43C57.6583 202.413 57.7857 202.397 57.904 202.365C59.13 202.845 60.5176 202.951 61.816 203.044C63.3562 203.154 64.8959 203.271 66.436 203.381C69.713 203.614 73.0208 203.599 76.305 203.706C82.77 203.917 89.2362 204.04 95.7025 204.213C95.4025 205.501 95.3919 206.823 95.8722 208.07C95.5377 207.959 95.1526 208.01 94.8238 208.335C92.9613 210.176 91.0432 211.951 89.0742 213.666M70.2642 227.358C70.1326 226.994 69.8841 226.659 69.59 226.432C68.4593 225.561 66.3952 226.063 65.0381 226.129C63.4314 226.208 61.8245 226.286 60.2178 226.365C59.7302 226.389 57.2414 226.516 55.4136 226.905C55.7913 224.052 56.134 221.194 56.4403 218.331C56.5045 217.73 56.5641 217.128 56.6231 216.527C57.4842 216.804 58.4201 216.906 59.3083 216.948C60.6393 217.011 61.9764 217.119 63.3086 217.14C65.9704 217.181 68.6469 217.05 71.3091 217.006C76.1032 216.926 80.8979 216.697 85.6899 216.508C80.8787 220.415 75.795 223.979 70.4922 227.222C70.4165 227.268 70.3398 227.312 70.2642 227.358M55.1222 229.051C55.5272 229.105 55.9288 229.123 56.236 229.154C57.7783 229.31 59.2964 229.451 60.8465 229.473C62.3835 229.496 63.9202 229.518 65.4572 229.541C65.7841 229.545 66.1109 229.55 66.4377 229.555C62.3907 231.767 58.2194 233.747 54.1071 235.833C54.4694 233.576 54.8076 231.315 55.1222 229.051M99.2207 178.694C108.444 182.615 120.274 182.971 128.2 176.458C128.988 176.673 129.859 176.745 130.554 176.815C132.117 176.972 133.665 177.116 135.235 177.165C138.295 177.261 141.358 177.404 144.42 177.442C150.613 177.518 156.807 177.554 163 177.609C163.527 177.614 163.949 177.453 164.269 177.195C164.896 178.259 165.48 179.35 166.012 180.468C166.789 182.099 167.447 183.784 167.988 185.508C167.872 185.488 167.752 185.474 167.623 185.471C159.483 185.331 151.338 185.565 143.197 185.599C135.054 185.633 126.912 185.598 118.769 185.656C116.516 185.672 114.279 185.673 112.032 185.84C110.862 185.927 109.678 185.965 108.519 186.154C108.39 186.175 108.258 186.193 108.125 186.212C106.573 185.304 104.645 185.494 102.871 185.46C100.833 185.422 98.7955 185.388 96.758 185.357C92.7532 185.298 88.748 185.255 84.7428 185.227C76.7938 185.173 68.8643 185.376 60.9205 185.653C56.9681 185.79 53.0307 186.024 49.1292 186.633C48.8672 186.294 48.6078 185.953 48.3424 185.616C45.578 182.111 42.3008 177.624 37.7518 176.538C37.9263 176.253 38.1033 175.971 38.2831 175.69C41.4348 176.521 44.9117 176.479 48.1318 176.653C51.8436 176.854 55.5475 176.993 59.2637 177.084C66.6507 177.265 74.0362 177.379 81.4246 177.492C83.4752 177.523 85.5257 177.556 87.5763 177.59C88.6823 177.608 89.7885 177.63 90.8947 177.647C91.5126 177.656 92.0651 177.654 92.6539 177.449C93.1992 177.259 93.7307 176.974 94.2581 176.738C94.4421 176.655 94.5917 176.534 94.7138 176.39C96.1618 177.255 97.6622 178.032 99.2207 178.694M135.261 165.656C136.421 165.978 137.618 166.032 138.844 166.125C140.454 166.246 142.06 166.267 143.674 166.277C146.248 166.294 148.822 166.276 151.395 166.205C152.5 166.175 153.145 165.435 153.337 164.587C153.364 164.609 153.391 164.63 153.418 164.652C156.549 167.233 159.386 170.184 161.79 173.452C156 173.47 150.21 173.474 144.42 173.512C141.358 173.533 138.295 173.659 135.235 173.738C133.734 173.776 132.254 173.901 130.759 174.043C130.73 174.046 130.699 174.048 130.668 174.051C130.827 173.868 130.984 173.683 131.138 173.492C132.924 171.277 134.394 168.548 135.261 165.656M172.906 281.939C173.417 280.533 173.218 279.025 173.189 277.547C173.16 276.03 173.144 274.513 173.138 272.996C173.129 270.03 173.108 267.065 173.076 264.099C173.009 258.099 172.94 252.094 172.704 246.098C172.238 234.245 171.339 222.42 169.872 210.646C169.16 204.921 168.275 199.21 167.074 193.567C167.091 193.544 167.108 193.521 167.124 193.498C168.32 191.9 169.68 190.423 170.854 188.814C170.959 188.671 171.002 188.488 171.001 188.303C171.044 188.282 171.087 188.26 171.131 188.235C172.105 187.68 171.225 186.167 170.251 186.729C170.363 186.665 168.746 182.511 168.574 182.093C167.958 180.59 167.266 179.122 166.485 177.698C166.014 176.839 165.51 175.998 164.981 175.173C164.889 174.557 164.556 173.985 163.985 173.68C162.982 172.242 161.898 170.86 160.743 169.544C156.015 164.155 150.109 159.804 143.656 156.705C142.724 156.257 141.764 155.884 140.807 155.493C139.789 155.077 138.845 154.532 137.841 154.095C136.208 153.384 134.596 153.424 132.992 154.178C132.855 154.242 132.953 154.453 133.093 154.417C134.125 154.147 135.183 154.102 136.218 154.395C137.233 154.681 138.004 155.314 138.89 155.843C140.468 156.784 142.232 157.398 143.85 158.277C145.989 159.44 148.08 160.716 150.079 162.118C148.007 162.228 145.934 162.307 143.86 162.362C142.32 162.403 140.78 162.41 139.242 162.5C138.147 162.563 137.008 162.545 135.914 162.722C136.178 160.908 136.178 159.077 135.849 157.31C135.849 157.309 135.848 157.308 135.848 157.308C135.769 156.882 135.672 156.459 135.553 156.041C135.301 155.152 134.49 155.019 133.902 155.355C133.844 155.312 133.785 155.27 133.729 155.224C133.024 154.652 132.39 153.967 131.838 153.247C130.693 151.752 129.767 150.021 129.065 148.276C128.355 146.51 127.852 144.661 127.359 142.824C127.112 141.903 126.844 140.987 126.593 140.067C126.374 139.267 126.214 138.383 125.812 137.654C125.737 137.518 125.51 137.544 125.474 137.699C125.261 138.612 125.374 139.653 125.413 140.584C125.456 141.617 125.515 142.641 125.653 143.667C125.938 145.795 126.397 147.886 127.134 149.907C127.84 151.844 128.772 153.653 130.038 155.285C130.879 156.369 132.074 157.805 133.458 158.39C133.638 160.425 133.618 162.463 133.137 164.479C132.508 167.117 131.304 169.624 129.65 171.773C126.181 176.278 120.815 178.823 115.217 179.347C109.425 179.89 103.497 178.594 98.2929 176.046C92.5039 173.211 87.7016 168.838 83.3881 164.118C80.9015 161.397 78.3232 158.719 76.0187 155.841C75.6103 155.33 74.9567 154.295 74.1813 153.362C74.9704 153.354 75.7802 153.236 76.4786 153.147C77.9237 152.961 79.336 152.674 80.7481 152.314C83.3884 151.643 86.1724 150.708 88.4795 149.23C93.3612 146.101 95.2669 142.133 95.9178 136.665C96.1236 134.937 93.136 134.517 92.8578 136.251C92.4304 138.916 91.7837 140.213 90.9333 142.773C90.1155 145.234 88.931 146.15 86.6668 147.507C84.5412 148.78 82.1256 149.52 79.7839 150.284C78.4863 150.708 77.1733 151.094 75.8647 151.484C75.0317 151.732 74.0427 151.948 73.1976 152.331C72.7567 151.944 72.2968 151.652 71.8337 151.541C71.8677 151.484 71.8236 151.395 71.7382 151.412C71.6022 151.439 71.4665 151.469 71.3305 151.497C71.1938 151.507 71.0577 151.534 70.9219 151.583C62.7657 153.35 54.9331 157.113 48.2913 162.238C47.9564 162.378 47.6326 162.549 47.3243 162.766C47.1657 162.877 47.0605 163.054 47.0303 163.237C46.0318 164.053 45.0629 164.899 44.1268 165.775C36.5875 172.829 31.8105 182.213 28.4664 191.865C25.1721 201.374 22.9421 211.345 21.716 221.329C20.4659 231.505 20.3218 241.893 22.1349 252.012C23.1084 257.446 24.6845 262.785 27.0107 267.797C29.0998 272.298 32.5001 277.425 37.841 277.973C37.8581 277.99 37.8741 278.008 37.8933 278.024C39.9889 279.75 43.1089 278.558 45.2998 277.527C45.6471 277.363 45.9917 277.191 46.3348 277.015C46.1535 277.713 46.0717 278.444 46.0339 279.129C45.9551 280.551 47.9602 280.632 48.3399 279.452C51.5902 280.023 54.9467 280.031 58.2342 280.013C61.9075 279.993 65.5795 279.866 69.2486 279.693C76.5285 279.349 83.7997 278.824 91.0844 278.586C105.835 278.103 120.625 279.135 135.364 279.655C139.498 279.801 143.633 279.947 147.767 280.093C151.992 280.242 156.212 280.27 160.402 280.842C161.943 281.052 162.533 279.541 162.098 278.6C162.207 277.968 162.099 277.275 162.039 276.53C161.929 275.139 161.824 273.747 161.726 272.355C161.535 269.64 161.35 266.925 161.175 264.209C160.819 258.705 160.513 253.198 160.216 247.691C159.625 236.742 159.172 225.785 158.839 214.825C158.758 212.154 158.652 209.482 158.518 206.812C158.677 206.559 158.836 206.306 158.99 206.049C159.502 205.195 160.004 204.335 160.523 203.484C161.563 201.779 162.61 200.085 163.704 198.413C164.649 196.97 165.624 195.549 166.642 194.157C167.906 204.837 169.03 215.528 169.546 226.276C170.114 238.115 170.415 249.972 170.579 261.822C170.625 265.133 170.656 268.444 170.691 271.755C170.71 273.479 170.728 275.202 170.714 276.926C170.7 278.575 170.451 280.379 171.036 281.939C171.377 282.849 172.569 282.866 172.906 281.939Z" fill="black"/>
<path fill-rule="evenodd" clip-rule="evenodd" d="M108.441 56.3939C118.725 56.3939 138.571 68.3416 138.571 68.3416C138.571 68.3416 147.889 107.488 146.011 118.668C144.133 129.849 134.354 143.546 118.163 143.546C101.972 143.546 97.5738 137.819 93.6793 135.216C89.7847 132.613 81.9352 120.768 81.9352 120.768C81.9352 120.768 76.6089 122.431 75.0456 121.469C72.8255 120.103 73.095 116.509 72.3934 113.034C71.8763 110.474 70.1157 107.961 70.1164 106.535C70.1164 101.363 73.7825 101.732 75.6294 100.493C71.5825 96.4963 72.6476 82.6375 77.7456 75.3587C82.8437 68.08 98.1574 56.3939 108.441 56.3939Z" fill="#FDC6A0"/>
<path fill-rule="evenodd" clip-rule="evenodd" d="M126.939 47.5652C127.839 47.4208 128.562 48.6885 127.609 49.1586C123.555 51.1607 119.299 52.667 115.172 54.492C117.28 54.7456 119.43 55.1463 121.508 55.7666C123.899 54.7815 126.354 53.9835 128.882 53.4194L129.683 53.2412C132.257 52.6752 135.154 52.1399 137.654 53.0072C138.513 53.305 138.461 54.3926 137.654 54.7078C136.203 55.275 134.599 55.4238 133.063 55.6018C131.516 55.7808 129.986 55.9993 128.462 56.3219C127.351 56.5567 126.246 56.8295 125.151 57.1396C125.838 57.461 126.508 57.8133 127.154 58.2037C130.634 60.3075 133.802 62.7095 136.454 65.8269C139.027 68.8524 141.052 72.2788 142.429 76.0083C142.79 76.9847 143.022 78.0225 143.171 79.0528C143.291 79.8779 143.216 80.6863 143.237 81.5002C143.28 81.5171 143.317 81.5499 143.329 81.5993C143.822 83.5613 143.885 85.6934 144.04 87.7105C144.202 89.8029 144.368 91.8946 144.506 93.9889C144.643 96.0724 144.622 98.2466 145.011 100.3C145.364 102.165 146.414 103.821 147.005 105.627C150.55 116.459 147.09 129.439 138.467 136.92C134.114 140.697 128.686 143.091 122.992 143.88C120.031 144.291 117.091 144.28 114.134 143.843C112.731 143.636 111.344 143.324 109.989 142.9L109.487 142.744C108.924 142.568 108.354 142.377 107.835 142.118C107.094 141.748 106.774 141.125 106.514 140.368C106.356 139.909 106.611 139.203 107.068 139.003L107.217 138.939C108 138.61 108.631 138.468 109.486 138.791C110.175 139.051 110.874 139.282 111.582 139.483C112.987 139.882 114.428 140.179 115.882 140.322C118.811 140.61 121.775 140.463 124.648 139.818C129.812 138.658 134.541 136.056 138.122 132.13C141.621 128.295 143.812 123.402 144.652 118.294C145.069 115.759 145.103 113.098 144.768 110.552C144.594 109.23 144.299 107.919 143.916 106.643C143.7 105.923 143.422 105.225 143.196 104.509C142.991 103.86 142.929 103.167 142.835 102.49L142.813 102.334C142.559 100.614 142.646 98.8616 142.648 97.1279C142.65 95.384 142.64 93.6398 142.657 91.8959L142.674 89.9242C142.68 89.2668 142.688 88.6093 142.699 87.9521C142.459 87.9904 142.161 87.8135 142.138 87.5271C142.053 86.4674 141.814 85.4383 141.682 84.3845L141.647 84.1073C141.522 83.1388 141.37 82.1893 140.966 81.2933C140.147 79.4742 139.569 77.5547 138.792 75.7177C137.249 72.0681 134.948 68.7004 132.099 65.9516C128.679 62.6516 124.442 60.3081 119.9 58.9711C119.756 59.0318 119.61 59.0897 119.467 59.1516C116.591 60.3956 113.861 61.9962 111.268 63.7544C109.932 64.6607 108.646 65.639 107.419 66.6892C106.822 67.2005 106.223 67.7113 105.639 68.2384C105.389 68.4637 105.142 68.6922 104.897 68.9236C104.734 69.0775 104.572 69.2328 104.412 69.3894C104.042 69.6498 104.034 70.0163 104.388 70.488C104.514 70.436 104.595 70.6438 104.479 70.7055C103.779 71.0783 103.229 70.2815 103.377 69.6211C103.495 69.0981 103.979 68.618 104.319 68.2073L104.365 68.1518C104.894 67.4964 105.436 66.8456 106.011 66.2297C109.041 62.9855 112.616 60.3031 116.493 58.1665C114.863 57.8738 113.211 57.7056 111.56 57.6641C110.61 57.6407 109.663 57.6561 108.72 57.7089C107.251 58.5095 105.8 59.3431 104.377 60.2276C103.19 60.9658 102.019 61.7324 100.869 62.5282C100.27 62.9426 99.678 63.3666 99.0881 63.7939C98.7908 64.0097 98.3365 64.2657 98.0979 64.5364L98.0798 64.5586C97.9128 64.7774 97.4301 65.7322 98.0578 65.7058C98.1248 65.7031 98.1377 65.807 98.0734 65.8227C97.501 65.9622 97.4266 65.3706 97.5246 64.9244C97.7694 63.8118 99.2508 62.9127 100.084 62.2187L100.137 62.1737C101.823 60.738 103.564 59.3674 105.354 58.063C99.7773 58.9215 94.4711 61.1163 89.8587 64.4872C83.9315 68.8184 79.4766 74.9232 76.5084 81.6008C75.098 84.774 73.9284 88.1556 73.5099 91.6142C73.1349 94.7138 73.5342 98.1138 75.9464 100.305C76.0777 100.292 76.2091 100.279 76.3404 100.27L76.545 100.257C78.2631 100.165 81.8461 100.282 81.7305 102.653C81.7256 102.751 81.576 102.813 81.5279 102.708C80.9645 101.481 79.3191 101.701 78.1464 101.895L77.4866 102.004C76.1167 102.232 74.7167 102.526 73.5122 103.24C72.3569 103.926 71.3448 105.021 71.1217 106.393C70.9016 107.745 71.7966 108.765 72.5678 109.759C73.442 110.887 74.1449 112.053 74.2288 113.517C74.3127 114.991 73.5923 116.475 73.8013 117.932C74.2674 121.187 78.9926 120.138 81.0238 119.638C81.6329 119.488 82.4724 119.721 82.7532 120.344C84.0972 123.321 85.9246 126.039 88.2261 128.357C89.3641 129.504 90.5956 130.552 91.9267 131.466C93.2724 132.389 94.5788 133.147 95.5014 134.544C95.8589 135.085 95.3736 135.689 94.8187 135.736C93.0006 135.89 91.5179 134.993 90.0833 133.98C88.6385 132.959 87.2707 131.821 86.0258 130.563C83.8022 128.316 81.9497 125.715 80.5653 122.874L80.3748 122.91C77.2559 123.485 73.7977 123.482 71.773 120.623C70.8723 119.351 70.772 117.861 71.0051 116.363C71.2322 114.903 71.7641 113.536 70.9419 112.173C70.1956 110.936 69.1333 109.917 68.7072 108.497C68.2954 107.125 68.5286 105.671 69.1432 104.402C70.3191 101.974 72.7455 100.776 75.2855 100.386C72.2269 98.5403 71.2012 94.7637 71.1959 91.3119C71.1892 86.989 72.7134 82.6204 74.4415 78.7203C77.7015 71.3632 83.2014 64.8807 89.9127 60.4658C96.141 56.369 103.649 54.1612 111.108 54.2276C113.024 53.0764 114.991 52.0105 116.993 51.0186L117.421 50.8083C120.487 49.3144 123.546 48.1103 126.939 47.5652ZM74.5817 107.419C74.953 106.51 76.585 106.513 77.3553 106.544L77.4968 106.551C79.8409 106.674 83.726 107.633 84.2062 110.26C84.2865 110.699 84.0057 111.278 83.4725 111.226C82.7011 111.151 82.1161 111.009 81.4824 110.554L81.1615 110.324C80.628 109.944 80.0969 109.58 79.512 109.267C78.7948 108.885 78.0552 108.608 77.2746 108.387C76.9545 108.296 76.6322 108.202 76.3107 108.116C76.098 108.06 75.8838 108.011 75.6683 107.968C75.4155 107.812 75.2511 107.908 75.1754 108.258C75.2747 108.292 75.2656 108.465 75.1491 108.453C74.6863 108.403 74.4015 107.859 74.5817 107.419ZM82.0299 103.606C82.0299 103.595 82.0434 103.593 82.0488 103.6L82.051 103.606V104.58C82.051 104.591 82.0375 104.593 82.0321 104.587L82.0299 104.58V103.606Z" fill="black"/>
<path fill-rule="evenodd" clip-rule="evenodd" d="M123.152 128.274C121.732 127.695 120.465 126.728 119.538 125.493C119.216 125.063 119.133 124.61 119.2 124.195C119.276 123.729 119.552 123.306 119.928 123.023C120.305 122.739 120.777 122.598 121.233 122.67C121.63 122.732 122.024 122.949 122.337 123.399L122.402 123.489C122.953 124.235 123.67 124.846 124.488 125.241C125.276 125.621 126.158 125.798 127.07 125.695C128.808 125.499 130.005 124.559 131.278 123.282C131.436 123.121 131.594 122.955 131.752 122.786C131.852 122.633 131.991 122.534 132.146 122.483C132.317 122.425 132.511 122.429 132.689 122.491C132.86 122.55 133.013 122.664 133.116 122.815C133.213 122.958 133.269 123.135 133.251 123.339C133.134 124.661 132.443 125.842 131.461 126.769C130.37 127.799 128.924 128.511 127.563 128.761C126.064 129.036 124.536 128.839 123.152 128.274V128.274ZM128.271 107.866C129.866 108.836 132.297 111.098 130.581 113.503C128.56 115.624 125.652 113.193 124.219 112.093C122.89 111.241 121.396 113.433 122.629 114.428C132.987 122.099 137.19 108.12 129.078 106.726C128.184 106.572 127.853 107.566 128.271 107.866ZM109.711 98.9429C109.887 96.7541 113.219 96.257 113.551 98.423C113.847 100.363 113.498 102.145 112.624 103.892C111.79 105.561 109.692 104.783 109.533 103.263C109.32 101.226 109.601 100.304 109.711 98.9429ZM135.076 97.9739C135.541 97.3652 136.212 96.9497 137.015 97.1845C139.526 97.9185 138.786 101.485 137.904 103.22C137.425 104.163 135.876 104.402 135.176 103.572C134.036 102.219 133.489 99.5157 134.94 98.1825C134.979 98.1136 135.023 98.044 135.076 97.9739ZM112.589 89.3654L112.986 89.2959C114.213 89.0836 115.738 88.8796 116.606 89.8665C117.067 90.3898 117.225 91.3624 116.606 91.8633C115.518 92.7446 114.314 92.4031 113.01 92.4777C111.935 92.5394 110.902 92.7174 109.867 93.0135C107.595 93.6629 105.744 94.8486 103.804 96.1505C103.55 96.3213 103.29 95.9956 103.411 95.7574C104.531 93.563 106.701 91.7604 108.875 90.6616C110.036 90.0751 111.305 89.5885 112.589 89.3654ZM132.787 88.3823L133.091 88.4445C136.395 89.1353 140.687 90.5153 142.251 93.7615C142.311 94.2205 142.248 94.3189 142.197 94.3832L142.18 94.4046C142.137 94.4595 142.104 94.5351 141.905 94.5976C141.85 94.5844 141.794 94.5705 141.737 94.5557C141.02 94.3677 140.453 94.1087 139.904 93.84L139.308 93.5465C138.617 93.2076 137.92 92.881 137.181 92.6399C135.605 92.1255 133.983 91.7631 132.337 91.5696C131.98 91.5277 131.636 91.4072 131.365 91.2006C131.108 91.0046 130.911 90.7332 130.821 90.3724C130.705 89.9056 130.739 89.5521 130.989 89.1309C131.177 88.8146 131.447 88.5953 131.756 88.4694C132.071 88.3411 132.43 88.3108 132.787 88.3823Z" fill="black"/>
<path fill-rule="evenodd" clip-rule="evenodd" d="M128.503 116.101C126.153 115.042 121.934 115.966 120.403 116.333C116.842 117.187 113.26 119.034 112.153 121.926C110.905 125.185 113.394 126.212 113.76 126.044C116.225 126.218 119.161 124.667 121.744 124.267C123.841 123.94 126.053 123.654 128.018 122.539C129.453 123.329 132.693 123.755 135.307 124.446C137.534 125.033 138.499 126.307 140.564 126.036C143.038 125.712 142.025 120.506 139.268 118.396C136.25 116.088 131.145 115.152 128.503 116.101ZM133.155 138.361C131.099 138.862 130.961 134.355 130.731 132.763C130.551 131.519 129.537 128.311 126.964 128.449C124.392 128.588 123.425 131.276 123.555 132.947C123.64 134.031 124.639 139.523 121.451 140.217C119.419 140.21 117.068 140.073 114.931 139.679C112.416 139.109 109.146 137.114 108.282 141.043C107.971 142.457 119.05 146.658 123.966 147.038C128.951 148.049 134.784 146.494 138.334 142.679C139.142 141.811 141.416 138.208 141.578 137.325C141.918 135.471 141.13 134.277 138.836 134.931C137.216 135.797 134.477 138.039 133.155 138.361Z" fill="black"/>
</g>
<defs>
<clipPath id="clip0_2016_14098">
<rect width="200" height="267" fill="white"/>
</clipPath>
</defs>
</svg>
