<svg width="200" height="267" viewBox="0 0 200 267" fill="none" xmlns="http://www.w3.org/2000/svg">
<g clip-path="url(#clip0_2016_14127)">
<rect width="200" height="267" fill="white"/>
<path fill-rule="evenodd" clip-rule="evenodd" d="M23.008 273.246C22.7205 273.255 22.8111 273.172 22.9168 273.151C22.9472 273.183 22.9776 273.215 23.008 273.246ZM31.4978 279.56C39.5317 280.513 47.5755 279.641 55.5699 278.767C71.7657 277.566 87.8475 281.065 104.075 279.998C124.355 279.143 144.69 277.538 164.903 280.243C170.494 280.372 179.411 281.881 177.383 273.223C174.72 250.964 171.159 228.817 167.345 206.729C164.113 194.346 163.879 172.928 155.027 164.317C153.733 163.135 149.091 159.311 147.864 158.798C141.763 156.525 130.764 154.752 126.226 149.935C122.55 143.713 124.26 135.223 118.545 130.214C113.536 126.123 102.602 126.988 97.2471 130.06C93.0217 132.801 92.3598 138.124 89.727 142.061C89.0775 143.004 87.5349 145.278 86.6638 146.012C84.5434 148.054 77.096 150.2 74.9453 150.594C62.8086 153.082 56.757 154.619 47.2113 162.687C22.2695 188.16 25.805 233.214 18.9035 266.524C18.6211 270.186 16.3958 275.155 20.3659 277.513C23.7853 279.151 27.8057 278.973 31.4978 279.56Z" fill="#FDC6A0"/>
<path fill-rule="evenodd" clip-rule="evenodd" d="M123.444 141.467C123.474 141.38 123.613 141.365 123.634 141.467C123.974 143.024 124.612 144.732 125.259 146.193C125.916 147.672 126.814 149.031 127.948 150.185C130.325 152.603 133.382 153.706 136.735 153.708L136.815 153.71C136.83 153.598 136.848 153.485 136.864 153.372L136.887 153.203C137.193 150.887 139.942 150.954 140.478 152.702C140.751 152.789 141.023 152.876 141.294 152.966L141.348 152.986C141.803 153.159 143.345 153.927 143.628 153.723C144.252 153.275 144.964 153.789 145.2 154.361C145.587 155.299 145.652 156.458 145.777 157.476L145.794 157.607L145.813 157.766C154.633 160.059 159.583 168.887 162.11 177.02C163.479 181.429 164.375 185.977 165.275 190.5C166.238 195.338 167.126 200.188 168.066 205.028C169.919 214.566 171.672 224.126 173.195 233.721L173.637 236.508C175.032 245.331 176.392 254.149 177.535 263.012C178.152 267.791 178.73 272.574 179.288 277.361C179.388 278.215 179.487 279.069 179.585 279.923L179.732 281.205C179.863 282.355 180.085 283.492 179.516 284.568C178.285 286.901 174.554 286.884 174.342 283.896C174.3 283.302 174.501 282.848 174.833 282.531L174.828 282.48C174.825 282.45 174.821 282.428 174.82 282.418C174.71 281.825 174.68 281.197 174.613 280.596C174.465 279.316 174.321 278.035 174.176 276.752C173.895 274.309 173.611 271.866 173.318 269.425C172.724 264.473 172.097 259.527 171.431 254.586L170.772 249.7C168.566 233.414 166.267 217.131 163.242 200.975C162.419 196.576 161.572 192.185 160.703 187.795C159.879 183.638 158.954 179.499 157.572 175.486C155.316 168.93 151.371 162.79 145.895 158.487C145.98 159.309 146.041 160.135 146.119 160.958C146.32 163.069 146.533 165.178 146.749 167.288C147.533 174.93 148.595 182.56 150.408 190.033C151.306 193.736 152.4 197.39 153.733 200.96C154.39 202.718 155.107 204.453 155.892 206.157C156.67 207.841 158.033 209.642 158.115 211.519C158.153 212.388 157.245 213.159 156.404 213.066C156.797 216.524 157.019 220.017 157.253 223.467C157.595 228.463 157.868 233.468 158.267 238.46C158.981 247.402 159.877 256.332 160.815 265.253C161.001 267.021 161.203 268.788 161.403 270.555L161.57 272.039C161.683 273.001 161.854 274.153 161.343 275.006C161.8 276.108 162.112 277.238 162.294 278.418C162.524 279.884 161.686 281.529 159.974 281.465C159.78 281.459 159.585 281.442 159.391 281.421C157.804 281.789 156.222 282.112 154.574 282.123C152.47 282.137 150.361 282.095 148.257 282.08C144.186 282.053 140.115 282.025 136.044 281.992C121.306 281.873 106.561 281.88 91.8256 281.643L85.9296 281.549C80.5246 281.462 75.1188 281.362 69.7164 281.165C65.996 281.03 62.2758 280.893 58.5572 280.742L57.8002 280.714C54.5192 280.594 51.2344 280.533 47.9896 280.03C47.9083 280.016 47.8731 279.932 47.8857 279.858L47.8903 279.838L47.7488 279.806C47.6664 280.161 45.9551 278.669 45.9678 277.678C45.2579 276.754 45.5896 275.279 45.6657 274.21C45.7396 273.168 45.8326 272.124 45.915 271.082C46.0903 268.856 46.2403 266.629 46.4199 264.403C47.1446 255.429 47.7699 246.432 48.1756 237.439C48.3805 232.905 48.5453 228.37 48.7185 223.836C48.7965 221.772 48.9051 219.706 49.1075 217.652L49.1601 217.139C49.3819 215.055 49.3608 212.815 50.1277 210.851C50.1382 210.824 50.1741 210.824 50.1847 210.851C50.9601 212.762 51.034 214.983 51.1903 217.08C51.2178 217.071 51.2453 217.067 51.2748 217.061C52.346 216.551 53.4277 216.093 54.4417 215.463C54.5791 215.378 54.7122 215.289 54.8474 215.203C56.4425 210.321 58.291 205.519 59.9918 200.668C65.4868 184.984 68.5206 168.281 69.1925 151.673C65.0009 154.376 60.4359 156.479 55.9982 158.738L55.5826 158.95C51.2115 161.186 47.0263 163.724 43.9143 167.602C41.2016 170.98 39.4291 175.095 37.7706 179.062C35.9896 183.325 34.384 187.664 32.9157 192.043C29.9368 200.928 27.6298 210.031 25.8298 219.227C24.053 228.302 22.7833 237.445 21.934 246.652C21.5009 251.348 21.1058 256.048 20.7741 260.755C20.6051 263.137 20.4551 265.521 20.3157 267.907C20.2481 269.065 20.1974 270.226 20.1213 271.384C20.0748 272.052 20.0664 272.741 19.8467 273.375C19.6629 273.903 19.3375 274.345 19.0333 274.812C18.4777 275.664 17.0748 275.818 16.553 274.812L16.3271 274.376C16.028 273.796 15.7548 273.212 15.7143 272.542C15.6763 271.908 15.7544 271.247 15.7903 270.61C15.8601 269.323 15.9403 268.034 16.0206 266.747C16.1896 264.039 16.3777 261.332 16.5889 258.627C17.0094 253.208 17.5502 247.804 18.2305 242.41C20.6241 223.467 24.0805 204.623 30.6763 186.645C32.3072 182.2 34.1263 177.791 36.1798 173.524C38.1657 169.399 40.6777 165.504 44.3241 162.663C47.6808 160.048 51.5826 158.297 55.4594 156.598L55.9439 156.386C60.2896 154.486 64.627 152.44 69.165 151.028C69.0636 151.041 68.9643 151.054 68.8779 151.083C68.7784 151.115 68.7194 150.986 68.7807 150.916C69.0382 150.631 69.146 150.337 69.442 150.056C69.6463 149.862 69.8589 149.678 70.0776 149.501L70.3922 149.25C70.968 148.793 71.5733 148.326 72.2981 148.167C73.3229 147.943 73.8258 148.875 73.5382 149.604C73.6861 149.412 74.0833 149.469 74.1868 149.733C77.5587 158.432 79.7727 167.64 84.3108 175.86C87.6615 181.932 92.1572 187.539 98.1234 191.206C101.328 193.176 104.996 194.689 108.784 194.928C112.185 195.141 115.458 194.277 118.35 192.491C123.957 189.031 127.619 182.957 130.23 177.071C133.101 170.591 135.15 163.686 136.354 156.686C132.539 156.739 128.512 154.998 125.975 152.159C124.64 150.665 123.645 148.845 123.14 146.905C122.63 144.948 122.793 143.339 123.444 141.467ZM91.4346 136.384C91.8996 135.553 92.9306 135.278 93.7736 135.617C94.7093 135.993 94.9905 136.902 94.8574 137.825C94.703 138.907 94.0079 140.076 93.4672 141.021C92.9011 142.01 92.1722 142.921 91.4177 143.773C89.9982 145.379 88.479 146.827 86.6771 148.01C84.8834 149.187 82.8551 150.069 80.7701 150.561L80.2744 150.677C78.6524 151.048 76.3448 151.473 74.9938 150.591C74.9285 150.549 74.9304 150.462 74.9938 150.42C75.7248 149.91 76.7032 149.819 77.5438 149.579C78.4607 149.314 79.3799 149.014 80.2565 148.638C81.987 147.894 83.6433 146.913 85.1177 145.742C86.5989 144.568 88.0311 143.166 89.0222 141.549C89.5208 140.738 89.9454 139.886 90.353 139.028C90.7651 138.168 90.972 137.212 91.4346 136.384Z" fill="black"/>
<path fill-rule="evenodd" clip-rule="evenodd" d="M150.253 115.557C146.691 99.369 145.997 81.5919 136.596 67.4576C132.488 61.6943 125.887 54.1791 118.176 56.5477C118.494 53.135 118.794 49.7209 119.071 46.3046C119.23 44.3505 119.959 41.7469 118.31 40.2444C115.586 38.0396 111.077 41.4133 108.972 43.2984C104.412 47.6763 102.611 51.9284 96.6035 54.8523C94.1955 53.1319 91.8487 51.3267 89.4046 49.6528C86.9142 47.9472 83.3517 45.1767 80.7672 48.3253C78.5768 50.9943 79.976 55.2012 80.8446 58.1377C81.2888 59.6396 81.7303 61.2788 82.3476 62.8233C82.3996 63.9974 82.4903 65.1693 82.6233 66.3379C78.1733 67.1317 73.5934 67.7996 69.3417 69.3574C67.0231 70.6165 67.2276 73.4758 68.8725 75.1873C71.334 77.5771 74.4489 79.4458 77.8495 80.7002C77.232 82.8424 75.7518 84.659 73.8906 85.8468C73.2664 86.2435 72.9162 86.8253 72.7895 87.4461C71.8356 87.9214 70.8141 88.2642 69.7351 88.4868C68.4044 88.7622 67.6356 90.3367 67.9786 91.5881C68.945 94.6294 72.3506 92.8911 74.563 92.6764C74.6296 94.8002 74.6642 97.0133 75.6261 98.9807C70.4844 100.333 66.0302 105.266 67.219 110.823C68.2988 116.135 74.019 117.759 78.5471 118.966C78.8901 119.168 78.889 119.367 78.998 119.869C79.7452 123.313 79.1161 127.102 77.9382 130.371C77.6171 131.263 78.089 132.378 78.8022 132.912C82.4896 135.266 83.7122 128.098 87.9158 132.661C87.6021 132.614 86.8216 132.222 86.8617 132.789C92.3152 142.384 108.417 142.973 118.283 143.209C119.467 143.786 120.83 143.459 122.185 143.09C123.477 143.02 124.767 142.923 126.055 142.791C128.405 142.366 132.54 142.87 132.687 139.551C138.758 137.151 143.978 133.003 147.537 127.508C150.177 123.862 151.22 120.002 150.253 115.557V115.557Z" fill="#FDC6A0"/>
<path fill-rule="evenodd" clip-rule="evenodd" d="M79.2244 124.912C79.621 127.278 80.5502 129.54 82.1172 131.537C82.2056 131.649 82.2956 131.761 82.3867 131.872L82.2814 131.929L82.1737 131.985C81.3477 132.407 80.5075 132.63 79.7345 131.976C79.0524 131.398 79.3624 130.215 79.4208 129.417L79.44 129.123L79.4844 128.503L79.5008 128.252C79.5495 127.455 79.5592 126.641 79.3529 125.898C79.3157 125.764 79.2377 125.667 79.1403 125.607C79.1672 125.413 79.1915 125.219 79.2128 125.024L79.2244 124.912ZM73.8936 85.8532C73.3203 87.9524 72.9462 90.0851 72.7251 92.258C72.0828 92.2726 71.4402 92.3385 70.7986 92.1847C70.3671 92.0815 69.9638 91.9222 69.5814 91.6962C69.4456 91.6157 69.2508 91.406 69.0882 91.3209C69.4382 91.1237 69.8485 90.4209 70.1213 90.1428C70.5421 89.714 70.9806 89.3023 71.4343 88.9089C72.025 88.3964 73.3536 87.7049 73.4687 86.8922C73.4748 86.8485 73.4647 86.8039 73.4232 86.7804C73.3162 86.7201 73.2062 86.6848 73.0942 86.6686C73.2672 86.3782 73.5071 86.1155 73.8207 85.9013L73.8936 85.8532ZM85.8537 49.4145L85.9533 49.4646L86.4439 49.7011C87.3618 50.1489 88.26 50.6269 89.1571 51.1168C91.3418 52.3099 93.4941 53.5423 95.624 54.8296C95.7939 54.9323 96.0301 54.7197 95.908 54.5449C95.8157 54.4128 95.7224 54.2818 95.628 54.1519L95.6766 54.188C96.0126 54.4434 96.5655 54.9949 95.5394 55.7348C93.1093 57.4873 90.9182 59.5801 88.8439 61.7369C85.6099 65.1001 82.7784 68.8611 80.586 72.9786C78.7379 74.9972 77.2314 77.4307 76.0483 79.9704C75.6889 79.8093 75.3336 79.6411 74.9831 79.4659C75.2725 79.4256 75.5253 79.3158 75.8475 79.1353L75.9231 79.0924L76.0591 79.0132C76.5438 78.7276 76.6948 77.9642 76.2453 77.5665C75.8553 77.2209 75.6891 76.9565 75.1743 76.7908C74.7221 76.645 74.2475 76.5799 73.7901 76.4518C72.8268 76.1823 71.9312 75.7556 71.0983 75.2027C70.3513 74.7068 69.6709 74.0902 69.1126 73.3858L68.9727 73.2057L68.8344 73.0304C68.5704 72.6915 68.2569 72.2386 68.4181 71.8693C68.584 71.4894 69.3586 71.0869 69.7252 70.8601L69.9309 70.731C73.5508 68.494 77.7567 68.1922 81.8139 67.2993C81.9769 67.2636 81.9225 67.0417 81.777 67.0269C81.0316 66.9524 80.2789 66.9058 79.5236 66.887C80.5613 66.7044 81.5977 66.5275 82.627 66.3439C82.5597 65.752 82.5031 65.1593 82.457 64.5659C82.9159 64.9567 83.5367 65.0659 84.3977 64.6217C85.0892 64.2649 85.3226 63.3464 85.0367 62.6665C84.9407 62.4378 84.8086 62.2558 84.6506 62.1151L84.6025 62.0741L84.0977 59.7848L82.9899 54.6998L82.9568 54.5541L82.9195 54.3995L82.693 53.5108C82.281 51.8667 81.8435 49.6316 83.2684 48.8444C84.0511 48.4121 85.0935 49.0283 85.8537 49.4145ZM117.361 41.9723L117.396 42.1307L117.477 42.4812C117.649 43.2589 117.759 44.0559 117.847 44.8456C118.051 46.6854 118.088 48.5459 117.97 50.3927C117.912 51.2977 117.814 52.2097 117.7 53.1079C117.578 54.0706 117.305 55.0189 117.234 55.9861C116.946 56.3542 116.68 56.7548 116.377 57.0866C115.567 57.974 114.616 58.6415 113.375 58.6563C111.01 58.6843 109.024 56.8405 106.728 56.4358L106.572 56.41C106.189 56.3375 103.179 55.559 103.548 54.2459L103.563 54.1976C103.684 53.8419 103.548 53.3926 103.283 53.1375C103.152 53.0107 103.011 52.9132 102.863 52.8393C105.183 48.6935 108.316 45.1568 112.609 42.8431L113.198 42.531L113.52 42.3634C114.501 41.8581 115.617 41.346 116.639 41.2594C117.155 41.2154 117.268 41.5574 117.361 41.9723Z" fill="#C93305"/>
<path fill-rule="evenodd" clip-rule="evenodd" d="M113.438 39.0317L113.792 38.8765C115.014 38.3461 116.348 37.8375 117.686 38.1275C119.227 38.4614 120.118 39.7898 120.499 41.238C120.94 42.9131 121.138 44.6963 121.259 46.4205C121.384 48.2062 121.335 49.9881 121.201 51.771C121.089 53.2621 120.858 54.9901 120.304 56.4353C120.328 56.4142 120.356 56.3985 120.39 56.3949C122.569 56.1711 124.577 56.3015 126.658 57.0051C128.597 57.6605 130.476 58.5801 132.163 59.7419C135.807 62.251 138.626 66.0405 140.59 69.9638C144.58 77.9345 145.422 86.9512 146.54 95.6678L146.574 95.9318C147.176 100.593 147.975 105.183 149.258 109.705L149.479 110.476C150.656 114.612 151.358 118.636 150.42 122.918C148.605 131.199 142.209 137.449 134.809 141.057C131.031 142.899 126.943 144.259 122.815 145.042C118.58 145.846 113.997 145.981 110.135 143.785C108.221 142.696 109.906 139.915 111.841 140.859C115.834 142.807 120.359 142.166 124.503 141.095C128.625 140.029 132.668 138.537 136.32 136.322C142.588 132.52 147.862 125.957 148.035 118.335C148.132 114.046 146.304 109.95 145.423 105.809C144.646 102.161 144.164 98.4582 143.709 94.7563L143.371 92.0065C142.393 84.1205 141.167 76.0021 137.127 69.0324C133.561 62.8802 127.419 57.9881 120.35 56.6868C120.308 56.6792 120.28 56.6587 120.263 56.6327C120.047 57.8 118.763 58.8884 117.942 59.5601C116.779 60.5125 115.369 61.2025 113.835 61.1717C110.879 61.1123 108.339 58.8134 106.313 56.8882C106.084 56.6714 106.332 56.3687 106.591 56.408C108.944 56.7629 110.961 58.6788 113.372 58.6503C114.613 58.6355 115.563 57.968 116.374 57.0806C116.676 56.7487 116.942 56.3482 117.23 55.9801C117.301 55.0129 117.574 54.0646 117.696 53.1019C117.811 52.2036 117.908 51.2917 117.966 50.3867C118.084 48.5399 118.047 46.6794 117.843 44.8396C117.756 44.0499 117.645 43.2529 117.473 42.4752L117.393 42.1247C117.286 41.6429 117.216 41.2039 116.635 41.2534C115.344 41.3629 113.9 42.1527 112.771 42.7487C108.392 45.0602 105.209 48.6344 102.859 52.8333C103.007 52.9072 103.148 53.0047 103.28 53.1315C103.545 53.3866 103.681 53.8359 103.559 54.1916C103.09 55.5662 101.423 55.6064 100.249 56.1447C98.9709 56.731 97.77 57.4847 96.6329 58.3102C94.3943 59.9351 92.3378 61.844 90.3822 63.7966C87.3023 66.8714 84.4423 70.1437 81.6803 73.501L81.0925 74.8171C80.5059 76.133 79.932 77.4534 79.4572 78.8241C78.6843 81.053 78.0369 83.3315 77.5391 85.638C77.0382 87.9595 76.7117 90.3342 76.5879 92.7062C76.4774 94.8226 76.7576 96.9376 76.7458 99.0418C76.9334 99.3937 77.0013 99.7904 76.913 100.195C77.5037 100.362 78.0759 100.618 78.6133 100.97C78.7442 101.057 78.6611 101.262 78.5066 101.224C77.8252 101.056 77.1436 101.018 76.4762 101.083C76.122 101.521 75.5486 101.8 74.9922 101.788L74.7548 101.783V101.783C74.5809 101.779 74.4084 101.751 74.2419 101.703C73.3029 102.137 72.4389 102.762 71.7076 103.508C69.9491 105.303 69.0999 107.654 69.2247 110.166C69.3483 112.644 70.6647 114.879 72.845 116.069C73.8175 116.599 74.8982 116.879 76.0037 116.899C77.0673 116.918 78.4632 116.594 79.337 117.289C79.4353 117.367 79.5 117.471 79.5398 117.586C79.6008 117.328 79.6655 117.071 79.7361 116.814C79.7901 116.619 80.1154 116.596 80.1552 116.814L80.2065 117.1C80.9387 121.238 81.1963 125.498 84.1054 128.81C85.466 130.36 87.1064 131.757 88.7892 132.943L89.0676 133.138C89.7866 133.635 90.5634 134.118 91.4205 134.298C92.373 134.499 93.1604 134.444 94.0364 134.968C94.4481 135.215 94.7009 135.76 94.5493 136.233C93.5776 139.266 89.748 137.903 87.8175 136.704C86.744 136.037 85.6994 135.232 84.7288 134.344C83.8823 134.861 82.8771 135.195 82.0134 135.324C80.6812 135.524 79.2668 135.246 78.2049 134.384C77.0814 133.472 76.6971 132.144 76.8879 130.735C76.9828 130.034 77.1643 129.35 77.3598 128.671L77.5214 128.116C77.7571 127.309 77.9414 126.475 78.4166 125.77C78.6565 125.414 79.2259 125.448 79.3493 125.892C79.6315 126.909 79.5094 128.057 79.4363 129.117L79.4205 129.36C79.3727 130.157 79.0339 131.379 79.7308 131.97C80.5703 132.681 81.4891 132.356 82.383 131.866C82.2919 131.755 82.2019 131.643 82.1135 131.531C79.2211 127.845 78.5017 123.257 79.294 118.772C78.5475 119.754 76.6016 119.967 75.569 119.89C73.9478 119.771 72.3525 119.277 70.9716 118.408C68.0793 116.589 66.4526 113.399 66.3835 110.006C66.316 106.711 67.7865 103.379 70.4981 101.46C71.2145 100.953 72.0114 100.559 72.8433 100.3C72.4389 98.6904 72.3961 96.9121 72.4838 95.172C71.5138 95.3043 70.4637 95.1325 69.5867 94.8332L69.4506 94.7855C68.0989 94.3002 66.3823 93.3248 66.1292 91.8022C65.8176 89.9297 68.1228 88.8535 69.4602 88.1055C70.0858 87.7558 70.7255 87.4287 71.3896 87.1587L71.5895 87.0794C72.1628 86.8583 72.8376 86.446 73.4195 86.7744C73.461 86.7979 73.4711 86.8425 73.465 86.8862C73.3499 87.6989 72.0213 88.3904 71.4306 88.9029C70.9769 89.2963 70.5384 89.708 70.1176 90.1368C69.8448 90.4149 69.4345 91.1177 69.0845 91.3149C69.2471 91.4 69.4419 91.6097 69.5777 91.6902C69.9601 91.9162 70.3634 92.0755 70.7949 92.1787C71.4365 92.3325 72.0791 92.2666 72.7214 92.252C72.9822 89.6892 73.4557 87.1823 74.2181 84.7203C75.4967 80.5897 77.5925 76.2382 80.5823 72.9726C82.7747 68.8551 85.6062 65.0941 88.8402 61.7309C90.9145 59.5741 93.1056 57.4813 95.5357 55.7288C96.6131 54.9519 97.7462 54.2519 98.9489 53.688L99.3485 53.5042C100.016 53.1945 100.828 52.7925 101.603 52.6775C102.103 50.6849 102.996 48.7791 104.079 47.0518C105.57 44.6718 107.534 42.6644 109.831 41.0604C110.965 40.2687 112.173 39.5879 113.438 39.0317ZM73.5853 108.433C75.5128 107.135 77.8768 106.628 80.1802 106.819C81.3229 106.914 82.4531 107.183 83.5239 107.593L83.9654 107.768C84.9881 108.179 86.0858 108.686 86.1225 109.926C86.137 110.416 85.7754 110.806 85.339 110.958C84.2746 111.329 83.4121 110.441 82.5332 109.968C81.6459 109.49 80.7026 109.175 79.731 108.92C79.6378 108.896 79.5444 108.874 79.4512 108.851C79.5018 108.953 79.5305 109.065 79.5206 109.187C79.4965 109.477 79.4124 109.692 79.3306 109.964C79.3059 110.046 79.2459 110.55 79.1843 110.612C79.2043 110.783 79.2064 110.945 79.2117 111.117C79.2265 111.626 79.1639 112.057 78.9045 112.507C78.2586 113.63 76.412 113.734 75.7937 112.507C75.1753 111.281 75.6585 110.081 76.5982 109.199C76.8543 108.959 77.1958 108.715 77.5669 108.546C76.264 108.427 74.9466 108.483 73.645 108.655C73.518 108.672 73.4986 108.492 73.5853 108.433ZM73.7006 67.2948C76.3443 66.8442 79.1052 66.7543 81.7733 67.0208C81.9188 67.0356 81.9732 67.2576 81.8102 67.2933C77.753 68.1862 73.5471 68.488 69.9272 70.725L69.7605 70.8296C69.4131 71.0511 68.5864 71.4693 68.4144 71.8633C68.2114 72.3283 68.7612 72.926 69.0169 73.2616C69.5918 74.0153 70.3061 74.6732 71.0946 75.1967C71.9275 75.7496 72.8231 76.1763 73.7864 76.4458C74.2438 76.5739 74.7184 76.639 75.1706 76.7848C75.6854 76.9505 75.8516 77.2149 76.2416 77.5605C76.6911 77.9582 76.5401 78.7216 76.0554 79.0072L75.9194 79.0864C75.2825 79.4518 74.9285 79.5595 74.1195 79.4165C73.4866 79.3045 72.8821 79.0828 72.2897 78.8364C71.2013 78.3833 70.2079 77.7901 69.2913 77.0514L69.1544 76.9395C67.5176 75.5831 64.7442 72.6161 66.571 70.4561C68.1833 68.5502 71.3518 67.6951 73.7006 67.2948ZM80.2116 46.7441C82.7471 43.7497 86.3281 45.7943 88.869 47.5846C91.6073 49.5138 93.9833 51.7894 95.9043 54.5389C96.0264 54.7137 95.7902 54.9263 95.6203 54.8236C93.4904 53.5363 91.3381 52.3039 89.1534 51.1108C88.2563 50.6209 87.3581 50.1428 86.4402 49.6951L85.9496 49.4586C85.183 49.0792 84.0822 48.3869 83.2647 48.8384C81.5017 49.8124 82.5898 53.0029 82.9531 54.548L82.9862 54.6938L84.094 59.7787V59.7787L84.5988 62.068V62.068C84.7782 62.2139 84.9274 62.4089 85.0331 62.6605C85.3189 63.3404 85.0855 64.2589 84.3941 64.6157C82.3531 65.6686 81.662 63.6122 81.2777 62.0668C80.9654 60.8114 80.6498 59.5567 80.3336 58.3023L79.8105 56.2292C79.0092 53.091 77.8717 49.5071 80.2116 46.7441Z" fill="black"/>
<path fill-rule="evenodd" clip-rule="evenodd" d="M123.152 128.274C121.732 127.695 120.465 126.728 119.538 125.493C119.216 125.063 119.133 124.61 119.2 124.195C119.276 123.729 119.552 123.306 119.928 123.023C120.305 122.739 120.777 122.598 121.233 122.67C121.63 122.732 122.024 122.949 122.337 123.399L122.402 123.489C122.953 124.235 123.67 124.846 124.488 125.241C125.276 125.621 126.158 125.798 127.07 125.695C128.808 125.499 130.005 124.559 131.278 123.282C131.436 123.121 131.594 122.955 131.752 122.786C131.852 122.633 131.991 122.534 132.146 122.483C132.317 122.425 132.511 122.429 132.689 122.491C132.86 122.55 133.013 122.664 133.116 122.815C133.213 122.958 133.269 123.135 133.251 123.339C133.134 124.661 132.443 125.842 131.461 126.769C130.37 127.799 128.924 128.511 127.563 128.761C126.064 129.036 124.536 128.839 123.152 128.274V128.274ZM128.271 107.866C129.866 108.836 132.297 111.098 130.581 113.503C128.56 115.624 125.652 113.193 124.219 112.093C122.89 111.241 121.396 113.433 122.629 114.428C132.987 122.099 137.19 108.12 129.078 106.726C128.184 106.572 127.853 107.566 128.271 107.866ZM109.711 98.9429C109.887 96.7541 113.219 96.257 113.551 98.423C113.847 100.363 113.498 102.145 112.624 103.892C111.79 105.561 109.692 104.783 109.533 103.263C109.32 101.226 109.601 100.304 109.711 98.9429ZM135.076 97.9739C135.541 97.3652 136.212 96.9497 137.015 97.1845C139.526 97.9185 138.786 101.485 137.904 103.22C137.425 104.163 135.876 104.402 135.176 103.572C134.036 102.219 133.489 99.5157 134.94 98.1825C134.979 98.1136 135.023 98.044 135.076 97.9739ZM112.589 89.3654L112.986 89.2959C114.213 89.0836 115.738 88.8796 116.606 89.8665C117.067 90.3898 117.225 91.3624 116.606 91.8633C115.518 92.7446 114.314 92.4031 113.01 92.4777C111.935 92.5394 110.902 92.7174 109.867 93.0135C107.595 93.6629 105.744 94.8486 103.804 96.1505C103.55 96.3213 103.29 95.9956 103.411 95.7574C104.531 93.563 106.701 91.7604 108.875 90.6616C110.036 90.0751 111.305 89.5885 112.589 89.3654ZM132.787 88.3823L133.091 88.4445C136.395 89.1353 140.687 90.5153 142.251 93.7615C142.311 94.2205 142.248 94.3189 142.197 94.3832L142.18 94.4046C142.137 94.4595 142.104 94.5351 141.905 94.5976C141.85 94.5844 141.794 94.5705 141.737 94.5557C141.02 94.3677 140.453 94.1087 139.904 93.84L139.308 93.5465C138.617 93.2076 137.92 92.881 137.181 92.6399C135.605 92.1255 133.983 91.7631 132.337 91.5696C131.98 91.5277 131.636 91.4072 131.365 91.2006C131.108 91.0046 130.911 90.7332 130.821 90.3724C130.705 89.9056 130.739 89.5521 130.989 89.1309C131.177 88.8146 131.447 88.5953 131.756 88.4694C132.071 88.3411 132.43 88.3108 132.787 88.3823Z" fill="black"/>
<path fill-rule="evenodd" clip-rule="evenodd" d="M146.773 116.395C146.491 115.554 145.042 115.627 145.131 116.618C145.234 117.749 144.846 119.012 143.762 119.561C142.628 120.136 141.351 119.619 140.658 118.632C140.056 117.774 139.641 116.841 138.884 116.093C138.18 115.397 137.323 114.861 136.386 114.542C135.657 114.294 134.9 114.228 134.165 114.31C132.336 113.896 130.216 114.837 129.076 116.264C129.002 116.356 128.934 116.45 128.868 116.546C128.755 116.392 128.637 116.239 128.511 116.089C128.188 115.702 127.787 115.619 127.425 115.724C125.363 114.19 122.473 113.987 120.131 115.371C118.255 116.481 116.702 118.116 114.395 118.243C112.567 118.344 110.577 117.3 110.448 115.291C110.38 114.242 108.951 113.367 108.149 114.339C106.464 116.381 106.127 119.094 107.059 121.564C108.043 124.17 110.048 126.005 112.587 127.085C115.328 128.251 118.541 128.656 121.506 128.564C124.463 128.472 127.151 127.334 128.933 124.915C129.146 124.626 129.333 124.333 129.497 124.036C131.227 126.24 133.939 127.167 136.702 127.233C139.592 127.302 143.008 126.795 145.052 124.55C147.021 122.385 147.701 119.167 146.773 116.395" fill="black"/>
</g>
<defs>
<clipPath id="clip0_2016_14127">
<rect width="200" height="267" fill="white"/>
</clipPath>
</defs>
</svg>
