<svg width="200" height="267" viewBox="0 0 200 267" fill="none" xmlns="http://www.w3.org/2000/svg">
<g clip-path="url(#clip0_2016_14108)">
<rect width="200" height="267" fill="white"/>
<path fill-rule="evenodd" clip-rule="evenodd" d="M31.5018 284.886C44.4381 285.249 56.6584 285.648 69.5698 284.886C90.2309 283.608 150.864 285.912 164.192 284.886C165.198 284.809 168.657 285.912 168.729 284.886C169.315 277.741 169.695 205.452 167.954 200.478C166.213 195.503 157.622 171.593 146.674 160.443C143.621 157.431 138.976 156.264 136.41 152.783C134.197 148.987 134.369 146.76 132.184 144.763C131.236 143.896 129 143.545 127.338 142.342C125.668 140.681 127.25 137.024 126.564 134.711C125.15 128.936 119.943 125.231 114.252 124.358C106.342 122.464 97.9907 124.255 94.2017 130.471C92.7913 132.784 93.5419 135.597 91.8073 139.304C91.9311 142.106 88.6613 142.783 86.7068 143.893L82.8255 147.818C70.8678 154.548 56.8009 158.183 46.3235 167.226C37.4156 176.266 28.5554 186.714 24.603 198.945C23.7848 202.278 23.5178 205.723 23.1787 209.128C22.2106 219.08 19.5151 228.739 17.1954 238.433C14.5503 250.647 12.0847 263.612 15.6496 275.942C16.6774 278.551 29.162 284.764 31.5018 284.886Z" fill="#FDC6A0"/>
<path fill-rule="evenodd" clip-rule="evenodd" d="M91.7543 139.278L92.7646 139.386V147.168L105.975 160.916L108.39 163.677C106.951 168.811 108.4 171.378 112.737 171.378C119.244 171.378 114.214 169.486 115.437 166.926L115.489 166.821C116.376 165.069 119.411 161.352 124.595 155.67L130.541 145.727V143.912L130.742 143.994C131.304 144.228 131.788 144.467 132.117 144.767C134.302 146.764 134.13 148.992 136.343 152.788C138.909 156.269 143.554 157.436 146.607 160.448C157.554 171.597 166.146 195.508 167.887 200.482C169.627 205.456 169.247 277.746 168.662 284.891C168.59 285.917 165.131 284.814 164.125 284.891C150.797 285.917 90.1635 283.613 69.5024 284.891C56.591 285.653 44.3708 285.253 31.4344 284.891C29.0946 284.769 16.61 278.556 15.5822 275.947C12.0173 263.617 14.4829 250.652 17.128 238.438L17.3573 237.485C19.5842 228.269 22.0886 219.076 23.0623 209.622L23.1113 209.133C23.4504 205.727 23.7174 202.283 24.5357 198.95C28.4881 186.719 37.3482 176.27 46.2561 167.23C56.6287 158.278 70.5194 154.626 82.3988 148.023L82.7581 147.822L86.6395 143.898L86.7583 143.832C88.7233 142.76 91.8612 142.055 91.7399 139.309L91.7543 139.278V139.278Z" fill="#FDEA6B"/>
<path fill-rule="evenodd" clip-rule="evenodd" d="M93.5165 131.466C93.62 131.127 94.066 131.222 94.0998 131.544C94.4357 134.731 94.0132 138.062 93.6075 141.228C93.4132 142.756 93.301 144.345 93.0052 145.852C92.9672 146.013 92.9313 146.175 92.8975 146.336C92.9946 146.509 93.2822 146.704 93.4193 146.837L94.0157 147.417L95.2108 148.574C97.5498 150.84 99.8883 153.108 102.227 155.374L105.66 158.702C106.837 159.843 108.174 160.936 109.207 162.209C109.767 162.9 109.894 163.747 109.343 164.487C109.07 164.852 108.58 165.119 108.083 165.174C108.278 165.444 108.428 165.751 108.523 166.091C108.717 166.784 108.016 167.636 107.27 167.346C106.423 167.021 105.724 166.438 104.862 166.159C103.991 165.875 103.045 165.821 102.143 165.973C101.728 166.042 101.323 166.146 100.928 166.277C105.155 168.224 109.729 169.342 114.394 169.502C115.345 169.534 116.293 169.521 117.238 169.458C118.827 169.354 120.404 169.114 121.955 168.725C123.174 168.418 124.381 168.033 125.551 167.568C126.126 167.34 126.694 167.089 127.243 166.803L127.292 166.775C127.416 166.697 129.711 165.395 129.751 165.199C129.791 165.004 129.791 164.935 129.717 164.765C129.642 164.595 129.435 164.477 129.435 164.477C128.725 164.174 127.991 163.892 127.216 163.887C125.433 163.876 123.487 165.195 122.012 166.093C120.392 167.08 118.902 168.234 117.343 169.304C117.307 169.329 117.267 169.34 117.229 169.34C117.065 169.34 116.912 169.137 117.018 168.978C118.135 167.332 119.644 165.962 121.221 164.765L121.857 164.288C123.302 163.21 124.992 162.016 126.749 161.756C128.902 161.439 131.15 162.781 133.07 163.567L136.471 164.96C137.078 165.208 137.737 165.419 138.347 165.7L136.922 161.239C136.21 159.008 135.5 156.776 134.796 154.543L134.66 154.106C133.959 151.839 133.316 149.481 132.149 147.41C131.87 146.913 131.551 146.446 131.236 145.975C130.909 145.487 130.786 144.948 130.374 144.512C129.559 143.648 128.39 143.14 127.275 142.809C127.002 142.729 127.083 142.369 127.339 142.342C128.483 142.221 129.575 142.488 130.609 142.971L131.039 143.176C132.017 143.639 132.971 144.07 133.697 144.901C135.354 146.799 136.214 149.189 137.004 151.547L137.215 152.18C137.511 152.083 139.52 152.696 139.771 152.841C147.303 156.027 153.105 161.957 157.347 168.906C161.995 176.521 164.526 185.222 166.615 193.833C167.26 196.49 167.877 199.156 168.469 201.827C165.83 202.843 163.024 203.375 160.554 204.806C159.612 205.351 160.463 206.813 161.406 206.266C163.721 204.926 166.357 204.431 168.834 203.489C170.177 209.674 171.372 215.893 172.372 222.137C175.446 241.302 177.388 260.78 177.265 280.207C177.263 280.637 177.136 281.116 176.902 281.528C177.039 281.461 177.147 281.38 177.208 281.283C177.988 280.06 179.942 281.195 179.158 282.425L179.044 282.603C178.455 283.51 177.906 284.203 176.872 284.716C175.831 285.231 174.702 285.318 173.553 285.348C169.647 285.451 165.738 285.518 161.828 285.566C161.291 281.382 161.073 277.157 160.334 272.997C160.145 271.928 158.515 272.381 158.705 273.447C159.418 277.464 159.647 281.542 160.145 285.586C151.785 285.676 143.42 285.677 135.067 285.701C123.746 285.734 112.427 285.71 101.106 285.704L96.2547 285.703C83.1772 285.703 70.0996 285.66 57.0223 285.574L53.9122 285.552C52.6751 278.256 51.8329 270.897 51.8173 263.483C51.815 262.395 50.1248 262.393 50.1272 263.483C50.1428 270.889 50.9756 278.248 52.2014 285.542C49.1051 285.529 46.0102 285.54 42.9136 285.65L41.3376 285.706C38.1842 285.814 35.0245 285.88 31.877 285.629C28.3827 285.348 24.8484 284.705 21.7153 283.059C20.3042 282.316 19.0617 281.366 17.9999 280.25C19.0793 279.622 20.1741 279.019 21.2196 278.335C22.1262 277.741 21.2805 276.277 20.3665 276.875C19.2398 277.613 18.0555 278.255 16.8954 278.937C16.0554 277.816 15.366 276.571 14.8425 275.228C14.0165 273.108 13.6974 270.828 13.4207 268.583C13.0934 265.939 12.958 263.274 12.958 260.611C12.958 255.01 13.5474 249.427 14.3695 243.893C15.1556 238.593 16.1947 233.334 17.2931 228.093L17.4432 227.378C18.527 222.226 19.5601 217.058 20.8024 211.941C21.951 207.21 23.2784 202.501 24.8604 197.882C26.2685 198.753 27.7421 199.515 29.1282 200.423C30.0411 201.02 30.8889 199.557 29.9813 198.963C28.5024 197.995 26.9251 197.19 25.4327 196.244C27.2017 191.299 29.278 186.469 31.7674 181.843C36.7531 172.58 43.4716 164.292 52.0765 158.176C56.3841 155.116 61.1101 152.611 66.073 150.789C71.1329 148.93 76.3763 147.911 81.7383 147.492C81.8914 147.48 81.9773 147.622 81.9711 147.753L81.9688 147.777L82.1801 147.812C82.2582 147.281 82.4188 146.767 82.7251 146.296C83.4223 145.222 84.7446 144.533 85.801 143.874L86.0514 143.718C87.3082 142.939 88.6345 142.171 90.0963 141.898C90.147 141.889 90.1784 141.942 90.1446 141.982C89.1807 143.088 87.9481 143.933 86.8184 144.868L86.5588 145.085C85.6226 145.855 84.3167 146.73 84.282 148.018C84.242 149.536 84.5524 151.115 84.6646 152.628C84.7765 154.137 84.8545 155.644 84.8946 157.157C85.0406 162.579 84.8653 168.002 84.3855 173.402L86.5065 171.981C89.8073 169.771 93.119 167.567 96.4996 165.497C98.5448 164.244 100.843 163.172 103.294 163.221C103.981 163.234 104.756 163.333 105.5 163.544C104.699 162.786 103.932 161.978 103.148 161.215C101.857 159.958 100.566 158.7 99.2758 157.445L95.5539 153.818L91.8305 150.191C90.6772 149.065 89.3249 148.027 89.4474 146.252C89.547 144.836 90.2672 143.426 90.7594 142.061C90.8291 141.864 90.8925 141.67 90.9517 141.477C91.9448 138.176 92.5087 134.754 93.5165 131.466ZM141.62 273.111C140.85 272.341 139.655 273.536 140.425 274.307L140.833 274.713C141.513 275.391 142.187 276.091 142.658 276.931L142.727 277.058C143.234 278.02 144.694 277.167 144.186 276.204C143.559 275.014 142.561 274.053 141.62 273.111ZM108.635 272.894C106.184 272.426 103.821 272.426 101.371 272.894C100.303 273.098 100.755 274.728 101.82 274.524C103.963 274.115 106.041 274.115 108.185 274.524C109.248 274.727 109.703 273.098 108.635 272.894ZM75.5348 255.851C74.4802 255.583 74.0302 257.214 75.0857 257.481L75.6053 257.611C77.3718 258.048 79.0542 258.373 80.8892 257.968C81.9369 257.736 81.5132 256.146 80.4814 256.329L80.4398 256.338C78.7419 256.713 77.1777 256.267 75.5348 255.851ZM134.319 244.868C133.539 244.109 132.342 245.304 133.124 246.064C134.099 247.013 135.249 247.734 136.642 247.772C137.714 247.802 137.729 246.162 136.69 246.084L136.642 246.081C135.708 246.055 134.964 245.496 134.319 244.868ZM34.8489 240.353C35.822 239.866 34.967 238.407 33.996 238.893L28.1549 241.814V241.814C27.1818 242.301 28.0368 243.76 29.0078 243.274L34.8489 240.353V240.353ZM150.271 240.725C149.183 240.694 149.184 242.385 150.271 242.416C151.294 242.444 152.341 242.832 153.252 243.274C154.226 243.748 155.084 242.29 154.105 241.814C152.914 241.236 151.607 240.762 150.271 240.725ZM95.694 232.562C96.5885 231.953 95.7439 230.488 94.8409 231.101C93.6088 231.939 92.4925 232.929 91.28 233.791L90.9468 234.023C90.0523 234.631 90.897 236.097 91.7999 235.483C93.1438 234.57 94.3501 233.475 95.694 232.562ZM158.546 220.273C157.458 220.273 157.457 221.963 158.546 221.964L158.752 221.963C159.65 221.958 160.596 221.933 161.431 222.292L161.527 222.335C162.505 222.796 163.364 221.339 162.38 220.876C161.156 220.299 159.876 220.274 158.546 220.273ZM64.6841 219.065L64.8261 219.012C65.8423 218.647 65.4041 217.012 64.3767 217.382C62.8286 217.938 61.6241 218.989 60.2811 219.901C59.3862 220.509 60.2308 221.975 61.134 221.362C62.2912 220.575 63.3678 219.58 64.6841 219.065V219.065ZM128.079 214.666L128.307 214.544C129.274 214.046 128.42 212.587 127.454 213.084C126.687 213.479 126 214.004 125.248 214.423L125.02 214.545C124.052 215.043 124.906 216.502 125.873 216.005C126.64 215.61 127.326 215.085 128.079 214.666V214.666ZM102.367 198.289L102.193 198.121C101.415 197.359 100.219 198.554 100.998 199.317C102.943 201.221 105.242 202.667 107.562 204.065L107.983 204.318C108.918 204.879 109.769 203.418 108.837 202.858L108.217 202.486C106.155 201.242 104.117 199.957 102.367 198.289V198.289ZM55.596 196.711C56.2514 195.859 54.8262 195.026 54.1601 195.828L54.1366 195.857C53.4544 196.743 52.6449 197.545 51.7989 198.277L51.6398 198.414C51.1362 198.842 50.2195 199.761 49.512 199.821C48.4362 199.913 48.4265 201.604 49.512 201.512C50.6067 201.419 51.5488 200.648 52.3759 199.988C53.5797 199.027 54.6565 197.931 55.596 196.711ZM145.514 190.551C146.3 189.813 145.14 188.639 144.347 189.331L144.319 189.356C142.852 190.735 140.74 191.105 138.851 191.573C137.796 191.835 138.243 193.466 139.3 193.204L140.161 192.991C142.092 192.509 144.029 191.948 145.514 190.551ZM112.042 179.886C110.987 179.618 110.537 181.249 111.593 181.517C113.385 181.972 115.083 182.562 116.745 183.379C117.718 183.858 118.575 182.4 117.598 181.919C115.81 181.039 113.972 180.377 112.042 179.886ZM129.307 144.244C129.282 144.168 129.362 144.081 129.44 144.108C131.337 144.816 130.329 147.301 129.74 148.789L129.633 149.061C128.709 151.445 127.419 153.765 126.012 155.9C124.539 158.134 122.904 160.273 121.134 162.281C120.365 163.152 119.569 163.999 118.745 164.82L118.435 165.127C117.603 165.945 116.53 167.383 115.239 167.224C113.849 167.057 113.073 165.571 114.088 164.443C114.804 163.644 115.797 163.007 116.597 162.281C117.392 161.562 118.161 160.82 118.911 160.057C120.445 158.491 121.898 156.836 123.227 155.092C124.512 153.406 125.742 151.674 126.861 149.872L127.083 149.511C127.934 148.109 129.899 146.049 129.307 144.244ZM62.1075 161.955C61.2071 161.339 60.3608 162.803 61.2544 163.414C62.8977 164.538 64.3434 165.899 66.122 166.823C67.0744 167.318 67.9213 165.9 67.0089 165.382L66.9751 165.363C65.1977 164.44 63.7499 163.077 62.1075 161.955Z" fill="black"/>
<path fill-rule="evenodd" clip-rule="evenodd" d="M99.7851 55.5158C131.739 53.9405 146.159 76.4954 147.092 86.5695C147.739 93.5626 143.618 101.623 143.618 107.872C143.618 111.061 147.513 117.909 145.7 122.558C141.663 132.906 133.116 144.389 122.225 144.389C111.334 144.389 97.1601 147.409 85.1259 130.135C83.9967 128.514 69.7149 119.302 68.3274 110.549C64.8712 88.745 76.9844 56.6399 99.7851 55.5158Z" fill="#FDC6A0"/>
<path fill-rule="evenodd" clip-rule="evenodd" d="M98.2791 41.479C99.4218 40.1687 101.351 39.6445 103.065 39.746C105.555 39.8939 107.72 41.4346 110.197 41.5488C112.794 41.6692 115.301 40.7668 117.905 41.1853C119.5 41.4431 121.082 42.1849 122.104 43.4361C125.646 42.4195 129.491 43.7658 131.747 46.7057C134.53 46.2725 137.557 48.1199 138.409 50.808C141.945 50.9222 145.282 53.769 145.676 57.3366C147.089 57.7107 148.316 58.6874 149.068 59.9785C149.943 61.4749 150.089 63.191 149.93 64.8776C151.594 65.7294 152.439 67.5597 152.661 69.4956C154.181 70.6327 154.841 72.6764 154.531 74.6061C155.694 75.2634 156.295 76.7935 156.289 78.1589C156.283 79.4333 155.945 80.5621 156.42 81.792C156.842 82.8874 156.994 83.8003 156.762 84.9477L156.738 85.0595C156.697 85.2465 156.662 85.4259 156.631 85.6028C156.946 85.8797 157.212 86.2267 157.412 86.6304C158.141 88.1056 158.033 89.7882 157.477 91.2844C157.72 92.2371 157.689 93.2436 157.329 94.1594C158.003 95.1326 158.358 96.3263 158.254 97.5648C158.137 98.9515 157.505 100.193 156.547 101.111C156.802 103.005 156.034 105.052 154.645 106.386C154.842 107.519 154.672 108.708 154.053 109.783C153.612 110.549 153.019 111.12 152.334 111.517C152.356 112.15 152.271 112.797 152.061 113.445C151.769 114.345 151.276 115.173 150.626 115.841C151.013 118.326 149.529 121.083 146.917 121.781C146.698 121.839 146.488 121.866 146.288 121.87C146.028 124.26 145.461 126.617 144.584 128.856C142.354 134.556 138.297 139.539 133.008 142.648C130.391 144.185 127.453 145.237 124.453 145.677C122.294 145.994 120.217 145.916 118.05 145.7C115.33 145.427 112.598 145.02 109.954 144.318L109.529 144.205C108.433 143.91 107.278 143.571 106.328 142.978C105.266 142.314 104.714 141.291 104.469 140.087C104.333 139.416 104.756 138.695 105.488 138.681L105.536 138.681C105.696 138.685 105.855 138.678 106.016 138.668L106.137 138.66H106.143C106.151 138.658 106.156 138.658 106.164 138.658C106.236 138.647 106.305 138.626 106.375 138.616C107.18 138.48 107.885 138.614 108.641 138.867L108.736 138.899C110.009 139.338 111.272 139.746 112.588 140.049C113.947 140.359 115.324 140.607 116.705 140.801L116.842 140.818L116.884 140.824L116.905 140.826V140.826C116.909 140.826 116.914 140.826 116.918 140.828L117.325 140.879V140.879C117.645 140.917 117.966 140.951 118.286 140.985C118.876 141.044 119.467 141.091 120.057 141.124C130.246 141.699 138.803 133.657 141.386 124.016C142.322 120.526 142.383 117.045 142.107 113.562C142.018 113.309 141.966 113.027 141.968 112.719C141.968 112.558 141.976 112.4 141.987 112.239C141.643 108.87 141.047 105.499 140.673 102.118C140.237 98.1674 139.994 94.1942 140.083 90.2185C140.127 88.2551 140.336 86.3107 140.61 84.3664L140.709 83.6679V83.6679C139.471 83.4255 138.319 82.8367 137.402 81.9843C135.412 83.1362 132.837 83.2383 130.873 82.0219C128.672 83.4056 125.597 83.5312 123.381 82.1783C122.041 83.137 120.353 83.5506 118.697 83.1867C117.951 83.0231 117.21 82.6691 116.576 82.179C116.123 82.2591 115.664 82.2901 115.207 82.2663L115.113 82.3191V82.3191C114.061 82.8749 112.896 83.2408 111.696 83.2C110.808 83.17 109.893 82.9944 109.047 82.6621C108.142 83.2095 107.152 83.5832 106.093 83.7172C104.546 83.9127 102.877 83.5696 101.59 82.69C99.2394 84.0325 96.3478 84.2392 93.8103 83.3372C93.2906 84.2196 92.5715 84.9804 91.7295 85.5669C91.8802 86.1084 91.9283 86.6858 91.8764 87.241C91.7913 88.1549 91.5627 88.9743 91.189 89.7102C91.583 90.532 91.7015 91.5409 91.4809 92.5537C91.1666 93.9981 90.3284 95.2546 89.2431 96.2331C89.1474 98.5381 87.8864 100.699 85.8343 101.9C85.7304 101.961 85.6271 102.01 85.524 102.055C85.4333 102.179 85.3249 102.288 85.2012 102.38C83.8962 103.589 81.831 103.493 80.1952 102.81C80.1636 102.812 80.1322 102.814 80.1001 102.815C79.516 102.83 79.1177 102.602 78.8814 102.265C78.6434 102.278 78.407 102.304 78.169 102.348C77.3002 102.511 76.3473 102.823 75.5609 103.229C73.5202 104.282 72.5757 106.142 72.2932 108.378C71.9856 110.817 72.6853 113.302 74.5682 114.953C75.4829 115.756 76.653 116.259 77.842 116.47C79.1555 116.705 80.5595 116.128 81.5293 117.259C81.7233 117.483 81.8561 117.796 81.7507 118.098C81.4218 119.04 80.88 119.402 80.0325 119.533C81.2573 120.989 82.5138 122.397 83.9053 123.705C85.4105 125.123 86.9664 126.497 88.3243 128.061C89.7598 129.716 91.0563 131.47 91.9566 133.478C92.471 134.632 92.8842 135.822 93.3292 137.003L93.4087 137.209C93.9049 138.464 94.5649 139.674 93.8012 140.985C93.4977 141.501 92.8104 141.999 92.1779 141.917C90.3967 141.689 89.8001 140.482 89.2517 138.909C88.8385 137.722 88.5223 136.5 88.0776 135.323C87.9944 135.105 87.9037 134.889 87.8086 134.675C86.7815 134.962 85.6521 134.734 84.7355 134.147C83.756 134.582 82.6709 134.799 81.6229 134.78C80.2197 134.756 78.9377 134.365 77.8355 133.66C77.7478 133.637 77.6597 133.614 77.5722 133.589C75.8955 134.233 73.9319 134.118 72.4138 133.075C71.4307 132.399 70.7586 131.497 70.3766 130.493C69.1064 130.469 67.8499 130.017 66.9398 129.114C66.1041 128.285 65.6156 127.215 65.4706 126.103C64.3773 125.886 63.3522 125.356 62.5484 124.463C61.8771 123.718 61.4692 122.768 61.3313 121.783C59.9998 121.402 58.7989 120.53 58.143 119.315C57.5327 118.184 57.4446 116.956 57.7431 115.84L57.6657 115.728V115.728C56.2941 115.009 55.2474 113.831 55.1399 112.148C55.1095 111.669 55.161 111.189 55.2906 110.736C55.2438 110.229 55.2738 109.722 55.4064 109.232C53.5617 107.433 52.8934 104.544 53.8948 102.156C52.0922 100.211 51.6158 97.136 52.9376 94.8283C52.0311 93.729 51.5652 92.3278 51.6432 90.8314C51.7402 88.9633 52.594 87.3315 53.6165 85.8203C52.8575 84.9791 52.4528 83.8062 52.4825 82.6733C52.5244 81.0311 53.3951 79.6172 54.4853 78.4463C53.5343 75.555 54.5968 72.4186 56.9306 70.5883C56.4584 69.8084 56.2834 68.8425 56.4375 67.864C56.7071 66.1542 57.9868 64.9896 59.3677 64.0681C59.0789 63.1257 59.1548 62.1089 59.6144 61.1346C60.2279 59.8348 61.3853 59.0105 62.5933 58.3131C62.9053 55.4303 66.1182 52.968 68.8125 54.4559C68.1442 52.3107 70.0692 49.9943 72.2829 49.7492C73.3663 46.4563 77.1042 44.3809 80.4647 45.1988C82.1829 42.8444 85.381 41.9379 88.0964 42.9479C91.0819 40.6548 94.7858 40.3145 98.2791 41.479ZM77.0135 106.133C79.1112 106.019 80.6839 107.735 81.7888 109.306C82.8259 110.779 80.1653 112.334 79.3895 110.711C79.1112 110.132 78.7949 109.519 78.3712 109.012C78.3 109.112 78.2372 109.215 78.1746 109.321L78.1119 109.428C78.0655 109.506 78.017 109.587 77.977 109.669C77.9812 109.684 77.9179 109.878 77.9158 109.887C77.7429 110.413 77.3656 110.751 76.8514 110.933C76.1871 111.166 75.5588 110.665 75.3459 110.077C75.0067 109.139 75.795 108.321 76.615 107.949C75.8097 107.818 75.017 108.093 74.4352 108.714C74.3552 108.801 74.2201 108.731 74.2161 108.623C74.1484 107.15 75.6853 106.205 77.0135 106.133Z" fill="black"/>
<path fill-rule="evenodd" clip-rule="evenodd" d="M123.152 128.274C121.731 127.695 120.464 126.728 119.538 125.493C119.216 125.063 119.132 124.61 119.2 124.195C119.276 123.729 119.552 123.306 119.928 123.023C120.305 122.739 120.777 122.598 121.233 122.67C121.629 122.732 122.024 122.949 122.336 123.399L122.401 123.489C122.952 124.235 123.67 124.846 124.488 125.241C125.276 125.621 126.157 125.798 127.07 125.695C128.807 125.499 130.005 124.559 131.278 123.282C131.435 123.121 131.593 122.955 131.752 122.786C131.852 122.633 131.991 122.534 132.145 122.483C132.317 122.425 132.511 122.429 132.688 122.491C132.859 122.55 133.013 122.664 133.115 122.815C133.213 122.958 133.268 123.135 133.25 123.339C133.134 124.661 132.442 125.842 131.46 126.769C130.37 127.799 128.924 128.511 127.563 128.761C126.063 129.036 124.535 128.839 123.152 128.274V128.274ZM128.27 107.866C129.866 108.836 132.296 111.098 130.58 113.503C128.56 115.624 125.651 113.193 124.218 112.093C122.889 111.241 121.396 113.433 122.629 114.428C132.986 122.099 137.189 108.12 129.077 106.726C128.184 106.572 127.852 107.566 128.27 107.866ZM109.71 98.9429C109.886 96.7541 113.219 96.257 113.55 98.423C113.847 100.363 113.498 102.145 112.624 103.892C111.789 105.561 109.691 104.783 109.533 103.263C109.32 101.226 109.601 100.304 109.71 98.9429ZM135.076 97.9739C135.54 97.3652 136.211 96.9497 137.015 97.1845C139.526 97.9185 138.786 101.485 137.904 103.22C137.425 104.163 135.876 104.402 135.176 103.572C134.035 102.219 133.489 99.5157 134.939 98.1825C134.978 98.1136 135.022 98.044 135.076 97.9739ZM112.589 89.3654L112.985 89.2959C114.212 89.0836 115.738 88.8796 116.606 89.8665C117.066 90.3898 117.225 91.3624 116.606 91.8633C115.517 92.7446 114.314 92.4031 113.01 92.4777C111.935 92.5394 110.902 92.7174 109.866 93.0135C107.595 93.6629 105.744 94.8486 103.804 96.1505C103.549 96.3213 103.289 95.9956 103.411 95.7574C104.531 93.563 106.701 91.7604 108.875 90.6616C110.035 90.0751 111.305 89.5885 112.589 89.3654ZM132.787 88.3823L133.09 88.4445C136.394 89.1353 140.686 90.5153 142.251 93.7615C142.31 94.2205 142.247 94.3189 142.196 94.3832L142.179 94.4046C142.137 94.4595 142.103 94.5351 141.904 94.5976C141.849 94.5844 141.793 94.5705 141.737 94.5557C141.02 94.3677 140.453 94.1087 139.903 93.84L139.308 93.5465C138.617 93.2076 137.92 92.881 137.181 92.6399C135.604 92.1255 133.983 91.7631 132.336 91.5696C131.979 91.5277 131.636 91.4072 131.364 91.2006C131.107 91.0046 130.91 90.7332 130.821 90.3724C130.705 89.9056 130.738 89.5521 130.988 89.1309C131.177 88.8146 131.446 88.5953 131.755 88.4694C132.071 88.3411 132.43 88.3108 132.787 88.3823Z" fill="black"/>
<path fill-rule="evenodd" clip-rule="evenodd" d="M137 133.092C136.262 132.851 135.538 132.57 134.81 132.299C131.09 130.43 126.596 130.091 122.695 131.665C120.78 132.438 118.994 133.826 117.073 134.736C116.617 134.906 116.156 135.061 115.691 135.191C115.406 135.092 115.121 134.986 114.838 134.88C112.8 134.112 110.883 133.164 109.021 132.121C108.823 131.841 108.617 131.57 108.395 131.309C109.742 131.117 111.061 130.799 112.254 130.471C115.917 129.467 119.369 127.832 123.02 126.783C126.419 125.805 130.108 125.27 133.522 126.485C135.143 127.062 136.569 128.073 138.145 128.753C138.96 129.104 139.938 129.448 140.891 129.499C140.276 130.972 139.499 132.348 138.436 133.494C137.95 133.39 137.469 133.244 137 133.092ZM144.927 121.554C144.6 121.825 143.254 122.7 142.818 123.222C142.705 123.179 142.593 123.135 142.481 123.09C142.289 122.854 142.006 122.75 141.718 122.757C139.705 121.82 137.912 120.496 136.313 118.837C135.176 117.659 134.012 116.427 132.493 115.745C130.704 114.937 128.944 115.309 127.064 115.432C125.063 115.565 123.088 114.996 121.089 115.269C119.627 115.47 118.258 116.089 117.075 116.962C114.66 118.744 112.995 121.246 110.955 123.404C108.639 125.851 105.791 127.415 102.624 128.214C102.586 128.189 102.546 128.163 102.506 128.14C100.171 126.027 98.063 123.641 96.1975 121.098C94.3764 118.615 89.5743 107.436 88.4144 106.456C87.9327 106.048 87.4046 105.872 86.8996 105.887C85.9849 105.908 85.1398 106.544 84.7616 107.546C84.1194 109.25 84.4405 111.452 84.4912 113.234C84.5546 115.415 84.6982 117.594 84.9264 119.764C85.1525 121.91 85.4525 124.048 85.8264 126.173C86.0144 127.246 86.2236 128.318 86.4539 129.385C86.5257 129.721 86.6166 130.021 86.7264 130.3C86.8384 130.826 86.9588 131.351 87.0877 131.871C87.9285 135.275 89.2553 138.684 91.7884 141.197C94.425 143.816 98.0081 145.555 101.336 147.111C104.505 148.593 107.826 149.909 111.233 150.941C114.193 152.283 117.362 153.344 120.544 153.902C124.047 154.517 127.729 154.555 131.112 153.337C132.774 152.739 134.346 151.904 135.772 150.865C137.794 149.814 139.613 148.371 141.102 146.46C143.77 143.036 145.043 138.881 145.601 134.596C145.743 133.499 146.279 129.296 146.322 128.642C146.458 126.528 146.594 124.415 146.73 122.301C146.794 121.304 145.571 121.019 144.927 121.554Z" fill="black"/>
</g>
<defs>
<clipPath id="clip0_2016_14108">
<rect width="200" height="267" fill="white"/>
</clipPath>
</defs>
</svg>
