<svg width="200" height="267" viewBox="0 0 200 267" fill="none" xmlns="http://www.w3.org/2000/svg">
<g clip-path="url(#clip0_2016_14081)">
<rect width="200" height="267" fill="white"/>
<path fill-rule="evenodd" clip-rule="evenodd" d="M166.455 183.205C163.523 169.306 153.122 158.521 139.135 153.148C136.446 151.627 133.84 145.099 130.226 143.904C129.647 143.712 130.561 145.237 130.226 145.328C129.031 145.653 127.692 145.687 126.373 144.514C124.015 142.417 123.275 136.292 121.841 133.523C114.28 118.922 95.4002 124.635 92.8709 140.776C91.1073 141.926 88.6143 142.939 86.6946 143.866C84.7178 144.82 82.979 147.131 80.9418 147.957C79.1242 148.695 76.1292 148.172 74.2976 148.815C65.8735 151.771 58.7385 155.501 53.1448 163.059C51.9661 164.653 50.6375 166.613 49.5649 168.223C44.0351 174.591 40.1943 181.729 36.6568 189.387C26.7598 211.864 24.0678 236.752 21.6526 260.969C21.7075 265.207 18.8968 276.957 23.0539 278.988C22.8055 279.246 22.8955 279.763 23.3565 279.759C33.8973 279.652 44.4135 280.596 54.7908 282.431C59.7976 283.316 64.7776 284.53 69.8776 284.73C80.4644 284.656 91.0132 282.882 101.586 284.561C114.296 284.561 129.743 284.191 143.884 283.647C157.099 283.139 170.385 284.286 183.436 282.038C184.47 281.875 184.974 280.614 184.758 279.711C183.226 274.129 182.475 268.384 181.615 262.671C181.786 259.007 181.48 255.181 180.125 251.768C176.585 228.727 172.045 205.837 166.455 183.205Z" fill="#FDC6A0"/>
<path fill-rule="evenodd" clip-rule="evenodd" d="M130.226 145.413C130.561 145.322 129.647 143.797 130.226 143.988C133.84 145.184 136.446 151.711 139.135 153.233C153.122 158.605 163.523 169.391 166.455 183.289C172.045 205.921 176.585 228.812 180.125 251.853C181.48 255.266 181.786 259.091 181.615 262.756L181.75 263.658C182.556 269.073 183.307 274.507 184.758 279.795C184.974 280.699 184.47 281.959 183.436 282.123C170.533 284.345 157.401 283.249 144.334 283.715L141.611 283.817C128.104 284.314 113.619 284.646 101.586 284.646C91.0132 282.966 80.4644 284.741 69.8776 284.814C64.7776 284.615 59.7976 283.401 54.7908 282.515C44.4135 280.681 33.8973 279.737 23.3565 279.843C22.8955 279.848 22.8055 279.33 23.0539 279.073C18.8968 277.041 21.7075 265.291 21.6526 261.054L21.8709 258.873C24.2358 235.345 27.0567 211.274 36.6568 189.471L36.9444 188.852C40.4031 181.428 44.1846 174.504 49.5649 168.308L49.8939 167.815C50.9017 166.309 52.084 164.578 53.1448 163.144C58.7385 155.586 65.8735 151.856 74.2976 148.9C76.1292 148.257 79.1242 148.779 80.9418 148.042C82.8472 147.269 84.4915 145.197 86.3137 144.152L86.3137 151.951L112.68 177.934L127.634 154.995L129.155 145.6C129.522 145.577 129.88 145.507 130.226 145.413Z" fill="#8FA7DF"/>
<path fill-rule="evenodd" clip-rule="evenodd" d="M162.19 213.491C161.911 214.846 161.521 216.2 161.001 217.483C160.5 218.722 159.746 219.831 159.226 221.055C159.157 221.22 159.043 221.345 158.905 221.44L158.948 221.773V221.773L158.987 222.105C159.247 224.352 159.538 226.592 159.79 228.838L159.913 229.962C160.409 234.651 161.193 239.318 161.802 243.995C162.397 248.575 163.004 253.155 163.652 257.729C164.322 262.444 165.004 267.153 165.801 271.849C166.137 273.832 166.488 275.814 166.854 277.794L167.136 279.309C170.043 280.009 170.837 284.063 167.878 285.559C166.534 286.235 164.808 286.073 163.701 285.01C162.55 283.902 162.502 281.904 162.235 280.404L161.978 279.01C160.053 268.526 158.383 257.922 157.602 247.29C157.401 244.545 157.232 241.797 157.122 239.047C157.018 236.461 157.067 233.875 157.028 231.288L157.014 230.583C156.953 227.825 157.004 225.071 157.076 222.313C157.084 221.977 157.099 221.64 157.116 221.302C157.019 221.188 156.949 221.053 156.919 220.922L156.881 220.749C156.786 220.303 156.894 219.781 157.236 219.461C157.384 217.583 157.578 215.706 157.631 213.829C157.635 213.675 157.857 213.679 157.87 213.829C157.995 215.427 158.244 217.029 158.493 218.629C160.097 217.339 161.282 215.213 161.981 213.434C162.032 213.305 162.22 213.351 162.19 213.491ZM124.251 138.795C124.517 140.013 125.043 141.106 125.749 142.122C126.085 142.608 126.467 143.061 126.925 143.439C127.319 143.762 127.767 143.973 128.185 144.255C128.793 144.159 129.429 144.39 129.856 144.838L129.788 144.183C129.767 143.971 130.118 143.929 130.158 144.134C132.006 153.459 133.692 162.79 135.151 172.183L135.791 176.331L136.393 180.225C137.392 186.714 138.358 193.2 139.086 199.736C140.056 208.459 140.871 217.204 141.467 225.962C142.065 234.782 142.433 243.608 142.695 252.445C142.76 254.672 142.83 256.898 142.897 259.125L143.349 256.462C143.799 253.799 144.241 251.132 144.619 248.457C145.978 238.88 147.064 229.236 147.594 219.578C148.08 210.739 147.917 201.725 145.669 193.114C145.103 190.948 144.41 188.816 143.574 186.738C142.762 184.718 141.655 182.845 140.783 180.854C139.768 178.538 139.464 176.352 139.986 173.858C140.443 171.686 141.243 169.642 141.387 167.406C141.655 163.255 140.305 159.235 138.398 155.602C137.894 154.645 137.364 153.7 136.811 152.763C135.136 149.934 133.247 147.207 131.286 144.593C131.181 144.453 131.404 144.299 131.519 144.413C133.306 146.18 135.26 147.917 136.868 149.847C137.649 150.785 138.412 151.743 139.135 152.726C147.062 154.051 153.873 158.99 158.529 165.512C163.813 172.914 166.485 181.822 168.463 190.595C170.662 200.345 172.517 210.183 174.493 219.981C176.537 230.12 178.572 240.258 180.63 250.395C181.652 255.427 182.675 260.459 183.695 265.494C184.213 268.042 184.756 270.585 185.324 273.125C185.616 274.427 185.928 275.727 186.199 277.033C186.503 278.506 186.22 279.449 185.223 280.531C184.855 280.933 184.274 280.926 183.818 280.713L183.675 280.646L183.537 280.579C182.973 280.302 182.53 280.014 182.178 279.396C181.792 278.718 181.73 277.965 181.598 277.211C181.352 275.822 181.109 274.434 180.864 273.043C180.498 270.963 180.1 268.89 179.695 266.816L177.662 256.455C177.119 253.693 176.577 250.93 176.03 248.169C174.08 238.295 172.128 228.423 170.176 218.551C168.302 209.071 166.644 199.527 164.51 190.103L164.389 189.572L164.266 189.041C162.358 180.917 159.692 173.058 154.855 166.174C151.133 160.879 145.963 156.152 139.874 153.759C140.303 154.376 140.715 155.006 141.108 155.649C143.576 159.681 145.378 164.468 144.955 169.27C144.748 171.616 143.857 173.922 143.941 176.287C144.019 178.388 145.319 180.233 146.217 182.061C148.255 186.203 149.73 190.606 150.681 195.122C152.588 204.191 152.582 213.523 151.925 222.729C151.211 232.736 149.855 242.742 148.31 252.652C147.518 257.735 146.464 262.776 145.656 267.85C145.257 270.352 144.714 272.849 144.239 275.338L144.012 276.528C143.885 277.188 143.754 277.846 143.602 278.497L143.508 278.887V278.956C143.504 279.436 143.373 279.834 143.161 280.151C142.872 281.078 142.513 281.983 142.036 282.852C141.79 283.296 141.435 283.545 141.049 283.636C140.66 284.526 139.779 285.21 138.727 285.206L124.891 285.153C116.854 285.122 108.818 285.069 100.781 285.024C98.7531 285.014 96.7271 284.976 94.701 284.923C92.8017 284.87 90.9806 284.642 89.1024 284.405C86.9811 284.139 85.832 282.636 86.1489 280.516C86.2186 280.049 86.2945 279.584 86.3665 279.119C85.944 279.259 85.4412 279.193 85.101 278.862L84.7821 278.549C84.3401 278.112 83.9447 277.682 83.6644 277.099C83.375 276.499 83.1403 275.865 82.8846 275.252C82.3332 273.933 81.7968 272.61 81.2748 271.28C80.2292 268.622 79.1834 265.952 78.2114 263.266C76.2869 257.946 74.5839 252.546 73.1031 247.085C70.4623 237.342 68.5522 227.41 67.348 217.39L67.0601 215.002L66.9764 214.297C66.5197 210.413 66.1354 206.469 66.317 202.594C66.4292 200.167 66.805 197.722 67.7116 195.456C68.548 193.366 69.8388 191.578 71.0663 189.71L71.2068 189.494L71.348 189.273C72.4215 187.576 73.2756 185.802 73.3184 183.741C73.3618 181.65 72.7528 179.615 72.0718 177.657L71.9021 177.174L71.7882 176.854C70.3395 172.808 68.6909 168.819 69.2346 164.415C70.0376 157.931 73.967 152.704 78.9109 148.674C74.5142 149.545 70.1623 151.265 66.3214 153.446C61.7853 156.025 57.7015 159.427 54.1797 163.268C47.5248 170.525 42.7733 179.233 38.8841 188.224C34.8128 197.633 31.7938 207.493 29.5186 217.481C27.2306 227.527 25.6989 237.733 24.6529 247.979C24.1313 253.079 23.7212 258.191 23.3813 263.306C23.2081 265.927 23.0771 268.552 22.8743 271.168C22.6714 273.783 22.5804 276.437 21.9424 278.982C21.6445 280.168 19.6353 280.288 19.42 278.982C18.9423 276.065 19.0758 273.048 19.2091 270.095L19.2212 269.826C19.3524 266.884 19.5236 263.944 19.7262 261.005C20.1405 254.996 20.6938 248.996 21.4163 243.014C23.9494 222.019 28.6207 201.133 37.7834 181.968C42.0975 172.941 47.6348 164.17 55.3376 157.652C59.005 154.551 63.1395 152.077 67.5952 150.284C71.5799 148.68 75.6278 147.922 79.8616 147.924C81.9848 146.296 84.2644 144.878 86.5417 143.667C86.679 143.593 86.8226 143.771 86.7088 143.885C86.6496 143.942 86.5924 144.001 86.5334 144.056C86.7912 144.073 87.0572 144.193 87.2959 144.445C88.1327 145.322 88.8383 146.419 89.4698 147.558C90.4311 148.759 91.348 149.999 92.3074 151.187C93.8431 153.089 95.4149 154.964 97.006 156.823C99.6779 159.949 102.437 163.016 105.314 165.959L105.795 166.448C107.286 167.96 108.797 169.769 110.561 170.965L110.655 171.028C111.399 171.513 111.927 171.601 112.561 170.876C113.138 170.217 113.619 169.452 114.112 168.725L114.226 168.558C116.747 164.895 119.083 161.097 121.198 157.187C122.162 155.408 123.079 153.603 123.949 151.777L124.209 151.229C124.682 150.223 125.195 149.236 125.586 148.2C125.677 147.957 125.766 147.714 125.852 147.474C124.521 146.601 123.49 144.711 123.117 143.232C122.728 141.695 122.924 140.118 123.617 138.713C123.748 138.449 124.187 138.514 124.251 138.795ZM58.5913 201.235C58.4072 207.076 58.2954 212.925 58.0205 218.762L57.9257 220.755C58.3544 221.233 58.6058 221.784 58.4051 222.541C58.3271 222.83 58.0966 223.093 57.8093 223.19L57.7197 225.043C57.312 233.379 56.834 241.699 55.9607 250.014C54.8684 260.421 53.6051 270.811 52.344 281.199C52.1644 282.67 51.1417 283.837 49.5508 283.621C47.9412 283.403 47.2884 282.002 47.4996 280.542C48.3299 274.812 49.1283 269.078 49.8278 263.329L50.6243 256.78C51.623 248.593 52.6452 240.407 53.8229 232.246C54.3151 228.835 54.8264 225.426 55.3396 222.017L55.1602 221.784C54.4269 220.831 53.6684 219.899 52.9184 218.961C51.4778 217.152 50.056 215.357 48.7356 213.463C48.6698 213.368 48.8032 213.229 48.898 213.301C50.7487 214.668 52.5003 216.13 54.2623 217.616L55.8046 218.922C56.6919 213.032 57.5708 207.14 58.3544 201.235C58.3736 201.087 58.5954 201.076 58.5913 201.235ZM85.213 145.328C84.0994 146.378 82.9609 147.406 81.8388 148.45L81.4279 148.834L81.0188 149.22C79.0469 151.091 77.1576 153.038 75.5834 155.274C72.6933 159.381 70.9714 164.388 72.1733 169.401C73.1707 173.554 75.4588 177.318 76.0736 181.575C76.3818 183.707 76.232 185.85 75.429 187.864C74.6093 189.919 73.2994 191.68 72.1226 193.533C69.5663 197.561 69.2177 201.983 69.4714 206.649C69.7376 211.523 70.2973 216.399 70.9883 221.228C72.3867 231.014 74.4952 240.698 77.286 250.181C78.6827 254.93 80.3325 259.578 81.9743 264.245C82.7917 266.567 83.7447 268.835 84.7269 271.092C85.2445 272.28 85.775 273.461 86.3137 274.641C86.1149 272.975 86.1149 271.266 86.0177 269.611C85.8783 267.239 85.7008 264.872 85.5381 262.503C85.2067 257.695 84.9109 252.882 84.6468 248.07C83.7109 230.908 83.0221 213.732 83.0726 196.543C83.0982 187.947 83.2736 179.351 83.6433 170.764C83.8166 166.72 84.1522 162.68 84.4556 158.642L84.52 157.777C84.7883 154.152 85.1095 150.519 85.6607 146.926C85.4975 146.558 85.3558 146.185 85.2507 145.802L85.213 145.658L85.2405 145.662C85.2151 145.55 85.2067 145.438 85.213 145.328ZM94.8426 130.559C94.8656 130.46 95.0072 130.468 95.0325 130.559C95.66 132.673 95.4382 134.997 94.8975 137.124C94.606 138.275 94.1919 139.394 93.6912 140.471L93.516 140.849C93.087 141.767 92.6039 142.712 91.7685 143.284C91.4201 143.523 90.7966 143.538 90.448 143.284L90.2703 143.15C90.241 143.127 90.2121 143.103 90.184 143.079C89.8588 142.807 89.698 142.204 89.848 141.807C90.2347 140.782 91.1116 140.03 91.7178 139.117C92.2546 138.305 92.7299 137.449 93.1248 136.559C93.9762 134.634 94.3586 132.59 94.8426 130.559Z" fill="black"/>
<path fill-rule="evenodd" clip-rule="evenodd" d="M142.678 78.64C135.261 59.0781 121.892 44.7555 99.3523 53.7514C98.7057 53.3101 97.862 53.1918 97.0535 53.7085C84.7754 61.4374 75.9338 73.8286 72.1021 87.8012C69.7702 88.2457 67.5043 89.0209 65.4804 90.2922C61.0818 93.0552 58.1225 97.4517 55.3485 101.734C54.5143 103.021 55.2867 105.152 56.8544 105.445C57.5353 105.572 58.2102 105.647 58.8812 105.667C58.7178 106.262 58.5028 106.836 58.2289 107.363C57.2374 109.27 59.1106 111.295 60.8661 110.774C61.0609 110.877 61.265 110.962 61.4764 111.026C61.5005 112.106 62.0543 113.553 63.1504 113.771C64.923 114.152 67.2787 112.792 66.8604 110.805C67.3959 110.899 67.9295 110.911 68.4496 110.846C68.5078 111.881 68.4896 112.961 68.6322 113.915C69.0981 118.414 73.5823 121.437 77.8586 120.068C78.1208 121.47 78.4288 123.44 79.8061 124.2C81.4164 128.729 84.1969 133.897 88.7511 135.96C88.3457 137.002 88.5656 138.268 89.7867 138.965C98.1228 143.73 108.128 145.342 117.553 143.571C121.32 143.346 124.989 142.493 128.512 140.675C131.08 139.349 133.442 137.666 135.747 135.93C138.053 134.194 140.519 132.504 142.36 130.25C144.36 127.802 145.29 124.922 145.894 121.856C148.662 107.941 147.706 94.2776 142.678 81.0222C136.455 64.614 148.9 95.0491 142.678 78.64Z" fill="#FDC6A0"/>
<path fill-rule="evenodd" clip-rule="evenodd" d="M65.4584 89.492C72.3815 85.3981 81.2107 86.4577 85.3701 92.7993C86.0881 93.8941 86.5839 95.0985 86.9341 96.4926L86.9906 96.7244L87.047 96.9682C87.2284 97.7743 87.3473 98.5328 87.5085 99.8224L87.6871 101.286L87.7381 101.684C87.9113 103.009 88.0633 103.846 88.3002 104.698L88.3471 104.864L88.6206 105.808L87.588 106.191C85.6093 106.907 85.195 106.971 84.0532 106.373C83.1616 105.906 82.6961 105.277 82.0767 104.002L81.9871 103.816L81.7895 103.4L81.6823 103.181C81.2788 102.373 80.9556 101.511 80.4991 101.199C79.8789 100.774 77.9243 100.605 76.565 100.772L76.4941 100.781L76.4355 100.793L76.3348 100.816C74.0489 101.358 71.9654 103.208 70.5912 105.162C69.4847 106.737 68.8489 108.719 68.7709 110.78L68.7665 110.917L68.7394 111.969L66.5236 111.922L66.5453 111.512L66.5121 111.585C65.814 113.061 64.06 114.043 62.5925 113.066L62.5402 113.031L62.487 112.992C61.2481 112.078 61.0989 110.228 62.1157 109.104L62.1627 109.053L62.2085 109.007L62.1991 109.002L62.1886 108.999L62.182 108.998C61.8356 109.062 61.5314 109.24 61.1198 109.619L61.0139 109.718L60.8013 109.949L60.5813 110.184L60.4868 110.282C60.4264 110.343 60.3709 110.397 60.3189 110.444C60.2486 110.508 60.1835 110.562 60.1126 110.611C60.0472 110.657 59.9795 110.697 59.8977 110.732C59.6958 110.82 59.48 110.862 59.2039 110.794C58.8251 110.7 58.6116 110.471 58.4823 110.2C58.4321 110.095 58.4034 109.999 58.3831 109.897C58.3618 109.79 58.3513 109.681 58.3459 109.556C58.3423 109.474 58.341 109.384 58.3417 109.286L58.3442 109.133L58.3495 108.966L58.355 108.833L58.3801 108.341C58.4699 106.722 58.8941 105.133 59.6205 103.633L59.6942 103.483L59.7216 103.428L59.6457 103.531C59.1503 104.185 58.6719 104.639 58.0749 104.938L57.9927 104.978L57.9124 105.015C57.0841 105.379 56.2498 105.238 55.7457 104.562C55.3971 104.094 55.2942 103.478 55.3656 102.83C55.5043 101.573 56.0002 100.422 56.971 98.743L57.1071 98.5094L57.64 97.6034C59.6937 94.1385 62.3335 91.3396 65.4584 89.492Z" fill="#E8E1E1"/>
<path fill-rule="evenodd" clip-rule="evenodd" d="M106.821 49.9394C110.617 49.6708 114.482 50.3123 118.097 51.4597C123.862 53.2891 129.157 56.5177 133.507 60.7208C137.99 65.0525 141.305 70.3931 143.321 76.2916C145.753 83.4053 146.117 91.0008 146.801 98.4266C147.147 102.178 147.716 105.873 148.308 109.588L148.402 110.175C148.981 113.795 149.306 117.457 148.507 121.071C147.178 127.078 143.195 132.177 138.468 135.945C128.756 143.685 113.637 148.404 102.329 141.281C100.58 140.179 102.237 137.361 103.945 138.51C105.147 139.318 106.42 140.027 107.786 140.516C113.491 142.56 119.757 141.832 125.396 139.93C130.952 138.057 136.284 134.891 140.384 130.667C144.691 126.229 147.078 120.748 146.733 114.512C146.527 110.801 145.684 107.159 145.216 103.479C144.801 100.219 144.553 96.9416 144.266 93.6687L144.161 92.4914C143.554 85.8232 142.681 78.972 139.655 72.9191C137.109 67.8269 133.382 63.2966 128.9 59.7979C124.207 56.135 118.602 53.5732 112.722 52.6177C105.806 51.4941 99.1865 53.5373 93.4178 57.3407C88.3016 60.7139 83.903 65.2215 80.5303 70.3362C78.8947 72.8162 77.5014 75.4646 76.2982 78.1807C75.1644 80.7397 74.3827 83.4218 73.4709 86.0594C74.2212 86.037 74.984 86.066 75.7585 86.1518C79.7312 86.5931 83.4326 88.6571 85.789 91.9117C88.6686 95.8887 87.8903 100.77 89.015 105.293C89.1021 105.644 88.9541 105.988 88.6541 106.182C86.9487 107.287 84.6664 107.324 83.0158 106.08C81.5833 105 80.9108 103.048 81.4908 101.342C81.5664 101.12 81.8894 101.159 81.8985 101.397C82.0075 104.3 84.694 106.536 87.3274 105.154C86.1978 101.254 86.7923 96.8985 84.4819 93.3757C80.3926 87.1409 71.9302 86.8833 65.9865 90.398C62.8584 92.2475 60.3825 95.0284 58.5388 98.139L58.0077 99.042C57.301 100.249 56.5525 101.613 56.4059 102.942C56.3214 103.709 56.6037 104.429 57.4811 104.043C58.1909 103.731 58.7405 103.002 59.1622 102.375C59.8813 101.306 61.5337 102.23 60.9398 103.368L60.9196 103.405C60.0552 104.94 59.5229 106.632 59.4252 108.395L59.4004 108.883C59.3841 109.239 59.3724 109.745 59.4474 109.763C59.5375 109.785 60.163 109.061 60.2671 108.961C60.7689 108.478 61.2856 108.083 61.984 107.954C62.9022 107.786 63.8286 108.925 63.0316 109.671L62.9983 109.701C62.287 110.321 62.3186 111.557 63.1044 112.137C64.2133 112.955 65.5785 111.62 65.7395 110.52L65.7449 110.48C65.8872 109.292 67.5331 109.25 67.6225 110.48C67.8166 113.149 64.6465 115.386 62.2345 114.04C61.2807 113.507 60.6744 112.533 60.4845 111.488C60.18 111.65 59.8516 111.762 59.5044 111.792C58.3739 111.893 57.5703 111.096 57.3875 110.027C57.1746 108.781 57.3008 107.447 57.6283 106.153C57.0143 106.301 56.3686 106.244 55.7195 105.869C53.7557 104.733 54.3196 102.206 55.0611 100.5C58.2266 93.2181 64.7848 86.6106 72.9099 86.086C72.9544 84.8012 73.1281 83.5866 73.4123 82.3001C76.1913 69.7165 85.1943 58.0644 96.9149 52.6183C100.047 51.1629 103.368 50.184 106.821 49.9394ZM76.085 100.206L76.1963 100.181C77.4626 99.9074 80.7949 99.5861 80.3933 101.722C80.3743 101.823 80.2287 101.81 80.2027 101.722C79.8093 100.379 77.137 101.453 76.3567 101.777C75.2811 102.222 74.22 102.879 73.3417 103.643C71.4188 105.317 70.1299 107.674 69.9338 110.235C69.7394 112.775 70.4746 115.519 72.3024 117.357C73.1984 118.257 74.3421 118.869 75.6268 118.914C76.7811 118.954 78.0563 118.053 79.1214 118.58C79.3314 118.684 79.4977 118.97 79.4788 119.205C79.4429 119.65 79.2443 119.996 78.9488 120.265C80.7319 123.522 82.1912 126.97 84.4658 129.933C85.6071 131.419 86.9005 132.795 88.3651 133.967C89.0613 134.523 89.8181 135.013 90.5986 135.442C91.5131 135.946 92.3045 136.262 92.9572 137.115C93.5138 137.844 92.957 139.251 92.0395 139.377C89.8788 139.672 87.779 137.921 86.1928 136.609C84.6081 135.298 83.2384 133.681 82.1064 131.966C79.9329 128.671 78.4459 124.785 77.8514 120.853C77.1612 121.073 76.3841 121.14 75.7995 121.141C74.2441 121.145 72.7588 120.584 71.5365 119.636C67.0616 116.166 66.5642 109.042 69.7221 104.55C71.2333 102.4 73.5296 100.812 76.085 100.206ZM76.113 108.469C77.1507 108.377 78.1875 108.542 79.1627 108.896L79.5648 109.042C80.4141 109.354 81.3181 109.72 81.9315 110.358C82.8686 111.333 81.9355 113.024 80.6005 112.65C79.1246 112.237 77.925 110.99 76.4495 110.468C75.1306 110.001 73.6367 110.067 72.4662 110.871C72.3117 110.978 72.1084 110.768 72.2094 110.614C73.1048 109.247 74.5183 108.609 76.113 108.469Z" fill="black"/>
<path fill-rule="evenodd" clip-rule="evenodd" d="M108.915 119.159C111.223 117.769 119.848 118.788 126.623 119.159C132.003 119.454 135.845 118.87 137.075 119.698C139.854 121.569 138.504 130.616 133.716 131.853C128.928 133.09 111.179 134.818 108.119 131.853C105.058 128.888 104.776 121.653 108.915 119.159Z" fill="white"/>
<path fill-rule="evenodd" clip-rule="evenodd" d="M111.904 116.766C115.526 116.326 119.036 117.436 122.577 117.995C124.446 118.29 126.318 118.51 128.209 118.592C128.59 118.609 128.97 118.618 129.351 118.626C129.387 118.291 129.574 117.983 129.981 117.798C130.814 117.421 131.481 117.25 132.395 117.287C133.233 117.32 134.073 117.406 134.898 117.557C136.395 117.831 137.899 118.455 138.994 119.537C141.528 122.042 141.143 126.066 139.184 128.795C135.138 134.433 127.753 134.695 121.428 134.621L120.844 134.614C115.085 134.531 106.846 135.39 104.23 128.836C103.267 126.425 103.401 123.631 104.579 121.319C105.984 118.562 108.942 117.126 111.904 116.766ZM129.893 126.154L129.842 126.156C127.187 126.258 124.532 126.33 121.875 126.377C121.955 127.06 122.036 127.743 122.129 128.424C122.201 128.96 122.279 129.495 122.36 130.03C122.395 130.256 122.521 130.607 122.485 130.832L122.472 130.92V130.92C122.609 130.982 122.733 131.081 122.825 131.226C122.857 131.276 122.88 131.326 122.903 131.376C124.966 131.392 127.185 131.352 129.288 130.977L129.292 130.932V130.932C129.33 130.663 129.442 130.482 129.59 130.358C129.738 129.501 129.725 128.588 129.782 127.738C129.818 127.21 129.856 126.682 129.893 126.154ZM119.846 126.414C117.932 126.446 116.018 126.471 114.104 126.448L113.236 126.434V126.434C113.419 127.419 113.619 128.4 113.785 129.391C113.958 130.424 113.049 131.081 112.262 131.054C112.351 131.069 112.439 131.084 112.527 131.096C114.984 131.444 117.536 131.351 120.03 131.349C119.896 130.565 119.95 129.681 119.93 129.027L119.926 128.926C119.888 128.088 119.861 127.251 119.846 126.414ZM106.846 126.233C106.913 126.745 107.042 127.246 107.235 127.712C108.052 129.683 109.925 130.603 111.907 130.99C111.563 130.871 111.29 130.586 111.221 130.097C111.049 128.882 110.987 127.646 110.983 126.412C109.602 126.399 108.211 126.37 106.846 126.233ZM137.095 125.812C136.112 126.044 134.97 125.938 134.005 125.982C133.101 126.023 132.197 126.059 131.293 126.095C131.336 126.712 131.377 127.329 131.422 127.946C131.481 128.744 131.486 129.586 131.639 130.38C133.458 129.759 135.087 128.763 136.31 127.171C136.615 126.774 136.888 126.308 137.095 125.812ZM111.489 119.999C109.852 120.387 108.303 121.206 107.47 122.704C106.976 123.594 106.759 124.647 106.801 125.686C108.184 125.525 109.591 125.464 110.992 125.413C110.996 125.161 111.002 124.909 111.01 124.657L111.031 124.013C111.07 122.783 111.089 121.24 111.489 119.999ZM119.961 120.149L119.24 120.068C117.239 119.84 115.238 119.601 113.237 119.738C112.947 119.758 112.653 119.79 112.359 119.833C112.712 121.11 112.683 122.61 112.83 123.874C112.888 124.363 112.96 124.847 113.04 125.33L113.387 125.314V125.314C115.534 125.198 117.684 125.126 119.833 125.041C119.833 124.637 119.835 124.233 119.842 123.829L119.85 123.425C119.874 122.393 119.807 121.23 119.961 120.149ZM130.01 119.986C127.914 120.324 125.748 120.396 123.689 120.399C122.867 120.4 122.045 120.349 121.223 120.276C121.277 120.714 121.304 121.156 121.345 121.588C121.426 122.46 121.519 123.331 121.619 124.2L121.709 124.962V124.962C124.351 124.842 126.992 124.712 129.634 124.578L130.006 124.558V124.558L130.111 123.095C130.182 122.12 130.26 121.145 130.371 120.174L130.288 120.144V120.144C130.19 120.104 130.098 120.049 130.01 119.986ZM130.921 120.349C131.036 121.728 131.1 123.113 131.185 124.494L132.926 124.401C133.216 124.385 133.506 124.369 133.797 124.352C134.925 124.287 136.375 123.945 137.49 124.264C137.575 123.25 137.285 122.262 136.37 121.58C134.764 120.383 132.718 120.809 130.921 120.349ZM124.972 108.02C127.565 106.534 134.07 105.016 134.482 109.684C134.671 111.832 133.075 113.612 131.211 114.406L131.141 114.435C129.393 115.154 126.294 115.966 124.781 114.407C123.522 113.109 125.192 110.783 126.757 111.846C127.561 112.392 129.253 111.989 130.151 111.73L130.207 111.713C131.175 111.428 132.466 110.517 132.066 109.325C131.711 108.27 130.204 108.077 129.26 108.043C127.85 107.992 126.479 108.319 125.082 108.426C124.861 108.443 124.793 108.123 124.972 108.02ZM135.712 100.514C139.231 100.349 141.42 104.193 140.611 107.342C140.471 107.886 139.863 108.419 139.277 108.358L139.129 108.344C139.054 108.337 138.978 108.328 138.909 108.309C138.352 108.154 137.853 107.575 137.893 106.974L137.904 106.799C137.986 105.311 137.825 103.597 136.058 103.237C134.559 102.931 133.722 104.375 133.704 105.703C133.701 105.939 133.436 106.104 133.227 105.977C132.144 105.317 131.956 104.005 132.37 102.875C132.895 101.443 134.207 100.585 135.712 100.514ZM109.599 101.339C112.159 100.484 114.922 101.849 116.162 104.114C116.597 104.24 117.031 104.576 116.971 105.089C116.884 105.828 116.752 106.294 116.24 106.854C115.439 107.731 113.939 107.282 113.606 106.204L113.592 106.155C113.214 104.76 111.679 103.84 110.281 104.328C108.648 104.898 108.695 106.624 107.55 107.629C107.415 107.747 107.254 107.766 107.093 107.688C105.876 107.1 106.094 105.329 106.528 104.316C107.097 102.987 108.203 101.804 109.599 101.339ZM106.111 93.5593C108.186 91.4411 113.597 89.3915 115.017 93.3029C115.287 94.0479 114.711 95.0525 113.936 95.207C112.666 95.4598 111.54 94.9083 110.279 95.0073C109.257 95.0878 108.192 95.4291 107.376 96.0619C105.115 97.8144 104.618 100.779 103.042 103.009C102.966 103.118 102.817 103.072 102.803 102.944C102.444 99.6967 103.838 95.8791 106.111 93.5593ZM133.173 91.4741C134.55 90.9876 136.11 91.0292 137.494 91.4608C138.888 91.8958 140.169 92.7217 141.155 93.8009C141.602 94.2908 142.016 94.8314 142.348 95.4069C142.525 95.7119 142.71 96.3419 142.911 96.7171C143.996 97.3436 144.459 98.7713 143.488 99.787L143.444 99.8316L143.314 99.9605C142.792 100.477 142.005 100.701 141.292 100.495C139.698 100.033 139.504 98.7769 138.952 97.4433C138.587 96.5624 137.963 95.7829 137.205 95.2104C135.415 93.8577 132.48 93.4268 130.325 94.0642C130.21 94.0983 130.075 93.952 130.157 93.8459C130.566 93.3167 130.801 92.8824 131.348 92.4554C131.903 92.0222 132.508 91.7091 133.173 91.4741Z" fill="black"/>
<path fill-rule="evenodd" clip-rule="evenodd" d="M139.379 76.3792C140.6 75.9605 141.574 77.2309 141.34 78.3382C141.063 79.6422 139.702 80.6888 138.8 81.608C137.854 82.576 136.888 83.525 135.887 84.438C133.975 86.184 131.993 87.828 129.904 89.3603L129.265 89.8287C127.35 91.2306 125.44 92.5999 123.388 93.8135C122.277 94.4687 121.155 95.1027 120.019 95.7135C119.613 95.9312 119.119 96.2671 118.61 96.5167C120.471 97.9538 121.903 100.148 122.214 102.191C122.983 107.268 119.712 111.973 115.098 113.843C112.798 114.775 110.237 115.046 107.778 114.765C105.276 114.479 102.741 113.739 101.117 111.689C99.6736 109.87 99.1539 107.547 99.0503 105.267C99.0018 104.184 99.0123 103.119 99.2405 102.162C98.2454 102.17 97.2503 102.166 96.2637 102.177C93.8257 102.2 91.3832 102.211 88.9433 102.143C86.4271 102.071 83.9236 101.959 81.4158 101.735C80.3151 101.636 79.2208 101.473 78.1262 101.316C77.0637 101.166 75.8912 101.109 74.8982 100.674C74.8306 100.646 74.8586 100.549 74.9172 100.53C75.9757 100.188 77.1778 100.249 78.2806 100.181L79.3555 100.116C80.2508 100.063 81.1454 100.014 82.0433 99.9847C84.1174 99.9165 86.1899 99.8997 88.2636 99.8641L89.1525 99.8475C91.5926 99.7989 94.0327 99.7715 96.4729 99.6933C97.4848 99.6616 98.4989 99.6024 99.5151 99.5474C99.6334 99.2788 99.8069 99.0336 99.9736 98.795C100.472 98.0807 101.106 97.4508 101.763 96.8802C103.109 95.7049 104.624 94.8322 106.314 94.2468C107.989 93.6686 110.438 93.3817 112.21 93.4191C113.982 93.4564 116.507 93.7064 117.319 95.1556C117.403 95.3056 118.948 95.0161 119.406 94.665C120.477 93.8473 121.529 93.0061 122.562 92.1438C124.481 90.5397 126.454 88.9609 128.271 87.2447C130.145 85.4736 132.004 83.6729 133.787 81.813C134.683 80.881 135.576 79.9468 136.445 78.9915C137.332 78.0172 138.095 76.8167 139.379 76.3792Z" fill="black"/>
</g>
<defs>
<clipPath id="clip0_2016_14081">
<rect width="200" height="267" fill="white"/>
</clipPath>
</defs>
</svg>
