<svg width="200" height="267" viewBox="0 0 200 267" fill="none" xmlns="http://www.w3.org/2000/svg">
<g clip-path="url(#clip0_2016_14101)">
<rect width="200" height="267" fill="white"/>
<path fill-rule="evenodd" clip-rule="evenodd" d="M161.079 176.597C159.237 169.454 157.544 166.425 154.272 163.942C151.213 161.62 146.746 159.669 140.229 158.244C133.441 157.057 133.249 153.528 131.547 147.857C131.05 146.152 128.59 145.698 127.528 146.927C127.378 146.766 127.222 146.618 127.06 146.484C127.205 145.671 126.021 143.34 126.061 142.562C126.474 134.444 123.819 130.367 117.192 128.852C115.751 128.522 105.963 128.328 104.557 128.716C98.4147 130.415 92.3676 135.808 93.293 142.305C91.3648 144.826 89.4776 146.364 86.5027 147.176C81.8701 147.765 84.1973 213.41 92.2432 252.739C95.6953 269.613 178.24 240.892 174.51 232.441C175.039 230.892 174.075 229.189 174.51 227.59C174.825 226.432 175.631 225.953 176.037 224.807C176.608 223.194 175.987 221.029 175.344 219.383C175.08 218.563 175.829 217.68 176.037 216.843C177.023 212.894 174.764 213.242 173.136 210.602C173.16 210.594 173.584 208.71 173.582 208.719C173.831 207.374 173.206 205.65 172.662 204.527C172.293 203.768 171.504 203.293 170.721 203.38C171.51 200.7 172.508 198.47 173.582 195.887C175.48 191.336 177.286 186.574 180.012 182.455C181.128 180.768 180.226 179.216 178.42 179.101C172.572 178.729 166.789 177.887 161.079 176.597Z" fill="#FDC6A0"/>
<path fill-rule="evenodd" clip-rule="evenodd" d="M151.95 177.149L138.603 199.744C138.603 199.744 141.769 200.061 143.051 200.676C144.332 201.292 150.216 208.774 150.216 208.774L151.151 212.894L148.935 216.216L149.799 218.301C149.799 218.301 150.416 216.888 151.95 215.791C153.485 214.695 156.869 212.894 156.869 212.894C156.869 212.894 155.745 212.292 155.745 211.586C155.745 210.879 154.754 207.865 156.869 206.726C158.984 205.587 169.915 202.923 169.915 202.923L180.993 179.549L151.95 177.149Z" fill="#EC7495"/>
<path fill-rule="evenodd" clip-rule="evenodd" d="M92.4066 147.33L134.79 154.77L154.273 163.942L157.453 166.393L138.603 199.744L109.496 205.056L102.081 224.323L103.594 246.04L150.945 240.393L171.37 237.966L176.171 257.354L175.304 265.33L174.042 269.375L123.408 283.049C123.408 283.049 97.6239 280.549 93.0533 280.549C88.4827 280.549 54.9717 283.878 54.9717 283.878L47.2182 283.049C47.2182 283.049 30.0636 264.964 27.4029 258.527C24.7423 252.091 18.9888 212.965 18.9888 212.965L19.6223 206.953L34.4435 168.801C34.4435 168.801 36.4227 167.003 38.9179 163.942C41.4131 160.881 92.4066 147.33 92.4066 147.33Z" fill="#9DDADB"/>
<path fill-rule="evenodd" clip-rule="evenodd" d="M169.116 202.441C165.286 202.636 161.451 203.547 157.986 205.197C156.569 205.873 155.284 206.85 154.908 208.456C154.718 209.276 154.765 210.124 154.866 210.952C154.942 211.58 154.961 212.381 155.506 212.806C155.599 212.877 155.698 212.932 155.802 212.973C154.524 213.55 153.307 214.243 152.225 214.957C151.236 215.61 150.22 216.616 149.764 217.751C149.726 217.622 149.688 217.502 149.65 217.388C148.872 215.088 147.675 213.205 145.788 211.939C145.574 211.158 143.274 207.797 141.139 207.924C138.8 208.061 136.919 208.232 134.804 209.308C134.033 209.291 133.264 209.301 132.503 209.335C132.372 209.339 132.379 209.517 132.503 209.532C133.12 209.61 133.737 209.697 134.354 209.798C135.82 210.033 137.282 210.331 138.712 210.701C140.428 211.145 142.203 211.59 143.806 212.366C146.916 213.873 148.841 217.813 148.446 221.241C148.38 221.803 148.163 223.502 147.383 223.327C146.724 223.179 146.462 221.803 146.232 221.293C145.615 219.941 144.503 219.057 143.17 218.459C141.605 217.755 139.929 217.28 138.307 216.726C137.388 216.411 136.469 216.096 135.548 215.784C134.605 215.46 133.71 215.014 132.706 215.24C132.1 215.378 132.03 216.101 132.37 216.515C132.888 217.147 133.657 217.333 134.403 217.593C135.387 217.935 136.37 218.278 137.352 218.62C138.871 219.148 140.462 219.594 141.943 220.241L141.896 220.347C141.776 220.313 141.634 220.433 141.658 220.581C141.879 221.949 142.188 223.53 141.845 224.899C141.575 225.985 140.622 227.188 139.384 226.869C139.579 226.691 139.651 226.385 139.52 226.102C139.029 225.053 132.607 220.915 132.034 222.452C132.015 222.507 132.074 222.547 132.121 222.539C132.609 222.437 133.427 223.27 133.817 223.534C134.381 223.914 134.954 224.286 135.512 224.677C136.122 225.104 136.718 225.552 137.299 226.015C137.755 226.379 138.1 226.757 138.624 226.941C138.349 227.072 138.131 227.315 138.039 227.625C137.802 228.435 137.346 229.122 136.553 229.479C135.723 229.851 134.787 229.616 133.913 229.708C132.721 229.828 131.682 230.394 130.813 231.204C128.99 232.907 128.075 235.909 125.525 236.714C124.002 237.194 122.312 236.891 120.77 236.673C119.048 236.43 117.37 236.238 115.636 236.492C113.975 236.735 112.405 237.31 110.889 238.011C109.467 238.669 107.895 239.413 106.634 240.393C106.374 239.592 106.112 238.8 105.913 237.982C105.444 236.048 105.191 234.078 105.129 232.091C105.072 230.2 105.178 228.3 105.34 226.417C105.421 225.476 105.548 224.54 105.628 223.599C105.649 223.363 105.691 223.109 105.723 222.856C107.975 221.526 110.341 220.507 112.726 219.459C112.733 219.457 112.739 219.453 112.746 219.451C112.82 219.417 112.891 219.385 112.965 219.353C112.963 219.349 112.961 219.345 112.957 219.341C113.229 219.174 113.42 218.952 113.534 218.702C116.971 216.422 119.844 213.309 121.986 209.678C122.884 208.156 123.748 206.577 124.923 205.244C126.174 203.821 127.659 202.976 129.497 202.536C131.646 202.021 133.86 201.712 136.061 201.536C137.263 201.442 138.607 201.293 139.917 201.3C140.829 201.306 141.723 201.384 142.543 201.61C143.758 201.944 144.467 202.868 145.23 203.802C145.959 204.698 146.684 205.597 147.364 206.531C148.008 207.416 148.617 208.331 149.145 209.291C149.462 209.866 149.755 210.458 150.003 211.068C150.089 211.284 150.203 211.529 150.256 211.753C150.309 211.979 150.212 212.218 150.465 212.218C149.42 212.233 148.725 214.842 149.764 214.78C151.225 214.695 151.96 212.942 151.674 211.387C151.163 208.613 148.404 205.262 147.858 204.552C146.652 202.984 145.408 200.938 143.477 200.209C143.449 200.199 143.42 200.188 143.392 200.18C143.954 199.647 144.398 199.009 144.822 198.36C145.26 197.692 145.781 196.927 145.925 196.134C146.016 195.629 145.389 195.342 145.091 195.783C144.658 196.428 144.448 197.244 144.125 197.952C143.796 198.671 143.394 199.349 143.077 200.074C142.315 199.839 141.491 199.732 140.652 199.696C141.71 198.263 143.519 195.498 143.736 195.143C144.738 193.499 145.691 191.804 146.601 190.107C147.586 188.268 148.429 186.353 149.371 184.493C149.905 183.439 150.444 182.375 151.038 181.352C151.243 181.002 151.463 180.651 151.712 180.332C151.76 180.268 151.822 180.216 151.879 180.156C151.944 180.12 152.012 180.08 152.05 180.059C152.392 179.863 152.513 179.406 152.753 179.116C153.138 178.65 153.59 178.595 154.169 178.588C155.402 178.575 156.641 178.624 157.872 178.658C159.683 178.708 161.491 178.78 163.3 178.875C163.847 178.905 164.392 178.935 164.939 178.968C167.57 179.125 170.198 179.33 172.82 179.582C175.139 179.803 177.459 180.165 179.781 180.338C176.637 187.809 173.151 195.145 169.205 202.226C169.165 202.297 169.135 202.369 169.116 202.441ZM151.674 221.689C151.167 221.921 150.675 222.211 150.216 222.541C150.292 222.027 150.311 221.486 150.29 220.943C150.668 221.348 151.152 221.581 151.674 221.689ZM173.318 208.837C173.282 208.841 173.248 208.86 173.232 208.896C172.53 210.343 172.824 211.96 173.969 213.095C174.569 213.687 175.877 214.355 175.834 215.327C175.798 216.113 174.943 216.773 174.577 217.422C174.237 218.026 174.11 218.69 174.383 219.345C174.732 220.184 175.705 220.518 176.039 221.342C176.462 222.388 175.775 223.65 175.294 224.561C174.846 225.404 174.267 226.247 173.882 227.139C171.307 228.473 165.463 230.895 164.76 231.031C163.902 231.197 163.042 231.356 162.18 231.504C160.526 231.791 158.867 232.058 157.205 232.292C156.258 232.425 155.31 232.556 154.361 232.66C153.533 232.749 152.599 232.869 151.932 232.246C150.586 230.986 151.34 228.875 152.191 227.602C152.208 227.577 152.208 227.554 152.202 227.533C153.005 227.344 153.805 227.125 154.604 226.97C156.14 226.674 157.686 226.425 159.235 226.203C162.417 225.749 165.62 225.449 168.818 225.147C169.61 225.07 169.619 223.824 168.818 223.897C164.223 224.318 159.605 224.717 155.071 225.603C153.934 225.823 152.806 226.072 151.684 226.353C151.154 226.484 150.586 226.689 150.03 226.696C149.996 226.696 149.962 226.696 149.929 226.693C148.841 226.66 148.682 225.728 149.28 224.952C149.354 224.857 149.43 224.762 149.508 224.671C150.565 223.411 151.881 222.57 153.237 221.699C154.756 221.492 156.271 221.031 157.758 220.693C161.43 219.856 165.102 219.019 168.776 218.184C169.496 218.02 169.19 216.912 168.47 217.075C165.681 217.707 162.892 218.339 160.103 218.971L156.022 219.897C155.206 220.08 154.188 220.45 153.229 220.584C152.755 220.649 152.297 220.657 151.883 220.56C150.546 220.243 150.478 218.571 151.055 217.578C151.701 216.462 152.922 215.765 154.006 215.133C155.884 214.036 157.883 213.247 159.835 212.339C160.182 212.262 160.528 212.186 160.875 212.11C162.89 211.666 165.193 211.449 167.09 210.635C167.658 210.394 167.348 209.498 166.786 209.511C165.313 209.543 163.773 210.067 162.334 210.377C160.777 210.715 159.218 211.051 157.661 211.387C157.505 211.421 156.579 211.717 156.44 211.652C156.351 211.609 156.32 211.301 156.29 211.098C156.195 210.43 156.125 209.729 156.229 209.058C156.457 207.556 157.71 206.85 158.977 206.273C161.8 204.99 164.895 204.187 167.975 203.865C168.685 203.792 169.395 203.745 170.109 203.722C170.948 203.696 171.639 203.548 172.063 204.375C172.731 205.677 173.098 207.351 173.318 208.837ZM169.398 256.04C168.783 253.913 168.951 251.641 168.529 249.47C168.312 248.351 168.015 247.24 167.691 246.147C167.43 245.264 166.993 244.324 166.944 243.403C166.941 243.341 167.013 243.306 167.063 243.334C167.931 243.831 168.597 244.906 169.092 245.749C169.684 246.758 170.137 247.815 170.502 248.926C171.229 251.14 171.826 253.81 170.888 256.04C170.609 256.705 169.629 256.837 169.398 256.04ZM145.397 272.149C144.48 271.509 143.812 270.615 143.035 269.825C142.271 269.049 143.466 267.853 144.23 268.63C144.893 269.303 145.469 270.144 146.249 270.689C146.625 270.951 146.799 271.424 146.553 271.845C146.335 272.217 145.771 272.41 145.397 272.149ZM140.286 247.559C141.959 246.835 143.604 246.047 145.355 245.526C146.401 245.214 146.844 246.846 145.804 247.156C144.192 247.636 142.679 248.352 141.139 249.019C140.15 249.446 139.29 247.989 140.286 247.559ZM122.617 247.052C122.208 246.043 123.844 245.607 124.247 246.603C124.711 247.749 125.243 248.866 125.707 250.011C126.116 251.021 124.481 251.457 124.078 250.461C123.613 249.315 123.081 248.199 122.617 247.052ZM105.178 267.219C104.906 267.583 104.451 267.78 104.022 267.523C103.662 267.307 103.443 266.734 103.719 266.366C104.524 265.292 105.34 264.231 106.285 263.273C107.05 262.497 108.245 263.693 107.48 264.469C106.637 265.324 105.898 266.26 105.178 267.219ZM102.685 154.064C103.46 154.594 104.14 155.238 104.803 155.901C105.573 156.671 104.378 157.867 103.607 157.096C103.049 156.538 102.486 155.971 101.832 155.524C101.454 155.266 101.284 154.786 101.528 154.367C101.747 153.993 102.308 153.807 102.685 154.064ZM128.056 181.273C127.617 182.151 127.223 183.013 127.198 184.011C127.171 185.099 125.481 185.1 125.508 184.011C125.54 182.704 126.022 181.571 126.597 180.419C127.083 179.444 128.54 180.302 128.056 181.273ZM137.365 159.421C138.274 158.815 139.119 160.28 138.218 160.881C137.488 161.367 136.758 161.855 136.028 162.342C135.119 162.947 134.274 161.482 135.174 160.881C135.905 160.395 136.635 159.908 137.365 159.421ZM96.9884 197.627C96.8334 198.702 95.2049 198.242 95.3585 197.178C95.5962 195.533 95.8863 193.91 96.3322 192.308C96.6242 191.26 98.2541 191.708 97.962 192.758C97.516 194.36 97.2259 195.983 96.9884 197.627ZM91.0626 216.995C89.9748 216.972 89.9746 215.281 91.0626 215.304C92.0471 215.325 93.0149 215.584 93.9646 215.822C95.0209 216.086 94.5705 217.716 93.5152 217.452C92.7124 217.251 91.895 217.013 91.0626 216.995ZM88.8751 256.01C88.5014 256.192 88.1179 256.356 87.7402 256.529C86.9837 256.875 86.2275 257.222 85.4716 257.569C83.8968 258.292 82.3229 259.018 80.7504 259.746C77.6025 261.203 74.4303 262.61 71.2748 264.052C68.057 265.522 64.8477 267.012 61.6423 268.51C60.1322 269.215 58.6106 269.895 57.092 270.581C55.7936 271.169 54.1886 272.195 52.7632 272.292C52.6898 272.297 52.6653 272.204 52.7072 272.156C53.2457 271.544 54.1047 271.187 54.8125 270.789C55.5354 270.382 56.2719 269.999 57.005 269.611C58.5333 268.801 60.0635 267.997 61.6066 267.216C64.6932 265.653 67.7858 264.102 70.8789 262.553C74.0336 260.972 77.1842 259.382 80.3665 257.857C81.8649 257.14 83.3646 256.424 84.8653 255.711C85.6782 255.325 86.4916 254.939 87.305 254.554C87.6563 254.388 88.0041 254.208 88.3632 254.059C88.8405 253.862 89.2032 253.902 89.6955 253.78C90.4983 253.582 90.8458 254.603 90.2296 255.048C89.7221 255.414 89.4551 255.727 88.8751 256.01ZM77.592 273.348C77.4185 272.926 77.7817 272.413 78.1822 272.308C78.662 272.181 79.0468 272.473 79.2219 272.898C79.6852 274.026 80.3452 275.06 81.1947 275.934C81.954 276.715 80.7595 277.911 79.9996 277.13C78.935 276.034 78.1702 274.754 77.592 273.348ZM69.291 246.208C68.5206 245.437 69.7159 244.242 70.4862 245.013L72.6766 247.204C73.4471 247.975 72.2515 249.17 71.4815 248.399L69.291 246.208ZM46.8185 242.636C45.2437 243.098 43.407 243.522 42.3333 244.866C42.2809 244.932 42.1928 244.848 42.2243 244.782C43.5988 241.932 47.5406 240.932 50.2698 239.933C52.2001 239.227 54.1808 238.641 56.1781 238.117C55.9784 235.838 56.529 233.395 56.7204 231.127C56.9247 228.705 57.091 226.277 57.1763 223.848C57.2636 221.37 57.2847 218.875 57.2032 216.396C57.122 213.927 56.8015 211.487 56.6613 209.026C56.6477 208.788 56.979 208.776 57.0504 208.973C57.8798 211.257 58.2341 213.787 58.5041 216.196C58.7822 218.677 58.8745 221.151 58.839 223.646C58.8022 226.212 58.6531 228.771 58.4484 231.329C58.3514 232.541 58.2388 233.752 58.1325 234.963C58.0514 235.888 58.0138 236.805 57.8253 237.7C59.03 237.404 60.2374 237.124 61.441 236.852C65.2789 235.986 69.1328 235.182 72.9546 234.245C74.8307 233.786 76.6799 233.235 78.5475 232.746C80.3061 232.285 82.1623 231.727 83.9678 231.521C84.6122 231.448 84.6942 232.33 84.2676 232.629C82.8001 233.66 80.8512 234.377 79.1562 234.954C77.4551 235.533 75.6868 235.95 73.9432 236.379C70.307 237.273 66.6365 238.005 62.9714 238.767C59.3114 239.528 55.6444 240.283 52.0256 241.222C50.2829 241.674 48.546 242.128 46.8185 242.636ZM38.1889 197.402C37.2479 197.954 36.3984 196.493 37.336 195.942C38.5628 195.221 39.8703 194.68 41.1884 194.152C42.2 193.747 42.6352 195.383 41.6378 195.783C40.4532 196.257 39.2913 196.755 38.1889 197.402ZM34.7815 260.218C33.838 260.766 32.9879 259.304 33.9286 258.758C35.2499 257.992 36.6969 257.481 38.0661 256.811C39.0403 256.333 39.8959 257.792 38.919 258.271C37.55 258.941 36.1028 259.452 34.7815 260.218ZM33.249 224.561C34.1613 225.428 35.3788 225.836 36.5268 226.291C37.5278 226.688 37.0888 228.323 36.0775 227.922C34.6472 227.354 33.1903 226.836 32.0539 225.756C31.2633 225.005 32.4605 223.811 33.249 224.561ZM43.3415 176.135C44.3444 176.529 43.9051 178.163 42.8921 177.766C41.7686 177.325 40.6083 176.989 39.4848 176.548C38.4821 176.155 38.9211 174.52 39.9341 174.918C41.0577 175.359 42.2179 175.694 43.3415 176.135ZM61.1456 156.901C62.2113 156.721 62.6651 158.35 61.595 158.531C60.2674 158.755 58.9601 159.018 57.7009 159.505C56.6841 159.899 56.2478 158.263 57.2515 157.875C58.5109 157.387 59.8182 157.125 61.1456 156.901ZM67.0284 203.732C66.0513 203.252 66.9086 201.794 67.8813 202.272C68.9063 202.776 69.9684 203.166 71.0868 203.404C72.1518 203.631 71.6982 205.261 70.6375 205.035C69.3787 204.766 68.181 204.299 67.0284 203.732ZM72.5845 177.352C73.6366 177.064 74.0815 178.696 73.0339 178.983C71.1906 179.488 69.2927 179.751 67.4359 180.2C66.3777 180.457 65.93 178.826 66.9865 178.57C68.8434 178.12 70.7414 177.858 72.5845 177.352ZM96.1548 169.074C97.2246 169.272 96.7687 170.902 95.7056 170.705C94.5739 170.495 93.4269 170.492 92.2795 170.491C91.1902 170.491 91.1921 168.8 92.2795 168.801C93.583 168.801 94.8699 168.837 96.1548 169.074ZM173.027 177.908C170.265 177.643 167.5 177.432 164.73 177.274C164.601 177.267 164.475 177.259 164.345 177.252C164.331 177.223 164.312 177.195 164.293 177.166C163.389 175.838 162.723 174.511 162.146 173.01C161.595 171.582 161.06 170.109 160.211 168.82C159.242 167.351 157.935 166.201 156.501 165.205C155.632 165.79 154.825 166.475 154.087 167.201C153.31 167.964 152.115 166.769 152.892 166.005C153.548 165.36 154.248 164.764 154.988 164.226C154.134 163.706 153.262 163.218 152.411 162.733C149.223 160.913 145.959 159.23 142.627 157.692C141.079 156.975 139.511 156.339 137.933 155.695C137.083 155.348 136.245 154.902 135.396 154.501C135.457 153.9 135.277 153.228 134.817 152.833C134.477 152.543 134.213 152.436 133.807 152.231C133.716 152.199 133.661 152.18 133.636 152.169C133.655 152.173 133.71 152.19 133.8 152.22C134.016 152.319 134.033 152.29 133.851 152.133C133.841 151.791 133.167 151.068 133.013 150.715C132.476 149.504 132.309 148.223 131.517 147.12C130.425 145.6 128.591 145.026 126.881 145.541C126.704 143.713 126.658 141.805 125.969 140.173C125.95 140.129 125.889 140.11 125.861 140.158C125.143 141.382 125.082 142.745 125.027 144.157C124.974 145.482 125.024 146.837 125.198 148.154C125.088 148.238 124.976 148.319 124.86 148.397C124.315 148.756 123.727 149.033 123.11 149.238C121.936 149.627 120.704 149.796 119.472 149.855C116.293 150.007 113.016 149.686 109.889 149.141C106.727 148.589 101.878 147.76 99.0639 146.177C97.2067 145.134 95.4935 143.859 93.7567 142.625C94.3865 140.596 94.547 138.415 93.9132 136.7C93.8372 136.495 93.5161 136.457 93.4548 136.7C93.0576 138.336 92.9414 139.981 92.4132 141.597C92.4048 141.621 92.3963 141.646 92.3879 141.669C92.2231 141.558 92.0583 141.447 91.8935 141.338C91.5132 141.086 90.9956 141.274 90.7675 141.633C87.1187 147.384 81.3407 147.714 75.2731 148.741C68.6327 149.865 61.959 151.079 55.5745 153.279C49.4689 155.384 43.6336 158.449 39.0111 163.026C37.9647 164.063 36.9861 165.167 36.0625 166.32C36.9561 166.433 37.8424 166.608 38.7172 166.883C39.7531 167.209 39.3079 168.841 38.2679 168.514C37.1435 168.16 36.0067 167.985 34.8582 167.898C31.7173 172.197 29.2683 177.071 27.1506 181.868C23.0885 191.066 20.4445 200.862 19.2278 210.835C19.8958 210.434 20.5759 210.053 21.2729 209.698C22.2413 209.205 23.0955 210.665 22.126 211.158C21.0494 211.706 20.0036 212.31 18.9903 212.965C18.5477 217.33 18.3762 221.724 18.4801 226.11C18.7273 236.568 20.1386 247.332 23.3308 257.31C24.8963 262.207 26.971 267.064 30.0618 271.202C31.4604 273.076 33.0491 274.767 34.921 276.177C35.8273 276.862 36.7865 277.473 37.7984 277.988C39.102 278.656 40.8006 278.876 41.9245 279.821C42.2942 280.131 42.5794 280.541 42.7949 281.004C42.6703 281.883 42.6555 282.765 42.8963 283.644C42.9724 283.919 43.1794 284.143 43.4351 284.25C43.4393 284.327 43.4393 284.401 43.4393 284.472C43.4393 284.506 43.49 284.515 43.4963 284.481C43.5069 284.415 43.5175 284.35 43.528 284.282C43.6104 284.31 43.697 284.323 43.7858 284.323C46.9949 284.335 50.2081 284.256 53.4215 284.147C53.173 283.386 52.9039 282.631 52.6455 281.869C52.2946 280.835 53.9275 280.395 54.2752 281.42C54.5775 282.31 54.8936 283.193 55.1748 284.086C58.6178 283.958 62.0598 283.804 65.4956 283.691C72.8034 283.447 80.109 283.367 87.4187 283.213C98.7703 282.972 110.204 282.479 121.574 282.961C121.967 282.127 122.407 281.311 122.824 280.488C123.316 279.516 124.774 280.372 124.284 281.341C123.994 281.913 123.693 282.478 123.408 283.049C125.71 283.169 128.011 283.327 130.306 283.543C134.223 283.91 138.102 284.563 142.015 284.969C145.993 285.383 149.884 285.31 153.831 284.652C154.541 284.534 154.959 284.105 155.132 283.572C155.138 283.57 155.143 283.566 155.147 283.559C155.35 283.323 155.54 283.126 155.736 282.955C155.971 282.803 156.225 282.674 156.522 282.56C157.078 282.348 157.657 282.219 158.244 282.133C158.891 282.036 159.546 282.027 160.192 281.947C160.737 281.877 161.27 281.773 161.802 281.647C162.759 281.419 163.667 281.121 164.572 280.725C165.36 280.381 166.071 279.886 166.744 279.347C168.134 278.331 169.338 277.033 170.39 275.684C171.003 274.896 171.579 274.078 172.103 273.227C173.016 271.751 173.794 270.219 174.579 268.674C174.865 268.216 175.125 267.747 175.363 267.269C173.827 266.816 172.276 266.447 170.648 266.421C169.56 266.403 169.56 264.712 170.648 264.73C172.515 264.76 174.282 265.196 176.037 265.716C176.122 265.489 176.204 265.26 176.28 265.028C176.489 264.544 176.663 264.047 176.806 263.544C176.89 263.316 176.975 263.088 177.06 262.86C177.25 262.069 177.44 261.277 177.632 260.484C178.015 259.216 178.317 257.929 178.539 256.625C178.725 255.767 178.868 254.902 178.965 254.027C179.261 251.908 179.502 249.792 179.519 247.649C179.494 246.328 179.409 245.009 179.265 243.697C179.204 242.805 179.101 241.917 178.961 241.036C178.779 239.725 178.6 238.428 178.298 237.134C178.072 236.259 177.846 235.384 177.62 234.509C177.055 232.685 176.39 230.897 175.623 229.149C175.581 229.04 175.367 228.798 175.239 228.796C175.141 228.794 175.006 228.883 175.05 229.002C175.055 229.012 175.059 229.025 175.063 229.035C175.019 228.936 174.977 228.834 174.932 228.735C174.894 228.642 174.746 228.456 174.632 228.458C174.626 228.458 174.619 228.458 174.611 228.46C174.641 228.439 174.668 228.412 174.696 228.38C175.454 227.482 175.946 226.3 176.489 225.26C176.939 224.402 177.364 223.498 177.486 222.528C177.594 221.676 177.448 220.837 176.914 220.148C176.305 219.364 175.16 218.996 175.796 217.863C176.519 216.574 177.582 215.456 176.523 213.991C175.984 213.245 175.131 212.835 174.497 212.186C173.768 211.436 173.421 210.432 173.441 209.407C173.485 209.432 173.544 209.42 173.565 209.356C174.178 207.505 173.734 205.472 173.107 203.669C172.765 202.691 172.04 202.422 171.197 202.374C174.848 195.241 178.264 187.993 181.308 180.579C181.41 180.336 181.509 180.093 181.608 179.85C181.756 179.486 181.444 179.002 181.082 178.922C178.45 178.345 175.708 178.161 173.027 177.908Z" fill="black"/>
<path fill-rule="evenodd" clip-rule="evenodd" d="M91.0607 50.5839L92.8816 52.7548C91.8733 53.4671 90.9215 54.1828 90.0263 54.902L90.0254 54.8998C94.1725 52.1873 98.7653 50.5839 103.727 50.5839C113.283 50.5839 132.694 58.8133 137.082 64.7491C139.259 67.6948 143.306 76.738 145.405 86.5696C147.092 94.4691 149.6 116.786 147.092 125.172C143.881 135.905 133.319 145.824 122.428 145.824C111.537 145.824 94.6279 137.942 82.5937 120.667C82.0434 119.878 75.7243 118.962 71.2164 115.997L72.3999 129.069L73.2995 136.673L73.101 137.214C69.8724 145.967 67.3139 150.534 65.4256 150.914C63.4987 151.302 59.5747 148.135 53.6534 141.415L52.8968 138.231C50.975 130.11 50.0142 125.751 50.0142 125.153L50.0155 125.044C50.0438 123.67 50.5161 115.89 50.5259 113.797L50.526 82.419C56.8941 61.1956 62.9711 50.5839 68.7569 50.5839H91.0607Z" fill="#FDC6A0"/>
<path fill-rule="evenodd" clip-rule="evenodd" d="M75.9719 43.3561C77.8442 42.629 80.0134 42.7664 81.7906 43.8612C85.2799 43.7111 88.7501 45.757 90.5692 48.7434C90.6072 48.7857 90.6475 48.8279 90.6833 48.8702L91.0689 49.3207C91.434 49.7509 91.819 50.225 92.1241 50.7147C90.6297 50.7489 89.3848 51.3595 88.5158 52.5927C87.8958 53.4727 89.3162 54.3088 89.9499 53.4766L89.9722 53.4462C90.494 52.7058 91.2816 52.419 92.1584 52.404C92.4101 52.3998 92.6011 52.3032 92.7361 52.1607C92.7898 52.3571 92.8379 52.5555 92.882 52.7548C97.297 51.0334 102.057 50.5775 106.797 50.9858C106.589 51.3231 106.415 51.6845 106.282 52.0643C106.13 52.4949 106.453 52.9892 106.871 53.1042C107.322 53.2285 107.73 52.9634 107.893 52.5538L107.908 52.5137C108.09 51.9963 108.387 51.5522 108.787 51.208C111.018 51.5112 113.234 51.9935 115.396 52.6153C117.994 53.3633 120.567 54.2761 123.084 55.3213C122.658 55.4889 122.289 55.7721 122.031 56.2449C121.517 57.1886 122.932 58.0339 123.469 57.1317L123.488 57.0983C123.54 57.0015 123.587 56.9434 123.621 56.9102L123.633 56.899L123.708 56.8647L123.846 56.825V56.825L123.899 56.8119C123.946 56.8014 123.965 56.802 124.089 56.7952C124.253 56.7859 124.417 56.7868 124.581 56.7865C124.967 56.7863 125.214 56.5705 125.325 56.2945C126.567 56.8565 127.793 57.4483 128.998 58.0682L129.284 58.2168C133.002 60.1641 136.524 62.7214 138.567 66.4841C138.702 66.7356 138.744 67.0104 138.711 67.2725C139.147 67.7966 139.568 68.3377 139.973 68.8872C141.209 70.5695 142.113 72.4823 142.969 74.3781C144.691 78.1908 145.851 82.1072 146.755 86.1904C147.631 90.1258 148.337 94.1034 148.992 98.081C149.72 102.5 150.325 106.958 150.451 111.44C150.675 119.432 149.117 127.469 144.641 134.197C140.648 140.199 134.635 144.965 127.505 146.491C120.253 148.042 112.579 146.529 106.864 141.685C105.942 140.905 106.069 139.33 106.864 138.531C107.764 137.631 109.092 137.756 110.009 138.531C115.391 143.094 123.226 143.798 129.711 141.473C135.706 139.322 140.403 134.359 143.285 128.786C146.802 121.989 147.394 114.182 146.854 106.662C146.56 102.532 145.946 98.4361 145.313 94.3464L144.932 91.8847C144.515 89.2183 144.078 86.5556 143.507 83.9163L143.373 83.3014C142.676 80.1187 141.859 76.8544 140.595 73.8624C139.933 72.292 139.136 70.7788 138.321 69.2845C138.162 68.995 138 68.7012 137.833 68.4053C137.61 68.4835 137.355 68.4962 137.087 68.4117C134.783 67.6931 132.415 67.2112 130.006 67.0506C128.908 66.977 127.809 66.9656 126.71 67.0085C124.831 66.8988 122.898 67.0645 121.107 67.6423C120.932 67.4916 120.755 67.3441 120.577 67.1966C120.529 67.1928 120.481 67.1877 120.433 67.1782C119.976 67.0882 119.655 66.7627 119.462 66.3516C119.451 66.3299 119.442 66.3081 119.434 66.2863C119.205 66.1107 118.973 65.9378 118.74 65.7672C118.172 65.915 117.674 65.4409 117.54 64.9214C117.413 64.8358 117.285 64.753 117.157 64.6691C117.057 64.6936 116.957 64.7139 116.86 64.7211C116.442 64.7513 116.038 64.687 115.667 64.4869C115.197 64.2335 114.897 63.8247 114.697 63.3604C113.987 63.4041 113.268 63.1731 112.633 62.7555C112.118 62.4167 111.724 61.949 111.331 61.4821C106.55 59.3443 101.353 58.0821 96.1436 57.7588C95.6304 57.8577 95.1209 57.9754 94.6177 58.1123C94.4985 58.1449 94.3295 58.2087 94.1349 58.2852C95.2963 58.1445 96.4727 58.1305 97.6657 58.3028C103.327 59.1234 107.736 63.3729 111.531 67.3841C112.434 67.2013 113.347 68.3732 112.511 69.1493L105.997 75.2004V75.2004C106.157 75.8772 105.383 76.5442 104.705 76.3817C103.568 76.1078 102.429 75.8415 101.289 75.5796C100.1 76.1564 98.6047 76.0577 97.5262 75.2216C97.476 75.1827 97.367 75.1205 97.2723 75.0588C97.1838 75.1322 97.0647 75.2057 97.0172 75.237C96.6337 75.4915 96.1666 75.5663 95.7186 75.4948C95.2577 75.4215 94.8418 75.1871 94.4832 74.8952C94.2549 74.7093 93.7229 73.9336 93.4269 73.8764L93.3981 73.8732C93.5956 73.8789 92.9606 74.4704 92.79 74.5928C92.392 74.8775 91.952 75.0271 91.4568 74.9726C90.5937 74.8774 89.8516 74.0888 89.4295 73.3607L89.3977 73.3048L89.3844 73.2702L89.3732 73.3077C89.3711 73.3143 89.3688 73.3214 89.3659 73.3294C89.3026 73.5008 89.104 73.6956 88.9691 73.8155C88.5846 74.1564 88.1085 74.3062 87.6 74.2172C87.1696 74.1421 86.8077 73.8815 86.5168 73.566L86.4715 73.5158C86.3854 73.4184 85.8184 72.6547 85.908 72.4717L85.9183 72.4563L85.8901 72.4503C85.5451 72.5353 85.2557 72.4501 85.0436 72.272C83.86 72.012 82.6919 71.7091 81.561 71.3241C81.4725 71.5735 81.3858 71.8228 81.3017 72.0744C81.9192 72.4569 82.4906 73.0022 83.0155 73.3911C84.0108 74.1266 85.0057 74.8621 85.9986 75.5997L89.933 78.5091V78.5091L90.3829 78.388V78.388C90.9578 78.2333 91.451 78.5688 91.662 79.0817L91.6794 79.1261C91.7631 79.3507 91.8639 79.5585 91.9824 79.7574C92.9659 79.718 93.7986 80.3234 94.0678 81.1916C94.3107 81.1861 94.5561 81.1954 94.807 81.2231C95.494 81.2987 95.9572 81.8102 95.8327 82.5125L95.8233 82.5607L95.8067 82.6389C96.2049 82.8084 96.4938 83.1358 96.5579 83.6308C96.6645 83.7916 96.7505 83.9666 96.8056 84.1615C97.0929 85.1726 96.5339 86.4225 96.2361 87.3911L96.2132 87.467C96.022 88.1036 95.8242 88.7371 95.6241 89.3704L95.1256 90.9426C93.7435 95.3243 92.3959 99.9442 93.5144 104.538C93.7529 105.51 92.513 105.95 91.9754 105.189C90.6721 103.347 89.264 101.611 87.7856 99.9445L87.7139 99.9331V99.9331C86.6785 99.7245 86.2765 98.9913 85.8013 98.244C85.5213 98.3266 85.2203 98.346 84.9293 98.2898C84.5081 98.2084 84.1307 97.9673 83.8329 97.6627C83.5805 97.4045 83.3492 96.7421 83.0509 96.5779C82.6778 96.3727 81.9277 96.666 81.482 96.6001C81.1196 96.5466 80.7812 96.4219 80.453 96.2653C79.8496 97.0898 79.4497 98.059 79.3516 99.1039C79.3135 99.5013 79.1954 99.8373 79.0246 100.116C79.6529 100.093 80.2832 100.137 80.9054 100.254C83.2076 100.683 84.8583 102.107 85.7859 104.229C85.8258 104.322 85.7056 104.398 85.6508 104.309C84.2743 102.185 81.2783 102.078 79.1026 102.826C76.792 103.62 75.4955 105.66 75.034 107.987C74.528 110.538 75.1771 113.288 76.5624 115.46C77.2052 116.471 78.0825 117.392 79.2481 117.764C80.6334 118.206 81.9129 117.415 83.3317 117.823C84.2973 118.1 84.7234 119.036 84.5482 119.973C84.4786 120.34 84.35 120.662 84.1771 120.941C84.6875 121.955 85.1596 122.999 85.7604 123.959C86.688 125.44 87.8098 126.666 89.0324 127.903C90.2952 129.179 91.5812 130.43 92.9326 131.614C94.2272 132.749 95.7114 133.556 97.0691 134.596C98.022 135.325 98.494 136.348 98.0239 137.519C97.6362 138.487 96.3289 139.311 95.2706 138.874C93.2446 138.037 91.4716 136.612 89.8569 135.146C88.36 133.784 87.057 132.157 86.0724 130.39C85.1437 128.724 84.4593 126.833 83.8819 125.01L83.8103 124.783C83.5383 123.916 83.2518 122.942 83.0663 121.959C81.9553 122.568 80.4477 122.657 79.2589 122.492C77.3381 122.228 75.5861 121.258 74.2622 119.844C73.6451 119.186 73.0997 118.435 72.6287 117.622C72.6715 118.117 72.697 118.596 72.7244 119.032C73.8251 120.241 74.2666 121.985 73.8759 123.576C74.7968 124.526 75.0549 125.953 74.5742 127.167C75.5821 128.169 75.5442 129.764 75.1084 131.212C76.3 132.548 76.4128 134.627 75.4824 136.134L75.4544 136.242V136.242C76.3938 137.818 76.1819 139.855 75.0049 141.246C75.8088 142.809 75.6844 144.912 73.6755 145.518C72.9433 145.739 72.2336 145.551 71.7026 145.139C72.1875 147.557 72.4044 150.011 71.7578 152.44C71.5004 153.404 70.5601 154.108 69.5714 154.108C68.745 154.108 68.1441 153.691 67.729 153.079C67.7775 154.298 67.7037 155.524 67.4444 156.76C67.288 157.507 66.5971 158.089 65.8637 158.27C66.1282 158.569 66.2337 159.001 65.98 159.452C64.9046 161.36 62.3063 160.569 62.1306 158.74C61.3968 158.191 61.0557 157.29 60.9144 156.315C60.7086 154.895 60.634 153.497 60.4008 152.095L60.3117 152.179V152.179L60.2657 152.218L60.2509 152.32C60.1173 153.013 59.7273 153.499 59.2211 153.788C59.3311 154.997 59.1275 156.229 58.3622 157.147C57.8524 157.759 56.9841 158 56.2396 157.868C56.1928 157.87 56.145 157.87 56.0952 157.863C54.4093 157.638 53.4338 156.035 53.8776 154.564C53.1987 153.73 52.9129 152.672 53.1138 151.626C51.8002 150.754 51.8269 148.839 52.2819 147.3C50.9048 146.211 50.3868 144.174 51.0787 142.555C49.8376 141.01 49.665 138.857 50.5082 137.097C49.1427 135.973 49.1505 133.802 50.5049 132.651C49.7836 131.216 49.3487 129.496 50.0695 128.183C49.561 127.62 49.2819 126.818 49.3407 126.043C49.4269 124.906 50.1779 124.119 51.1097 123.595L51.1742 123.24V123.24C51.3931 123.267 51.6262 123.205 51.8318 123.008C52.0352 122.812 52.2446 122.654 52.4611 122.524C52.7063 122.52 52.9173 122.411 53.0657 122.243C53.4718 122.104 53.9084 122.043 54.3926 122.038C55.4385 122.026 55.4754 120.458 54.502 120.357C54.3484 120.201 54.1367 120.103 53.9071 120.103L53.7273 120.104C53.307 120.108 52.8827 120.134 52.4927 120.302C52.2393 120.41 52.0439 120.574 51.9007 120.775C51.8739 121.078 51.7095 121.38 51.3534 121.629C50.9421 121.918 50.3796 121.951 49.9394 121.691C49.3232 121.325 49.3169 120.755 49.3879 120.136C49.5435 118.78 48.766 117.504 48.9511 116.117C49.0331 115.504 49.2368 114.975 49.5688 114.547C48.8687 113.497 48.7451 112.14 49.2842 110.987C48.1612 109.776 47.967 107.909 48.6832 106.451C48.6935 106.416 48.7015 106.38 48.7127 106.345C48.7936 106.097 48.9051 105.874 49.0281 105.66C48.3994 104.568 48.404 103.228 49.043 102.141C48.0751 101.01 48.0444 99.21 48.9051 97.9914C48.9102 97.8904 48.9207 97.7893 48.9294 97.6883C48.5343 96.6601 48.6292 95.4911 49.1303 94.535C48.9515 94.1218 48.8137 93.6769 48.7255 93.203C48.4997 91.9814 48.6159 90.7936 48.9532 89.6016C49.0078 89.4135 49.069 89.2254 49.1343 89.0373C49.1453 88.2209 49.1763 87.408 49.2172 86.5967C49.0569 85.9098 49.031 85.155 49.0275 84.4543L49.0265 83.9999C49.0186 82.8436 48.9382 81.1505 49.6675 80.1676C49.1992 79.1058 49.3917 77.7679 50.1732 76.9263C49.6247 75.9805 49.5096 74.8192 50.0609 73.7698C50.1494 73.6009 50.2521 73.4437 50.3647 73.2949C50.3191 72.3339 50.5209 71.3429 51.0317 70.3878C51.3635 69.766 51.8592 69.2277 52.4484 68.7969C52.4385 68.6695 52.4324 68.5423 52.4345 68.4169C52.4448 67.8577 52.5686 67.2961 52.7769 66.7722C52.4031 66.1327 52.2298 65.4117 52.4484 64.6348C52.693 63.7556 53.3362 62.999 54.1392 62.572C54.2039 61.7431 54.3332 60.9191 54.5179 60.106C54.0243 59.0042 54.4173 57.5502 55.5328 56.9011C55.3873 56.0206 55.5184 55.1076 56.1576 54.4198C56.3999 54.1592 56.6853 53.9616 56.9925 53.8306C56.8445 52.9453 57.0115 52.0242 57.6222 51.3033C58.121 50.7147 58.8602 50.3571 59.6124 50.3044C59.902 48.7645 61.3696 47.6131 62.9178 47.7048C63.1114 47.0268 63.5737 46.4357 64.2909 46.136C64.4746 46.0592 64.6601 46.0087 64.845 45.9806C66.104 44.7075 67.9784 43.8445 69.6011 43.4026C71.2288 42.9611 72.8788 42.9183 74.2763 43.4317L74.3781 43.4702L74.492 43.4554C74.9855 43.4005 75.4786 43.3688 75.9719 43.3561ZM63.603 147.707C63.1683 147.571 62.6834 147.868 62.5656 148.298C62.4412 148.752 62.7182 149.201 63.1546 149.338C63.6983 149.508 64.2694 149.55 64.8361 149.551C65.2917 149.551 65.6794 149.162 65.6794 148.705C65.6794 148.246 65.2934 147.86 64.8361 147.86C64.3753 147.859 64.035 147.842 63.603 147.707ZM59.7359 138.729C59.0859 138.73 58.5285 138.886 58.0466 139.342C57.7253 139.647 57.7173 140.235 58.0466 140.538C58.3792 140.844 58.8618 140.862 59.2032 140.57L59.2689 140.511C59.2768 140.504 59.283 140.498 59.2879 140.494C59.3153 140.476 59.3429 140.458 59.372 140.442L59.317 140.478C59.2752 140.509 59.3723 140.459 59.4268 140.436L59.4439 140.429L59.4494 140.428L59.493 140.424C59.5738 140.42 59.655 140.42 59.7359 140.42C60.177 140.42 60.5994 140.032 60.5792 139.575C60.5585 139.117 60.2086 138.729 59.7359 138.729ZM72.0011 133.366C72.9139 132.805 72.0986 131.369 71.1832 131.886L71.15 131.906C70.6807 132.194 70.1035 132.155 69.5718 132.156C68.4867 132.156 68.4848 133.847 69.5718 133.846L69.7515 133.846C70.5309 133.84 71.3193 133.785 72.0011 133.366ZM64.8174 127.195C64.1277 127.064 63.3552 126.948 62.6295 127.027L62.5091 127.043H62.2858C62.0918 127.043 61.904 127.121 61.7533 127.244C61.5146 127.343 61.2886 127.476 61.0824 127.655C60.2609 128.369 61.4581 129.561 62.2751 128.851C62.3204 128.812 62.3731 128.779 62.4316 128.752L62.4766 128.733H63.3787C63.4607 128.733 63.5406 128.716 63.6184 128.691C63.9112 128.732 64.184 128.79 64.3689 128.825C65.4298 129.025 65.8843 127.396 64.8174 127.195ZM64.0472 110.967C62.7254 110.352 61.2614 110.357 60.0389 111.21C59.1647 111.821 59.9767 113.26 60.8584 112.691L60.89 112.67C60.9996 112.594 61.1122 112.53 61.226 112.472C61.8467 112.651 62.4714 112.66 63.0714 112.439L63.1495 112.409L63.1961 112.427C64.1743 112.882 65.032 111.425 64.0472 110.967ZM78.4415 108.318C77.1062 108.168 77.0954 106.053 78.4415 106.204C81.2836 106.524 83.8624 107.791 85.7511 109.966C86.6296 110.977 85.1829 112.457 84.2879 111.491L84.2604 111.46C82.7585 109.73 80.7317 108.575 78.4415 108.318ZM63.4818 97.4603C63.185 97.4277 62.8888 97.4115 62.5972 97.4256C61.8968 97.4594 61.0439 97.9278 61.3512 98.774C61.5977 99.452 62.4056 99.4789 62.8044 99.1173C62.9703 99.1213 63.136 99.1323 63.3011 99.1492C63.7415 99.1946 64.1777 99.2787 64.6118 99.3645C65.672 99.5736 66.1259 97.9443 65.0602 97.734L64.5888 97.6405C64.43 97.6093 64.2697 97.5788 64.1088 97.5509C64.0125 97.5029 63.9092 97.4706 63.7988 97.4624L63.743 97.4603H63.4818ZM55.1027 84.3428L55.0036 84.3294C53.5795 84.1467 51.2935 84.3148 51.1207 86.1321C51.0252 87.1386 52.4756 87.2017 52.7619 86.3411C53.8135 86.1511 54.8737 86.1148 55.9181 86.2302C56.3166 85.8244 56.3198 85.0443 55.6565 84.8496C55.5629 84.5973 55.3675 84.3811 55.1027 84.3428ZM87.6546 81.2734C87.3255 80.9705 86.7858 80.9304 86.462 81.2734C86.2754 81.4708 86.1196 81.6902 85.9963 81.9315L85.9142 82.0945C85.9003 82.1216 85.8861 82.1484 85.8713 82.175C85.8437 82.2242 85.8127 82.2712 85.7825 82.3189L85.7622 82.3389C85.7542 82.3471 85.7447 82.357 85.7334 82.369C85.43 82.6905 85.3915 83.2499 85.7334 83.5646C86.0625 83.8675 86.602 83.9076 86.926 83.5646C87.1124 83.3672 87.2682 83.1481 87.3917 82.9065L87.4736 82.7437C87.4875 82.7166 87.5017 82.6898 87.5165 82.6632C87.5442 82.6138 87.5754 82.5668 87.6053 82.5191L87.6389 82.4855C87.6437 82.4805 87.6489 82.475 87.6546 82.469C87.958 82.1477 87.9964 81.5881 87.6546 81.2734ZM70.3618 79.0717C69.1736 78.2276 67.7606 78.1883 66.6684 79.2038C65.8801 79.9368 67.0382 81.1113 67.8331 80.4245L67.861 80.3994C67.8899 80.3724 67.9192 80.3487 67.9483 80.3261C68.0908 80.4478 68.2719 80.525 68.4789 80.5252C68.533 80.5253 68.587 80.5252 68.641 80.5263L68.722 80.5292L68.7654 80.5328L68.7709 80.5339L68.8088 80.55C68.8782 80.5814 68.9739 80.6298 68.8426 80.5474C68.8719 80.5628 68.8993 80.581 68.9271 80.5987L68.9756 80.6429C69.2935 80.9443 69.8436 80.984 70.1592 80.6507C70.718 80.4614 71.0147 79.5352 70.3618 79.0717ZM81.9786 76.302L82.0002 76.2952C83.0421 75.997 82.5991 74.3652 81.5518 74.6647C80.4405 74.9827 79.9099 76.0194 79.6877 77.0812C79.5943 77.5278 79.8184 77.9951 80.2767 78.1213C80.6954 78.2365 81.2201 77.9797 81.3142 77.5308C81.3801 77.2151 81.4561 76.9473 81.5765 76.6987L81.6493 76.5569C81.6834 76.4922 81.6953 76.4815 81.8102 76.3808C81.8295 76.3639 81.9173 76.323 81.9786 76.302ZM64.3316 67.7865L64.1687 67.7492C63.1537 67.5263 61.8065 67.4099 61.1935 68.4186C60.6349 69.3376 62.0442 70.1741 62.6246 69.3055C62.6334 69.3052 62.6436 69.3053 62.6555 69.3062L62.6746 69.3084L62.9347 69.2873C63.2587 69.285 63.5689 69.3424 63.8832 69.417C64.9386 69.6675 65.3891 68.0376 64.3316 67.7865ZM100.769 61.2866C101.538 60.5162 100.345 59.3202 99.5768 60.0912C98.969 60.7005 98.3827 61.3141 97.9877 62.0883C97.7804 62.4945 97.8818 63.0055 98.2902 63.245C98.6669 63.4658 99.2357 63.3496 99.444 62.9417C99.7864 62.2707 100.219 61.8391 100.769 61.2866ZM91.0727 59.2644C90.3135 59.715 89.8221 60.4573 89.5238 61.3164C89.3741 61.7476 89.6943 62.2411 90.1128 62.3563C90.5625 62.4801 90.9735 62.216 91.1352 61.8059L91.1501 61.7657C91.23 61.536 91.3577 61.2646 91.5156 61.0598C91.6506 60.885 91.8603 60.71 92.0184 60.6519C92.3985 60.512 92.668 60.1667 92.6328 59.7634C92.0077 59.98 91.4273 59.7195 91.0727 59.2644ZM68.3467 55.5869C67.5808 54.8742 66.5533 54.7798 65.6248 55.2111C65.2114 55.403 65.1079 56.0005 65.3223 56.3679C65.5702 56.7929 66.0612 56.8639 66.4759 56.6711C66.3694 56.7206 66.5617 56.6553 66.6448 56.6314C66.6554 56.6364 66.7946 56.63 66.8426 56.6307L66.9004 56.6343C66.9009 56.6347 66.8867 56.6345 66.8579 56.6335C66.8984 56.6427 66.9384 56.6536 66.9778 56.6662L67.028 56.6837C67.0027 56.6784 67.1167 56.7528 67.1484 56.7776L67.1541 56.7823C67.9489 57.5218 69.1445 56.329 68.3467 55.5869Z" fill="black"/>
<path fill-rule="evenodd" clip-rule="evenodd" d="M129.69 120.752C130.415 119.473 132.578 119.681 132.909 121.173C133.58 124.198 129.974 126.992 127.235 127.062C124.513 127.131 121.459 124.813 121.853 121.886C121.95 121.162 122.917 121.25 123.247 121.704L123.375 121.878C124.27 123.081 125.451 124.326 127.112 124.033C127.801 123.912 128.426 123.481 128.842 122.927C129.344 122.259 129.289 121.461 129.69 120.752ZM112.384 98.6195C112.753 98.5179 113.125 98.5572 113.452 98.6963C114.181 98.83 114.791 99.4387 115.005 100.134C115.022 100.194 115.041 100.253 115.062 100.312L115.094 100.4L115.007 100.177C115.047 100.396 115.226 100.627 115.29 100.847C115.369 101.118 115.388 101.425 115.361 101.723C115.593 101.726 115.825 101.734 116.057 101.754L116.281 101.774C117.532 101.89 118.906 102.103 119.648 103.185C120.064 103.793 119.673 104.887 118.908 105.004C117.73 105.185 116.715 104.532 115.54 104.402C114.43 104.278 113.269 104.349 112.173 104.55C109.911 104.963 107.833 105.881 105.628 106.456L105.328 106.532V106.532L105.329 106.531C104.951 106.622 104.522 106.097 104.896 105.789C106.662 104.338 108.923 103.162 111.15 102.446C110.826 101.929 110.725 101.249 110.947 100.695C110.981 100.58 111.024 100.468 111.069 100.357L111.163 100.128V100.128C111.172 100.02 111.193 99.913 111.223 99.8084L111.227 99.7765V99.7765L111.23 99.7784V99.7784C111.396 99.2392 111.829 98.7725 112.384 98.6195ZM134.914 98.703C135.397 98.2196 136.076 98.291 136.58 98.6715L136.647 98.7239V98.7239C137.122 98.935 137.515 99.3964 137.773 99.824C138.041 100.268 138.22 100.72 138.227 101.209C139.396 101.213 140.516 101.564 141.374 102.508C141.651 102.813 141.84 103.283 141.688 103.696L141.597 103.942V103.942C141.309 104.722 140.013 105.172 139.573 104.254L139.552 104.209C139.084 103.119 137.288 103.234 136.333 103.345C135.668 103.423 135.01 103.589 134.368 103.774C134.141 103.839 133.917 103.91 133.693 103.982L133.469 104.055C133.349 104.094 132.726 104.432 133.114 104.352C133.218 104.331 133.296 104.482 133.19 104.533C132.728 104.754 132.235 104.314 132.266 103.818C132.32 102.957 133.687 102.484 134.345 102.187L134.384 102.169C134.637 102.053 134.901 101.941 135.174 101.837C135.02 101.609 134.894 101.355 134.788 101.083C134.688 100.826 134.622 100.576 134.585 100.303C134.549 100.169 134.549 100.036 134.585 99.902L134.591 99.8637V99.8637C134.572 99.7754 134.563 99.6841 134.565 99.5921L134.561 99.5564H134.565C134.578 99.2345 134.705 98.912 134.914 98.703ZM127.197 107.877C129.053 108.45 132.114 110.013 131.147 112.424C129.797 114.639 126.216 113.012 124.481 112.296C122.922 111.779 122.11 113.965 123.618 114.624C136.074 119.553 136.028 106.543 127.649 106.734C126.726 106.755 126.697 107.686 127.197 107.877ZM110.717 90.9121L111.034 90.8197C112.678 90.3431 114.357 89.5201 115.818 90.8043C116.391 91.3085 116.509 92.3564 116.099 92.9854C115.164 94.4186 113.778 94.1996 112.269 94.3218C111.119 94.4148 109.987 94.7525 108.914 95.1746C108.037 95.5197 107.224 96.0056 106.457 96.5475C105.702 97.0803 105.187 97.9132 104.413 98.3928C104.13 98.5686 103.802 98.3877 103.701 98.1026C103.34 97.0913 103.949 95.8314 104.465 94.9698C105.095 93.9185 106.052 93.0587 107.08 92.4082C108.207 91.6957 109.452 91.2843 110.717 90.9121V90.9121ZM134.683 89.8239C137.463 89.8231 140.138 91.3699 141.693 93.6375C142.221 94.4079 141.834 95.5492 141.076 95.9928C140.225 96.4907 139.315 96.1322 138.754 95.4187L138.721 95.3755C137.829 94.1875 136.68 93.2518 135.317 92.6427C134.652 92.3453 133.917 92.1042 133.198 91.9818L132.965 91.942C132.64 91.8874 132.262 91.8352 131.967 91.8863C131.809 91.907 131.664 91.9592 131.531 92.0387C131.595 92.179 131.429 92.3481 131.276 92.264C130.585 91.8844 130.67 91.2072 131.241 90.6809C132.048 89.9364 133.64 89.8241 134.683 89.8239Z" fill="black"/>
<path fill-rule="evenodd" clip-rule="evenodd" d="M128.503 116.101C126.153 115.042 121.934 115.966 120.403 116.333C116.842 117.187 113.26 119.034 112.153 121.926C110.905 125.185 113.394 126.212 113.76 126.044C116.225 126.218 119.161 124.667 121.744 124.267C123.841 123.94 126.053 123.654 128.018 122.539C129.453 123.329 132.693 123.755 135.307 124.446C137.534 125.033 138.499 126.307 140.564 126.036C143.038 125.712 142.025 120.506 139.268 118.396C136.25 116.088 131.145 115.152 128.503 116.101ZM133.155 138.361C131.099 138.862 130.961 134.355 130.731 132.763C130.551 131.519 129.537 128.311 126.964 128.449C124.392 128.588 123.425 131.276 123.555 132.947C123.64 134.031 124.639 139.523 121.451 140.217C119.419 140.21 117.068 140.073 114.931 139.679C112.416 139.109 109.146 137.114 108.282 141.043C107.971 142.457 119.05 146.658 123.966 147.038C128.951 148.049 134.784 146.494 138.334 142.679C139.142 141.811 141.416 138.208 141.578 137.325C141.918 135.471 141.13 134.277 138.836 134.931C137.216 135.797 134.477 138.039 133.155 138.361Z" fill="black"/>
<path fill-rule="evenodd" clip-rule="evenodd" d="M147.178 109.153C144.613 111.805 140.331 112.566 136.919 111.144C128.156 107.481 132.445 96.0578 139.203 92.99C140.047 92.7795 141.175 92.2801 142.203 92.1668C142.296 92.1212 142.498 92.2533 142.743 92.1284C150.195 92.9607 151.892 104.533 147.178 109.153M118.915 109.832C116.038 113.649 110.69 114.827 106.32 113.052C97.6872 109.651 100.749 99.5216 106.656 95.5503C119.132 90.8603 124.285 102.794 118.915 109.832M100.201 101.374C100.193 101.371 100.185 101.369 100.177 101.365C100.222 101.345 100.268 101.325 100.313 101.304C100.299 101.343 100.283 101.381 100.268 101.42C100.246 101.404 100.226 101.386 100.201 101.374M153.117 97.2481C152.413 97.2496 151.395 97.3654 150.812 97.8543C149.374 93.0031 144.067 88.5134 139.451 91.7872C135.816 92.9566 133.119 95.5501 131.586 98.9981C128.822 97.3534 124.476 98.0557 122.079 100.231C120.509 95.0418 116.646 93.2248 112.048 92.9566C107.029 92.1343 102.027 97.0103 100.466 100.922C99.168 100.774 97.2287 100.361 96.0078 101.162C88.0838 99.0835 74.2299 97.9373 72.619 99.0924C71.471 99.533 70.841 102.244 72.4445 102.39C73.8418 102.192 72.2814 100.404 73.6899 100.209C81.1948 99.7433 88.4804 101.255 95.9058 101.89C96.5687 102.782 98.7108 103.08 99.8535 102.722C98.0537 109.357 101.939 113.872 107.76 115.224C116.775 117.296 124.617 109.229 122.26 100.838C124.991 99.4791 128.131 99.5375 131.106 100.253C126.135 118.554 155.598 117.733 150.997 98.4813C154.059 100.005 154.724 97.5556 153.117 97.2481" fill="black"/>
</g>
<defs>
<clipPath id="clip0_2016_14101">
<rect width="200" height="267" fill="white"/>
</clipPath>
</defs>
</svg>
