<svg width="200" height="267" viewBox="0 0 200 267" fill="none" xmlns="http://www.w3.org/2000/svg">
<g clip-path="url(#clip0_2016_14079)">
<rect width="200" height="267" fill="white"/>
<path fill-rule="evenodd" clip-rule="evenodd" d="M178.116 270.283C182.198 270.086 180.556 262.941 180.263 260.317C177.031 250.734 177.791 240.278 176.519 230.233C175.727 220.856 174.709 211.508 173.853 202.138C172.172 183.117 160.099 144.397 146.321 138.17C144.585 130.552 137.417 123.44 128.347 123.44C122.161 116.115 114.716 110.96 105.166 112.001C101.219 112.18 97.3919 116.367 93.6104 117.176C91.4931 117.468 72.7029 116.716 68.939 118.953C66.3171 120.299 63.9503 122.788 64.7212 125.956C65.9512 129.795 62.1288 125.642 54.1549 129.739C37.895 139.508 47.6112 152.577 48.0418 152.982C37.895 167.105 29.0263 178.563 24.9228 195.825C22.2634 208.641 22.5628 221.872 20.3345 234.753C19.5478 239.22 18.3408 243.534 17.0347 247.872C15.6192 253.548 14.931 267.697 14.1508 267.823C12.7296 268.176 14.9721 271.096 16.478 271.098C58.2296 278.026 100.639 271.385 142.615 270.3C154.444 269.888 166.287 269.793 178.116 270.283Z" fill="#FDC6A0"/>
<path fill-rule="evenodd" clip-rule="evenodd" d="M93.6629 129.612C93.6629 134.057 109.092 150.575 114.416 149.485C117.966 148.759 123.33 144.021 130.507 135.272V129.612L128.957 123.451C137.737 123.761 144.624 130.723 146.321 138.17C159.961 144.335 171.93 182.346 173.8 201.561L173.853 202.138C174.709 211.508 175.727 220.856 176.519 230.233C177.791 240.278 177.031 250.734 180.263 260.317L180.282 260.48C180.62 263.224 182.117 270.09 178.116 270.283C166.287 269.793 154.444 269.888 142.615 270.3C100.639 271.385 58.2296 278.026 16.478 271.098C14.9721 271.096 12.7296 268.176 14.1508 267.823C14.931 267.697 15.6192 253.548 17.0347 247.872L17.3034 246.974C18.5053 242.938 19.602 238.912 20.3345 234.753C22.5628 221.872 22.2634 208.641 24.9228 195.825C29.0263 178.563 37.895 167.105 48.0418 152.982C47.6112 152.577 37.895 139.508 54.1549 129.739C62.1288 125.642 65.9512 129.795 64.7212 125.956C63.9503 122.788 66.3171 120.299 68.939 118.953C72.7029 116.716 91.4931 117.468 93.6104 117.176C94.594 116.966 95.5807 116.527 96.5718 115.989L96.3999 116.562C94.5752 122.68 93.6629 127.03 93.6629 129.612Z" fill="#9FD8E5"/>
<path fill-rule="evenodd" clip-rule="evenodd" d="M114.835 154.229C114.854 154.037 115.112 154.038 115.132 154.229L115.426 157.075C115.785 160.552 116.13 164.022 116.381 167.515C116.693 171.871 116.902 176.225 117.002 180.591C117.353 195.795 117.422 211.007 117.452 226.214C119.508 226.072 121.564 225.935 123.621 225.802C125.017 225.712 126.412 225.625 127.808 225.54L131.368 225.324V225.324L132.833 225.234C133.823 225.173 134.948 224.924 135.641 225.801C135.918 226.152 136.057 226.609 135.798 227.026C135.202 227.988 134.287 227.954 133.252 227.996C132.275 228.035 131.298 228.074 130.321 228.112C128.227 228.193 126.134 228.27 124.04 228.328C121.842 228.39 119.646 228.44 117.449 228.478C117.427 234.898 117.161 241.31 116.874 247.723L116.744 250.609C116.393 258.413 116.015 266.224 115.478 274.018C115.434 274.656 114.532 274.655 114.488 274.018C113.883 265.241 113.484 256.445 113.089 247.656C112.802 241.284 112.635 234.909 112.556 228.534C112.265 228.536 111.975 228.54 111.685 228.541C103.44 228.577 95.1965 228.613 86.9514 228.536C86.9651 228.552 86.9786 228.568 86.9877 228.59C87.5843 229.999 87.6412 231.797 87.6266 233.309C87.6099 235.044 87.3764 236.757 86.9771 238.444C85.5466 244.486 81.8566 249.897 77.654 254.372L77.5168 254.517C76.5255 255.565 75.3883 256.618 74.7796 257.952C74.1579 259.315 73.9421 260.909 73.6353 262.374L73.5995 262.542L72.3999 268.085C72.0188 269.845 71.9106 272.413 70.5175 273.683C69.2178 274.869 67.496 274.25 66.8843 272.724C66.4067 271.533 66.8824 270.225 67.1653 269.034L69.3818 259.714C69.7459 258.194 70.1439 256.664 70.9299 255.298C71.735 253.9 72.9154 252.886 74.1198 251.849C76.4005 249.884 78.4941 247.636 80.2648 245.201C82.0348 242.767 83.5474 240.084 84.6082 237.263C85.1393 235.851 85.5745 234.384 85.8748 232.905C86.1602 231.501 86.1576 230.047 86.4629 228.659C86.4838 228.563 86.5648 228.497 86.6575 228.468C86.6355 228.406 86.6691 228.322 86.7557 228.317L93.4989 227.883C99.4929 227.496 105.487 227.1 111.475 226.646L112.534 226.57V226.57C112.451 218.064 112.521 209.557 112.675 201.048C112.815 193.245 112.818 185.44 113.05 177.638C113.166 173.766 113.414 169.903 113.691 166.039C113.974 162.087 114.427 158.169 114.835 154.229ZM51.5195 199.471C51.4476 199.038 51.9925 198.77 52.2437 199.166C55.115 203.693 56.4995 208.611 57.083 213.91C57.5985 218.586 57.4466 223.329 57.1899 228.018C56.9161 233.018 56.5966 238.018 56.2736 243.015L55.7773 250.68V250.68L54.5319 269.893C54.4428 271.268 54.1309 272.517 52.948 273.156C52.7983 273.281 52.6421 273.394 52.4602 273.491C51.8211 273.833 50.9735 273.66 50.604 273.004L50.7522 273.101C50.8812 273.183 50.7363 273.069 50.3173 272.761L49.9618 272.301V272.301C49.7034 271.912 49.5384 271.53 49.4721 271.069C49.369 270.351 49.5025 269.564 49.5494 268.843L50.3657 256.244V256.244C51.0006 246.449 51.7419 236.657 52.3007 226.858C52.561 222.291 52.7433 217.719 52.6199 213.143C52.497 208.594 52.2652 203.966 51.5195 199.471ZM76.359 115.131L76.5183 115.104C82.2215 114.156 88.423 114.334 93.6352 117.084C93.6783 117.107 93.6587 117.178 93.6103 117.176L91.9326 117.109C86.6216 116.901 81.327 116.778 76.1049 118.026L75.5703 118.155C73.6896 118.614 71.7257 119.176 70.2152 120.418C68.7713 121.606 68.0524 123.438 67.3611 125.125L67.2687 125.348C66.5673 127.014 65.6796 128.593 64.1423 129.635C62.1511 130.984 59.7564 130.819 57.4732 131.002C53.4532 131.325 50.1665 134.24 48.5313 137.806C47.5411 139.966 47.1187 142.387 47.0351 144.749C46.9922 145.951 46.9861 147.201 47.1462 148.395C47.1973 148.777 47.6693 150.168 47.9099 150.135C48.4447 150.061 48.9335 150.34 49.1002 150.767C50.4211 149.491 51.7799 148.251 53.1825 147.056C56.6788 144.077 60.4447 141.377 64.4106 139.058C67.4374 137.287 70.6301 135.533 73.9362 134.207C73.6742 134.201 73.4159 134.253 73.1659 134.383C73.0565 134.44 72.9477 134.303 73.0341 134.212C74.0754 133.116 75.3228 132.96 76.5802 133.252C76.8485 133.167 77.1171 133.084 77.3866 133.006C77.5208 132.967 77.5876 133.152 77.4781 133.223L77.1692 133.42V133.42C78.541 133.88 79.8878 134.784 80.9541 135.497C84.0171 137.545 86.713 140.048 89.446 142.505L89.9429 142.95C92.3485 145.099 94.8154 147.187 97.5485 148.911C98.9792 149.813 100.482 150.647 102.058 151.268C103.41 151.801 105.611 152.136 106.245 153.566C106.807 154.25 106.572 155.123 105.913 155.583C104.801 156.807 102.578 156.016 101.253 155.506C99.6559 154.892 98.1088 154.153 96.6333 153.287C93.7687 151.604 91.1275 149.513 88.6671 147.288C86.0974 144.964 83.6735 142.495 81.1742 140.098C80.0913 139.059 79.0334 137.996 77.9489 136.959L77.4042 136.443C76.8506 135.924 76.062 135.114 75.2188 134.625C73.6303 135.572 72.0173 136.481 70.4431 137.454C68.2457 138.811 66.113 140.266 64.0132 141.769C59.9708 144.663 56.1401 147.904 52.5838 151.377C46.0616 157.748 40.5048 165.023 35.6505 172.726L35.2819 173.313C32.5234 177.721 29.9148 182.273 28.0652 187.144C26.03 192.505 25.0402 198.143 24.5025 203.833C23.9689 209.483 23.7889 215.161 23.1925 220.806C22.5809 226.595 21.3758 232.256 20.0051 237.907L19.6782 239.246C18.4379 244.307 17.1578 249.368 16.5202 254.548C16.1799 257.315 15.9752 260.12 16.0214 262.909C16.0679 265.715 16.5086 268.458 16.8642 271.234C17.0004 272.298 15.9542 273.186 15.0181 273.327C13.9415 273.488 13.0166 272.801 12.6819 271.801C11.6387 268.682 11.4492 265.234 11.4819 261.96C11.5149 258.637 11.9389 255.335 12.5355 252.069C13.7089 245.644 15.5197 239.353 17.0344 233.005C18.3694 227.41 19.2654 221.805 19.7484 216.074C20.2497 210.127 20.5499 204.161 21.4645 198.257C22.3673 192.429 24.0659 186.862 26.6275 181.548C28.9599 176.709 31.8673 172.155 34.9155 167.74C38.6171 162.38 42.6825 157.279 47.2269 152.631C46.8187 152.613 46.3996 152.482 46.0147 152.241C44.8371 151.507 44.2886 150.069 44.12 148.757C43.7254 145.686 43.8206 142.481 44.6099 139.479C45.8833 134.637 49.1879 130.334 53.9773 128.589C55.2101 128.139 56.5206 127.975 57.8271 127.943C59.0668 127.912 60.4208 128.074 61.617 127.681C63.521 127.055 64.3371 124.811 65.052 123.111L65.0849 123.033C66.0016 120.866 67.1019 119.008 69.0874 117.655C71.2057 116.211 73.8598 115.555 76.359 115.131V115.131ZM130.549 123.701C132.262 123.106 134.405 123.646 136.081 124.165C137.948 124.744 139.674 125.811 141.153 127.077C142.714 128.413 144.003 130.062 144.915 131.905L145.002 132.083C145.834 133.792 146.782 136.138 146.362 138.016C146.35 138.069 146.336 138.12 146.321 138.17C149.721 139.845 152.861 141.942 155.596 144.6C158.78 147.696 161.477 151.218 163.758 155.023C172.82 170.136 174.415 188.287 175.486 205.522L175.752 209.892C176.334 219.329 177.014 228.743 178.78 238.049L178.909 238.721C180.798 248.465 183.501 258.283 183.227 268.279C183.145 271.274 178.721 271.253 178.592 268.279C178.109 257.083 175.498 246.273 173.729 235.252C170.617 215.863 172.177 195.873 167.767 176.678C166.037 169.145 163.357 161.838 159.529 155.114C157.639 151.792 155.475 148.582 152.942 145.717C150.761 143.251 148.496 140.878 145.948 138.805C145.134 139.621 143.507 139.205 143.082 138.016C142.79 137.198 142.875 136.243 142.688 135.387C142.514 134.592 142.274 133.805 141.955 133.056C141.318 131.565 140.383 130.133 139.304 128.927C138.139 127.622 136.799 126.538 135.3 125.644C133.791 124.743 132.14 124.474 130.549 123.815C130.495 123.793 130.49 123.721 130.549 123.701ZM137.207 227.325C137.21 227.246 137.302 227.209 137.359 227.261C137.96 227.814 138.323 228.608 138.766 229.289C139.276 230.073 139.811 230.842 140.373 231.59C141.498 233.09 142.75 234.504 144.013 235.888C145.187 237.176 146.439 238.41 147.737 239.573C149.144 240.833 150.72 241.957 151.998 243.353C154.664 246.264 155.095 250.26 155.658 254.013L155.72 254.418C156.063 256.645 156.37 258.878 156.647 261.114C156.782 262.201 156.916 263.29 157.026 264.38L157.06 264.726C157.158 265.793 157.184 266.876 156.571 267.809C155.915 268.807 154.424 269.156 153.537 268.2C152.014 266.556 152.3 263.636 152.101 261.522C151.938 259.773 151.752 258.027 151.544 256.283L151.438 255.412C151.193 253.428 150.994 251.405 150.541 249.455C150.141 247.739 149.379 246.443 148.128 245.2C146.869 243.947 145.56 242.777 144.397 241.428C143.164 239.998 142.052 238.463 141.05 236.862C140.192 235.493 139.505 234.002 138.876 232.514L138.771 232.266C138.163 230.814 137.159 228.924 137.207 227.325ZM159.203 164.967C159.216 164.764 159.515 164.761 159.519 164.967C159.557 166.708 159.594 168.45 159.63 170.192C159.92 184.226 159.741 198.293 161.149 212.279C161.813 218.873 163.035 225.371 164.449 231.841C165.173 235.152 165.933 238.455 166.654 241.766C167.357 244.993 168.111 248.236 168.669 251.493C169.217 254.694 169.708 257.92 169.928 261.162L169.955 261.585C170.05 263.156 170.503 265.466 169.638 266.858C168.702 268.366 166.908 268.393 165.904 266.953C164.962 265.602 165.196 263.198 165.03 261.585C164.861 259.942 164.682 258.298 164.478 256.659C164.082 253.462 163.559 250.272 163.016 247.097C161.884 240.484 160.243 233.955 159.031 227.353C157.789 220.587 156.907 213.774 156.869 206.886C156.832 199.94 157.567 193.007 157.938 186.075C158.315 179.036 158.744 172.001 159.203 164.967ZM92.9321 121.316C93.3088 120.047 94.6381 119.254 95.9348 119.61C97.1232 119.937 98.1043 121.38 97.6398 122.614C97.1327 123.962 96.2467 125.11 95.4996 126.335C94.8096 127.466 93.8031 128.357 93.1003 129.468L93.8748 130.303C94.2623 130.72 94.651 131.134 95.0439 131.541L96.3949 132.941C97.447 134.029 98.5058 135.111 99.5944 136.162C102.796 139.251 106.047 142.238 109.632 144.883C110.448 145.485 111.271 146.084 112.116 146.644L112.432 146.853C113.012 147.233 113.659 147.607 114.36 147.542C116.062 147.386 117.601 145.577 118.771 144.451L118.832 144.392C121.732 141.632 124.417 138.615 126.764 135.37C127.285 134.649 127.79 133.916 128.282 133.174C127.147 131.848 127.418 129.259 127.355 127.651C127.311 126.52 127.308 125.389 127.302 124.257L127.298 124.029C127.285 123.296 127.252 122.593 127.727 121.991C127.754 121.956 127.812 121.957 127.847 121.975C128.498 122.316 128.698 122.888 128.976 123.529L129.005 123.595C129.343 124.364 129.667 125.14 129.994 125.914C130.337 126.724 130.652 127.546 130.97 128.365C131.118 128.747 131.26 129.129 131.398 129.514C131.483 129.76 131.57 130.004 131.66 130.249L131.681 130.267C131.799 130.368 131.899 130.474 131.986 130.583C132.349 130.765 132.638 131.096 132.773 131.583C133.068 132.642 132.458 133.506 131.914 134.346C129.704 137.761 127.185 141.016 124.385 143.968C122.994 145.435 121.531 146.836 120.007 148.165L119.741 148.395C118.373 149.572 116.887 150.686 115.06 150.961C112.921 151.283 111.181 150.219 109.543 148.994L109.38 148.871C107.828 147.695 106.307 146.479 104.834 145.206C101.83 142.612 98.9722 139.826 96.436 136.77C93.9688 133.797 91.5301 130.473 90.0094 126.896C89.9167 126.678 90.1605 126.45 90.3515 126.632C91.0943 127.339 91.809 128.085 92.5153 128.84C92.5349 127.728 92.3298 126.607 92.4438 125.488C92.5831 124.128 92.5429 122.625 92.9321 121.316Z" fill="black"/>
<path fill-rule="evenodd" clip-rule="evenodd" d="M146.805 93.3956C145.483 83.8335 142.459 74.5493 142.025 64.8436C141.766 60.6904 141.508 56.5369 141.25 52.3833C141.152 49.7892 137.791 48.914 136.507 51.2122C133.588 47.9675 128.363 48.4454 124.376 48.5439C100.905 49.3777 78.6017 65.286 70.5449 87.467C70.3512 87.9958 70.4098 88.5586 70.6288 89.0623C66.8735 101.616 80.1542 109.7 89.2119 115.298C92.8863 119.19 97.2055 122.425 102.082 124.639C107.693 127.285 113.938 128.761 120.136 128.902C121.497 128.933 122.314 127.83 122.412 126.689C124.39 126.227 127.774 126.76 128.819 124.728C140.745 119.536 148.515 106.375 146.805 93.3956V93.3956Z" fill="#FDC6A0"/>
<path fill-rule="evenodd" clip-rule="evenodd" d="M141.225 59.4847C141.191 59.1746 141.638 59.1651 141.729 59.4162C142.485 61.4805 143.269 63.5306 143.868 65.647C144.445 67.6868 144.861 69.7728 145.282 71.8499C145.98 75.2971 146.58 78.7696 147.077 82.2532C148.138 81.4222 149.527 81.3465 150.834 81.9933C151.448 82.2966 151.682 83.0986 151.535 83.7209C151.417 84.2201 151.273 84.7167 151.099 85.2033C151.47 85.5319 151.785 85.9373 152.013 86.4027C152.615 87.6285 152.421 88.9152 151.881 90.0846C151.922 90.1544 151.963 90.2245 152.001 90.2989C152.783 91.8204 152.365 93.183 151.794 94.6675C151.366 95.7784 151.605 97.0292 150.682 97.8678C150.362 98.9005 149.881 99.8608 149.18 100.728C149.021 101.02 148.783 101.255 148.5 101.428C148.429 103.057 148.258 104.682 147.935 106.292C146.682 112.543 142.704 118.113 137.78 122.042C132.961 125.886 127.302 128.183 121.196 128.926C118.231 129.287 115.261 129.173 112.321 128.658L111.954 128.593C109.241 128.099 105.957 127.282 104.081 125.23C103.094 124.151 103.671 121.776 105.415 122C106.34 122.119 107.144 122.267 108.014 122.609C108.693 122.876 109.373 123.133 110.07 123.351C111.404 123.767 112.784 124.092 114.17 124.272C117.057 124.646 120.057 124.547 122.911 123.982C128.1 122.956 133.141 120.589 137.079 117.025C141.657 112.881 144.34 107.519 144.735 101.335C145.175 94.4469 144.381 87.3937 143.723 80.5415C143.38 76.9771 142.945 73.4199 142.422 69.8776C141.91 66.4166 141.603 62.9603 141.225 59.4847ZM100.714 37.2433L100.936 37.2091C109.748 35.8647 119.02 35.9601 127.303 39.6059C128.891 40.3052 130.444 41.1485 131.907 42.1271C132.955 42.0174 134.01 41.9284 135.045 41.9138C136.347 41.8967 137.619 42.5751 137.779 43.8961C138.999 44.0482 140.123 44.4984 140.842 45.399C141.122 45.7496 141.31 46.1554 141.405 46.5781C142.155 46.7558 142.891 47.0283 143.589 47.3876C144.437 47.8251 144.926 49.0424 144.626 49.943C144.557 50.1474 144.479 50.3466 144.391 50.5414L144.323 50.6867L144.363 50.7417C145.04 51.8323 144.569 53.2631 143.532 53.9141C142.754 54.4023 141.886 54.7912 140.992 54.9793C141.066 55.3386 141.133 55.7 141.188 56.0656C141.209 56.2138 141.019 56.3194 140.935 56.1734C140.935 56.1734 141.255 57.1731 141.738 58.2744C141.928 58.7075 141.321 59.0921 141.089 58.6546C140.473 57.488 140.092 56.2918 139.533 55.0892C139.017 55.0554 138.502 54.937 138.006 54.7109C137.682 54.5629 137.435 54.3135 137.258 54.0155C137.248 54.0282 137.241 54.043 137.231 54.0578C135.567 56.203 132.316 56.9554 129.803 57.6338C127.105 58.3632 124.343 58.8132 121.571 59.145C116.73 59.722 111.852 59.8298 106.988 60.054C106.666 60.0686 106.345 60.0849 106.023 60.1005C104.048 61.8378 101.503 62.9174 98.8933 63.2456C97.5709 63.4117 96.0066 63.3695 94.5236 63.0309C93.9869 63.5804 93.3087 63.9874 92.5683 64.1965C92.435 66.9649 90.8952 69.5861 88.5673 71.114L88.6086 71.2785C89.187 73.6426 89.1796 76.2267 87.1059 77.8698C86.8248 78.0921 86.5181 78.2828 86.1955 78.4408L86.2664 78.6041C87.3375 81.1137 87.6796 83.8859 85.6662 85.9683C84.8498 86.8123 83.4164 86.6125 82.8042 85.6437L82.7743 85.5946C82.7404 85.5369 82.7037 85.4816 82.6685 85.4249C82.6139 85.5369 82.5304 85.6314 82.4064 85.6842C81.6412 86.0142 81.3355 85.7709 80.6376 85.4306C79.9925 85.1136 79.3116 84.8769 78.6161 84.6932C78.0488 84.5451 77.4837 84.4394 76.9145 84.3781C73.3179 85.7561 70.9947 89.9831 71.547 93.9501C71.8464 96.1101 73.0293 98.249 75.0909 99.1451C75.9932 99.5382 77.0537 99.7031 78.0298 99.57C79.3516 99.3903 80.3678 98.5557 81.736 99.0331C82.2757 99.2212 82.6133 99.6462 82.6426 100.227C82.6913 101.14 82.3685 101.825 81.8246 102.332C82.7838 103.135 83.5575 104.251 84.3903 105.141C85.4319 106.255 86.488 107.369 87.6137 108.396C88.6763 109.37 89.8065 110.275 91.0038 111.078L91.1296 111.161C92.6298 112.141 94.5202 113.01 94.5919 115.058C94.6151 115.675 94.242 116.241 93.736 116.556C91.8451 117.731 89.7873 116.188 88.3052 115.058C87.7086 114.603 87.1289 114.132 86.5702 113.644C86.197 113.673 85.7901 113.612 85.3664 113.424C85.0944 113.306 84.8288 113.166 84.5674 113.018C83.7178 113.232 82.9166 113.044 82.2568 112.598C81.3059 112.832 80.2982 112.86 79.4423 112.672C78.6603 112.498 77.9623 112.128 77.3868 111.632C76.1851 112.016 74.8506 111.945 73.6658 111.215C72.9553 110.778 72.4008 110.154 72.0994 109.425C71.9459 109.184 71.8477 108.903 71.8402 108.594L71.84 108.476C70.807 108.499 69.7719 108.144 68.9729 107.325C68.2392 106.572 67.881 105.634 67.8408 104.68C66.8014 104.385 65.8506 103.778 65.1275 102.842C63.93 101.29 63.77 99.3734 64.3856 97.6615C64.3453 97.5706 64.3095 97.4776 64.2779 97.3846C63.3228 96.0341 62.6925 94.4045 62.7431 92.7708C62.7494 92.5172 62.7831 92.268 62.8337 92.0207C61.8935 91.5196 61.202 90.6404 61.1282 89.5224C61.0713 88.6453 61.3854 87.7872 61.9525 87.1383C61.6763 86.4768 61.554 85.7582 61.6384 85.0396C61.7248 84.302 61.9841 83.6616 62.3638 83.1271C62.3552 82.9327 62.3657 82.7359 62.3973 82.5351C62.3594 82.3386 62.3278 82.1357 62.3111 81.9288C62.1317 79.6629 63.6918 77.6804 65.5913 76.6342C66.0909 76.3595 66.6306 76.1354 67.1703 75.9452C67.5625 75.8057 68.1528 75.7592 68.4985 75.5035C68.4838 75.4929 68.6271 75.3071 68.6524 75.2076C68.6798 75.085 68.7093 74.9645 68.7243 74.8399C68.781 74.3157 68.7389 73.7768 68.7283 73.2505C68.6819 70.8622 68.7557 68.4634 69.0066 66.0878C69.4725 61.6833 70.6217 57.3739 72.8604 53.5252C74.7388 50.3 77.3109 47.5757 80.2603 45.3163C86.135 40.8182 93.4661 38.3725 100.714 37.2433ZM73.4884 92.0185C72.7237 90.176 76.3239 90.1577 77.2758 90.2453L77.3039 90.248C79.4464 90.4617 82.7962 91.4948 83.6728 93.6622C84.0356 94.5593 82.9615 95.5318 82.102 95.2367C81.2606 94.948 80.7887 94.3279 80.1135 93.7854C79.9364 93.6429 79.7517 93.51 79.5637 93.3817C79.6627 93.6979 79.8212 93.99 80.0412 94.2081L80.093 94.2571C81.1299 95.1909 79.2757 96.6583 78.5875 95.4217C78.2211 94.7637 78.0744 94.0417 78.1887 93.2946C78.2226 93.0742 78.2816 92.8726 78.3675 92.6802C78.2991 92.646 78.2319 92.6088 78.1627 92.5758L78.0393 92.5184C77.2141 92.143 73.6928 90.6692 73.7214 91.987C73.7245 92.1328 73.5358 92.133 73.4884 92.0185Z" fill="black"/>
<path fill-rule="evenodd" clip-rule="evenodd" d="M123.152 112.274C121.732 111.695 120.465 110.728 119.538 109.493C119.216 109.063 119.133 108.61 119.2 108.195C119.276 107.729 119.552 107.306 119.928 107.023C120.305 106.739 120.777 106.598 121.233 106.67C121.63 106.732 122.024 106.949 122.337 107.399L122.402 107.489C122.953 108.235 123.67 108.846 124.488 109.241C125.276 109.621 126.158 109.798 127.07 109.695C128.808 109.499 130.005 108.559 131.278 107.282C131.436 107.121 131.594 106.955 131.752 106.786C131.852 106.633 131.991 106.534 132.146 106.483C132.317 106.425 132.511 106.429 132.689 106.491C132.86 106.55 133.013 106.664 133.116 106.815C133.213 106.958 133.269 107.135 133.251 107.339C133.134 108.661 132.443 109.842 131.461 110.769C130.37 111.799 128.924 112.511 127.563 112.761C126.064 113.036 124.536 112.839 123.152 112.274V112.274ZM128.271 91.8662C129.866 92.8364 132.297 95.0985 130.581 97.5035C128.56 99.6241 125.652 97.1927 124.219 96.093C122.89 95.2408 121.396 97.4327 122.629 98.4278C132.987 106.099 137.19 92.1199 129.078 90.7256C128.184 90.572 127.853 91.5661 128.271 91.8662ZM109.711 82.9429C109.887 80.7541 113.219 80.257 113.551 82.423C113.847 84.3632 113.498 86.1455 112.624 87.8923C111.79 89.5611 109.692 88.7825 109.533 87.2629C109.32 85.2259 109.601 84.3044 109.711 82.9429ZM135.076 81.9739C135.541 81.3652 136.212 80.9497 137.015 81.1845C139.526 81.9185 138.786 85.4846 137.904 87.2204C137.425 88.163 135.876 88.4021 135.176 87.5721C134.036 86.2186 133.489 83.5157 134.94 82.1825C134.979 82.1136 135.023 82.044 135.076 81.9739ZM112.589 73.3654L112.986 73.2959C114.213 73.0836 115.738 72.8796 116.606 73.8665C117.067 74.3898 117.225 75.3624 116.606 75.8633C115.518 76.7446 114.314 76.4031 113.01 76.4777C111.935 76.5394 110.902 76.7174 109.867 77.0135C107.595 77.6629 105.744 78.8486 103.804 80.1505C103.55 80.3213 103.29 79.9956 103.411 79.7574C104.531 77.563 106.701 75.7604 108.875 74.6616C110.036 74.0751 111.305 73.5885 112.589 73.3654ZM132.787 72.3823L133.091 72.4445C136.395 73.1353 140.687 74.5153 142.251 77.7615C142.311 78.2205 142.248 78.3189 142.197 78.3832L142.18 78.4046C142.137 78.4595 142.104 78.5351 141.905 78.5976C141.85 78.5844 141.794 78.5705 141.737 78.5557C141.02 78.3677 140.453 78.1087 139.904 77.84L139.308 77.5465C138.617 77.2076 137.92 76.881 137.181 76.6399C135.605 76.1255 133.983 75.7631 132.337 75.5696C131.98 75.5277 131.636 75.4072 131.365 75.2006C131.108 75.0046 130.911 74.7332 130.821 74.3724C130.705 73.9056 130.739 73.5521 130.989 73.1309C131.177 72.8146 131.447 72.5953 131.756 72.4694C132.071 72.3411 132.43 72.3108 132.787 72.3823Z" fill="black"/>
<path fill-rule="evenodd" clip-rule="evenodd" d="M128.851 122.659C128.851 122.659 119.473 124.038 115.275 122.089C111.09 120.147 107.019 118.268 103.222 115.695C99.3327 113.059 96.0327 109.929 93.677 105.923C91.4862 102.195 89.6651 98.2391 87.8313 94.3139C87.7241 94.0845 86.6714 91.8042 86.2996 91.0394C85.727 89.8537 84.0538 90.2259 84.0538 92.0665C84.0538 93.9071 83.9714 107.846 87.1869 113.329C90.0876 118.281 95.0038 121.742 99.8883 124.762C105.293 128.101 112.471 131.711 118.919 132.665C124.755 133.527 131.414 131.105 135.639 127.113C140.057 122.937 141.307 117.265 143.587 111.833C144.096 110.619 142.291 109.886 141.762 111.08C140.764 113.329 128.851 122.659 128.851 122.659Z" fill="black"/>
<path fill-rule="evenodd" clip-rule="evenodd" d="M146.075 88.7098C145.478 90.3363 144.568 92.0296 143.456 93.3986C138.958 97.2096 134.586 95.0995 132.367 89.9343C131.523 86.2841 133.763 82.3521 136.135 79.6669C139.562 76.231 145.155 78.0342 146.73 82.1188C146.826 82.648 146.884 83.176 146.912 83.7022C146.879 85.4123 146.673 86.8738 146.075 88.4984M102.833 85.4294C108.759 78.3773 119.847 78.0002 119.564 88.8541C118.291 102.593 96.8531 99.2206 102.833 85.4294ZM147.939 79.5465C147.731 79.1946 147.501 78.8541 147.249 78.5284C147.156 78.473 147.103 77.9818 146.761 77.9455C142.192 72.9029 134.165 75.7639 131.265 80.7886C130.735 81.4239 130.303 82.1676 129.985 82.9534C127.127 82.4291 123.796 82.5309 121.138 83.6107C118.503 76.7266 110.524 76.112 105.266 79.0534C101.996 80.6624 99.8755 84.0319 96.6951 85.8829C89.2186 86.4213 81.1944 84.7455 73.8529 86.6216C68.0629 87.8259 72.903 90.7588 73.874 88.8015C80.7958 86.7556 88.9961 88.4845 96.1828 88.0235C96.93 89.288 98.3631 90.3228 99.7912 90.2786C101.334 103.957 121.274 101.689 121.962 89.5296C122.742 88.2955 123.712 87.1145 125.101 86.3456C125.633 86.2355 126.147 86.0924 126.616 85.8709C127.418 85.7576 128.655 86.0979 129.393 86.7662C131.922 101.945 146.49 100.177 149.093 86.8799C149.145 86.827 149.29 86.6288 149.401 86.3107C150.292 85.132 152.473 84.6939 152.125 82.704C151.814 80.7137 149.302 80.7374 147.939 79.5465Z" fill="black"/>
</g>
<defs>
<clipPath id="clip0_2016_14079">
<rect width="200" height="267" fill="white"/>
</clipPath>
</defs>
</svg>
