<svg width="200" height="267" viewBox="0 0 200 267" fill="none" xmlns="http://www.w3.org/2000/svg">
<g clip-path="url(#clip0_2016_14091)">
<rect width="200" height="267" fill="white"/>
<path fill-rule="evenodd" clip-rule="evenodd" d="M97.4974 128.86C108.833 128.047 124.375 130.295 127.653 143.226C128.67 147.931 130.674 149.996 134.04 153.073C155.405 180.43 80.8617 185.028 77.0297 158.352C68.9568 161.293 60.1689 161.916 52.0911 164.889C47.71 166.508 43.7374 169.063 39.9305 171.734C24.4068 182.764 9.10278 194.109 -6.3656 205.218C-0.379756 207.975 11.0008 218.504 6.36348 225.578C5.28323 226.956 3.67971 227.906 2.26125 228.914L1.51327 229.448C-0.0958718 230.602 -2.80466 232.568 -4.30257 233.636L-4.57882 233.838C-4.68714 233.916 -4.80933 234.004 -4.91969 234.083C5.88243 249.882 18.5245 264.46 32.5476 277.475C33.7417 278.586 33.2526 281.069 31.5244 281.358L29.4655 281.66C22.8177 282.629 16.0435 283.5 9.34426 282.974C2.81968 282.264 -1.11201 276.487 -5.57229 272.301C-14.4791 263.194 -22.7703 253.479 -30.3223 243.216L-30.4795 242.999C-32.83 239.786 -35.9497 236.502 -36.178 232.353C-36.5944 231.106 -35.4986 229.318 -34.4456 228.468L-34.0861 227.949C-28.4386 219.824 -22.0471 211.988 -14.0393 206.103C-14.0691 205.227 -13.6638 204.305 -12.8614 203.724L20.605 179.496V179.496C29.24 173.551 37.2658 166.564 46.6254 161.764C56.1958 157.154 66.996 156.973 76.8037 153.126C77.0116 150.353 82.839 149.645 82.655 150.073C88.8035 146.361 91.9687 141.944 92.945 137.884C93.921 133.824 92.7079 130.121 97.4974 128.86ZM180.257 215.845C190.606 200.268 200.47 217.503 204.778 227.89C209.868 242.105 199.327 259.591 192.517 271.845C190.009 275.248 186.71 282.427 182.289 282.947C171.151 282.902 159.998 282.117 148.853 281.883C141.657 280.097 151.753 269.279 158.728 273.231C160.841 274.021 161.897 276.421 163.957 277.191C164.708 277.352 164.76 277.017 165.065 276.269L165.108 276.164C165.653 274.87 166.181 273.569 166.717 272.271C171.254 261.093 176.051 250.013 180.821 238.938C181.84 236.534 180.411 234.553 178.553 233.122C177.13 231.951 171.016 229.091 176.777 230.35C174.558 225.198 177.224 219.97 180.257 215.845ZM154.565 194.522C155.562 194.397 156.841 195.402 156.995 196.375C158.266 204.441 156.85 212.416 155.152 220.307L154.84 221.751C154.213 224.629 153.514 227.564 151.952 230.086C150.359 232.661 147.948 234.601 145.18 235.78C136.302 239.32 125.26 235.819 118.729 229.202C114.55 223.476 118.224 216.284 118.925 210.009C118.262 208.318 118.018 206.362 117.634 204.618L117.588 204.41L116.098 197.907C115.77 196.472 116.815 194.509 118.532 194.706C130.505 196.08 142.607 196.018 154.565 194.522Z" fill="#FDC6A0"/>
<rect x="115.422" y="194.865" width="42.0423" height="42.2701" fill="#FDEA6B"/>
<path fill-rule="evenodd" clip-rule="evenodd" d="M196.38 213.807C196.344 213.647 196.536 213.524 196.661 213.644C198.767 215.675 200.254 218.271 201.887 220.676C203.442 222.967 205.135 225.169 206.294 227.697C207.372 230.047 208.067 232.431 208.274 235.014C208.481 237.578 208.213 240.148 207.761 242.673C206.871 247.648 204.97 252.359 202.882 256.935C200.853 261.384 198.56 265.705 196.138 269.949L195.271 271.463C194.212 273.308 193.142 275.149 191.996 276.935C190.57 279.159 189.268 281.454 187.388 283.31C186.053 284.631 183.537 283.31 184.145 281.422C184.409 280.6 184.616 279.826 185.026 279.063C185.337 278.482 185.687 277.918 186.017 277.345C186.676 276.2 187.329 275.05 187.988 273.905C189.372 271.497 190.83 269.134 192.201 266.719C194.58 262.53 196.825 258.262 198.811 253.871L199.045 253.352C200.872 249.286 202.604 245.073 203.406 240.674C204.251 236.039 203.495 231.671 201.849 227.314C200.998 225.061 200.041 222.859 199.046 220.665L198.855 220.246C197.894 218.152 196.875 216.07 196.38 213.807ZM94.0944 133.637C94.1134 133.555 94.2528 133.549 94.2655 133.637C94.857 137.573 93.5409 141.737 91.3965 145.01C90.2261 146.798 88.7831 148.413 87.0824 149.711L86.95 149.811C85.2126 151.11 82.8651 152.365 80.7085 151.522C80.6409 151.497 80.5775 151.467 80.5183 151.434C80.7613 151.81 80.9852 152.205 81.2134 152.6C81.8916 153.777 82.5 154.997 83.1613 156.185C84.3444 158.309 85.7535 160.209 87.5345 161.872C94.6562 168.522 104.656 170.102 114.047 170.027L114.711 170.02C118.836 169.991 124.231 170.202 127.416 167.215C129.127 165.611 130.069 163.33 130.92 161.189C131.757 159.091 132.33 156.924 133.025 154.79C131.573 153.794 130.242 152.579 129.196 151.159C128.106 149.679 127.282 148.014 126.807 146.236L126.737 145.971C126.369 144.553 126 142.678 126.592 141.339C126.659 141.185 126.913 141.196 126.985 141.339C127.304 141.98 127.365 142.703 127.561 143.387C127.789 144.184 128.047 144.977 128.387 145.731C129.044 147.194 129.913 148.584 130.954 149.802C131.814 150.81 132.746 151.736 133.811 152.513C134.438 151.429 135.894 151.283 137.113 151.641C138.747 152.118 140.358 152.731 141.934 153.379L142.249 153.509C143.806 154.156 145.566 154.749 147.023 155.631C147.908 156.054 148.758 156.478 149.556 156.855C153.536 158.725 157.456 160.709 161.358 162.731L162.194 163.165C163.83 164.017 165.45 164.877 166.872 166.065C168.319 167.274 169.443 168.927 170.499 170.476C172.914 174.018 175.189 177.662 177.577 181.223C182.398 188.409 187.219 195.595 192.068 202.764C193.24 204.499 194.563 206.192 195.615 208.001C196.623 209.73 196.595 211.505 196.399 213.435L196.362 213.79C195.985 217.329 195.337 220.729 193.352 223.764C190.227 228.536 185.305 231.508 180.097 233.553C180.733 234.027 181.331 234.538 182.089 234.864C183.256 235.363 184.5 235.621 185.761 235.724C187.107 235.832 188.624 235.496 189.714 236.411C190.151 236.776 190.164 237.656 189.714 238.021C188.666 238.877 187.311 238.632 186.034 238.489L185.958 238.48C184.773 238.349 183.604 238.129 182.491 237.694C182.216 237.586 181.944 237.466 181.68 237.332C181.688 237.356 181.692 237.383 181.688 237.413C181.498 238.869 181.086 240.246 180.65 241.637L180.374 242.519C179.812 244.32 179.246 246.116 178.663 247.913C177.553 251.333 176.344 254.72 175.131 258.104L174.085 261.023C173.009 264.018 171.92 267.009 170.717 269.954C169.973 271.772 169.225 273.59 168.48 275.405C167.751 277.178 167.144 279.093 166.24 280.782C165.496 282.173 163.468 281.177 163.794 279.748C164.22 277.874 165.025 276.014 165.64 274.19C166.266 272.338 166.878 270.485 167.514 268.637C168.62 265.429 169.845 262.262 171.076 259.099L172.296 255.963C173.493 252.891 174.704 249.821 175.999 246.789L176.14 246.456C177.485 243.284 178.873 239.717 181.316 237.259C181.348 237.225 181.392 237.208 181.437 237.204C180.837 236.878 180.275 236.483 179.78 236.016L179.756 235.991C179.561 235.784 178.754 234.765 178.494 234.154C178.156 234.274 177.818 234.39 177.48 234.504C176.89 234.703 176.402 234.56 176.058 234.245L175.402 234.651C174.701 235.079 173.946 235.486 173.172 235.506C172.196 235.532 171.429 234.993 170.907 234.198C170.438 233.488 170.159 232.721 169.566 232.085C168.982 231.459 168.306 230.932 167.616 230.428L166.802 229.835C165.31 228.746 163.863 227.644 162.661 226.205C162.057 225.478 161.248 224.616 160.88 223.742C160.808 223.574 160.764 223.415 160.756 223.261C160.675 223.806 160.593 224.353 160.511 224.899C159.357 232.573 158.425 240.3 158.127 248.061C157.982 251.888 157.916 255.72 158.087 259.549C158.172 261.462 158.311 263.373 158.504 265.279C158.599 266.235 158.698 267.188 158.814 268.139L158.841 268.359C158.875 268.651 158.896 268.933 158.871 269.2C159.801 269.658 160.335 270.817 160.707 271.721C160.99 272.41 160.77 273.08 160.314 273.564C160.859 274.061 161.345 274.644 161.753 275.312C161.835 275.447 161.658 275.553 161.552 275.469C160.882 274.936 160.162 274.498 159.41 274.162C159.015 274.312 158.584 274.353 158.187 274.243C157.756 274.124 157.384 273.837 157.115 273.471C154.98 273.12 152.759 273.549 150.837 274.887C150.437 275.166 150.076 275.481 149.732 275.823C149.673 275.883 149.611 275.959 149.55 276.033L149.969 276.194C150.143 276.26 150.286 276.312 150.34 276.322C150.706 276.397 151.078 276.437 151.45 276.469L152.007 276.515C154.147 276.692 156.281 276.751 158.271 277.648C158.689 277.836 158.544 278.48 158.149 278.588C156.695 278.982 155.253 278.952 153.774 278.846L153.456 278.823C152.081 278.717 150.604 278.723 149.263 278.343C149.584 279.222 149.146 280.37 147.805 280.549C143.776 281.086 139.722 280.833 135.689 280.478C131.615 280.118 127.544 279.778 123.461 279.565C110.251 278.869 97.0207 279.003 83.7991 279.192L76.3275 279.3C70.3689 279.384 64.4094 279.449 58.451 279.404L55.6621 279.378C54.4833 279.366 53.304 279.352 52.1266 279.317L51.4204 279.294C50.0176 279.243 48.1606 279.455 46.9416 278.624C45.9359 277.939 45.712 276.684 46.3183 275.672C46.4937 275.38 46.7345 275.12 46.9859 274.866C47.5014 270.46 47.7908 266.032 48.0866 261.606C49.1134 246.119 48.5134 230.711 46.1451 215.38C39.7901 217.322 33.5324 219.759 27.4352 222.373C24.1373 223.787 20.8563 225.254 17.6134 226.792C14.6535 228.198 11.681 229.954 8.51831 230.867C8.23081 231.122 7.82883 231.244 7.47229 231.131L7.42606 231.115H7.42395C7.09859 231.191 6.73732 231.144 6.3824 230.931C6.31056 230.887 6.23873 230.843 6.1669 230.798L6.05916 230.73C4.94578 230.028 3.82606 229.164 3.03803 228.107C2.08099 228.995 1.05211 229.809 0.0401404 230.633C-1.05845 231.529 -2.15282 232.429 -3.23873 233.338C-3.66972 233.699 -4.14507 234.044 -4.52535 234.46L-4.58059 234.521C-4.58944 234.531 -4.59789 234.541 -4.60563 234.551C-2.95986 235.616 -1.51901 237.233 -0.228167 238.639C1.15796 240.147 2.49617 241.704 3.82343 243.266L5.10832 244.782C14.1942 255.515 23.373 266.637 35.1359 274.526C36.9951 275.773 35.2225 278.81 33.3761 277.536C29.8817 275.128 26.5754 272.455 23.4 269.641C17.8352 264.715 12.8282 259.188 8.14014 253.429C5.76761 250.514 3.46479 247.528 1.20845 244.523L0.44265 243.503C-0.577857 242.143 -1.59296 240.78 -2.56479 239.385L-2.76812 239.092C-3.62056 237.862 -4.52707 236.479 -5.07676 235.063C-5.28803 235.276 -5.52676 235.455 -5.87535 235.591C-6.47113 235.823 -7.20211 235.335 -7.34789 234.754C-7.70282 233.344 -6.47746 232.505 -5.48028 231.757C-4.26972 230.852 -3.03591 229.98 -1.8 229.111L-1.35853 228.799C0.187008 227.702 1.74066 226.577 3.42465 225.71C3.47535 225.643 3.53662 225.579 3.60634 225.524C3.68662 225.461 3.76479 225.4 3.84507 225.338C1.8338 222.075 -0.37183 218.939 -2.8331 215.975C-4.6838 213.746 -6.64859 211.617 -8.72747 209.601L-9.66135 208.697C-11.074 207.332 -12.5428 205.948 -14.1106 204.761L-14.6014 205.318C-15.2567 206.059 -15.9186 206.795 -16.6183 207.492C-17.9958 208.861 -19.3542 210.259 -20.7063 211.656C-22.9518 213.98 -25.1212 216.375 -27.2838 218.775L-28.3648 219.974C-30.6169 222.474 -33.0296 224.928 -35.0768 227.6L-35.179 227.735C-36.0728 228.934 -36.709 230.261 -36.2937 231.785C-35.8929 233.253 -34.9402 234.555 -34.119 235.824L-34.0373 235.95C-30.6845 241.175 -27.093 246.266 -23.2458 251.138C-15.5408 260.896 -6.75211 270.145 3.73521 276.929C5.18873 277.869 3.83028 280.207 2.37465 279.256C-3.75 275.251 -9.37606 270.441 -14.5521 265.275C-19.3035 260.535 -23.6092 255.314 -27.6444 249.956C-29.6113 247.342 -31.4958 244.673 -33.3021 241.944C-35.0535 239.296 -37.0796 236.572 -38.3493 233.651C-39.0147 232.114 -39.2599 230.451 -38.7148 228.832C-38.2149 227.344 -37.2263 226.109 -36.1979 224.946L-36.1014 224.837C-33.7373 222.181 -31.331 219.556 -28.9035 216.956C-26.4676 214.348 -23.9197 211.833 -21.319 209.392C-19.2761 207.471 -17.1465 205.778 -14.869 204.21C-15.0739 204.064 -15.2789 203.924 -15.488 203.789C-16.1239 203.375 -16.2845 202.489 -15.7268 201.927C-14.2035 200.388 -12.4479 199.05 -10.7958 197.65C-9.24296 196.333 -7.69014 195.014 -6.13732 193.695C-2.97676 191.015 0.183802 188.333 3.34437 185.651C9.02113 180.834 14.6662 175.984 20.3239 171.146C22.6831 169.129 25.0643 167.138 27.4393 165.14L31.659 161.588V161.588L33.7228 159.855C34.7803 158.969 35.8602 158.092 37.0627 157.417C39.8921 155.827 43.2936 155.139 46.4109 154.297L46.6183 154.24C50.1148 153.283 53.6303 152.382 57.1648 151.579C60.7035 150.776 64.257 150.045 67.8254 149.383C71.0324 148.787 74.3155 148.276 77.5859 148.2C78.3972 147.891 79.4155 147.783 80.2141 148.113C80.5437 148.25 80.888 148.451 81.1944 148.705C82.7937 148.143 84.3718 147.874 85.8655 146.923C87.357 145.974 88.6775 144.727 89.7887 143.353C92.0852 140.509 93.2873 137.148 94.0944 133.637ZM130.857 229.969C129.589 229.88 128.449 230.404 127.316 230.962C127.954 231.239 128.592 231.514 129.23 231.787L133.477 233.6V233.6C134.88 234.198 136.365 234.718 137.698 235.455C137.793 235.508 137.869 235.572 137.926 235.646C139.312 234.758 140.778 233.966 142.183 233.122C142.504 232.93 142.827 232.738 143.151 232.545C141.477 233.105 139.762 233.387 137.945 232.86C135.522 232.161 133.418 230.149 130.857 229.969ZM134.33 225.717L134.103 225.562C132.873 224.718 131.406 223.634 129.913 224.392C129.209 224.749 128.632 225.326 127.939 225.71C127.242 226.099 126.475 226.397 125.698 226.577C124.407 226.875 122.928 226.919 121.54 226.632L121.561 228.509V228.509C122.611 228.942 123.655 229.386 124.699 229.834C125.376 229.602 126.028 229.324 126.714 229.018L127.177 228.811C128.497 228.217 129.83 227.82 131.29 228.008C134.039 228.361 136.115 230.404 138.744 231.085C141.965 231.922 144.873 229.517 147.917 228.923C148.419 228.824 148.936 228.766 149.451 228.757L149.622 228.756L149.698 228.712C150.353 228.327 151.333 227.959 151.789 227.312C152.286 226.611 152.328 225.436 152.491 224.611C152.508 224.529 152.525 224.444 152.539 224.362C152.252 224.362 151.961 224.377 151.665 224.432C150.735 224.603 149.861 224.933 148.994 225.301C147.357 225.996 145.756 226.788 144.032 227.251C142.344 227.705 140.58 227.921 138.841 227.67C137.144 227.424 135.735 226.659 134.33 225.717ZM134.595 219.118L134.34 218.954C133.669 218.525 132.899 218.081 132.076 218.239C131.341 218.381 130.709 218.966 130.069 219.328C128.664 220.12 127.088 220.553 125.48 220.663C124.143 220.754 122.755 220.591 121.468 220.194L121.513 224.349V224.349C121.984 224.499 122.472 224.607 122.985 224.645C124.544 224.761 126.065 224.387 127.373 223.527L128.035 223.088C129.167 222.344 130.229 221.753 131.727 222.025C133.211 222.295 134.455 223.246 135.668 224.074L135.866 224.208C137.259 225.128 138.671 225.722 140.379 225.736C142.223 225.75 144.046 225.237 145.764 224.605C147.469 223.98 149.089 223.229 150.913 222.999C151.47 222.929 152.151 222.908 152.791 223.018C152.875 222.546 152.956 222.077 153.032 221.606C153.196 220.594 153.338 219.583 153.461 218.571C150.226 217.7 147.239 220.517 144.235 221.386C142.492 221.889 140.594 221.883 138.851 221.397C137.239 220.946 135.971 220.012 134.595 219.118ZM134.603 212.121C133.912 211.987 133.23 212.307 132.642 212.634C131.144 213.465 129.851 214.621 128.155 215.058C125.973 215.62 123.585 215.136 121.418 214.217C121.426 215.5 121.437 216.783 121.447 218.066C121.855 218.22 122.273 218.345 122.7 218.444C124.217 218.791 125.825 218.744 127.318 218.307C128.842 217.861 130.01 216.656 131.537 216.28C133.099 215.894 134.572 216.645 135.83 217.498L136.209 217.757C137.648 218.734 139.043 219.582 140.844 219.748C142.747 219.924 144.401 219.328 146.102 218.537L146.498 218.354C148.651 217.365 151.446 216.238 153.596 217.364C153.765 215.766 153.887 214.169 153.97 212.569C153.674 212.459 153.368 212.378 153.015 212.376C152.172 212.372 151.287 212.638 150.501 212.915C148.783 213.522 147.184 214.426 145.483 215.075C143.871 215.692 142.086 216.014 140.366 215.737C138.773 215.481 137.577 214.648 136.477 213.507L136.317 213.338C135.834 212.825 135.318 212.259 134.603 212.121ZM135.864 206.188C135.068 205.768 134.098 205.376 133.177 205.499C132.298 205.615 131.712 206.211 131.171 206.849L130.878 207.198C129.91 208.344 128.957 209.307 127.464 209.779C125.918 210.265 124.278 210.075 122.839 209.362C122.328 209.109 121.853 208.794 121.375 208.483L121.401 211.854V211.854C122.356 212.33 123.327 212.759 124.394 213.019C126.363 213.499 128.037 213.143 129.72 212.057L129.897 211.942C131.165 211.109 132.466 210.117 134.032 210.024C135.561 209.932 136.708 210.78 137.715 211.818L137.833 211.941C139.103 213.281 140.385 213.934 142.274 213.78C144.105 213.63 145.819 212.821 147.496 212.124L147.649 212.061C149.182 211.431 150.951 210.783 152.635 211.024C153.038 211.081 153.56 211.205 154.025 211.423C154.092 209.846 154.124 208.268 154.13 206.687C153.173 205.856 151.684 205.719 150.486 206.059C148.61 206.592 147.074 207.965 145.282 208.711C143.694 209.373 142.037 209.521 140.417 208.895C138.744 208.249 137.432 207.016 135.864 206.188ZM154.025 199.547C151.221 199.645 148.479 201.468 145.802 202.164C142.812 202.94 140.372 201.882 137.708 200.707L137.364 200.556C135.997 199.955 134.529 199.416 133.014 199.661C131.537 199.903 130.232 200.72 128.962 201.46L128.719 201.6C126.406 202.917 124.05 203.819 121.35 203.594C121.365 204.442 121.358 205.288 121.361 206.116C121.804 206.37 122.231 206.657 122.637 206.919L122.782 207.011C124.07 207.817 125.397 208.346 126.932 207.849C128.415 207.367 129.112 206.076 130.13 205.013C131.066 204.036 132.287 203.443 133.656 203.5C135.129 203.559 136.521 204.208 137.738 205C138.955 205.793 140.132 206.818 141.556 207.215C144.75 208.103 147.486 204.723 150.507 204.197C151.775 203.975 153.173 204.256 154.13 205.021C154.12 203.199 154.08 201.373 154.025 199.547ZM129.894 198.782C129.499 198.797 129.104 198.814 128.708 198.831C127.246 198.894 125.785 198.966 124.323 199.048C123.311 199.103 122.066 199.414 121.073 199.106C121.048 199.207 121.014 199.304 120.97 199.399C121.12 200.148 121.213 200.921 121.27 201.703C122.187 201.802 123.118 201.769 124.023 201.58C126.192 201.13 127.954 199.761 129.894 198.782ZM153.982 198.154C148.644 198.522 143.264 198.396 137.917 198.511L137.275 198.526C137.25 198.526 137.225 198.529 137.199 198.529C137.813 198.767 138.421 199.039 139.027 199.316L139.633 199.594C141.066 200.253 142.523 200.792 144.127 200.676C145.844 200.551 147.463 199.85 149.068 199.283C150.6 198.742 152.364 198.379 153.997 198.615C153.993 198.461 153.989 198.309 153.982 198.154Z" fill="black"/>
<path fill-rule="evenodd" clip-rule="evenodd" d="M145.547 90.9295C145.306 86.3046 145.094 81.5257 144.21 76.9716C143.776 74.7391 142.909 72.678 141.506 70.8859C140.222 69.2461 138.607 67.9742 136.968 66.7109C133.675 64.172 130.509 61.361 126.823 59.3971C123.286 57.5127 119.462 56.3753 115.5 55.8644C107.869 54.8806 99.8532 56.5181 93.2263 60.4469C86.7983 64.258 81.6309 70.1722 78.4333 76.9149C76.8441 80.2657 75.6505 83.802 75.0075 87.459C74.2411 91.8183 74.3105 96.1898 74.3381 100.598C74.3476 102.08 74.3343 103.56 74.2607 105.038C74.1408 105.756 74.0746 106.482 74.0754 107.261C72.6205 109.18 72.0286 111.745 72.9404 114.108C74.3948 117.878 78.5217 119.592 82.2684 118.935C82.436 119.915 82.8401 120.88 83.3434 121.82C84.2037 123.426 85.1655 125 86.1863 126.508C88.2981 129.629 90.708 132.458 93.5834 134.899C99.2834 139.738 106.504 142.908 113.992 143.367C120.81 143.785 127.999 141.841 133.559 137.832C136.445 135.751 138.942 133.202 140.797 130.148C142.965 126.581 144.141 122.474 144.751 118.369C146.091 109.357 146.019 100.009 145.547 90.9295V90.9295Z" fill="#FDC6A0"/>
<path fill-rule="evenodd" clip-rule="evenodd" d="M91.7892 43.1346C91.5316 40.2239 94.2075 38.0339 96.6906 38.849C97.1462 38.9059 97.5893 39.05 97.9852 39.2924C99.1281 39.9922 99.3779 41.1208 99.0794 42.0964C99.616 42.5024 100.039 43.0528 100.251 43.7166C100.47 44.4006 100.447 45.064 100.241 45.642C101.02 46.158 101.609 46.9364 101.746 47.9007C101.811 48.3587 101.785 48.8129 101.676 49.2304C102.856 49.6317 103.818 50.5308 103.804 51.8913C104.488 51.9352 105.174 51.9449 105.872 51.906C105.972 51.6243 106.094 51.3496 106.275 51.0966C106.641 50.5869 107.16 50.2368 107.735 50.0185L107.814 49.9895L107.813 49.8348C107.372 49.3455 107.166 48.7284 107.635 48.0563C107.716 47.9411 107.814 47.846 107.923 47.7644C107.962 47.4728 108.025 47.1841 108.102 46.9002C107.713 46.357 107.755 45.4558 108.407 45.1862C108.317 44.6565 108.311 44.1072 108.409 43.5537C108.812 41.2859 110.995 39.7414 113.245 39.828C113.526 39.8388 113.8 39.8813 114.065 39.9489C114.613 40.0064 115.158 40.1292 115.694 40.3118C116.312 40.5227 116.472 41.0405 116.335 41.4782C117.175 42.6041 117.414 44.1336 116.568 45.5083C116.536 45.5605 116.5 45.6101 116.465 45.6602C116.635 45.7881 116.783 45.9567 116.892 46.1734C117.168 46.7187 117.1 47.4106 116.68 47.8657C116.568 47.987 116.423 48.0781 116.265 48.1366L116.262 48.1814V48.1814C116.207 48.9116 116.092 49.6438 115.873 50.3334C116.764 51.1625 117.355 52.2909 117.46 53.5068C117.792 53.5377 118.123 53.5738 118.454 53.6114C118.503 53.2781 118.705 52.978 119.011 52.7455C119.267 52.5511 119.541 52.3955 119.822 52.2791C119.957 51.5801 120.288 50.9106 120.847 50.3793C121.055 50.1823 121.281 50.0085 121.523 49.8591C121.509 49.1014 121.678 48.3444 122.096 47.6275C122.445 47.0313 122.952 46.5988 123.53 46.3236C123.951 45.474 124.732 44.7808 125.868 44.3868C126.717 44.0926 127.616 44.4423 128.261 44.9922L128.405 45.119V45.119C128.998 45.6429 129.212 46.6056 128.993 47.3483C128.89 47.6972 128.719 48.1049 128.47 48.4361C128.733 49.5979 128.21 50.5671 127.409 51.1118C127.683 51.5024 127.913 51.9356 128.107 52.3983C128.443 53.1982 128.066 54.1943 127.46 54.8246C127.725 55.2485 127.897 55.7431 127.96 56.2398C128.231 56.2556 128.499 56.3038 128.764 56.3793C128.908 55.8906 129.178 55.4364 129.591 55.0655C129.772 54.7111 129.987 54.3812 130.227 54.0927C130.607 53.6374 131.098 53.3094 131.634 53.1758C131.705 53.007 131.807 52.8453 131.933 52.6976C131.806 51.2164 132.785 49.6871 134.293 49.6858C134.399 49.3405 134.529 48.9989 134.685 48.6639C134.99 48.0068 135.638 47.6133 136.34 47.484C136.752 46.4767 137.563 45.7441 138.953 45.622C142.059 45.3493 144.013 49.1249 143.254 51.8357C143.029 52.6409 142.501 53.3819 141.8 53.8369C141.616 53.9559 141.431 54.0424 141.244 54.1138C141.057 54.3757 140.806 54.6084 140.482 54.798C140.41 54.84 140.337 54.8778 140.261 54.9117C140.268 56.1214 139.435 57.1053 138.401 57.4183C138.468 58.181 138.273 58.9457 137.695 59.5366L137.654 59.5763V59.5763L137.57 59.6518L137.563 59.6852C137.769 60.2161 137.747 60.8009 137.452 61.2822C137.478 61.7243 137.556 62.1565 137.704 62.5674C138.275 63.0305 138.779 63.5624 139.23 64.1398C139.53 63.8668 139.985 63.7436 140.377 63.8928C140.486 63.8556 140.598 63.8315 140.706 63.8207C140.885 63.8025 141.061 63.8032 141.233 63.8158C141.313 63.6998 141.404 63.5895 141.509 63.4861C142.242 62.7593 143.307 62.7743 144.152 63.2258C144.303 63.1152 144.473 63.0176 144.666 62.9358C146.82 62.0255 148.232 64.7657 148.442 66.4736C148.557 67.4054 147.757 67.9801 146.936 68.0285C146.769 68.5934 146.234 69.0001 145.636 69.1381C145.742 69.8359 145.28 70.5482 144.652 70.8137C144.371 70.9322 144.099 70.9646 143.844 70.9301L143.856 71.0954V71.0954C143.906 71.7508 143.575 72.168 143.122 72.3529C143.043 72.6775 142.822 72.913 142.545 73.0337C143.603 75.4904 144.438 78.0642 145.111 80.6028C146.223 84.7934 146.971 89.0604 147.472 93.366C148.354 100.935 148.389 108.66 147.506 116.232C147.056 120.085 146.31 123.852 144.782 127.43C143.509 130.415 141.737 133.006 139.697 135.513C135.646 140.491 129.847 144.159 123.455 145.07C120.1 145.548 116.659 145.393 113.385 144.476C110.125 143.564 106.649 141.999 104.596 139.221C104.039 138.468 104.31 137.248 104.929 136.627C105.636 135.919 106.653 135.873 107.516 136.293C109.047 137.037 110.423 138.054 111.979 138.764C113.383 139.405 114.902 139.816 116.414 140.106C119.409 140.68 122.666 140.533 125.652 139.732C131.067 138.28 135.838 134.774 138.867 130.046C142.445 124.461 143.722 117.916 144.307 111.394C144.947 104.255 144.88 97.0175 144.031 89.8988C143.611 86.3686 142.963 82.8701 142.196 79.4004C141.65 76.9299 141.035 74.4759 140.455 72.0139C139.93 71.5111 139.421 70.9918 138.932 70.4537L138.917 70.4527V70.4527C138.855 70.4681 138.79 70.4797 138.721 70.485C135.813 70.7073 132.661 70.4146 130.18 68.7344C129.171 68.0515 128.319 67.1871 127.684 66.1918C126.792 65.5724 125.98 64.7908 125.37 63.8877C124.937 63.4117 124.527 62.9144 124.137 62.399C123.167 61.1144 122.651 59.7662 122.072 58.284C122.059 58.2499 122.05 58.2165 122.043 58.1838C121.933 58.0022 121.854 57.8034 121.816 57.6026C120.525 57.4489 119.229 57.347 117.945 57.2858C117.49 57.2642 117.035 57.2471 116.579 57.2323C116.698 57.6789 116.771 58.1421 116.786 58.6179C117.154 58.6344 117.529 58.6773 117.914 58.7388C119.715 59.0264 120.871 59.9513 121.965 61.4005C123.03 62.8111 123.879 64.5076 124.51 66.1576C124.896 67.1679 124.381 68.2846 123.533 68.935C121.331 69.1224 119.168 69.5967 117.142 70.5364C117.071 70.5695 117.019 70.6277 116.985 70.6961C115.367 71.1793 113.737 71.6212 112.109 71.9964C110.536 72.3586 108.948 72.5093 107.367 72.1097C106.687 71.9378 106.023 71.6834 105.369 71.398C105.018 71.4407 104.637 71.3735 104.25 71.1512C103.665 70.8149 103.076 70.4472 102.495 70.0515C101.47 69.5587 100.462 69.0292 99.4987 68.4241L99.4935 68.4167V68.4167C98.7254 67.4828 97.6298 66.5313 96.4032 65.8108C96.2675 65.603 96.1477 65.3845 96.0522 65.1509C95.5245 63.864 95.7448 62.3074 96.858 61.4223C96.8742 61.1169 97.0068 60.8178 97.3009 60.578C97.5337 60.388 97.7734 60.2075 98.0192 60.0354C97.9677 59.9972 97.9159 59.9602 97.8647 59.9211C97.7635 59.8444 97.6663 59.7617 97.5714 59.6765C96.8283 60.0849 96.0786 60.4845 95.3118 60.8405C95.2924 60.8546 95.2741 60.8696 95.2536 60.8829C93.8118 61.8317 92.4472 62.9214 90.9874 63.8357C90.6379 64.0545 90.2898 64.2667 89.9443 64.4795C89.8146 64.6568 89.6879 64.8367 89.5656 65.0199C89.5134 65.3018 89.4339 65.5834 89.3352 65.8575C89.5262 66.0099 89.6816 66.2107 89.7872 66.4486C90.2409 66.6217 90.6678 66.8413 91.0661 67.1032L91.4192 67.2602V67.2602C91.8731 66.8954 92.3527 66.5657 92.868 66.2916C94.4852 66.3969 96.2329 67.5455 97.4616 68.7166C97.5476 68.8139 97.6317 68.9119 97.712 69.0115C97.7898 69.0745 97.8682 69.1414 97.9465 69.2072C98.0736 69.3443 98.1923 69.48 98.3011 69.6121C98.4231 69.7607 98.561 69.8425 98.701 69.8767C99.4536 70.5852 100.159 71.3824 100.641 72.2107C101.416 73.5405 100.873 75.1981 100.306 76.503C100.213 76.716 100.116 76.9257 100.013 77.133C98.9291 78.597 97.9013 80.1021 96.8742 81.6075C96.1821 82.2781 95.4948 82.953 94.8372 83.6547C94.7295 83.7269 94.6163 83.7963 94.4919 83.8605C92.5784 84.8478 90.7277 83.7364 88.9046 83.0443L88.701 82.9688C86.8223 82.2878 84.4837 81.8402 84.3651 79.3877C84.3489 79.0536 84.3617 78.7112 84.3948 78.365C84.8574 77.1362 85.3874 75.93 85.9783 74.7551C85.8592 74.626 85.7523 74.4829 85.6623 74.3233C85.4719 74.0815 85.3127 73.8207 85.1915 73.5456C84.3189 75.2207 83.4879 77.0174 82.3663 78.4871C81.7482 79.2973 80.9782 79.5891 80.1611 79.5872C79.8164 79.7616 79.4306 79.8201 79.0591 79.7762L79.0984 80.2245C79.1325 80.5984 79.172 80.9719 79.2297 81.3385C80.0196 81.3256 80.8452 81.5426 81.5812 81.8345C83.7413 82.6907 85.8227 83.8764 87.9065 84.9042C88.9127 85.4004 90.2953 85.8164 91.1173 86.5914C91.7472 87.1859 91.6751 87.9222 91.4359 88.6882C91.3947 88.8188 91.35 88.9484 91.3075 89.0783L91.3047 89.1208V89.1208C90.6328 89.9694 90.1726 90.982 89.8387 92.0273C89.2931 92.9572 88.9125 94.0009 88.6532 95.0236C88.443 95.8546 88.2936 96.7025 88.1965 97.5585L88.1713 97.7921L88.1574 97.8196L88.1502 98.0214V98.0214C88.0119 99.5285 88.0283 101.055 88.1536 102.55C88.1886 102.966 88.232 103.383 88.2862 103.798C88.0513 104.534 86.9363 104.637 86.3584 104.185C85.7222 103.688 85.0541 103.236 84.3602 102.828C83.4145 103.26 82.3208 103.333 81.2639 102.979C81.1884 102.954 81.1168 102.924 81.0442 102.895C80.2522 102.994 79.4679 103.179 78.7174 103.398L78.4923 103.465C77.295 103.826 76.1537 104.278 75.2523 105.195C73.6507 106.825 73.1348 109.459 73.4616 111.664C73.7793 113.809 75.021 116.261 77.2585 116.885C78.1741 117.14 79.161 117.133 80.0513 116.776C80.3894 116.641 80.6793 116.444 80.9647 116.229C81.3151 115.964 81.5919 115.667 82.0077 115.499C82.3874 115.346 83.0432 115.358 83.2286 115.349C83.8073 115.321 84.297 115.775 84.4673 116.295C84.9868 117.88 84.2068 119.045 82.9534 119.824C83.4807 120.624 83.9749 121.46 84.4969 122.216C85.4721 123.629 86.502 124.994 87.5694 126.337C88.665 127.717 89.833 129.03 91.1061 130.247C91.6808 130.797 92.2734 131.328 92.8829 131.839L93.2196 132.118C93.7886 132.594 94.2863 133.079 94.2666 133.911C94.2558 134.376 93.9474 134.809 93.4905 134.933C91.8744 135.371 90.1806 133.247 89.128 132.158L89.0451 132.073C87.7711 130.781 86.5861 129.393 85.5145 127.927C84.41 126.417 83.5054 124.748 82.7761 123.027C82.4376 122.227 82.0697 121.313 81.8093 120.388C80.405 120.934 78.7743 121.129 77.658 121.001C76.6277 120.883 75.6872 120.586 74.8378 120.153C74.6641 120.543 74.4305 120.906 74.1468 121.208C73.0943 122.328 71.5627 122.647 70.0792 122.633C68.1792 122.616 66.4743 121.415 66.4054 119.388C66.3607 118.075 67.0395 116.948 68.0302 116.179C68.3977 115.27 69.0953 114.521 70.1062 114.277C69.4372 112.204 69.3194 109.92 69.822 107.827C70.3196 105.755 71.4553 103.792 73.1349 102.499L73.2305 102.427L73.1901 102.448C72.7933 102.667 72.4062 102.904 72.0137 103.13L71.8373 103.231C70.0939 104.218 68.0746 105.066 66.0445 104.538C62.8225 103.7 62.5438 99.6716 65.3159 98.0816C66.2738 97.5321 67.3809 97.3248 68.4738 97.1874C68.6464 96.9617 68.8518 96.7601 69.0784 96.5969C69.1121 95.8565 69.4836 95.1164 70.1407 94.6514C70.8107 94.1772 71.5634 94.1302 72.2641 94.3479C72.5253 94.1514 72.8085 93.9793 73.1199 93.8449C73.3901 93.7278 73.6642 93.6429 73.9389 93.5841C73.934 93.363 73.9315 93.142 73.9281 92.9207C73.8841 92.7146 73.8575 92.4986 73.8299 92.2739C73.7804 92.2655 73.7302 92.2575 73.6815 92.2469C72.9676 92.0905 72.3227 91.7695 71.7613 91.3366C70.8634 91.9054 69.7735 92.1205 68.4776 91.7359C67.2744 91.3787 66.1404 90.2564 65.5798 88.9669C64.8114 88.812 64.0653 88.5869 63.4119 88.16C62.2022 88.4483 60.8985 87.9821 60.4081 86.7266C60.0445 85.7959 60.4817 84.6706 61.2613 84.0936C61.4884 83.9256 61.734 83.9571 61.9292 84.0871C61.9754 83.936 62.0296 83.7863 62.0962 83.6401C62.123 83.5811 62.1521 83.5236 62.1816 83.4663C62.1525 82.2333 62.5988 81.0413 63.7153 80.3798C64.544 79.8888 65.5324 79.8353 66.4231 80.119C66.9124 79.6618 67.5322 79.3127 68.3019 79.121C69.6554 78.7837 71.0804 79.1683 72.0438 80.186C72.2523 80.1245 72.4682 80.0807 72.6891 80.053C72.7695 79.4854 72.9622 78.9394 73.364 78.5134C73.6524 78.2075 73.9981 77.9641 74.3721 77.7933C74.5427 77.1501 74.8225 76.5744 75.2909 76.0925C75.0619 75.8987 74.8539 75.6806 74.6764 75.438C74.4794 75.405 74.284 75.3625 74.0934 75.3013C73.0752 74.9734 72.3731 74.3301 71.8969 73.5282C71.015 73.7546 70.0813 73.6717 69.1636 73.0945C68.4999 72.6771 67.9996 72.0097 67.7357 71.264L66.982 70.9992V70.9992C66.2717 70.7473 65.762 70.2768 65.471 69.717C65.101 69.8503 64.6933 69.8455 64.3613 69.5885C62.4156 68.0828 63.7444 65.588 65.8271 65.0926C66.6744 64.8912 67.4142 65.006 68.0719 65.313C68.54 64.861 69.1271 64.5215 69.799 64.3685C70.5826 64.1901 71.4084 64.321 72.1315 64.6676L72.3183 64.665V64.665C73.0465 64.1229 73.9811 63.8801 75.1231 64.142C76.4161 64.4385 77.2975 65.164 77.895 66.109C78.087 65.9351 78.3033 65.7818 78.539 65.6531C79.2078 65.2883 79.922 65.1983 80.6061 65.3124C80.8364 64.9836 81.0725 64.6591 81.3158 64.3404C80.7379 63.8879 80.3428 63.186 80.322 62.4072C80.1474 62.2981 79.9783 62.1741 79.8166 62.0599C79.0254 61.5013 78.3546 60.8009 78.0495 59.8594C77.8973 59.3897 77.8418 58.9003 77.8596 58.4095C77.7744 58.3909 77.6896 58.371 77.6055 58.3469C74.2429 57.3773 72.8489 52.7312 75.5066 50.2376C76.9022 48.9281 79.0237 49.6697 80.4042 50.6367C81.3455 51.2961 82.0933 52.1159 82.7709 53.0218C82.8027 53.0283 82.8337 53.0304 82.8657 53.0382C83.8389 53.2688 84.6128 53.8946 85.1846 54.6948C86.1944 54.519 87.2694 54.7145 88.2274 55.4172C88.9258 55.9295 89.3645 56.5636 89.5922 57.2526C90.4996 56.7779 91.4335 56.3617 92.3877 55.9942C92.4503 55.8435 92.5157 55.6926 92.5914 55.5427C92.7385 55.2517 92.9304 54.9987 93.1534 54.7848C92.9105 54.5126 92.6955 54.2085 92.5224 53.8701C91.7009 52.2651 91.9977 50.6407 92.9057 49.4117C92.5087 48.5156 92.3864 47.4994 92.6215 46.5327C92.6652 46.3532 92.7202 46.1808 92.7845 46.0149C92.2336 45.154 91.8805 44.1632 91.7892 43.1346ZM77.0448 108.059C77.6278 107.917 77.765 107.731 78.4204 107.784C78.9279 107.826 79.4467 107.913 79.939 108.041C81.1131 108.345 82.2087 108.961 83.1734 109.687C84.5418 110.715 82.9037 112.627 81.8138 111.53L81.7809 111.496C81.0485 110.709 80.2266 110.094 79.3061 109.546C78.8396 109.268 78.358 109.067 77.8704 108.834C77.5333 108.672 77.3385 108.408 77.0214 108.24C76.9466 108.201 76.9641 108.079 77.0448 108.059ZM80.1826 92.5679C79.8605 92.454 79.4907 92.6973 79.4045 93.0107C79.312 93.3484 79.5082 93.6539 79.8121 93.7776L79.8463 93.7906C80.259 93.9366 80.6358 94.1792 80.9565 94.4762L81.0244 94.5407C81.6086 95.1096 82.504 94.2139 81.9189 93.6439C81.4227 93.1606 80.8345 92.7983 80.1826 92.5679ZM95.3148 69.4857C94.982 68.7557 93.9196 69.3686 94.208 70.0917L94.2225 70.1257C94.5223 70.7831 94.3995 71.5461 94.0726 72.1654L94.0403 72.2248C93.6427 72.9379 94.735 73.5781 95.1326 72.8648C95.7225 71.8064 95.8203 70.5945 95.3148 69.4857ZM104.501 60.3974L104.486 60.3243C104.336 59.5231 103.117 59.8623 103.266 60.6612C103.515 61.9896 104.477 62.8622 105.711 63.2955C106.482 63.5656 106.812 62.341 106.048 62.0726C105.23 61.7856 104.683 61.2416 104.501 60.3974V60.3974ZM124.434 59.1144L124.219 59.1051V59.1051L124.382 59.3215V59.3215C124.398 59.2519 124.415 59.1828 124.434 59.1144Z" fill="black"/>
<path fill-rule="evenodd" clip-rule="evenodd" d="M113.47 126.208C113.47 122.321 119.189 121.485 124.125 121.485C129.061 121.485 134.608 122.624 134.608 126.208C134.608 129.793 128.792 130.365 125.171 130.365C121.549 130.365 113.47 130.095 113.47 126.208Z" fill="white"/>
<path fill-rule="evenodd" clip-rule="evenodd" d="M113.521 108.423C117.955 108.423 121.55 105.395 121.55 101.659C121.55 97.9242 117.955 94.8962 113.521 94.8962C109.087 94.8962 105.493 97.9242 105.493 101.659C105.493 105.395 109.087 108.423 113.521 108.423Z" fill="white"/>
<path fill-rule="evenodd" clip-rule="evenodd" d="M136.866 108.423C140.542 108.423 143.521 105.395 143.521 101.659C143.521 97.9242 140.542 94.8962 136.866 94.8962C133.191 94.8962 130.211 97.9242 130.211 101.659C130.211 105.395 133.191 108.423 136.866 108.423Z" fill="white"/>
<path fill-rule="evenodd" clip-rule="evenodd" d="M124.271 120.836C126.24 120.13 128.331 120.396 130.317 121.129L130.496 121.196C132.321 121.892 134.551 123.1 135.297 124.988C135.445 125.363 135.515 125.746 135.524 126.127C135.768 126.151 136.01 126.183 136.25 126.225C136.743 126.311 136.72 127.096 136.25 127.199C135.952 127.264 135.648 127.312 135.342 127.348C135.059 128.228 134.473 129.028 133.733 129.588C132.001 130.9 129.614 131.147 127.521 131.348C125.206 131.569 122.879 131.515 120.572 131.235L119.76 131.131C117.871 130.885 115.765 130.57 114.159 129.559C112.648 128.607 111.614 126.771 112.254 124.987C112.909 123.16 115.155 122.384 116.822 121.798C119.217 120.955 121.765 120.624 124.271 120.836ZM120.929 126.958C120.953 127.492 120.973 128.027 120.994 128.561C121 128.725 120.953 128.873 120.873 129.001C122.018 129.135 123.174 129.199 124.326 129.198C124.116 128.561 124.104 127.829 124.092 127.149C123.037 127.097 121.983 127.036 120.929 126.958ZM125.171 127.199L125.263 127.544C125.405 128.084 125.534 128.641 125.515 129.175C126.053 129.154 126.588 129.122 127.121 129.076L127.8 129.018C127.955 129.005 128.111 128.991 128.268 128.976C128.303 128.423 128.368 127.862 128.426 127.309C127.341 127.279 126.256 127.244 125.171 127.199ZM129.477 127.333C129.526 127.822 129.572 128.322 129.591 128.817C130.464 128.681 131.319 128.469 132.05 128.095C132.417 127.907 132.712 127.68 132.932 127.428C132.194 127.411 131.458 127.373 130.743 127.362C130.603 127.359 130.462 127.356 130.321 127.353L129.477 127.333ZM114.328 126.208C114.385 127.229 115.997 127.957 116.827 128.196C117.619 128.425 118.425 128.611 119.24 128.758C119.224 128.69 119.217 128.623 119.222 128.561C119.274 127.985 119.325 127.41 119.379 126.835L118.942 126.8C117.406 126.682 115.808 126.587 114.328 126.208ZM124.388 122.321C124.517 123.599 124.697 124.87 124.935 126.133L125.372 126.142V126.142C126.422 126.159 127.471 126.165 128.521 126.167C128.524 126.115 128.526 126.064 128.528 126.013C128.568 124.945 128.553 123.877 128.514 122.81C127.18 122.515 125.785 122.419 124.388 122.321ZM129.061 122.944C129.178 124.016 129.275 125.089 129.364 126.164L130.284 126.163C130.437 126.162 130.59 126.161 130.743 126.16C131.605 126.152 132.49 126.096 133.374 126.072C133.308 125.61 133.036 125.141 132.535 124.714C131.476 123.81 130.3 123.276 129.061 122.944ZM123.569 122.076C122.555 122.184 121.55 122.362 120.559 122.612C120.818 123.362 120.768 124.221 120.823 125.005C120.847 125.35 120.867 125.695 120.885 126.041C121.945 126.067 123.005 126.091 124.066 126.114C124.032 124.843 124.053 123.573 124.125 122.303L124.01 122.294V122.294C123.838 122.282 123.685 122.196 123.569 122.076ZM119.887 122.792C119.424 122.924 118.964 123.071 118.509 123.236L118.012 123.416C116.815 123.852 115.231 124.484 114.564 125.46C114.451 125.624 114.384 125.783 114.351 125.936C116.029 125.781 117.769 125.937 119.462 126.001C119.485 125.78 119.509 125.558 119.534 125.337L119.573 125.005C119.66 124.288 119.659 123.492 119.887 122.792ZM128.271 107.444C129.866 108.414 132.297 110.676 130.581 113.081C128.56 115.201 125.652 112.77 124.219 111.67C122.89 110.818 121.396 113.01 122.629 114.005C132.986 121.676 137.19 107.697 129.078 106.303C128.184 106.149 127.853 107.143 128.271 107.444ZM108.716 95.681C110.983 91.7393 116.592 91.6938 119.801 94.7039C122.865 97.578 123.244 102.482 120.797 105.843C118.189 109.425 113.122 110.416 109.014 109.14C105.163 107.943 103.092 103.762 104.413 99.9323C105.127 97.8606 106.77 96.4283 108.716 95.681ZM106.604 89.0789C108.52 87.3821 112.001 85.7435 114.585 86.5786C116.07 87.0586 116.718 89.453 115.06 90.2119C113.139 91.0907 110.926 90.7331 108.971 91.644C108.15 92.0268 107.378 92.5051 106.807 93.2065C106.357 93.7594 105.899 94.4869 105.247 94.8056C105.076 94.8895 104.845 94.8916 104.707 94.7361C103.28 93.1209 105.358 90.1823 106.604 89.0789ZM133.972 86.4944C135.156 86.1619 136.47 86.1687 137.673 86.3775C138.876 86.5863 140.096 87.0849 141.078 87.8121L141.192 87.8973C142.264 88.7052 143.543 89.8808 143.474 91.3121C143.417 92.5073 142.16 93.3157 141.075 92.6893C140.191 92.1784 139.774 91.1551 139.026 90.4737C138.408 89.9113 137.682 89.4679 136.907 89.1572C136.047 88.812 135.185 88.6504 134.262 88.6349C133.551 88.6231 132.836 88.8564 132.138 88.931C132.196 89.049 131.644 88.994 131.328 88.8894C131.094 88.7896 131.093 88.4935 131.174 88.3014C131.576 87.3497 133.041 86.7556 133.972 86.4944ZM135.261 93.1823C137.245 92.7884 139.45 93.2197 141.11 94.383C144.087 96.4688 145.423 100.782 144.039 104.156C142.666 107.505 138.914 109.635 135.336 108.995C131.683 108.342 128.858 104.662 129.252 100.955C129.42 99.3772 130.108 97.9548 131.126 96.8797C131.134 96.8427 131.142 96.8053 131.157 96.7668C131.873 94.8611 133.229 93.5862 135.261 93.1823ZM117.11 96.2129C114.836 94.8434 111.492 95.608 109.539 97.2614C109.151 97.5899 108.713 97.4937 108.475 97.2071C107.149 98.2778 106.213 99.7757 106.063 101.6C105.793 104.871 108.122 107.023 111.26 107.27C114.466 107.523 117.785 106.628 119.295 103.554C120.599 100.901 119.642 97.7374 117.11 96.2129ZM138.641 96.3545C136.86 95.656 134.306 96.0687 132.751 97.2641C131.567 98.7909 130.991 100.886 131.446 102.602C132.103 105.079 134.48 107.01 137.091 106.735C139.508 106.481 141.691 104.546 141.95 102.089C142.2 99.726 140.904 97.2422 138.641 96.3545ZM137.13 100.062C137.535 99.7729 138.02 100.099 138.168 100.485L138.253 100.66C138.298 100.754 138.344 100.851 138.346 100.854L138.362 100.901C138.383 100.941 138.409 100.979 138.434 101.017C138.453 101.03 138.611 101.228 138.632 101.254C138.886 101.568 139.022 101.856 139.013 102.27C138.998 103.088 138.235 103.664 137.444 103.466C136.593 103.253 136.23 102.372 136.308 101.564C136.369 100.924 136.603 100.438 137.13 100.062ZM114.026 100.219C114.401 99.8772 114.98 99.8485 115.351 100.219C115.554 100.422 115.637 100.649 115.783 100.885L115.852 100.994C116.004 101.227 116.163 101.451 116.204 101.738C116.3 102.412 116.091 103.039 115.428 103.319C114.767 103.598 114.156 103.313 113.754 102.771C113.278 102.128 113.423 100.767 114.026 100.219Z" fill="black"/>
</g>
<defs>
<clipPath id="clip0_2016_14091">
<rect width="200" height="267" fill="white"/>
</clipPath>
</defs>
</svg>
