<svg width="200" height="267" viewBox="0 0 200 267" fill="none" xmlns="http://www.w3.org/2000/svg">
<g clip-path="url(#clip0_2016_14103)">
<rect width="200" height="267" fill="white"/>
<path fill-rule="evenodd" clip-rule="evenodd" d="M21.1967 209.213L172.564 221.234L172.723 222.263C175.259 238.789 176.54 250 176.566 255.898L176.566 256.078C176.566 261.926 178.361 271.225 181.949 283.977L182.171 284.762L20.9854 285.043L19.084 246.66L21.1967 209.213ZM110.81 126.849C116.965 127.153 123.167 129.792 123.647 131.479C124.714 135.236 126.43 151.32 132.072 153.79C137.715 156.261 149.762 154.009 153.206 159.91C156.651 165.81 167.962 189.865 167.962 195.47C167.962 199.206 131.1 200.503 57.3749 199.361C58.3161 169.264 62.2398 153.443 69.1463 151.898L69.7628 151.762C79.7506 149.579 85.7199 149.509 89.127 145.991C92.6037 142.4 93.2346 136.238 94.6769 131.479C95.4716 128.857 103.257 126.476 110.81 126.849Z" fill="#FDC6A0"/>
<path fill-rule="evenodd" clip-rule="evenodd" d="M124.307 136.255C124.331 136.237 124.354 136.232 124.379 136.245C124.859 136.475 124.958 136.936 125.123 137.415C125.364 138.117 125.643 138.802 125.9 139.497C126.414 140.892 126.904 142.285 127.476 143.657C128.064 145.068 128.672 146.455 129.369 147.818C129.705 148.477 130.067 149.124 130.434 149.767C130.688 150.213 130.924 150.826 131.258 151.244C131.283 151.111 131.319 150.984 131.362 150.866C131.318 150.887 131.275 150.91 131.235 150.936C131.15 150.988 131.049 150.883 131.1 150.8C131.281 150.5 131.518 150.297 131.788 150.16C132.536 149.329 149.021 153.293 153.528 157.745C161.69 165.808 167.199 175.778 170.822 186.383C172.823 192.235 174.665 198.145 176.569 204.029C178.58 210.251 180.68 216.446 182.695 222.664C183.137 224.031 182.174 225.274 180.957 225.724C178.69 226.561 176.406 227.349 174.103 228.078C175.221 232.371 176.003 236.754 176.564 241.15C177.724 250.215 177.87 259.464 179.698 268.434C180.117 270.492 180.648 272.522 181.209 274.546L181.339 275.013C181.673 276.201 181.977 277.399 182.387 278.561C182.74 279.561 183.196 280.569 183.443 281.601C183.733 282.814 183.306 284.139 182.172 284.763C181.261 285.263 179.957 285.056 179.408 284.116C179.296 283.923 179.229 283.714 179.201 283.503C179.119 283.327 179.043 283.148 178.975 282.964C178.949 282.893 178.925 282.82 178.903 282.746L178.838 282.526C178.677 282.002 178.529 281.474 178.381 280.946C178.141 280.098 177.898 279.253 177.63 278.413L177.494 277.993C176.831 275.972 176.237 273.935 175.719 271.872C173.867 264.476 173.474 256.818 172.966 249.238L172.939 248.846C172.479 242.053 172.204 235.275 172.768 228.497L172.691 228.522V228.522L172.614 228.545C171.881 228.769 171.145 228.989 170.408 229.203C170.385 229.211 170.364 229.22 170.341 229.226C169.869 229.372 169.384 229.511 168.89 229.64L168.593 229.716L168.384 229.773L168.164 229.836C167.465 230.039 166.753 230.272 166.029 230.249C164.829 230.441 163.607 230.558 162.407 230.562C162.777 236.608 163.204 242.651 163.713 248.687C164.224 254.755 164.903 260.8 165.606 266.844C165.953 269.831 166.324 272.811 166.734 275.786C166.941 277.295 167.157 278.796 167.431 280.292C167.714 281.823 168.215 283.458 167.913 285.006C167.907 285.003 167.9 285.001 167.894 285.001C167.793 285.449 167.522 285.851 167.051 286.128C166.187 286.633 164.979 286.337 164.482 285.454C164.44 285.38 164.4 285.304 164.362 285.225C163.853 285.443 163.295 285.528 162.61 285.534L153.327 285.627V285.627C149.108 285.669 144.889 285.714 140.668 285.775C127.415 285.97 114.163 286.196 100.91 286.356L95.9405 286.413C88.487 286.491 81.0293 286.646 73.5757 286.644C69.8471 286.644 66.1222 286.631 62.3933 286.54C60.587 286.496 58.7849 286.426 56.9807 286.352L56.6621 286.337C55.2218 286.266 53.6925 286.133 52.2842 286.455C51.8955 287.212 50.9025 287.368 50.3828 286.595C49.1951 284.825 48.871 282.355 48.6516 280.192L48.5743 279.413C48.3314 276.989 48.118 274.565 47.9595 272.136C47.3976 263.532 47.1926 254.92 47.4504 246.299C47.5814 241.905 47.9849 237.536 48.4624 233.168C48.6124 231.804 48.7687 230.443 48.9377 229.084L48.9406 228.601C48.9409 228.447 48.9398 228.299 48.9356 228.161L48.8935 226.85C48.8585 225.757 48.826 224.663 48.8124 223.569L48.8067 222.913L48.8004 221.691C47.7567 221.592 46.6433 221.245 45.7433 221.078C44.2837 220.806 42.8279 220.512 41.3764 220.201C38.4694 219.576 35.594 218.836 32.7377 218.018L32.1302 217.844C29.4946 217.084 26.8227 216.274 24.3293 215.137C23.3532 214.691 22.3793 214.188 21.5236 213.529C21.4729 214.222 21.3948 214.913 21.3483 215.6C21.2555 216.959 21.1455 218.314 21.0546 219.673L20.9677 220.966C20.825 223.12 20.6965 225.273 20.6384 227.434C20.3807 236.86 20.3363 246.326 20.8349 255.746C21.0821 260.461 21.4349 265.177 21.944 269.873C22.1933 272.183 22.4574 274.499 22.7828 276.801C23.1187 279.166 23.725 281.516 23.9109 283.898C24.0884 286.195 20.5771 286.529 20.0004 284.429C19.3098 281.91 19.1338 279.192 18.7698 276.602L18.7286 276.315C18.325 273.563 18.0018 270.801 17.7229 268.034C16.7601 258.492 16.5102 248.901 17.0152 239.322C17.2552 234.735 17.8244 230.165 18.5133 225.626L18.5933 225.103C18.907 223.07 19.2005 221.037 19.5557 219.013L19.6919 218.255C20.0109 216.515 20.256 214.624 20.7736 212.884L20.6198 212.742C20.3321 212.474 20.0204 212.164 19.7933 211.83C19.0117 211.724 18.3462 211.162 18.4286 210.141C18.6969 206.787 19.9222 203.376 21.0145 200.21C22.1109 197.027 23.3828 193.903 24.8236 190.86C29.8919 180.163 37.1912 170.452 46.1173 162.672C50.8518 158.544 56.0405 154.884 61.7743 152.278C64.6011 150.99 67.525 149.995 70.5884 149.458C72.1053 149.192 73.637 148.985 75.1793 148.94C76.4305 148.201 77.916 148.512 79.1275 149.323L79.1933 149.367H79.1957L79.506 149.429V149.429C79.5821 149.443 79.58 149.564 79.506 149.581C79.5018 149.581 79.4955 149.583 79.4912 149.585C79.6898 149.741 79.8779 149.908 80.0532 150.088C80.6321 150.68 80.63 151.394 80.3321 151.971C82.1046 153.615 83.2243 155.727 84.3969 157.855C85.6539 160.133 87.2997 162.103 89.3025 163.764C96.644 169.856 107.442 172.55 116.641 169.674C123.405 167.56 129.183 161.839 130.781 154.951C130.403 155.086 129.993 155.108 129.604 154.968C127.778 154.317 127.082 152.321 126.384 150.652L126.35 150.572C125.668 148.955 125.095 147.313 124.643 145.618C124.187 143.906 123.919 142.099 123.807 140.332C123.764 139.633 123.783 138.935 123.819 138.236L123.851 137.659C123.875 137.135 123.868 136.6 124.307 136.255ZM94.6054 131.544C94.6308 131.481 94.7301 131.447 94.7681 131.523C96.3841 134.858 95.3237 139.427 93.7961 142.608C92.197 145.935 89.7885 148.458 86.9343 150.642C86.5413 150.942 86.1376 151.238 85.728 151.527C83.3468 153.21 81.2256 148.674 83.9744 147.808C86.8392 146.351 89.1674 143.756 90.7855 141.03C91.6604 139.556 92.4357 138.022 93.0294 136.412C93.6209 134.805 93.9758 133.133 94.6054 131.544Z" fill="black"/>
<path fill-rule="evenodd" clip-rule="evenodd" d="M141.475 89.3059C141.583 84.0025 141.092 78.5674 138.522 73.8273C136.29 69.3783 132.978 65.5218 129.578 61.932C128.16 60.4342 126.265 58.925 126.443 56.6544C126.629 54.2719 128.058 49.1107 128.279 46.7066C128.713 41.9795 125.338 40.6787 121.393 38.4324C116.634 35.7231 110.948 36.0366 105.791 37.2529C96.1729 39.5536 84.744 43.3721 81.1094 53.5896C80.2358 56.1096 80.4538 58.7618 80.2798 61.3758C80.1169 63.8226 79.1397 66.1529 78.2032 68.3886C73.2523 79.4388 73.297 91.6397 74.1959 103.5C71.5522 104.113 68.996 106.184 68.4133 108.931C67.4368 113.742 72.4695 115.966 75.4421 118.566C79.0674 121.737 81.7065 125.841 85.002 129.325C106.387 152.963 153.574 142.084 143.764 105.266C142.433 100.034 141.277 94.741 141.475 89.3059Z" fill="#FDC6A0"/>
<path fill-rule="evenodd" clip-rule="evenodd" d="M105.791 37.2529C110.897 36.0487 116.521 35.7295 121.25 38.3521L121.746 38.6322C125.537 40.7598 128.7 42.1213 128.279 46.7066C128.058 49.1107 126.629 54.2719 126.443 56.6544C126.437 56.7297 126.433 56.8041 126.432 56.8777L124.237 66.737H112.307C106.562 60.5689 101.427 57.4849 96.9018 57.4849C92.4357 57.4849 87.7047 58.8634 82.7087 61.6205L82.5088 61.7315L80.2368 61.8626C80.2546 61.7009 80.2691 61.5386 80.2799 61.3758C80.4538 58.7618 80.2358 56.1096 81.1095 53.5896C84.7441 43.3721 96.1729 39.5536 105.791 37.2529Z" fill="#EC7495"/>
<path fill-rule="evenodd" clip-rule="evenodd" d="M99.1745 37.7627C104.486 35.6932 110.226 34.8182 115.904 35.5516C118.959 35.9462 121.922 36.77 124.716 38.0774C126.063 38.7081 127.356 39.4558 128.568 40.3196L128.679 40.399C129.639 41.0928 130.617 41.951 130.505 43.1027C130.58 43.3438 130.593 43.6089 130.534 43.8733C129.587 48.132 128.594 52.3772 127.614 56.6276C127.408 57.5212 127.208 58.4163 127.011 59.312C133.681 64.3472 139.951 71.2309 142.326 79.4108C144.65 87.4184 143.632 95.8521 144.454 104.047C144.649 105.989 144.977 107.915 145.494 109.798C146.049 111.82 146.976 113.731 147.444 115.775C148.388 119.889 147.02 123.926 144.855 127.414C140.841 133.879 134.778 139.335 127.728 142.231C124.12 143.713 120.149 144.519 116.246 144.456C112.419 144.395 108.062 143.607 104.858 141.393C102.692 139.896 104.543 136.949 106.873 137.937L107.506 138.204C109.122 138.882 110.726 139.511 112.458 139.871C114.395 140.274 116.384 140.36 118.356 140.236C122.179 139.996 125.804 138.721 129.103 136.805C132.081 135.076 134.734 132.843 137.103 130.349L137.367 130.069C139.61 127.684 141.868 124.965 143.129 121.931C143.779 120.369 144.13 118.652 143.849 116.968C143.525 115.026 142.662 113.197 142.159 111.299C141.203 107.694 140.881 103.935 140.771 100.216L140.763 99.9299C140.56 92.2972 141.137 84.5675 138.441 77.2719C135.999 70.6647 130.965 65.6102 126.848 60.05C126.645 60.97 126.444 61.8905 126.24 62.8098C125.995 63.9084 125.773 65.014 125.507 66.1071L125.487 66.1868V66.1868C125.567 66.4224 125.539 66.6904 125.325 66.8591C125.301 66.8777 125.277 66.8938 125.254 66.9111C125.035 67.4166 124.697 67.8045 124.049 67.9655C123.429 68.1196 122.938 67.8569 122.663 67.4029L119.427 67.4194V67.4194C117.372 67.43 115.117 67.6667 113.096 67.2473C112.785 67.1827 112.824 66.7401 113.096 66.6549C115.006 66.0568 117.236 66.0712 119.218 65.8858L122.343 65.5935V65.5935C122.481 65.5807 122.62 65.5641 122.759 65.5467L122.969 65.5204L124.055 60.6752V60.6752C124.486 58.7528 124.937 56.8335 125.331 54.9032C126.041 51.4229 126.819 47.9585 127.597 44.4932C125.154 43.8927 122.661 43.6239 120.134 43.7308L119.842 43.7437C118.863 43.7906 117.813 43.8888 116.995 44.4585C115.979 45.1648 115.906 46.6219 115.681 47.7454C115.064 50.8267 114.622 53.9373 114.235 57.0558C114.047 58.5638 113.906 60.0758 113.74 61.5857C113.664 62.2709 113.618 62.9675 113.516 63.6485C113.42 64.2967 113.188 64.9276 113.057 65.5682C113.282 66.5459 111.931 67.4748 111.177 66.6061C110.244 65.5322 109.427 64.4112 108.385 63.4293C107.34 62.444 106.198 61.5815 104.967 60.8424C102.465 59.3401 99.8662 58.4161 97.0724 57.6351C96.9796 57.6093 96.9271 57.5516 96.9016 57.4849C94.1139 58.2778 91.3871 59.3524 88.8571 60.7335C82.9916 63.9357 78.3742 69.4644 76.6246 75.9575C75.5384 79.9894 75.2987 84.2484 75.2839 88.4084C75.2772 90.3395 75.3181 92.2928 75.6227 94.2036C75.9628 96.3355 76.7344 98.2414 77.3561 100.287C77.5184 100.821 77.4786 101.298 77.3057 101.696L77.4641 101.72C78.7339 101.919 81.2213 102.48 81.448 103.868C81.5114 104.257 81.2943 104.562 80.8952 104.595C80.1858 104.656 79.7397 104.139 79.1732 103.786C79.0714 103.723 78.9666 103.665 78.8622 103.606C78.8352 103.625 78.799 103.63 78.7617 103.608C75.4119 101.696 71.318 104.621 70.5725 108.014C69.8764 111.183 71.061 114.853 74.1156 116.238C75.6514 116.935 77.2846 117.372 78.6982 118.325C79.8879 119.126 80.939 120.107 81.8559 121.209C83.7438 123.477 85.1679 126.063 86.8404 128.484C87.5744 129.546 88.3895 130.55 89.3582 131.409C90.4193 132.349 91.8957 132.72 92.3451 134.191C92.5203 134.765 92.229 135.455 91.7137 135.747C89.8281 136.816 87.6921 134.956 86.373 133.695C85.0189 132.4 83.9141 130.833 82.9003 129.264C81.2023 126.637 79.7523 123.64 77.2615 121.648C75.7663 120.453 73.9037 120.001 72.2209 119.156C70.29 118.186 68.9186 116.597 68.0991 114.61C66.5907 110.952 66.9879 106.289 69.8458 103.378C70.7738 102.433 71.9483 101.828 73.178 101.585C71.9083 99.3578 71.4367 96.5504 71.1181 94.0584C70.7979 91.5547 70.7643 89.0348 70.8961 86.5168L70.9226 86.0275C71.1749 81.5375 71.6832 76.9263 73.3043 72.7105C74.669 69.1622 76.7399 65.907 79.4915 63.2767C79.7755 63.0053 80.0671 62.7395 80.3633 62.478C80.2838 62.4169 80.2075 62.3514 80.1394 62.2772C79.3684 61.4361 79.5335 60.3005 79.6361 59.2549C79.7502 58.0927 79.9349 56.9339 80.2123 55.7993C82.1477 47.8834 88.0996 41.425 95.7585 38.7535C96.8645 38.3676 98.0091 38.0356 99.1745 37.7627ZM73.3705 107.812C74.6101 107.026 76.502 107.327 77.7944 107.842C79.3146 108.447 80.9337 109.576 81.5325 111.154C82.0869 112.614 80.0179 113.132 79.2463 112.12C78.7694 111.494 78.4165 110.892 77.9641 110.347C77.9064 110.403 77.8516 110.462 77.8029 110.527L77.7676 110.576C77.5758 110.858 77.226 111.152 76.852 111.102L76.751 111.089V111.089C76.3735 111.038 75.958 110.854 75.8537 110.443L75.8434 110.396L75.8295 110.322C75.7433 109.864 75.8795 109.36 76.3169 109.121C76.3463 109.105 76.3762 109.091 76.4057 109.076C75.4422 108.57 74.4486 108.412 73.4011 108.047C73.2969 108.011 73.2735 107.873 73.3705 107.812ZM107.835 39.7021C101.375 39.5395 94.2881 41.5309 89.5129 46.017C87.2523 48.1413 85.7209 50.6124 84.3476 53.3667C83.6991 54.6671 83.2817 56.1079 82.9726 57.5246C82.8035 58.2996 82.6768 59.0814 82.6094 59.8723C82.5963 60.0247 82.5988 60.1855 82.5752 60.3364C82.5552 60.4649 82.5309 60.4983 82.5086 60.4898C82.5196 60.5258 82.5729 60.5991 82.6243 60.6691C87.461 57.1816 93.4475 55.1518 99.3678 56.4742C99.5563 56.5162 99.5563 56.8142 99.3678 56.8563C99.0651 56.9239 98.7632 56.9996 98.4611 57.0738C101.052 57.1311 103.714 57.9448 105.951 59.1547C108.187 60.3639 110.538 62.0733 112.159 64.1525C112.113 63.849 112.076 63.5443 112.069 63.2359C112.051 62.4123 112.07 61.5844 112.101 60.7614C112.167 58.9766 112.288 57.1919 112.435 55.4121L112.499 54.6364C112.761 51.5257 113.084 48.3267 113.711 45.2836C114.077 43.5089 115.056 42.4278 116.372 41.794C113.929 40.2127 110.613 39.7722 107.835 39.7021ZM119.814 38.6667C116.903 37.7921 113.873 37.4068 110.84 37.4594C111.942 37.7386 113.009 38.1444 114.014 38.7047C115.306 39.4258 116.216 40.3811 117.031 41.5195C117.798 41.2519 118.65 41.1042 119.548 41.0403C121.62 40.893 123.714 41.0038 125.773 41.3309C125.389 41.0938 124.999 40.8662 124.603 40.65C123.08 39.8196 121.474 39.1652 119.814 38.6667Z" fill="black"/>
<path fill-rule="evenodd" clip-rule="evenodd" d="M125.116 130.389C126.713 130.166 128.431 129.262 129.956 129.997C130.669 130.341 131.007 131.516 130.525 132.169C129.789 133.167 129.029 133.332 127.834 133.428C126.938 133.5 126.037 133.505 125.143 133.402L124.916 133.374C123.321 133.168 121.664 132.723 120.429 131.651C120.176 131.431 120.305 130.957 120.63 130.889C122.097 130.58 123.631 130.596 125.116 130.389ZM123.237 126.71C123.236 126.697 123.256 126.697 123.257 126.71C123.295 127.623 123.552 128.47 124.026 129.251C124.032 129.262 124.015 129.272 124.009 129.261C123.534 128.479 123.276 127.624 123.237 126.71ZM128.271 107.866C129.866 108.836 132.297 111.098 130.581 113.503C128.561 115.624 125.652 113.193 124.219 112.093C122.89 111.241 121.396 113.433 122.629 114.428C132.987 122.099 137.19 108.12 129.078 106.726C128.184 106.572 127.853 107.566 128.271 107.866ZM136.436 97.0098C136.811 97.0098 137.169 97.137 137.495 97.3724C137.817 97.6041 138.107 97.9422 138.349 98.3639C138.808 99.1619 139.094 100.264 139.094 101.482C139.094 102.7 138.808 103.802 138.349 104.6C138.107 105.022 137.817 105.36 137.495 105.592C137.169 105.827 136.811 105.954 136.436 105.954C136.062 105.954 135.703 105.827 135.377 105.592C135.056 105.36 134.765 105.022 134.523 104.6C134.065 103.802 133.778 102.7 133.778 101.482C133.778 100.264 134.065 99.1619 134.523 98.3639C134.765 97.9422 135.056 97.6041 135.377 97.3724C135.703 97.137 136.062 97.0098 136.436 97.0098ZM119.087 98.2525L119.228 98.2257C120.051 98.076 120.467 98.1264 121.184 98.6875C121.722 99.1091 121.568 99.9395 121.184 100.383C120.514 101.156 119.86 101.019 118.943 101.048L118.879 101.051C118.115 101.082 117.35 101.103 116.585 101.115C116.376 101.118 116.167 101.118 115.958 101.119C115.98 103.055 114.864 104.529 113.394 105.65C112.444 106.375 111.243 105.539 110.904 104.637C110.624 103.89 110.563 102.972 110.709 102.155C110.763 101.854 110.875 101.527 111.046 101.248L111.095 101.173L111.087 101.066C111.085 101.04 111.087 101.014 111.086 100.988C109.722 100.905 108.365 100.768 107.01 100.596L106.558 100.537C105.4 100.384 103.701 100.335 102.764 99.5817C102.734 99.5576 102.745 99.505 102.776 99.4883C103.291 99.2109 103.814 99.2266 104.389 99.201L104.472 99.197C105.098 99.1647 105.723 99.1377 106.349 99.1162L106.975 99.0966C108.577 99.0508 110.18 98.973 111.781 98.8878C112.059 98.873 112.337 98.8555 112.616 98.8384C112.907 98.7162 113.217 98.6431 113.523 98.6295C113.776 98.6181 114.02 98.6532 114.249 98.7261C114.834 98.681 115.418 98.6317 116.002 98.5788L116.585 98.5247C117.409 98.4463 118.274 98.4121 119.087 98.2525ZM129.201 83.7411C130.961 82.8757 133.102 82.8545 134.915 83.5708L135.035 83.6195C136.866 84.3797 139.072 86.1356 138.595 88.3228C138.158 90.3247 135.019 89.9855 134.86 88.0933C133.846 86.6886 131.574 86.3805 130.145 87.2737C129.279 87.8156 128.684 88.728 128.277 89.6482C127.931 90.4319 127.866 91.3996 127.334 92.0823C127.316 92.1045 127.282 92.1085 127.256 92.1026C125.669 91.7353 125.633 89.2124 125.903 87.9886C126.296 86.2095 127.558 84.5489 129.201 83.7411Z" fill="black"/>
</g>
<defs>
<clipPath id="clip0_2016_14103">
<rect width="200" height="267" fill="white"/>
</clipPath>
</defs>
</svg>
