<svg width="200" height="267" viewBox="0 0 200 267" fill="none" xmlns="http://www.w3.org/2000/svg">
<g clip-path="url(#clip0_2016_14104)">
<rect width="200" height="267" fill="white"/>
<path fill-rule="evenodd" clip-rule="evenodd" d="M150.479 181.122C148.644 180.468 146.876 179.712 145.265 178.601C140.62 175.142 137.592 169.938 134.731 165.007C130.7 157.835 127.829 150.193 125.844 142.221C124.991 138.796 124.701 134.824 122.764 131.788C118.371 125.429 105.49 126.253 98.6503 127.369C94.07 128.18 93.1233 133.308 92.083 137.102C91.2168 140.255 90.6498 143.443 90.1738 146.674C89.0414 147.419 87.763 148.024 86.5444 148.551C73.2644 152.625 70.9303 160.177 65.858 171.843C57.2908 188.8 34.044 195.439 30.5325 215.506C28.2701 228.755 34.7038 241.219 41.337 252.233C47.5144 264.263 56.1386 270.037 69.8729 267.195C82.7549 264.304 95.1352 259.468 107.791 255.731C113.92 254.224 120.04 250.302 126.488 251.669C139.773 254.654 153.423 256.058 167.039 255.67C186.155 256.444 186.152 238.089 184.19 223.875C182.816 201.755 171.663 187.551 150.479 181.122V181.122Z" fill="#FDC6A0"/>
<path fill-rule="evenodd" clip-rule="evenodd" d="M151.757 213.13C153.354 214.187 154.697 215.789 155.776 217.475C151.273 217.007 146.779 216.467 142.294 215.852C142.881 215.476 143.474 215.109 144.08 214.762C146.291 213.516 149.287 211.497 151.757 213.13ZM76.9498 226.445C76.1248 226.122 75.8056 224.863 75.4841 224.142C74.4759 221.88 73.5558 219.579 72.5986 217.295C76.2332 216.259 79.7677 215.109 83.5329 214.556C87.5815 213.963 91.6898 213.819 95.7757 213.953C104.052 214.223 112.251 215.576 120.388 217.027C128.515 218.476 136.642 219.868 144.826 220.961C152.844 222.031 160.888 222.815 168.947 223.503C170.512 223.636 173.123 224.2 174.382 222.967C175.379 221.991 175.411 220.19 174.164 219.397C173.387 218.902 172.261 218.895 171.373 218.781C170.255 218.637 169.133 218.541 168.008 218.466C167.55 218.436 167.091 218.408 166.633 218.38C170.313 216.992 174.156 216.236 178.145 216.447C178.371 217.818 179.387 219.228 179.943 220.359C180.915 222.333 181.672 224.331 182.169 226.477C183.208 230.964 183.253 235.62 182.96 240.196C182.69 244.011 182.111 248.232 179.119 250.934C176.854 252.98 173.659 253.737 170.694 253.975C167.248 254.252 163.749 253.957 160.333 253.495C155.54 252.846 150.725 251.989 146.027 250.84C136.928 248.615 128.206 245.075 120.159 240.274C116.234 237.934 112.49 235.3 108.512 233.049C104.458 230.754 100.145 228.973 95.6158 227.868C90.5472 226.631 85.2486 226.103 80.0392 226.408C79.1352 226.461 77.8291 226.789 76.9498 226.445ZM71.0762 224.148C71.6088 225.877 72.0163 227.851 73.1531 229.304C74.2792 230.744 75.978 231.252 77.7379 231.38C79.8598 231.534 82.0067 231.435 84.1334 231.514C88.495 231.676 92.7968 232.385 96.9664 233.685C100.852 234.897 104.459 236.787 107.934 238.883C111.146 240.822 114.265 242.904 117.479 244.837C116.624 245.229 115.778 245.653 114.928 246.023C113.144 246.798 111.35 247.545 109.547 248.274C105.993 249.711 102.423 251.114 98.8169 252.416C91.5455 255.043 84.1545 257.338 76.6746 259.293C73.1071 260.226 69.4889 261.315 65.7827 261.47C62.4962 261.607 59.452 260.678 56.8015 258.723C51.3039 254.669 46.93 248.817 43.3942 243.044C41.2936 239.614 39.4604 236.011 37.9441 232.285C37.1772 230.401 36.4817 228.488 35.8558 226.552C35.5621 225.643 35.2836 224.729 35.02 223.811C34.904 223.408 34.7929 223.003 34.6828 222.597C40.3044 220.881 45.9928 219.332 51.8147 218.472C54.9231 218.013 58.0729 217.78 61.2153 217.814C62.775 217.831 64.334 217.915 65.8855 218.076C66.7207 218.163 67.5524 218.274 68.3806 218.412C68.7229 218.469 69.0746 218.553 69.4274 218.615C69.9664 220.463 70.5098 222.309 71.0762 224.148ZM187.282 216.803C187.585 216.19 187.713 215.586 187.822 214.919C187.904 214.41 188.124 213.693 187.932 213.032C187.716 212.292 187.129 211.629 186.708 210.998C186.242 210.3 185.777 209.602 185.313 208.903C184.384 207.506 183.457 206.107 182.532 204.708C178.753 198.993 175 193.261 171.24 187.533C167.905 182.45 164.625 177.321 161.187 172.306C158.248 168.018 155.044 163.8 151.021 160.465C145.934 156.248 139.876 154.262 133.549 152.712C132.858 151.994 131.935 151.602 130.948 151.682C129.554 150.1 128.446 148.996 127.944 146.984C127.703 146.021 127.779 143.314 126.841 142.744C125.727 142.067 125.145 142.963 124.838 143.973C123.81 147.353 124.99 151.897 127.705 155.282C126.561 159.236 125.044 164.857 122.339 168.025C119.442 171.417 115.436 172.473 111.113 172.543C102.87 172.675 94.6357 169.61 88.3481 164.299C86.437 162.685 84.6622 160.881 83.0563 158.964C81.8519 157.525 80.4271 155.305 79.4848 153.627C79.4848 152.973 78.713 152.289 86.5708 151.761C94.4285 151.232 95.0244 140.469 95.1991 139.004C95.3411 137.814 95.9449 135.968 95.107 134.998C94.7515 134.586 94.0217 134.52 93.5709 134.8C92.7208 135.328 92.4415 136.678 92.1742 137.596C91.7998 138.88 90.576 146.854 88.2569 147.777C87.1712 148.209 85.926 148.217 84.7775 148.297C83.3593 148.396 81.9381 148.469 80.5255 148.634C80.0046 148.695 79.4362 148.863 78.9222 148.868C78.5878 148.871 78.2428 148.709 77.9196 148.595C76.8286 148.209 75.7384 148.498 74.6145 148.65C64.6773 149.986 54.4454 153.035 45.9693 158.521C38.4985 163.357 33.2352 170.311 29.7622 178.442C26.2186 186.74 24.1874 195.714 22.4853 204.547C21.915 207.507 21.4171 210.481 20.9893 213.464C20.5758 216.347 20.0586 219.295 19.9348 222.207C19.8858 223.359 20.1611 224.43 20.5847 225.482C21.0617 226.667 22.1893 227.134 23.2707 227.687C25.6448 228.902 28.1491 229.844 30.7293 230.511C32.3056 233.38 33.6322 236.361 34.6982 239.454C34.3027 240.238 34.2945 241.409 34.2184 242.171C34.0298 244.068 33.9491 245.975 33.9322 247.881C33.8981 251.701 34.1278 255.518 34.3078 259.332C34.4903 263.2 35.0971 278.464 35.196 280.328C35.2729 281.776 35.1693 283.801 35.9318 285.087C37.1035 287.062 39.9953 286.996 41.3348 285.394C74.6145 292.551 137.171 290.395 162.366 286.794C165.644 286.326 164.614 286.845 165.448 286.017C166.074 285.395 166.606 284.329 166.779 283.473C167.01 282.33 166.637 281.296 165.983 280.371C165.295 279.399 165.17 277.824 164.914 276.668C164.31 273.935 164.01 261.932 163.728 260.602C163.64 260.188 163.555 259.75 163.452 259.312C168.074 259.749 172.889 259.749 177.286 258.203C179.779 257.326 182.104 255.949 183.894 253.982C186.061 251.601 187.267 248.603 187.887 245.474C188.687 241.439 188.857 237.26 188.7 233.158C188.481 228.311 187.678 223.395 185.683 218.944C186.339 218.334 186.889 217.599 187.282 216.803Z" fill="black"/>
<path fill-rule="evenodd" clip-rule="evenodd" d="M72.9219 59.6854C74.0152 58.5093 75.4136 57.633 76.9422 57.353C75.5449 58.0528 74.179 58.7821 72.9219 59.6854ZM70.7803 69.8269C70.587 68.9305 70.4571 68.0255 70.4162 67.1207C70.6606 67.4931 71.0508 67.7419 71.4891 67.8704C71.206 68.5059 70.9652 69.1607 70.7803 69.8269ZM143.94 83.8803C142.678 78.614 136.79 68.4846 135.398 66.535C133.887 61.7075 142.129 57.8361 137.647 54.0612C135.617 52.3579 132.935 51.7552 130.419 51.1511C112.999 46.9571 94.2828 49.0723 78.1262 56.7847C75.6687 56.2662 73.1082 57.2794 71.3211 59.059C62.9251 67.5189 74.3673 82.7831 76.8693 92.3205C81.162 102.955 72.3193 104.744 73.2676 113.742C74.0044 118.39 78.7009 119.619 82.6642 120.321C83.2994 120.47 84.1485 120.493 84.3535 121.166C84.9956 125.095 87.197 128.839 90.1525 131.381C89.8941 132.148 90.0914 133.08 91.0028 133.754C99.2603 139.906 109.672 142.985 119.971 142.431C132.245 141.772 138.592 134.719 140.124 132.904C148.592 121.438 147.58 106.311 145.853 92.6476C144.649 83.1293 146.175 93.2093 143.94 83.8803Z" fill="#FDC6A0"/>
<path fill-rule="evenodd" clip-rule="evenodd" d="M106.095 40.0597C106.481 38.8507 107.573 38.1237 108.823 38.2738C109.93 38.4048 111.114 39.5059 110.98 40.7212C110.954 40.9558 110.92 41.1756 110.88 41.3827L110.886 41.3846V41.3846L110.891 41.3848L110.864 41.4651C110.781 41.8519 110.667 42.1985 110.499 42.5261C110.284 43.1538 110.077 43.7837 109.873 44.4156C110.168 44.4029 110.469 44.4198 110.775 44.4769C111.091 43.6653 111.41 42.8558 111.726 42.0421C112.065 41.1735 112.303 40.0575 112.974 39.3855C113.832 38.5274 115.32 38.3498 116.366 38.9628C117.471 39.6095 117.865 40.7592 117.625 41.9914C117.502 42.6199 117.084 43.0573 116.565 43.3321L116.509 43.361L116.111 44.3078C116.233 44.255 116.36 44.2064 116.497 44.1662C116.712 44.1028 116.923 44.0626 117.129 44.0457C117.698 43.0122 118.325 42.0083 118.972 41.0234C119.716 39.8906 121.171 39.4087 122.391 40.1252C123.483 40.7656 124.069 42.4479 123.287 43.5533C122.693 44.3923 122.13 45.2483 121.575 46.1127C121.67 46.1296 121.765 46.1508 121.856 46.1783C121.898 46.1212 121.942 46.0641 121.989 46.0071C122.594 45.2547 123.298 44.6903 124.021 44.0647C124.698 43.4772 125.01 42.5536 125.899 42.1076C127.019 41.5476 128.368 41.816 129.034 42.9319C130.464 45.3223 128.065 47.068 126.53 48.5158C127.864 47.681 129.254 46.918 130.679 46.2586C131.48 45.8887 132.294 45.5315 133.12 45.2229C134.345 44.7664 135.336 44.9125 136.341 45.7619C136.79 46.1423 137.014 46.9731 136.807 47.5267C136.407 48.5876 135.774 49.2323 134.665 49.5387C133.885 49.7543 133.086 49.9001 132.306 50.1263C130.999 50.5025 129.73 50.9611 128.499 51.5339C128.587 51.5888 128.672 51.648 128.75 51.7156C129.669 51.4176 130.605 51.1598 131.545 50.94C133.105 50.5734 134.692 50.3257 136.286 50.1708L136.816 50.1214C138.727 49.9375 141.025 49.5982 142.198 51.4324C142.584 52.0369 142.626 53.0345 142.198 53.6326C141.38 54.7823 140.566 55.0106 139.213 55.0317C140.545 55.1733 141.875 55.3487 143.199 55.5538C144.112 55.6932 145.025 55.8514 145.933 56.0268L146.387 56.1159C147.494 56.3379 148.729 56.4668 149.68 57.1093C151.755 58.5127 150.781 61.2454 148.483 61.5371C147.372 61.6766 146.138 61.2053 145.048 60.9855C143.99 60.772 142.927 60.5839 141.861 60.419C141.308 60.3324 140.756 60.2563 140.202 60.1865C141.329 60.3493 142.449 60.5797 143.539 60.9051L143.842 60.9967C145.949 61.6405 148.793 62.6659 149.45 64.9229C149.849 66.2946 148.759 67.4908 147.439 67.5711C146.212 67.6451 145.19 66.9117 144.148 66.3707C143.389 65.9775 142.618 65.6838 141.8 65.4323C140.954 65.1723 140.092 64.9567 139.223 64.7813C139.957 65.1867 140.672 65.6323 141.358 66.1308L141.674 66.3644C143.498 67.7268 146.279 69.8361 145.637 72.3899C145.434 73.1952 144.538 73.9645 143.678 73.882C141.439 73.6728 140.204 71.2824 138.515 70.0017C138.074 69.6677 137.592 69.338 137.086 69.0168C139.645 72.0771 141.681 75.6151 143.231 79.2694C146.637 87.3087 147.681 94.7537 147.706 103.398L147.707 103.666C147.711 108.434 147.603 113.288 147.14 118.035C146.71 122.421 145.921 126.749 143.937 130.721C140.613 137.38 134.134 142.567 126.989 144.541C119.039 146.739 110.153 145.02 103.641 139.948C101.98 138.655 104.183 135.846 105.88 137.04C112.658 141.806 121.424 143.315 129.203 140.09C135.374 137.532 140.343 132.031 142.449 125.697C143.789 121.667 144.18 117.37 144.658 113.171L144.69 112.891C145.196 108.499 145.489 104.078 145.485 99.6562C145.478 91.4453 144.302 84.6863 140.699 77.2383C139.004 73.7299 136.805 70.4859 134.178 67.6388C133.381 67.8015 132.534 67.5732 131.729 67.4866C131.317 67.4422 130.906 67.3999 130.495 67.3619C130.915 67.6341 131.327 67.9171 131.732 68.2068L132.263 68.5907C133.925 69.7836 136.033 71.1424 135.606 73.4488C135.49 74.0723 134.87 74.645 134.269 74.7866C132.091 75.3065 130.594 73.1846 129.123 71.9249C127.843 70.8301 126.504 69.8495 125.14 68.8667C124.831 68.6448 124.518 68.4229 124.204 68.2031C124.5 68.548 124.787 68.8983 125.067 69.2519L125.481 69.778C126.733 71.3494 128.539 73.392 127.424 75.4291C127.107 76.004 126.433 76.3865 125.779 76.3739C123.532 76.3274 122.638 73.77 121.584 72.1553C120.677 70.771 119.693 69.4669 118.675 68.1629C118.394 67.8057 118.112 67.4485 117.825 67.0914C113.105 67.3365 108.401 67.9621 103.78 68.9618C100.605 69.6487 97.4827 70.5387 94.3836 71.5128L94.1261 71.5949C92.4489 72.1363 90.7208 72.8292 89.5115 74.0173C89.3389 74.8359 89.4714 75.6992 89.6365 76.5168L89.7652 77.1425C90.2955 79.7592 90.6568 82.3274 90.3864 85.0139C90.106 87.7847 89.2733 90.2765 88.2571 92.8507C87.7764 94.0639 87.2789 93.8441 87.1081 95.146C86.9773 96.1377 87.0582 97.1614 87.1476 98.1614L87.2223 99.0091C87.4097 101.23 87.5038 103.651 86.0519 105.483C85.8263 105.764 85.3436 105.652 85.1833 105.371C85.1201 105.259 85.0526 105.151 84.9788 105.048C84.2789 104.031 83.2058 103.452 81.9788 103.228C81.8228 103.201 81.884 102.991 82.0147 102.974C83.0519 102.852 84.0344 103.112 84.8692 103.649C84.4733 102.276 81.4083 102.944 80.4008 103.21L80.3661 103.22C79.1096 103.558 77.9205 104.107 76.8727 104.885C74.7645 106.449 73.546 108.888 73.6071 111.515C73.6682 114.098 74.9985 116.484 77.2838 117.72C78.3864 118.316 79.6408 118.604 80.8889 118.591C82.1918 118.578 83.3513 118.006 84.6563 118.086C85.411 118.132 85.9887 118.944 85.5523 119.652C85.2613 120.125 84.8819 120.497 84.4434 120.783C85.5122 123.253 86.8762 125.61 88.449 127.785C89.3197 128.992 90.3063 130.105 91.392 131.122C92.2395 131.917 94.0758 132.836 93.9725 134.161C93.9367 134.639 93.69 134.931 93.2557 135.108C91.9055 135.661 90.2637 133.756 89.3606 132.837L89.288 132.764C88.1622 131.64 87.1355 130.397 86.2417 129.078C84.6563 126.737 83.6717 124.097 83.2649 121.324C81.0997 121.977 78.2325 121.364 76.4659 120.563C70.9128 118.048 69.0976 110.551 72.4729 105.559C73.1264 104.593 73.9444 103.767 74.8763 103.099C74.6718 102.987 74.4799 102.843 74.3091 102.662C73.3645 101.656 72.6966 100.343 72.0338 99.133L71.9543 98.9883C71.3658 97.9231 70.8107 96.8412 70.2904 95.7426L70.0969 95.3299C68.9353 92.8254 67.917 91.7306 67.0885 89.0972C66.2916 86.5567 65.6633 83.9677 65.2565 81.3343L65.1483 80.6372C64.913 79.1091 64.6905 77.4751 64.8622 75.9237C63.6795 76.3105 62.4905 76.5493 61.3204 75.9681C60.5488 75.5855 60.1229 74.4696 60.3865 73.6686C60.5783 73.0789 60.8988 72.6161 61.3056 72.2525C61.0632 72.13 60.8355 71.9736 60.6352 71.8002L60.4603 71.6483V71.6483C59.7519 71.0309 59.7013 69.8579 60.1314 69.0844C60.1735 69.0104 60.2157 68.9343 60.2558 68.8604C60.6647 68.127 61.5101 67.6472 62.345 67.6599C62.4799 67.662 62.6149 67.662 62.7519 67.6599C62.3619 67.5732 61.9803 67.4401 61.6177 67.2161C59.9817 66.2079 60.1883 63.4752 62.1679 62.9933C62.9985 62.7925 63.9156 62.8749 64.8306 63.0905C64.7969 63.0715 64.7631 63.0525 64.7294 63.0313C64.0379 62.6065 63.4581 61.7759 63.5235 60.9242C63.5952 59.9815 63.8988 59.3094 64.7294 58.8149C65.4504 58.388 66.4708 58.3478 67.1876 58.8149C67.8095 59.2228 68.4188 59.673 69.0049 60.157C68.4167 59.432 67.9065 58.6437 67.6999 57.8067C67.4448 56.7648 67.8706 55.6298 68.8067 55.0803C69.553 54.6428 70.3415 54.6914 71.0456 55.0296C71.0077 54.4822 71.1405 53.9242 71.5031 53.4297C72.2452 52.4154 73.5945 51.8319 74.7687 52.5716C74.9226 52.6688 75.1292 52.8358 75.3295 53.0408C74.9395 51.7959 75.2916 50.4898 76.6219 49.9276C77.4335 49.5831 78.5319 49.7564 79.2361 50.3503C78.7891 47.9261 82.3583 46.1444 83.7455 48.6489C84.0604 49.2163 84.3719 49.8137 84.6504 50.4249L84.7533 50.6547L84.7638 50.6504L84.6929 50.4824V50.4824L84.6204 50.3144C84.2346 49.4161 83.7434 48.482 83.6085 47.5076C83.4103 46.0662 84.0512 44.6988 85.6155 44.4874C86.423 44.3775 87.3211 44.7453 87.8629 45.388C87.5698 43.1517 90.0618 41.5264 91.8558 43.1961C92.7055 43.9865 93.1587 45.1426 93.6984 46.1571C94.0041 46.7299 94.3161 47.3005 94.6218 47.8754C94.6998 47.7824 94.7842 47.6894 94.8727 47.5985C94.4194 46.2374 94.0674 44.8425 93.7701 43.4392C93.4876 42.1161 94.1475 40.7423 95.5094 40.3684C96.7469 40.0258 98.2965 40.7911 98.5726 42.1121C98.7666 43.0418 98.9964 43.9614 99.2494 44.8763C99.4222 44.8341 99.593 44.8045 99.7617 44.7833C99.7757 44.6114 99.7917 44.4386 99.8095 44.2667L99.8758 43.6553C100.023 42.2584 100.172 40.6638 100.9 39.4763C102.142 37.4474 105.325 38.2885 105.359 40.6874C105.378 41.928 104.874 43.1581 104.699 44.386C104.623 44.9207 104.579 45.4618 104.554 46.0028C104.893 44.2064 105.359 42.4331 105.899 40.6874C105.962 40.4781 106.029 40.2689 106.095 40.0597ZM78.6289 109.336C81.4223 108.903 83.9753 110.465 85.6303 112.652C85.9317 113.052 85.7336 113.616 85.4616 113.952C85.2655 114.199 85.002 114.229 84.7048 114.267C84.3632 114.311 83.931 114.034 83.7814 113.736C82.7167 111.606 80.8172 110.26 78.6289 109.431C78.5888 109.416 78.5762 109.345 78.6289 109.336ZM82.5012 71.1653L82.5858 71.0743C83.151 70.4865 82.2578 69.5887 81.6913 70.1777C81.0949 70.7978 80.6985 71.5511 80.3174 72.3145C79.9541 73.0424 81.0449 73.6853 81.4096 72.9546L81.5757 72.6226C81.8364 72.1062 82.1143 71.596 82.5012 71.1653V71.1653ZM74.6564 69.959C75.4575 69.8237 75.1179 68.6015 74.3201 68.7363C73.2867 68.9109 72.2572 69.1093 71.2236 69.2841C70.4226 69.4194 70.7623 70.6416 71.56 70.507C72.5935 70.3322 73.6229 70.1337 74.6564 69.959ZM122.38 61.6146C121.606 61.3557 121.274 62.5801 122.043 62.8375C123.107 63.1932 124.162 63.5578 125.171 64.0517C125.9 64.4085 126.542 63.3152 125.809 62.9567C124.702 62.4146 123.547 62.0052 122.38 61.6146ZM74.4742 59.9712C73.7184 59.6681 73.3902 60.8941 74.138 61.1941L76.8702 62.2895V62.2895C77.626 62.5926 77.9543 61.3667 77.2065 61.0668L74.4742 59.9712V59.9712ZM131.92 56.9938L131.821 56.9307C131.135 56.4856 130.501 57.5829 131.182 58.0257C131.582 58.2855 132.068 58.4617 132.435 58.7712L132.511 58.8396C133.103 59.3997 133.999 58.5048 133.406 57.9429C132.972 57.5321 132.422 57.3034 131.92 56.9938V56.9938Z" fill="black"/>
<path fill-rule="evenodd" clip-rule="evenodd" d="M112.007 124.857C113.697 121.475 129.202 122.995 129.202 122.995L130.512 133.744C130.512 133.744 123.031 136.15 118.577 135.646C114.124 135.142 110.316 128.238 112.007 124.857Z" fill="white"/>
<path fill-rule="evenodd" clip-rule="evenodd" d="M113.099 130.503C112.564 129.356 123.648 126.23 127.08 128.366C130.512 130.503 129.439 133.416 129.439 133.416C129.439 133.416 115.004 136.71 113.099 130.503Z" fill="#FF8181"/>
<path fill-rule="evenodd" clip-rule="evenodd" d="M111.045 122.856C113.633 119.848 117.99 119.639 121.599 120.391C123.916 120.873 126.171 121.677 128.524 121.975C129.623 122.115 130.733 122.156 131.84 122.136C132.927 122.116 134.016 121.897 135.099 121.937C135.266 121.944 135.329 122.162 135.185 122.251C133.698 123.165 131.696 123.457 129.94 123.636C129.946 123.766 129.954 123.893 129.972 124C130.02 124.287 130.063 124.572 130.099 124.861C130.178 125.512 130.268 126.161 130.356 126.811C130.532 128.09 130.587 129.409 130.895 130.666L130.949 130.875C131.02 131.139 131.037 131.378 131.013 131.592L131.084 131.56L131.31 131.451L131.458 131.381C131.997 131.131 132.512 130.948 133.146 131.009C133.629 131.055 134.035 131.385 134.038 131.901C134.05 134.216 130.931 134.961 129.147 135.404L128.623 135.533C126.352 136.087 124.034 136.573 121.698 136.689C117.95 136.875 113.738 135.841 111.286 132.799C108.998 129.961 108.578 125.723 111.045 122.856ZM128.067 132.584C127.674 129.098 123.392 128.906 122.16 131.117C121.614 128.035 113.527 130.85 114.159 131.463C116.556 133.785 120.193 133.994 123.32 133.564C124.912 133.346 126.505 132.99 128.067 132.584ZM123.315 123.447L122.239 123.292L121.815 123.234C119.146 122.876 116.144 122.692 113.95 124.403C113.149 125.028 112.698 125.843 112.53 126.718C114.606 126.411 116.69 126.176 118.78 125.98L119.35 125.928C120.658 125.81 121.965 125.686 123.271 125.555L124.2 125.461L125.128 125.365C125.455 125.33 127.656 125.218 128.07 125.293C128.114 124.921 128.172 124.116 128.265 123.754C126.701 123.808 125.144 123.691 123.589 123.485L123.315 123.447ZM128.271 107.866C129.866 108.836 132.297 111.098 130.581 113.503C128.56 115.624 125.652 113.193 124.219 112.093C122.89 111.241 121.396 113.433 122.629 114.428C132.987 122.099 137.19 108.12 129.078 106.726C128.184 106.572 127.853 107.566 128.271 107.866ZM131.126 111.953L131.202 111.911L131.228 111.896C131.273 111.867 131.245 111.87 131.143 111.905L131.066 111.933V111.987C131.086 111.975 131.107 111.966 131.126 111.953ZM110.694 103.334L110.694 103.287C110.697 101.939 111.481 98.8617 113.421 98.8617C114.632 98.8617 115.368 100.956 115.495 103.115L115.5 103.203C115.556 104.545 115.188 107.479 113.421 107.479C111.635 107.479 110.712 104.7 110.694 103.334V103.334ZM139.248 102.912L139.248 102.864C139.245 101.516 138.46 98.439 136.521 98.439C135.34 98.439 134.611 100.43 134.457 102.53L134.446 102.692C134.37 103.989 134.714 107.056 136.521 107.056C138.307 107.056 139.229 104.277 139.248 102.912V102.912ZM111.8 89.6727C113.383 89.432 115.479 89.8893 116.217 91.4994C116.546 92.2167 116.157 93.0099 115.328 93.0497C113.325 93.1456 111.528 92.6997 109.77 94.0026C109.014 94.5635 108.377 95.34 107.844 96.1146L107.642 96.4094L107.474 96.6522C107.112 97.1854 106.769 97.7646 106.822 98.4078C106.838 98.5982 106.643 98.779 106.459 98.7713C105.306 98.724 105.182 97.2788 105.334 96.4108C105.616 94.7999 106.395 93.2877 107.475 92.0696C108.61 90.7905 110.107 89.9304 111.8 89.6727ZM133.601 91.6278C134.692 90.9259 136.088 90.6562 137.367 90.7596C139.888 90.9627 144.117 93.1066 143.561 96.1871C143.389 97.1371 142.068 97.6384 141.29 97.1113C140.453 96.5447 140.249 95.664 139.627 94.9234C139.13 94.3318 138.5 93.9038 137.825 93.5393C137.161 93.1797 136.392 92.9617 135.637 92.8823L135.512 92.8703C135.058 92.8317 132.765 92.842 133.102 93.6982C133.168 93.8658 132.918 93.9985 132.804 93.8717C132.101 93.0939 132.897 92.0805 133.601 91.6278Z" fill="black"/>
</g>
<defs>
<clipPath id="clip0_2016_14104">
<rect width="200" height="267" fill="white"/>
</clipPath>
</defs>
</svg>
