<svg width="200" height="267" viewBox="0 0 200 267" fill="none" xmlns="http://www.w3.org/2000/svg">
<g clip-path="url(#clip0_2016_14089)">
<rect width="200" height="267" fill="white"/>
<path fill-rule="evenodd" clip-rule="evenodd" d="M96.7955 128.018C101.428 124.786 116.467 127.221 122.666 128.018C125.923 128.437 127.846 132.664 129.557 139.092C138.484 136.903 150.198 134.829 158.613 140.763C161.212 143.027 161.698 146.885 158.7 149.038C157.723 149.696 155.841 150.256 155.543 150.827C154.337 153.897 152.992 157.954 153.206 161.219C157.038 195.5 164.72 229.875 170.124 263.937L170.267 265.226C170.9 271.021 171.413 277.859 167.477 282.473C164.831 284.716 161.068 284.407 157.834 285.054C127.351 289.14 96.5713 285.234 65.9644 286.48C60.7488 286.774 55.5054 287.154 50.2774 287.193L50.2751 287.132C50.8387 287.128 51.4025 287.12 51.9668 287.108C51.3888 270.079 50.1961 253.072 49.8112 236.035C49.6897 230.665 49.6542 225.293 49.7602 219.922C49.7818 218.834 48.0917 218.834 48.0701 219.922C48.0348 221.705 48.0192 223.486 48.0118 225.268C46.7459 224.275 45.3382 223.488 43.9874 222.601C43.0751 222.003 42.2275 223.466 43.1343 224.061C44.7365 225.112 46.4419 225.995 47.831 227.338C47.8871 227.392 47.9459 227.434 48.0057 227.469C48.0367 244.586 49.2082 261.691 49.9521 278.786C50.0621 281.316 50.162 283.846 50.2498 286.377L50.2772 287.193C44.6178 287.235 38.9765 286.877 33.408 285.579C32.4672 286.891 30.276 287.151 29.162 285.458C28.6046 284.819 28.4924 283.732 27.6298 283.488C27.3979 283.307 27.756 283.178 27.9199 283.264C20.3018 261.426 27.2538 220.731 33.396 198.358C36.0831 186.823 42.542 176.144 43.2144 164.203C43.2852 158.575 39.2508 151.795 44.3658 147.273C43.6114 143.14 47.5177 139.695 51.4617 139.423C56.316 121.888 77.8025 142.338 89.4364 142.545C91.0316 139.891 94.5794 129.564 96.7955 128.018ZM162.202 242.809C162.201 241.721 160.511 241.719 160.512 242.809C160.523 254.38 161.517 268.233 162.945 279.708C163.078 280.773 164.77 280.786 164.636 279.708C163.207 268.233 162.213 254.38 162.202 242.809ZM82.928 257.661C83.8874 257.147 83.0347 255.687 82.0751 256.201C75.0312 259.974 68.4488 264.484 62.1179 269.348C61.2671 270.002 62.108 271.471 62.971 270.808C69.3019 265.944 75.8841 261.434 82.928 257.661ZM144.053 255.501C143.387 254.701 141.96 255.532 142.617 256.384C144.146 258.366 146.047 259.927 148.274 261.069C149.229 261.559 150.076 260.141 149.161 259.628L149.127 259.609C147.226 258.635 145.513 257.343 144.181 255.664L144.053 255.501ZM59.4652 206.026C59.7012 204.965 58.0721 204.513 57.8355 205.576C57.338 207.811 57.6996 210.188 58.217 212.403L58.2517 212.55L58.3223 212.843C58.4152 213.224 58.771 213.436 59.1371 213.464C65.3543 213.924 71.5033 211.811 77.4638 210.251L77.9049 210.137L78.3454 210.025C79.3994 209.759 78.953 208.128 77.896 208.394L77.4254 208.514C71.695 209.991 65.7935 212.074 59.8138 211.812L59.751 211.536C59.3589 209.785 59.0817 207.912 59.436 206.163L59.4652 206.026ZM154.9 201.906C154.908 200.817 153.218 200.816 153.21 201.906L153.208 202.119C153.188 203.834 153.047 206.271 151.366 207.18C149.872 207.989 147.887 207.382 146.304 206.763L145.982 206.636L145.518 206.447C144.512 206.035 144.074 207.67 145.069 208.077L145.318 208.178C147.47 209.038 150.236 209.858 152.361 208.558C154.438 207.286 154.839 204.592 154.894 202.329L154.897 202.156L154.9 201.906Z" fill="#FDC6A0"/>
<path fill-rule="evenodd" clip-rule="evenodd" d="M150.207 136.699L150.38 136.73L155.163 137.62L150.312 137.986C150.087 138.003 149.862 138.024 149.635 138.049C149.17 138.1 148.712 138.164 148.263 138.242L147.971 138.294L148.096 138.288C149.868 138.205 151.641 138.35 153.39 138.717C155.114 139.079 156.644 139.571 158.013 140.241L158.176 140.322L158.387 140.43L158.489 140.479L158.57 140.516C158.945 140.69 159.097 140.779 159.256 140.994C159.57 141.42 159.436 141.901 159.031 142.267C158.727 142.541 158.335 142.676 157.821 142.754C157.745 142.766 157.667 142.776 157.583 142.785L157.128 142.83C156.28 142.919 155.72 143.378 155.636 144.09C155.553 144.788 155.962 145.496 156.548 145.669L156.592 145.681L156.646 145.694C156.722 145.711 156.789 145.73 156.854 145.753L156.903 145.772L157.009 145.815L157.014 145.816L157.017 145.819L157.118 145.86L157.144 145.911L157.16 145.923C157.22 145.972 157.245 146.007 157.285 146.081L157.319 146.148L157.347 146.245L157.355 146.276L157.359 146.302L157.36 146.309L157.388 146.486L157.395 146.546L157.398 146.585L157.398 149.296L156.703 147.905L156.679 147.925C156.342 148.196 155.911 148.419 155.362 148.636L155.25 148.679L154.961 148.786L154.389 148.99L154.257 149.039L154.14 149.085C154.047 149.121 153.968 149.155 153.895 149.188C153.786 149.238 153.69 149.295 153.606 149.358L153.558 149.396L153.282 149.624L152.604 149.387C152.525 149.359 152.452 149.333 152.383 149.308L151.725 149.063L151.162 148.856C150.431 148.589 149.774 148.356 149.135 148.14L148.359 147.882L147.794 147.697C147.597 147.634 147.39 147.567 147.161 147.494L143.963 146.484L143.348 146.286C143.002 146.175 142.691 146.072 142.369 145.965L141.772 145.764L141.193 145.565C139.31 144.911 137.509 144.21 134.3 142.914L134.996 143.31L135.513 143.603C136.132 143.952 136.811 144.33 137.57 144.75L141.022 146.658L141.714 147.045L143.26 147.914L144.077 148.37C145.54 149.183 146.579 149.732 147.686 150.272C148.541 150.69 149.421 151.091 150.337 151.482L150.682 151.628L151.211 151.849L151.629 152.03L151.911 152.154L152.097 152.233C153.096 152.652 153.682 152.76 154.333 152.59L154.379 152.577L154.423 152.561L155.691 152.075L155.25 153.359C155.199 153.506 155.15 153.654 155.1 153.803L155.011 154.076L154.939 154.219C154.514 155.063 154.095 155.933 153.673 156.845L153.446 157.337L153.316 157.434C153.268 157.469 153.224 157.521 153.188 157.591C153.02 157.92 152.857 158.246 152.7 158.573L152.534 158.921L152.364 159.288C151.617 160.895 150.94 162.545 150.061 164.846L148.904 167.914L148.731 168.372C147.309 172.123 145.969 175.884 144.713 179.651C142.227 187.085 140.029 194.628 138.124 202.26C134.3 217.591 131.748 233.152 130.498 248.815C130.261 251.767 130.091 254.705 129.987 257.633L129.962 258.393L129.881 259.066C129.818 259.596 129.758 260.111 129.703 260.615L129.67 260.916C129.263 264.645 129.068 267.578 129.088 270.387C129.099 271.781 129.141 273.079 129.22 274.33L129.239 274.618L129.553 279.217L128.009 274.873C127.9 274.566 127.794 274.254 127.675 273.89L127.525 273.425L127.453 273.192C127.388 272.978 127.326 272.757 127.248 272.467L126.975 271.434L126.907 271.186C126.836 270.93 126.778 270.733 126.709 270.523L126.628 270.277L126.568 270.106C126.458 269.799 126.329 269.472 126.125 268.977L125.811 268.215L125.748 268.06V267.936L125.759 267.526C125.78 266.548 125.775 265.518 125.746 264.362L125.72 263.457L125.692 262.681C125.689 262.601 125.686 262.519 125.683 262.434L125.538 258.943L125.258 251.192L125.214 249.883C125.183 248.91 125.157 248.029 125.135 247.169L125.116 246.384L125.11 246.117C124.94 238.427 125.004 230.516 125.287 222.287L125.315 221.49L125.344 220.705C125.821 207.923 126.645 197.043 128.599 175.625L128.924 172.081L129.411 166.836L129.523 165.605C129.749 163.098 129.911 161.143 130.048 159.228L130.108 158.375C130.338 154.992 130.478 151.478 130.545 147.619L130.556 146.925L130.252 147.985L129.988 144.46C129.908 143.392 129.773 142.406 129.575 141.486L129.531 141.29L129.445 140.916L129.378 140.667C129.265 140.247 129.976 138.316 129.976 138.316L130.378 138.22L130.865 138.105C138.617 136.295 144.655 135.701 150.207 136.699ZM73.7915 133.561L74.0252 133.625L74.1731 133.667C75.3589 134.008 76.6181 134.49 78.0706 135.135L78.4865 135.321C78.6721 135.405 79.7452 135.83 80.1717 136.012L80.2447 136.043C81.8197 136.735 82.7587 137.462 82.9658 138.532L82.9786 138.604C83.4383 139.045 83.9708 139.469 84.577 139.875L84.7301 139.976L84.875 140.07C85.5267 140.485 86.1438 140.851 86.7245 141.167L86.8819 141.252L86.9905 141.309L88.0362 141.668L89.329 142.117L89.5883 142.205C90.9357 142.664 91.7305 142.906 92.6825 143.139L93.2162 143.27C95.2416 143.761 97.0359 144.145 98.7651 144.445C100.526 144.749 102.333 145.016 104.202 145.249L104.834 145.326C105.456 145.4 106.066 145.455 107.016 145.53L108.554 145.649L109.593 145.733L109.04 146.617C107.591 148.933 106.473 151.514 105.222 155.164L105.082 155.574C103.948 158.928 103.15 161.95 101.775 167.75C99.6951 176.549 97.9813 185.432 96.6411 194.364C95.7175 200.52 94.9688 206.661 94.3978 212.783L94.3174 213.657L93.0548 213.656C92.8889 211.775 92.6825 209.838 92.4339 207.802C91.6535 201.459 90.5301 195.232 89.0621 189.155L88.9235 188.586L88.8633 188.34L88.9881 188.121C89.0631 187.989 89.0928 187.841 89.0717 187.711C88.9175 186.753 88.6362 185.879 88.0987 184.56L87.5508 183.235L87.4279 182.931L87.4189 182.9C86.8378 180.86 86.2186 178.844 85.5609 176.853L85.3402 176.19L85.3307 176.159C84.3759 172.744 83.4377 169.926 82.3354 167.284C81.4717 165.221 80.4903 163.198 79.3966 161.223L79.1902 160.853L79.1713 160.817C77.7859 157.936 76.3119 155.211 74.7468 152.658L74.4957 152.251L74.4726 152.184C74.4191 152.03 74.3385 151.893 74.2318 151.777L74.1906 151.734L74.138 151.683L74.0231 151.502L73.107 151.273C70.5289 150.628 67.8457 150.571 64.8506 151.018L64.6505 151.049L64.4494 151.081C62.2504 151.438 60.3612 151.925 56.9294 152.969L53.5535 154.003L53.0732 154.146L52.6193 154.28C50.974 154.759 49.5329 155.121 48.1337 155.393L47.9431 155.43L47.4254 155.527L47.1692 155.573C45.6276 155.848 44.5482 155.922 43.5276 155.727L43.4349 155.709L43.3215 155.683L43.2201 155.658C42.0287 155.34 41.5884 154.477 42.1368 153.273C42.5904 152.277 43.5743 151.571 45.0205 150.952L45.2302 150.864L45.2823 150.842L45.3373 150.831C45.6816 150.756 46.0112 150.625 46.3251 150.435C46.9578 150.051 47.2224 149.257 46.9357 148.601C46.6401 147.929 45.8312 147.487 45.2681 147.714L44.8431 147.883L44.3782 148.066L44.0916 147.657C44.0756 147.634 44.0605 147.61 44.0458 147.584L44.024 147.544L44.01 147.515L43.975 147.484L43.9401 147.449C43.8527 147.354 43.8059 147.251 43.7824 147.146C43.7736 147.106 43.7689 147.069 43.7668 147.033L43.7654 146.997C43.7642 146.922 43.7697 146.862 43.7929 146.652C43.8953 145.739 44.4922 145.002 45.5259 144.155L45.6927 144.02L45.7425 143.981C47.7205 142.413 50.2292 141.606 52.3608 142.101C52.4651 142.125 52.5674 142.151 52.6717 142.182L52.7769 142.214L52.9013 142.255C53.5568 142.483 54.069 142.203 54.3076 141.579C54.5479 140.951 54.3864 140.257 53.8777 139.883L53.832 139.851L53.6766 139.747L53.4953 139.623L53.2947 139.481L53.2026 139.414L53.0698 139.315C52.0488 138.543 51.4881 137.822 51.6521 136.97L51.6635 136.915L51.6781 136.851L51.7054 136.791L51.7915 136.607L51.8807 136.424L51.9058 136.374L51.9393 136.329C52.2906 135.855 52.8791 135.496 53.7221 135.147L53.8205 135.107C54.1725 134.965 55.1561 134.62 55.3031 134.563L55.3141 134.559C58.2269 133.377 61.391 132.695 64.5734 132.556C67.6974 132.42 70.8273 132.758 73.7915 133.561Z" fill="white"/>
<path d="M128.345 166.131L128.307 166.419L128.271 166.706C127.236 174.949 126.363 185.322 125.603 193.592C124.086 210.079 123.156 226.634 123.285 243.196C123.319 247.478 123.474 251.748 123.671 256.024L123.714 256.94C123.936 261.6 124.276 266.525 125.573 271.02C125.717 271.517 126.036 271.802 126.403 271.906C126.419 272.43 126.449 272.955 126.484 273.476L126.511 273.865C126.661 275.968 127.09 280.336 128.007 282.243C128.901 284.103 130.39 285.578 132.289 286.39C132.822 286.617 133.363 286.779 133.912 286.893C122.379 287.129 107.231 286.757 95.6769 286.478C96.8779 286.289 97.5587 285.339 97.7175 284.128C98.0344 281.697 97.4386 279.185 96.0907 277.141C95.9513 276.93 95.7865 276.741 95.6027 276.581L95.6348 275.236C95.6574 274.227 95.6682 273.218 95.6111 272.21C95.4886 269.987 95.3048 267.763 95.1442 265.542C94.8189 261.093 94.5675 256.636 94.4682 252.176C94.2654 243.257 94.4133 234.33 94.9182 225.423C95.9302 207.63 98.2858 187.837 102.141 170.432C102.422 169.164 102.706 167.896 102.999 166.63C105.997 168.188 111.334 168.748 114.61 168.769C118.717 168.794 124.635 167.849 128.345 166.131Z" fill="#E86BBB"/>
<path fill-rule="evenodd" clip-rule="evenodd" d="M162.916 279.769C161.487 268.293 160.494 254.441 160.482 242.87C160.481 241.78 162.171 241.782 162.172 242.87C162.184 254.441 163.177 268.293 164.606 279.769C164.74 280.847 163.049 280.834 162.916 279.769M152.331 208.618C150.124 209.969 147.225 209.032 145.04 208.138C144.045 207.731 144.483 206.096 145.489 206.508C147.152 207.188 149.582 208.191 151.337 207.241C153.089 206.293 153.168 203.687 153.181 201.966C153.189 200.877 154.879 200.878 154.871 201.966C154.853 204.307 154.54 207.267 152.331 208.618M148.245 261.13C146.018 259.988 144.117 258.427 142.587 256.445C141.923 255.583 143.391 254.742 144.047 255.591C145.393 257.336 147.147 258.67 149.098 259.67C150.067 260.167 149.211 261.626 148.245 261.13M137.539 202.121C133.717 217.442 131.152 233.037 129.895 248.778C129.639 251.974 129.46 255.165 129.358 258.359C129.257 259.192 129.16 260.026 129.069 260.861C128.725 264.019 128.461 267.227 128.484 270.406C128.494 271.833 128.539 273.253 128.636 274.675C128.467 274.199 128.311 273.722 128.158 273.246C127.848 272.272 127.643 271.262 127.326 270.294C127.064 269.493 126.726 268.726 126.411 267.95V267.948C126.506 264.771 126.291 261.565 126.181 258.403C126.039 254.307 125.864 250.216 125.773 246.118C125.592 237.921 125.682 229.719 125.978 221.527C126.572 205.02 128.072 188.592 129.585 172.153C130.005 167.582 130.457 163.012 130.77 158.432C131.085 153.804 131.211 149.167 131.247 144.526C131.249 144.192 130.742 144.103 130.649 144.426C130.567 143.325 130.421 142.226 130.178 141.163C133.823 143.488 137.665 145.498 141.432 147.611C143.416 148.725 145.392 149.858 147.437 150.856C148.561 151.405 149.695 151.91 150.853 152.388C152.053 152.882 153.2 153.563 154.52 153.218C154.635 153.189 154.742 153.147 154.846 153.092C154.696 153.377 154.546 153.66 154.402 153.948C153.904 154.939 153.428 155.934 152.968 156.938C152.845 157.029 152.737 157.154 152.653 157.317C152.429 157.754 152.211 158.196 152 158.644C151.958 158.604 151.916 158.564 151.873 158.523C151.696 158.356 151.451 158.608 151.607 158.79C151.679 158.872 151.749 158.952 151.818 159.035C150.441 162 149.321 165.118 148.168 168.161C146.75 171.902 145.406 175.67 144.141 179.464C141.646 186.927 139.444 194.487 137.539 202.121M82.8986 257.722C75.8547 261.495 69.2725 266.005 62.9416 270.869C62.0786 271.532 61.2378 270.063 62.0885 269.409C68.4194 264.545 75.0018 260.035 82.0457 256.261C83.0053 255.748 83.858 257.208 82.8986 257.722M59.1078 213.525C58.7416 213.497 58.3859 213.285 58.2929 212.904C57.7223 210.567 57.2754 208.021 57.8061 205.637C58.0428 204.574 59.6718 205.026 59.4359 206.087C59.0173 207.966 59.3499 209.998 59.7844 211.873C65.9279 212.142 71.989 209.936 77.8666 208.455C78.9236 208.189 79.37 209.82 78.316 210.086C72.0811 211.656 65.6319 214.008 59.1078 213.525M181.411 275.865C181.417 275.85 181.423 275.833 181.427 275.819C181.789 274.724 181.797 273.451 181.837 272.304C181.907 270.262 181.833 268.216 181.649 266.181C181.261 261.897 180.424 257.683 179.425 253.504C177.445 245.228 174.648 237.175 173.129 228.787C170.148 212.321 170.856 195.176 165.006 179.293C162.574 172.69 159.101 166.343 154.381 161.098C154.725 160.049 155.061 158.999 155.389 157.944C155.961 156.11 156.546 154.216 156.899 152.327C156.908 152.276 156.918 152.223 156.925 152.17C158.934 151.304 160.761 149.67 161.074 147.497C161.209 146.559 161.053 145.519 160.647 144.612C161.475 143.847 162.008 142.854 161.881 141.522C161.644 139.016 158.718 138.371 156.682 137.881C154.366 137.325 151.964 137.171 149.596 137.433C148.4 137.564 147.217 137.784 146.061 138.113C145.058 138.399 143.966 138.692 143.161 139.381C143.066 139.462 143.144 139.618 143.258 139.618C144.887 139.612 146.509 139.014 148.155 138.935C149.879 138.855 151.599 138.997 153.289 139.352C154.941 139.698 156.589 140.206 158.091 140.99C158.513 141.212 159.132 141.362 158.636 141.81C158.273 142.137 157.558 142.165 157.092 142.214C156.058 142.321 155.167 142.926 155.036 144.029C154.92 145.003 155.501 146.107 156.536 146.326C156.593 146.339 156.646 146.354 156.692 146.373C156.72 146.426 156.762 146.47 156.758 146.398C156.758 146.398 156.76 146.396 156.76 146.398C156.785 146.553 156.794 146.614 156.794 146.624C156.787 146.612 156.777 146.559 156.768 146.517C156.775 146.555 156.787 146.616 156.804 146.707C156.781 146.607 156.8 146.851 156.781 146.889C156.232 147.903 154.607 148.189 153.661 148.626C153.477 148.71 153.318 148.81 153.183 148.922C152.959 148.844 152.731 148.765 152.501 148.679C151.366 148.254 150.234 147.842 149.085 147.459C146.866 146.717 144.62 146.056 142.402 145.312C138.202 143.904 134.142 142.127 130.02 140.516C129.889 140.03 129.737 139.555 129.557 139.092C129.521 138.995 129.348 138.963 129.329 139.092C129.265 139.502 129.215 139.914 129.173 140.328C129.156 140.366 129.151 140.409 129.16 140.449C128.921 142.858 128.985 145.325 128.862 147.732C128.71 150.733 128.285 153.713 128.165 156.716V156.771C127.721 159.335 127.32 161.907 126.956 164.488C126.549 164.361 126.082 164.386 125.604 164.642C122.228 166.445 118.434 167.449 114.616 167.673C112.694 167.785 110.79 167.722 108.878 167.499C107.621 167.356 106.383 167.094 105.143 166.844C105.796 164.107 106.497 161.383 107.289 158.686C107.942 156.469 108.669 154.263 109.567 152.13C110.473 149.976 111.601 147.92 112.651 145.832C113.135 144.866 112.565 143.389 111.308 143.49C110.936 143.52 110.564 143.543 110.19 143.56C106.552 143.733 102.768 143.328 99.1768 142.966C95.0887 142.552 90.9458 142.122 86.8937 141.448C86.5937 141.4 86.4711 141.808 86.7669 141.907C88.6894 142.554 90.5887 143.285 92.5599 143.769C94.588 144.27 96.6289 144.726 98.6866 145.084C100.658 145.424 102.637 145.709 104.623 145.95C105.918 146.109 107.228 146.189 108.532 146.295C106.776 149.101 105.566 152.267 104.511 155.385C103.157 159.388 102.162 163.507 101.188 167.618C99.1049 176.429 97.3873 185.329 96.0437 194.284C95.0803 200.705 94.3007 207.151 93.7155 213.614C93.5423 211.651 93.331 209.693 93.0923 207.738C92.2937 201.248 91.1275 194.8 89.5683 188.448C89.7078 188.203 89.7732 187.91 89.7268 187.624C89.4458 185.878 88.7063 184.359 88.0578 182.74C87.4134 180.478 86.7183 178.232 85.9704 176.002C85.1211 172.965 84.1683 169.974 82.9493 167.054C82.0176 164.828 80.9549 162.659 79.7718 160.557C78.3585 157.617 76.8056 154.74 75.1007 151.991C75.012 151.735 74.8683 151.496 74.6634 151.295C74.3528 150.805 74.038 150.321 73.7169 149.841C73.5078 149.528 72.9078 149.719 73.0662 150.116C73.1401 150.302 73.2141 150.488 73.2901 150.672C66.3458 148.934 59.5366 151.591 52.9218 153.552C51.2528 154.049 49.5669 154.497 47.8556 154.821C46.5099 155.074 44.9423 155.383 43.6007 155.104C42.7028 154.918 42.3056 154.51 42.743 153.55C43.1951 152.557 44.4289 151.904 45.5 151.465C45.9035 151.378 46.3007 151.223 46.6831 150.991C47.5747 150.45 47.9655 149.321 47.5451 148.36C47.1627 147.491 46.0472 146.743 45.0606 147.14C44.919 147.197 44.7796 147.252 44.6401 147.307C44.6254 147.286 44.6085 147.256 44.5937 147.214C44.4521 146.827 44.3909 147.29 44.4521 146.736C44.5535 145.832 45.5106 145.01 46.1655 144.492C47.7944 143.201 50.1479 142.245 52.25 142.733C52.4085 142.769 52.5669 142.814 52.7232 142.869C54.8887 143.619 55.943 140.499 54.2127 139.337C54.107 139.267 53.9739 139.179 53.8282 139.075C53.1078 138.574 52.0535 137.731 52.3409 136.97C52.6958 136.025 54.7894 135.482 55.5817 135.161C58.4465 133.998 61.5416 133.339 64.6303 133.204C67.738 133.068 70.8859 133.411 73.8838 134.25C75.3542 134.66 76.8648 135.283 78.2549 135.913C79.5035 136.477 82.2204 137.224 82.3937 138.804C82.4317 139.153 82.9282 139.272 83.0359 138.891C83.8873 135.856 80.5831 133.897 78.4028 132.644C76.9725 131.819 75.35 131.306 73.7803 130.801C72.2761 130.314 70.7402 129.957 69.1725 129.742C65.8071 129.281 62.4014 129.34 59.0634 129.987C56.0232 130.577 52.6409 131.583 50.1838 133.54C48.6754 134.74 47.993 136.651 48.5993 138.515C48.6204 138.576 48.6416 138.64 48.6627 138.701C45.9479 139.187 43.3789 140.743 41.6613 142.911C40.25 144.693 39.5106 147.172 40.7739 149.245C40.7211 149.283 40.6683 149.323 40.6176 149.366C39.4134 150.329 38.5176 151.729 38.2514 153.259C37.7296 156.277 39.5528 158.388 42.1028 159.195C41.4711 159.813 40.8648 160.468 40.2711 161.123C38.9423 162.592 37.6725 164.192 36.5528 165.823C34.2838 169.129 32.3444 172.728 30.6479 176.355C27.1599 183.803 24.9606 191.82 23.7944 199.948C23.207 204.044 22.8141 208.161 22.6641 212.295C22.4908 217.008 22.6662 221.723 22.5754 226.439C22.4866 230.97 21.9859 235.391 20.9739 239.809C20.0042 244.034 18.7113 248.174 17.5408 252.344C16.2204 257.04 14.7669 261.715 14.0697 266.557C13.7169 269.021 13.4634 271.492 13.6599 273.984C13.8585 276.522 14.7796 278.693 15.6289 281.054C15.8444 281.656 16.5014 281.899 17.0275 281.77C17.1458 282.901 17.5725 284.004 18.2085 284.959C19.5585 286.984 21.6373 288.276 24.0183 288.745C26.7014 289.271 29.4669 289.146 32.1838 289.049C35.131 288.943 38.0803 288.848 41.0275 288.726C44.113 288.598 47.1984 288.467 50.2839 288.336C50.1819 285.172 50.0602 282.009 49.9227 278.847C49.1788 261.752 48.0073 244.647 47.9763 227.53C47.9165 227.495 47.8578 227.453 47.8016 227.399C46.4125 226.056 44.7071 225.173 43.1049 224.122C42.1981 223.527 43.0457 222.064 43.958 222.662C45.3088 223.548 46.7165 224.336 47.9824 225.329C47.9898 223.547 48.0054 221.766 48.0407 219.983C48.0623 218.895 49.7524 218.895 49.7309 219.983C49.6248 225.354 49.6603 230.726 49.7818 236.096C50.1749 253.498 51.4108 270.868 51.9737 288.263C60.2554 287.909 68.5375 287.553 76.8204 287.25C83.5578 287.005 90.2951 286.76 97.0324 286.515C98.4458 286.465 99.2401 285.454 99.4134 284.133C99.7303 281.702 99.1345 279.19 97.7866 277.146C97.6472 276.935 97.4824 276.746 97.2986 276.586C97.3303 275.13 97.3894 273.671 97.3071 272.215C97.1845 269.992 97.0007 267.768 96.8402 265.547C96.5148 261.098 96.2634 256.641 96.1641 252.181C95.9613 243.262 96.1092 234.335 96.6141 225.428C97.6261 207.635 99.9817 189.955 103.837 172.551C104.118 171.283 104.401 170.015 104.695 168.749C107.693 170.306 111.339 170.866 114.616 170.887C118.723 170.913 122.739 169.968 126.449 168.25C126.424 168.442 126.399 168.632 126.375 168.825C125.34 177.067 124.468 185.327 123.707 193.597C122.19 210.084 121.261 226.639 121.389 243.201C121.425 247.789 121.601 252.363 121.818 256.945C122.04 261.605 122.38 266.53 123.677 271.025C123.821 271.522 124.14 271.807 124.508 271.911C124.527 272.566 124.569 273.223 124.615 273.87C124.765 275.973 125.194 280.341 126.111 282.248C127.005 284.108 128.494 285.583 130.394 286.395C132.806 287.424 135.415 287.128 137.963 286.963C149.042 286.24 160.113 285.272 171.185 284.423C172.727 284.304 174.27 284.188 175.81 284.068C177.181 283.962 178.599 283.869 179.816 283.157C181.199 282.347 182.279 278.372 181.801 276.727C181.715 276.427 181.584 276.131 181.411 275.865" fill="black"/>
<path fill-rule="evenodd" clip-rule="evenodd" d="M146.838 97.8958C146.754 93.1611 146.661 88.3318 145.959 83.6432C145.273 79.0594 143.384 74.9161 140.139 71.5875C133.247 64.5172 123.256 62.7903 113.956 61.2077L98.0563 58.5018C93.2055 57.6765 88.0304 56.3572 83.1295 57.5277C80.7145 58.1044 78.6636 59.4444 76.7892 61.0297C74.9825 62.5578 73.0399 64.1987 71.8157 66.2545C70.5893 68.3133 70.1675 70.7199 69.7688 73.0484C69.3191 75.6736 68.9698 78.3192 68.7217 80.9713C68.2243 86.2846 68.1565 91.6379 68.5172 96.9622C68.6919 99.5447 68.97 102.12 69.325 104.684C69.5011 105.955 69.7001 107.223 69.9248 108.487C69.991 108.859 70.0414 109.272 70.1093 109.688C69.6078 111.118 69.3227 112.599 69.3457 114.074C69.4134 118.418 73.0705 121.152 76.7574 122.621C78.8951 123.472 81.13 124.05 83.2304 125.001C85.4401 126.002 86.9441 127.623 88.4548 129.473C91.3361 133.002 94.5876 136.173 98.3004 138.818C106.172 144.428 116.142 147.081 125.693 145.067C127.985 144.584 130.297 143.834 132.357 142.703C134.532 141.51 136.167 139.78 137.54 137.736C140.09 133.939 141.919 129.665 143.302 125.315C144.713 120.878 145.715 116.433 146.261 111.806C146.805 107.195 146.92 102.536 146.838 97.8958V97.8958Z" fill="#FDC6A0"/>
<path fill-rule="evenodd" clip-rule="evenodd" d="M96.0995 42.0088C102.679 41.1014 111.761 44.0504 115.038 49.9965C130.682 46.2992 150.413 46.1781 163.307 58.4865C176.762 73.087 159.862 92.3378 148.657 96.6781C149.472 100.653 148.2 126.118 139.199 137.476C132.056 147.1 115.421 151.542 107.723 140.047L107.663 139.952C106.838 138.624 107.548 138.667 108.395 139.654C115.933 146.3 126.181 146.413 134.079 139.4C148.88 126.582 147.354 95.1517 140.311 76.9691C120.256 74.7609 98.7825 80.8547 84.9304 95.9893L85.8671 101.643C86.0267 102.606 86.208 103.568 86.3463 104.534C86.4348 105.154 86.4447 105.77 86.0168 106.271C84.6036 107.926 82.222 105.439 80.2624 104.45C79.6839 104.368 79.1044 104.337 78.536 104.377C69.1211 105.593 70.9761 123.902 81.3237 120.693C82.1931 120.15 82.94 120.315 83.2774 121.103C85.7438 123.368 87.37 127.407 91.4678 131.298C92.9136 132.757 94.2293 133.978 95.8556 135.149C96.8109 136.117 99.6932 137.105 98.7795 138.762C97.0516 142.533 86.8624 130.688 85.0609 127.412C79.4166 129.646 73.1615 128.887 67.3122 128.341C36.4542 126.733 40.5737 94.1237 65.8673 73.5359C70.6285 70.022 75.8815 67.1554 81.342 64.9496C82.0875 64.6484 81.7618 63.4213 81.0058 63.7267C77.3927 65.1865 73.8705 66.924 70.5129 68.935L70.5079 67.7327C70.5029 65.7077 70.5346 63.5995 70.8855 61.7493C71.0609 60.4673 71.3558 59.0979 71.8099 58.0678C72.3713 54.9096 81.1658 44.069 96.0995 42.0088ZM78.1242 108.58C78.6006 108.127 79.4901 108.668 79.9142 108.654C80.9989 108.803 82.0294 109.262 82.8331 109.829C83.3637 110.127 83.7356 110.407 84.0464 110.664L84.0548 110.662C84.0525 110.662 84.0495 110.664 84.047 110.665L84.0762 110.685C84.5287 111.007 86.1851 112.822 85.1386 112.334C85.0606 112.233 84.9807 112.135 84.9002 112.039C84.8915 112.052 84.8795 112.065 84.8652 112.078L84.924 112.165C85.8134 113.506 84.2778 112.093 84.0415 111.718C84.0303 111.727 84.0177 111.733 84.0052 111.74L84.3129 112.115C84.3559 112.168 84.3898 112.211 84.4178 112.247L84.4827 112.31C85.5111 113.323 85.5432 114.235 84.3485 112.737C84.3955 112.807 84.4332 112.882 84.4385 112.949L84.5093 113.039C85.4474 114.251 84.6844 113.821 84.2182 113.303L84.1792 113.258L84.1872 113.271C84.6208 113.94 83.7604 113.47 83.6084 113.112L83.6019 113.096C83.4363 112.96 83.3343 112.808 83.2993 112.77L83.2929 112.763C82.4863 111.935 81.3171 111.234 80.3239 110.915C80.1799 110.888 80.0342 110.866 79.8871 110.85C79.2898 110.717 78.686 110.625 78.0759 110.576C78.0012 110.567 77.9256 110.512 77.8691 110.441C76.9465 110.41 77.2313 110.031 77.614 109.96L77.6207 109.959L77.5448 109.953C76.9527 109.895 76.5484 109.682 77.147 109.551L77.2229 109.536C77.2136 109.521 77.2054 109.507 77.1974 109.492C76.6847 109.436 77.0192 108.936 77.3038 109.057C77.1841 108.665 77.7314 108.86 77.7997 108.802C77.8518 108.744 77.9165 108.693 77.9538 108.69C78.1187 108.574 78.0388 108.584 78.1242 108.58ZM81.2613 102.226L81.1411 102.296C81.0439 102.353 80.944 102.391 80.8436 102.413C80.9853 102.474 81.1253 102.539 81.2638 102.609C81.2616 102.524 81.26 102.438 81.26 102.353L81.2613 102.226Z" fill="black"/>
<path fill-rule="evenodd" clip-rule="evenodd" d="M123.152 128.274C121.732 127.695 120.465 126.728 119.538 125.493C119.216 125.063 119.133 124.61 119.2 124.195C119.276 123.729 119.552 123.306 119.928 123.023C120.305 122.739 120.777 122.598 121.233 122.67C121.63 122.732 122.024 122.949 122.337 123.399L122.402 123.489C122.953 124.235 123.67 124.846 124.488 125.241C125.276 125.621 126.158 125.798 127.07 125.695C128.808 125.499 130.005 124.559 131.278 123.282C131.436 123.121 131.594 122.955 131.752 122.786C131.852 122.633 131.991 122.534 132.146 122.483C132.317 122.425 132.511 122.429 132.689 122.491C132.86 122.55 133.013 122.664 133.116 122.815C133.213 122.958 133.269 123.135 133.251 123.339C133.134 124.661 132.443 125.842 131.461 126.769C130.37 127.799 128.924 128.511 127.563 128.761C126.064 129.036 124.536 128.839 123.152 128.274V128.274ZM128.271 107.866C129.866 108.836 132.297 111.098 130.581 113.503C128.56 115.624 125.652 113.193 124.219 112.093C122.89 111.241 121.396 113.433 122.629 114.428C132.987 122.099 137.19 108.12 129.078 106.726C128.184 106.572 127.853 107.566 128.271 107.866ZM109.711 98.9429C109.887 96.7541 113.219 96.257 113.551 98.423C113.847 100.363 113.498 102.145 112.624 103.892C111.79 105.561 109.692 104.783 109.533 103.263C109.32 101.226 109.601 100.304 109.711 98.9429ZM135.076 97.9739C135.541 97.3652 136.212 96.9497 137.015 97.1845C139.526 97.9185 138.786 101.485 137.904 103.22C137.425 104.163 135.876 104.402 135.176 103.572C134.036 102.219 133.489 99.5157 134.94 98.1825C134.979 98.1136 135.023 98.044 135.076 97.9739ZM112.589 89.3654L112.986 89.2959C114.213 89.0836 115.738 88.8796 116.606 89.8665C117.067 90.3898 117.225 91.3624 116.606 91.8633C115.518 92.7446 114.314 92.4031 113.01 92.4777C111.935 92.5394 110.902 92.7174 109.867 93.0135C107.595 93.6629 105.744 94.8486 103.804 96.1505C103.55 96.3213 103.29 95.9956 103.411 95.7574C104.531 93.563 106.701 91.7604 108.875 90.6616C110.036 90.0751 111.305 89.5885 112.589 89.3654ZM132.787 88.3823L133.091 88.4445C136.395 89.1353 140.687 90.5153 142.251 93.7615C142.311 94.2205 142.248 94.3189 142.197 94.3832L142.18 94.4046C142.137 94.4595 142.104 94.5351 141.905 94.5976C141.85 94.5844 141.794 94.5705 141.737 94.5557C141.02 94.3677 140.453 94.1087 139.904 93.84L139.308 93.5465C138.617 93.2076 137.92 92.881 137.181 92.6399C135.605 92.1255 133.983 91.7631 132.337 91.5696C131.98 91.5277 131.636 91.4072 131.365 91.2006C131.108 91.0046 130.911 90.7332 130.821 90.3724C130.705 89.9056 130.739 89.5521 130.989 89.1309C131.177 88.8146 131.447 88.5953 131.756 88.4694C132.071 88.3411 132.43 88.3108 132.787 88.3823Z" fill="black"/>
<path fill-rule="evenodd" clip-rule="evenodd" d="M149.071 112.228C148.371 111.288 147.112 110.054 145.839 110.12C145.676 110.128 145.615 110.305 145.713 110.424C146.13 110.933 146.699 111.295 147.116 111.814C147.61 112.429 147.966 113.17 148.198 113.92C148.534 115.009 148.627 116.241 148.327 117.349C147.798 119.301 146.126 120.732 144.301 121.462C142.494 122.185 140.321 122.433 138.613 121.373C136.091 119.808 133.952 117.553 130.783 117.509C130.042 117.498 129.519 117.838 129.208 118.323C128.895 117.855 128.38 117.525 127.657 117.516C124.104 117.476 121.452 119.923 118.47 121.449C116.455 122.479 113.847 122.159 111.768 121.478C109.807 120.836 107.678 119.546 106.938 117.509C106.53 116.385 106.621 115.071 107.04 113.962C107.316 113.233 107.742 112.529 108.269 111.956C108.815 111.362 109.533 110.988 110.092 110.424C110.206 110.309 110.116 110.13 109.966 110.12C107.59 109.959 105.445 112.797 104.996 114.856C104.554 116.883 105.213 118.906 106.546 120.453C109.258 123.599 114.278 124.636 118.185 123.712C121.347 122.964 124.351 121.241 127.657 121.488C128.381 121.543 128.902 121.24 129.216 120.782C129.53 121.254 130.053 121.562 130.783 121.491C133.864 121.193 136.614 123.376 139.605 123.909C141.986 124.333 144.558 123.761 146.599 122.477C148.732 121.136 150.233 118.984 150.332 116.419C150.389 114.943 149.956 113.416 149.071 112.228" fill="black"/>
</g>
<defs>
<clipPath id="clip0_2016_14089">
<rect width="200" height="267" fill="white"/>
</clipPath>
</defs>
</svg>
