<svg width="200" height="267" viewBox="0 0 200 267" fill="none" xmlns="http://www.w3.org/2000/svg">
<g clip-path="url(#clip0_2016_14086)">
<rect width="200" height="267" fill="white"/>
<path fill-rule="evenodd" clip-rule="evenodd" d="M27.464 285.957C55.0651 290.151 83.1668 290.362 110.997 288.839C122.011 288.014 133.059 287.865 144.065 288.92C150.568 289.404 179.081 291.584 181.41 285.757C179.944 254.73 176.974 223.438 167.865 193.598C164.118 183.002 160.9 174.208 153.588 165.44C151.284 163.046 146.314 158.025 143.466 156.388C140.999 154.969 139.968 155.475 138.551 153.079C137.144 150.433 136.105 146.013 134.107 144.145C132.071 142.243 129.055 142.924 125.317 143.536C126.004 134.251 121.72 131.887 115.818 130.121C105.443 126.16 95.1977 128.15 92.5866 140.784C87.7452 140.784 85.0257 142.868 82.0857 144.871C80.8838 145.69 81.7199 147.775 80.2844 148.419C77.6284 149.365 72.9349 149.133 70.3776 150.297C58.7487 155.592 48.3912 163.269 41.5892 174.481C26.3399 198.42 15.8647 248.848 17.6774 277.221C16.8832 278.466 17.9815 280.253 18.2606 281.593C18.613 282.758 19.754 283.533 20.9449 283.401C22.6067 285.189 25.1771 285.587 27.464 285.957Z" fill="#FDC6A0"/>
<path fill-rule="evenodd" clip-rule="evenodd" d="M84.8866 142.681C86.5873 140.906 89.2539 139.847 91.7791 139.906L91.8974 139.91L92.7547 139.948L92.1819 142.76L92.153 142.893L92.0362 143.381L91.8806 144.02L91.8252 144.255L91.7669 144.515C91.7577 144.557 91.7487 144.599 91.7399 144.641L91.7143 144.764L91.4701 145.958L91.5157 146.064L91.5025 146.336C91.4647 147.317 91.676 147.856 92.1415 148.029L92.1788 148.042L92.4444 148.127L92.6611 148.598C93.1598 149.674 93.625 150.613 94.1026 151.498C95.4956 154.08 97.1575 156.66 99.0737 159.253C100.894 161.717 102.791 164.069 104.763 166.302C105.649 167.306 106.586 168.315 107.583 169.341L108.441 170.22L108.714 170.496L108.897 170.68L109.126 170.904L109.456 171.218L109.695 171.454L109.773 171.528C109.87 171.618 109.946 171.68 110.014 171.723L110.039 171.739L110.114 171.784L114.092 175.969L115.497 176.742L116.165 177.112L116.3 176.843L116.327 176.756L117.806 173.508L118.709 171.519C120.562 167.426 122.004 164.17 123.322 161.069L123.486 160.683L123.972 159.529L124.229 158.914C125.408 156.089 126.279 153.908 127.058 151.79L127.168 151.488L127.332 151.035L127.576 150.353L127.62 150.236C127.832 149.694 127.312 147.725 126.8 146.646L126.771 146.585L126.638 146.318L126.494 146.036C126.155 145.375 125.91 144.641 125.704 143.753C125.671 143.61 125.639 143.465 125.61 143.319L125.567 143.099L125.54 142.955L125.502 142.753L125.447 142.463L126.593 142.272L127.222 142.169L127.496 142.126C127.851 142.071 128.167 142.026 128.465 141.988L128.575 141.974L128.775 141.951L128.782 141.99L129.19 142.031L129.494 142.062C130.989 142.22 132.142 142.394 132.961 142.588L133.042 142.607L133.188 142.644L133.255 142.662C134 142.862 134.574 143.296 135.028 143.935C135.34 144.373 135.542 144.793 135.862 145.589L135.976 145.876L136.357 146.818C136.402 146.933 136.471 147.116 136.564 147.368L136.887 148.248L138.507 152.723L140.165 153.595C140.935 153.999 141.499 154.289 141.777 154.427L141.876 154.475L141.946 154.507L142.518 154.734L142.456 154.912L142.525 154.952C149.35 158.879 154.613 164.92 158.71 172.941L158.834 173.184L158.961 173.437C162.226 179.97 164.566 187.261 166.85 196.994L166.991 197.599L167.103 198.081L167.698 200.678C169.936 210.485 171.474 217.799 172.746 224.974L172.829 225.442L173.041 226.661C174.639 235.949 175.977 245.153 177.048 254.267L177.225 255.801C177.672 259.717 178.076 263.765 178.514 268.626L178.572 269.279L178.765 271.462C178.97 273.815 179.158 276.163 179.328 278.506L179.411 279.677L179.583 282.223L179.683 283.674L179.695 283.871L179.736 284.627L179.748 284.804C179.763 285.032 179.78 285.223 179.802 285.401L179.82 285.531L179.839 285.658C179.896 286.005 180.007 286.315 180.192 286.662L180.24 286.749L180.557 287.316L179.982 287.619C176.984 289.199 171.082 289.894 162.986 289.93L162.74 289.931H162.234C158.3 289.929 154.13 289.777 149.779 289.518L148.795 289.458L147.974 289.405C147.62 289.382 147.276 289.359 146.919 289.334L146.371 289.296L144.084 289.128C133.793 288.142 123.002 288.159 111.111 289.049C80.1108 290.745 53.3531 290.03 28.2035 286.275L27.4419 286.16L26.8807 286.068L26.5459 286.012C23.8783 285.557 22.2032 284.973 20.8962 283.747L20.8277 283.682L20.7707 283.627L20.7459 283.627C19.4299 283.621 18.2251 282.76 17.7781 281.49L17.7549 281.422L17.7254 281.327L17.705 281.232C17.6842 281.141 17.6582 281.043 17.6266 280.935L17.6018 280.852L17.394 280.171L18.094 280.043C18.1543 280.032 18.217 279.99 18.2778 279.902L18.3361 279.819L18.4371 279.679L18.6809 279.344C18.9406 278.98 19.0683 278.751 19.1316 278.522C19.1877 278.318 19.2086 278.058 19.2026 277.695L19.1979 277.518L19.1703 276.875C19.1685 276.824 19.1672 276.779 19.1665 276.735L19.1656 276.671L19.1651 275.766L19.1674 274.772C19.169 274.339 19.1714 273.916 19.1748 273.5L19.1804 272.883L19.186 272.385C19.2198 269.632 19.3005 266.881 19.4284 264.134C19.6783 258.772 20.107 253.417 20.7135 248.083C21.9658 237.07 23.8839 226.39 26.4932 216.068L26.7553 215.037C29.5767 204.007 32.2969 195.503 35.7543 187.639C40.1517 177.637 45.5134 169.405 52.2644 162.825C55.9761 159.206 60.0866 156.152 64.4549 153.81C66.4639 152.733 68.599 151.777 70.8887 150.917L71.2169 150.794L71.7465 150.601L72.1529 150.451L73.4622 149.961C73.7374 149.858 74.037 149.743 74.3911 149.603L74.6104 149.517L76.9551 148.581L77.3444 148.428L77.7774 148.259L78.0956 148.137C78.6159 147.939 79.087 147.766 79.5244 147.613L79.7829 147.524L80.0175 147.445L81.0182 147.098L80.9987 148.009C80.9857 148.614 81.1416 149.072 81.4879 149.401L81.4995 149.411L81.5115 149.421L81.5222 149.428L81.5827 149.426L81.8192 149.425C81.8436 149.411 81.8666 149.396 81.888 149.378C82.2245 149.092 82.381 148.708 82.5329 147.829L82.5731 147.584L82.6432 147.126L82.6712 146.953C82.7724 146.342 82.8605 146.005 83.032 145.62C83.2797 145.063 83.6073 144.52 83.9928 144.022L84.0828 143.907L84.4428 143.474L84.498 143.406C84.6241 143.244 84.6889 143.13 84.7159 143.025L84.7224 142.997L84.7583 142.815L84.8866 142.681Z" fill="#FFCF77"/>
<path fill-rule="evenodd" clip-rule="evenodd" d="M141.709 155.686C141.54 155.591 141.689 155.349 141.859 155.429C150.045 159.271 156.324 166.01 160.743 173.798C165.318 181.861 167.925 191.016 170.174 199.964L170.255 200.287C172.652 209.859 174.69 219.53 176.525 229.225C178.384 239.042 179.876 248.92 181.076 258.839C181.669 263.744 182.198 268.657 182.611 273.58C182.817 276.04 183.005 278.502 183.173 280.965C183.241 281.95 183.304 282.935 183.358 283.921L183.397 284.661C183.431 285.332 183.51 286.004 183.345 286.666C183.202 287.236 182.9 287.753 182.634 288.277C182.109 289.312 180.669 289.141 180.103 288.277L179.939 288.025C179.564 287.444 179.252 286.905 179.134 286.183C179.02 285.484 179.016 284.751 178.965 284.044C178.871 282.745 178.791 281.444 178.699 280.144C178.508 277.407 178.293 274.673 178.054 271.94C177.583 266.545 177.077 261.155 176.456 255.775C175.353 246.213 173.969 236.677 172.337 227.192C170.742 217.926 168.726 208.754 166.623 199.593L166.405 198.645C162.723 182.652 157.048 164.233 141.709 155.686ZM54.5216 218.314C54.5818 218.154 54.8408 218.117 54.8845 218.314C55.4359 220.797 55.4904 223.355 55.5747 225.898C55.6578 228.406 55.6544 230.926 55.6178 233.436C55.483 242.66 55.2299 251.876 55.0111 261.098C54.9016 265.711 54.799 270.325 54.7202 274.939C54.6904 276.669 54.6653 278.4 54.6445 280.13L54.619 282.413C54.6064 283.422 54.5799 284.418 54.4569 285.427C54.3758 286.09 54.203 286.722 53.8371 287.29C53.5774 287.694 53.2073 287.898 52.8465 288.173L52.779 288.225C52.3189 288.589 51.8342 288.591 51.3785 288.225L51.2462 288.12C50.8109 287.78 50.4347 287.513 50.1568 286.975C49.7702 286.226 49.7083 285.413 49.6425 284.587C49.5428 283.336 49.609 282.067 49.6218 280.812C49.6476 278.295 49.6825 275.778 49.7266 273.261C49.8887 264.031 50.209 254.8 50.7927 245.586C51.0677 241.246 51.4406 236.893 51.9407 232.57L52.036 231.76C52.1877 230.489 52.3261 229.194 52.482 227.896C50.1544 226.258 48.1085 224.271 46.3639 222.017C46.2354 221.851 46.4469 221.618 46.602 221.779C48.3847 223.625 50.4287 225.097 52.6916 226.255C53.0623 223.537 53.5721 220.833 54.5216 218.314ZM93.4059 136.038C93.4378 136.013 93.4877 136.002 93.5181 136.038C94.0184 136.621 93.9169 137.513 93.933 138.253L93.9349 138.322C93.9708 139.403 93.9776 140.48 93.974 141.562L93.9628 145.005V145.005C93.9613 145.479 93.9229 145.971 93.9472 146.448L93.9598 146.632V146.632C94.2227 146.901 94.3448 147.29 94.2556 147.681C94.2396 148.182 93.9776 148.601 93.5954 148.864L94.4145 150.026V150.026L95.2344 151.188C96.9243 153.586 98.6329 155.962 100.413 158.294C102.229 160.672 104.166 162.959 106.193 165.159C107.183 166.234 108.19 167.294 109.221 168.33C109.64 168.751 110.069 169.162 110.493 169.577L110.916 169.995C111.165 170.244 111.479 170.491 111.645 170.808C111.742 170.994 111.764 171.454 111.799 171.53C112.112 172.218 111.578 173.314 110.692 172.971L110.732 172.944C110.893 172.832 110.79 172.83 110.422 172.94C110.189 172.939 109.971 172.885 109.768 172.779L109.707 172.746C109.42 172.6 109.165 172.318 108.932 172.093L108.874 172.038C108.341 171.538 107.834 171.009 107.323 170.487C106.258 169.398 105.216 168.287 104.208 167.145C102.197 164.867 100.29 162.497 98.4846 160.053C96.6453 157.564 94.9357 154.947 93.4655 152.222C92.9075 151.188 92.396 150.135 91.9057 149.069C90.9512 148.762 90.7296 147.747 90.7961 146.603C90.4439 145.782 90.1266 144.945 89.939 144.089C89.9134 143.972 90.0641 143.861 90.1543 143.964C90.4596 144.311 90.7422 144.68 91.0139 145.059C91.1779 144.257 91.3853 143.519 91.4829 143.048L91.9061 140.971V140.971C89.5215 140.847 86.9086 141.827 85.2647 143.543C85.1764 143.989 84.8327 144.309 84.4976 144.727C84.1148 145.204 83.7808 145.74 83.5317 146.3C82.9792 147.542 83.291 149.372 82.2189 150.283C82.1071 150.378 81.9822 150.444 81.8534 150.485C82.3621 152.981 82.1312 155.731 82.1202 158.262L82.1198 158.485C82.1223 161.319 82.0277 164.155 81.9182 166.986L81.8069 169.788C81.6626 173.525 81.5689 177.264 81.932 180.98C83.5893 179.512 85.3032 178.11 87.0759 176.775C88.2415 175.897 89.4305 175.05 90.6411 174.235L91.6248 173.578C92.8035 172.787 94.0108 171.974 95.3014 171.407C96.9894 170.667 98.5946 170.921 100.224 171.681C101.847 172.437 103.422 173.316 105.014 174.136C106.633 174.969 108.255 175.796 109.877 176.624C110.951 177.174 112.525 177.669 113.313 178.68C113.363 178.456 113.422 178.233 113.49 178.011C113.412 177.672 113.442 177.306 113.632 176.957C116.279 172.091 118.728 167.109 121.161 162.133C122.392 159.615 123.562 157.067 124.795 154.55L125.994 152.099C126.195 151.691 126.396 151.283 126.598 150.875C126.9 150.265 127.215 149.661 127.521 149.053C127.65 148.796 127.813 148.54 127.938 148.281L127.998 148.151C128.001 148.144 128.291 147.23 128.067 147.317L128.048 147.326C127.933 147.391 127.841 147.247 127.916 147.155C128.233 146.763 128.675 147.11 128.856 147.474C129.355 148.474 128.441 150.043 128.089 151.001L128.07 151.054C126.979 154.144 125.743 157.176 124.477 160.197C122.05 165.989 119.443 171.693 116.841 177.406L116.81 177.505V177.505C117.365 177.079 117.957 176.693 118.464 176.317C119.744 175.369 121.061 174.467 122.376 173.569C124.787 171.92 127.264 170.381 129.782 168.902L130.286 168.607C131.544 167.874 132.79 167.28 134.282 167.5C135.669 167.705 136.959 168.45 138.212 169.055L138.341 169.117L142.213 170.959C141.799 169.308 141.351 167.665 140.883 166.028C139.971 162.835 138.968 159.669 137.88 156.531C136.864 153.599 135.765 150.7 134.603 147.823L134.253 146.96C133.78 145.775 133.308 144.484 131.954 144.119C130.601 143.755 129.049 144.295 127.812 143.524C127.7 143.453 127.714 143.268 127.85 143.234L128.613 143.041C130.046 142.685 131.726 142.326 133.081 142.673C134.555 143.051 135.775 144.289 136.491 145.576C137.286 147.007 137.847 148.609 138.45 150.136L138.546 150.376C139.239 152.104 139.905 153.842 140.543 155.591C141.817 159.086 142.978 162.624 144.028 166.194C144.535 167.914 145.015 169.643 145.476 171.376C145.609 171.874 145.828 172.478 146.008 173.109C146.213 173.309 146.408 173.533 146.591 173.789C146.894 174.213 146.676 174.71 146.299 174.964C146.285 175.398 146.189 175.806 145.958 176.155C145.059 177.52 142.683 177.169 142.779 175.333C142.794 175.052 142.903 174.784 143.069 174.558L143.064 174.521V174.521L143.046 174.454V174.454C142.633 174.256 142.219 174.035 141.782 173.82L137.719 171.811V171.811C136.542 171.229 135.238 170.33 133.929 170.109C132.709 169.902 131.422 170.811 130.374 171.36L130.306 171.395C127.772 172.695 125.256 174.037 122.751 175.391C121.528 176.052 120.321 176.74 119.102 177.409C118.083 177.968 116.984 178.771 115.839 179.086C115.35 179.467 114.769 179.416 114.302 179.128C114.515 180.45 114.502 181.807 114.568 183.158C114.656 184.965 114.669 186.777 114.698 188.586L114.71 189.265C114.787 193.265 114.828 197.266 114.843 201.267C114.898 215.513 114.74 229.764 114.703 244.011C114.685 251.169 114.543 258.333 114.357 265.488C114.278 268.52 114.114 271.549 113.936 274.576L113.838 276.227C113.63 279.711 113.508 283.234 112.863 286.671C112.779 287.119 112.021 287.131 111.946 286.671C111.353 282.988 111.32 279.224 111.206 275.498L111.182 274.753C111.045 270.753 110.98 266.754 110.994 262.751C111.044 248.499 111.415 234.255 111.718 220.007C111.87 212.848 111.972 205.686 112.209 198.529C112.327 194.949 112.461 191.37 112.62 187.791C112.691 186.192 112.759 184.596 112.865 183L112.913 182.316C112.946 181.87 112.973 181.429 113.005 180.993C111.564 181.519 110.245 180.544 108.949 179.877C107.454 179.108 105.96 178.337 104.465 177.57L102.969 176.804V176.804L99.9742 175.275C98.6259 174.587 97.5871 173.902 96.149 174.709C90.9681 177.617 86.2072 181.486 81.8927 185.546C81.0653 186.324 79.3171 186.115 79.1075 184.81C78.2123 179.236 78.7568 173.58 79.2138 167.989L79.3823 165.913C79.5865 163.434 79.8088 160.954 80.1051 158.485C80.2376 157.381 80.3696 156.277 80.5156 155.174L80.628 154.348C80.8105 153.041 80.9297 151.742 81.3189 150.488C81.1961 150.449 81.078 150.384 80.9724 150.283C79.8024 149.173 80.3665 147.246 80.9003 145.925C81.4274 144.621 82.2313 143.484 83.238 142.504C83.4575 142.29 83.767 142.153 84.078 142.145C86.5188 140.528 89.1964 139.72 91.9832 140.603C92.0615 140.229 92.1413 139.855 92.2254 139.482L92.3109 139.11C92.5277 138.185 92.6082 136.657 93.4059 136.038ZM118.421 282.127C119.179 281.919 120.008 282.138 120.563 282.694C121.118 283.249 121.337 284.078 121.129 284.836C121.024 285.209 120.836 285.533 120.563 285.808C120.308 286.061 120.01 286.242 119.671 286.35L119.591 286.374L119.468 286.425C119.088 286.527 118.708 286.527 118.329 286.425C117.966 286.323 117.651 286.14 117.383 285.874C117.118 285.607 116.934 285.292 116.832 284.928C116.73 284.549 116.73 284.169 116.832 283.789L116.884 283.665V283.665C116.988 283.292 117.177 282.968 117.45 282.694C117.724 282.421 118.048 282.232 118.421 282.127ZM163.394 206.625C163.518 206.482 163.72 206.665 163.642 206.817C162.463 209.13 161.148 211.428 159.855 213.682C159.959 214.307 160.062 214.927 160.18 215.532C160.683 218.107 161.3 220.636 161.702 223.236C163.147 232.582 163.897 242.029 164.541 251.459C165.187 260.922 165.269 270.39 165.366 279.872C165.375 280.693 164.743 281.648 163.896 281.803C163.508 281.874 163.218 281.86 162.831 281.803C161.95 281.674 161.399 280.664 161.361 279.872C161.109 274.572 160.769 269.28 160.375 263.988C159.677 254.608 159.25 245.203 158.686 235.813L158.488 232.531C158.275 228.974 158.08 225.416 158.016 221.854C157.974 219.495 158.1 217.136 158.023 214.779C157.951 212.603 157.73 210.237 158.21 208.1C158.228 208.02 158.354 207.999 158.391 208.076C158.889 209.126 159.205 210.267 159.449 211.432C160.734 209.807 162.042 208.177 163.394 206.625ZM79.2253 149.149C79.4057 149.135 79.3985 149.407 79.2253 149.427C76.7036 149.719 74.2676 150.746 71.8866 151.618L71.6826 151.693C69.2771 152.566 66.9318 153.581 64.6749 154.791C60.2621 157.158 56.21 160.209 52.6273 163.701C38.3234 177.645 31.8048 197.751 27.0282 216.646C24.3743 227.144 22.487 237.82 21.2638 248.577C20.6589 253.897 20.2313 259.238 19.982 264.586C19.8544 267.328 19.7739 270.071 19.7403 272.815C19.723 274.221 19.7179 275.627 19.7196 277.032C19.7205 277.676 19.8354 278.487 19.6632 279.113C19.5035 279.692 19.0531 280.202 18.7199 280.685C18.3251 281.258 17.6154 281.227 17.2151 280.685L17.0674 280.487C16.6404 279.921 16.2227 279.379 16.1617 278.639C16.0964 277.845 16.1425 277.026 16.1395 276.229C16.1327 274.623 16.1526 273.016 16.1847 271.41C16.2466 268.331 16.3679 265.254 16.5481 262.18C16.914 255.942 17.5163 249.717 18.3787 243.528C19.9117 232.527 22.2094 221.631 25.2191 210.94C28.0586 200.855 31.4224 190.799 36.2144 181.457C40.6637 172.783 46.5006 164.714 54.2025 158.652C57.7841 155.833 61.6831 153.484 65.8867 151.715C68.0068 150.822 70.2331 150.094 72.4972 149.679C74.7363 149.268 76.9656 149.325 79.2253 149.149ZM118.855 264.3C119.255 264.298 119.701 264.385 120.044 264.607L120.503 264.961V264.961C120.627 265.121 120.751 265.281 120.874 265.442C121.16 265.815 121.198 266.42 121.139 266.865C121.125 267.163 121.037 267.439 120.874 267.695L120.525 268.147V268.147C120.189 268.421 119.909 268.616 119.503 268.748C119.291 268.817 119.086 268.831 118.882 268.821L118.814 268.816L118.855 268.822L118.784 268.814V268.814C118.718 268.808 118.651 268.801 118.584 268.792C118.539 268.786 118.493 268.783 118.448 268.776C118.404 268.773 118.362 268.771 118.318 268.775C117.801 268.824 117.282 268.531 116.916 268.194C116.585 267.891 116.289 267.248 116.335 266.792L116.355 266.602C116.39 266.28 116.418 266.154 116.554 265.831C116.686 265.517 116.871 265.24 117.123 265.006C117.605 264.557 118.194 264.305 118.855 264.3ZM117.257 240.781C117.942 240.034 119.119 239.979 119.969 240.431C120.176 240.541 120.366 240.718 120.549 240.865C121.009 241.237 121.189 241.908 121.215 242.474C121.24 243.033 120.945 243.697 120.549 244.082L120.453 244.176V244.176C120.216 244.406 119.877 244.606 119.545 244.667C119.011 244.766 118.562 244.763 118.065 244.553C117.637 244.372 117.269 244.082 117.018 243.688L116.978 243.622C116.96 243.594 116.944 243.566 116.929 243.538L116.907 243.494C116.431 242.578 116.559 241.541 117.257 240.781ZM117.612 217.137C117.921 217.04 118.23 217.026 118.539 217.096C118.749 217.096 118.944 217.149 119.126 217.254C119.323 217.309 119.494 217.409 119.639 217.553C119.813 217.657 119.952 217.796 120.056 217.97C120.261 218.195 120.4 218.459 120.472 218.761L120.555 219.38L120.472 219.998L120.237 220.554V220.554C120.173 220.638 120.108 220.722 120.043 220.806C119.939 220.981 119.8 221.12 119.624 221.224C119.511 221.337 119.38 221.422 119.234 221.481C118.716 221.852 118.027 221.973 117.414 221.804C117.049 221.702 116.733 221.518 116.465 221.251C116.199 220.983 116.014 220.666 115.912 220.302L115.87 220.011C115.816 219.621 115.808 219.405 115.918 218.909C115.966 218.691 116.107 218.383 116.18 218.254C116.495 217.701 117.008 217.322 117.612 217.137ZM144.45 200.127C145.337 200.121 146.225 200.123 147.112 200.132L147.778 200.141C148.892 200.159 149.847 200.044 150.723 200.817C151.359 201.379 151.079 202.321 150.475 202.743C149.56 203.384 148.413 203.062 147.362 202.991C146.253 202.917 145.144 202.855 144.034 202.805C141.884 202.709 139.734 202.648 137.583 202.638C135.436 202.629 133.286 202.649 131.14 202.684C128.956 202.72 126.682 202.923 124.51 202.697C124.212 202.666 124.144 202.273 124.439 202.171C126.486 201.463 128.788 201.234 130.932 200.963C133.145 200.683 135.357 200.485 137.583 200.357C139.87 200.226 142.159 200.143 144.45 200.127ZM117.608 193.171L117.681 193.172C118.072 193.173 118.437 193.265 118.778 193.448L118.851 193.489L119.32 193.851C119.607 194.14 119.806 194.481 119.916 194.874L119.998 195.49V195.49C120.011 195.809 119.944 196.107 119.799 196.384C119.705 196.671 119.546 196.919 119.32 197.13C119.11 197.356 118.861 197.515 118.574 197.609C118.319 197.743 118.046 197.81 117.754 197.81L117.681 197.809C117.263 197.807 116.873 197.702 116.512 197.492L116.043 197.13V197.13C115.755 196.84 115.557 196.499 115.447 196.107L115.364 195.49V195.49C115.352 195.171 115.418 194.873 115.564 194.597C115.657 194.31 115.817 194.061 116.043 193.851C116.253 193.625 116.501 193.465 116.788 193.372C117.043 193.238 117.316 193.171 117.608 193.171V193.171ZM124.478 138.712C124.977 137.989 125.882 138.632 125.753 139.214C125.787 140.847 125.87 142.432 126.242 144.033C126.412 144.765 126.635 145.499 126.979 146.17L127.123 146.452C127.568 147.332 127.913 148.161 127.314 149.126C127.032 149.58 126.521 149.922 125.968 149.898C123.514 149.792 123.177 146.375 123.028 144.468C122.874 142.503 123.352 140.344 124.478 138.712Z" fill="black"/>
<path fill-rule="evenodd" clip-rule="evenodd" d="M72.9219 59.6854C74.0152 58.5092 75.4136 57.633 76.9422 57.353C75.5449 58.0527 74.179 58.7821 72.9219 59.6854ZM70.7803 69.8268C70.587 68.9305 70.4571 68.0255 70.4162 67.1207C70.6606 67.4931 71.0508 67.7419 71.4891 67.8704C71.206 68.5059 70.9652 69.1607 70.7803 69.8268ZM143.94 83.8802C142.678 78.614 136.79 68.4846 135.398 66.535C133.887 61.7075 142.129 57.8361 137.647 54.0612C135.617 52.3579 132.935 51.7551 130.419 51.1511C112.999 46.9571 94.2828 49.0722 78.1262 56.7846C75.6687 56.2662 73.1082 57.2794 71.3211 59.059C62.9251 67.5189 74.3673 82.783 76.8693 92.3204C81.162 102.955 72.3193 104.744 73.2676 113.742C74.0044 118.39 78.7009 119.619 82.6642 120.321C83.2994 120.47 84.1485 120.493 84.3535 121.166C84.9956 125.095 87.197 128.839 90.1525 131.381C89.8941 132.148 90.0914 133.08 91.0028 133.754C99.2603 139.906 109.672 142.985 119.971 142.431C132.245 141.772 138.592 134.719 140.124 132.903C148.592 121.438 147.58 106.311 145.853 92.6476C144.649 83.1293 146.175 93.2093 143.94 83.8802Z" fill="#FDC6A0"/>
<path fill-rule="evenodd" clip-rule="evenodd" d="M106.095 40.0596C106.481 38.8507 107.573 38.1237 108.823 38.2737C109.93 38.4048 111.114 39.5059 110.98 40.7212C110.954 40.9558 110.92 41.1756 110.88 41.3827L110.886 41.3845V41.3845L110.891 41.3848L110.864 41.4651C110.781 41.8519 110.667 42.1985 110.499 42.5261C110.284 43.1538 110.077 43.7836 109.873 44.4156C110.168 44.4029 110.469 44.4198 110.775 44.4769C111.091 43.6653 111.41 42.8558 111.726 42.0421C112.065 41.1734 112.303 40.0575 112.974 39.3854C113.832 38.5273 115.32 38.3498 116.366 38.9627C117.471 39.6095 117.865 40.7592 117.625 41.9914C117.502 42.6199 117.084 43.0573 116.565 43.3321L116.509 43.3609L116.111 44.3078C116.233 44.2549 116.36 44.2063 116.497 44.1662C116.712 44.1028 116.923 44.0626 117.129 44.0457C117.698 43.0122 118.325 42.0083 118.972 41.0234C119.716 39.8906 121.171 39.4087 122.391 40.1251C123.483 40.7655 124.069 42.4479 123.287 43.5533C122.693 44.3923 122.13 45.2483 121.575 46.1127C121.67 46.1296 121.765 46.1507 121.856 46.1782C121.898 46.1212 121.942 46.0641 121.989 46.007C122.594 45.2546 123.298 44.6903 124.021 44.0647C124.698 43.4772 125.01 42.5536 125.899 42.1076C127.019 41.5475 128.368 41.816 129.034 42.9319C130.464 45.3223 128.065 47.068 126.53 48.5158C127.864 47.6809 129.254 46.9179 130.679 46.2585C131.48 45.8887 132.294 45.5315 133.12 45.2229C134.345 44.7664 135.336 44.9124 136.341 45.7619C136.79 46.1423 137.014 46.9731 136.807 47.5266C136.407 48.5876 135.774 49.2322 134.665 49.5387C133.885 49.7543 133.086 49.9001 132.306 50.1262C130.999 50.5024 129.73 50.9611 128.499 51.5338C128.587 51.5888 128.672 51.648 128.75 51.7156C129.669 51.4176 130.605 51.1597 131.545 50.9399C133.105 50.5734 134.692 50.3257 136.286 50.1708L136.816 50.1214C138.727 49.9375 141.025 49.5982 142.198 51.4324C142.584 52.0369 142.626 53.0344 142.198 53.6325C141.38 54.7823 140.566 55.0105 139.213 55.0317C140.545 55.1733 141.875 55.3487 143.199 55.5537C144.112 55.6932 145.025 55.8513 145.933 56.0268L146.387 56.1159C147.494 56.3378 148.729 56.4668 149.68 57.1093C151.755 58.5126 150.781 61.2454 148.483 61.537C147.372 61.6765 146.138 61.2052 145.048 60.9854C143.99 60.772 142.927 60.5839 141.861 60.419C141.308 60.3323 140.756 60.2563 140.202 60.1865C141.329 60.3493 142.449 60.5796 143.539 60.9051L143.842 60.9967C145.949 61.6405 148.793 62.6659 149.45 64.9229C149.849 66.2945 148.759 67.4908 147.439 67.5711C146.212 67.6451 145.19 66.9117 144.148 66.3706C143.389 65.9775 142.618 65.6837 141.8 65.4322C140.954 65.1723 140.092 64.9567 139.223 64.7813C139.957 65.1867 140.672 65.6323 141.358 66.1307L141.674 66.3643C143.498 67.7268 146.279 69.8361 145.637 72.3899C145.434 73.1951 144.538 73.9644 143.678 73.882C141.439 73.6728 140.204 71.2824 138.515 70.0016C138.074 69.6677 137.592 69.338 137.086 69.0167C139.645 72.0771 141.681 75.6151 143.231 79.2693C146.637 87.3086 147.681 94.7537 147.706 103.398L147.707 103.665C147.711 108.434 147.603 113.288 147.14 118.035C146.71 122.421 145.921 126.749 143.937 130.721C140.613 137.38 134.134 142.567 126.989 144.541C119.039 146.739 110.153 145.02 103.641 139.948C101.98 138.655 104.183 135.846 105.88 137.04C112.658 141.806 121.424 143.315 129.203 140.09C135.374 137.532 140.343 132.031 142.449 125.697C143.789 121.667 144.18 117.37 144.658 113.171L144.69 112.891C145.196 108.499 145.489 104.078 145.485 99.6562C145.478 91.4452 144.302 84.6862 140.699 77.2383C139.004 73.7298 136.805 70.4858 134.178 67.6387C133.381 67.8015 132.534 67.5732 131.729 67.4866C131.317 67.4422 130.906 67.3999 130.495 67.3619C130.915 67.6341 131.327 67.9171 131.732 68.2068L132.263 68.5906C133.925 69.7836 136.033 71.1424 135.606 73.4487C135.49 74.0722 134.87 74.645 134.269 74.7866C132.091 75.3065 130.594 73.1846 129.123 71.9249C127.843 70.8301 126.504 69.8495 125.14 68.8667C124.831 68.6448 124.518 68.4228 124.204 68.203C124.5 68.548 124.787 68.8983 125.067 69.2519L125.481 69.7779C126.733 71.3494 128.539 73.392 127.424 75.4291C127.107 76.004 126.433 76.3865 125.779 76.3738C123.532 76.3273 122.638 73.77 121.584 72.1553C120.677 70.7709 119.693 69.4669 118.675 68.1629C118.394 67.8057 118.112 67.4485 117.825 67.0913C113.105 67.3365 108.401 67.9621 103.78 68.9618C100.605 69.6487 97.4827 70.5387 94.3836 71.5128L94.1261 71.5949C92.4489 72.1363 90.7208 72.8291 89.5115 74.0173C89.3389 74.8359 89.4714 75.6992 89.6365 76.5167L89.7652 77.1425C90.2955 79.7591 90.6568 82.3274 90.3864 85.0138C90.106 87.7846 89.2733 90.2765 88.2571 92.8507C87.7764 94.0639 87.2789 93.844 87.1081 95.146C86.9773 96.1376 87.0582 97.1613 87.1476 98.1613L87.2223 99.0091C87.4097 101.23 87.5038 103.651 86.0519 105.483C85.8263 105.764 85.3436 105.652 85.1833 105.371C85.1201 105.259 85.0526 105.151 84.9788 105.048C84.2789 104.031 83.2058 103.452 81.9788 103.228C81.8228 103.201 81.884 102.991 82.0147 102.974C83.0519 102.852 84.0344 103.112 84.8692 103.649C84.4733 102.276 81.4083 102.944 80.4008 103.21L80.3661 103.22C79.1096 103.558 77.9205 104.107 76.8727 104.885C74.7645 106.449 73.546 108.888 73.6071 111.515C73.6682 114.098 74.9985 116.484 77.2838 117.72C78.3864 118.316 79.6408 118.604 80.8889 118.591C82.1918 118.578 83.3513 118.006 84.6563 118.086C85.411 118.132 85.9887 118.944 85.5523 119.652C85.2613 120.125 84.8819 120.497 84.4434 120.783C85.5122 123.253 86.8762 125.61 88.449 127.785C89.3197 128.992 90.3063 130.105 91.392 131.122C92.2395 131.917 94.0758 132.836 93.9725 134.161C93.9367 134.639 93.69 134.931 93.2557 135.108C91.9055 135.661 90.2637 133.756 89.3606 132.837L89.288 132.764C88.1622 131.64 87.1355 130.397 86.2417 129.078C84.6563 126.736 83.6717 124.097 83.2649 121.324C81.0997 121.977 78.2325 121.364 76.4659 120.563C70.9128 118.048 69.0976 110.551 72.4729 105.559C73.1264 104.593 73.9444 103.767 74.8763 103.099C74.6718 102.987 74.4799 102.843 74.3091 102.662C73.3645 101.656 72.6966 100.343 72.0338 99.133L71.9543 98.9883C71.3658 97.9231 70.8107 96.8412 70.2904 95.7426L70.0969 95.3298C68.9353 92.8253 67.917 91.7305 67.0885 89.0971C66.2916 86.5567 65.6633 83.9677 65.2565 81.3342L65.1483 80.6372C64.913 79.1091 64.6905 77.4751 64.8622 75.9237C63.6795 76.3104 62.4905 76.5493 61.3204 75.968C60.5488 75.5855 60.1229 74.4696 60.3865 73.6686C60.5783 73.0789 60.8988 72.616 61.3056 72.2525C61.0632 72.1299 60.8355 71.9735 60.6352 71.8002L60.4603 71.6483V71.6483C59.7519 71.0309 59.7013 69.8579 60.1314 69.0844C60.1735 69.0104 60.2157 68.9343 60.2558 68.8603C60.6647 68.1269 61.5101 67.6472 62.345 67.6599C62.4799 67.662 62.6149 67.662 62.7519 67.6599C62.3619 67.5732 61.9803 67.4401 61.6177 67.216C59.9817 66.2079 60.1883 63.4751 62.1679 62.9932C62.9985 62.7925 63.9156 62.8749 64.8306 63.0905C64.7969 63.0714 64.7631 63.0524 64.7294 63.0313C64.0379 62.6065 63.4581 61.7759 63.5235 60.9241C63.5952 59.9815 63.8988 59.3094 64.7294 58.8149C65.4504 58.3879 66.4708 58.3478 67.1876 58.8149C67.8095 59.2228 68.4188 59.6729 69.0049 60.1569C68.4167 59.432 67.9065 58.6437 67.6999 57.8067C67.4448 56.7648 67.8706 55.6298 68.8067 55.0803C69.553 54.6428 70.3415 54.6914 71.0456 55.0296C71.0077 54.4822 71.1405 53.9242 71.5031 53.4296C72.2452 52.4154 73.5945 51.8318 74.7687 52.5716C74.9226 52.6688 75.1292 52.8358 75.3295 53.0408C74.9395 51.7959 75.2916 50.4898 76.6219 49.9276C77.4335 49.5831 78.5319 49.7564 79.2361 50.3503C78.7891 47.9261 82.3583 46.1444 83.7455 48.6489C84.0604 49.2163 84.3719 49.8137 84.6504 50.4248L84.7533 50.6546L84.7638 50.6504L84.6929 50.4824V50.4824L84.6204 50.3143C84.2346 49.4161 83.7434 48.4819 83.6085 47.5076C83.4103 46.0662 84.0512 44.6988 85.6155 44.4874C86.423 44.3775 87.3211 44.7453 87.8629 45.388C87.5698 43.1517 90.0618 41.5264 91.8558 43.1961C92.7055 43.9865 93.1587 45.1426 93.6984 46.1571C94.0041 46.7298 94.3161 47.3005 94.6218 47.8754C94.6998 47.7824 94.7842 47.6894 94.8727 47.5985C94.4194 46.2374 94.0674 44.8425 93.7701 43.4391C93.4876 42.1161 94.1475 40.7423 95.5094 40.3684C96.7469 40.0258 98.2965 40.7911 98.5726 42.1121C98.7666 43.0418 98.9964 43.9614 99.2494 44.8763C99.4222 44.834 99.593 44.8044 99.7617 44.7833C99.7757 44.6114 99.7917 44.4386 99.8095 44.2667L99.8758 43.6553C100.023 42.2584 100.172 40.6638 100.9 39.4763C102.142 37.4473 105.325 38.2885 105.359 40.6873C105.378 41.928 104.874 43.158 104.699 44.386C104.623 44.9207 104.579 45.4617 104.554 46.0028C104.893 44.2063 105.359 42.4331 105.899 40.6873C105.962 40.4781 106.029 40.2689 106.095 40.0596ZM78.6289 109.336C81.4223 108.903 83.9753 110.465 85.6303 112.652C85.9317 113.052 85.7336 113.616 85.4616 113.952C85.2655 114.199 85.002 114.229 84.7048 114.267C84.3632 114.311 83.931 114.034 83.7814 113.736C82.7167 111.606 80.8172 110.26 78.6289 109.431C78.5888 109.416 78.5762 109.345 78.6289 109.336ZM82.5012 71.1653L82.5858 71.0742C83.151 70.4865 82.2578 69.5886 81.6913 70.1777C81.0949 70.7978 80.6985 71.551 80.3174 72.3144C79.9541 73.0423 81.0449 73.6852 81.4096 72.9546L81.5757 72.6225C81.8364 72.1062 82.1143 71.596 82.5012 71.1653V71.1653ZM74.6564 69.9589C75.4575 69.8237 75.1179 68.6014 74.3201 68.7363C73.2867 68.9108 72.2572 69.1093 71.2236 69.2841C70.4226 69.4194 70.7623 70.6416 71.56 70.507C72.5935 70.3322 73.6229 70.1337 74.6564 69.9589ZM122.38 61.6146C121.606 61.3557 121.274 62.5801 122.043 62.8375C123.107 63.1932 124.162 63.5578 125.171 64.0517C125.9 64.4084 126.542 63.3151 125.809 62.9567C124.702 62.4146 123.547 62.0052 122.38 61.6146ZM74.4742 59.9712C73.7184 59.6681 73.3902 60.8941 74.138 61.194L76.8702 62.2895V62.2895C77.626 62.5925 77.9543 61.3667 77.2065 61.0668L74.4742 59.9712V59.9712ZM131.92 56.9937L131.821 56.9307C131.135 56.4856 130.501 57.5829 131.182 58.0257C131.582 58.2855 132.068 58.4617 132.435 58.7711L132.511 58.8396C133.103 59.3997 133.999 58.5048 133.406 57.9428C132.972 57.5321 132.422 57.3034 131.92 56.9937V56.9937Z" fill="black"/>
<path fill-rule="evenodd" clip-rule="evenodd" d="M129.373 128.003C128.022 128.014 126.504 127.507 125.489 127.11L125.224 127.005C124.346 126.653 123.443 126.249 122.77 125.571C122.555 125.351 122.326 125.101 122.21 124.839C122.142 124.685 122.113 124.526 122.179 124.368C122.422 124.344 122.653 124.313 122.872 124.273C122.976 124.254 123.075 124.234 123.152 124.234C123.433 124.232 123.712 124.268 123.99 124.303C124.03 124.308 124.071 124.313 124.111 124.318C124.328 124.345 124.543 124.374 124.758 124.403C125.385 124.487 126.007 124.571 126.642 124.601C127.101 124.623 127.582 124.597 128.067 124.571C129.325 124.502 130.626 124.409 131.595 125.29C131.849 125.521 131.956 125.812 131.956 126.108C131.956 126.468 131.804 126.835 131.573 127.123C131.05 127.773 130.244 127.996 129.373 128.003ZM136.736 116.649C136.148 117.531 135.17 118.098 133.829 118.036C131.163 117.914 127.982 116.908 125.749 115.454C125.168 115.075 124.791 114.469 124.724 113.821L124.603 112.667L123.953 113.628C123.886 113.728 123.817 113.828 123.749 113.928C123.561 114.203 123.373 114.478 123.195 114.76C122.514 115.842 121.89 116.936 121.323 118.082C120.922 118.894 120.628 119.802 120.334 120.719C119.837 122.266 119.357 123.787 118.296 124.874C118.135 125.039 117.888 125.098 117.663 125.069C117.464 125.043 117.269 124.945 117.173 124.751C115.905 122.171 117.61 119.062 118.994 116.9L119.141 116.674C120.424 114.721 122.519 112.136 124.919 111.785L125.194 112.223L125.594 111.956C126.247 111.52 127.109 111.541 127.864 111.882L128.62 112.223C130.025 112.854 131.412 113.436 132.932 113.755C133.043 113.778 133.154 113.8 133.265 113.82C133.369 113.839 133.474 113.857 133.579 113.873C133.557 113.77 133.532 113.666 133.508 113.563C133.482 113.454 133.456 113.345 133.428 113.236C133.4 113.124 133.369 113.012 133.338 112.901C133.217 112.457 133.079 112.017 132.916 111.587C132.302 109.968 131.321 108.454 130.367 107.01L130.255 106.84C130.118 106.633 129.969 106.417 129.814 106.194C129.07 105.123 128.245 103.96 128.186 102.792C129.174 102.854 130 103.468 130.727 104.002C131.726 104.735 132.651 105.573 133.49 106.483C135.117 108.25 136.578 110.507 137.219 112.841C137.586 114.178 137.424 115.616 136.736 116.649V116.649ZM110.694 103.334L110.694 103.287C110.697 101.939 111.481 98.8617 113.421 98.8617C114.632 98.8617 115.368 100.956 115.495 103.115L115.5 103.203C115.556 104.545 115.188 107.479 113.421 107.479C111.635 107.479 110.712 104.7 110.694 103.334V103.334ZM139.248 102.911L139.248 102.864C139.245 101.516 138.461 98.4389 136.521 98.4389C135.34 98.4389 134.611 100.43 134.457 102.53L134.447 102.692C134.37 103.989 134.714 107.056 136.521 107.056C138.307 107.056 139.23 104.277 139.248 102.911V102.911ZM117.226 94.2132C116.969 94.2433 116.713 94.2828 116.457 94.3234C115.712 94.4423 114.97 94.585 114.233 94.7512C112.834 95.0672 111.446 95.4662 110.085 95.9171C108.811 96.3391 107.557 96.8161 106.303 97.293C106.236 97.3185 106.169 97.3439 106.102 97.3694C105.659 97.5378 105.218 97.7264 104.776 97.9157C104.102 98.2039 103.425 98.4939 102.735 98.7125C104.554 96.1961 107.357 94.3316 110.055 92.9974C111.594 92.2362 113.226 91.6223 114.869 91.1193L115.783 90.8444C117.13 90.4469 118.602 90.0798 119.868 90.8723C120.368 91.1858 120.687 91.6731 120.788 92.1998C120.886 92.7165 120.774 93.2704 120.417 93.7326C120.107 94.1353 119.719 94.3647 119.307 94.4433C118.853 94.53 118.371 94.4347 117.932 94.2003C117.58 94.1741 117.477 94.1836 117.373 94.1952L117.226 94.2132ZM137.486 94.4692C136.584 94.2732 135.692 94.1945 134.767 94.2227C134.349 94.2353 133.944 94.2999 133.541 94.3649C132.914 94.4659 132.29 94.5703 131.615 94.4477C131.262 94.3837 130.962 94.1776 130.731 93.9086C130.46 93.594 130.281 93.192 130.223 92.8098C130.164 92.4149 130.223 92.0696 130.369 91.7647C130.541 91.4045 130.832 91.1009 131.183 90.8349C132.246 90.03 134.07 90.2236 135.324 90.3863C136.564 90.5475 137.797 90.932 138.892 91.5428C139.973 92.1456 140.913 92.9576 141.647 93.9502C142.265 94.7869 142.556 95.7498 142.857 96.7302C141.442 95.5432 139.278 94.8583 137.486 94.4692Z" fill="black"/>
<path fill-rule="evenodd" clip-rule="evenodd" d="M134.774 123.403C135.353 123.997 135.908 124.633 136.432 125.29C136.578 126.334 136.612 127.391 136.479 128.482C136.284 130.063 135.853 131.608 135.27 133.091C134.926 133.043 134.586 132.945 134.254 132.793C133.202 132.309 132.615 131.335 131.903 130.475C130.485 128.765 127.899 127.755 126.091 129.528C125.305 130.299 124.802 131.367 124.101 132.214C123.329 133.146 122.463 134.032 121.559 134.835C121.447 134.936 121.331 135.046 121.21 135.154C120.708 134.579 120.213 134 119.729 133.413C118.291 131.663 117.048 129.724 116.396 127.539C116.189 126.846 116.06 126.123 116.009 125.394C116.649 124.599 117.38 123.876 118.21 123.278C120.714 121.471 123.598 121.177 126.598 121.021C129.701 120.86 132.496 121.072 134.774 123.403M142.346 131.787C142.225 130.578 142.039 129.321 141.765 128.065C140.761 123.407 138.587 118.764 134.229 116.636C132.167 115.627 129.824 115.272 127.601 115.758C123.701 114.298 119.37 115.788 116.301 118.459C112.679 121.611 111.008 126.556 110.446 131.189C110.055 134.412 109.908 138.718 110.822 141.057C111.737 143.396 117.546 149.649 125.839 149.693C137.651 149.755 140.522 141.786 140.871 141.089C142.327 138.189 142.665 134.987 142.346 131.787" fill="black"/>
<path fill-rule="evenodd" clip-rule="evenodd" d="M146.746 108.863C144.807 111.287 137.215 113.977 133.174 111.056C129.133 108.136 127.536 106.1 126.996 102.45C126.939 102.061 126.235 101.802 125.938 102.079C124.273 103.626 123.195 105.596 122.127 107.572C120.923 109.8 119.737 112.042 117.548 113.55C113.672 115.629 106.659 115.925 104.587 115.008C100.618 113.251 97.4787 109.495 96.7648 104.325C96.7648 104.325 96.0386 102.032 95.4024 101.55C94.7994 101.092 91.4714 100.685 91.1068 100.617C84.5365 99.3975 76.2269 98.6201 70.375 102.911C69.5831 103.39 66.8719 105.189 66.8318 104.746C66.8035 103.013 68.7665 99.0913 73.2309 97.225C78.7517 94.9172 86.9584 94.7822 91.7128 95.2915C91.9519 95.3171 92.767 95.1168 92.8246 95.0918C100.027 91.9721 108.315 92.8007 116.022 94.1119C117.127 94.3263 127.013 96.7753 130.946 95.2915C137.448 92.6361 144.38 90.7123 151.402 91.4692C151.46 91.4755 152.347 96.8579 151.656 97.225C151.107 97.5173 150.172 98.266 149.84 98.6758C149.543 99.0421 149.355 99.4975 149.372 100.128C149.506 103.778 148.465 106.715 146.746 108.863ZM120.013 105.606C120.837 104.413 121.097 101.733 120.752 99.7774C120.578 98.7874 120.238 97.9994 119.812 97.6071C119.529 97.3463 119.206 97.2236 118.854 97.2418C118.661 97.2518 118.452 97.3068 118.23 97.4263C115.232 95.8036 111.599 95.2193 108.156 95.3874C105.414 95.3868 103.459 96.0341 102.132 97.0417C100.537 98.254 99.8176 99.9968 99.776 101.887C99.7266 104.13 100.648 106.583 102.158 108.525C103.604 110.383 105.582 111.761 107.728 112.078C110.164 112.562 112.647 112.094 114.805 110.949C117.019 109.775 118.889 107.889 120.013 105.606ZM144.051 106.871C145.44 105.229 146.364 103.092 146.505 100.975C146.633 99.0478 146.117 97.1392 144.691 95.562C143.398 94.4519 141.114 94.4335 138.711 95.0517C135.603 95.851 132.389 97.6373 131.317 98.7909C131.065 98.9233 130.83 99.1539 130.626 99.6485L130.625 99.8248C130.3 101.323 130.493 102.842 131.054 104.245C131.664 105.768 132.711 107.15 133.986 108.205C135.681 109.602 137.45 110.029 139.106 109.804C140.981 109.548 142.725 108.438 144.051 106.871Z" fill="white"/>
<path fill-rule="evenodd" clip-rule="evenodd" d="M130.722 94.6983C137.307 92.0091 144.345 90.0708 151.47 90.8389C152.059 90.6146 152.79 90.8036 153.052 91.6371C155.589 99.3715 149.93 97.2206 150.006 100.112C150.599 116.323 128.819 119.092 126.37 102.543L126.324 102.57V102.57C122.801 105.859 122.059 111.212 117.908 114.072C109.535 120.198 97.6654 115.344 96.1409 104.439L96.1077 104.291C95.5959 102.066 94.9841 101.514 92.4602 101.525L92.0615 101.445C85.5039 100.153 76.7716 98.9915 70.7318 103.436C69.4181 104.201 69.3564 106.165 68.2464 107.019C67.0303 107.255 66.2812 105.792 66.1988 104.78C66.0061 94.6848 84.0632 93.9586 92.1501 94.8249C92.3045 94.6649 92.6343 94.6848 92.7454 94.8841C100.059 91.7164 108.299 92.1547 116.13 93.4869C120.98 94.4263 125.772 96.5662 130.722 94.6983ZM150.814 92.7025C146.863 92.5049 143.209 92.7211 139.331 93.6712C137.287 94.1645 135.719 94.7881 133.762 95.5382C121.56 100.946 120.152 91.3332 92.7999 95.1016C93.1538 96.6178 93.2189 98.119 93.2379 99.5435C98.8227 99.3184 97.5078 104.653 99.6002 108.4L99.6646 108.513C102.714 113.981 109.91 116.531 115.714 112.904C120.557 110.081 121.03 102.919 125.851 100.077C130.031 99.9125 128.361 105.556 130.636 107.875C133.837 112.149 140.642 112.746 144.657 108.726C146.54 106.792 147.541 104.336 147.597 101.698C147.702 100.012 147.413 98.2989 148.687 97.1132C149.58 96.2057 151.166 96.5085 151.348 95.1367C151.464 94.3255 151.127 93.4456 150.814 92.7025ZM107.876 94.9121C111.801 94.7187 115.953 95.4005 119.323 97.3261C121.818 95.3403 122.429 103.232 120.773 105.515C118.388 110.398 112.834 113.608 107.487 112.542C99.1448 111.333 93.3324 94.8975 107.876 94.9121ZM119.084 97.8553L118.87 97.8241C115.255 97.2723 105.411 94.7156 101.614 98.7508C97.9296 105.444 107.278 116.687 117.005 107.732C119.713 104.974 120.762 101.63 119.084 97.8553ZM130.541 98.7108C132.413 96.4931 141.955 92.001 145.281 94.8836C151.351 101.689 141.724 115.455 133.661 108.748C130.976 106.507 129.209 102.935 129.982 99.4761L129.983 99.3311C129.985 99.2785 129.995 99.2905 130.051 99.225C130.15 98.9635 130.329 98.7966 130.541 98.7108ZM145.196 102.836C147.243 91.7278 138.687 95.9505 131.66 98.9154C132.038 99.2601 132.036 99.7307 131.928 100.118C131.186 108.359 141.2 113.03 145.196 102.836ZM92.0081 95.3647C89.0772 96.3576 69.691 94.5819 67.9001 103.673C69.7906 100.609 73.7058 99.393 77.2255 98.7332C82.013 97.8356 86.7744 98.3553 91.4947 99.2998L91.5922 98.3225C91.6969 97.2859 91.8073 96.3162 92.0081 95.3647Z" fill="black"/>
</g>
<defs>
<clipPath id="clip0_2016_14086">
<rect width="200" height="267" fill="white"/>
</clipPath>
</defs>
</svg>
